<?xml version="1.0" standalone="no"?>
<!DOCTYPE svg PUBLIC "-//W3C//DTD SVG 1.1//EN" "http://www.w3.org/Graphics/SVG/1.1/DTD/svg11.dtd" >
<svg xmlns="http://www.w3.org/2000/svg">
<metadata></metadata>
<defs>
<font id="ostrich_sansmedium" horiz-adv-x="1705" >
<font-face units-per-em="2048" ascent="1536" descent="-512" />
<missing-glyph horiz-adv-x="430" />
<glyph horiz-adv-x="2048" />
<glyph horiz-adv-x="2048" />
<glyph horiz-adv-x="682" />
<glyph unicode="&#xd;" horiz-adv-x="430" />
<glyph unicode=" "  horiz-adv-x="430" />
<glyph unicode="&#x09;" horiz-adv-x="430" />
<glyph unicode="&#xa0;" horiz-adv-x="430" />
<glyph unicode="!" horiz-adv-x="190" d="M18 2h64v88h-64v-88zM18 203h64v1179h-64v-1179z" />
<glyph unicode="&#x22;" horiz-adv-x="331" d="M20 1200h64v180h-64v-180zM141 1200h66v180h-66v-180z" />
<glyph unicode="#" horiz-adv-x="1110" d="M-41 463h287l-90 -463h65l90 463h289l-88 -463h66l88 463h272v65h-258l61 322h260v65h-245l88 465h-66l-88 -465h-291l93 465h-68l-90 -465h-311v-65h299l-64 -322h-299v-65zM324 528l63 322h289l-64 -322h-288z" />
<glyph unicode="$" horiz-adv-x="655" d="M39 414q0 -163 72 -242q54 -61 151 -72v-100h64v100q101 12 161 90q62 83 62 216q0 122 -76 202q-46 46 -133 86l-6 4q-6 0 -8 2v514q73 -11 108 -53q51 -61 51 -196v-33h64v33q0 159 -70 243q-54 59 -153 70v102h-64v-102q-104 -12 -163.5 -95t-59.5 -218 q0 -123 78 -205q41 -45 129 -90q3 -1 8 -4t8 -4v-498q-65 3 -108 55q-52 62 -52 195v32h-63v-32zM102 965q0 95 37 159q41 76 123 88v-477q-65 30 -106 76q-54 57 -54 154zM326 166v463q70 -34 106 -70q53 -60 53 -153q0 -104 -42 -166.5t-117 -73.5z" />
<glyph unicode="%" horiz-adv-x="919" d="M0 922q0 -84 47 -136.5t121 -52.5t121 52.5t47 136.5v176q0 84 -47 136t-121 52t-121 -52t-47 -136v-176zM63 922v176q0 49 26 86t79 37q52 0 77 -36.5t25 -86.5v-176q0 -50 -25 -86.5t-77 -36.5q-53 0 -79 37t-26 86zM109 0h69l553 1380h-69zM502 281q0 -85 46.5 -137 t121.5 -52q74 0 120 52.5t46 136.5v176q0 84 -46 135t-120 51q-75 0 -121.5 -51t-46.5 -135v-176zM565 281v176q0 46 23 82q26 41 82 41q54 0 80 -41q22 -34 22 -82v-176q0 -50 -25 -87.5t-77 -37.5q-55 0 -80 37.5t-25 87.5z" />
<glyph unicode="&#x26;" horiz-adv-x="878" d="M0 340q0 -149 84.5 -244.5t224.5 -95.5q209 0 314 147l86 -147h73l-123 211q0 2 3 2v2q63 136 63 375v20h-66v-20q0 -200 -41 -309l-268 460q2 2 16 19.5t22.5 28.5t21.5 31.5t22 41.5q51 111 51 238q0 124 -28 186q-40 94 -146 94q-95 0 -139 -80q-35 -72 -35 -200 q0 -88 53 -203q37 -81 80 -145l-37 -31q-6 -5 -34 -33q-4 -3 -20.5 -17.5t-22 -19.5t-19.5 -17.5t-21 -20t-18 -19t-19 -22t-16 -21.5q-61 -87 -61 -211zM63 340q0 105 52 176q33 47 123 123q5 5 16 14.5t16 14.5q25 20 31 26l285 -485q-87 -146 -277 -146q-116 0 -186 87 q-60 75 -60 190zM201 1100q0 125 32 180q21 37 76 37q58 0 80 -41q29 -60 29 -176q0 -141 -64 -248q-22 -36 -41 -55q-48 82 -69 133q-43 95 -43 170z" />
<glyph unicode="'" horiz-adv-x="165" d="M20 1200h64v180h-64v-180z" />
<glyph unicode="(" horiz-adv-x="339" d="M14 686q0 -347 95 -545q36 -80 67 -104l35 -33l33 55q-13 8 -27 25q-22 25 -55 92q-84 181 -84 510q0 324 84 514q15 35 31 57q21 36 53 64l-37 55l-35 -30q-30 -30 -65 -107q-95 -206 -95 -553z" />
<glyph unicode=")" horiz-adv-x="323" d="M27 59l34 -55l35 33q29 26 68 106q94 204 94 551q0 353 -94 545q-36 80 -66 107l-37 30l-32 -55h-2q1 0 3.5 -2.5t10 -9.5t14.5 -13q27 -27 56 -92q34 -78 55 -184q27 -142 27 -326q0 -333 -84 -514q-15 -35 -31 -57q-24 -37 -51 -64z" />
<glyph unicode="*" horiz-adv-x="604" d="M20 1174l197 -74l-147 -168l49 -43l153 176l156 -176l49 43l-149 168l198 74l-22 61l-199 -74v211h-63v-211l-199 74z" />
<glyph unicode="+" horiz-adv-x="786" d="M25 651h299v-299h65v299h299v66h-299v299h-65v-299h-299v-66z" />
<glyph unicode="," horiz-adv-x="174" d="M27 -82h63v170h-63v-170z" />
<glyph unicode="-" horiz-adv-x="612" d="M27 657h499v64h-499v-64z" />
<glyph unicode="." horiz-adv-x="165" d="M25 0h65v88h-65v-88z" />
<glyph unicode="/" horiz-adv-x="786" d="M43 0h70l553 1380h-70z" />
<glyph unicode="0" horiz-adv-x="655" d="M18 371q0 -179 64.5 -275t191.5 -96q125 0 190.5 98t65.5 273v641q0 175 -64.5 271.5t-191.5 96.5q-256 0 -256 -368v-641zM82 371v641q0 305 192 305q191 0 191 -305v-641q0 -308 -191 -308q-192 0 -192 308z" />
<glyph unicode="1" horiz-adv-x="397" d="M16 1108l50 -41l157 203v-1270h66v1380h-64z" />
<glyph unicode="2" horiz-adv-x="655" d="M25 0h512v63h-447q5 167 55 285.5t158 214.5q234 209 234 488q0 145 -68 237t-188 92q-127 0 -191.5 -87t-64.5 -251v-32h65v32q0 142 47 208.5t144 66.5q91 0 140.5 -70.5t49.5 -195.5q0 -246 -211 -439q-134 -122 -186 -270q-49 -131 -49 -309v-33z" />
<glyph unicode="3" horiz-adv-x="620" d="M20 365q0 -175 65 -270t191 -95q117 0 186.5 96t69.5 260q0 173 -108 277q-36 36 -78 55q44 23 78 57q108 104 108 277q0 157 -61 248q-67 110 -195 110q-126 0 -191 -95t-65 -271v-33h66v33q0 303 190 303q90 0 140 -80q51 -80 51 -215q0 -139 -84 -227 q-74 -74 -160 -74h-59v-64h59q82 0 156 -69q88 -84 88 -232q0 -65 -12 -118q-7 -31 -19 -59t-32 -55.5t-53 -44t-75 -16.5q-190 0 -190 302v32h-66v-32z" />
<glyph unicode="4" horiz-adv-x="663" d="M20 422h482v-422h65v1380h-61l-486 -897v-61zM96 485l406 750v-750h-406z" />
<glyph unicode="5" horiz-adv-x="634" d="M18 360q0 -173 65 -266.5t191 -93.5q125 0 195 113q61 99 61 247v146q0 172 -61 260q-70 94 -195 94q-120 0 -190 -104v561h446v63h-512v-886h66v12q0 132 50 210.5t140 78.5q98 0 144.5 -69t46.5 -220v-146q0 -64 -12 -116q-39 -181 -179 -181q-95 0 -142.5 72 t-47.5 225v23h-66v-23z" />
<glyph unicode="6" horiz-adv-x="638" d="M18 324q0 -154 67.5 -239t188.5 -85q127 0 195 115q61 103 61 254v149q0 176 -63.5 268.5t-192.5 92.5q-120 0 -190 -105v154q0 152 33 250q47 139 157 139q92 0 141.5 -65t49.5 -187v-31h65v31q0 146 -65.5 230.5t-190.5 84.5q-101 0 -163 -77q-93 -115 -93 -375v-604z M84 324v196q0 135 50 215t140 80q95 0 143 -72t48 -225v-149q0 -65 -12 -121q-39 -185 -179 -185q-109 0 -157 95q-33 65 -33 166z" />
<glyph unicode="7" horiz-adv-x="770" d="M12 1317h613l-551 -1317h69l551 1319v61h-682v-63z" />
<glyph unicode="8" horiz-adv-x="679" d="M14 360q0 -181 67.5 -270.5t211.5 -89.5q142 0 209 88t67 272q0 183 -65 269q-25 38 -70 61q44 23 70 62q65 86 65 268q0 184 -67 272t-209 88q-144 0 -211.5 -89.5t-67.5 -270.5q0 -177 66 -268q26 -39 70 -62q-45 -23 -70 -61q-66 -91 -66 -269zM80 360q0 158 51 228.5 t162 70.5t161 -70t50 -229q0 -161 -51 -229q-50 -68 -160 -68q-111 0 -162 69.5t-51 227.5zM80 1020q0 158 51 227.5t162 69.5t161 -69t50 -228t-50 -228t-161 -69q-109 0 -162 68q-51 68 -51 229z" />
<glyph unicode="9" horiz-adv-x="630" d="M16 334q0 -156 65.5 -245t190.5 -89q128 0 192 117.5t64 333.5v610q0 152 -65 235.5t-191 83.5q-117 0 -186.5 -99t-69.5 -265v-152q0 -179 64.5 -271.5t191.5 -92.5q124 0 191 106v-155q0 -169 -35 -258q-50 -130 -156 -130q-93 0 -141.5 69t-48.5 202v33h-66v-33z M82 864v152q0 136 51.5 218.5t138.5 82.5q191 0 191 -256v-199q0 -66 -12 -121q-43 -176 -179 -176q-96 0 -143 71t-47 228z" />
<glyph unicode=":" horiz-adv-x="231" d="M29 334h63v155h-63v-155zM29 897h63v156h-63v-156z" />
<glyph unicode=";" horiz-adv-x="198" d="M27 260h65v229h-65v-229zM27 897h65v156h-65v-156z" />
<glyph unicode="&#x3c;" />
<glyph unicode="=" horiz-adv-x="638" d="M27 412h499v63h-499v-63zM27 842h499v63h-499v-63z" />
<glyph unicode="&#x3e;" />
<glyph unicode="?" horiz-adv-x="620" d="M29 997h65v31q0 153 51 221q46 70 140 70q87 0 141 -78q49 -73 49 -203q0 -108 -47 -186q-9 -16 -23 -32t-20.5 -23t-26 -24.5t-20.5 -18.5q-21 -13 -37 -33q-60 -66 -84 -211q-18 -97 -18 -266v-39h63v39q-1 159 21.5 272.5t64.5 161.5q3 6 12 12q12 8 19 15 q65 52 102 112q60 96 60 221q0 145 -62 240q-73 104 -194 104q-126 0 -191 -93t-65 -261v-31zM197 2h65v88h-65v-88z" />
<glyph unicode="@" horiz-adv-x="1325" d="M25 727q-35 -203 29.5 -360t219.5 -254q171 -103 398 -103h45q245 12 432 146l27 20l-39 51l-25 -18q-166 -120 -399 -133q-236 -13 -404 92q-137 85 -193.5 225.5t-27.5 323.5q35 222 182 362q120 114 289 154q157 34 301 -19q146 -54 221 -174q53 -86 66 -219 q9 -127 -33 -239q-32 -77 -121 -129q-80 -50 -157 -50q-8 0 -33 5q-44 12 -35 57l8 55q5 29 15 86q4 31 16 101q2 12 5 31.5t5.5 34.5t5.5 28q5 33 13 71l4 29l4 33l-64 10l-4 -31l-4 -16q-2 3 -16 14q-53 37 -158 37q-111 0 -174.5 -67t-77.5 -193q-36 -252 201 -252 q57 0 92 6t63 27q-4 -47 17.5 -79.5t64.5 -43.5q44 -12 104 -1.5t116 40.5q126 66 170 172q46 115 36 270q-13 151 -75 248q-89 138 -248 199q-157 60 -342 22q-196 -41 -332 -180q-151 -161 -188 -389zM410 680q12 105 57 156q47 47 131 47q40 0 74 -6q31 -6 47.5 -17.5 t28.5 -34.5q9 -24 0 -82q-34 -176 -72 -213q-19 -18 -46 -23t-83 -5q-85 0 -117 38t-20 140z" />
<glyph unicode="A" horiz-adv-x="802" d="M20 0h66l94 422h365l94 -422h66l-316 1380h-51l-209 -895v-6zM197 485l165 721l168 -721h-333z" />
<glyph unicode="B" horiz-adv-x="688" d="M35 0h227q157 0 231 89t74 271t-71 271q-32 38 -76 59q41 21 76 62q71 89 71 268q0 182 -74 271t-231 89h-227v-1380zM100 63v596h162q128 0 184 -69.5t56 -229.5t-55.5 -228.5t-184.5 -68.5h-162zM100 723v594h162q129 0 184.5 -68.5t55.5 -228.5q0 -158 -56 -227.5 t-184 -69.5h-162z" />
<glyph unicode="C" horiz-adv-x="704" d="M16 367q0 -203 97 -297q73 -70 198 -70q124 0 197 70q96 93 96 297v32h-65v-32q0 -156 -58 -232q-60 -72 -170 -72q-116 0 -172.5 73.5t-56.5 230.5v649q0 156 57 228.5t172 72.5q228 0 228 -301v-33h65v33q0 208 -96 297q-72 67 -197 67q-126 0 -198 -67 q-97 -90 -97 -297v-649z" />
<glyph unicode="D" horiz-adv-x="712" d="M25 0h235q163 0 241.5 93.5t78.5 279.5v635q0 186 -78.5 279t-241.5 93h-235v-1380zM88 63v1254h172q133 0 193.5 -74.5t60.5 -234.5v-635q0 -161 -60.5 -235.5t-193.5 -74.5h-172z" />
<glyph unicode="E" horiz-adv-x="620" d="M20 0h496v63h-432v596h432v64h-432v594h432v63h-496v-1380z" />
<glyph unicode="F" horiz-adv-x="630" d="M14 0h64v659h432v64h-432v594h432v63h-496v-1380z" />
<glyph unicode="G" horiz-adv-x="720" d="M20 365q0 -178 74 -271.5t221 -93.5t221 92.5t74 272.5v245h-364v-65h299v-180q0 -153 -57 -227.5t-173 -74.5q-117 0 -174 74t-57 228v653q0 177 80 250q54 49 151 49q98 0 152 -49q78 -71 78 -250v-33h65v33q0 362 -295 362t-295 -362v-653z" />
<glyph unicode="H" horiz-adv-x="704" d="M20 0h66v657h418v-657h65v1380h-65v-659h-418v659h-66v-1380z" />
<glyph unicode="I" horiz-adv-x="223" d="M47 0h64v1380h-64v-1380z" />
<glyph unicode="J" horiz-adv-x="663" d="M0 338q0 -338 274 -338q273 0 273 338v1042h-64v-1042q0 -275 -209 -275q-91 0 -139 46q-72 68 -72 229v31h-63v-31z" />
<glyph unicode="K" horiz-adv-x="737" d="M16 0h66v479l139 207l389 -686h74l-424 748l424 632h-78l-524 -784v784h-66v-1380z" />
<glyph unicode="L" horiz-adv-x="604" d="M8 0h529v63h-463v1317h-66v-1380z" />
<glyph unicode="M" horiz-adv-x="968" d="M14 0h64v1118l321 -1118h50l319 1118v-1118h66v1380h-58l-352 -1230l-354 1230h-56v-1380z" />
<glyph unicode="N" horiz-adv-x="737" d="M18 0h66v1182l477 -1182h53v1380h-65v-1181l-475 1181h-56v-1380z" />
<glyph unicode="O" horiz-adv-x="729" d="M20 367q0 -203 97 -297q73 -70 196 -70q126 0 199 70q96 93 96 297v649q0 179 -74 271.5t-221 92.5q-145 0 -219 -93t-74 -271v-649zM84 367v649q0 154 56 227.5t173 73.5t173.5 -72.5t56.5 -228.5v-649q0 -157 -57.5 -230.5t-172.5 -73.5q-116 0 -172.5 74.5 t-56.5 229.5z" />
<glyph unicode="P" horiz-adv-x="696" d="M23 0h63v659h184q164 0 243 90t79 271t-78.5 270.5t-243.5 89.5h-247v-1380zM86 723v594h184q137 0 196.5 -69t59.5 -228q0 -156 -60.5 -226.5t-195.5 -70.5h-184z" />
<glyph unicode="Q" horiz-adv-x="712" d="M12 373q0 -181 74.5 -277t220.5 -96q104 0 172 51l94 -114h84l-133 159l4 4q72 97 72 273v649q0 358 -293 358q-295 0 -295 -358v-649zM78 373v649q0 151 56.5 223t172.5 72q117 0 172.5 -70.5t55.5 -224.5v-649q0 -150 -52 -226l-55 66h-82l92 -113q-52 -37 -131 -37 q-229 0 -229 310z" />
<glyph unicode="R" horiz-adv-x="712" d="M23 2h63v645h184q123 0 190.5 -68.5t67.5 -193.5v-383h66v383q0 155 -92 244q-32 32 -70 49q48 23 82 63q76 88 76 275q0 189 -77 277.5t-243 88.5h-247v-1380zM86 713v604h184q137 0 196.5 -70t59.5 -231q0 -160 -60 -231.5t-196 -71.5h-184z" />
<glyph unicode="S" horiz-adv-x="712" d="M20 367q0 -365 295 -365q139 0 218 98t79 256q0 155 -106 254q-53 49 -160 92l-33 15q-90 35 -143 88q-86 82 -86 211q0 136 61.5 218.5t169.5 82.5q118 0 175 -73.5t57 -227.5v-33h65v33q0 179 -75.5 272.5t-221.5 93.5q-137 0 -216 -103t-79 -263q0 -155 105 -256 q62 -64 162 -103l35 -14q93 -39 139 -80q86 -79 86 -207q0 -137 -61 -213.5t-171 -76.5q-97 0 -151 49q-80 73 -80 252v30h-64v-30z" />
<glyph unicode="T" horiz-adv-x="821" d="M10 1317h330v-1315h63v1315h332v65h-725v-65z" />
<glyph unicode="U" horiz-adv-x="712" d="M14 340q0 -189 92 -274q69 -64 183 -64q115 0 182 64q90 86 90 274v1042h-63v-1042q0 -161 -72 -229q-47 -45 -137 -45q-92 0 -139 45q-72 68 -72 229v1042h-64v-1042z" />
<glyph unicode="V" horiz-adv-x="821" d="M0 1382l346 -1380h49l346 1380h-67l-303 -1216l-305 1216h-66z" />
<glyph unicode="W" horiz-adv-x="1333" d="M0 1380l305 -1380h51l265 1198l264 -1198h53l301 1380h-68l-260 -1198l-264 1198h-51l-264 -1198l-266 1198h-66z" />
<glyph unicode="X" horiz-adv-x="802" d="M-8 0h71l293 614l291 -614h72l-328 690l324 690h-72l-287 -614l-293 614h-71l327 -690z" />
<glyph unicode="Y" horiz-adv-x="854" d="M-20 1380l385 -698v-682h63v682l383 698h-74l-342 -622l-342 622h-73z" />
<glyph unicode="Z" horiz-adv-x="837" d="M0 1317h598l-588 -1254v-63h672v63h-600l590 1258v59h-672v-63z" />
<glyph unicode="[" />
<glyph unicode="\" horiz-adv-x="778" d="M45 1380l553 -1380h70l-553 1380h-70z" />
<glyph unicode="]" />
<glyph unicode="^" />
<glyph unicode="_" horiz-adv-x="944" d="M41 0v-63h827v63h-827z" />
<glyph unicode="`" horiz-adv-x="165" d="M20 1200h64v180h-64v-180z" />
<glyph unicode="a" horiz-adv-x="802" d="M20 0h66l94 422h365l94 -422h66l-316 1380h-51l-209 -895v-6zM197 485l165 721l168 -721h-333z" />
<glyph unicode="b" horiz-adv-x="688" d="M35 0h227q157 0 231 89t74 271t-71 271q-32 38 -76 59q41 21 76 62q71 89 71 268q0 182 -74 271t-231 89h-227v-1380zM100 63v596h162q128 0 184 -69.5t56 -229.5t-55.5 -228.5t-184.5 -68.5h-162zM100 723v594h162q129 0 184.5 -68.5t55.5 -228.5q0 -158 -56 -227.5 t-184 -69.5h-162z" />
<glyph unicode="c" horiz-adv-x="704" d="M16 367q0 -203 97 -297q73 -70 198 -70q124 0 197 70q96 93 96 297v32h-65v-32q0 -156 -58 -232q-60 -72 -170 -72q-116 0 -172.5 73.5t-56.5 230.5v649q0 156 57 228.5t172 72.5q228 0 228 -301v-33h65v33q0 208 -96 297q-72 67 -197 67q-126 0 -198 -67 q-97 -90 -97 -297v-649z" />
<glyph unicode="d" horiz-adv-x="712" d="M25 0h235q163 0 241.5 93.5t78.5 279.5v635q0 186 -78.5 279t-241.5 93h-235v-1380zM88 63v1254h172q133 0 193.5 -74.5t60.5 -234.5v-635q0 -161 -60.5 -235.5t-193.5 -74.5h-172z" />
<glyph unicode="e" horiz-adv-x="620" d="M20 0h496v63h-432v596h432v64h-432v594h432v63h-496v-1380z" />
<glyph unicode="f" horiz-adv-x="630" d="M14 0h64v659h432v64h-432v594h432v63h-496v-1380z" />
<glyph unicode="g" horiz-adv-x="720" d="M20 365q0 -178 74 -271.5t221 -93.5t221 92.5t74 272.5v245h-364v-65h299v-180q0 -153 -57 -227.5t-173 -74.5q-117 0 -174 74t-57 228v653q0 177 80 250q54 49 151 49q98 0 152 -49q78 -71 78 -250v-33h65v33q0 362 -295 362t-295 -362v-653z" />
<glyph unicode="h" horiz-adv-x="704" d="M20 0h66v657h418v-657h65v1380h-65v-659h-418v659h-66v-1380z" />
<glyph unicode="i" horiz-adv-x="223" d="M47 0h64v1380h-64v-1380z" />
<glyph unicode="j" horiz-adv-x="663" d="M0 338q0 -338 274 -338q273 0 273 338v1042h-64v-1042q0 -275 -209 -275q-91 0 -139 46q-72 68 -72 229v31h-63v-31z" />
<glyph unicode="k" horiz-adv-x="737" d="M16 0h66v479l139 207l389 -686h74l-424 748l424 632h-78l-524 -784v784h-66v-1380z" />
<glyph unicode="l" horiz-adv-x="604" d="M8 0h529v63h-463v1317h-66v-1380z" />
<glyph unicode="m" horiz-adv-x="968" d="M14 0h64v1118l321 -1118h50l319 1118v-1118h66v1380h-58l-352 -1230l-354 1230h-56v-1380z" />
<glyph unicode="n" horiz-adv-x="737" d="M18 0h66v1182l477 -1182h53v1380h-65v-1181l-475 1181h-56v-1380z" />
<glyph unicode="o" horiz-adv-x="729" d="M20 367q0 -203 97 -297q73 -70 196 -70q126 0 199 70q96 93 96 297v649q0 179 -74 271.5t-221 92.5q-145 0 -219 -93t-74 -271v-649zM84 367v649q0 154 56 227.5t173 73.5t173.5 -72.5t56.5 -228.5v-649q0 -157 -57.5 -230.5t-172.5 -73.5q-116 0 -172.5 74.5 t-56.5 229.5z" />
<glyph unicode="p" horiz-adv-x="696" d="M23 0h63v659h184q164 0 243 90t79 271t-78.5 270.5t-243.5 89.5h-247v-1380zM86 723v594h184q137 0 196.5 -69t59.5 -228q0 -156 -60.5 -226.5t-195.5 -70.5h-184z" />
<glyph unicode="q" horiz-adv-x="712" d="M12 373q0 -181 74.5 -277t220.5 -96q104 0 172 51l94 -114h84l-133 159l4 4q72 97 72 273v649q0 358 -293 358q-295 0 -295 -358v-649zM78 373v649q0 151 56.5 223t172.5 72q117 0 172.5 -70.5t55.5 -224.5v-649q0 -150 -52 -226l-55 66h-82l92 -113q-52 -37 -131 -37 q-229 0 -229 310z" />
<glyph unicode="r" horiz-adv-x="712" d="M23 2h63v645h184q123 0 190.5 -68.5t67.5 -193.5v-383h66v383q0 155 -92 244q-32 32 -70 49q48 23 82 63q76 88 76 275q0 189 -77 277.5t-243 88.5h-247v-1380zM86 713v604h184q137 0 196.5 -70t59.5 -231q0 -160 -60 -231.5t-196 -71.5h-184z" />
<glyph unicode="s" horiz-adv-x="712" d="M20 367q0 -365 295 -365q139 0 218 98t79 256q0 155 -106 254q-53 49 -160 92l-33 15q-90 35 -143 88q-86 82 -86 211q0 136 61.5 218.5t169.5 82.5q118 0 175 -73.5t57 -227.5v-33h65v33q0 179 -75.5 272.5t-221.5 93.5q-137 0 -216 -103t-79 -263q0 -155 105 -256 q62 -64 162 -103l35 -14q93 -39 139 -80q86 -79 86 -207q0 -137 -61 -213.5t-171 -76.5q-97 0 -151 49q-80 73 -80 252v30h-64v-30z" />
<glyph unicode="t" horiz-adv-x="821" d="M10 1317h330v-1315h63v1315h332v65h-725v-65z" />
<glyph unicode="u" horiz-adv-x="712" d="M14 340q0 -189 92 -274q69 -64 183 -64q115 0 182 64q90 86 90 274v1042h-63v-1042q0 -161 -72 -229q-47 -45 -137 -45q-92 0 -139 45q-72 68 -72 229v1042h-64v-1042z" />
<glyph unicode="v" horiz-adv-x="821" d="M0 1382l346 -1380h49l346 1380h-67l-303 -1216l-305 1216h-66z" />
<glyph unicode="w" horiz-adv-x="1333" d="M0 1380l305 -1380h51l265 1198l264 -1198h53l301 1380h-68l-260 -1198l-264 1198h-51l-264 -1198l-266 1198h-66z" />
<glyph unicode="x" horiz-adv-x="802" d="M-8 0h71l293 614l291 -614h72l-328 690l324 690h-72l-287 -614l-293 614h-71l327 -690z" />
<glyph unicode="y" horiz-adv-x="854" d="M-20 1380l385 -698v-682h63v682l383 698h-74l-342 -622l-342 622h-73z" />
<glyph unicode="z" horiz-adv-x="837" d="M0 1317h598l-588 -1254v-63h672v63h-600l590 1258v59h-672v-63z" />
<glyph unicode="{" />
<glyph unicode="|" horiz-adv-x="182" d="M27 0h63v1380h-63v-1380z" />
<glyph unicode="}" />
<glyph unicode="~" />
<glyph unicode="&#xa9;" />
<glyph unicode="&#xad;" horiz-adv-x="612" d="M27 657h499v64h-499v-64z" />
<glyph unicode="&#xae;" />
<glyph unicode="&#x2c6;" />
<glyph unicode="&#x2dc;" />
<glyph unicode="&#x2000;" horiz-adv-x="691" />
<glyph unicode="&#x2001;" horiz-adv-x="1382" />
<glyph unicode="&#x2002;" horiz-adv-x="691" />
<glyph unicode="&#x2003;" horiz-adv-x="1382" />
<glyph unicode="&#x2004;" horiz-adv-x="460" />
<glyph unicode="&#x2005;" horiz-adv-x="345" />
<glyph unicode="&#x2006;" horiz-adv-x="230" />
<glyph unicode="&#x2007;" horiz-adv-x="230" />
<glyph unicode="&#x2008;" horiz-adv-x="172" />
<glyph unicode="&#x2009;" horiz-adv-x="276" />
<glyph unicode="&#x200a;" horiz-adv-x="76" />
<glyph unicode="&#x2010;" horiz-adv-x="612" d="M27 657h499v64h-499v-64z" />
<glyph unicode="&#x2011;" horiz-adv-x="612" d="M27 657h499v64h-499v-64z" />
<glyph unicode="&#x2012;" horiz-adv-x="612" d="M27 657h499v64h-499v-64z" />
<glyph unicode="&#x2013;" horiz-adv-x="612" d="M27 657h499v64h-499v-64z" />
<glyph unicode="&#x2014;" horiz-adv-x="612" d="M27 657h499v64h-499v-64z" />
<glyph unicode="&#x2018;" horiz-adv-x="165" d="M20 1200h64v180h-64v-180z" />
<glyph unicode="&#x2019;" horiz-adv-x="165" d="M20 1200h64v180h-64v-180z" />
<glyph unicode="&#x201c;" horiz-adv-x="307" d="M20 1200h64v180h-64v-180zM141 1200h66v180h-66v-180z" />
<glyph unicode="&#x201d;" horiz-adv-x="307" d="M20 1200h64v180h-64v-180zM141 1200h66v180h-66v-180z" />
<glyph unicode="&#x2022;" />
<glyph unicode="&#x202f;" horiz-adv-x="276" />
<glyph unicode="&#x205f;" horiz-adv-x="345" />
<glyph unicode="&#x2122;" horiz-adv-x="1789" />
<glyph unicode="&#x25fc;" horiz-adv-x="1382" d="M0 0v1382h1382v-1382h-1382z" />
</font>
</defs>
</svg>
