<?xml version="1.0" encoding="utf-8"?>
<!-- Generator: Adobe Illustrator 17.1.0, SVG Export Plug-In . SVG Version: 6.00 Build 0)  -->
<!DOCTYPE svg PUBLIC "-//W3C//DTD SVG 1.1//EN" "http://www.w3.org/Graphics/SVG/1.1/DTD/svg11.dtd">
<svg version="1.1" id="Layer_1" xmlns="http://www.w3.org/2000/svg" xmlns:xlink="http://www.w3.org/1999/xlink" x="0px" y="0px"
	 viewBox="0 0 844 350" enable-background="new 0 0 844 350" xml:space="preserve">
<g opacity="0.15">
	<path fill="#FFFFFF" d="M84.429,299.92c-0.525,2.62-1.412,5.114-1.413,7.609c-0.002,2.39,0.916,4.781,1.541,7.695
		c-4.446-2.394-8.973-1.989-13.786-1.382c0.239-2.324,0.614-4.355,0.611-6.386c-0.003-2.049-0.382-4.097-0.613-6.298
		c2.508,0.204,4.871,0.7,7.171,0.494C80.137,301.454,82.268,300.526,84.429,299.92z"/>
	<path fill="#FFFFFF" d="M89.742,218.142c0.305-2.191,0.758-4.218,0.821-6.257c0.061-1.956-0.283-3.925-0.477-6.215
		c2.257,0.159,4.39,0.502,6.503,0.404c2.126-0.099,4.232-0.637,6.435-0.997c-0.316,2.601-0.991,5.051-0.798,7.431
		c0.193,2.392,1.25,4.714,1.967,7.204c-2.343-0.695-4.624-1.718-6.989-1.977C94.814,217.473,92.342,217.967,89.742,218.142z"/>
	<path fill="#FFFFFF" d="M84.412,261.907c-2.238,5.005-2.082,9.712,0.701,14.692c-2.796-0.605-4.945-1.302-7.136-1.479
		c-2.252-0.181-4.545,0.147-6.869,0.254c0-4.037,0-8.032,0-12.456C75.513,263.72,79.93,264.091,84.412,261.907z"/>
	<path fill="#FFFFFF" d="M639.089,91.269c-1.325,4.437-0.962,8.328,0.892,12.464c-2.926-0.382-5.352-1.07-7.718-0.903
		c-2.385,0.168-4.709,1.184-7.585,1.971c2.557-4.38,3.023-8.809,1.784-13.761c2.431,0.271,4.361,0.621,6.299,0.662
		C634.623,91.743,636.492,91.463,639.089,91.269z"/>
	<path fill="#FFFFFF" d="M759.885,314.489c1.883-4.862,2.041-9.393-0.56-14.324c2.762,0.678,4.811,1.425,6.912,1.629
		c2.039,0.197,4.132-0.164,6.422-0.292c0,3.869,0,7.727,0,11.985C768.352,312.475,764.177,312.732,759.885,314.489z"/>
	<path fill="#FFFFFF" d="M753.885,218.039c-4.6-0.512-8.973-1.21-13.471,1.741c0.731-3.137,1.591-5.397,1.695-7.691
		c0.1-2.204-0.585-4.444-1.007-7.199c4.175,1.658,8.152,1.94,12.502,0.965c-0.161,2.402-0.425,4.352-0.383,6.295
		C753.26,213.993,753.621,215.83,753.885,218.039z"/>
	<path fill="#FFFFFF" d="M772.621,263.593c0,3.819,0,7.458,0,11.505c-4.096-0.387-8.381-1.171-12.281,1.472
		c-0.114-0.175-0.228-0.351-0.342-0.526c0.464-2.172,1.247-4.336,1.303-6.518c0.058-2.221-0.599-4.46-0.993-7.017
		c2.19,0.395,4.092,0.877,6.023,1.047C768.298,263.727,770.292,263.593,772.621,263.593z"/>
	<path fill="#FFFFFF" d="M281.633,65.289c0.37-3.978,0.716-7.7,1.089-11.703c3.489,0,7.083,0,10.758,0
		c0,1.984-0.198,4.062,0.057,6.082c0.245,1.946,0.957,3.834,1.543,6.043c-2.408-0.475-4.662-1.214-6.937-1.284
		C285.944,64.361,283.725,64.985,281.633,65.289z"/>
	<path fill="#FFFFFF" d="M414.742,46.481c1.893-4.148,2.491-7.918,1.187-12.235c2.401,0.233,4.229,0.539,6.06,0.553
		c1.762,0.013,3.527-0.275,5.656-0.464c0,2.143-0.139,4.101,0.04,6.03c0.172,1.851,0.674,3.671,1.115,5.934
		c-2.449-0.39-4.643-1.018-6.835-1.008C419.831,45.3,417.7,45.961,414.742,46.481z"/>
	<path fill="#FFFFFF" d="M71.716,225.776c3.963-0.261,7.673-0.506,11.763-0.775c-0.635,4.134-1.279,8.361,0.95,12.842
		c-2.647-0.606-4.628-1.278-6.655-1.461c-1.945-0.176-3.936,0.154-6.058,0.27C71.716,232.94,71.716,229.331,71.716,225.776z"/>
	<path fill="#FFFFFF" d="M549.35,65.577c0.424-2.356,0.893-4.264,1.08-6.2c0.186-1.925,0.089-3.878,0.115-5.708
		c3.792,0,7.205,0,10.632,0c0.388,3.848,0.758,7.52,1.155,11.466c-2.003-0.263-4.115-0.803-6.211-0.743
		C553.995,64.452,551.886,65.105,549.35,65.577z"/>
	<path fill="#FFFFFF" d="M377.357,46.189c0-0.604-0.036-0.986,0.006-1.359c0.296-2.651,0.672-5.294,0.885-7.951
		c0.097-1.212,0.19-2.225,1.719-2.229c2.966-0.007,5.932-0.002,9.307-0.002c0,1.86-0.14,3.806,0.04,5.723
		c0.174,1.851,0.677,3.671,1.103,5.849c-2.331-0.369-4.437-0.961-6.544-0.963C381.751,45.254,379.63,45.838,377.357,46.189z"/>
	<path fill="#FFFFFF" d="M224.602,83.991c0.258-3.889,0.496-7.477,0.749-11.284c1.634,0.135,3.389,0.426,5.136,0.384
		c1.761-0.042,3.514-0.414,5.205-0.633c0.404,4.149,0.787,8.096,1.186,12.198c-1.857-0.375-3.85-1.004-5.871-1.121
		C228.956,83.418,226.876,83.808,224.602,83.991z"/>
	<path fill="#FFFFFF" d="M465.689,34.696c0,2.311-0.168,4.201,0.049,6.046c0.205,1.748,0.815,3.448,1.323,5.472
		c-2.384-0.372-4.502-0.984-6.611-0.954c-2.144,0.03-4.279,0.692-6.873,1.16c0.49-2.053,1.108-3.884,1.324-5.761
		c0.221-1.928,0.049-3.902,0.049-5.963C458.613,34.696,462.031,34.696,465.689,34.696z"/>
	<path fill="#FFFFFF" d="M606.667,84.568c1.553-4.025,2.284-7.768,1.009-11.673c1.012-0.165,1.392-0.293,1.766-0.277
		c2.474,0.104,4.946,0.312,7.42,0.335c1.368,0.013,2.023,0.463,2.071,1.872c0.099,2.859,0.275,5.715,0.429,8.778
		c-1.925,0.88-3.936-0.524-5.941-0.166C611.385,83.8,609.341,84.122,606.667,84.568z"/>
	<path fill="#FFFFFF" d="M772.036,236.201c-1.908,0-3.777-0.136-5.617,0.038c-1.863,0.176-3.697,0.658-5.78,1.05
		c0.298-2.168,0.763-4.184,0.8-6.209c0.035-1.942-0.374-3.891-0.616-6.104c2.067,0.321,3.889,0.711,5.73,0.859
		c1.751,0.141,3.523,0.03,5.483,0.03C772.036,229.315,772.036,232.628,772.036,236.201z"/>
	<path fill="#FFFFFF" d="M140.158,130.201c-0.092,1.887-0.354,3.747-0.224,5.579c0.13,1.83,0.651,3.632,1.062,5.766
		c-2.229-0.235-4.154-0.515-6.088-0.621c-1.849-0.101-3.708-0.022-5.884-0.022c0.185-1.589,0.405-2.926,0.48-4.27
		c0.082-1.484,0.024-2.975,0.038-4.462c0.008-0.881,0.303-1.643,1.294-1.686C133.868,130.354,136.904,130.295,140.158,130.201z"/>
	<path fill="#FFFFFF" d="M110.455,159.682c0-3.019-0.031-5.874,0.018-8.728c0.016-0.926,0.629-1.401,1.579-1.423
		c2.846-0.065,5.691-0.142,8.651-0.218c0.236,3.555,0.479,7.226,0.739,11.141c-1.688,0.589-3.372-0.746-5.181-0.767
		C114.394,159.665,112.526,159.682,110.455,159.682z"/>
	<path fill="#FFFFFF" d="M351.206,45.79c-1.976-0.234-3.818-0.602-5.666-0.629c-1.871-0.027-3.748,0.283-5.927,0.472
		c0-0.734-0.043-1.376,0.008-2.011c0.166-2.078,0.425-4.15,0.536-6.231c0.112-2.11,0.439-2.44,2.448-2.399
		c1.882,0.038,3.767-0.022,5.649-0.098c1.054-0.042,2.163-0.112,2.288,1.255C350.82,39.191,350.97,42.242,351.206,45.79z"/>
	<path fill="#FFFFFF" d="M492.716,45.788c0.34-3.731,0.645-7.071,0.972-10.661c3.204,0,6.495,0,9.866,0
		c0.299,3.475,0.593,6.892,0.914,10.625c-1.866-0.208-3.791-0.593-5.716-0.59C496.796,45.165,494.841,45.551,492.716,45.788z"/>
	<path fill="#FFFFFF" d="M63.498,293.975c-3.484-0.177-6.823-0.346-10.393-0.527c0-3.393,0-6.669,0-9.958
		c3.617-0.29,7.017-0.562,10.393-0.832C63.498,286.361,63.498,290.052,63.498,293.975z"/>
	<path fill="#FFFFFF" d="M159.925,122.05c-3.859-0.222-7.554-0.435-11.507-0.663c0.113-1.508,0.282-3.155,0.347-4.806
		c0.061-1.563,0.013-3.131,0.013-4.911c3.576-0.162,6.8-0.308,10.269-0.465c0,1.977-0.114,3.832,0.033,5.665
		C159.221,118.616,159.635,120.339,159.925,122.05z"/>
	<path fill="#FFFFFF" d="M53.178,331.403c0-3.307,0-6.423,0-9.661c3.471-0.296,6.863-0.585,10.309-0.879c0,3.612,0,7.198,0,11.028
		C60.121,331.732,56.823,331.576,53.178,331.403z"/>
	<path fill="#FFFFFF" d="M714.07,130.782c0.144,3.254,0.282,6.366,0.42,9.477c-3.75,0.303-7.263,0.587-11.158,0.902
		c0.345-1.824,0.859-3.613,0.977-5.428c0.114-1.743-0.181-3.512-0.31-5.476C707.419,130.436,710.626,130.603,714.07,130.782z"/>
	<path fill="#FFFFFF" d="M91.604,178.611c0-2.938-0.064-5.603,0.057-8.26c0.023-0.496,0.752-1.336,1.212-1.376
		c2.755-0.242,5.527-0.296,8.514-0.422c0.199,3.504,0.393,6.909,0.603,10.599C98.503,178.97,95.102,178.793,91.604,178.611z"/>
	<path fill="#FFFFFF" d="M722.834,160.161c0.24-3.485,0.482-6.996,0.739-10.718c3.019,0.157,6.231,0.323,9.721,0.504
		c0.066,2.897,0.192,5.659,0.128,8.417c-0.01,0.45-0.831,1.22-1.328,1.264C729.051,159.897,725.993,159.999,722.834,160.161z"/>
	<path fill="#FFFFFF" d="M63.805,255.638c-3.077-0.165-5.743-0.29-8.406-0.457c-1.438-0.09-2.127-0.876-2.082-2.346
		c0.058-1.886,0.047-3.774,0.08-5.661c0.018-0.998,0.377-1.79,1.5-1.866c2.83-0.192,5.663-0.339,8.697-0.516
		c-0.161,1.772-0.467,3.521-0.438,5.264C63.186,251.813,63.549,253.563,63.805,255.638z"/>
	<path fill="#FFFFFF" d="M780.8,293.645c0-3.701,0-7.022,0-10.644c3.25,0.152,6.528,0.306,9.903,0.465c0,3.199,0,6.219,0,9.483
		C787.457,293.177,784.269,293.401,780.8,293.645z"/>
	<path fill="#FFFFFF" d="M255.262,64.5c-3.599,0-7.058,0-10.944,0c0.235-3.099,0.385-5.926,0.73-8.728
		c0.054-0.441,0.974-1.061,1.533-1.105c2.085-0.165,4.186-0.14,6.281-0.154c1.07-0.007,1.631,0.534,1.712,1.638
		C254.776,58.907,255.025,61.661,255.262,64.5z"/>
	<path fill="#FFFFFF" d="M695.309,121.161c-3.649,0.232-7.06,0.448-10.68,0.678c0-0.67-0.041-1.321,0.008-1.966
		c0.157-2.064,0.419-4.122,0.503-6.188c0.079-1.932,0.346-2.235,2.268-2.137c1.875,0.096,3.754,0.151,5.631,0.177
		c1.03,0.014,1.817,0.363,1.889,1.456C695.102,115.82,695.186,118.465,695.309,121.161z"/>
	<path fill="#FFFFFF" d="M780.857,331.748c0-3.51,0-6.825,0-10.344c0.45-0.051,1.01-0.195,1.56-0.163
		c1.883,0.109,3.76,0.331,5.644,0.412c2.339,0.101,2.599,0.355,2.541,2.573c-0.044,1.684-0.029,3.373,0.043,5.056
		c0.058,1.348-0.442,2.068-1.848,2.118C786.229,331.492,783.662,331.623,780.857,331.748z"/>
	<path fill="#FFFFFF" d="M752.251,178.436c-3.299,0.252-6.609,0.506-10.114,0.774c0-0.568-0.033-1.124,0.006-1.676
		c0.15-2.154,0.366-4.305,0.473-6.462c0.085-1.714,0.394-2.163,2.065-2.179c1.882-0.018,3.766,0.08,5.648,0.125
		c1.123,0.027,1.919,0.387,1.961,1.698c0.074,2.265,0.204,4.529,0.279,6.794C752.577,177.779,752.388,178.055,752.251,178.436z"/>
	<path fill="#FFFFFF" d="M311.715,35.73c0.269,3.084,0.525,6.016,0.806,9.235c-3.563,0-6.972,0-10.792,0
		c0.282-2.627,0.472-5.256,0.915-7.842c0.094-0.546,1.089-1.289,1.71-1.33C306.712,35.637,309.087,35.73,311.715,35.73z"/>
	<path fill="#FFFFFF" d="M178.451,102.302c-3.13,0-5.981,0.002-8.831-0.001c-1.09-0.001-1.699-0.519-1.631-1.64
		c0.132-2.174,0.223-4.355,0.509-6.51c0.065-0.489,0.821-1.209,1.32-1.264c2.164-0.239,4.351-0.275,6.53-0.377
		c0.93-0.044,1.594,0.359,1.656,1.317C178.189,96.671,178.309,99.52,178.451,102.302z"/>
	<path fill="#FFFFFF" d="M82.621,198.144c-2.75-0.146-5.22-0.232-7.682-0.423c-1.87-0.145-2.292-0.581-2.334-2.368
		c-0.035-1.486-0.007-2.984,0.147-4.461c0.19-1.829,0.796-2.414,2.643-2.615c1.677-0.182,3.37-0.225,5.056-0.327
		c1.039-0.063,1.791,0.299,1.843,1.439C82.423,192.235,82.509,195.084,82.621,198.144z"/>
	<path fill="#FFFFFF" d="M599.652,64.079c-3.656,0-6.975,0-10.476,0c-0.063-0.202-0.295-0.57-0.268-0.917
		c0.164-2.074,0.372-4.144,0.596-6.212c0.204-1.879,0.589-2.302,2.372-2.344c1.687-0.04,3.378,0.043,5.066,0.103
		c1.111,0.04,1.948,0.504,2.063,1.718C599.236,58.877,599.422,61.333,599.652,64.079z"/>
	<path fill="#FFFFFF" d="M780.958,255.2c0-3.402,0-6.687,0-10.068c2.927,0.156,5.667,0.24,8.388,0.513
		c0.418,0.042,1.037,0.938,1.069,1.469c0.125,2.072,0.129,4.161-0.004,6.232c-0.032,0.506-0.719,1.345-1.166,1.387
		C786.524,254.991,783.785,255.062,780.958,255.2z"/>
	<path fill="#FFFFFF" d="M666.411,93.024c3.071,0,5.811,0,8.781,0c0.218,3.07,0.417,5.865,0.629,8.848
		c-3.486,0.217-6.69,0.416-10.121,0.629C665.942,99.277,666.168,96.26,666.411,93.024z"/>
	<path fill="#FFFFFF" d="M542.216,44.973c-3.788,0-7.112,0-10.641,0c0.031-0.669,0.008-1.334,0.104-1.982
		c0.117-0.784,0.362-1.548,0.506-2.33c0.28-1.521,0.046-3.52,0.937-4.426c0.744-0.757,2.789-0.241,4.259-0.281
		c3.943-0.106,3.93-0.103,4.195,3.787c0.061,0.888,0.259,1.767,0.371,2.653C542.043,43.152,542.107,43.915,542.216,44.973z"/>
	<path fill="#FFFFFF" d="M771,197.087c-3.206,0.28-6.04,0.527-9.013,0.786c0-3.201,0-6.276,0-9.689
		c2.792,0.174,5.238,0.229,7.647,0.553c0.522,0.07,1.257,1.084,1.304,1.707C771.1,192.585,771,194.746,771,197.087z"/>
	<path fill="#FFFFFF" d="M187.571,82.79c0.123-2.585,0.181-4.66,0.335-6.728c0.086-1.159,0.81-1.776,1.993-1.794
		c0.897-0.013,1.796,0.023,2.691-0.023c3.825-0.196,3.941-0.087,4.204,3.864c0.098,1.476,0.254,2.947,0.407,4.682
		C194.026,82.79,191.03,82.79,187.571,82.79z"/>
	<path fill="#FFFFFF" d="M62.898,216.619c-2.682-0.153-5.035-0.192-7.354-0.49c-0.559-0.072-1.074-0.958-1.475-1.559
		c-0.186-0.278-0.067-0.771-0.056-1.165c0.147-5.287-0.28-5.711,4.979-5.638c1.058,0.015,2.12-0.219,3.478-0.372
		C62.612,210.456,62.742,213.251,62.898,216.619z"/>
	<path fill="#FFFFFF" d="M446.042,25.561c-2.951,0-5.414,0.001-7.878,0c-1.267-0.001-1.815-0.685-1.704-1.891
		c0.155-1.676,0.247-3.373,0.617-5.005c0.13-0.574,0.957-1.328,1.539-1.398c1.561-0.19,3.163-0.071,4.747-0.045
		c1.16,0.019,1.895,0.653,2.035,1.776C445.653,21.038,445.806,23.09,446.042,25.561z"/>
	<path fill="#FFFFFF" d="M647.063,83.018c0.157-2.886,0.208-5.15,0.46-7.391c0.055-0.493,0.753-1.076,1.289-1.307
		c0.494-0.213,1.168-0.014,1.763,0.012c5.13,0.23,6.041,1.279,5.593,6.307c-0.103,1.156-0.586,1.934-1.754,2.018
		C652.073,82.825,649.724,82.894,647.063,83.018z"/>
	<path fill="#FFFFFF" d="M407.722,25.551c-3.021,0-5.663,0.037-8.302-0.019c-0.997-0.021-1.325-0.782-1.242-1.672
		c0.165-1.77,0.359-3.538,0.584-5.301c0.118-0.926,0.725-1.379,1.645-1.364c0.791,0.013,1.581,0.115,2.371,0.117
		c4.064,0.013,4.069,0.006,4.545,4.183C407.463,22.727,407.567,23.963,407.722,25.551z"/>
	<path fill="#FFFFFF" d="M43.374,307.166c0.028,4.758,0.028,4.758-4.293,4.442c-0.598-0.044-1.206-0.033-1.791-0.142
		c-1.732-0.323-2.212-0.795-1.947-3.012c0.216-1.81-1.429-4.503,1.879-5.161c1.362-0.271,2.782-0.308,4.178-0.333
		c1.684-0.031,2.093,0.416,2.102,2.13C43.505,305.885,43.406,306.682,43.374,307.166z"/>
	<path fill="#FFFFFF" d="M360.1,25.045c0.176-2.198,0.219-4.176,0.559-6.102c0.1-0.564,1.028-0.997,1.608-1.451
		c0.128-0.101,0.388-0.031,0.586-0.046c5.596-0.429,6.602,0.59,6.243,6.223c-0.069,1.086-0.509,1.694-1.613,1.707
		c-1.793,0.021-3.587,0.028-5.38,0.002C361.623,25.372,361.145,25.225,360.1,25.045z"/>
	<path fill="#FFFFFF" d="M43.417,264.794c0,2.698,0.095,4.959-0.068,7.201c-0.04,0.547-0.912,1.05-1.439,1.533
		c-0.109,0.1-0.383,0.019-0.581,0.022c-5.64,0.09-6.567-0.859-6.054-6.456c0.057-0.622,0.694-1.621,1.182-1.699
		C38.579,265.057,40.747,264.995,43.417,264.794z"/>
	<path fill="#FFFFFF" d="M781.67,216.19c0-2.412-0.074-4.662,0.059-6.9c0.029-0.481,0.733-1.083,1.265-1.328
		c0.491-0.226,1.168-0.06,1.763-0.045c4.559,0.114,5.842,1.699,4.79,6.159c-0.17,0.719-0.959,1.757-1.558,1.827
		C785.873,216.153,783.72,216.74,781.67,216.19z"/>
	<path fill="#FFFFFF" d="M43.204,350c-2.112-0.121-3.968-0.135-5.791-0.385c-0.569-0.078-1.442-0.737-1.506-1.218
		c-0.244-1.844-0.313-3.73-0.217-5.588c0.022-0.426,0.922-1.07,1.486-1.154c1.565-0.233,3.164-0.256,4.752-0.3
		c0.953-0.026,1.505,0.524,1.489,1.474C43.379,345.084,43.287,347.336,43.204,350z"/>
	<path fill="#FFFFFF" d="M570.651,44.416c0.132-2.263,0.208-4.204,0.385-6.137c0.041-0.442,0.409-1.206,0.663-1.222
		c1.94-0.121,3.927-0.335,5.824-0.04c1.702,0.265,1.658,1.978,1.748,3.367c0.038,0.592,0.043,1.185,0.064,1.778
		c0.051,1.482-0.734,2.211-2.151,2.242C575.22,44.448,573.254,44.416,570.651,44.416z"/>
	<path fill="#FFFFFF" d="M475.664,17.763c7.251-0.671,7.945-0.427,8.035,7.385c-2.792,0-5.591,0-8.81,0
		C475.147,22.681,475.399,20.285,475.664,17.763z"/>
	<path fill="#FFFFFF" d="M273.603,44.361c-2.822,0-5.186,0.061-7.544-0.027c-1.082-0.041-1.511-0.846-1.404-1.902
		c0.04-0.396,0.113-0.789,0.162-1.184c0.568-4.585,1.554-5.327,6.127-4.708c1.032,0.14,1.686,0.621,1.837,1.638
		C273.07,40.128,273.304,42.085,273.603,44.361z"/>
	<path fill="#FFFFFF" d="M800.936,307.467c-0.052-4.294-0.052-4.291,3.83-3.949c0.492,0.043,0.989,0.027,1.482,0.062
		c2.122,0.15,2.282,0.329,2.267,2.519c-0.003,0.395-0.02,0.791-0.059,1.184c-0.128,1.306,0.773,3.191-0.868,3.719
		c-1.809,0.582-3.873,0.455-5.824,0.433c-0.34-0.004-0.871-0.989-0.954-1.572C800.688,309.001,800.89,308.095,800.936,307.467z"/>
	<path fill="#FFFFFF" d="M211.302,63.139c-4.733,0.645-4.01-0.929-3.695-4.387c0.195-2.146,0.836-2.642,3.063-2.876
		c0.494-0.052,0.993-0.065,1.49-0.073c2.605-0.042,2.925,0.236,3.208,2.751C215.892,63.212,215.892,63.212,211.302,63.139z"/>
	<path fill="#FFFFFF" d="M800.977,269.536c0-4.432,0-4.432,4.244-4.116c2.831,0.211,3.015,0.399,3.113,3.184
		c0.157,4.425,0.043,4.549-4.303,4.669c-0.298,0.008-0.597,0.039-0.894,0.032c-2.009-0.044-2.277-0.299-2.262-2.207
		C800.88,270.502,800.951,269.908,800.977,269.536z"/>
	<path fill="#FFFFFF" d="M632.412,63.099c-0.77,0.071-1.067,0.108-1.366,0.124c-2.531,0.133-2.813-0.158-2.535-2.63
		c0.044-0.395,0.071-0.805,0.196-1.177c0.362-1.079,0.528-2.829,1.21-3.069c1.402-0.493,3.111-0.328,4.648-0.11
		c0.564,0.08,1.11,1.018,1.453,1.675c0.258,0.495,0.2,1.164,0.247,1.758c0.257,3.228,0.163,3.328-3.129,3.427
		C632.737,63.109,632.338,63.099,632.412,63.099z"/>
	<path fill="#FFFFFF" d="M801.021,345.408c0-0.593-0.003-1.185,0.001-1.778c0.009-1.374,0.713-1.983,2.068-1.855
		c0.591,0.056,1.181,0.122,1.768,0.207c2.844,0.414,3.553,1.273,3.402,4.103c-0.115,2.156-0.679,2.811-2.739,3.185
		C801.314,350.033,801.068,349.821,801.021,345.408z"/>
	<path fill="#FFFFFF" d="M326.397,24.881c0.182,0,0.08,0.012-0.017-0.002c-1.216-0.178-3.035,0.812-3.516-0.647
		c-0.49-1.489-0.098-3.303,0.092-4.954c0.049-0.423,0.753-1.03,1.222-1.098c1.47-0.214,2.979-0.327,4.455-0.227
		c0.467,0.032,1.018,0.789,1.277,1.334c0.239,0.505,0.125,1.171,0.192,1.764C330.55,25.021,330.552,25.021,326.397,24.881z"/>
	<path fill="#FFFFFF" d="M42.978,231.431c0.036,0.591,0.151,1.192,0.084,1.771c-0.053,0.459-0.303,1.266-0.508,1.28
		c-1.827,0.122-3.703,0.343-5.483,0.046c-1.316-0.22-1.065-1.694-1.038-2.769c0.087-3.386,2.187-5.091,5.449-4.27
		c0.577,0.145,1.173,0.961,1.387,1.593c0.24,0.709,0.055,1.561,0.055,2.35C42.943,231.432,42.96,231.432,42.978,231.431z"/>
	<path fill="#FFFFFF" d="M119.523,117.321c0.095,2.618-0.371,3.112-3.011,3.188c-3.127,0.09-4.125-0.66-4.247-3.194
		c-0.144-3,0.812-3.941,4.085-4.025C119.031,113.222,119.391,113.679,119.523,117.321z"/>
	<path fill="#FFFFFF" d="M97.017,139.529c-0.735-0.056-1.446-0.036-2.12-0.186c-0.455-0.101-1.178-0.39-1.226-0.685
		c-0.231-1.432-0.488-2.918-0.325-4.338c0.16-1.397,1.478-1.735,2.738-1.828c0.793-0.059,1.611-0.195,2.378-0.063
		c0.516,0.089,1.308,0.524,1.377,0.911c0.291,1.643,0.692,3.384,0.415,4.979C99.964,139.98,98.233,139.497,97.017,139.529z"/>
	<path fill="#FFFFFF" d="M517.661,24.816c-4.039,0.168-4.192,0.002-3.747-4.037c0.28-2.543,0.567-2.798,3.166-2.779
		c0.693,0.005,1.387,0.021,2.079,0.053c1.02,0.048,1.66,0.563,1.865,1.578c0.059,0.291,0.099,0.585,0.15,0.877
		C521.859,24.432,521.682,24.649,517.661,24.816z"/>
	<path fill="#FFFFFF" d="M78.19,158.343c-0.199-0.013-0.399-0.016-0.597-0.042c-1.15-0.148-2.649,0.151-3.029-1.331
		c-0.394-1.537-0.417-3.198,0.729-4.537c0.664-0.775,3.636-1.262,4.54-0.715c0.458,0.277,0.876,0.832,1.03,1.346
		c0.225,0.749,0.223,1.572,0.271,2.366C81.308,158.342,81.14,158.501,78.19,158.343z"/>
	<path fill="#FFFFFF" d="M135.47,101.202c-0.199-0.013-0.398-0.026-0.596-0.038c-2.702-0.162-3.131-0.447-3.188-2.121
		c-0.088-2.57,0.875-3.961,3.103-4.32c1.151-0.186,2.795-0.679,3.203,0.66c0.49,1.606,0.384,3.474,0.134,5.17
		c-0.062,0.422-1.67,0.617-2.568,0.916C135.529,101.38,135.499,101.291,135.47,101.202z"/>
	<path fill="#FFFFFF" d="M746.532,139.208c-2.101,0.092-2.608-0.241-2.718-1.786c-0.254-3.553,0.55-4.835,3.066-4.893
		c2.672-0.061,3.684,0.744,3.796,3.018C750.806,138.198,749.827,139.064,746.532,139.208z"/>
	<path fill="#FFFFFF" d="M801.136,231.468c-0.035-2.661,0.81-3.654,3.144-3.694c2.5-0.044,3.423,0.944,3.481,3.722
		c0.049,2.368-0.806,3.016-3.994,3.028C801.774,234.531,801.166,233.825,801.136,231.468z"/>
	<path fill="#FFFFFF" d="M727.413,120.045c-2.135,0.108-2.672-0.23-2.783-1.752c-0.206-2.806,0.743-4.422,2.642-4.501
		c2.826-0.116,4.148,0.848,4.192,3.057C731.508,119.073,730.472,119.89,727.413,120.045z"/>
	<path fill="#FFFFFF" d="M763.19,155.806c-0.048-2.814,0.907-4.055,3.117-4.049c2.032,0.005,2.953,0.991,2.971,3.179
		c0.019,2.285-0.902,3.226-3.202,3.273C763.962,158.253,763.221,157.637,763.19,155.806z"/>
	<path fill="#FFFFFF" d="M231.039,43.682c-2.945-0.072-3.486-0.463-3.412-2.471c0.1-2.714,1.007-3.641,3.576-3.65
		c2.127-0.008,2.885,1.054,2.798,3.917C233.941,43.435,233.527,43.743,231.039,43.682z"/>
	<path fill="#FFFFFF" d="M58.755,177.324c-2.141-0.002-3.064-0.825-3.054-2.723c0.014-2.546,1.038-3.715,3.226-3.685
		c2.011,0.028,2.906,1.051,2.879,3.29C61.78,176.402,60.875,177.327,58.755,177.324z"/>
	<path fill="#FFFFFF" d="M705.815,100.949c0-1.429-0.06-2.482,0.015-3.526c0.094-1.297,0.681-2.289,2.094-2.494
		c1.203-0.175,2.663-0.285,3.195,0.916c0.514,1.161,0.444,2.61,0.465,3.936c0.004,0.271-0.702,0.739-1.124,0.797
		C709.031,100.77,707.583,100.82,705.815,100.949z"/>
	<path fill="#FFFFFF" d="M288.084,18.798c2.046,0.062,3.251,1.404,3.172,3.533c-0.06,1.632-1.058,2.369-3.146,2.327
		c-2.225-0.045-3.205-1.009-3.129-3.076C285.052,19.653,286.073,18.737,288.084,18.798z"/>
	<path fill="#FFFFFF" d="M23.474,288.066c0.041,2.429-0.562,3.253-2.387,3.261c-2.334,0.01-3.491-1.001-3.512-3.069
		c-0.021-2.04,0.934-2.964,3.149-3.049C22.848,285.128,23.434,285.737,23.474,288.066z"/>
	<path fill="#FFFFFF" d="M23.449,326.247c-0.022,2.227-0.946,3.213-2.989,3.187c-1.955-0.025-2.909-1.007-2.881-2.969
		c0.028-1.998,1.031-2.893,3.285-2.933C22.835,323.497,23.469,324.163,23.449,326.247z"/>
	<path fill="#FFFFFF" d="M555.588,24.525c-2.229,0.039-2.73-0.349-2.758-2.131c-0.037-2.42,0.917-3.564,2.996-3.591
		c2.049-0.027,2.986,0.935,3.086,3.168C559.007,24.08,558.493,24.475,555.588,24.525z"/>
	<path fill="#FFFFFF" d="M157.122,81.543c-1.3,0-2.389,0.124-3.437-0.028c-1.822-0.264-2.536-1.291-2.398-3.13
		c0.13-1.725,0.936-2.376,3.077-2.482c1.839-0.091,2.455,0.401,2.81,2.307c0.109,0.585,0.161,1.187,0.173,1.782
		C157.354,80.378,157.241,80.765,157.122,81.543z"/>
	<path fill="#FFFFFF" d="M612.448,43.423c-1.215,0.12-2.114-0.169-2.168-1.689c-0.087-2.444,1.013-3.787,3.176-3.769
		c1.871,0.015,2.876,0.959,2.856,2.681C616.291,42.507,615.117,43.36,612.448,43.423z"/>
	<path fill="#FFFFFF" d="M785.019,176.826c-1.788-0.016-2.404-0.585-2.445-2.259c-0.05-2.011,0.982-3.114,2.826-3.022
		c1.653,0.082,2.668,1.189,2.716,2.962C788.16,176.129,787.204,176.845,785.019,176.826z"/>
	<path fill="#FFFFFF" d="M689.485,81.53c-1.738-0.018-2.469-0.692-2.42-2.231c0.061-1.912,1.169-3.033,2.931-2.966
		c1.601,0.061,2.514,1.057,2.465,2.686C692.412,80.679,691.38,81.549,689.485,81.53z"/>
	<path fill="#FFFFFF" d="M823.107,285.752c1.875-0.014,2.97,0.902,3.026,2.529c0.058,1.706-1.054,2.818-2.758,2.759
		c-1.559-0.055-2.377-0.993-2.418-2.774C820.916,286.51,821.555,285.764,823.107,285.752z"/>
	<path fill="#FFFFFF" d="M23.038,250.591c0.08,1.948-0.231,2.39-1.718,2.444c-2.121,0.078-3.194-0.633-3.287-2.177
		c-0.118-1.961,0.886-3.205,2.649-3.28C22.375,247.507,22.941,248.23,23.038,250.591z"/>
	<path fill="#FFFFFF" d="M421.873,5.08c-2.256,0.02-2.662-0.238-2.716-1.735c-0.074-2.027,0.803-2.941,2.789-2.906
		c1.974,0.035,2.976,1.002,2.972,2.869C424.915,4.729,424.352,5.057,421.873,5.08z"/>
	<path fill="#FFFFFF" d="M820.957,326.496c0.015-1.758,0.684-2.557,2.147-2.566c1.794-0.011,2.999,1.025,3.002,2.58
		c0.003,1.549-1.185,2.547-3.024,2.54C821.59,329.045,820.942,328.266,820.957,326.496z"/>
	<path fill="#FFFFFF" d="M42.069,193.8c-0.05,1.572-0.804,2.2-2.519,2.099c-1.674-0.099-2.409-0.836-2.357-2.366
		c0.057-1.668,1.005-2.737,2.455-2.768C41.2,190.733,42.13,191.898,42.069,193.8z"/>
	<path fill="#FFFFFF" d="M383.735,4.891c-1.799-0.044-2.793-0.923-2.712-2.399c0.076-1.38,0.983-2.062,2.703-2.031
		c1.758,0.032,2.695,0.878,2.693,2.433C386.417,4.257,385.506,4.935,383.735,4.891z"/>
	<path fill="#FFFFFF" d="M460.24,4.942c-1.898-0.006-2.61-0.542-2.646-1.99c-0.041-1.665,0.787-2.487,2.529-2.511
		c1.954-0.027,2.868,0.805,2.805,2.554C462.876,4.415,462.141,4.948,460.24,4.942z"/>
	<path fill="#FFFFFF" d="M345.747,4.846c-1.569-0.009-2.544-0.896-2.51-2.285c0.033-1.316,0.892-2.062,2.368-2.055
		c1.501,0.007,2.327,0.899,2.283,2.465C347.852,4.23,347.14,4.854,345.747,4.846z"/>
	<path fill="#FFFFFF" d="M175.881,61.046c-0.046,0.788-0.815,1.214-1.973,1.166c-1.559-0.065-2.712-1.075-2.601-2.276
		c0.102-1.105,1.324-1.982,2.634-1.892C175.15,58.128,175.964,59.173,175.881,61.046z"/>
	<path fill="#FFFFFF" d="M498.389,4.815c-1.371-0.056-2.083-0.73-2.064-1.957c0.023-1.498,0.98-2.417,2.427-2.33
		c1.344,0.081,2.113,0.959,2.065,2.356C500.773,4.174,499.89,4.877,498.389,4.815z"/>
	<path fill="#FFFFFF" d="M821.464,248.234c3.093-0.313,4.486,0.95,3.577,3.033c-0.276,0.632-1.266,1.174-2.016,1.325
		c-1.014,0.204-1.657-0.543-1.697-1.58C821.295,250.144,821.407,249.27,821.464,248.234z"/>
	<path fill="#FFFFFF" d="M806.007,194.024c-0.382,0.264-0.966,0.954-1.648,1.072c-1.093,0.19-1.916-0.853-1.897-2.119
		c0.014-0.96,0.304-1.784,1.431-1.883C804.961,191,805.984,192.2,806.007,194.024z"/>
	<path fill="#FFFFFF" d="M672.455,60.078c-0.074,1.054-1.118,1.758-2.381,1.603c-1.033-0.127-1.636-0.692-1.545-1.751
		c0.094-1.093,0.657-1.838,1.862-1.857C671.564,58.055,672.53,59.009,672.455,60.078z"/>
	<path fill="#FFFFFF" d="M250.389,19.835c1.072,0.1,1.484,0.903,1.459,2.001c-0.025,1.095-0.719,1.561-1.733,1.54
		c-1.073-0.022-1.935-0.422-2.031-1.648C248.002,20.668,249.039,19.777,250.389,19.835z"/>
	<path fill="#FFFFFF" d="M594.106,19.099c0.772,1.229,1.462,1.87,1.56,2.592c0.145,1.059-0.707,1.592-1.73,1.582
		c-1.086-0.011-1.776-0.668-1.512-1.718C592.603,20.843,593.284,20.257,594.106,19.099z"/>
	<path fill="#FFFFFF" d="M20.393,209.926c0.77,1.097,1.433,1.642,1.471,2.227c0.029,0.451-0.647,1.217-1.154,1.372
		c-0.865,0.265-1.635-0.338-1.594-1.232C19.144,211.682,19.732,211.095,20.393,209.926z"/>
	<path fill="#FFFFFF" d="M534.495,2.132c1.071-0.644,1.762-1.379,2.226-1.257c0.574,0.151,1.243,0.962,1.358,1.583
		c0.166,0.89-0.576,1.593-1.486,1.366C535.975,3.669,535.492,2.969,534.495,2.132z"/>
	<path fill="#FFFFFF" d="M307.739,0c0.566,1.319,1.014,1.947,1.08,2.614c0.093,0.942-0.568,1.476-1.505,1.448
		c-0.934-0.028-1.632-0.603-1.377-1.523C306.137,1.818,306.831,1.235,307.739,0z"/>
	<path fill="#FFFFFF" d="M3.4,307.575c-1.019,0.552-1.624,1.137-2.196,1.106C0.78,308.658,0.4,307.835,0,307.368
		c0.533-0.443,1.017-1.114,1.618-1.243C1.976,306.048,2.517,306.822,3.4,307.575z"/>
	<path fill="#FFFFFF" d="M194.758,40.54c-0.87,0.711-1.346,1.276-1.948,1.496c-0.204,0.074-1.096-0.81-1.028-1.107
		c0.15-0.647,0.715-1.197,1.11-1.787C193.377,39.505,193.861,39.868,194.758,40.54z"/>
	<path fill="#FFFFFF" d="M1.048,270.628c-0.325-0.501-0.851-0.985-0.894-1.508c-0.023-0.286,0.886-0.983,1.171-0.887
		c0.508,0.17,1.09,0.747,1.209,1.255c0.104,0.445-0.384,1.028-0.611,1.55C1.631,270.901,1.339,270.765,1.048,270.628z"/>
	<path fill="#FFFFFF" d="M79.289,116.995c-0.596,0.508-1.001,0.853-1.406,1.199c-0.386-0.461-0.939-0.878-1.08-1.405
		c-0.06-0.223,0.735-0.935,1.157-0.95C78.333,115.826,78.728,116.475,79.289,116.995z"/>
	<path fill="#FFFFFF" d="M98.559,97.571c-0.715,0.628-1.113,1.175-1.631,1.338c-0.215,0.068-0.973-0.685-0.969-1.06
		c0.004-0.417,0.53-1.051,0.949-1.171C97.245,96.581,97.761,97.111,98.559,97.571z"/>
	<path fill="#FFFFFF" d="M652.894,40.47c-0.681,0.552-1.142,1.181-1.445,1.112c-0.44-0.1-1.001-0.668-1.067-1.103
		c-0.057-0.378,0.501-0.849,0.788-1.279C651.659,39.56,652.148,39.92,652.894,40.47z"/>
	<path fill="#FFFFFF" d="M825.241,212.867c-0.785,0.319-1.347,0.765-1.728,0.644c-0.414-0.132-0.66-0.791-0.98-1.22
		c0.447-0.273,0.938-0.813,1.329-0.748C824.291,211.614,824.628,212.242,825.241,212.867z"/>
	<path fill="#FFFFFF" d="M58.672,137.246c-0.491-0.593-1.068-1.082-0.99-1.237c0.224-0.441,0.681-0.808,1.128-1.059
		c0.109-0.061,0.801,0.505,0.76,0.662C59.444,136.098,59.094,136.525,58.672,137.246z"/>
	<path fill="#FFFFFF" d="M0.517,347.076c-0.143-0.454-0.47-0.948-0.381-1.352c0.099-0.45,0.512-0.921,0.919-1.168
		c0.148-0.09,0.983,0.467,0.961,0.672c-0.049,0.463-0.436,0.891-0.685,1.333C1.059,346.733,0.788,346.905,0.517,347.076z"/>
	<path fill="#FFFFFF" d="M767.678,116.815c-0.557,0.383-0.958,0.864-1.241,0.803c-0.361-0.078-0.827-0.574-0.866-0.93
		c-0.029-0.268,0.553-0.851,0.848-0.841C766.774,115.859,767.113,116.35,767.678,116.815z"/>
	<path fill="#FFFFFF" d="M844,307.112c-0.457,0.499-0.711,0.984-0.928,0.968c-0.396-0.03-0.77-0.357-1.153-0.559
		c0.193-0.301,0.359-0.824,0.586-0.853C842.889,306.62,843.312,306.886,844,307.112z"/>
	<path fill="#FFFFFF" d="M747.175,98.926c-0.36-0.699-0.775-1.138-0.7-1.464c0.07-0.304,0.643-0.605,1.034-0.669
		c0.169-0.028,0.654,0.581,0.609,0.833C748.051,98.001,747.644,98.317,747.175,98.926z"/>
	<path fill="#FFFFFF" d="M117.013,78.243c-0.555,0.45-0.856,0.785-1.231,0.935c-0.098,0.039-0.617-0.507-0.599-0.76
		c0.02-0.288,0.386-0.698,0.676-0.775C116.097,77.58,116.444,77.928,117.013,78.243z"/>
	<path fill="#FFFFFF" d="M39.558,153.824c0.287,0.434,0.673,0.892,0.617,0.955c-0.265,0.297-0.652,0.485-0.995,0.712
		c-0.179-0.284-0.53-0.596-0.489-0.843C38.734,154.386,39.151,154.187,39.558,153.824z"/>
	<path fill="#FFFFFF" d="M212.619,20.972c-0.4,0.373-0.661,0.793-0.876,0.771c-0.266-0.027-0.664-0.405-0.69-0.662
		c-0.024-0.248,0.32-0.705,0.566-0.755C211.845,20.281,212.157,20.654,212.619,20.972z"/>
	<path fill="#FFFFFF" d="M728.487,79.547c-0.408-0.536-0.764-0.799-0.772-1.072c-0.008-0.266,0.34-0.543,0.532-0.814
		c0.251,0.235,0.635,0.433,0.712,0.715C729.026,78.618,728.743,78.957,728.487,79.547z"/>
	<path fill="#FFFFFF" d="M786.19,135.782c-0.342,0.158-0.584,0.269-0.826,0.38c-0.143-0.309-0.285-0.618-0.428-0.928
		c0.257-0.075,0.559-0.268,0.76-0.192C785.895,135.117,785.991,135.463,786.19,135.782z"/>
	<path fill="#FFFFFF" d="M842.956,270.064c-0.329-0.21-0.554-0.354-0.78-0.497c0.149-0.213,0.272-0.568,0.454-0.601
		c0.214-0.04,0.48,0.2,0.723,0.319C843.236,269.513,843.12,269.742,842.956,270.064z"/>
	<path fill="#FFFFFF" d="M135.889,59.213c-0.469,0.364-0.698,0.649-0.98,0.718c-0.147,0.036-0.567-0.328-0.549-0.472
		c0.039-0.31,0.281-0.594,0.44-0.889C135.081,58.736,135.362,58.902,135.889,59.213z"/>
	<path fill="#FFFFFF" d="M269.232,1.486c0.043,0.252,0.124,0.486,0.098,0.709c-0.009,0.075-0.286,0.12-0.441,0.179
		c-0.075-0.225-0.173-0.447-0.204-0.678C268.681,1.66,268.973,1.583,269.232,1.486z"/>
	<path fill="#FFFFFF" d="M1.835,231.07c-0.329,0.255-0.525,0.525-0.728,0.53c-0.209,0.006-0.426-0.246-0.639-0.384
		c0.179-0.181,0.336-0.472,0.542-0.512C1.208,230.666,1.456,230.888,1.835,231.07z"/>
	<path fill="#FFFFFF" d="M842.864,346.173c-0.096-0.299-0.222-0.545-0.234-0.796c-0.006-0.125,0.247-0.388,0.297-0.368
		c0.212,0.083,0.392,0.248,0.583,0.383C843.402,345.523,843.293,345.654,842.864,346.173z"/>
	<path fill="#FFFFFF" d="M805.027,155.126c-0.153-0.089-0.306-0.177-0.458-0.266c0.147-0.186,0.294-0.372,0.441-0.558
		c0.114,0.136,0.315,0.269,0.319,0.408C805.333,154.846,805.137,154.987,805.027,155.126z"/>
	<path fill="#FFFFFF" d="M575.222,2.474c-0.116-0.128-0.232-0.255-0.347-0.383c0.178-0.134,0.355-0.268,0.533-0.402
		c0.072,0.16,0.22,0.334,0.193,0.476C575.577,2.288,575.356,2.373,575.222,2.474z"/>
	<path fill="#FFFFFF" d="M633.126,21.195c-0.126,0.123-0.253,0.245-0.379,0.368c-0.116-0.139-0.321-0.277-0.322-0.416
		c0-0.126,0.222-0.253,0.347-0.38C632.888,20.908,633.004,21.047,633.126,21.195z"/>
	<path fill="#FFFFFF" d="M20.032,174.032c-0.159-0.076-0.318-0.152-0.477-0.228c0.089-0.15,0.154-0.391,0.275-0.425
		c0.13-0.036,0.314,0.125,0.474,0.2C20.214,173.73,20.123,173.881,20.032,174.032z"/>
	<polygon fill="#FFFFFF" points="709.501,59.147 709.295,59.257 709.304,59.027 	"/>
	<path fill="#FFFFFF" d="M751.835,333.045c0.917,0.242,1.835,0.482,2.963,0.778c-0.376-2.745-0.951-5.076-0.942-7.405
		c0.009-2.24,0.621-4.478,1.03-7.112c-1.056,0.234-1.887,0.386-2.699,0.605c-5.401,1.453-10.154,0.403-13.876-3.887
		c-3.828-4.412-4.003-9.432-1.738-14.579c2.274-5.166,8.772-8.111,14.611-6.798c1.241,0.279,2.467,0.626,3.939,1.002
		c-0.477-2.696-1.227-5.096-1.233-7.499c-0.006-2.325,0.755-4.652,1.26-7.42c-1.176,0.338-2.175,0.628-3.175,0.913
		c-5.792,1.651-11.438-0.385-14.71-5.303c-3.136-4.713-2.915-11.292,0.805-15.643c3.289-3.847,7.585-5.374,12.637-4.476
		c1.26,0.224,2.498,0.57,4.125,0.948c-0.384-2.487-0.961-4.674-0.995-6.87c-0.034-2.253,0.463-4.513,0.757-7.018
		c-0.677,0.057-1.361-0.013-1.957,0.186c-4.405,1.466-8.464,0.724-12.291-1.769c-0.248-0.162-0.514-0.296-0.784-0.424
		s-0.545-0.248-0.812-0.381c0.481,0.984,0.945,1.976,1.445,2.949c4.104,7.992-0.106,16.898-8.878,18.771
		c-7.007,1.496-14.107-3.909-15.084-11.483c-0.894-6.927,4.763-13.459,11.792-13.834c3.79-0.202,7.047,1.009,10.128,3.001
		c-0.747-1.409-1.589-2.776-2.22-4.234c-1.496-3.458-1.579-6.964-0.083-10.47c0.332-0.779,0.592-1.589,1.096-2.955
		c-7.549,3.234-14.069,3.053-18.794-3.779c-3.114-4.502-3.201-9.535-0.298-14.128c4.162-6.584,10.419-7.365,17.762-4.969
		c-0.544-2.494-1.282-4.573-1.377-6.682c-0.096-2.132,0.447-4.293,0.742-6.707c-2.427,0.199-4.68,0.631-6.897,0.493
		c-2.144-0.133-4.251-0.855-6.863-1.424c0.348,1.077,0.65,1.956,0.916,2.846c2.488,8.308-2.93,16.466-11.384,17.149
		c-5.223,0.422-10.249-2.546-12.608-7.446c-2.35-4.882-1.524-10.221,2.125-14.165c3.96-4.281,8.663-5.43,14.15-3.504
		c0.727,0.255,1.471,0.464,2.466,0.775c-0.53-2.473-1.24-4.644-1.4-6.855c-0.161-2.236,0.224-4.512,0.386-7.031
		c-2.536,0.194-4.898,0.656-7.208,0.471c-2.208-0.177-4.363-1.027-6.846-1.659c0.363,1.099,0.68,2.004,0.961,2.921
		c2.374,7.723-1.689,15.012-9.431,16.928c-8.755,2.167-17.329-6.214-15.364-15.018c1.72-7.71,8.456-11.726,16.444-9.796
		c1.041,0.251,2.072,0.544,3.289,0.865c-0.535-2.559-1.28-4.825-1.414-7.127c-0.13-2.235,0.367-4.506,0.607-6.957
		c-2.52,0.271-4.872,0.832-7.179,0.686c-2.299-0.145-4.554-1-7.086-1.605c0.355,1.069,0.68,1.98,0.961,2.903
		c2.353,7.726-1.736,15.002-9.488,16.896c-8.619,2.106-17.139-6.083-15.377-14.78c1.589-7.846,8.455-12.013,16.543-10.033
		c1.031,0.252,2.049,0.556,3.302,0.899c-0.565-2.541-1.302-4.709-1.467-6.919c-0.16-2.146,0.267-4.336,0.463-6.847
		c-2.353,0.149-4.597,0.527-6.801,0.364c-2.243-0.166-4.446-0.865-7.099-1.421c0.329,1.173,0.636,2.171,0.889,3.183
		c1.964,7.846-2.144,14.78-9.776,16.519c-5.255,1.198-10.7-1.317-13.752-6.35c-2.765-4.559-2.259-10.514,1.233-14.516
		c3.928-4.502,8.887-5.843,14.607-3.959c0.73,0.24,1.473,0.44,2.427,0.723c-0.523-2.467-1.222-4.643-1.388-6.859
		c-0.161-2.151,0.224-4.342,0.391-6.842c-2.183,0.299-4.3,0.869-6.395,0.797c-2.149-0.074-4.276-0.776-6.847-1.291
		c0.184,0.982,0.217,1.831,0.505,2.583c2.063,5.378-1.075,11.944-5.57,14.907c-4.462,2.941-10.609,2.572-15.179-0.895
		c-3.98-3.02-5.76-9.345-4.045-14.387c0.32-0.941,0.674-1.871,0.973-2.819c0.044-0.141-0.125-0.349-0.31-0.81
		c-5.704,2.666-11.349,3.043-16.347-1.526c-4.977-4.55-5.385-10.163-3.026-16.472c-2.906,0.42-5.425,1.168-7.896,1.033
		c-2.508-0.137-4.969-1.144-7.725-1.839c0.248,0.796,0.414,1.526,0.697,2.209c3.23,7.798-0.691,15.846-8.826,17.795
		c-5.059,1.212-9.319-0.514-12.581-4.409c-3.374-4.029-4.054-8.662-1.842-13.45c2.087-4.518,5.675-7.112,10.8-7.282
		c2.425-0.081,4.789,0.152,7.003,1.265c0.407,0.205,0.884,0.271,1.44,0.434c-0.7-2.506-1.634-4.745-1.883-7.058
		c-0.238-2.212,0.237-4.501,0.432-7.219c-4.328,1.013-8.538,1.654-13.225-0.799c0.3,1.882,0.402,2.913,0.634,3.914
		c1.304,5.622-0.725,10.044-5.107,13.419c-3.973,3.06-8.529,3.512-13.027,1.453c-4.949-2.265-7.715-6.286-7.6-11.863
		c0.047-2.256,0.593-4.501,0.934-6.904c-2.508,0.415-5.101,1.257-7.654,1.15c-2.501-0.105-4.961-1.177-7.833-1.927
		c0.331,0.967,0.561,1.77,0.876,2.538c3.158,7.709-0.983,15.835-9.16,17.626c-5.064,1.109-9.311-0.689-12.499-4.645
		c-3.298-4.092-3.878-8.737-1.588-13.484c2.109-4.371,5.651-7.056,10.642-6.993c2.816,0.035,5.623,0.754,8.501,1.175
		c-0.595-1.921-1.52-4.025-1.85-6.219c-0.332-2.209-0.073-4.507-0.073-7.073c-1.874,0.189-3.911,0.577-5.94,0.546
		c-1.965-0.031-3.923-0.494-5.996-0.782c-0.765,1.039-0.068,2.077,0.109,3.083c1.29,7.357-3.074,14.047-10.214,15.61
		c-8.84,1.935-16.938-5.385-15.973-14.458c0.154-1.45,0.419-2.888,0.715-4.888c-4.762,1.473-9.148,1.733-14.028-0.524
		c0.339,1.671,0.465,2.705,0.762,3.687c1.864,6.164-2.216,13.138-7.892,15.401c-6.16,2.456-12.943,0.037-16.268-5.801
		c-1.728-3.035-1.843-6.262-1.142-9.581c0.218-1.035,0.485-2.061,0.777-3.291c-2.693,0.372-5.024,0.972-7.346,0.938
		c-2.344-0.035-4.679-0.699-7.445-1.158c0.222,0.935,0.312,1.77,0.616,2.517c2.366,5.829-1.054,12.341-5.352,15.225
		c-4.52,3.033-11.005,2.78-15.383-1.01c-4.008-3.469-5.365-8.042-4.216-13.272c0.192-0.873,0.467-1.728,0.662-2.6
		c0.034-0.153-0.135-0.351-0.242-0.604c-2.309,0.325-4.639,0.904-6.971,0.908c-2.245,0.004-4.49-0.588-7.19-0.985
		c0.248,1.275,0.432,2.398,0.689,3.505c1.525,6.58-2.272,13.366-8.677,15.48c-6.371,2.103-13.23-0.901-16.018-7.044
		c-1.292-2.848-1.283-5.805-0.601-8.797c0.216-0.949,0.448-1.895,0.758-3.199c-2.638,0.553-4.913,1.354-7.209,1.419
		c-2.214,0.062-4.45-0.636-7.136-1.075c0.315,1.375,0.564,2.395,0.78,3.421c1.362,6.475-2.443,13.523-8.576,15.301
		c-7.367,2.136-13.383-0.673-16.515-7.159c-1.227-2.541-1.019-5.248-0.754-7.941c0.096-0.977,0.29-1.945,0.502-3.325
		c-2.352,0.373-4.437,0.927-6.534,0.973c-2.048,0.045-4.107-0.429-6.211-0.681c0,2.424,0.208,4.696-0.058,6.912
		c-0.268,2.227-1.009,4.397-1.609,6.862c0.786-0.205,1.408-0.4,2.043-0.526c1.843-0.364,3.684-0.936,5.54-1.003
		c6.742-0.241,10.8,3.678,12.389,9.587c1.608,5.98-1.219,11.721-6.803,14.508c-4.683,2.337-9.19,1.77-13.233-1.346
		c-4.223-3.255-5.981-7.649-4.814-12.966c0.354-1.612,1.03-3.154,1.579-4.787c-2.74,0.703-5.292,1.806-7.878,1.893
		c-2.574,0.086-5.182-0.849-8.199-1.416c3.113,7.32,2.038,13.607-4.503,18.108c-4.183,2.878-8.936,3.04-13.34,0.406
		c-6.974-4.172-7.811-10.518-5.256-17.96c-2.648,0.569-4.839,1.338-7.058,1.431c-2.141,0.09-4.311-0.517-6.727-0.854
		c0.123,2.543,0.55,5.009,0.271,7.392c-0.28,2.391-1.263,4.701-2.026,7.353c4.171-2.209,8.403-3.006,12.799-1.504
		c2.67,0.913,4.513,2.951,6.008,5.215c3.093,4.682,2.391,11.161-1.541,15.55c-3.498,3.905-9.586,4.997-14.581,2.674
		c-3.706-1.723-5.805-4.692-7.038-8.481c-1.234-3.794,0.229-7.184,1.798-10.713c-3.036,0.775-5.592,1.868-8.185,1.964
		c-2.498,0.092-5.034-0.845-7.98-1.413c0.316,0.998,0.604,1.888,0.88,2.781c2.907,9.398-3.973,18.078-13.759,17.362
		c-6.432-0.471-11.399-5.438-11.688-11.903c-0.101-2.255,0.241-4.53,0.399-7.079c-2.126,0.356-4.127,0.881-6.148,0.976
		c-1.962,0.092-3.944-0.257-6.208-0.435c0.135,2.159,0.459,4.208,0.333,6.228c-0.122,1.953-0.707,3.877-1.1,5.876
		c1.45,0.781,2.646-0.067,3.847-0.285c5.212-0.945,9.585,0.646,12.821,4.681c3.273,4.082,3.641,8.799,1.512,13.551
		c-2.659,5.934-9.534,8.929-15.508,6.934c-6.539-2.184-10.349-8.782-8.855-15.354c0.256-1.127,0.555-2.244,1.001-4.037
		c-4.772,1.864-9.144,2.078-14.141,0.593c1.603,5.132,1.478,9.601-1.211,14.289c1.312-0.239,1.935-0.363,2.562-0.466
		c1.856-0.306,3.709-0.822,5.572-0.862c4.923-0.107,8.788,2.003,11.003,6.418c2.256,4.497,2.107,9.102-0.692,13.389
		c-3.395,5.2-10.292,7.076-15.881,4.451c-5.889-2.765-8.906-9.449-6.987-15.49c0.324-1.02,0.668-2.034,1.121-3.412
		c-2.676,0.63-4.928,1.473-7.222,1.613c-2.332,0.143-4.706-0.406-7.223-0.669c-0.035,0.369-0.172,0.764-0.09,1.107
		c0.972,4.088,1.089,8.097-0.923,11.958c-0.161,0.309-0.11,0.728-0.212,1.506c4.73-1.94,9.279-2.701,13.775-0.397
		c2.683,1.375,4.436,3.658,5.637,6.391c2.134,4.855,0.716,11.167-3.271,14.502c-4.688,3.922-10.738,4.329-15.545,1.046
		c-5.691-3.886-6.863-9.284-3.872-18.256c-2.507,0.685-4.898,1.726-7.349,1.897c-2.409,0.169-4.88-0.545-7.569-0.905
		c0.247,2.338,0.803,4.755,0.668,7.132c-0.138,2.431-0.953,4.823-1.508,7.4c0.988,0.434,1.771-0.42,2.66-0.67
		c4.653-1.303,9.088-1.227,13.018,2.048c4.755,3.963,5.968,11.325,2.738,16.588c-3.324,5.414-10.098,7.548-15.973,5.033
		c-5.784-2.477-8.973-9.008-7.307-15.075c0.389-1.419,0.971-2.785,1.536-4.379c-2.57,0.731-4.888,1.771-7.275,1.963
		c-2.403,0.193-4.874-0.456-7.584-0.767c0.32,2.45,0.961,4.787,0.829,7.08c-0.134,2.325-1.033,4.606-1.688,7.279
		c0.949-0.268,1.749-0.508,2.556-0.718c3.677-0.954,7.356-1.114,10.816,0.661c4.883,2.504,6.936,6.696,6.651,12.078
		c-0.287,5.427-2.98,9.215-8.037,11.212c-4.931,1.947-9.398,1.133-13.291-2.535c-4.04-3.806-5.242-8.333-3.51-13.623
		c0.248-0.756,0.464-1.524,0.653-2.296c0.037-0.154-0.119-0.354-0.212-0.603c-2.182,0.524-4.355,1.348-6.572,1.493
		c-2.229,0.146-4.502-0.384-7.258-0.67c1.238,4.606,1.345,8.981-0.948,13.815c1.68-0.417,2.601-0.627,3.511-0.873
		c6.344-1.715,12.625,1.008,15.412,6.69c2.84,5.79,1.147,12.67-4.208,16.522c-3.781,2.719-7.928,3.053-12.241,1.334
		c-0.999-0.398-1.972-0.86-3.587-1.569c0.532,1.348,0.796,2.138,1.148,2.888c2.539,5.411,1.547,10.387-2.19,14.771
		c-3.647,4.279-8.533,4.762-13.724,3.683c-0.859-0.179-1.69-0.497-2.95-0.876c0.514,2.688,1.335,5.05,1.314,7.406
		c-0.022,2.411-0.868,4.814-1.424,7.572c1.484-0.417,2.775-0.819,4.085-1.14c4.979-1.22,10.543,0.868,13.511,5.043
		c3.137,4.412,3.281,10.016,0.374,14.65c-2.802,4.468-7.718,6.792-12.822,5.888c-1.741-0.308-3.415-1-5.603-1.664
		c0.539,1.949,1.166,3.571,1.402,5.247c0.234,1.66,0.262,3.402,0.034,5.061c-0.237,1.726-0.888,3.396-1.471,5.499
		c1.574-0.473,2.767-0.874,3.981-1.19c6.443-1.678,12.846,1.321,15.423,7.202c2.639,6.022,0.458,12.945-5.266,16.456
		c-3.338,2.048-6.923,2.433-10.654,1.186c-1.015-0.339-2.012-0.73-3.699-1.346c2.289,5.513,2.63,10.531,0.113,15.531
		c1.349,0.618,2.18-0.155,3.052-0.451c8.346-2.83,16.275,1.932,17.589,10.637c0.161,1.066,0.14,2.409-0.035,3.473
		c-0.153,0.935-0.364,1.387-0.685,2.387h14.666c-0.367-1-0.607-1.517-0.781-2.507c-1.134-6.443,3.962-13.112,10.498-13.613
		c4.155-0.318,7.86,0.377,10.819,3.737c2.751,3.125,3.412,6.842,2.813,10.75c-0.09,0.587-0.225,1.633-0.421,1.633h16.294
		c-0.285-1-0.456-1.416-0.569-2.326c-0.972-7.877,4.601-13.833,12.433-13.159c5.893,0.507,10.758,6.61,10.09,12.49
		c-0.144,1.269-0.403,1.994-0.863,2.994h18.241c-0.3,0-0.521-1.275-0.704-2.043c-1.311-5.502,2.759-11.504,8.517-12.448
		c6.06-0.993,11.689,3.21,12.082,9.086c0.027,0.398,0.032,0.979,0.031,1.377c-0.006,1.817-0.189,3.028-0.729,4.028h20.178
		c-0.567-1-0.774-2.236-0.786-4.021c-0.039-5.558,4.443-9.983,9.924-9.671c5.451,0.31,9.588,5.295,9.037,10.706
		c-0.125,1.226-0.417,1.986-0.931,2.986h22.244c-0.311,0-0.551-1.165-0.729-1.775c-1.001-3.444,0.282-7.263,3.253-9.287
		c2.982-2.031,7.268-2.055,10.095,0.013c2.796,2.045,4.04,6.215,2.957,9.507c-0.173,0.526-0.4,1.542-0.684,1.542h24.714
		c-0.448-1-0.768-1.484-1.005-2.423c-0.767-3.041,0.629-6.298,3.499-8.002c2.537-1.507,6.697-1.22,8.701,0.657
		c2.279,2.135,3.009,6.371,1.624,9.017c-0.109,0.208-0.233,0.751-0.364,0.751h27.197c-0.645-1-1.03-1.828-1.224-3.091
		c-0.503-3.266,1.365-6.28,4.572-7.226c2.53-0.747,5.377,0.376,6.978,2.827c1.375,2.105,1.232,5.262-0.283,7.208
		c-0.028,0.036-0.057,0.282-0.086,0.282h29.523c-1.106-1-1.758-2.651-1.694-4.297c0.116-2.965,2.447-5.23,5.524-5.225
		c3.335,0.005,5.47,2.266,5.474,5.552c0.002,1.623-0.501,2.969-1.421,3.969h30.489c-1.094-1-1.744-2.621-1.695-4.251
		c0.089-2.965,2.41-5.258,5.478-5.272c3.34-0.015,5.483,2.22,5.516,5.509c0.017,1.641-0.484,3.013-1.416,4.013h29.32
		c-0.554-1-0.923-1.557-1.155-2.552c-0.698-2.993,0.678-6.066,3.378-7.392c2.682-1.318,6.113-0.657,7.858,1.664
		c1.116,1.483,1.668,3.369,1.384,5.246c-0.188,1.241-0.586,2.035-1.248,3.035h26.75c-0.367,0-0.637-1.309-0.834-2.1
		c-0.762-3.057-0.029-5.883,2.397-7.909c2.32-1.938,5.019-2.382,7.818-1.08c2.845,1.323,4.517,3.757,4.682,6.906
		c0.09,1.71-0.392,3.183-1.333,4.183h24.546c-0.285,0-0.516-1.049-0.702-1.569c-1.687-4.717,1.844-10.442,6.838-10.937
		c6.62-0.656,10.979,4.058,9.734,10.333c-0.168,0.849-0.405,1.173-0.751,2.173h22.088c-0.262,0-0.477-1.004-0.644-1.506
		c-1.181-3.55,0.338-8.205,3.524-10.441c3.449-2.421,8.277-2.479,11.496-0.068c3.369,2.523,4.829,7.192,3.516,10.798
		c-0.143,0.393-0.318,1.217-0.524,1.217h19.893c-0.573-1-0.779-2.257-0.786-4.063c-0.022-5.82,4.552-10.662,10.309-10.783
		c5.654-0.119,10.893,4.991,11.039,10.594c0.048,1.862-0.274,3.253-1.039,4.253h17.894c-0.285,0-0.495-1.305-0.678-2.11
		c-1.033-4.539,1.659-10.371,6.098-12.332c4.155-1.835,8.371-1.823,12.217,0.949c3.558,2.565,4.891,6.356,4.544,10.626
		c-0.097,1.188-0.311,1.867-0.714,2.867h16.063c-0.343-1-0.554-1.511-0.693-2.5c-0.915-6.517,3.305-12.357,10.083-13.809
		c6.101-1.307,12.399,2.504,13.989,8.672c0.414,1.604,0.589,3.53,0.458,5.177c-0.079,0.991-0.253,1.46-0.566,2.46h14.33
		c-0.26,0-0.428-1.302-0.547-2.108C733.859,338.213,742.314,330.529,751.835,333.045z M728.781,275.666
		c7.209-0.036,12.793,5.468,12.935,12.504c0.127,6.32-5.79,13.149-12.804,12.593c-6.532,0.466-12.574-5.503-12.54-12.463
		C716.408,281.158,721.736,275.701,728.781,275.666z M722.058,269.142c-0.024,7.253-7.011,12.469-12.157,12.386
		c-6.749-0.108-12.484-5.707-12.396-12.438c0.077-5.916,4.281-12.363,12.485-12.015C716.21,256.333,722.08,262.682,722.058,269.142z
		 M241.638,173.385c-0.068,5.862-5.498,11.774-11.573,11.196c-6.638-0.076-11.135-4.707-11.097-11.426
		c0.038-6.734,4.853-11.294,11.639-11.279C237.329,161.891,241.696,168.355,241.638,173.385z M237.715,154.008
		c0.072-5.501,4.511-11.678,11.818-11.296c6.515,0.019,11.351,4.858,11.319,11.373c-0.031,6.561-4.672,11.376-11.55,11.688
		C243.274,166.046,237.634,160.171,237.715,154.008z M222.445,192.418c0.011,4.807-4.214,11.615-11.537,11.314
		c-6.523,0.002-11.176-4.801-11.125-11.483c0.051-6.611,4.771-11.224,11.442-11.182C217.246,181.105,222.43,186.377,222.445,192.418
		z M203.339,211.755c-0.274,6.341-5.15,11.361-11.483,11.43c-6.122,0.067-11.658-5.519-11.603-11.705
		c0.057-6.293,5.184-11.299,11.541-11.268C197.871,199.829,203.596,205.811,203.339,211.755z M202.73,249.894
		c0.129,6.961-6.406,11.117-10.713,11.184c-6.122,0.095-11.296-5.058-11.271-11.234c0.026-6.244,4.706-10.726,11.195-10.72
		C198.188,239.13,202.615,243.66,202.73,249.894z M184.141,230.847c-0.045,6.577-5.34,11.836-11.787,11.703
		c-5.959-0.122-11.518-5.973-11.471-11.979c0.037-4.816,4.556-11.66,11.876-11.275C179.575,219.654,184.187,224.075,184.141,230.847
		z M165.41,250.086c-0.12,5.798-5.647,12.138-11.98,11.71c-6.778-0.074-11.838-5.252-11.774-12.046
		c0.063-6.725,5.365-11.874,12.091-11.743C159.971,238.129,165.538,243.905,165.41,250.086z M146.357,269.407
		c-0.049,6.457-5.756,12.319-12.089,11.98c-7.54-0.403-12.103-5.331-12.199-12.537c-0.07-5.241,3.811-11.992,12.45-11.762
		C141.417,257.129,146.411,262.327,146.357,269.407z M153.582,276.688c6.868,0.279,11.5,4.996,11.374,11.915
		c0.247,6.371-5.698,11.638-11.679,11.464c-6.537-0.191-11.661-5.548-11.581-12.03C141.759,283.046,146.359,276.394,153.582,276.688
		z M161.427,269.027c0.105-6.5,4.829-11.307,11.093-11.288c6.361,0.019,11.531,5.146,11.476,11.382
		c-0.055,6.245-5.249,11.298-11.571,11.256C166.192,280.337,161.325,275.314,161.427,269.027z M191.784,277.48
		c6.024-0.055,10.888,4.759,10.869,10.757c-0.019,6.049-4.746,10.694-10.898,10.71c-6.079,0.016-10.498-4.404-10.558-10.56
		C181.136,282.139,185.603,277.536,191.784,277.48z M200.545,269.249c-0.044-5.574,4.77-10.707,10.461-10.364
		c6.02-0.043,10.212,4.034,10.283,9.998c0.069,5.836-4.538,10.714-10.159,10.756C205.456,279.683,200.59,274.951,200.545,269.249z
		 M211.044,241.455c-6.001,0.055-10.424-4.514-10.712-10.56c-0.282-5.914,5.095-10.96,10.398-10.911
		c6.156,0.056,11.029,4.603,11.105,10.609C221.913,236.652,217.198,241.398,211.044,241.455z M219.597,211.318
		c0.102-5.784,4.833-10.447,10.564-10.409c5.675,0.038,10.807,5.118,10.784,10.677c-0.024,5.939-4.982,10.737-11.024,10.669
		C224.145,222.191,219.492,217.261,219.597,211.318z M238.782,192.177c0.092-5.787,4.818-10.463,10.542-10.43
		c5.681,0.033,10.984,5.1,10.763,10.653c-0.277,6.926-5.292,10.652-10.959,10.692C243.352,203.039,238.687,198.118,238.782,192.177z
		 M257.94,173.259c-0.009-6.106,4.525-10.748,10.491-10.738c6.149,0.01,10.972,4.73,10.961,10.727
		c-0.011,6.068-4.758,10.72-10.936,10.72C262.492,183.969,257.95,179.343,257.94,173.259z M276.676,153.927
		c0.096-6.166,4.877-10.657,11.299-10.616c6.205,0.04,10.694,4.609,10.655,10.844c0.198,6.394-5.639,11.021-11.053,11.055
		C281.789,165.247,276.583,159.813,276.676,153.927z M295.699,134.799c-0.099-5.593,5.168-11.373,11.344-11.171
		c6.138,0.011,11.269,5.167,11.249,11.304c-0.019,6.121-5.18,11.289-11.274,11.29C300.519,146.223,295.815,141.328,295.699,134.799z
		 M306.964,163.123c5.583,0.085,10.169,4.605,10.201,10.054c0.034,5.804-4.618,10.278-10.595,10.191
		c-5.637-0.083-9.681-4.267-9.65-9.984C296.954,167.292,301.122,163.033,306.964,163.123z M315.572,154.141
		c-0.044-5.762,4.683-10.559,10.419-10.512c5.973,0.049,10.771,4.69,10.438,10.358c0.475,5.875-5.133,10.833-10.123,10.773
		C320.42,164.689,315.617,160.026,315.572,154.141z M334.335,134.756c0.114-6.16,4.775-10.65,10.999-10.597
		c6.352,0.054,10.877,4.737,10.875,11.009c-0.002,6.391-5.937,10.913-10.967,10.822
		C339.186,145.882,334.224,140.738,334.335,134.756z M353.265,115.924c-0.051-6.806,4.612-11.424,11.381-11.537
		c6.892-0.116,11.22,6.319,11.29,11.251c0.085,6.091-5.534,11.73-11.317,11.515C357.93,126.904,353.315,122.572,353.265,115.924z
		 M364.427,143.958c5.593,0.04,10.212,4.511,10.294,9.962c0.087,5.806-4.538,10.336-10.5,10.286c-5.651-0.047-9.743-4.2-9.745-9.892
		C354.473,148.22,358.608,143.917,364.427,143.958z M373.078,134.822c0.035-5.873,4.602-10.564,10.339-10.622
		c6.052-0.06,10.994,4.733,11.016,10.686c0.022,5.891-4.744,10.712-10.616,10.739C377.588,145.655,373.04,141.08,373.078,134.822z
		 M391.627,115.52c-0.047-5.53,5.218-11.245,11.459-11.074c6.14,0.168,11.231,5.319,11.133,11.439
		c-0.098,6.137-5.286,11.227-11.39,11.175C396.345,127.004,391.683,122.057,391.627,115.52z M421.76,124.26
		c5.646-0.12,11.051,4.819,10.993,10.419c-0.066,6.385-4.555,10.736-10.721,10.925c-5.796,0.065-10.578-4.762-10.58-10.68
		C411.449,129.1,416.01,124.382,421.76,124.26z M430.022,115.866c0.048-6.521,4.697-11.37,10.955-11.427
		c6.358-0.057,11.572,4.988,11.616,11.241c0.044,6.22-5.134,11.382-11.431,11.397C434.903,127.09,429.976,122.131,430.022,115.866z
		 M460.211,124.199c6.051-0.033,10.99,4.803,10.967,10.739c-0.022,5.906-4.793,10.684-10.671,10.688
		c-6.106,0.004-10.616-4.45-10.688-10.557C449.748,129.049,454.354,124.231,460.211,124.199z M468.378,115.778
		c-0.001-6.765,4.748-11.35,11.528-11.391c6.801-0.042,11.146,6.419,11.145,11.398c-0.001,5.952-5.517,11.857-11.463,11.308
		C472.927,127.054,468.379,122.463,468.378,115.778z M479.668,143.961c5.597,0.102,10.156,4.626,10.166,10.088
		c0.011,5.806-4.648,10.258-10.629,10.156c-5.627-0.096-9.659-4.297-9.615-10.018C469.636,148.105,473.825,143.854,479.668,143.961z
		 M487.716,134.786c0.081-6.164,4.859-10.672,11.276-10.638c6.211,0.033,10.614,4.589,10.704,10.821
		c0.092,6.405-5.643,11.03-11.056,11.079C492.853,146.1,487.638,140.678,487.716,134.786z M517.857,143.505
		c5.827,0.026,10.719,4.948,10.636,10.701c-0.083,5.705-4.949,10.592-10.489,10.532c-5.884-0.063-10.615-4.862-10.579-10.731
		C507.46,148.192,512.141,143.479,517.857,143.505z M525.937,134.668c0.079-6.305,5.035-11.172,11.267-11.066
		c6.305,0.107,11.479,5.344,11.389,11.484c-0.07,4.777-4.274,11.512-11.657,11.156C530.451,146.192,525.853,141.354,525.937,134.668
		z M537.065,163.101c5.705-0.079,10.333,4.464,10.328,10.137c-0.005,5.812-4.36,10.109-10.273,10.135
		c-5.833,0.025-9.924-4.051-9.985-9.949C527.071,167.318,531.048,163.184,537.065,163.101z M545.202,154.135
		c-0.046-6.176,4.673-10.779,11.097-10.826c5.896-0.581,11.117,5.322,11.034,10.575c-0.094,5.978-4.146,11.136-11.039,11.387
		C550.492,165.483,545.246,160.089,545.202,154.135z M575.776,162.5c5.905,0.05,10.569,4.764,10.588,10.699
		c0.018,6.039-4.732,10.8-10.757,10.783c-7.002,0.051-10.836-4.929-10.88-10.905C564.684,167.187,569.753,162.449,575.776,162.5z
		 M671.306,242.625c-6.302-0.057-11.641-5.382-11.621-11.697c0.022-6.661,5.185-12.002,11.666-11.959
		c7.276,0.048,12.008,5.874,11.617,11.814C683.351,238.438,676.395,242.671,671.306,242.625z M690.838,237.959
		c6.482,0.028,11.763,5.302,11.833,11.817c0.073,6.8-5.219,12.039-12.165,12.042c-6.569,0.003-11.637-5.097-11.685-11.759
		C678.771,243.127,683.934,237.929,690.838,237.959z M652.277,238.82c6.79,0.14,10.965,4.777,10.905,10.954
		c0.036,6.394-4.508,11.27-10.602,11.375c-6.026,0.104-11.344-5.045-11.455-11.089C641.013,243.942,646.074,238.692,652.277,238.82z
		 M633.044,241.752c-5.875,0.008-10.906-4.925-10.901-10.89c0.004-5.027,3.931-11.006,10.796-10.89
		c6.188-0.017,10.942,4.548,11.024,10.585C644.045,236.569,638.998,241.744,633.044,241.752z M652.165,223.261
		c-6.035,0.252-11.658-5.639-11.556-11.797c0.09-5.473,4.502-11.534,11.852-11.301c6.502,0.206,11.315,4.922,11.291,11.441
		C663.68,218.208,658.994,222.975,652.165,223.261z M644.563,192.456c-0.03,6.476-5.194,11.625-11.605,11.57
		c-6.033-0.051-11.4-5.484-11.435-11.575c-0.036-6.276,5.074-11.223,11.401-11.449C639.161,180.78,644.96,186.668,644.563,192.456z
		 M613.959,184.881c-6.28,0.212-11.634-5.3-11.629-11.586c0.005-6.382,4.975-11.381,11.346-11.411
		c6.794-0.032,11.676,4.66,11.701,11.268C625.403,179.735,620.674,184.654,613.959,184.881z M594.785,165.898
		c-6.041,0.104-11.834-5.782-11.822-11.926c0.009-4.978,4.717-11.801,11.522-11.269c7.059-0.021,11.765,4.565,11.737,11.44
		C606.195,160.629,601.176,165.789,594.785,165.898z M594.497,181.657c6.152,0.084,11.013,4.671,11.048,10.666
		c0.035,6.072-4.685,10.773-10.849,10.807c-5.992,0.033-10.383-4.556-10.655-10.619C583.78,186.693,589.107,181.584,594.497,181.657
		z M613.871,200.849c6.149,0.064,10.933,4.834,10.859,10.826c-0.074,6.072-4.842,10.658-11.038,10.618
		c-5.951-0.039-10.438-4.697-10.414-10.81C603.302,205.4,607.898,200.787,613.871,200.849z M614.009,239.775
		c5.709,0.126,10.303,4.86,10.119,10.427c-0.188,5.69-4.797,9.932-10.666,9.815c-5.73-0.114-9.742-4.457-9.57-10.359
		C604.064,243.766,608.279,239.649,614.009,239.775z M613.938,278.372c5.736,0.074,9.681,4.098,9.673,9.866
		c-0.008,5.66-4.173,10.011-9.608,10.036c-5.407,0.025-10.086-4.691-10.05-10.132C603.989,282.743,608.527,278.302,613.938,278.372z
		 M622.539,269.161c-0.069-5.763,4.636-10.579,10.376-10.556c6.01,0.025,10.801,4.693,10.481,10.315
		c0.503,5.911-5.133,10.855-10.079,10.816C627.442,279.691,622.609,275.038,622.539,269.161z M652.024,277.46
		c6.4-0.058,11.026,4.495,11.154,10.731c0.133,6.518-5.704,11.017-10.69,11.102c-5.991,0.102-11.248-4.921-11.142-10.956
		C641.463,281.621,646.039,277.504,652.024,277.46z M660.232,269.046c0.011-6.756,4.786-11.344,11.561-11.356
		c6.837-0.011,11.133,6.478,11.111,11.43c-0.026,5.937-5.515,11.831-11.497,11.273C664.753,280.344,660.222,275.742,660.232,269.046
		z M690.527,276.362c6.414-0.012,11.876,5.325,11.974,11.701c0.096,6.264-5.423,11.986-11.628,12.056
		c-6.648,0.075-11.998-5.203-12.023-11.861C678.825,281.692,684.046,276.374,690.527,276.362z M722.455,230.916
		c-0.135,6.899-5.8,12.352-12.814,12.336c-7.169-0.017-12.265-5.277-12.233-12.627c-0.507-7.176,6.78-12.52,12.306-12.437
		C716.821,218.296,722.591,223.966,722.455,230.916z M702.752,211.563c-0.003,7.138-5.169,12.433-12.177,12.482
		c-6.568,0.046-12.277-5.61-12.304-12.189c-0.029-7.087,5.413-12.551,12.484-12.613C696.824,199.191,703.26,204.751,702.752,211.563
		z M671.67,180.432c6.906-0.393,12.197,6.175,11.937,12.223c-0.285,6.63-5.771,12.417-12.307,12.118
		c-7.229-0.331-12.188-5.642-12.098-12.649C659.283,185.687,664.356,180.003,671.67,180.432z M652.553,161.258
		c6.887,0.134,11.879,5.28,11.813,12.361c-0.06,6.452-5.789,12.31-12.115,11.955c-7.569-0.424-12.103-5.388-12.172-12.562
		C640.028,167.704,643.951,161.091,652.553,161.258z M645.192,153.984c0.03,6.82-5.556,12.735-12.218,12.462
		c-6.938-0.284-11.974-5.152-12.148-12.306c-0.155-6.362,4.922-12.026,12.128-12.123
		C640.611,141.915,645.582,148.689,645.192,153.984z M613.951,122.593c6.11-0.087,12.546,5.501,12.059,12.259
		c0.018,7.161-5.099,12.457-12.116,12.542c-6.571,0.079-12.304-5.543-12.364-12.127
		C601.465,128.182,606.877,122.694,613.951,122.593z M594.675,103.213c6.997,0.154,12.648,5.632,12.667,12.502
		c0.018,6.87-5.608,12.483-12.588,12.559c-7.208,0.078-12.413-5.102-12.458-12.399C581.701,108.396,589.166,103.092,594.675,103.213
		z M575.636,123.066c6.462,0.139,11.805,5.556,11.752,11.915c-0.052,6.309-5.621,11.871-11.85,11.836
		c-6.638-0.037-11.883-5.407-11.801-12.083C563.817,128.187,569.181,122.927,575.636,123.066z M556.117,103.799
		c7.064-0.033,12.292,5.029,12.304,11.917c0.013,6.757-5.388,12.206-12.151,12.26c-6.253,0.05-12.107-5.755-12.079-12.105
		C544.219,109.494,549.623,103.473,556.117,103.799z M537.354,84.148c7.438,0.277,12.159,5.763,12.315,12.495
		c0.157,6.781-5.616,12.43-12.335,12.449c-6.963,0.02-12.568-5.559-12.569-12.511C524.765,89.627,530.411,83.89,537.354,84.148z
		 M518.021,104.221c6.878,0.24,11.557,4.932,11.461,11.832c0.27,6.479-5.695,11.674-11.595,11.552
		c-6.536-0.136-11.687-5.45-11.667-11.948C506.235,110.645,510.85,103.971,518.021,104.221z M498.757,84.625
		c6.937-0.045,12.14,5.115,12.111,12.012c-0.028,6.667-5.503,12.36-12.127,12.249c-6.419-0.108-11.935-4.93-12.183-12.264
		C486.329,89.853,491.76,84.67,498.757,84.625z M479.724,64.893c6.985,0.007,12.549,5.605,12.51,12.587
		c-0.039,6.976-5.627,12.509-12.606,12.484c-7.412-0.027-12.513-5.244-12.448-12.731C467.244,69.936,472.379,64.886,479.724,64.893z
		 M472.446,96.614c-0.023,6.812-5.341,11.955-12.306,11.9c-6.545-0.052-11.543-5.203-11.544-11.898
		c-0.001-6.785,5.083-11.911,11.859-11.959C467.061,84.61,472.468,90.001,472.446,96.614z M441.288,64.943
		c6.707-0.023,12.581,5.639,12.459,12.371c-0.134,7.42-5.791,12.687-12.501,12.63c-6.555,0.048-12.328-5.557-12.421-12.059
		C428.721,70.66,434.203,64.967,441.288,64.943z M422.279,84.703c6.235,0.084,11.932,5.847,11.699,12.043
		c-0.209,5.553-4.153,11.789-11.862,11.751c-6.798-0.032-11.899-5.185-11.865-11.986C410.284,89.699,415.467,84.611,422.279,84.703z
		 M403.152,64.943c6.723,0.124,12.514,5.929,12.227,12.604c-0.327,7.594-6.136,12.565-12.738,12.398
		c-6.536-0.047-12.18-5.741-12.188-12.295C390.444,70.467,396.095,64.813,403.152,64.943z M383.59,84.677
		c6.539,0.036,12.288,5.576,12.073,11.954c-0.217,6.445-4.737,11.901-12.032,11.882c-6.536,0.024-11.711-5.139-11.776-11.748
		C371.789,89.965,376.959,84.64,383.59,84.677z M364.847,64.895c6.826,0.108,12.439,5.979,12.27,12.832
		c-0.172,6.957-5.798,12.33-12.809,12.233c-7.342-0.102-12.363-5.393-12.238-12.894C352.187,70.042,357.709,64.782,364.847,64.895z
		 M345.064,84.586c7.072,0.174,12.271,5.006,12.319,11.897c0.046,6.708-5.453,12.384-12.005,12.39
		c-6.586,0.006-12.156-5.571-12.253-12.205C333.034,90.471,338.729,84.431,345.064,84.586z M326.112,104.378
		c7.729-0.351,11.678,6.214,11.554,11.365c-0.161,6.685-5.158,12.013-11.698,11.8c-6.479-0.212-11.335-5.215-11.579-11.791
		C314.207,110.863,318.933,103.76,326.112,104.378z M307.107,84.177c6.663,0.028,12.239,5.646,12.188,12.558
		c-0.05,6.718-4.983,11.966-12.405,12.332c-6.652,0.065-12.301-5.606-12.346-12.396C294.498,89.781,300.161,84.149,307.107,84.177z
		 M275.872,115.382c0.362-6.595,5.334-11.644,11.93-11.579c6.901,0.068,12.023,5.281,12.005,12.22
		c-0.017,6.596-5.393,11.745-12.184,11.669C281.461,128.091,275.495,122.253,275.872,115.382z M268.348,123.146
		c6.651-0.092,11.714,4.967,11.725,11.715c0.413,7.818-6.592,11.951-11.555,11.949c-6.306-0.003-11.694-5.274-11.729-11.588
		C256.753,128.552,261.841,123.235,268.348,123.146z M249.494,103.268c6.709,0.015,12.564,5.716,12.399,12.432
		c-0.183,7.473-5.89,12.659-12.563,12.57c-6.551,0.023-12.293-5.607-12.361-12.12C236.894,108.929,242.413,103.253,249.494,103.268z
		 M230.427,122.944c6.88-0.473,12.018,6.179,11.981,12.164c-0.043,6.879-6.466,12.384-12.536,12.23
		c-6.503-0.165-12.147-5.938-11.998-12.496C218.012,128.774,222.368,122.545,230.427,122.944z M211.025,142.113
		c6.812-0.027,11.969,5.003,12.061,11.764c0.093,6.798-5.451,12.654-12.177,12.497c-6.621-0.154-11.948-5.203-12.134-12.314
		C198.597,147.27,204.011,142.141,211.025,142.113z M191.632,161.285c7.07-0.017,12.248,5.008,12.266,11.901
		c0.017,6.708-5.517,12.371-12.057,12.338c-6.593-0.033-12.138-5.637-12.2-12.258C179.583,167.105,185.251,160.881,191.632,161.285z
		 M172.796,180.439c6.783,0.026,11.895,5.134,11.919,11.907c0.023,6.787-5.635,12.628-12.319,12.353
		c-7.012-0.289-11.97-5.739-11.972-12.454C160.422,187.05,164.189,180.248,172.796,180.439z M153.601,199.498
		c7.008-0.039,12.501,6.327,11.955,12.177c0.462,6.941-6.302,12.416-12.343,12.316c-6.494-0.107-12.175-5.842-12.082-12.416
		C141.218,205.51,145.583,199.543,153.601,199.498z M134.476,218.287c7.449,0.289,12.152,5.788,12.299,12.512
		c0.148,6.781-5.631,12.421-12.351,12.433c-6.963,0.012-12.56-5.573-12.552-12.527C121.879,223.752,127.537,218.018,134.476,218.287
		z M102.308,249.943c-0.047-6.936,5.532-12.559,12.505-12.604c7.21-0.046,12.902,5.434,12.942,12.461
		c0.04,6.965-5.662,12.785-12.648,12.91C108.312,262.832,102.355,256.889,102.308,249.943z M102.659,288.328
		c-0.586-7.426,6.762-12.634,12.09-12.648c7.105-0.02,12.945,5.527,12.957,12.509c0.012,6.872-5.617,12.478-12.598,12.549
		C107.9,300.812,102.701,295.629,102.659,288.328z M114.966,339.078c-7.377-0.077-12.425-5.355-12.309-12.87
		c0.112-7.26,5.328-12.278,12.682-12.201c6.976,0.073,12.495,5.749,12.371,12.724C127.586,333.717,121.976,339.152,114.966,339.078z
		 M122.033,307.338c-0.159-6.796,5.254-11.904,12.274-11.923c6.808-0.019,11.956,5.023,12.037,11.788
		c0.081,6.797-5.483,12.652-12.201,12.474C127.457,319.499,122.198,314.389,122.033,307.338z M153.334,338.427
		c-6.418,0.019-11.697-5.379-11.676-11.939c0.021-6.593,5.161-11.697,11.842-11.76c6.323-0.059,11.88,5.545,11.802,11.902
		C165.224,332.998,159.735,338.408,153.334,338.427z M172.847,318.684c-6.495,0.065-11.287-4.77-11.432-11.271
		c-0.154-6.918,6.292-11.275,11.221-11.324c5.966-0.06,11.306,5.189,11.357,11.205C184.044,313.387,178.92,318.624,172.847,318.684z
		 M191.842,337.563c-5.974,0.055-11.163-5.104-10.961-11.122c0.18-5.366,4.368-10.84,11.029-10.67
		c6.158,0.157,10.825,4.771,10.788,10.834C202.662,332.49,197.689,337.509,191.842,337.563z M211.055,317.865
		c-5.425-0.061-10.376-4.934-10.404-10.363c-0.025-5.058,4.19-10.547,10.206-10.281c6.148-0.016,10.48,4.243,10.427,10.253
		C221.235,313.109,216.494,317.925,211.055,317.865z M230.338,336.597c-5.402,0.061-10.105-4.638-10.094-10.086
		c0.011-5.396,4.524-9.853,9.941-9.82c5.713,0.035,9.711,4.079,9.717,9.828C239.908,332.194,235.788,336.535,230.338,336.597z
		 M239.913,288.3c-0.208,5.568-4.524,9.987-9.956,9.858c-5.036-0.12-9.691-4.966-9.636-10.032c0.058-5.395,4.365-9.515,9.895-9.468
		C236.017,278.28,240.074,283.983,239.913,288.3z M230.278,260c-5.757,0.01-10.042-4.23-10.084-9.979
		c-0.043-5.85,4.356-10.258,10.198-10.22c5.24,0.034,9.908,4.733,9.955,10.021C240.396,255.238,235.695,259.99,230.278,260z
		 M249.247,316.822c-4.907-0.04-9.273-4.5-9.214-9.491c0.063-5.294,3.93-8.93,9.493-8.924c5.283,0.005,8.827,3.712,8.971,9.03
		C258.647,312.996,253.469,316.857,249.247,316.822z M249.694,278.515c-5.233,0.151-9.565-4.008-9.668-9.282
		c-0.103-5.236,4.108-9.555,9.358-9.597c4.947-0.04,9.371,4.309,9.448,9.289C258.91,273.896,254.644,278.373,249.694,278.515z
		 M249.233,240.759c-5.198,0.004-9.813-4.797-9.811-10.124c0.002-4.99,4.265-9.847,10.176-9.478c5.713,0.028,9.51,3.907,9.464,9.668
		C259.018,236.525,254.831,240.755,249.233,240.759z M268.602,335.431c-4.89,0.095-8.79-3.714-8.819-8.614
		c-0.031-5.195,3.713-9.147,8.657-9.138c4.865,0.009,8.965,4.076,9.027,8.952C277.524,331.142,273.294,335.34,268.602,335.431z
		 M259.819,288.225c-0.011-4.665,4.136-8.642,8.955-8.589c4.869,0.053,8.344,3.717,8.275,8.723c-0.07,5.019-3.904,8.821-8.76,8.685
		C263.739,296.916,259.829,292.846,259.819,288.225z M268.285,259.113c-4.586-0.084-8.882-4.558-8.896-9.235
		c-0.013-4.355,3.902-9.234,9.311-8.932c5.16,0.021,8.867,3.717,8.901,8.873C277.634,255.042,273.459,259.207,268.285,259.113z
		 M268.748,221.552c-5.233,0.066-9.99-4.58-10.061-9.825c-0.074-5.477,4.21-9.695,9.884-9.731c5.754-0.037,9.607,3.703,9.676,9.394
		C278.317,217.116,274.236,221.482,268.748,221.552z M287.631,315.614c-4.291-0.021-8.113-4.018-8.03-8.398
		c0.082-4.311,3.865-8.059,8.078-8.006c4.633,0.058,8.075,3.555,8.095,8.224C295.794,311.972,292.147,315.636,287.631,315.614z
		 M287.549,277.35c-4.533-0.03-8.002-3.636-7.999-8.312c0.003-4.518,3.715-8.285,8.129-8.249c4.705,0.039,8.48,3.773,8.428,8.337
		C296.054,273.695,292.218,277.381,287.549,277.35z M287.915,239.644c-5.122,0.02-8.893-3.663-8.966-8.755
		c-0.076-5.251,3.708-9.075,8.959-9.056c4.54,0.016,8.753,4.233,8.8,8.809C296.761,235.667,292.895,239.625,287.915,239.644z
		 M287.996,202.461c-5.392,0.113-10.15-4.548-10.196-9.987c-0.045-5.395,4.415-9.893,9.84-9.924c5.697-0.033,9.781,4.015,9.818,9.73
		C297.496,197.983,293.439,202.347,287.996,202.461z M306.728,334.211c-4.328-0.138-7.386-3.363-7.352-7.751
		c0.034-4.277,3.355-7.615,7.542-7.579c4.293,0.037,7.858,3.609,7.774,7.789C314.606,331.005,311.073,334.35,306.728,334.211z
		 M299.457,288.288c-0.051-4.23,3.049-7.248,7.433-7.235c4.613,0.013,7.354,2.709,7.331,7.211c-0.021,4.15-3.338,7.58-7.296,7.543
		C302.966,295.77,299.505,292.285,299.457,288.288z M307.02,258.077c-4.416,0.036-8.201-3.796-8.16-8.262
		c0.04-4.423,3.326-7.639,7.855-7.687c4.791-0.051,8.071,3.055,8.104,7.673C314.849,254.07,311.104,258.044,307.02,258.077z
		 M315.961,211.958c-0.222,5.099-4.36,8.861-9.535,8.67c-4.816-0.178-8.751-4.509-8.513-9.367c0.246-5.014,4.279-8.766,9.257-8.614
		C312.445,202.808,316.188,206.772,315.961,211.958z M326.049,314.319c-3.502-0.022-6.859-3.508-6.794-7.056
		c0.067-3.669,2.989-6.413,6.852-6.433c3.803-0.02,6.652,2.789,6.653,6.558C332.76,311.345,329.858,314.343,326.049,314.319z
		 M326.126,276.123c-4.124-0.057-7.085-3.172-6.959-7.319c0.119-3.935,3.304-6.915,7.234-6.768c3.618,0.135,6.792,3.438,6.768,7.045
		C333.143,272.883,329.851,276.175,326.126,276.123z M326.216,238.915c-4.413,0.044-8.204-3.783-8.171-8.25
		c0.033-4.423,3.308-7.636,7.846-7.697c4.782-0.065,8.076,3.046,8.113,7.661C334.038,234.901,330.304,238.874,326.216,238.915z
		 M326.019,201.845c-4.907-0.023-9.294-4.474-9.243-9.46c0.054-5.304,3.909-8.951,9.463-8.954c5.288-0.003,8.964,3.688,8.966,9.002
		C335.515,198.02,330.215,201.864,326.019,201.845z M345.233,332.979c-3.384,0.027-6.189-2.78-6.278-6.285
		c-0.091-3.592,2.704-6.51,6.295-6.572c3.486-0.061,6.507,2.934,6.502,6.446C351.748,330.085,348.835,332.95,345.233,332.979z
		 M339.546,288.205c0-3.545,2.536-6.01,6.05-5.882c3.268,0.119,5.767,2.795,5.664,6.064c-0.107,3.385-2.604,5.776-5.963,5.71
		C341.87,294.029,339.546,291.647,339.546,288.205z M345.239,256.923c-3.529,0.031-6.882-3.351-6.852-6.912
		c0.033-3.897,3.202-7.071,7.025-7.036c3.807,0.035,6.781,3.038,6.801,6.869C352.235,253.72,349.113,256.888,345.239,256.923z
		 M345.153,219.861c-4.541-0.01-8.029-3.593-8.046-8.265c-0.016-4.519,3.673-8.307,8.08-8.297c4.706,0.011,8.499,3.721,8.476,8.291
		C353.64,216.157,349.818,219.872,345.153,219.861z M345.247,183.062c-5.158,0.054-9.666-4.48-9.712-9.766
		c-0.047-5.417,4.121-9.537,9.715-9.6c5.304-0.06,9.558,4.016,9.692,9.286C355.079,178.372,350.622,183.006,345.247,183.062z
		 M364.398,312.57c-2.761-0.124-5.047-2.569-4.979-5.325c0.065-2.67,2.364-5.013,4.934-5.03c2.845-0.019,5.346,2.51,5.299,5.355
		C369.604,310.346,367.137,312.694,364.398,312.57z M364.317,274.795c-2.787-0.087-5.489-2.912-5.494-5.743
		c-0.005-2.995,2.489-5.345,5.658-5.329c3.458,0.017,5.466,1.991,5.45,5.358C369.916,272.438,367.501,274.895,364.317,274.795z
		 M364.191,237.975c-3.899-0.093-7.057-3.506-6.925-7.486c0.134-4.054,3.301-6.963,7.47-6.863c3.871,0.093,7.05,3.508,6.956,7.475
		C371.599,235.049,368.299,238.074,364.191,237.975z M364.423,201.238c-4.772,0.04-8.659-3.908-8.68-8.82
		c-0.021-4.818,3.96-8.82,8.74-8.787c4.786,0.034,8.745,4.044,8.716,8.827C373.168,197.28,369.252,201.197,364.423,201.238z
		 M383.574,331.62c-2.762-0.053-5.001-2.504-4.862-5.322c0.137-2.784,2.253-4.583,5.242-4.456c2.762,0.117,4.614,2.078,4.55,4.819
		C388.442,329.322,386.11,331.668,383.574,331.62z M379.485,288.097c0.068-2.161,1.876-3.866,4.13-3.893
		c2.279-0.028,4.217,1.89,4.202,4.158c-0.015,2.306-1.91,4.105-4.279,4.061C381.297,292.382,379.414,290.371,379.485,288.097z
		 M383.726,255.762c-3.406-0.001-5.787-2.396-5.806-5.842c-0.018-3.344,2.245-5.799,5.43-5.891c3.268-0.094,6.283,2.736,6.277,5.893
		C389.622,253.193,387.024,255.763,383.726,255.762z M383.455,219.266c-4.234-0.039-7.385-3.337-7.38-7.722
		c0.005-4.47,3.277-7.712,7.746-7.674c4.288,0.036,7.541,3.272,7.611,7.571C391.505,215.957,388.088,219.309,383.455,219.266z
		 M392.778,173.546c-0.033,5.224-4.142,9.214-9.397,9.125c-5.052-0.086-9.144-4.424-9.054-9.598c0.089-5.086,4.362-9.17,9.538-9.154
		C388.065,163.933,393.144,167.658,392.778,173.546z M402.661,144.104c5.681-0.033,10.114,4.328,10.12,9.954
		c0.006,5.472-4.388,10.035-9.708,10.082c-5.538,0.049-10.1-4.426-10.162-9.966C392.851,148.816,397.385,144.134,402.661,144.104z
		 M402.9,310.69c-1.759,0.025-3.195-1.359-3.274-3.155c-0.083-1.881,1.473-3.479,3.32-3.409c1.617,0.061,3.139,1.678,3.161,3.358
		C406.13,309.235,404.7,310.665,402.9,310.69z M403.166,273.513c-2.245,0.129-4.488-1.894-4.637-4.183
		c-0.151-2.321,1.803-4.303,4.308-4.37c2.499-0.067,4.145,1.516,4.183,4.02C407.056,271.368,405.339,273.388,403.166,273.513z
		 M402.51,237.533c-3.484-0.132-6.496-3.398-6.41-6.954c0.089-3.696,3.033-6.442,6.835-6.376c3.8,0.067,6.617,2.91,6.562,6.623
		C409.443,234.425,406.065,237.668,402.51,237.533z M402.817,201.027c-4.537,0.065-8.586-4.028-8.522-8.616
		c0.067-4.764,3.823-8.365,8.715-8.353c4.624,0.011,8.309,3.733,8.29,8.375C411.28,197.25,407.619,200.958,402.817,201.027z
		 M422.042,330.933c-2.202-0.014-4.406-2.316-4.328-4.523c0.078-2.222,2.081-3.995,4.439-3.928c2.486,0.07,4.125,1.775,4.051,4.215
		C426.13,329.085,424.301,330.947,422.042,330.933z M419.423,288.123c0.043-1.572,1.144-2.667,2.625-2.611
		c1.553,0.059,2.884,1.478,2.742,2.923c-0.131,1.333-1.51,2.506-2.906,2.473C420.427,290.873,419.38,289.689,419.423,288.123z
		 M421.786,255.5c-2.859-0.093-5.442-2.912-5.288-5.771c0.163-3.02,2.714-5.268,5.828-5.136c2.88,0.122,5.189,2.636,5.074,5.527
		C427.279,253.189,424.766,255.597,421.786,255.5z M422.067,219.2c-4.154,0.055-7.564-3.384-7.57-7.634
		c-0.006-4.158,3.222-7.509,7.293-7.572c4.043-0.062,7.84,3.525,7.904,7.466C429.757,215.368,426.033,219.148,422.067,219.2z
		 M422.088,182.629c-4.997-0.065-9.315-4.422-9.315-9.4c0-5.226,3.796-8.951,9.121-8.952c5.392-0.001,9.172,3.603,9.236,8.806
		C431.194,178.214,426.952,182.692,422.088,182.629z M441.451,144.061c5.298,0.098,9.879,4.785,9.837,10.066
		c-0.043,5.486-4.654,10.046-10.152,10.04c-5.451-0.005-9.88-4.432-9.88-9.876C431.255,148.485,435.769,143.956,441.451,144.061z
		 M441.319,310.757c-1.958,0.024-3.332-1.35-3.353-3.351c-0.021-1.998,1.332-3.412,3.277-3.428c1.896-0.016,3.386,1.45,3.407,3.352
		C444.672,309.227,443.206,310.734,441.319,310.757z M441.077,273.587c-2.376-0.008-4.275-1.97-4.313-4.456
		c-0.039-2.533,2.05-4.585,4.576-4.494c2.452,0.088,4.201,2.027,4.122,4.572C445.386,271.681,443.469,273.595,441.077,273.587z
		 M441.264,237.612c-3.657-0.043-6.846-3.316-6.795-6.974c0.052-3.787,2.905-6.503,6.763-6.439c3.857,0.064,6.676,2.864,6.639,6.593
		C447.834,234.336,444.624,237.651,441.264,237.612z M441.027,201.028c-4.43-0.036-8.332-3.993-8.362-8.48
		c-0.032-4.735,3.715-8.443,8.578-8.491c4.645-0.045,8.378,3.603,8.427,8.237C449.724,197.234,445.929,201.068,441.027,201.028z
		 M460.673,331.734c-2.76,0.067-5.202-2.217-5.324-4.978c-0.122-2.776,2.197-5.329,4.882-5.375c2.845-0.049,5.363,2.45,5.346,5.303
		C465.561,329.33,463.288,331.67,460.673,331.734z M455.956,288.288c-0.037-2.423,1.851-4.407,4.276-4.493
		c2.435-0.087,4.355,1.776,4.415,4.283c0.06,2.519-1.674,4.496-4.091,4.661C458.066,292.909,455.996,290.906,455.956,288.288z
		 M460.447,256.098c-2.985,0.079-6.128-3.024-6.192-6.113c-0.065-3.163,2.774-5.932,6.152-5.999c3.549-0.071,5.94,2.294,6.012,5.945
		C466.485,253.241,463.804,256.009,460.447,256.098z M460.171,219.281c-4.305-0.128-7.379-3.383-7.356-7.785
		c0.024-4.466,3.343-7.705,7.818-7.63c4.373,0.073,7.632,3.491,7.589,7.959C468.181,216.085,464.587,219.413,460.171,219.281z
		 M460.429,182.703c-5.25-0.028-9.425-4.304-9.363-9.588c0.06-5.115,4.231-9.254,9.364-9.293c5.061-0.038,9.568,4.54,9.443,9.593
		C469.749,178.442,465.39,182.73,460.429,182.703z M479.507,312.656c-3.162-0.058-5.103-2.119-5.062-5.377
		c0.039-3.131,1.957-5.137,4.944-5.171c3.108-0.035,5.64,2.41,5.57,5.378C484.89,310.364,482.417,312.709,479.507,312.656z
		 M479.363,274.894c-3.175-0.047-5.483-2.468-5.514-5.783c-0.031-3.334,2.425-5.829,5.783-5.874
		c2.941-0.039,5.727,2.662,5.821,5.645C485.553,272.057,482.629,274.943,479.363,274.894z M479.478,238.15
		c-3.71-0.052-7.237-3.674-7.237-7.432c0-3.914,3.344-7.162,7.33-7.118c4.306,0.048,7.245,2.909,7.268,7.076
		C486.861,234.832,483.538,238.207,479.478,238.15z M479.744,201.268c-4.963,0.04-8.927-3.943-8.894-8.937
		c0.032-4.885,3.844-8.678,8.789-8.746c4.637-0.064,8.8,4.077,8.821,8.774C488.48,197.038,484.378,201.231,479.744,201.268z
		 M498.853,333.018c-3.904-0.026-6.509-2.718-6.42-6.636c0.079-3.493,2.831-6.277,6.238-6.31c3.727-0.036,6.724,2.904,6.671,6.543
		C505.289,330.173,502.382,333.041,498.853,333.018z M492.523,288.204c0.001-3.483,2.516-5.92,6.109-5.922
		c3.713-0.001,6.138,2.269,6.197,5.801c0.059,3.502-2.693,6.444-6.054,6.472C495.478,294.584,492.521,291.58,492.523,288.204z
		 M498.952,256.961c-4.135,0.026-7.16-3.019-7.116-7.163c0.042-3.967,3.114-6.972,7.078-6.926c3.624,0.042,6.849,3.251,6.923,6.889
		C505.915,253.537,502.664,256.937,498.952,256.961z M498.872,219.885c-4.964-0.017-8.241-3.273-8.285-8.231
		c-0.043-4.997,3.255-8.429,8.085-8.412c4.759,0.017,8.557,3.838,8.519,8.572C507.157,216.108,503.247,219.9,498.872,219.885z
		 M498.931,183.128c-5.191,0.006-9.972-4.51-9.943-9.583c0.025-4.432,2.88-9.973,9.705-9.877c5.514,0.078,9.758,4.151,9.776,9.522
		C508.486,178.406,503.96,183.122,498.931,183.128z M517.968,314.416c-3.767,0.027-6.974-3.256-6.941-7.106
		c0.031-3.646,3.282-6.923,6.853-6.907c3.854,0.018,7.142,3.225,7.141,6.966C525.02,311.18,521.808,314.389,517.968,314.416z
		 M517.78,276.158c-4.09-0.02-6.795-2.833-6.808-7.08c-0.013-4.24,2.873-7.119,7.134-7.118c3.769,0.001,7.04,3.302,7.031,7.097
		C525.129,272.941,521.775,276.178,517.78,276.158z M517.867,238.963c-4.176-0.018-7.956-3.822-8.04-8.089
		c-0.087-4.426,3.734-8.363,8.069-8.315c4.633,0.052,8.079,3.545,8.104,8.215C526.024,235.314,522.381,238.982,517.867,238.963z
		 M517.986,201.866c-5.133-0.029-9.266-4.129-9.363-9.29c-0.099-5.238,4.113-9.551,9.364-9.591c4.948-0.037,9.369,4.315,9.442,9.295
		C527.505,197.382,523.059,201.894,517.986,201.866z M537.205,334.485c-4.462-0.057-7.933-3.607-7.87-8.049
		c0.058-4.083,3.592-7.605,7.649-7.623c4.599-0.021,8.073,3.375,8.01,7.831C544.932,330.924,541.343,334.538,537.205,334.485z
		 M537.225,280.594c3.77-0.027,7.468,3.599,7.583,7.436c0.125,4.156-3.295,7.785-7.401,7.853c-4.215,0.07-7.659-3.206-7.798-7.417
		C529.466,284.116,532.842,280.626,537.225,280.594z M537.41,258.155c-4.375,0.062-8.278-3.68-8.4-8.053
		c-0.126-4.514,3.743-8.446,8.294-8.43c4.195,0.015,7.986,3.782,8.101,8.048C545.524,254.151,541.788,258.093,537.41,258.155z
		 M537.023,220.85c-4.886-0.115-9.053-4.436-9.04-9.34c0.011-4.338,3.921-9.196,9.317-8.89c5.25,0.022,8.911,3.771,8.923,9.137
		C546.233,216.656,541.875,220.965,537.023,220.85z M556.317,182.385c5.383-0.06,10.161,4.735,10.083,10.119
		c-0.08,5.494-4.704,10.021-10.204,9.988c-5.453-0.032-9.854-4.479-9.827-9.929C546.398,186.871,550.721,182.447,556.317,182.385z
		 M556.158,315.676c-4.535-0.025-8.008-3.624-8.011-8.3c-0.002-4.516,3.712-8.296,8.115-8.259c4.717,0.039,8.487,3.757,8.441,8.324
		C564.658,312.008,560.825,315.701,556.158,315.676z M556.472,277.373c-4.971,0.002-8.267-3.238-8.328-8.186
		c-0.061-4.997,3.224-8.453,8.041-8.458c4.763-0.005,8.572,3.79,8.562,8.529C564.737,273.553,560.843,277.372,556.472,277.373z
		 M556.194,239.955c-4.678-0.002-9.121-4.648-9.023-9.411c0.087-4.274,3.932-9.027,9.485-8.787c5.12,0.222,8.786,3.914,8.727,9.073
		C565.323,235.931,561.27,239.957,556.194,239.955z M575.211,201.596c5.664-0.119,10.162,4.2,10.239,9.83
		c0.074,5.466-4.271,10.09-9.588,10.202c-5.53,0.117-10.152-4.31-10.282-9.847C565.455,206.435,569.927,201.706,575.211,201.596z
		 M575.593,335.46c-5.109-0.031-8.831-3.749-8.863-8.854c-0.032-5.129,3.712-8.991,8.714-8.987c5.219,0.004,9.188,3.934,9.115,9.027
		C584.487,331.694,580.626,335.49,575.593,335.46z M566.756,288.284c0.076-5.188,3.918-9.058,8.86-8.924
		c4.868,0.132,8.902,4.315,8.828,9.153c-0.069,4.497-4.41,8.605-9.082,8.596C570.485,297.1,566.684,293.202,566.756,288.284z
		 M575.87,259.28c-5.06,0.139-9.613-4.312-9.613-9.399c0-5.099,3.692-8.844,8.823-8.948c5.569-0.113,9.469,3.487,9.534,8.802
		C584.676,254.741,580.637,259.149,575.87,259.28z M584.747,230.597c0.191-5.703,4.664-10.023,10.234-9.885
		c5.421,0.134,10.059,5.072,9.779,10.41c-0.292,5.554-4.967,9.875-10.485,9.689C588.826,240.627,584.564,236.059,584.747,230.597z
		 M594.939,259.562c5.052,0.051,9.269,4.29,9.334,9.386c0.067,5.226-4.185,9.593-9.367,9.618c-5.267,0.025-9.523-4.134-9.589-9.372
		C585.25,263.812,589.55,259.507,594.939,259.562z M594.601,316.871c-5.036-0.01-9.302-4.324-9.261-9.364
		c0.044-5.377,4.227-9.662,9.354-9.583c5.205,0.08,9.543,4.448,9.478,9.544C604.104,312.774,599.923,316.882,594.601,316.871z
		 M613.976,336.63c-5.609,0.084-10.047-4.346-10.069-10.052c-0.022-5.553,4.273-10.002,9.745-10.094
		c5.48-0.092,10.314,4.516,10.405,9.919C624.146,331.761,619.427,336.549,613.976,336.63z M633.123,317.967
		c-5.703-0.014-10.41-4.772-10.527-10.515c-0.101-4.978,4.542-10.769,10.577-10.242c6.107-0.004,10.166,4.009,10.198,10.086
		C643.401,313.16,638.773,317.981,633.123,317.967z M652.207,337.733c-6.056-0.112-11.009-5.134-11.009-11.201
		c-0.001-6.241,4.678-10.751,11.157-10.757c6.253-0.006,10.689,4.504,10.826,10.732
		C663.337,333.621,656.534,337.812,652.207,337.733z M671.235,318.705c-6.486-0.049-11.083-4.887-10.999-11.573
		c0.079-6.305,5.035-11.172,11.267-11.066c6.305,0.107,11.479,5.344,11.389,11.484C682.822,312.326,678.618,319.062,671.235,318.705
		z M702.575,326.696c-0.206,5.543-4.144,11.789-11.86,11.753c-6.798-0.031-11.901-5.183-11.868-11.985
		c0.033-6.812,5.214-11.9,12.026-11.809C697.108,314.739,702.805,320.5,702.575,326.696z M709.537,319.802
		c-6.499-0.144-12.156-5.905-12.026-12.468c0.12-6.066,4.479-12.315,12.524-11.926c6.925-0.482,12.043,6.197,12.009,12.134
		C722.004,314.47,715.591,319.936,709.537,319.802z M716.242,326.644c-0.085-7.15,5.404-12.612,12.727-12.665
		c6.978-0.05,12.643,5.468,12.723,12.391c0.08,6.914-5.808,13.025-12.577,13.054C722.24,339.454,716.325,333.58,716.242,326.644z"/>
	<path fill="#FFFFFF" d="M772.355,345.949c0.015-1.88,0.233-3.863,0.378-6.023c-2.136,0.145-4.181,0.421-6.204,0.315
		c-1.952-0.102-3.88-0.678-6.213-1.103c0.202,1.078,0.415,1.888,0.499,2.723c0.19,1.87,0.572,3.97,0.407,5.816
		c-0.081,0.91-0.253,1.323-0.551,2.323h12.2C772.447,349,772.34,347.789,772.355,345.949z"/>
	<path fill="#FFFFFF" d="M83.627,341.392c0.138-0.866,0.492-1.698,0.869-2.948c-2.388,0.617-4.434,1.428-6.535,1.61
		c-2.139,0.185-4.332-0.248-6.954-0.445c0.164,1.159,0.383,2.168,0.433,3.186c0.088,1.771,0.307,3.79,0.041,5.518
		C71.387,348.928,71.24,350,71.03,350h12.425c-0.328-1-0.473-1.66-0.491-2.795C82.933,345.339,83.331,343.252,83.627,341.392z"/>
</g>
</svg>
