<?xml version="1.0" encoding="utf-8"?>
<!-- Generator: Adobe Illustrator 17.1.0, SVG Export Plug-In . SVG Version: 6.00 Build 0)  -->
<!DOCTYPE svg PUBLIC "-//W3C//DTD SVG 1.1//EN" "http://www.w3.org/Graphics/SVG/1.1/DTD/svg11.dtd">
<svg version="1.1" id="Layer_1" xmlns="http://www.w3.org/2000/svg" xmlns:xlink="http://www.w3.org/1999/xlink" x="0px" y="0px"
	 viewBox="0 0 241 580" enable-background="new 0 0 241 580" xml:space="preserve">
<g opacity="0.7">
	<path fill="#FFFFFF" d="M206.162,521.769c1.801,0.36,3.515,0.969,5.23,0.97c1.643,0.001,3.287-0.629,5.289-1.058
		c-1.645,3.052-1.367,6.16-0.95,9.465c-1.598-0.164-2.994-0.422-4.39-0.419c-1.408,0.002-2.816,0.262-4.329,0.421
		c0.14-1.722,0.481-3.344,0.34-4.923C207.217,524.716,206.579,523.252,206.162,521.769z"/>
	<path fill="#FFFFFF" d="M149.949,518.121c-1.506-0.209-2.9-0.52-4.301-0.564c-1.345-0.042-2.698,0.194-4.272,0.327
		c0.109-1.549,0.345-3.014,0.277-4.465c-0.068-1.46-0.438-2.905-0.685-4.418c1.788,0.217,3.472,0.68,5.108,0.548
		c1.644-0.133,3.241-0.858,4.952-1.351c-0.478,1.609-1.181,3.175-1.359,4.798C149.489,514.638,149.829,516.336,149.949,518.121z"/>
	<path fill="#FFFFFF" d="M180.033,521.78c3.441,1.537,6.676,1.43,10.099-0.481c-0.416,1.92-0.895,3.395-1.016,4.899
		c-0.125,1.546,0.101,3.12,0.175,4.716c-2.775,0-5.521,0-8.562,0C181.279,527.89,181.534,524.857,180.033,521.78z"/>
	<path fill="#FFFFFF" d="M62.738,140.952c3.05,0.909,5.725,0.66,8.568-0.613c-0.262,2.009-0.735,3.675-0.621,5.299
		c0.115,1.637,0.814,3.233,1.355,5.207c-3.011-1.756-6.055-2.076-9.459-1.225c0.186-1.669,0.427-2.994,0.455-4.324
		C63.063,144.018,62.871,142.735,62.738,140.952z"/>
	<path fill="#FFFFFF" d="M216.177,58.016c-3.342-1.293-6.457-1.401-9.847,0.384c0.466-1.896,0.98-3.303,1.12-4.746
		c0.136-1.4-0.113-2.837-0.201-4.409c2.659,0,5.311,0,8.239,0C214.793,52.203,214.97,55.069,216.177,58.016z"/>
	<path fill="#FFFFFF" d="M149.878,62.136c-0.352,3.158-0.831,6.161,1.197,9.249c-2.156-0.502-3.71-1.093-5.287-1.164
		c-1.515-0.068-3.055,0.402-4.949,0.691c1.139-2.867,1.333-5.597,0.663-8.584c1.651,0.11,2.991,0.292,4.327,0.263
		C147.097,62.564,148.36,62.317,149.878,62.136z"/>
	<path fill="#FFFFFF" d="M181.192,49.271c2.625,0,5.127,0,7.908,0c-0.266,2.812-0.805,5.754,1.012,8.432
		c-0.121,0.078-0.241,0.157-0.362,0.235c-1.493-0.319-2.98-0.856-4.481-0.895c-1.526-0.04-3.066,0.411-4.823,0.682
		c0.271-1.503,0.603-2.81,0.72-4.135C181.284,52.24,181.192,50.871,181.192,49.271z"/>
	<path fill="#FFFFFF" d="M44.879,386.373c-2.735-0.254-5.293-0.492-8.044-0.748c0-2.396,0-4.863,0-7.386
		c1.364,0,2.792,0.136,4.181-0.039c1.338-0.168,2.635-0.657,4.154-1.059c-0.326,1.653-0.835,3.201-0.882,4.763
		C44.241,383.413,44.67,384.936,44.879,386.373z"/>
	<path fill="#FFFFFF" d="M31.951,294.983c-2.851-1.3-5.443-1.71-8.41-0.815c0.16-1.648,0.37-2.904,0.38-4.16
		c0.009-1.21-0.189-2.421-0.319-3.883c1.473,0,2.819,0.096,4.145-0.027c1.272-0.118,2.523-0.463,4.079-0.766
		c-0.268,1.681-0.7,3.188-0.693,4.693C31.139,291.489,31.593,292.952,31.951,294.983z"/>
	<path fill="#FFFFFF" d="M155.196,530.497c-0.18-2.721-0.348-5.268-0.533-8.076c2.842,0.436,5.747,0.878,8.828-0.652
		c-0.417,1.817-0.878,3.178-1.005,4.569c-0.121,1.335,0.106,2.702,0.186,4.159C160.121,530.497,157.64,530.497,155.196,530.497z"/>
	<path fill="#FFFFFF" d="M45.077,202.564c-1.619-0.291-2.931-0.613-4.262-0.742c-1.323-0.128-2.665-0.061-3.923-0.079
		c0-2.604,0-4.947,0-7.3c2.645-0.266,5.169-0.52,7.882-0.793c-0.181,1.375-0.552,2.826-0.511,4.265
		C44.304,199.375,44.753,200.823,45.077,202.564z"/>
	<path fill="#FFFFFF" d="M31.75,320.651c-0.415,0-0.678,0.025-0.934-0.004c-1.822-0.203-3.639-0.462-5.465-0.608
		c-0.833-0.067-1.53-0.131-1.532-1.18c-0.005-2.036-0.001-4.073-0.001-6.39c1.278,0,2.616,0.096,3.934-0.027
		c1.272-0.119,2.523-0.465,4.021-0.757c-0.254,1.6-0.661,3.046-0.662,4.493C31.107,317.634,31.509,319.091,31.75,320.651z"/>
	<path fill="#FFFFFF" d="M57.735,425.529c-2.673-0.177-5.139-0.341-7.756-0.514c0.093-1.122,0.293-2.327,0.264-3.527
		c-0.029-1.209-0.285-2.412-0.435-3.573c2.852-0.277,5.565-0.541,8.385-0.815c-0.257,1.275-0.69,2.643-0.77,4.031
		C57.341,422.539,57.609,423.968,57.735,425.529z"/>
	<path fill="#FFFFFF" d="M23.85,260.004c1.589,0,2.888,0.115,4.156-0.033c1.201-0.141,2.37-0.56,3.761-0.908
		c-0.256,1.637-0.676,3.091-0.656,4.539c0.021,1.472,0.476,2.938,0.797,4.719c-1.411-0.336-2.67-0.761-3.96-0.909
		c-1.326-0.152-2.682-0.034-4.099-0.034C23.85,264.863,23.85,262.516,23.85,260.004z"/>
	<path fill="#FFFFFF" d="M58.132,163.212c-2.766-1.067-5.34-1.568-8.024-0.693c-0.113-0.695-0.201-0.956-0.19-1.212
		c0.072-1.698,0.214-3.396,0.23-5.094c0.009-0.939,0.318-1.389,1.286-1.422c1.965-0.068,3.929-0.189,6.034-0.295
		c0.605,1.322-0.36,2.702-0.114,4.079C57.604,159.973,57.825,161.376,58.132,163.212z"/>
	<path fill="#FFFFFF" d="M162.363,49.673c0,1.31-0.093,2.593,0.026,3.856c0.121,1.279,0.452,2.538,0.722,3.969
		c-1.49-0.205-2.876-0.524-4.268-0.549c-1.335-0.024-2.675,0.256-4.196,0.423c0.221-1.419,0.488-2.67,0.591-3.934
		c0.097-1.202,0.021-2.419,0.021-3.765C157.629,49.673,159.907,49.673,162.363,49.673z"/>
	<path fill="#FFFFFF" d="M89.499,483.506c1.297,0.063,2.576,0.243,3.835,0.154c1.258-0.089,2.497-0.447,3.963-0.729
		c-0.162,1.531-0.354,2.852-0.427,4.18c-0.07,1.27-0.015,2.546-0.015,4.04c-1.093-0.127-2.011-0.278-2.935-0.329
		c-1.02-0.056-2.045-0.017-3.067-0.026c-0.605-0.006-1.129-0.208-1.159-0.889C89.604,487.825,89.564,485.74,89.499,483.506z"/>
	<path fill="#FFFFFF" d="M109.764,503.899c-2.075,0-4.038,0.022-5.999-0.012c-0.637-0.011-0.963-0.432-0.978-1.084
		c-0.045-1.954-0.098-3.907-0.15-5.94c2.444-0.162,4.967-0.329,7.659-0.507c0.405,1.159-0.513,2.315-0.527,3.557
		C109.753,501.195,109.764,502.478,109.764,503.899z"/>
	<path fill="#FFFFFF" d="M31.476,338.605c-0.161,1.357-0.414,2.622-0.432,3.89c-0.019,1.285,0.195,2.573,0.324,4.07
		c-0.505,0-0.946,0.029-1.382-0.005c-1.428-0.114-2.853-0.292-4.283-0.368c-1.451-0.077-1.677-0.302-1.649-1.681
		c0.026-1.292-0.015-2.587-0.067-3.878c-0.029-0.723-0.077-1.485,0.862-1.571C26.939,338.871,29.037,338.767,31.476,338.605z"/>
	<path fill="#FFFFFF" d="M31.475,241.448c-2.565-0.234-4.861-0.443-7.328-0.667c0-2.2,0-4.46,0-6.774
		c2.388-0.205,4.738-0.407,7.303-0.628c-0.143,1.281-0.408,2.603-0.405,3.925C31.046,238.647,31.312,239.989,31.475,241.448z"/>
	<path fill="#FFFFFF" d="M202.076,536.139c-0.121,2.392-0.238,4.685-0.362,7.135c-2.333,0-4.584,0-6.845,0
		c-0.199-2.483-0.386-4.818-0.572-7.135C196.842,536.139,199.379,536.139,202.076,536.139z"/>
	<path fill="#FFFFFF" d="M83.896,469.935c-0.153,2.649-0.299,5.187-0.456,7.9c-1.037-0.078-2.169-0.194-3.304-0.238
		c-1.075-0.042-2.152-0.009-3.376-0.009c-0.111-2.455-0.212-4.669-0.319-7.051c1.359,0,2.634,0.079,3.894-0.023
		C81.535,470.418,82.72,470.134,83.896,469.935z"/>
	<path fill="#FFFFFF" d="M227.804,543.225c-2.273,0-4.415,0-6.641,0c-0.204-2.383-0.402-4.712-0.604-7.078c2.483,0,4.948,0,7.581,0
		C228.03,538.458,227.923,540.722,227.804,543.225z"/>
	<path fill="#FFFFFF" d="M89.898,89.471c2.237-0.099,4.376-0.194,6.515-0.288c0.208,2.575,0.404,4.987,0.62,7.661
		c-1.254-0.237-2.484-0.59-3.731-0.671c-1.198-0.078-2.414,0.125-3.764,0.213C89.661,94.038,89.775,91.836,89.898,89.471z"/>
	<path fill="#FFFFFF" d="M122.776,516.842c-2.02,0-3.852,0.044-5.678-0.039c-0.341-0.016-0.918-0.516-0.946-0.832
		c-0.166-1.892-0.203-3.795-0.29-5.845c2.408-0.137,4.749-0.27,7.286-0.414C123.023,512.106,122.901,514.44,122.776,516.842z"/>
	<path fill="#FFFFFF" d="M110.094,83.454c-2.395-0.165-4.809-0.331-7.367-0.507c0.108-2.073,0.222-4.278,0.347-6.674
		c1.991-0.045,3.89-0.132,5.786-0.088c0.309,0.007,0.839,0.57,0.869,0.912C109.912,79.186,109.982,81.285,110.094,83.454z"/>
	<path fill="#FFFFFF" d="M175.723,535.928c-0.113,2.112-0.199,3.943-0.314,5.771c-0.062,0.987-0.602,1.46-1.612,1.429
		c-1.296-0.04-2.594-0.032-3.891-0.055c-0.686-0.012-1.23-0.259-1.283-1.03c-0.132-1.943-0.233-3.888-0.354-5.971
		c1.218,0.111,2.42,0.32,3.619,0.3C173.094,536.353,174.297,536.104,175.723,535.928z"/>
	<path fill="#FFFFFF" d="M201.849,43.656c-2.544,0-4.827,0-7.317,0c0.105-2.231,0.211-4.482,0.319-6.799c2.199,0,4.275,0,6.519,0
		C201.528,39.086,201.682,41.274,201.849,43.656z"/>
	<path fill="#FFFFFF" d="M44.337,404.479c0,2.471,0,4.846,0,7.514c-2.13-0.162-4.073-0.264-6-0.501
		c-0.303-0.037-0.729-0.669-0.76-1.052c-0.113-1.431-0.096-2.874-0.106-4.313c-0.005-0.735,0.367-1.12,1.126-1.176
		C40.492,404.812,42.385,404.641,44.337,404.479z"/>
	<path fill="#FFFFFF" d="M83.285,102.352c0.159,2.506,0.308,4.847,0.466,7.333c-0.461,0-0.908,0.028-1.351-0.005
		c-1.418-0.108-2.833-0.288-4.253-0.345c-1.328-0.054-1.536-0.238-1.469-1.557c0.066-1.288,0.104-2.577,0.122-3.866
		c0.01-0.707,0.249-1.248,1.001-1.297C79.614,102.495,81.432,102.437,83.285,102.352z"/>
	<path fill="#FFFFFF" d="M228.041,43.617c-2.413,0-4.691,0-7.11,0c-0.035-0.309-0.134-0.694-0.112-1.071
		c0.075-1.293,0.228-2.582,0.283-3.875c0.069-1.606,0.244-1.785,1.769-1.745c1.158,0.03,2.318,0.02,3.475-0.03
		c0.927-0.04,1.422,0.304,1.456,1.269C227.865,39.929,227.955,41.691,228.041,43.617z"/>
	<path fill="#FFFFFF" d="M122.656,63.257c0.174,2.265,0.348,4.537,0.532,6.944c-0.39,0-0.773,0.022-1.152-0.004
		c-1.481-0.103-2.959-0.251-4.442-0.324c-1.178-0.058-1.487-0.271-1.498-1.418c-0.012-1.292,0.055-2.585,0.086-3.878
		c0.018-0.771,0.266-1.317,1.167-1.347c1.557-0.051,3.113-0.14,4.67-0.191C122.204,63.033,122.394,63.163,122.656,63.257z"/>
	<path fill="#FFFFFF" d="M24.561,365.719c2.12-0.185,4.135-0.361,6.348-0.554c0,2.446,0,4.787,0,7.409
		c-1.806-0.194-3.613-0.324-5.39-0.628c-0.375-0.064-0.886-0.748-0.914-1.174C24.496,369.154,24.561,367.524,24.561,365.719z"/>
	<path fill="#FFFFFF" d="M70.322,457.215c0,2.149,0.001,4.106-0.001,6.063c-0.001,0.748-0.357,1.166-1.128,1.12
		c-1.494-0.09-2.994-0.153-4.475-0.349c-0.336-0.045-0.831-0.564-0.869-0.907c-0.164-1.486-0.189-2.987-0.259-4.483
		c-0.03-0.639,0.247-1.094,0.905-1.137C66.451,457.395,68.409,457.312,70.322,457.215z"/>
	<path fill="#FFFFFF" d="M136.202,523.01c-0.1,1.888-0.159,3.584-0.291,5.274c-0.1,1.284-0.399,1.574-1.628,1.603
		c-1.021,0.024-2.051,0.005-3.066-0.101c-1.257-0.13-1.66-0.546-1.797-1.815c-0.125-1.152-0.154-2.314-0.225-3.471
		c-0.044-0.713,0.206-1.229,0.989-1.265C132.141,523.145,134.099,523.087,136.202,523.01z"/>
	<path fill="#FFFFFF" d="M44.047,168.028c0,2.51,0,4.789,0,7.193c-0.139,0.043-0.392,0.203-0.631,0.184
		c-1.425-0.113-2.849-0.255-4.27-0.409c-1.292-0.14-1.582-0.404-1.611-1.629c-0.027-1.158,0.029-2.319,0.071-3.478
		c0.027-0.763,0.346-1.337,1.181-1.416C40.472,168.314,42.16,168.186,44.047,168.028z"/>
	<path fill="#FFFFFF" d="M175.423,43.548c-2.338,0-4.596,0-6.921,0c0.107-2.009,0.165-3.891,0.353-5.759
		c0.029-0.287,0.645-0.712,1.01-0.734c1.424-0.086,2.86-0.088,4.284,0.003c0.348,0.022,0.924,0.494,0.953,0.8
		C175.279,39.726,175.328,41.607,175.423,43.548z"/>
	<path fill="#FFFFFF" d="M63.944,122.193c0-2.109,0-3.99,0-6.029c2.11-0.15,4.031-0.286,6.082-0.432
		c0.149,2.393,0.286,4.593,0.433,6.949C68.242,122.515,66.168,122.36,63.944,122.193z"/>
	<path fill="#FFFFFF" d="M30.914,207.463c0,2.601,0,4.883,0,7.306c-0.46-0.021-0.917-0.005-1.363-0.072
		c-0.539-0.081-1.064-0.249-1.601-0.347c-1.046-0.192-2.42-0.031-3.043-0.643c-0.52-0.511-0.166-1.915-0.193-2.924
		c-0.073-2.707-0.071-2.698,2.603-2.88c0.611-0.042,1.215-0.177,1.824-0.255C29.663,207.582,30.187,207.538,30.914,207.463z"/>
	<path fill="#FFFFFF" d="M135.476,50.385c0.192,2.201,0.362,4.147,0.54,6.188c-2.2,0-4.314,0-6.66,0
		c0.12-1.917,0.157-3.596,0.38-5.25c0.048-0.359,0.745-0.863,1.174-0.895C132.382,50.316,133.867,50.385,135.476,50.385z"/>
	<path fill="#FFFFFF" d="M56.909,450.954c-1.777-0.084-3.203-0.124-4.625-0.23c-0.797-0.059-1.221-0.556-1.233-1.369
		c-0.009-0.616,0.016-1.233-0.016-1.848c-0.134-2.626-0.06-2.706,2.656-2.886c1.014-0.067,2.026-0.174,3.218-0.279
		C56.909,446.522,56.909,448.579,56.909,450.954z"/>
	<path fill="#FFFFFF" d="M148.902,536.551c-0.105,1.842-0.132,3.457-0.337,5.049c-0.049,0.384-0.658,0.737-1.072,1.013
		c-0.191,0.127-0.53,0.046-0.801,0.038c-3.634-0.101-3.926,0.192-3.876-3.418c0.01-0.727-0.151-1.456-0.255-2.388
		C144.666,536.747,146.587,536.658,148.902,536.551z"/>
	<path fill="#FFFFFF" d="M17.571,273.494c0,2.026,0.001,3.717,0,5.409c0,0.87-0.471,1.246-1.3,1.17
		c-1.152-0.107-2.319-0.17-3.44-0.424c-0.395-0.089-0.913-0.657-0.961-1.057c-0.131-1.072-0.049-2.171-0.031-3.259
		c0.013-0.796,0.449-1.301,1.221-1.397C14.461,273.761,15.872,273.655,17.571,273.494z"/>
	<path fill="#FFFFFF" d="M57.066,135.477c-1.984-0.108-3.54-0.143-5.08-0.316c-0.339-0.038-0.739-0.517-0.898-0.885
		c-0.146-0.339-0.01-0.802,0.009-1.21c0.158-3.522,0.879-4.147,4.335-3.84c0.794,0.071,1.33,0.402,1.387,1.204
		C56.934,132.037,56.981,133.65,57.066,135.477z"/>
	<path fill="#FFFFFF" d="M17.564,299.803c0,2.074,0.025,3.888-0.013,5.7c-0.015,0.685-0.537,0.91-1.149,0.853
		c-1.217-0.113-2.432-0.247-3.644-0.401c-0.637-0.081-0.948-0.498-0.938-1.129c0.009-0.543,0.079-1.085,0.081-1.628
		c0.009-2.79,0.004-2.794,2.875-3.12C15.622,299.981,16.472,299.909,17.564,299.803z"/>
	<path fill="#FFFFFF" d="M211.144,549.956c3.27-0.019,3.27-0.019,3.053,2.947c-0.03,0.41-0.023,0.828-0.098,1.23
		c-0.222,1.189-0.547,1.518-2.07,1.337c-1.244-0.148-3.096,0.981-3.548-1.29c-0.186-0.935-0.212-1.91-0.229-2.868
		c-0.021-1.156,0.286-1.437,1.464-1.443C210.263,549.866,210.811,549.934,211.144,549.956z"/>
	<path fill="#FFFFFF" d="M17.216,332.499c-1.511-0.121-2.871-0.15-4.194-0.384c-0.388-0.068-0.685-0.706-0.997-1.104
		c-0.069-0.088-0.021-0.266-0.032-0.402c-0.295-3.842,0.406-4.533,4.278-4.287c0.746,0.047,1.165,0.35,1.174,1.108
		c0.014,1.231,0.019,2.463,0.001,3.694C17.44,331.454,17.34,331.782,17.216,332.499z"/>
	<path fill="#FFFFFF" d="M182.017,549.926c1.855,0,3.409-0.065,4.95,0.047c0.376,0.027,0.722,0.626,1.054,0.988
		c0.069,0.075,0.013,0.263,0.015,0.399c0.062,3.873-0.59,4.509-4.438,4.157c-0.427-0.039-1.114-0.477-1.168-0.811
		C182.198,553.248,182.156,551.759,182.017,549.926z"/>
	<path fill="#FFFFFF" d="M148.607,43.059c-1.658,0-3.205,0.051-4.743-0.041c-0.331-0.02-0.744-0.503-0.913-0.868
		c-0.155-0.337-0.041-0.802-0.031-1.21c0.078-3.13,1.168-4.011,4.234-3.288c0.494,0.117,1.208,0.658,1.256,1.07
		C148.582,40.173,148.985,41.651,148.607,43.059z"/>
	<path fill="#FFFFFF" d="M240.587,550.072c-0.083,1.45-0.093,2.724-0.264,3.976c-0.053,0.391-0.506,0.99-0.837,1.034
		c-1.268,0.168-2.564,0.215-3.841,0.149c-0.293-0.015-0.735-0.633-0.793-1.02c-0.16-1.074-0.176-2.173-0.206-3.263
		c-0.018-0.654,0.36-1.033,1.014-1.022C237.208,549.952,238.756,550.016,240.587,550.072z"/>
	<path fill="#FFFFFF" d="M30.532,187.939c-1.555-0.09-2.89-0.143-4.218-0.264c-0.304-0.028-0.829-0.28-0.84-0.455
		c-0.083-1.332-0.231-2.696-0.027-3.999c0.182-1.168,1.36-1.138,2.315-1.2c0.407-0.026,0.815-0.03,1.222-0.044
		c1.019-0.035,1.52,0.504,1.541,1.477C30.553,184.802,30.532,186.152,30.532,187.939z"/>
	<path fill="#FFFFFF" d="M12.21,253.156c-0.461-4.978-0.294-5.455,5.076-5.516c0,1.917,0,3.838,0,6.049
		C15.591,253.51,13.944,253.338,12.21,253.156z"/>
	<path fill="#FFFFFF" d="M30.493,391.886c0,1.937,0.042,3.56-0.019,5.18c-0.028,0.743-0.582,1.037-1.307,0.964
		c-0.272-0.027-0.542-0.078-0.814-0.111c-3.151-0.39-3.661-1.067-3.236-4.207c0.096-0.709,0.427-1.158,1.126-1.261
		C27.583,392.252,28.929,392.091,30.493,391.886z"/>
	<path fill="#FFFFFF" d="M211.35,29.831c-2.951,0.036-2.95,0.036-2.715-2.63c0.03-0.338,0.019-0.679,0.042-1.018
		c0.103-1.457,0.226-1.567,1.731-1.556c0.271,0.002,0.544,0.014,0.814,0.04c0.898,0.088,2.193-0.531,2.556,0.596
		c0.4,1.242,0.313,2.659,0.297,3.999c-0.003,0.233-0.68,0.598-1.081,0.655C212.405,30.001,211.782,29.863,211.35,29.831z"/>
	<path fill="#FFFFFF" d="M43.401,434.66c0.443,3.25-0.638,2.753-3.016,2.537c-1.475-0.134-1.816-0.574-1.977-2.103
		c-0.036-0.339-0.044-0.682-0.05-1.023c-0.029-1.788,0.162-2.008,1.891-2.203C43.452,431.509,43.452,431.509,43.401,434.66z"/>
	<path fill="#FFFFFF" d="M185.277,29.803c-3.046,0-3.046,0-2.829-2.914c0.145-1.943,0.274-2.07,2.188-2.138
		c3.042-0.108,3.127-0.029,3.209,2.954c0.006,0.205,0.027,0.41,0.022,0.614c-0.031,1.379-0.205,1.563-1.517,1.553
		C185.941,29.87,185.533,29.821,185.277,29.803z"/>
	<path fill="#FFFFFF" d="M43.373,145.536c0.049,0.529,0.074,0.733,0.085,0.938c0.091,1.738-0.108,1.931-1.808,1.741
		c-0.272-0.03-0.553-0.049-0.809-0.135c-0.742-0.249-1.944-0.363-2.109-0.831c-0.339-0.962-0.225-2.136-0.075-3.191
		c0.055-0.387,0.7-0.762,1.151-0.997c0.34-0.177,0.8-0.137,1.209-0.17c2.219-0.177,2.288-0.112,2.356,2.148
		C43.381,145.313,43.373,145.587,43.373,145.536z"/>
	<path fill="#FFFFFF" d="M237.431,29.773c-0.407,0-0.815,0.002-1.222,0c-0.944-0.006-1.363-0.49-1.275-1.42
		c0.038-0.406,0.084-0.811,0.143-1.214c0.285-1.953,0.875-2.439,2.82-2.335c1.482,0.079,1.933,0.466,2.189,1.88
		C240.61,29.572,240.464,29.741,237.431,29.773z"/>
	<path fill="#FFFFFF" d="M17.103,355.639c0-0.125,0.009-0.055-0.001,0.012c-0.122,0.835,0.558,2.084-0.445,2.414
		c-1.023,0.337-2.271,0.067-3.405-0.063c-0.291-0.033-0.708-0.517-0.755-0.839c-0.147-1.009-0.224-2.045-0.156-3.059
		c0.022-0.32,0.542-0.699,0.917-0.877c0.347-0.164,0.805-0.086,1.212-0.132C17.2,352.787,17.199,352.786,17.103,355.639z"/>
	<path fill="#FFFFFF" d="M159.084,550.228c0.406-0.025,0.819-0.104,1.217-0.058c0.316,0.036,0.87,0.208,0.88,0.349
		c0.084,1.254,0.236,2.542,0.031,3.765c-0.151,0.903-1.164,0.732-1.904,0.713c-2.327-0.06-3.5-1.501-2.935-3.741
		c0.1-0.396,0.66-0.806,1.095-0.952c0.487-0.165,1.073-0.038,1.616-0.038C159.084,550.252,159.084,550.24,159.084,550.228z"/>
	<path fill="#FFFFFF" d="M80.645,497.674c1.8-0.065,2.139,0.254,2.191,2.068c0.062,2.147-0.454,2.832-2.195,2.916
		c-2.062,0.099-2.709-0.557-2.767-2.805C77.828,498.012,78.142,497.765,80.645,497.674z"/>
	<path fill="#FFFFFF" d="M95.911,513.126c-0.038,0.504-0.025,0.993-0.128,1.455c-0.07,0.312-0.268,0.809-0.471,0.842
		c-0.984,0.159-2.006,0.335-2.982,0.223c-0.961-0.11-1.193-1.015-1.257-1.88c-0.041-0.545-0.134-1.106-0.044-1.633
		c0.061-0.354,0.361-0.898,0.626-0.945c1.13-0.2,2.326-0.475,3.422-0.285C96.221,511.102,95.889,512.291,95.911,513.126z"/>
	<path fill="#FFFFFF" d="M17.059,224.322c0.115,2.773,0.001,2.878-2.775,2.573c-1.748-0.193-1.923-0.389-1.91-2.173
		c0.003-0.476,0.014-0.952,0.037-1.427c0.033-0.7,0.387-1.14,1.085-1.281c0.2-0.04,0.402-0.068,0.603-0.103
		C16.794,221.439,16.944,221.561,17.059,224.322z"/>
	<path fill="#FFFFFF" d="M108.843,526.052c-0.009,0.137-0.011,0.274-0.029,0.41c-0.102,0.79,0.104,1.819-0.915,2.079
		c-1.057,0.27-2.198,0.286-3.119-0.501c-0.533-0.456-0.867-2.496-0.492-3.117c0.19-0.314,0.572-0.601,0.925-0.707
		c0.515-0.155,1.08-0.153,1.626-0.186C108.843,523.911,108.953,524.027,108.843,526.052z"/>
	<path fill="#FFFFFF" d="M69.565,486.725c-0.009,0.137-0.018,0.273-0.026,0.41c-0.111,1.855-0.307,2.149-1.458,2.189
		c-1.767,0.06-2.722-0.601-2.97-2.131c-0.128-0.79-0.467-1.919,0.454-2.199c1.104-0.337,2.388-0.264,3.554-0.092
		c0.29,0.043,0.424,1.147,0.63,1.763C69.688,486.685,69.626,486.705,69.565,486.725z"/>
	<path fill="#FFFFFF" d="M95.691,67.184c0.063,1.442-0.166,1.791-1.228,1.866c-2.442,0.174-3.324-0.377-3.363-2.105
		c-0.042-1.834,0.512-2.53,2.074-2.606C94.996,64.249,95.591,64.922,95.691,67.184z"/>
	<path fill="#FFFFFF" d="M159.109,29.694c-1.829,0.024-2.512-0.556-2.539-2.158c-0.03-1.716,0.649-2.35,2.558-2.39
		c1.628-0.034,2.073,0.553,2.081,2.742C161.215,29.256,160.729,29.673,159.109,29.694z"/>
	<path fill="#FFFFFF" d="M82.518,80.311c0.074,1.466-0.158,1.834-1.204,1.911c-1.929,0.142-3.04-0.51-3.094-1.814
		c-0.08-1.94,0.583-2.848,2.102-2.878C81.85,77.499,82.412,78.21,82.518,80.311z"/>
	<path fill="#FFFFFF" d="M107.1,55.747c-1.935,0.033-2.787-0.623-2.783-2.14c0.003-1.395,0.681-2.028,2.185-2.04
		c1.57-0.013,2.217,0.619,2.25,2.199C108.782,55.217,108.358,55.725,107.1,55.747z"/>
	<path fill="#FFFFFF" d="M30.027,421.109c-0.049,2.022-0.318,2.393-1.698,2.343c-1.866-0.068-2.503-0.691-2.509-2.455
		c-0.005-1.46,0.724-1.981,2.692-1.921C29.857,419.117,30.069,419.401,30.027,421.109z"/>
	<path fill="#FFFFFF" d="M121.891,539.396c-0.001,1.47-0.567,2.104-1.871,2.097c-1.75-0.01-2.554-0.713-2.533-2.215
		c0.019-1.381,0.723-1.995,2.262-1.977C121.257,537.318,121.893,537.94,121.891,539.396z"/>
	<path fill="#FFFFFF" d="M69.391,95.139c-0.982,0-1.706,0.041-2.424-0.01c-0.892-0.064-1.573-0.468-1.715-1.438
		c-0.12-0.826-0.196-1.829,0.629-2.194c0.798-0.353,1.794-0.305,2.705-0.319c0.186-0.003,0.508,0.482,0.548,0.772
		C69.269,92.931,69.303,93.925,69.391,95.139z"/>
	<path fill="#FFFFFF" d="M12.922,381.944c0.043-1.405,0.965-2.232,2.428-2.178c1.122,0.042,1.629,0.726,1.599,2.16
		c-0.031,1.527-0.694,2.201-2.114,2.148C13.509,384.025,12.88,383.324,12.922,381.944z"/>
	<path fill="#FFFFFF" d="M198.014,563.619c1.669-0.028,2.236,0.386,2.241,1.639c0.007,1.603-0.688,2.397-2.11,2.411
		c-1.402,0.014-2.038-0.641-2.096-2.162C195.994,564.049,196.413,563.646,198.014,563.619z"/>
	<path fill="#FFFFFF" d="M224.259,563.636c1.531,0.015,2.209,0.65,2.191,2.052c-0.017,1.342-0.692,1.997-2.041,1.978
		c-1.373-0.019-1.989-0.708-2.016-2.256C222.369,564.058,222.827,563.622,224.259,563.636z"/>
	<path fill="#FFFFFF" d="M16.858,198.282c0.026,1.53-0.24,1.875-1.465,1.893c-1.664,0.025-2.45-0.63-2.469-2.057
		c-0.019-1.407,0.642-2.05,2.178-2.119C16.552,195.934,16.824,196.287,16.858,198.282z"/>
	<path fill="#FFFFFF" d="M56.052,471.859c0,0.893,0.085,1.64-0.019,2.36c-0.181,1.251-0.888,1.741-2.152,1.646
		c-1.186-0.089-1.633-0.643-1.706-2.113c-0.063-1.262,0.275-1.686,1.586-1.929c0.402-0.075,0.816-0.11,1.225-0.118
		C55.251,471.7,55.517,471.777,56.052,471.859z"/>
	<path fill="#FFFFFF" d="M29.849,159.243c0.082,0.834-0.116,1.451-1.161,1.488c-1.68,0.06-2.603-0.696-2.591-2.181
		c0.011-1.285,0.659-1.975,1.843-1.961C29.219,156.604,29.806,157.41,29.849,159.243z"/>
	<path fill="#FFFFFF" d="M121.549,40.76c-0.011,1.228-0.402,1.65-1.553,1.679c-1.382,0.034-2.141-0.674-2.077-1.94
		c0.057-1.135,0.818-1.832,2.036-1.865C121.07,38.603,121.562,39.259,121.549,40.76z"/>
	<path fill="#FFFFFF" d="M56.043,106.351c-0.012,1.193-0.475,1.695-1.534,1.662c-1.314-0.042-2.085-0.803-2.039-2.012
		c0.042-1.099,0.726-1.726,1.846-1.693C55.458,104.342,56.056,105.05,56.043,106.351z"/>
	<path fill="#FFFFFF" d="M196.424,14.609c-0.009-1.287,0.62-2.039,1.738-2.077c1.173-0.04,1.937,0.724,1.896,1.894
		c-0.037,1.07-0.683,1.632-1.907,1.66C196.945,16.113,196.432,15.675,196.424,14.609z"/>
	<path fill="#FFFFFF" d="M172.255,563.918c1.339-0.055,1.643,0.158,1.68,1.18c0.053,1.456-0.435,2.193-1.496,2.257
		c-1.348,0.081-2.203-0.609-2.255-1.818C170.135,564.373,170.631,563.985,172.255,563.918z"/>
	<path fill="#FFFFFF" d="M3.492,290.087c0.014,1.549-0.164,1.827-1.193,1.865c-1.393,0.051-2.021-0.552-1.997-1.915
		c0.024-1.355,0.689-2.043,1.972-2.041C3.251,287.998,3.476,288.385,3.492,290.087z"/>
	<path fill="#FFFFFF" d="M224.431,16.085c-1.208-0.01-1.758-0.47-1.764-1.474c-0.007-1.232,0.705-2.059,1.774-2.061
		c1.065-0.002,1.751,0.814,1.746,2.076C226.183,15.651,225.648,16.095,224.431,16.085z"/>
	<path fill="#FFFFFF" d="M133.217,550.852c1.08,0.034,1.512,0.552,1.443,1.73c-0.068,1.15-0.575,1.654-1.626,1.618
		c-1.147-0.039-1.881-0.69-1.902-1.686C131.108,551.448,131.909,550.81,133.217,550.852z"/>
	<path fill="#FFFFFF" d="M3.362,316.272c-0.031,1.235-0.635,1.917-1.649,1.862c-0.949-0.052-1.417-0.675-1.396-1.856
		c0.022-1.207,0.604-1.85,1.672-1.849C2.926,314.431,3.392,315.056,3.362,316.272z"/>
	<path fill="#FFFFFF" d="M3.397,263.745c-0.004,1.303-0.373,1.792-1.368,1.816c-1.144,0.028-1.709-0.541-1.726-1.736
		c-0.019-1.342,0.553-1.969,1.756-1.926C3.035,261.935,3.401,262.44,3.397,263.745z"/>
	<path fill="#FFFFFF" d="M3.331,342.354c-0.006,1.077-0.616,1.747-1.57,1.723c-0.905-0.023-1.418-0.613-1.413-1.626
		c0.005-1.03,0.618-1.598,1.694-1.567C2.908,340.908,3.336,341.397,3.331,342.354z"/>
	<path fill="#FFFFFF" d="M41.963,458.98c0.542,0.031,0.835,0.56,0.802,1.355c-0.044,1.071-0.739,1.862-1.564,1.786
		c-0.759-0.07-1.363-0.909-1.3-1.809C39.957,459.481,40.675,458.923,41.963,458.98z"/>
	<path fill="#FFFFFF" d="M3.31,237.553c-0.039,0.942-0.502,1.43-1.345,1.417c-1.03-0.016-1.662-0.673-1.601-1.666
		c0.056-0.922,0.659-1.451,1.62-1.418C2.869,235.916,3.352,236.523,3.31,237.553z"/>
	<path fill="#FFFFFF" d="M170.634,15.738c-0.215-2.124,0.653-3.08,2.085-2.456c0.434,0.189,0.807,0.869,0.91,1.384
		c0.14,0.696-0.373,1.138-1.086,1.165C171.947,15.854,171.347,15.777,170.634,15.738z"/>
	<path fill="#FFFFFF" d="M133.371,26.35c0.181,0.263,0.656,0.663,0.737,1.132c0.131,0.751-0.586,1.315-1.457,1.303
		c-0.66-0.01-1.226-0.209-1.294-0.983C131.292,27.068,132.117,26.365,133.371,26.35z"/>
	<path fill="#FFFFFF" d="M41.297,118.044c0.725,0.051,1.208,0.767,1.102,1.635c-0.087,0.709-0.475,1.123-1.204,1.061
		c-0.751-0.064-1.264-0.451-1.276-1.278C39.907,118.655,40.563,117.992,41.297,118.044z"/>
	<path fill="#FFFFFF" d="M13.635,407.824c0.069-0.736,0.621-1.019,1.375-1.002c0.752,0.017,1.073,0.494,1.058,1.19
		c-0.015,0.737-0.29,1.328-1.133,1.394C14.207,409.463,13.594,408.751,13.635,407.824z"/>
	<path fill="#FFFFFF" d="M13.129,171.836c0.845-0.53,1.286-1.003,1.782-1.071c0.728-0.099,1.095,0.486,1.087,1.188
		c-0.007,0.746-0.459,1.22-1.181,1.038C14.327,172.868,13.925,172.401,13.129,171.836z"/>
	<path fill="#FFFFFF" d="M144.302,565.734c0.754-0.528,1.129-0.984,1.531-1.01c0.31-0.02,0.837,0.444,0.943,0.792
		c0.182,0.594-0.233,1.122-0.847,1.094C145.508,566.592,145.105,566.188,144.302,565.734z"/>
	<path fill="#FFFFFF" d="M1.465,212.764c-0.443-0.735-0.948-1.21-0.864-1.528c0.104-0.394,0.661-0.853,1.088-0.933
		c0.612-0.114,1.095,0.395,0.939,1.02C2.522,211.748,2.041,212.079,1.465,212.764z"/>
	<path fill="#FFFFFF" d="M0,368.449c0.906-0.389,1.339-0.696,1.797-0.741c0.648-0.064,1.015,0.39,0.995,1.033
		c-0.019,0.641-0.414,1.121-1.047,0.945C1.25,369.549,0.849,369.072,0,368.449z"/>
	<path fill="#FFFFFF" d="M211.425,577.401c0.38,0.7,0.781,1.115,0.76,1.508c-0.016,0.291-0.581,0.552-0.902,0.826
		c-0.305-0.366-0.766-0.698-0.855-1.111C210.375,578.379,210.907,578.007,211.425,577.401z"/>
	<path fill="#FFFFFF" d="M27.867,446.019c0.489,0.597,0.877,0.924,1.028,1.337c0.051,0.14-0.557,0.753-0.761,0.706
		c-0.444-0.103-0.823-0.491-1.228-0.762C27.155,446.967,27.405,446.635,27.867,446.019z"/>
	<path fill="#FFFFFF" d="M186.028,579.016c-0.344,0.223-0.677,0.585-1.037,0.614c-0.197,0.016-0.675-0.608-0.61-0.804
		c0.117-0.348,0.514-0.748,0.863-0.83c0.306-0.072,0.707,0.264,1.066,0.42C186.215,578.616,186.122,578.816,186.028,579.016z"/>
	<path fill="#FFFFFF" d="M80.421,525.298c0.349,0.409,0.587,0.687,0.824,0.965c-0.317,0.265-0.604,0.644-0.966,0.742
		c-0.153,0.041-0.643-0.505-0.653-0.794C79.618,525.954,80.064,525.683,80.421,525.298z"/>
	<path fill="#FFFFFF" d="M67.069,512.067c0.432,0.491,0.808,0.764,0.92,1.12c0.047,0.148-0.471,0.668-0.729,0.665
		c-0.286-0.003-0.722-0.364-0.805-0.652C66.389,512.969,66.753,512.615,67.069,512.067z"/>
	<path fill="#FFFFFF" d="M27.819,131.474c0.38,0.467,0.812,0.784,0.764,0.992c-0.069,0.302-0.459,0.687-0.758,0.733
		c-0.26,0.039-0.583-0.344-0.879-0.541C27.193,132.322,27.441,131.986,27.819,131.474z"/>
	<path fill="#FFFFFF" d="M146.323,13.144c0.22,0.539,0.526,0.925,0.443,1.186c-0.091,0.284-0.544,0.453-0.839,0.673
		c-0.188-0.307-0.559-0.644-0.514-0.912C145.462,13.796,145.893,13.565,146.323,13.144z"/>
	<path fill="#FFFFFF" d="M94.342,539.453c-0.408,0.337-0.743,0.734-0.85,0.679c-0.303-0.154-0.555-0.468-0.728-0.775
		c-0.042-0.075,0.347-0.55,0.455-0.522C93.552,538.922,93.846,539.163,94.342,539.453z"/>
	<path fill="#FFFFFF" d="M238.577,579.38c-0.312,0.098-0.652,0.323-0.929,0.262c-0.31-0.068-0.633-0.352-0.803-0.631
		c-0.062-0.102,0.321-0.675,0.462-0.66c0.318,0.033,0.612,0.299,0.916,0.47C238.342,579.008,238.46,579.194,238.577,579.38z"/>
	<path fill="#FFFFFF" d="M80.298,52.665c0.263,0.382,0.594,0.657,0.552,0.852c-0.054,0.248-0.394,0.568-0.639,0.594
		c-0.184,0.02-0.585-0.38-0.578-0.582C79.64,53.286,79.978,53.054,80.298,52.665z"/>
	<path fill="#FFFFFF" d="M211.106,0.265c0.343,0.313,0.677,0.488,0.666,0.637c-0.02,0.272-0.245,0.528-0.385,0.791
		c-0.207-0.133-0.567-0.246-0.586-0.402C210.768,1.027,210.951,0.737,211.106,0.265z"/>
	<path fill="#FFFFFF" d="M68.001,66.742c-0.481,0.247-0.783,0.532-1.007,0.48c-0.209-0.048-0.416-0.441-0.46-0.71
		c-0.019-0.116,0.4-0.449,0.572-0.418C67.365,66.141,67.582,66.421,68.001,66.742z"/>
	<path fill="#FFFFFF" d="M53.784,499.397c0.309,0.381,0.539,0.588,0.643,0.845c0.027,0.067-0.349,0.424-0.522,0.411
		c-0.198-0.014-0.48-0.265-0.533-0.464C53.328,500.026,53.567,499.788,53.784,499.397z"/>
	<path fill="#FFFFFF" d="M105.738,552.576c0.298-0.197,0.613-0.462,0.656-0.424c0.204,0.182,0.334,0.448,0.49,0.683
		c-0.195,0.123-0.41,0.364-0.58,0.336C106.124,553.141,105.987,552.855,105.738,552.576z"/>
	<path fill="#FFFFFF" d="M14.416,433.756c0.256,0.275,0.545,0.454,0.53,0.602c-0.018,0.182-0.278,0.456-0.455,0.473
		c-0.17,0.017-0.484-0.219-0.519-0.388C13.941,434.287,14.198,434.073,14.416,433.756z"/>
	<path fill="#FFFFFF" d="M54.68,79.573c-0.369,0.28-0.549,0.524-0.737,0.53c-0.183,0.005-0.373-0.234-0.56-0.365
		c0.161-0.172,0.297-0.436,0.491-0.489C54.042,79.203,54.274,79.397,54.68,79.573z"/>
	<path fill="#FFFFFF" d="M93.335,39.956c0.108,0.235,0.185,0.401,0.261,0.567c-0.213,0.098-0.425,0.196-0.638,0.294
		c-0.052-0.177-0.184-0.384-0.132-0.522C92.879,40.158,93.116,40.092,93.335,39.956z"/>
	<path fill="#FFFFFF" d="M185.64,0.982c-0.144,0.226-0.243,0.38-0.342,0.535c-0.146-0.102-0.39-0.187-0.413-0.312
		c-0.027-0.147,0.137-0.329,0.219-0.496C185.261,0.789,185.418,0.869,185.64,0.982z"/>
	<path fill="#FFFFFF" d="M40.703,486.437c0.25,0.322,0.446,0.479,0.493,0.673c0.025,0.101-0.225,0.389-0.325,0.377
		c-0.213-0.026-0.408-0.193-0.611-0.302C40.375,486.992,40.489,486.799,40.703,486.437z"/>
	<path fill="#FFFFFF" d="M1.022,394.887c0.173-0.03,0.334-0.085,0.487-0.068c0.052,0.006,0.083,0.196,0.123,0.303
		c-0.155,0.052-0.307,0.118-0.466,0.14C1.141,395.266,1.088,395.065,1.022,394.887z"/>
	<path fill="#FFFFFF" d="M158.836,578.476c0.175,0.226,0.361,0.36,0.365,0.5c0.004,0.144-0.169,0.292-0.264,0.439
		c-0.125-0.123-0.325-0.231-0.352-0.372C158.558,578.906,158.711,578.736,158.836,578.476z"/>
	<path fill="#FFFFFF" d="M237.956,1.045c-0.206,0.066-0.374,0.152-0.547,0.16c-0.086,0.004-0.266-0.169-0.253-0.204
		c0.057-0.146,0.17-0.269,0.263-0.4C237.51,0.675,237.6,0.75,237.956,1.045z"/>
	<path fill="#FFFFFF" d="M106.632,27.022c-0.061,0.105-0.122,0.21-0.183,0.314c-0.128-0.101-0.256-0.202-0.384-0.303
		c0.093-0.079,0.185-0.216,0.28-0.219C106.44,26.812,106.537,26.947,106.632,27.022z"/>
	<path fill="#FFFFFF" d="M1.701,184.802c-0.088,0.08-0.175,0.159-0.263,0.238c-0.092-0.122-0.184-0.244-0.276-0.366
		c0.11-0.049,0.23-0.151,0.327-0.132C1.573,184.558,1.631,184.71,1.701,184.802z"/>
	<path fill="#FFFFFF" d="M14.57,145.045c0.084,0.087,0.168,0.174,0.253,0.26c-0.095,0.08-0.191,0.221-0.286,0.221
		c-0.087,0-0.174-0.153-0.261-0.238C14.372,145.209,14.468,145.13,14.57,145.045z"/>
	<path fill="#FFFFFF" d="M119.628,565.982c-0.052,0.109-0.104,0.218-0.156,0.327c-0.103-0.061-0.269-0.105-0.292-0.189
		c-0.025-0.089,0.086-0.216,0.137-0.326C119.421,565.857,119.524,565.919,119.628,565.982z"/>
	<polygon fill="#FFFFFF" points="40.657,92.609 40.733,92.75 40.575,92.744 	"/>
	<path fill="#FFFFFF" d="M228.933,63.279c0.167-0.63,0.331-1.26,0.535-2.034c-1.887,0.258-3.489,0.653-5.09,0.647
		c-1.54-0.006-3.078-0.427-4.889-0.707c0.161,0.725,0.265,1.295,0.416,1.853c0.998,3.708,0.277,6.972-2.672,9.527
		c-3.033,2.628-6.484,2.749-10.021,1.194c-3.551-1.561-5.575-6.023-4.673-10.031c0.192-0.852,0.43-1.694,0.689-2.704
		c-1.853,0.327-3.503,0.843-5.154,0.847c-1.598,0.004-3.197-0.518-5.101-0.865c0.233,0.808,0.432,1.493,0.628,2.18
		c1.135,3.976-0.265,7.853-3.645,10.1c-3.24,2.153-7.762,2.002-10.753-0.553c-2.644-2.259-3.694-5.208-3.077-8.677
		c0.154-0.865,0.392-1.715,0.652-2.832c-1.709,0.264-3.213,0.66-4.722,0.683c-1.548,0.024-3.102-0.318-4.824-0.52
		c0.039,0.464-0.009,0.935,0.128,1.344c1.008,3.024,0.498,5.811-1.216,8.439c-0.111,0.17-0.204,0.353-0.292,0.538
		c-0.088,0.185-0.171,0.374-0.262,0.557c0.676-0.33,1.358-0.649,2.027-0.992c5.494-2.817,11.615,0.073,12.903,6.095
		c1.028,4.811-2.687,9.685-7.893,10.356c-4.762,0.614-9.252-3.27-9.509-8.096c-0.139-2.602,0.693-4.839,2.063-6.954
		c-0.968,0.513-1.908,1.091-2.911,1.524c-2.377,1.027-4.787,1.084-7.197,0.057c-0.536-0.228-1.092-0.407-2.031-0.752
		c2.223,5.183,2.098,9.66-2.598,12.904c-3.095,2.138-6.554,2.198-9.712,0.204c-4.526-2.857-5.063-7.154-3.415-12.195
		c-1.714,0.373-3.144,0.881-4.593,0.945c-1.466,0.066-2.951-0.307-4.61-0.51c0.137,1.666,0.434,3.213,0.339,4.735
		c-0.092,1.472-0.587,2.919-0.979,4.712c0.74-0.239,1.345-0.446,1.956-0.629c5.711-1.709,11.319,2.012,11.788,7.816
		c0.29,3.586-1.75,7.037-5.119,8.656c-3.356,1.614-7.026,1.046-9.737-1.459c-2.942-2.719-3.732-5.948-2.409-9.715
		c0.175-0.499,0.319-1.01,0.532-1.693c-1.7,0.364-3.192,0.852-4.712,0.961c-1.537,0.111-3.101-0.154-4.833-0.265
		c0.133,1.741,0.451,3.363,0.323,4.949c-0.122,1.516-0.706,2.995-1.14,4.7c0.756-0.249,1.378-0.467,2.008-0.66
		c5.309-1.63,10.319,1.159,11.636,6.475c1.49,6.011-4.271,11.898-10.323,10.549c-5.3-1.181-8.06-5.805-6.734-11.29
		c0.173-0.715,0.374-1.423,0.594-2.258c-1.759,0.368-3.317,0.879-4.899,0.971c-1.536,0.089-3.097-0.252-4.782-0.417
		c0.187,1.73,0.572,3.345,0.472,4.929c-0.1,1.579-0.687,3.126-1.103,4.865c0.735-0.244,1.361-0.467,1.996-0.66
		c5.311-1.615,10.312,1.192,11.614,6.514c1.448,5.918-4.181,11.767-10.16,10.557c-5.393-1.091-8.258-5.805-6.897-11.358
		c0.173-0.708,0.382-1.407,0.618-2.267c-1.747,0.388-3.237,0.894-4.756,1.007c-1.475,0.11-2.981-0.183-4.707-0.318
		c0.102,1.616,0.362,3.156,0.25,4.67c-0.114,1.54-0.594,3.052-0.976,4.874c0.806-0.226,1.493-0.437,2.188-0.61
		c5.393-1.348,10.159,1.472,11.355,6.712c0.823,3.608-0.905,7.347-4.365,9.442c-3.134,1.898-7.227,1.551-9.978-0.846
		c-3.095-2.697-4.017-6.101-2.722-10.029c0.165-0.501,0.303-1.011,0.497-1.666c-1.696,0.359-3.192,0.839-4.715,0.953
		c-1.478,0.111-2.985-0.154-4.703-0.269c0.205,1.499,0.597,2.952,0.548,4.391c-0.051,1.475-0.534,2.936-0.887,4.701
		c0.675-0.127,1.259-0.149,1.775-0.347c3.697-1.416,8.211,0.738,10.247,3.824c2.021,3.063,1.768,7.284-0.615,10.422
		c-2.076,2.732-6.424,3.955-9.89,2.777c-0.647-0.22-1.286-0.463-1.938-0.668c-0.097-0.031-0.24,0.086-0.557,0.212
		c1.833,3.916,2.092,7.792-1.049,11.224c-3.128,3.417-6.986,3.697-11.323,2.078c0.288,1.995,0.803,3.725,0.71,5.421
		c-0.094,1.722-0.786,3.412-1.264,5.304c0.547-0.17,1.049-0.285,1.519-0.479c5.36-2.218,10.892,0.474,12.232,6.06
		c0.833,3.474-0.354,6.398-3.031,8.638c-2.77,2.316-5.954,2.783-9.245,1.264c-3.105-1.433-4.889-3.896-5.006-7.415
		c-0.055-1.665,0.104-3.288,0.87-4.808c0.141-0.279,0.186-0.607,0.298-0.989c-1.722,0.481-3.262,1.122-4.852,1.293
		c-1.521,0.163-3.094-0.163-4.962-0.296c0.697,2.972,1.137,5.862-0.549,9.08c1.294-0.206,2.003-0.276,2.691-0.435
		c3.865-0.895,6.904,0.497,9.224,3.506c2.103,2.728,2.414,5.856,0.999,8.944c-1.557,3.398-4.321,5.297-8.154,5.218
		c-1.551-0.032-3.094-0.407-4.746-0.641c0.285,1.722,0.864,3.502,0.791,5.255c-0.072,1.717-0.809,3.406-1.325,5.378
		c0.665-0.227,1.217-0.385,1.745-0.601c5.299-2.168,10.885,0.675,12.116,6.289c0.762,3.477-0.474,6.393-3.193,8.582
		c-2.813,2.264-6.006,2.663-9.269,1.09c-3.005-1.448-4.85-3.88-4.807-7.306c0.024-1.933,0.518-3.861,0.807-5.837
		c-1.32,0.409-2.767,1.044-4.275,1.27c-1.519,0.228-3.098,0.05-4.862,0.05c0.13,1.287,0.397,2.685,0.375,4.079
		c-0.021,1.349-0.339,2.693-0.538,4.117c0.714,0.525,1.428,0.046,2.119-0.075c5.057-0.885,9.656,2.11,10.73,7.012
		c1.33,6.069-3.702,11.629-9.939,10.967c-0.997-0.106-1.985-0.288-3.36-0.491c1.012,3.269,1.192,6.281-0.36,9.631
		c1.149-0.233,1.859-0.319,2.535-0.523c4.237-1.28,9.031,1.521,10.586,5.419c1.688,4.229,0.026,8.886-3.988,11.169
		c-2.086,1.187-4.304,1.265-6.586,0.784c-0.712-0.15-1.416-0.333-2.262-0.534c0.256,1.849,0.668,3.449,0.645,5.044
		c-0.024,1.609-0.48,3.212-0.796,5.111c0.643-0.153,1.216-0.215,1.73-0.423c4.007-1.625,8.483,0.724,10.466,3.675
		c2.085,3.103,1.911,7.556-0.694,10.562c-2.385,2.752-5.528,3.683-9.123,2.895c-0.6-0.132-1.188-0.32-1.788-0.455
		c-0.105-0.023-0.241,0.093-0.415,0.166c0.223,1.585,0.621,3.185,0.624,4.786c0.002,1.541-0.404,3.083-0.677,4.937
		c0.876-0.171,1.648-0.297,2.409-0.473c4.523-1.047,9.187,1.56,10.641,5.958c1.446,4.374-0.619,9.084-4.842,10.998
		c-1.958,0.887-3.991,0.881-6.047,0.412c-0.652-0.149-1.302-0.308-2.199-0.52c0.38,1.811,0.931,3.373,0.975,4.949
		c0.043,1.52-0.437,3.055-0.739,4.899c0.945-0.216,1.646-0.387,2.352-0.535c4.451-0.935,9.296,1.678,10.518,5.888
		c1.468,5.058-0.463,9.188-4.921,11.339c-1.747,0.842-3.608,0.7-5.459,0.517c-0.672-0.066-1.337-0.199-2.286-0.344
		c0.257,1.615,0.637,3.046,0.669,4.486c0.031,1.406-0.295,2.819-0.468,4.264c1.666,0,3.228-0.143,4.752,0.04
		c1.531,0.184,3.022,0.693,4.717,1.105c-0.141-0.54-0.275-0.967-0.361-1.403c-0.25-1.266-0.644-2.529-0.689-3.804
		c-0.166-4.629,2.528-7.415,6.59-8.506c4.11-1.104,8.057,0.837,9.973,4.671c1.607,3.215,1.217,6.309-0.925,9.086
		c-2.237,2.899-5.258,4.106-8.913,3.305c-1.108-0.243-2.168-0.707-3.291-1.084c0.483,1.881,1.242,3.633,1.301,5.409
		c0.059,1.767-0.584,3.558-0.974,5.629c5.031-2.137,9.353-1.399,12.447,3.092c1.978,2.872,2.09,6.135,0.279,9.159
		c-2.868,4.788-7.23,5.363-12.345,3.609c0.391,1.818,0.919,3.322,0.984,4.846c0.062,1.47-0.355,2.96-0.587,4.619
		c1.748-0.084,3.443-0.378,5.081-0.186c1.644,0.192,3.231,0.867,5.055,1.391c-1.518-2.863-2.067-5.769-1.034-8.787
		c0.627-1.833,2.028-3.099,3.584-4.125c3.218-2.123,7.672-1.642,10.689,1.058c2.684,2.402,3.435,6.582,1.838,10.011
		c-1.184,2.544-3.225,3.986-5.83,4.832c-2.608,0.848-4.938-0.157-7.364-1.235c0.533,2.084,1.284,3.839,1.35,5.62
		c0.063,1.715-0.581,3.456-0.971,5.479c0.686-0.217,1.297-0.415,1.912-0.604c6.46-1.996,12.427,2.727,11.934,9.446
		c-0.324,4.416-3.738,7.826-8.182,8.024c-1.55,0.069-3.114-0.166-4.866-0.274c0.245,1.46,0.605,2.834,0.671,4.221
		c0.063,1.347-0.177,2.708-0.299,4.262c1.484-0.093,2.892-0.315,4.281-0.228c1.343,0.084,2.665,0.485,4.039,0.756
		c0.537-0.996-0.046-1.817-0.196-2.641c-0.65-3.578,0.444-6.581,3.218-8.802c2.806-2.247,6.048-2.5,9.315-1.038
		c4.079,1.826,6.137,6.546,4.766,10.647c-1.501,4.49-6.036,7.105-10.554,6.08c-0.775-0.176-1.543-0.381-2.775-0.687
		c1.282,3.276,1.428,6.278,0.408,9.709c3.528-1.101,6.599-1.015,9.822,0.831c-0.165-0.901-0.249-1.329-0.32-1.759
		c-0.21-1.274-0.565-2.547-0.593-3.825c-0.074-3.38,1.377-6.034,4.411-7.555c3.091-1.549,6.257-1.447,9.204,0.475
		c3.575,2.331,4.864,7.067,3.06,10.904c-1.901,4.043-6.495,6.115-10.648,4.797c-0.701-0.222-1.398-0.458-2.346-0.77
		c0.433,1.837,1.012,3.383,1.109,4.959c0.098,1.601-0.279,3.231-0.46,4.959c0.254,0.024,0.525,0.118,0.761,0.062
		c2.81-0.667,5.566-0.748,8.22,0.634c0.212,0.111,0.5,0.076,1.035,0.145c-1.333-3.247-1.857-6.371-0.273-9.458
		c0.945-1.842,2.515-3.046,4.393-3.87c3.337-1.465,7.676-0.492,9.969,2.246c2.696,3.219,2.976,7.373,0.719,10.673
		c-2.671,3.907-6.382,4.712-12.549,2.658c0.471,1.721,1.186,3.363,1.304,5.046c0.116,1.654-0.375,3.35-0.622,5.196
		c1.607-0.169,3.268-0.551,4.902-0.459c1.671,0.094,3.315,0.654,5.087,1.035c0.299-0.678-0.289-1.216-0.46-1.827
		c-0.896-3.195-0.843-6.24,1.408-8.938c2.724-3.264,7.785-4.098,11.402-1.88c3.722,2.282,5.189,6.933,3.459,10.967
		c-1.703,3.971-6.192,6.161-10.363,5.017c-0.975-0.267-1.914-0.667-3.01-1.055c0.503,1.764,1.217,3.356,1.35,4.995
		c0.133,1.65-0.313,3.347-0.527,5.207c1.684-0.219,3.29-0.66,4.867-0.569c1.598,0.092,3.166,0.709,5.003,1.159
		c-0.184-0.652-0.349-1.201-0.493-1.755c-0.656-2.525-0.765-5.05,0.454-7.426c1.721-3.352,4.603-4.762,8.302-4.567
		c3.73,0.197,6.334,2.046,7.707,5.518c1.338,3.385,0.779,6.452-1.742,9.125c-2.616,2.774-5.728,3.599-9.364,2.41
		c-0.52-0.17-1.047-0.319-1.578-0.448c-0.106-0.026-0.244,0.082-0.415,0.146c0.36,1.498,0.926,2.99,1.026,4.512
		c0.1,1.53-0.264,3.091-0.461,4.983c3.166-0.85,6.173-0.923,9.497,0.651c-0.286-1.154-0.431-1.785-0.6-2.411
		c-1.179-4.356,0.693-8.668,4.599-10.582c3.98-1.95,8.709-0.788,11.357,2.889c1.869,2.596,2.099,5.443,0.917,8.404
		c-0.274,0.686-0.591,1.354-1.078,2.463c0.926-0.365,1.47-0.547,1.985-0.788c3.72-1.743,7.14-1.062,10.153,1.503
		c2.941,2.504,3.274,5.859,2.532,9.423c-0.123,0.59-0.341,1.16-0.602,2.025c1.847-0.353,3.472-0.917,5.091-0.902
		c1.657,0.015,3.309,0.596,5.205,0.978c-0.286-1.019-0.563-1.905-0.784-2.805c-0.838-3.419,0.597-7.239,3.466-9.277
		c3.033-2.154,6.885-2.252,10.071-0.257c3.071,1.924,4.669,5.299,4.048,8.803c-0.212,1.196-0.688,2.345-1.144,3.847
		c1.34-0.37,2.454-0.801,3.607-0.963c1.141-0.16,2.339-0.18,3.479-0.023c1.187,0.163,2.334,0.609,3.78,1.01
		c-0.325-1.081-0.601-1.9-0.818-2.733c-1.153-4.423,0.908-8.819,4.95-10.589c4.14-1.812,8.898-0.314,11.312,3.616
		c1.408,2.292,1.672,4.753,0.815,7.315c-0.233,0.697-0.502,1.381-0.926,2.54c3.79-1.571,7.239-1.805,10.676-0.078
		c0.425-0.926-0.107-1.497-0.31-2.096c-1.945-5.73,1.328-11.174,7.312-12.076c0.732-0.11,1.862-0.096,2.594,0.024
		c0.643,0.105,0.847,0.25,1.847,0.47v-10.07c-1,0.252-1.249,0.416-1.929,0.536c-4.429,0.778-9.117-2.72-9.461-7.207
		c-0.219-2.853,0.207-5.397,2.517-7.428c2.148-1.889,4.884-2.343,7.57-1.931c0.404,0.062,1.303,0.154,1.303,0.289v-11.187
		c-1,0.195-1.18,0.313-1.805,0.39c-5.415,0.667-9.612-3.159-9.149-8.536c0.349-4.046,4.698-7.386,8.741-6.928
		c0.873,0.099,1.213,0.277,2.213,0.592v-12.524c0,0.206-1.082,0.357-1.611,0.483c-3.782,0.9-8.011-1.894-8.66-5.848
		c-0.683-4.161,2.155-8.025,6.194-8.296c0.273-0.018,0.853-0.022,1.127-0.021c1.249,0.004,1.949,0.13,2.949,0.5v-13.854
		c-1,0.39-1.743,0.531-2.97,0.54c-3.821,0.027-6.965-3.05-6.751-6.814c0.213-3.742,3.795-6.583,7.514-6.205
		c0.843,0.086,1.208,0.286,2.208,0.639v-15.272c0,0.214-1.007,0.379-1.427,0.5c-2.367,0.687-5.096-0.194-6.487-2.234
		c-1.396-2.047-1.464-4.99-0.043-6.931c1.406-1.92,4.452-2.774,6.716-2.03c0.362,0.119,1.241,0.275,1.241,0.469v-16.968
		c-1,0.307-1.226,0.527-1.872,0.69c-2.09,0.527-4.433-0.432-5.604-2.402c-1.036-1.742-0.89-4.598,0.4-5.974
		c1.468-1.565,4.56-2.066,6.379-1.115c0.143,0.075,0.697,0.16,0.697,0.25v-18.673c-1,0.443-1.463,0.707-2.331,0.84
		c-2.245,0.345-4.42-0.937-5.07-3.139c-0.513-1.737,0.207-3.692,1.892-4.791c1.447-0.944,3.797-0.846,5.135,0.194
		c0.025,0.019,0.374,0.039,0.374,0.059v-20.27c-1,0.759-2.029,1.207-3.16,1.163c-2.038-0.079-3.698-1.68-3.695-3.793
		c0.004-2.29,1.713-3.756,3.971-3.758c1.115-0.001,1.883,0.344,2.883,0.976v-20.933c-1,0.751-2.008,1.197-3.129,1.164
		c-2.038-0.061-3.717-1.654-3.727-3.761c-0.01-2.293,1.681-3.764,3.942-3.787c1.128-0.011,1.913,0.333,2.913,0.972v-20.131
		c-1,0.38-1.277,0.634-1.961,0.793c-2.057,0.479-4.273-0.466-5.184-2.319c-0.906-1.842-0.503-4.197,1.092-5.395
		c1.02-0.766,2.497-1.145,3.786-0.95c0.853,0.129,1.266,0.403,2.266,0.857v-18.366c0,0.252-1.106,0.437-1.65,0.573
		c-2.101,0.523-4.147,0.02-5.54-1.646c-1.332-1.593-1.689-3.446-0.794-5.367c0.91-1.953,2.763-3.101,4.928-3.215
		c1.175-0.062,2.056,0.269,3.056,0.916v-16.853c0,0.196-0.927,0.354-1.285,0.482c-3.242,1.159-7.281-1.266-7.621-4.695
		c-0.451-4.545,2.944-7.538,7.257-6.683c0.583,0.116,0.649,0.278,1.649,0.516v-15.165c0,0.18-0.897,0.327-1.242,0.442
		c-2.44,0.811-5.743-0.232-7.28-2.419c-1.664-2.368-1.756-5.683-0.098-7.893c1.735-2.313,5.124-3.315,7.603-2.414
		c0.27,0.098,1.017,0.218,1.017,0.359v-13.658c-1,0.393-1.757,0.535-2.999,0.539c-4,0.015-7.432-3.125-7.516-7.078
		c-0.082-3.882,3.585-7.479,7.437-7.579c1.28-0.033,2.078,0.188,3.078,0.713v-12.285c0,0.196-1.104,0.34-1.657,0.465
		c-3.12,0.709-7.232-1.139-8.58-4.187c-1.262-2.853-1.305-5.748,0.601-8.388c1.763-2.443,4.549-3.358,7.485-3.12
		c0.817,0.066,1.151,0.214,2.151,0.49v-11.028c-1,0.236-1.245,0.38-1.925,0.475c-4.48,0.628-8.597-2.269-9.595-6.923
		c-0.898-4.189,1.67-8.513,5.909-9.605c1.103-0.284,2.607-0.405,3.739-0.315c0.681,0.054,0.872,0.174,1.872,0.389V74.27
		c0,0.179-1.101,0.294-1.655,0.375C232.691,75.62,227.203,69.816,228.933,63.279z M189.491,79.107
		c-0.025-4.949,3.759-8.784,8.595-8.881c4.344-0.087,9.039,3.975,8.656,8.791c0.32,4.484-3.783,8.633-8.567,8.609
		C193.266,87.602,189.515,83.943,189.491,79.107z M185.006,83.722c4.986,0.016,8.571,4.814,8.514,8.347
		c-0.075,4.634-3.923,8.571-8.55,8.511c-4.066-0.053-8.498-2.939-8.259-8.572C176.201,87.737,180.566,83.708,185.006,83.722z
		 M119.183,413.568c4.03,0.047,8.094,3.775,7.696,7.946c-0.052,4.557-3.235,7.645-7.854,7.619c-4.629-0.026-7.763-3.332-7.753-7.991
		C111.283,416.526,115.726,413.528,119.183,413.568z M105.864,416.261c-3.781-0.05-8.027-3.097-7.765-8.114
		c0.013-4.473,3.339-7.793,7.817-7.772c4.51,0.022,7.82,3.208,8.034,7.93C114.139,412.445,110.1,416.317,105.864,416.261z
		 M132.267,426.746c3.304-0.008,7.984,2.893,7.777,7.921c0.001,4.478-3.3,7.673-7.894,7.638c-4.544-0.035-7.715-3.276-7.686-7.856
		C124.49,430.315,128.114,426.755,132.267,426.746z M145.559,439.863c4.359,0.188,7.809,3.536,7.857,7.884
		c0.046,4.203-3.794,8.004-8.046,7.966c-4.326-0.039-7.767-3.56-7.745-7.924C137.361,443.617,141.473,439.687,145.559,439.863z
		 M171.775,440.281c4.785-0.089,7.642,4.398,7.688,7.355c0.066,4.203-3.477,7.756-7.722,7.738c-4.292-0.018-7.373-3.231-7.369-7.686
		C164.376,443.4,167.49,440.36,171.775,440.281z M158.682,453.044c4.521,0.031,8.136,3.666,8.045,8.093
		c-0.084,4.091-4.106,7.908-8.234,7.876c-3.31-0.025-8.015-3.128-7.751-8.154C150.988,456.179,154.027,453.012,158.682,453.044z
		 M171.907,465.904c3.985,0.082,8.344,3.877,8.05,8.225c-0.051,4.653-3.61,8.128-8.28,8.084c-4.623-0.043-8.162-3.684-8.072-8.301
		C163.688,469.638,167.658,465.817,171.907,465.904z M185.189,478.985c4.438,0.034,8.468,3.952,8.235,8.3
		c-0.277,5.176-3.665,8.309-8.618,8.376c-3.603,0.048-8.243-2.617-8.085-8.548C176.748,482.378,180.321,478.948,185.189,478.985z
		 M190.193,474.025c0.192-4.715,3.434-7.896,8.19-7.809c4.379-0.169,8,3.912,7.88,8.018c-0.131,4.488-3.814,8.006-8.27,7.951
		C194.564,482.143,189.991,478.984,190.193,474.025z M184.927,468.639c-4.468-0.072-7.773-3.316-7.759-7.616
		c0.013-4.367,3.538-7.917,7.824-7.879c4.293,0.038,7.766,3.604,7.738,7.945C192.701,465.367,189.249,468.709,184.927,468.639z
		 M190.737,447.797c-0.038-4.136,3.271-7.476,7.395-7.462c4.158,0.013,7.351,3.258,7.362,7.482c0.011,4.174-3.027,7.208-7.259,7.249
		C193.94,455.107,190.776,452.04,190.737,447.797z M185.08,441.781c-3.832,0.03-7.36-3.275-7.124-7.182
		c-0.029-4.133,2.773-7.012,6.873-7.06c4.011-0.047,7.365,3.116,7.394,6.975C192.252,438.41,188.999,441.75,185.08,441.781z
		 M165.974,434.573c0.038,4.12-3.103,7.157-7.259,7.354c-4.065,0.193-7.534-3.498-7.5-7.139c0.039-4.227,3.164-7.572,7.292-7.625
		C162.673,427.111,165.935,430.348,165.974,434.573z M145.258,428.701c-3.976-0.07-7.181-3.319-7.155-7.253
		c0.026-3.896,3.518-7.42,7.339-7.404c4.082,0.017,7.38,3.42,7.334,7.569C152.732,425.578,149.344,428.772,145.258,428.701z
		 M132.101,415.529c-3.978-0.063-7.192-3.308-7.169-7.238c0.023-3.9,3.506-7.542,7.323-7.389c4.761,0.19,7.322,3.634,7.35,7.524
		C139.567,412.391,136.184,415.594,132.101,415.529z M119.097,402.375c-4.197,0.007-7.388-3.107-7.381-7.203
		c0.007-4.222,3.251-7.533,7.373-7.526c4.171,0.008,7.369,3.267,7.369,7.508C126.459,399.25,123.279,402.369,119.097,402.375z
		 M105.808,389.512c-4.238-0.066-7.326-3.348-7.297-7.757c0.027-4.26,3.168-7.342,7.454-7.316c4.395-0.136,7.576,3.872,7.599,7.589
		C113.589,386.001,109.854,389.575,105.808,389.512z M92.659,376.451c-3.844,0.068-7.817-3.548-7.679-7.789
		c0.008-4.214,3.552-7.737,7.771-7.724c4.207,0.013,7.76,3.557,7.761,7.741C100.513,373.141,97.148,376.371,92.659,376.451z
		 M112.129,368.716c0.059-3.833,3.166-6.982,6.911-7.004c3.99-0.023,7.065,3.17,7.005,7.274c-0.057,3.87-2.933,6.647-6.863,6.625
		C114.995,375.589,112.068,372.727,112.129,368.716z M105.955,362.806c-3.961,0.03-7.258-3.215-7.226-7.154
		c0.034-4.101,3.224-7.395,7.12-7.166c4.039-0.326,7.447,3.524,7.405,6.95C113.206,359.478,110.001,362.776,105.955,362.806z
		 M92.631,349.924c-4.234-0.078-7.321-3.278-7.284-7.552c0.037-4.361,3.256-7.468,7.567-7.466c4.393,0.001,7.501,4.076,7.439,7.53
		C100.278,346.593,96.742,350,92.631,349.924z M79.686,336.927c-4.678,0.035-7.853-3.167-7.931-7.814
		c-0.079-4.732,4.344-7.704,7.734-7.751c4.187-0.059,8.063,3.799,7.916,7.77C87.233,333.724,84.255,336.893,79.686,336.927z
		 M98.956,329.264c0.027-3.84,3.101-7.012,6.848-7.068c3.991-0.06,7.105,3.115,7.071,7.209c-0.032,3.88-2.887,6.689-6.8,6.691
		C101.885,336.098,98.927,333.259,98.956,329.264z M92.676,323.324c-4.037-0.024-7.262-3.159-7.301-7.099
		c-0.042-4.155,3.253-7.548,7.346-7.563c4.049-0.015,7.363,3.257,7.382,7.288C100.122,320.228,96.978,323.35,92.676,323.324z
		 M79.408,310.589c-3.802,0.032-7.73-3.582-7.612-7.868c0.116-4.215,3.656-7.711,7.863-7.644c4.219,0.067,7.717,3.63,7.681,7.82
		C87.302,307.35,83.901,310.551,79.408,310.589z M85.415,289.9c-0.082-3.876,3.312-7.588,7.162-7.548
		c4.389,0.046,7.38,3.128,7.51,7.361c0.044,3.979-3.274,7.262-7.341,7.264C88.742,296.98,85.499,293.848,85.415,289.9z
		 M79.645,284.228c-4.482-0.033-7.816-3.225-7.855-7.521c-0.039-4.366,3.429-7.945,7.727-7.975c4.276-0.03,7.824,3.525,7.834,7.849
		C87.361,280.876,83.952,284.259,79.645,284.228z M85.374,263.5c-0.023-4.154,3.302-7.545,7.382-7.53
		c4.06,0.015,7.344,3.291,7.347,7.326c0.003,4.192-3.059,7.288-7.257,7.338C88.707,270.684,85.395,267.522,85.374,263.5z
		 M79.585,257.894c-4.65,0.001-7.802-3.26-7.83-7.915c-0.029-4.669,4.412-7.652,7.835-7.652c4.091,0,8.151,3.788,7.773,7.87
		C87.336,254.77,84.18,257.893,79.585,257.894z M98.957,250.142c0.07-3.843,3.18-6.973,6.934-6.98
		c3.991-0.007,7.051,3.191,6.981,7.297c-0.066,3.863-2.954,6.632-6.886,6.602C101.806,257.03,98.884,254.153,98.957,250.142z
		 M92.651,244.617c-4.237-0.056-7.336-3.336-7.313-7.742c0.022-4.265,3.155-7.287,7.438-7.349c4.403-0.063,7.582,3.875,7.616,7.591
		C100.428,241.09,96.701,244.67,92.651,244.617z M98.644,223.922c0.018-4.001,3.401-7.36,7.356-7.302
		c3.922,0.057,7.281,3.398,7.24,7.202c-0.044,4.04-3.342,7.288-7.376,7.264C101.866,231.061,98.627,227.846,98.644,223.922z
		 M92.569,218.374c-4.334-0.055-7.68-3.457-7.607-7.736c0.073-4.328,3.673-7.881,7.894-7.819c3.283,0.048,7.913,2.935,7.668,8.003
		C100.491,215.275,97.165,218.432,92.569,218.374z M112.114,210.735c-0.054-3.917,3.068-7.094,6.968-7.091
		c3.995,0.003,6.949,2.994,6.967,7.053c0.017,4.005-2.785,6.814-6.839,6.856C115.013,217.596,112.171,214.866,112.114,210.735z
		 M105.951,205.148c-4.245,0.031-7.409-3.208-7.441-7.619c-0.399-4.048,3.658-7.633,7.269-7.576
		c4.109,0.065,7.655,2.847,7.827,7.579C113.752,201.516,110.044,205.118,105.951,205.148z M111.702,184.156
		c0.035-4.054,3.275-7.257,7.355-7.269c4.151-0.013,7.424,3.249,7.412,7.386c0.035,4.807-3.388,7.439-7.496,7.47
		C114.923,191.772,111.666,188.291,111.702,184.156z M166.779,118.568c-0.039,4.327-3.7,7.992-8.041,7.978
		c-4.579-0.015-8.25-3.56-8.22-8.01c0.033-4.996,4.038-8.244,8.121-7.976C163.901,110.298,166.81,115.073,166.779,118.568z
		 M163.571,105.158c0.019-4.45,3.644-8.076,8.123-8.124c4.674-0.05,8.275,3.584,8.278,8.352c0.002,4.51-3.504,7.99-8.083,8.023
		C167.124,113.442,163.551,109.898,163.571,105.158z M164.163,131.632c0.096-4.662,3.284-7.528,7.53-7.487
		c4.395-0.025,7.747,3.095,7.819,7.279c0.071,4.137-3.468,7.789-7.623,7.865C167.684,139.366,164.075,135.891,164.163,131.632z
		 M166.178,144.837c0.005,4.033-3.385,7.488-7.486,7.484c-3.456-0.003-7.566-2.699-7.486-7.412
		c-0.011-4.248,3.126-7.513,7.276-7.569C162.616,137.285,166.173,140.75,166.178,144.837z M153.468,131.709
		c0.174,4.144-3.876,8.004-8.109,7.934c-3.762-0.062-7.928-3.091-7.768-8.137c0.141-4.464,3.383-7.768,7.865-7.752
		C149.994,123.804,153.272,127.021,153.468,131.709z M132.293,136.929c4.452,0.02,7.991,3.566,7.953,7.968
		c-0.035,4.142-3.77,7.827-7.956,7.851c-4.314,0.025-7.714-3.484-7.87-7.828C124.267,140.638,128.314,136.656,132.293,136.929z
		 M127.086,157.941c0.146,4.312-3.643,7.987-7.964,7.984c-4.387-0.003-7.823-3.416-7.844-7.79c-0.022-4.664,3.203-8.016,7.746-8.034
		C123.548,150.084,126.93,153.331,127.086,157.941z M114.037,171.105c0.071,4.147-3.975,8.125-8.198,8.117
		c-3.422-0.006-8.112-3.239-7.746-7.91c-0.015-4.847,3.138-8.078,7.864-8.058C110.415,163.271,113.962,166.718,114.037,171.105z
		 M124.87,171.303c0.057-4.224,3.211-7.561,7.331-7.585c4.174-0.024,7.406,3.216,7.429,7.449c0.023,4.114-3.131,7.129-7.299,7.315
		C128.331,178.661,124.82,175.004,124.87,171.303z M138.062,158.001c0.044-4.222,3.323-7.506,7.442-7.456
		c4.174,0.051,7.326,3.324,7.299,7.578c-0.027,4.086-3.228,7.166-7.431,7.15C141.191,165.258,138.019,162.102,138.062,158.001z
		 M164.82,157.907c0.087-3.919,3.341-7.074,7.167-6.948c3.911,0.129,6.827,3.294,6.747,7.323c-0.078,3.934-3.064,6.689-7.12,6.57
		C167.563,164.734,164.733,161.841,164.82,157.907z M191.351,157.955c0.051-3.938,2.817-6.647,6.782-6.641
		c3.891,0.005,6.881,2.865,6.899,6.596c0.017,3.712-3.225,6.925-6.965,6.9C194.355,164.786,191.302,161.67,191.351,157.955z
		 M185.019,152.05c-3.961,0.047-7.272-3.183-7.256-7.124c0.017-4.127,3.226-7.416,7.091-7.196c4.063-0.345,7.461,3.524,7.435,6.92
		C192.257,148.684,189.059,152.002,185.019,152.05z M190.724,131.807c-0.04-4.394,3.09-7.57,7.376-7.658
		c4.48-0.092,7.573,3.916,7.632,7.339c0.07,4.113-3.383,7.723-7.531,7.65C193.584,139.057,190.754,135.916,190.724,131.807z
		 M184.94,126.171c-4.644-0.008-7.798-3.286-7.806-7.937c-0.008-4.694,4.453-7.643,7.857-7.629c4.081,0.018,8.132,3.786,7.749,7.893
		C192.706,123.067,189.543,126.178,184.94,126.171z M189.969,105.371c-0.008-4.404,3.661-8.154,8.043-8.221
		c4.306-0.066,8.239,3.723,8.287,7.984c0.052,4.564-3.577,8.237-8.153,8.255C193.633,113.405,189.977,109.821,189.969,105.371z
		 M158.73,83.45c4.743,0.093,8.491,3.982,8.479,8.798c-0.012,4.922-3.628,8.421-8.68,8.399c-4.933,0.348-8.606-4.655-8.549-8.449
		C150.055,87.318,153.952,83.357,158.73,83.45z M145.427,96.977c4.906,0.002,8.547,3.549,8.58,8.361
		c0.031,4.509-3.856,8.429-8.379,8.448c-4.871,0.02-8.628-3.716-8.67-8.571C136.922,101.048,140.744,96.629,145.427,96.977z
		 M124.028,118.318c-0.27-4.742,4.245-8.374,8.402-8.195c4.557,0.196,8.536,3.962,8.33,8.45c-0.228,4.964-3.878,8.368-8.695,8.306
		C127.64,126.822,123.733,123.339,124.028,118.318z M110.848,131.443c0.092-4.728,3.63-8.156,8.497-8.111
		c4.435,0.041,8.462,3.974,8.218,8.318c-0.291,5.197-3.704,8.31-8.635,8.357C115.278,140.042,110.733,137.349,110.848,131.443z
		 M105.848,136.497c4.688-0.021,8.754,3.815,8.566,8.389c-0.196,4.764-3.542,8.221-8.459,8.341
		c-4.373,0.106-8.267-3.379-8.333-8.326C97.551,139.642,102.208,136.229,105.848,136.497z M84.269,157.946
		c-0.06-4.195,3.781-8.614,8.427-8.28c4.922-0.012,8.563,3.501,8.621,8.319c0.055,4.512-3.81,8.447-8.336,8.489
		C88.111,166.519,84.339,162.803,84.269,157.946z M70.948,171.181c0.106-4.804,3.872-8.684,8.594-8.697
		c4.722-0.013,8.581,3.85,8.633,8.643c0.054,4.949-3.507,8.522-8.523,8.554C74.511,180.088,70.864,174.963,70.948,171.181z
		 M84.595,184.252c0.095-4.437,3.819-8.105,8.191-8.069c4.337,0.036,8.16,3.859,8.136,8.136c-0.026,4.557-3.717,8.159-8.306,8.103
		C88.115,192.367,84.499,188.684,84.595,184.252z M71.351,197.654c-0.023-4.85,3.457-8.439,8.192-8.448
		c4.645-0.009,8.39,3.699,8.427,8.343c0.034,4.293-3.956,8.313-8.321,8.293C75.265,205.823,71.127,202.112,71.351,197.654z
		 M57.842,210.536c0.19-5.107,3.961-8.348,8.589-8.455c4.661-0.108,8.544,3.856,8.557,8.469c0.014,4.78-3.821,8.629-8.6,8.63
		C61.609,219.179,57.665,215.303,57.842,210.536z M71.641,223.81c0.165-4.722,3.391-7.935,8.133-7.869
		c4.453-0.185,8.025,3.91,7.941,7.961c-0.093,4.487-3.746,8.024-8.213,8.01C76.056,231.902,71.469,228.733,71.641,223.81z
		 M58.171,237.036c-0.031-4.763,3.516-8.335,8.257-8.315c4.583,0.019,8.496,3.778,8.42,8.326c-0.074,4.407-3.389,8.194-8.43,8.365
		C61.764,245.569,58.202,241.84,58.171,237.036z M44.607,250.103c0.005-4.796,3.853-8.616,8.652-8.589
		c4.795,0.027,8.598,3.863,8.581,8.655c-0.018,5.089-3.605,8.591-8.751,8.546C48.074,258.672,44.602,255.147,44.607,250.103z
		 M66.412,255.101c4.683,0.016,8.218,3.667,8.18,8.449c-0.036,4.494-3.576,7.925-8.178,7.926c-4.664,0.001-8.188-3.49-8.221-8.142
		C58.161,258.797,61.866,255.085,66.412,255.101z M44.641,276.493c-0.016-4.605,3.876-8.638,8.504-8.554
		c5.1,0.092,8.721,3.976,8.682,8.583c0.033,4.501-3.82,8.464-8.289,8.528C48.571,285.121,44.658,281.357,44.641,276.493z
		 M58.224,289.544c0.058-4.281,4.019-8.192,8.278-8.032c3.817,0.143,8.104,2.852,8.077,8.144c-0.022,4.667-3.564,8.169-8.239,8.146
		C61.658,297.779,58.161,294.221,58.224,289.544z M44.641,302.676c0.085-4.616,4.075-8.592,8.664-8.394
		c5.22,0.224,8.637,4.213,8.522,8.745c-0.033,4.487-3.946,8.362-8.451,8.368C48.438,311.401,44.552,307.521,44.641,302.676z
		 M58.206,316.107c0.025-4.49,3.833-8.436,8.217-8.289c4.431,0.149,8.18,3.252,8.168,8.261c0.017,4.487-3.533,8.041-8.076,8.085
		C61.841,324.209,58.181,320.66,58.206,316.107z M44.608,328.975c0.074-4.687,4.11-8.54,8.821-8.424
		c4.782,0.118,8.476,3.981,8.409,8.794c-0.07,5.041-3.707,8.488-8.863,8.402C48.146,337.667,44.531,333.876,44.608,328.975z
		 M58.144,342.558c0.12-4.856,3.441-8.425,8.178-8.458c4.611-0.032,8.513,3.744,8.517,8.243c0.004,4.522-3.83,8.346-8.39,8.412
		C62.189,350.817,58.037,346.907,58.144,342.558z M71.749,355.57c-0.241-5.307,4.271-8.018,7.812-7.932
		c4.595,0.111,8.258,3.541,8.111,8.032c-0.145,4.448-3.585,7.783-8.105,7.95C76.206,363.743,71.324,360.499,71.749,355.57z
		 M57.863,368.618c0.019-4.575,3.881-8.403,8.632-8.368c4.618,0.034,8.225,3.421,8.477,8.517c0.045,4.567-3.854,8.445-8.521,8.476
		C61.715,377.275,57.843,373.387,57.863,368.618z M79.313,390.064c-4.533-0.249-8.004-3.662-7.959-8.191
		c0.047-4.738,3.63-8.255,8.4-8.243c4.534,0.011,8.073,3.703,8.021,8.365C88.048,386.226,84.036,390.323,79.313,390.064z
		 M84.65,395.229c-0.063-4.567,3.414-8.042,8.053-8.05c5.374-0.283,8.215,4.526,8.214,7.933c-0.002,4.33-3.625,8.029-7.966,8.053
		C88.365,403.19,84.711,399.697,84.65,395.229z M70.986,408.174c0.01-4.606,3.929-8.626,8.545-8.513
		c5.137,0.126,8.702,4.044,8.641,8.625c0.016,4.498-3.854,8.44-8.331,8.487C74.877,416.825,70.975,413.036,70.986,408.174z
		 M84.511,421.265c-0.325-4.724,4.247-8.252,8.361-8.226c4.729,0.029,8.512,4.439,8.407,8.607c-0.113,4.465-4.082,8.34-8.59,8.238
		C88.518,429.789,84.237,426.798,84.511,421.265z M97.688,434.586c-0.019-4.677,3.439-8.217,8.086-8.281
		c4.673-0.064,8.698,3.743,8.591,8.361c-0.106,4.546-3.576,8.203-8.464,8.331C101.233,443.119,97.707,439.402,97.688,434.586z
		 M110.866,447.901c-0.012-4.854,3.442-8.41,8.181-8.422c4.611-0.012,8.504,3.788,8.481,8.278c-0.023,4.527-3.875,8.334-8.426,8.376
		C114.867,456.174,110.588,452.282,110.866,447.901z M124.032,460.833c0.018-4.657,3.529-8.167,8.185-8.183
		c4.666-0.016,8.681,3.869,8.491,8.458c-0.199,4.814-3.945,8.219-8.561,8.22C128.577,469.329,123.901,466.742,124.032,460.833z
		 M137.133,474.012c-0.027-4.812,4.349-8.583,8.37-8.208c4.771-0.317,8.535,4.327,8.466,8.474c-0.074,4.458-4.015,8.359-8.535,8.295
		C141.266,482.514,137.164,479.517,137.133,474.012z M150.049,487.143c0.199-5.114,3.979-8.343,8.6-8.444
		c4.661-0.102,8.538,3.866,8.546,8.48c0.008,4.781-3.831,8.623-8.611,8.618C153.805,495.792,149.864,491.907,150.049,487.143z
		 M171.809,509.228c-4.768,0.032-8.633-3.798-8.664-8.586c-0.032-4.95,3.735-8.858,8.566-8.886c4.788-0.028,8.789,3.887,8.874,8.684
		C180.669,505.106,176.584,509.196,171.809,509.228z M198.195,508.988c-5.104,0.402-8.684-4.643-8.694-8.301
		c-0.014-4.878,3.799-8.888,8.598-8.896c4.724-0.008,8.577,3.856,8.626,8.65C206.776,505.389,203.213,508.959,198.195,508.988z
		 M233.08,500.538c-0.053,5.065-3.681,8.531-8.847,8.451c-4.99-0.077-8.44-3.658-8.387-8.707c0.051-4.79,3.952-8.579,8.746-8.494
		C229.394,491.873,233.13,495.725,233.08,500.538z M211.262,495.686c-4.671,0.109-8.183-3.607-8.196-8.427
		c-0.013-4.674,3.453-8.209,8.103-8.264c4.672-0.056,8.697,3.764,8.574,8.377C219.621,491.962,216.108,495.573,211.262,495.686z
		 M232.632,474.195c0.013,4.407-3.697,8.031-8.207,8.016c-4.532-0.014-8.041-3.543-8.083-8.13c-0.041-4.341,3.812-8.157,8.181-8.103
		C228.9,466.032,232.619,469.8,232.632,474.195z M219.061,460.798c0.044,4.46-3.279,7.749-7.748,7.849
		c-4.755,0.106-7.75-4.32-7.784-7.704c-0.041-4.096,3.567-7.763,7.702-7.797C215.42,453.111,219.019,456.629,219.061,460.798z
		 M232.038,447.756c0.038,4.102-3.508,7.664-7.645,7.526c-3.688-0.124-7.451-2.999-7.334-7.572c0.108-4.228,3.279-7.432,7.448-7.407
		C228.551,440.328,232.001,443.742,232.038,447.756z M218.498,434.565c-0.042,3.724-3.392,7.124-7.124,7.143
		c-3.477,0.018-7.25-2.877-7.067-7.007c-0.011-4.221,2.917-7.195,7.048-7.159C215.229,427.576,218.539,430.831,218.498,434.565z
		 M231.374,421.326c0.042,3.709-3.188,6.938-6.933,6.93c-3.709-0.008-6.773-3.106-6.75-6.826c0.024-3.922,2.804-6.667,6.756-6.671
		C228.348,414.755,231.332,417.584,231.374,421.326z M198.175,414.752c3.828,0.143,6.865,3.106,6.776,6.836
		c-0.083,3.458-3.414,6.654-6.896,6.616c-3.708-0.04-6.541-2.997-6.508-6.794C191.288,417.427,195.208,414.641,198.175,414.752z
		 M178.722,421.367c0.007,3.952-2.908,6.894-6.859,6.923c-4.021,0.029-7.051-2.991-7.025-7.002c0.024-3.598,3.253-6.803,6.888-6.835
		C175.449,414.421,178.715,417.648,178.722,421.367z M217.781,408.343c-0.027,3.369-3.093,6.367-6.524,6.326
		c-3.639-0.043-6.138-2.698-6.134-6.517c0.004-3.627,2.551-6.061,6.207-6.159C215.151,401.89,217.805,405.445,217.781,408.343z
		 M191.449,408.037c0.104,3.593-2.755,6.567-6.38,6.638c-3.599,0.07-6.568-2.82-6.597-6.425c-0.028-3.397,2.962-6.434,6.385-6.487
		C188.274,401.709,191.351,404.638,191.449,408.037z M165.496,408.353c0.002,3.569-3.298,6.737-6.959,6.736
		c-3.43-0.002-6.769-2.928-6.515-6.987c0.019-3.922,2.686-6.53,6.645-6.498C162.585,401.635,165.493,404.509,165.496,408.353z
		 M230.573,395.055c0.065,3.357-2.553,6.035-5.921,6.055c-3.571,0.021-6.288-2.549-6.281-5.943c0.006-3.34,2.802-6.155,6.153-6.198
		C227.624,388.93,230.51,391.833,230.573,395.055z M198.124,401.085c-3.207,0.007-5.941-2.839-5.904-6.148
		c0.036-3.343,2.555-5.729,5.996-5.681c3.45,0.048,6.063,2.681,5.97,6.014C204.098,398.394,201.3,401.078,198.124,401.085z
		 M178.112,395.273c-0.058,3.149-3.133,6.098-6.348,6.108c-2.993,0.009-6.347-2.679-6.14-6.393c0.014-3.542,2.555-6.088,6.099-6.111
		C175.314,388.854,178.177,391.72,178.112,395.273z M152.293,394.955c0.045,3.593-3.148,6.859-6.753,6.907
		c-3.765,0.051-6.664-2.89-6.689-6.786c-0.025-3.95,2.546-6.596,6.457-6.644C149.244,388.385,152.245,391.187,152.293,394.955z
		 M216.951,381.99c-0.014,2.946-2.762,5.57-5.772,5.513c-2.963-0.056-5.54-2.653-5.503-5.546c0.04-3.181,2.444-5.544,5.653-5.558
		C214.447,376.385,216.966,378.889,216.951,381.99z M190.648,382.046c-0.021,3.112-2.499,5.494-5.713,5.492
		c-3.106-0.002-5.695-2.55-5.67-5.581c0.027-3.23,2.594-5.822,5.731-5.786C188.136,376.207,190.67,378.841,190.648,382.046z
		 M164.729,381.795c0.014,3.516-2.518,6.106-6.018,6.156c-3.609,0.052-6.238-2.546-6.225-6.151c0.011-3.117,2.91-6.009,6.056-6.042
		C161.996,375.722,164.716,378.376,164.729,381.795z M139.17,381.739c0.077,3.702-3.127,6.969-6.865,7
		c-3.708,0.031-6.8-3.031-6.822-6.756c-0.023-3.911,2.76-6.715,6.688-6.741C136.092,375.217,139.092,378.002,139.17,381.739z
		 M229.734,368.878c-0.095,2.971-2.312,5.071-5.328,5.047c-2.94-0.023-5.235-2.304-5.21-5.178c0.025-2.947,2.481-5.395,5.354-5.338
		C227.53,363.47,229.829,365.895,229.734,368.878z M198.167,373.871c-2.908,0.035-4.982-2.094-4.974-5.103
		c0.009-3.167,1.862-5.049,4.957-5.033c2.853,0.015,5.21,2.292,5.185,5.009C203.31,371.461,200.914,373.838,198.167,373.871z
		 M177.4,368.678c0.025,3.032-2.609,5.63-5.679,5.603c-3.04-0.027-5.251-2.284-5.284-5.393c-0.035-3.289,2.1-5.542,5.274-5.564
		C174.646,363.303,177.377,365.874,177.4,368.678z M145.698,362.539c3.505,0.153,6.091,2.993,5.96,6.546
		c-0.122,3.306-3.099,6.009-6.439,5.845c-3.446-0.169-6.026-2.938-5.921-6.355C139.409,364.953,142.133,362.384,145.698,362.539z
		 M216.061,355.613c-0.015,2.405-2.412,4.709-4.85,4.665c-2.522-0.046-4.408-2.052-4.422-4.704
		c-0.014-2.611,1.917-4.567,4.508-4.568C214.016,351.005,216.077,352.998,216.061,355.613z M189.805,355.56
		c-0.039,2.831-2.18,4.865-5.031,4.778c-2.705-0.082-4.753-2.269-4.653-4.966c0.093-2.484,2.363-4.663,4.842-4.647
		C187.578,350.742,189.841,353.003,189.805,355.56z M164.228,355.499c0.03,3.03-2.601,5.633-5.671,5.61
		c-3.04-0.022-5.249-2.271-5.291-5.387c-0.045-3.283,2.094-5.545,5.266-5.57C161.469,350.128,164.2,352.692,164.228,355.499z
		 M138.747,355.634c-0.016,3.369-3.075,6.381-6.503,6.346c-3.646-0.037-6.153-2.684-6.155-6.497
		c-0.002-3.631,2.535-6.154,6.188-6.156C136.117,349.114,138.76,352.753,138.747,355.634z M228.887,342.442
		c0.019,2.324-1.911,4.249-4.32,4.31c-2.469,0.062-4.475-1.856-4.518-4.322c-0.042-2.393,2.017-4.467,4.431-4.464
		C226.898,337.969,228.867,339.969,228.887,342.442z M198.11,346.346c-2.437,0-4.131-1.741-4.044-4.154
		c0.082-2.244,1.921-3.96,4.169-3.889c2.327,0.074,3.97,1.788,3.925,4.094C202.113,344.751,200.476,346.346,198.11,346.346z
		 M176.607,342.438c0.022,2.423-2.303,4.725-4.751,4.704c-2.679-0.023-4.86-2.198-4.836-4.823c0.024-2.614,2.088-4.655,4.721-4.67
		C174.405,337.635,176.583,339.778,176.607,342.438z M151.131,342.497c-0.007,3.118-2.47,5.513-5.681,5.524
		c-3.106,0.011-5.71-2.522-5.703-5.548c0.008-3.231,2.558-5.835,5.699-5.819C148.585,336.67,151.138,339.294,151.131,342.497z
		 M125.835,342.432c0.037,3.541-3.079,6.636-6.713,6.668c-3.724,0.033-6.555-2.83-6.599-6.67c-0.041-3.641,2.761-6.562,6.383-6.655
		C122.611,335.682,125.797,338.742,125.835,342.432z M214.859,329.284c-0.085,1.895-1.766,3.465-3.66,3.419
		c-1.835-0.045-3.446-1.623-3.458-3.388c-0.013-1.953,1.725-3.671,3.681-3.638C213.329,325.709,214.943,327.403,214.859,329.284z
		 M188.892,329.339c-0.06,1.913-2.002,3.769-3.948,3.772c-2.059,0.003-3.674-1.709-3.663-3.885c0.012-2.374,1.368-3.753,3.683-3.742
		C187.272,325.495,188.961,327.153,188.892,329.339z M163.582,329.425c-0.064,2.677-2.41,4.845-5.146,4.754
		c-2.787-0.092-4.786-2.266-4.718-5.129c0.064-2.658,2.411-4.84,5.138-4.776C161.571,324.339,163.65,326.605,163.582,329.425z
		 M138.329,329.267c0.028,3.277-2.687,5.945-6.062,5.96c-3.312,0.015-6.063-2.719-6.04-6.001c0.023-3.286,2.78-6.004,6.068-5.984
		C135.608,323.262,138.302,325.951,138.329,329.267z M227.953,316.118c-0.036,1.896-1.721,3.434-3.658,3.338
		c-1.914-0.094-3.15-1.547-3.063-3.599c0.08-1.897,1.428-3.168,3.313-3.124C226.374,312.775,227.986,314.377,227.953,316.118z
		 M198.036,318.925c-1.485-0.046-2.657-1.288-2.676-2.836c-0.019-1.565,1.299-2.895,2.858-2.885c1.585,0.01,2.822,1.312,2.791,2.938
		C200.981,317.681,199.599,318.974,198.036,318.925z M175.809,316.014c0,2.339-1.647,3.973-4.016,3.986
		c-2.299,0.013-3.986-1.541-4.049-3.728c-0.065-2.244,1.881-4.314,4.051-4.31C174.043,311.966,175.81,313.749,175.809,316.014z
		 M150.722,316.199c-0.027,2.907-2.294,5.07-5.308,5.067c-3.073-0.003-5.301-2.25-5.275-5.318c0.025-2.944,2.249-5.177,5.204-5.225
		C148.447,310.672,150.751,313.019,150.722,316.199z M119.294,309.798c3.591,0.023,6.334,2.844,6.272,6.452
		c-0.059,3.469-3.041,6.278-6.597,6.216c-3.496-0.061-6.303-2.995-6.292-6.549C112.686,313.034,115.246,309.547,119.294,309.798z
		 M99.056,303.013c-0.022-3.9,2.975-6.944,6.843-6.948c3.761-0.004,6.898,3.013,6.93,6.665c0.034,3.802-3.042,6.935-6.851,6.977
		C102.295,309.748,99.077,306.636,99.056,303.013z M213.566,302.849c0.017,1.208-0.934,2.194-2.169,2.248
		c-1.293,0.057-2.391-1.011-2.343-2.28c0.042-1.111,1.153-2.155,2.309-2.17C212.566,300.632,213.549,301.613,213.566,302.849z
		 M188.011,302.667c0.089,1.541-1.302,3.081-2.876,3.184c-1.595,0.104-2.958-1.238-3.004-2.958
		c-0.046-1.715,1.042-2.846,2.764-2.872C186.536,299.995,187.925,301.174,188.011,302.667z M163.279,303.117
		c-0.091,2.392-2.336,4.46-4.78,4.401c-2.54-0.061-4.428-2.082-4.383-4.693c0.046-2.609,2-4.543,4.553-4.505
		C161.142,298.357,163.371,300.676,163.279,303.117z M138.184,302.906c0.045,3.115-2.769,5.895-5.923,5.851
		c-3.275-0.046-5.75-2.625-5.742-5.984c0.007-3.175,2.566-5.705,5.757-5.691C135.588,297.096,138.137,299.609,138.184,302.906z
		 M227.481,289.707c-0.009,1.512-1.592,3.025-3.109,2.972c-1.527-0.054-2.746-1.429-2.7-3.047c0.048-1.707,1.22-2.832,2.897-2.781
		C226.211,286.9,227.491,288.155,227.481,289.707z M198.054,291.505c-1.08-0.03-1.833-0.786-1.795-1.802
		c0.041-1.067,1.016-1.98,2.009-1.883c0.917,0.09,1.723,1.037,1.7,1.995C199.944,290.816,199.13,291.534,198.054,291.505z
		 M175.629,289.882c-0.064,1.963-2.002,3.737-3.967,3.63c-2.076-0.112-3.621-1.863-3.53-4.001c0.084-1.978,1.812-3.562,3.799-3.484
		C174.04,286.111,175.695,287.836,175.629,289.882z M150.677,289.69c0.038,2.852-2.326,5.193-5.248,5.197
		c-2.859,0.004-5.162-2.212-5.205-5.007c-0.043-2.776,2.423-5.383,5.132-5.426C148.042,284.41,150.64,286.967,150.677,289.69z
		 M125.538,289.675c-0.045,3.431-3.04,6.396-6.461,6.396c-3.592,0-6.153-2.606-6.153-6.262c0-3.702,2.477-6.297,6.053-6.341
		C122.503,283.423,125.581,286.336,125.538,289.675z M99.026,276.381c0.067-3.638,3.289-6.783,6.919-6.754
		c3.771,0.03,6.905,3.195,6.901,6.97c-0.004,3.743-3.046,6.783-6.789,6.783C102.067,283.381,98.954,280.282,99.026,276.381z
		 M213.612,276.471c0.017,1.344-0.928,2.288-2.303,2.302c-1.373,0.014-2.346-0.914-2.357-2.25c-0.011-1.302,0.997-2.325,2.304-2.339
		C212.56,274.17,213.596,275.176,213.612,276.471z M188.061,276.638c-0.006,1.632-1.354,2.935-3.063,2.961
		c-1.741,0.027-3.152-1.408-3.089-3.142c0.061-1.684,1.394-2.884,3.143-2.83C186.752,273.679,188.067,274.996,188.061,276.638z
		 M163.332,276.509c-0.029,2.511-2.279,4.7-4.794,4.666c-2.603-0.036-4.47-1.995-4.426-4.643c0.044-2.648,1.968-4.584,4.532-4.558
		C161.081,271.998,163.359,274.202,163.332,276.509z M138.185,276.672c-0.025,3.042-2.745,5.72-5.829,5.741
		c-3.255,0.022-5.804-2.551-5.837-5.89c-0.031-3.189,2.477-5.752,5.662-5.786C135.577,270.701,138.213,273.306,138.185,276.672z
		 M228.031,263.183c0.046,1.895-1.524,3.572-3.422,3.655c-1.908,0.084-3.663-1.508-3.694-3.352c-0.033-1.953,1.684-3.682,3.646-3.67
		C226.379,259.828,227.987,261.388,228.031,263.183z M198.167,266.422c-1.665,0.025-3.029-1.271-3.088-2.936
		c-0.059-1.672,1.221-2.99,2.944-3.031c1.732-0.041,3.09,1.15,3.204,2.809C201.343,264.973,199.967,266.395,198.167,266.422z
		 M176.04,263.338c0.055,2.049-2.079,4.207-4.202,4.251c-2.174,0.045-4.077-1.905-4.124-4.224c-0.048-2.436,1.577-4.078,4.087-4.128
		C174.076,259.193,175.979,261.034,176.04,263.338z M150.732,263.528c-0.088,2.956-2.325,5.067-5.352,5.05
		c-3.07-0.016-5.296-2.295-5.245-5.367c0.05-3.002,2.4-5.24,5.471-5.211C148.535,258.029,150.823,260.496,150.732,263.528z
		 M125.589,263.351c-0.019,3.604-2.958,6.471-6.591,6.428c-3.516-0.041-6.361-2.905-6.388-6.429
		c-0.026-3.475,3.121-6.569,6.594-6.483C122.66,256.952,125.607,259.945,125.589,263.351z M214.918,250.253
		c-0.04,2.171-1.456,3.503-3.696,3.475c-2.152-0.027-3.531-1.344-3.554-3.394c-0.024-2.134,1.656-3.873,3.696-3.824
		C213.342,246.557,214.954,248.255,214.918,250.253z M188.96,250.351c-0.033,2.18-1.696,3.764-3.975,3.786
		c-2.292,0.021-4.007-1.665-4.037-3.97c-0.027-2.019,1.83-3.932,3.881-3.996C187.01,246.102,188.993,248.109,188.96,250.351z
		 M163.703,250.272c-0.036,2.547-2.526,4.969-5.109,4.969c-2.691,0-4.923-2.296-4.893-5.032c0.033-2.956,2-4.974,4.864-4.99
		C161.422,245.203,163.742,247.485,163.703,250.272z M138.35,250.09c0.027,3.408-2.711,6.129-6.143,6.106
		c-3.358-0.022-5.965-2.639-6.012-6.034c-0.044-3.184,2.802-6.042,6.031-6.056C135.442,244.092,138.325,246.908,138.35,250.09z
		 M228.914,236.97c-0.018,2.681-1.868,4.469-4.562,4.408c-2.401-0.054-4.315-1.944-4.337-4.283c-0.025-2.559,1.996-4.616,4.498-4.58
		C226.959,232.551,228.93,234.547,228.914,236.97z M198.109,241.316c-2.394-0.001-4.07-1.727-4.07-4.194
		c-0.001-2.549,1.56-4.214,3.988-4.255c2.407-0.041,4.429,1.849,4.449,4.157C202.495,239.287,200.43,241.317,198.109,241.316z
		 M176.633,236.902c0.018,2.839-2.075,4.916-4.924,4.886c-2.727-0.029-4.792-2.138-4.761-4.86c0.029-2.488,2.235-4.702,4.736-4.753
		C174.28,232.121,176.616,234.354,176.633,236.902z M151.147,236.957c-0.012,3.408-2.25,5.658-5.658,5.688
		c-3.435,0.03-5.794-2.235-5.782-5.551c0.012-3.268,2.638-5.875,5.892-5.849C148.551,231.269,151.158,233.953,151.147,236.957z
		 M125.881,236.917c0.004,3.564-3.1,6.846-6.587,6.827c-3.046-0.017-6.856-1.978-6.789-6.663c0.054-3.786,2.853-6.699,6.545-6.712
		C122.635,230.356,125.877,233.464,125.881,236.917z M216.127,223.846c0.018,2.587-2.238,4.788-4.884,4.766
		c-2.507-0.021-4.759-2.253-4.747-4.705c0.012-2.646,2.217-4.904,4.788-4.903C213.903,219.004,216.109,221.21,216.127,223.846z
		 M189.829,223.975c-0.014,2.808-1.948,4.665-4.867,4.674c-2.914,0.009-4.893-1.972-4.893-4.898c0.001-2.588,2.27-4.833,4.879-4.828
		C187.617,218.929,189.842,221.232,189.829,223.975z M164.261,223.915c-0.012,2.867-2.627,5.463-5.561,5.52
		c-3.043,0.06-5.749-2.563-5.715-5.54c0.035-3.181,2.437-5.547,5.647-5.564C161.753,218.315,164.275,220.816,164.261,223.915z
		 M138.761,223.834c-0.02,3.524-2.838,6.362-6.386,6.429c-3.6,0.068-6.566-2.824-6.592-6.429c-0.025-3.397,2.966-6.432,6.39-6.483
		C135.679,217.298,138.78,220.35,138.761,223.834z M229.923,210.638c-0.039,3.064-2.479,5.447-5.533,5.403
		c-2.806-0.04-5.228-2.466-5.24-5.251c-0.014-3.158,2.32-5.543,5.383-5.499C227.474,205.333,229.959,207.798,229.923,210.638z
		 M192.878,210.625c-0.019-2.588,2.474-5.127,5.112-5.206c2.857-0.086,5.351,2.262,5.398,5.081c0.048,2.894-2.204,5.259-5.099,5.354
		C195.299,215.952,192.9,213.634,192.878,210.625z M177.454,210.498c0.043,3.004-2.529,5.683-5.535,5.767
		c-3.103,0.086-5.806-2.57-5.795-5.695c0.01-2.88,2.6-5.483,5.532-5.562C174.702,204.927,177.411,207.492,177.454,210.498z
		 M151.811,210.763c-0.079,3.355-3.049,6.215-6.42,6.207c-2.982-0.008-6.321-2.692-6.111-6.397c0.015-3.605,2.592-6.118,6.28-6.126
		C148.928,204.44,151.889,207.432,151.811,210.763z M125.37,197.516c-0.041-3.696,3.255-6.977,6.955-6.923
		c3.777,0.055,6.888,3.229,6.866,7.006c-0.022,3.744-3.079,6.765-6.825,6.747C128.454,204.327,125.413,201.359,125.37,197.516z
		 M216.993,197.626c-0.017,3.113-2.491,5.498-5.706,5.5c-3.104,0.002-5.703-2.548-5.677-5.572c0.027-3.239,2.582-5.827,5.722-5.795
		C214.472,191.79,217.011,194.421,216.993,197.626z M190.664,197.41c0.001,3.413-2.226,5.676-5.627,5.718
		c-3.435,0.042-5.811-2.214-5.814-5.521c-0.003-3.27,2.605-5.885,5.863-5.878C188.038,191.735,190.663,194.409,190.664,197.41z
		 M164.943,197.601c-0.002,3.212-3.195,6.262-6.469,6.195c-2.938-0.06-6.205-2.7-6.04-6.512c0.152-3.515,2.691-6.032,6.237-5.992
		C162.177,191.333,164.945,194.116,164.943,197.601z M138.575,184.544c-0.082-3.889,2.887-6.977,6.757-7.03
		c3.757-0.051,6.935,2.933,7.013,6.583c0.081,3.797-2.963,6.97-6.769,7.059C141.902,191.242,138.651,188.172,138.575,184.544z
		 M230.593,184.282c-0.021,3.508-2.577,6.063-6.086,6.085c-3.526,0.022-6.18-2.549-6.178-5.983c0.003-3.583,2.704-6.308,6.205-6.258
		C228.004,178.175,230.614,180.827,230.593,184.282z M198.164,190.35c-3.566-0.052-6.226-2.69-6.134-6.083
		c0.091-3.342,2.966-6.112,6.292-6.061c3.091,0.048,5.915,3.028,5.909,6.235C204.225,187.789,201.545,190.399,198.164,190.35z
		 M178.227,184.092c0.095,3.474-2.964,6.6-6.461,6.6c-3.505,0-6.079-2.535-6.151-6.058c-0.078-3.823,2.397-6.501,6.051-6.546
		C175.107,178.046,178.137,180.819,178.227,184.092z M158.511,177.997c-3.92-0.131-6.89-3.202-6.795-7.026
		c0.092-3.722,3.486-6.906,7.156-6.714c3.818,0.2,6.788,3.41,6.66,7.199C165.405,175.197,162.265,178.122,158.511,177.997z
		 M178.421,170.999c0.035-3.469,2.949-6.364,6.452-6.409c3.593-0.046,6.594,2.874,6.612,6.431c0.017,3.616-2.842,6.538-6.443,6.583
		C181.342,177.652,178.383,174.7,178.421,170.999z M217.814,171.232c-0.007,3.457-2.972,6.386-6.437,6.358
		c-3.696-0.03-6.642-2.902-6.588-6.423c0.055-3.574,3.058-6.552,6.56-6.507C214.998,164.707,217.822,167.578,217.814,171.232z
		 M231.397,157.929c0.058,3.851-2.987,6.898-6.909,6.913c-3.817,0.015-6.876-2.934-6.939-6.691
		c-0.063-3.763,3.104-7.081,6.818-7.144C228.05,150.947,231.341,154.187,231.397,157.929z M218.568,144.783
		c-0.009,3.915-3.28,7.147-7.228,7.228c-3.422,0.069-7.403-3.118-7.04-7.262c-0.003-4.193,2.756-6.98,6.933-7.002
		C215.264,137.726,218.578,140.904,218.568,144.783z M232.155,131.681c-0.077,4.158-3.529,7.558-7.699,7.559
		c-4.29,0-7.39-3.212-7.395-7.66c-0.004-4.293,3.096-7.339,7.377-7.433C229.329,124.039,232.21,128.71,232.155,131.681z
		 M219.075,118.617c-0.034,4.453-3.359,7.61-7.955,7.552c-4.334-0.055-7.68-3.457-7.607-7.736c0.073-4.329,3.673-7.881,7.894-7.819
		C214.69,110.661,219.32,113.548,219.075,118.617z M224.568,97.099c3.811,0.142,8.104,2.845,8.079,8.143
		c-0.022,4.667-3.563,8.171-8.238,8.148c-4.682-0.023-8.18-3.58-8.117-8.257C216.349,100.852,220.309,96.941,224.568,97.099z
		 M219.83,92.319c-0.099,4.462-4.059,8.346-8.571,8.257c-4.17-0.082-8.466-3.075-8.198-8.598c-0.331-4.755,4.26-8.269,8.341-8.245
		C216.164,83.76,219.922,88.163,219.83,92.319z M224.533,87.716c-4.915,0.059-8.67-3.71-8.706-8.738
		c-0.034-4.791,3.758-8.68,8.518-8.735c4.753-0.055,8.953,3.987,8.973,8.635C233.338,83.597,229.301,87.659,224.533,87.716z"/>
	<path fill="#FFFFFF" d="M238.009,49.19c-1.293-0.01-2.758-0.16-4.243-0.26c0.1,1.467,0.238,2.871,0.165,4.259
		c-0.07,1.34-0.492,2.664-0.784,4.266c0.741-0.138,1.285-0.285,1.859-0.343c1.285-0.13,2.929-0.393,4.197-0.28
		c0.626,0.056,0.797,0.174,1.797,0.379v-8.376C240,49.127,239.274,49.2,238.009,49.19z"/>
	<path fill="#FFFFFF" d="M234.67,522.054c-0.595-0.095-1.167-0.338-2.026-0.597c0.424,1.639,0.982,3.044,1.107,4.487
		c0.127,1.469-0.171,2.974-0.306,4.774c0.797-0.112,1.49-0.263,2.19-0.298c1.217-0.061,2.812-0.211,4-0.028
		c0.422,0.065,1.365,0.166,1.365,0.31v-8.531c-1,0.225-1.348,0.325-2.128,0.337C237.59,522.531,235.948,522.258,234.67,522.054z"/>
</g>
</svg>
