<!-- Generator: Adobe Illustrator 17.1.0, SVG Export Plug-In  -->
<svg version="1.1"
	 xmlns="http://www.w3.org/2000/svg" xmlns:xlink="http://www.w3.org/1999/xlink" xmlns:a="http://ns.adobe.com/AdobeSVGViewerExtensions/3.0/"
	 x="0px" y="0px" width="22.145px" height="18px" viewBox="0 0 22.145 18" enable-background="new 0 0 22.145 18"
	 xml:space="preserve">
<defs>
</defs>
<g id="twitter_2">
	<g>
		<path fill="#6E5F5C" d="M19.879,4.485c0.01,0.194,0.014,0.391,0.014,0.588C19.894,11.077,15.323,18,6.966,18
			C4.401,18,2.012,17.248,0,15.959c0.354,0.039,0.717,0.064,1.084,0.064c2.129,0,4.088-0.727,5.644-1.947
			c-1.991-0.035-3.667-1.35-4.246-3.155c0.278,0.053,0.563,0.083,0.853,0.083c0.416,0,0.817-0.057,1.198-0.16
			c-2.079-0.42-3.646-2.254-3.646-4.457c0-0.02,0-0.038,0-0.057c0.613,0.339,1.314,0.544,2.059,0.567
			c-1.219-0.815-2.02-2.207-2.02-3.782c0-0.832,0.224-1.612,0.615-2.283C3.78,3.58,7.129,5.388,10.905,5.577
			c-0.078-0.331-0.117-0.68-0.117-1.036C10.789,2.034,12.823,0,15.331,0c1.308,0,2.489,0.552,3.318,1.433
			c1.034-0.203,2.007-0.581,2.885-1.102c-0.34,1.06-1.061,1.951-1.997,2.513c0.918-0.108,1.793-0.353,2.609-0.716
			C21.537,3.044,20.768,3.844,19.879,4.485z"/>
	</g>
</g>
</svg>
