<?xml version="1.0" encoding="utf-8"?>
<!-- Generator: Adobe Illustrator 17.1.0, SVG Export Plug-In . SVG Version: 6.00 Build 0)  -->
<!DOCTYPE svg PUBLIC "-//W3C//DTD SVG 1.1//EN" "http://www.w3.org/Graphics/SVG/1.1/DTD/svg11.dtd">
<svg version="1.1" id="Layer_1" xmlns="http://www.w3.org/2000/svg" xmlns:xlink="http://www.w3.org/1999/xlink" x="0px" y="0px"
	 width="94px" height="44px" viewBox="0 0 94 44" enable-background="new 0 0 94 44" xml:space="preserve">
<g>
	<path fill="#313D5F" d="M40.5,0.786c0.34,0,0.633,0.059,0.877,0.173c0.244,0.113,0.439,0.281,0.581,0.498
		c0.142,0.217,0.233,0.483,0.268,0.794c0.035,0.311,0.016,0.666-0.062,1.061l-5.821,20.881c-0.119,0.337-0.269,0.63-0.452,0.88
		c-0.183,0.25-0.398,0.456-0.647,0.62c-0.248,0.164-0.53,0.286-0.844,0.367c-0.315,0.081-0.663,0.121-1.044,0.121h-4.585
		c-0.382,0-0.72-0.042-1.015-0.127c-0.295-0.085-0.546-0.211-0.754-0.38c-0.208-0.169-0.372-0.38-0.492-0.633
		c-0.12-0.253-0.197-0.548-0.229-0.886l-0.596-9.179c-0.009-0.318-0.006-0.641,0.003-0.947c0.01-0.306,0.026-0.595,0.043-0.847
		c0.018-0.252,0.037-0.466,0.052-0.621c0.015-0.156,0.026-0.253,0.028-0.27c-0.008,0-0.033,0.088-0.075,0.24
		c-0.042,0.152-0.1,0.369-0.175,0.625c-0.075,0.256-0.166,0.552-0.273,0.863c-0.107,0.311-0.231,0.638-0.371,0.957l-4.129,9.179
		c-0.161,0.337-0.35,0.632-0.566,0.886c-0.217,0.253-0.461,0.464-0.733,0.633c-0.272,0.169-0.571,0.296-0.899,0.38
		c-0.327,0.085-0.682,0.127-1.065,0.127h-4.661c-0.392,0-0.729-0.042-1.013-0.127c-0.284-0.085-0.516-0.211-0.697-0.38
		c-0.181-0.169-0.312-0.38-0.396-0.633c-0.083-0.253-0.119-0.548-0.109-0.886l2.385-20.843c0.064-0.395,0.175-0.75,0.326-1.061
		c0.151-0.311,0.344-0.577,0.57-0.794c0.226-0.217,0.487-0.385,0.776-0.498c0.289-0.113,0.606-0.173,0.946-0.173h2.572
		c0.296,0,0.548,0.042,0.757,0.125c0.21,0.084,0.377,0.21,0.503,0.378c0.126,0.169,0.212,0.38,0.258,0.635
		c0.046,0.255,0.052,0.553,0.021,0.896l-1.436,12.509c-0.034,0.327-0.078,0.652-0.126,0.957c-0.048,0.305-0.098,0.589-0.146,0.835
		c-0.047,0.246-0.091,0.452-0.123,0.602c-0.033,0.15-0.054,0.242-0.058,0.259c0.018,0,0.056-0.084,0.113-0.23
		c0.057-0.146,0.133-0.355,0.227-0.605c0.094-0.25,0.206-0.54,0.336-0.85c0.13-0.31,0.277-0.639,0.442-0.966l5.719-12.543
		c0.15-0.334,0.315-0.626,0.496-0.876c0.181-0.25,0.378-0.458,0.593-0.625c0.215-0.166,0.448-0.291,0.701-0.374
		c0.253-0.083,0.526-0.125,0.821-0.125h1.479c0.288,0,0.541,0.042,0.761,0.125c0.219,0.083,0.404,0.208,0.554,0.374
		c0.15,0.167,0.265,0.375,0.344,0.625c0.079,0.25,0.123,0.542,0.131,0.876l0.851,12.543c0.029,0.336,0.046,0.665,0.055,0.972
		c0.009,0.307,0.01,0.59,0.007,0.834c-0.003,0.244-0.01,0.448-0.016,0.595c-0.006,0.147-0.012,0.237-0.013,0.254
		c0.018,0,0.042-0.084,0.073-0.231c0.031-0.147,0.07-0.356,0.12-0.606c0.049-0.25,0.109-0.541,0.182-0.851
		c0.072-0.31,0.158-0.64,0.258-0.967l3.575-12.543c0.09-0.334,0.205-0.626,0.346-0.876c0.141-0.25,0.308-0.458,0.502-0.625
		c0.194-0.166,0.414-0.291,0.662-0.374c0.248-0.083,0.523-0.125,0.826-0.125H40.5z M45.87,0.786c-0.317,0-0.597,0.048-0.838,0.144
		c-0.241,0.096-0.443,0.239-0.604,0.43c-0.162,0.191-0.283,0.428-0.362,0.713c-0.079,0.285-0.117,0.616-0.112,0.993l0.292,20.806
		c0.005,0.373,0.065,0.704,0.18,0.991c0.115,0.287,0.283,0.529,0.504,0.725c0.221,0.196,0.493,0.345,0.816,0.445
		c0.323,0.1,0.696,0.151,1.117,0.151h13.594c0.421,0,0.784-0.051,1.085-0.151c0.302-0.1,0.543-0.249,0.723-0.444
		c0.18-0.195,0.298-0.437,0.352-0.724c0.055-0.286,0.047-0.617-0.026-0.989l-0.35-1.778c-0.072-0.372-0.19-0.702-0.349-0.988
		c-0.16-0.286-0.362-0.527-0.604-0.722c-0.243-0.195-0.525-0.343-0.846-0.443c-0.321-0.1-0.68-0.151-1.075-0.151h-7.425
		l-0.305-3.259h4.83c0.382,0,0.71-0.049,0.985-0.146c0.275-0.097,0.495-0.242,0.66-0.434c0.165-0.192,0.273-0.432,0.325-0.719
		c0.052-0.287,0.046-0.62-0.019-1l-0.3-1.766c-0.064-0.371-0.168-0.7-0.31-0.984c-0.142-0.285-0.323-0.525-0.541-0.719
		c-0.217-0.194-0.471-0.342-0.759-0.441c-0.288-0.099-0.611-0.15-0.966-0.15h-4.504L50.75,7.11h6.069
		c0.335,0,0.623-0.051,0.862-0.15c0.239-0.099,0.428-0.246,0.567-0.44c0.139-0.194,0.227-0.433,0.262-0.717
		c0.036-0.284,0.019-0.611-0.051-0.981l-0.334-1.757c-0.072-0.378-0.178-0.709-0.316-0.993c-0.138-0.284-0.307-0.522-0.506-0.713
		c-0.199-0.191-0.428-0.334-0.684-0.43c-0.257-0.096-0.541-0.144-0.851-0.144H45.87z M6.265,29.488c-0.228,0-0.438,0.026-0.63,0.077
		c-0.192,0.051-0.366,0.128-0.52,0.229c-0.154,0.102-0.289,0.228-0.403,0.38c-0.114,0.151-0.208,0.328-0.28,0.528L0.498,41.753
		c-0.071,0.198-0.099,0.373-0.086,0.525c0.013,0.152,0.068,0.28,0.164,0.384c0.096,0.104,0.233,0.183,0.41,0.236
		c0.177,0.053,0.395,0.08,0.652,0.08h1.911c0.257,0,0.492-0.027,0.702-0.08c0.211-0.053,0.398-0.132,0.561-0.236
		c0.163-0.104,0.301-0.232,0.414-0.384c0.113-0.152,0.201-0.327,0.263-0.525l1.081-3.441l3.202,0c0.246,0,0.47-0.026,0.672-0.077
		c0.201-0.051,0.38-0.128,0.535-0.23c0.155-0.102,0.286-0.229,0.392-0.381c0.106-0.152,0.187-0.329,0.241-0.53l0.252-0.919
		c0.055-0.202,0.072-0.38,0.052-0.534c-0.021-0.154-0.079-0.283-0.175-0.388c-0.095-0.104-0.228-0.183-0.396-0.236
		c-0.168-0.053-0.373-0.08-0.613-0.08h-3.1l0.653-2.079h4.048c0.235,0,0.449-0.027,0.64-0.08c0.191-0.053,0.361-0.131,0.507-0.235
		c0.146-0.103,0.27-0.231,0.37-0.382c0.1-0.151,0.176-0.325,0.229-0.522l0.246-0.934c0.053-0.201,0.071-0.378,0.053-0.53
		c-0.018-0.152-0.071-0.279-0.16-0.381c-0.088-0.102-0.212-0.178-0.371-0.229c-0.159-0.051-0.352-0.077-0.581-0.077H6.265z
		 M26.724,32.413c-0.084-0.432-0.241-0.828-0.458-1.178c-0.217-0.35-0.494-0.653-0.82-0.901c-0.326-0.248-0.7-0.44-1.111-0.566
		c-0.161-0.051-0.34-0.095-0.541-0.13c-0.201-0.036-0.423-0.064-0.668-0.086c-0.246-0.022-0.515-0.037-0.81-0.047
		c-0.295-0.01-0.617-0.015-0.967-0.015l-4.135-0.003c-0.228,0-0.437,0.026-0.624,0.077c-0.187,0.051-0.353,0.128-0.497,0.229
		c-0.144,0.102-0.265,0.229-0.364,0.381c-0.098,0.152-0.174,0.329-0.224,0.53l-2.802,11.051c-0.05,0.198-0.06,0.373-0.03,0.524
		c0.029,0.152,0.097,0.28,0.204,0.383c0.107,0.103,0.251,0.182,0.434,0.235c0.183,0.053,0.403,0.08,0.66,0.08h1.911
		c0.257,0,0.489-0.027,0.694-0.08c0.205-0.053,0.384-0.132,0.536-0.235c0.152-0.103,0.277-0.231,0.375-0.383
		c0.098-0.152,0.168-0.327,0.21-0.524l0.623-2.952h1.154l1.492,3.31c0.078,0.16,0.176,0.294,0.29,0.404
		c0.114,0.111,0.245,0.199,0.39,0.267c0.144,0.068,0.302,0.116,0.47,0.147c0.168,0.031,0.346,0.045,0.531,0.045l2.222,0.003
		c0.287,0,0.544-0.034,0.76-0.1c0.216-0.066,0.391-0.164,0.513-0.291c0.122-0.127,0.192-0.284,0.198-0.467
		c0.006-0.183-0.053-0.394-0.186-0.629l-1.648-3.009c-0.07-0.131-0.143-0.251-0.211-0.357c-0.069-0.106-0.134-0.199-0.19-0.277
		c-0.056-0.078-0.103-0.14-0.136-0.186c-0.033-0.045-0.051-0.074-0.05-0.083c0.431-0.201,0.81-0.452,1.141-0.737
		c0.331-0.284,0.612-0.602,0.846-0.938c0.234-0.335,0.42-0.688,0.56-1.043c0.14-0.354,0.234-0.711,0.284-1.053
		C26.82,33.315,26.808,32.846,26.724,32.413z M21.991,34.001c-0.048,0.253-0.124,0.468-0.228,0.649
		c-0.104,0.181-0.237,0.327-0.398,0.442c-0.162,0.115-0.352,0.198-0.572,0.252c-0.22,0.054-0.47,0.08-0.75,0.08h-1.006l0.541-2.567
		h0.701c0.126,0,0.244,0.001,0.354,0.005s0.214,0.011,0.312,0.021s0.19,0.025,0.278,0.046c0.088,0.02,0.172,0.046,0.253,0.079
		c0.148,0.056,0.259,0.124,0.34,0.199c0.081,0.076,0.133,0.159,0.165,0.247c0.031,0.088,0.042,0.18,0.041,0.272
		C22.021,33.818,22.007,33.911,21.991,34.001 M30.837,29.491c-0.228,0-0.432,0.026-0.613,0.077c-0.18,0.051-0.336,0.128-0.467,0.229
		c-0.131,0.102-0.236,0.228-0.315,0.38c-0.079,0.151-0.132,0.328-0.157,0.528l-1.388,11.051c-0.025,0.198-0.013,0.373,0.035,0.525
		c0.048,0.152,0.133,0.28,0.253,0.384c0.12,0.104,0.275,0.183,0.465,0.236c0.189,0.053,0.413,0.08,0.669,0.08h1.911
		c0.257,0,0.485-0.027,0.684-0.08c0.198-0.053,0.367-0.132,0.506-0.236c0.139-0.104,0.247-0.232,0.325-0.384
		c0.078-0.152,0.125-0.327,0.141-0.525l0.924-11.051c0.017-0.201,0.002-0.377-0.043-0.528c-0.045-0.151-0.121-0.278-0.228-0.38
		c-0.107-0.102-0.244-0.178-0.412-0.229c-0.168-0.051-0.365-0.077-0.593-0.077H30.837z M37.658,29.491
		c-0.228,0-0.431,0.026-0.608,0.077c-0.177,0.051-0.328,0.128-0.452,0.229c-0.124,0.102-0.222,0.229-0.291,0.381
		c-0.069,0.152-0.111,0.329-0.123,0.53l-0.682,11.051c-0.012,0.198,0.011,0.373,0.069,0.524c0.058,0.152,0.151,0.28,0.278,0.383
		c0.127,0.103,0.287,0.182,0.48,0.235c0.193,0.053,0.418,0.08,0.674,0.08h8.292c0.257,0,0.484-0.027,0.678-0.08
		c0.194-0.053,0.357-0.132,0.486-0.235c0.13-0.103,0.226-0.231,0.289-0.383c0.063-0.152,0.091-0.327,0.084-0.524l-0.032-0.942
		c-0.007-0.197-0.046-0.372-0.117-0.524c-0.071-0.151-0.173-0.279-0.306-0.383c-0.133-0.103-0.296-0.182-0.488-0.235
		c-0.192-0.053-0.414-0.08-0.663-0.08h-4.69l0.032-1.729h3.112c0.246,0,0.463-0.026,0.649-0.077c0.187-0.051,0.343-0.128,0.469-0.23
		c0.125-0.102,0.219-0.229,0.281-0.381c0.062-0.152,0.091-0.329,0.087-0.53l-0.02-0.939c-0.004-0.197-0.039-0.372-0.105-0.523
		c-0.066-0.151-0.162-0.279-0.288-0.383c-0.126-0.103-0.281-0.182-0.464-0.235c-0.183-0.053-0.394-0.08-0.633-0.08h-3.021
		l0.032-1.629h4.157c0.23,0,0.433-0.027,0.608-0.079c0.175-0.053,0.322-0.131,0.439-0.234c0.117-0.103,0.205-0.231,0.261-0.382
		c0.057-0.151,0.082-0.326,0.076-0.523l-0.029-0.934c-0.006-0.201-0.041-0.378-0.106-0.53c-0.064-0.152-0.157-0.279-0.276-0.381
		c-0.12-0.102-0.266-0.178-0.439-0.229c-0.173-0.051-0.371-0.077-0.593-0.077H37.658z M77.911,33.363
		c-0.632-0.827-1.396-1.533-2.271-2.106c-0.874-0.573-1.858-1.014-2.928-1.311c-1.07-0.297-2.226-0.452-3.445-0.452h-4.179
		c-0.228,0-0.425,0.026-0.589,0.077c-0.164,0.051-0.295,0.128-0.393,0.229c-0.098,0.102-0.163,0.228-0.193,0.38
		c-0.03,0.151-0.026,0.328,0.013,0.528l2.164,11.054c0.038,0.198,0.107,0.373,0.204,0.524c0.097,0.152,0.223,0.28,0.376,0.383
		c0.153,0.103,0.333,0.182,0.539,0.235s0.438,0.08,0.695,0.08l4.709,0.003c1.374,0,2.57-0.16,3.57-0.466
		c0.999-0.306,1.802-0.759,2.39-1.343c0.588-0.584,0.962-1.301,1.103-2.135c0.141-0.834,0.05-1.786-0.291-2.842
		C79.042,35.14,78.543,34.191,77.911,33.363z M71.611,39.599h-1.045l-1.603-6.736h0.985c0.547,0,1.065,0.069,1.542,0.208
		c0.478,0.139,0.916,0.346,1.305,0.624c0.389,0.278,0.73,0.625,1.012,1.043c0.282,0.418,0.506,0.905,0.662,1.463
		c0.156,0.558,0.206,1.05,0.156,1.473c-0.05,0.423-0.201,0.778-0.446,1.064c-0.245,0.285-0.586,0.501-1.016,0.645
		C72.734,39.526,72.215,39.599,71.611,39.599 M81.715,29.58c-0.615,0.202-1.122,0.497-1.5,0.874
		c-0.379,0.376-0.63,0.834-0.732,1.358c-0.102,0.525-0.056,1.117,0.159,1.762c0.358,1.078,1.054,1.869,1.906,2.472
		c0.852,0.603,1.86,1.017,2.841,1.341c0.981,0.324,1.934,0.558,2.677,0.8c0.743,0.242,1.276,0.492,1.416,0.85
		c0.032,0.08,0.045,0.158,0.032,0.229c-0.013,0.071-0.052,0.136-0.124,0.191c-0.073,0.055-0.179,0.1-0.327,0.131
		c-0.148,0.031-0.337,0.049-0.576,0.049c-0.325,0-0.641-0.038-0.94-0.096c-0.3-0.059-0.583-0.139-0.845-0.225
		c-0.262-0.086-0.501-0.176-0.713-0.256c-0.211-0.08-0.395-0.149-0.543-0.191c-0.109-0.041-0.213-0.078-0.312-0.11
		c-0.099-0.032-0.194-0.058-0.285-0.08c-0.09-0.022-0.177-0.038-0.258-0.049c-0.082-0.011-0.16-0.017-0.233-0.017
		c-0.102,0-0.197,0.011-0.284,0.033c-0.087,0.022-0.167,0.056-0.24,0.101c-0.073,0.046-0.139,0.103-0.199,0.173
		c-0.06,0.07-0.114,0.153-0.161,0.248l-0.533,1.034c-0.112,0.211-0.158,0.4-0.152,0.571c0.005,0.17,0.062,0.322,0.154,0.459
		c0.093,0.136,0.221,0.258,0.371,0.367c0.15,0.11,0.321,0.207,0.498,0.297c0.295,0.15,0.672,0.308,1.108,0.459
		c0.437,0.152,0.934,0.298,1.467,0.425c0.534,0.127,1.105,0.236,1.691,0.313c0.586,0.077,1.186,0.122,1.779,0.122
		c1.018,0,1.866-0.128,2.55-0.357c0.684-0.229,1.203-0.558,1.564-0.961c0.36-0.402,0.562-0.877,0.61-1.398
		c0.048-0.52-0.057-1.086-0.311-1.669c-0.472-1.085-1.237-1.868-2.129-2.456c-0.892-0.588-1.91-0.981-2.888-1.287
		c-0.977-0.306-1.914-0.525-2.642-0.763c-0.728-0.238-1.248-0.496-1.392-0.881c-0.033-0.089-0.045-0.171-0.031-0.246
		c0.014-0.075,0.055-0.141,0.127-0.196c0.072-0.055,0.176-0.099,0.316-0.13s0.318-0.047,0.537-0.047
		c0.235,0.001,0.456,0.02,0.669,0.053c0.213,0.033,0.419,0.08,0.623,0.136c0.205,0.056,0.408,0.122,0.618,0.192
		c0.21,0.07,0.425,0.145,0.653,0.22c0.093,0.033,0.185,0.064,0.275,0.092c0.09,0.028,0.179,0.053,0.265,0.074
		c0.086,0.021,0.17,0.038,0.251,0.05s0.159,0.018,0.233,0.018c0.095,0,0.184-0.011,0.265-0.034c0.081-0.024,0.155-0.06,0.219-0.112
		c0.065-0.052,0.12-0.119,0.165-0.205c0.045-0.085,0.079-0.189,0.101-0.312l0.175-1.068c0.022-0.164,0.018-0.322-0.013-0.474
		c-0.032-0.152-0.092-0.299-0.184-0.439c-0.092-0.14-0.217-0.275-0.378-0.404c-0.161-0.129-0.358-0.251-0.595-0.368
		c-0.247-0.117-0.551-0.236-0.895-0.349c-0.345-0.113-0.73-0.22-1.139-0.313c-0.409-0.093-0.843-0.17-1.284-0.225
		c-0.441-0.055-0.889-0.086-1.329-0.086C83.052,29.271,82.33,29.378,81.715,29.58z M48.897,29.567
		c-0.171,0.051-0.314,0.128-0.427,0.229c-0.113,0.102-0.196,0.229-0.248,0.381c-0.052,0.152-0.074,0.329-0.064,0.53l0.544,11.051
		c0.01,0.198,0.053,0.373,0.128,0.525c0.075,0.152,0.182,0.28,0.32,0.384c0.138,0.104,0.307,0.183,0.506,0.236
		c0.199,0.053,0.427,0.08,0.685,0.08h1.911c0.257,0,0.481-0.027,0.67-0.08c0.189-0.053,0.344-0.132,0.465-0.236
		c0.121-0.104,0.207-0.232,0.259-0.384c0.052-0.152,0.069-0.327,0.051-0.525l-0.359-3.93c-0.021-0.225-0.058-0.491-0.101-0.763
		c-0.043-0.273-0.093-0.552-0.138-0.803c-0.045-0.251-0.087-0.474-0.114-0.634c-0.027-0.16-0.04-0.257-0.029-0.257
		c0.011,0.019,0.07,0.122,0.165,0.281c0.095,0.159,0.225,0.374,0.377,0.617c0.152,0.243,0.327,0.513,0.51,0.783
		c0.183,0.27,0.376,0.539,0.564,0.779l3.268,4.323c0.119,0.146,0.247,0.271,0.384,0.376c0.137,0.105,0.285,0.19,0.444,0.257
		c0.159,0.067,0.331,0.116,0.516,0.148c0.185,0.032,0.384,0.047,0.598,0.047h2.296c0.256,0,0.478-0.027,0.665-0.08
		c0.187-0.053,0.338-0.132,0.453-0.235c0.115-0.103,0.194-0.231,0.235-0.383c0.041-0.152,0.046-0.327,0.012-0.524l-1.916-11.054
		c-0.035-0.201-0.097-0.377-0.183-0.528c-0.086-0.151-0.198-0.278-0.334-0.38c-0.136-0.102-0.295-0.178-0.478-0.229
		c-0.183-0.051-0.389-0.077-0.618-0.077h-1.696c-0.228,0-0.425,0.026-0.591,0.077c-0.165,0.051-0.299,0.128-0.401,0.229
		c-0.102,0.102-0.172,0.228-0.21,0.38c-0.038,0.151-0.043,0.328-0.016,0.528l0.515,3.932c0.03,0.225,0.078,0.492,0.133,0.767
		c0.055,0.274,0.116,0.556,0.172,0.809c0.056,0.253,0.107,0.479,0.141,0.64c0.034,0.162,0.051,0.26,0.04,0.26
		c-0.011-0.019-0.075-0.122-0.175-0.281c-0.1-0.159-0.237-0.375-0.397-0.619c-0.16-0.244-0.342-0.516-0.532-0.788
		c-0.19-0.272-0.389-0.544-0.581-0.788l-3.046-4.323c-0.104-0.146-0.216-0.27-0.337-0.374c-0.121-0.104-0.251-0.189-0.393-0.256
		c-0.142-0.066-0.295-0.115-0.462-0.146c-0.167-0.032-0.347-0.047-0.544-0.047l-2.035-0.003
		C49.268,29.491,49.068,29.516,48.897,29.567z M85.186,22.138c-0.18,1.002-0.721,1.786-1.527,2.385
		c-0.806,0.6-1.876,1.016-3.112,1.281c-1.236,0.266-2.638,0.381-4.107,0.381l-7.915-0.003c-0.421,0-0.805-0.051-1.149-0.151
		c-0.344-0.1-0.648-0.249-0.909-0.444c-0.262-0.195-0.481-0.437-0.656-0.724c-0.175-0.286-0.305-0.617-0.388-0.989l-0.913-4.079
		l-3.745-16.73c-0.084-0.378-0.116-0.709-0.096-0.993c0.02-0.284,0.092-0.522,0.214-0.713c0.122-0.191,0.294-0.334,0.515-0.43
		c0.221-0.096,0.491-0.144,0.808-0.144h6.056c1.138,0,2.247,0.138,3.301,0.415c1.054,0.277,2.052,0.692,2.968,1.247
		c0.916,0.555,1.749,1.25,2.472,2.085c0.724,0.835,1.337,1.811,1.813,2.929c0.21,0.493,0.37,1.004,0.471,1.511
		c0.101,0.507,0.144,1.009,0.117,1.485c-0.027,0.476-0.123,0.926-0.298,1.327c-0.175,0.401-0.43,0.754-0.774,1.036
		c0.835,0.256,1.586,0.612,2.256,1.032c0.671,0.42,1.261,0.906,1.775,1.421c0.513,0.515,0.95,1.061,1.312,1.601
		c0.031,0.046,0.059,0.092,0.089,0.139c0.319,0.493,0.58,0.98,0.778,1.433C85.183,19.918,85.365,21.137,85.186,22.138z
		 M68.306,6.758l1.037,3.419h2.086c0.281,0,0.499-0.064,0.663-0.171c0.165-0.107,0.276-0.257,0.345-0.429
		c0.069-0.172,0.095-0.366,0.088-0.561c-0.006-0.195-0.045-0.391-0.106-0.567c-0.073-0.212-0.173-0.424-0.302-0.622
		c-0.129-0.198-0.286-0.383-0.472-0.542c-0.186-0.158-0.401-0.29-0.644-0.383c-0.244-0.092-0.517-0.145-0.82-0.145H68.306z
		 M76.766,18.093c-0.012-0.034-0.033-0.069-0.047-0.104c-0.082-0.198-0.19-0.4-0.336-0.595c-0.172-0.229-0.386-0.448-0.637-0.638
		c-0.251-0.19-0.54-0.352-0.86-0.465c-0.321-0.114-0.673-0.18-1.054-0.18h-2.687l0.845,2.779l0.382,1.257h2.766
		c0.387,0,0.705-0.066,0.958-0.182c0.253-0.115,0.441-0.279,0.57-0.474c0.129-0.195,0.198-0.421,0.213-0.659
		C76.894,18.593,76.855,18.341,76.766,18.093z"/>
</g>
</svg>
