<svg xmlns="http://www.w3.org/2000/svg" viewBox="0 0 684 290" enable-background="new 0 0 684 290"><g opacity=".4" fill="#89BAB9"><path d="M614.92 44.895c.424-2.121 1.141-4.139 1.143-6.159.001-1.935-.74-3.87-1.246-6.229 3.594 1.937 7.254 1.61 11.146 1.119-.193 1.881-.496 3.525-.494 5.169.003 1.658.309 3.316.495 5.098-2.028-.165-3.938-.567-5.797-.4-1.777.16-3.5.911-5.247 1.402zM610.624 111.09c-.246 1.774-.613 3.414-.664 5.065-.049 1.584.229 3.177.386 5.031-1.825-.129-3.549-.406-5.258-.327-1.719.08-3.421.515-5.202.807.256-2.105.801-4.088.645-6.015-.156-1.936-1.01-3.816-1.59-5.831 1.894.563 3.739 1.39 5.65 1.6 1.932.211 3.931-.189 6.033-.33zM614.933 75.664c1.809-4.052 1.683-7.861-.567-11.892 2.261.49 3.998 1.054 5.769 1.197 1.82.147 3.674-.119 5.553-.205v10.082c-3.56-.649-7.131-.95-10.755.818zM166.488 213.785c1.071-3.591.777-6.741-.722-10.089 2.366.309 4.327.866 6.24.731 1.928-.136 3.807-.958 6.132-1.596-2.067 3.546-2.444 7.131-1.442 11.138-1.965-.219-3.526-.502-5.092-.536-1.505-.031-3.016.195-5.116.352zM68.826 33.102c-1.523 3.935-1.65 7.603.453 11.595-2.233-.549-3.889-1.154-5.588-1.318-1.649-.16-3.341.133-5.192.236v-9.701c3.482.818 6.858.61 10.327-.812zM73.678 111.173c3.719.414 7.254.979 10.891-1.409-.591 2.539-1.287 4.369-1.37 6.226-.081 1.784.473 3.597.814 5.827-3.376-1.342-6.591-1.57-10.108-.781.13-1.944.344-3.523.31-5.095-.032-1.493-.324-2.98-.537-4.768zM58.53 74.3v-9.312c3.311.313 6.776.948 9.929-1.191l.276.426c-.375 1.758-1.008 3.51-1.054 5.276-.047 1.797.484 3.61.803 5.68-1.77-.32-3.309-.71-4.869-.847-1.59-.141-3.202-.032-5.085-.032zM455.484 234.815l-.88 9.473h-8.698c0-1.606.16-3.288-.046-4.923-.198-1.575-.774-3.103-1.247-4.892 1.947.384 3.769.983 5.609 1.039 1.776.054 3.57-.451 5.262-.697zM347.868 250.038c-1.53 3.358-2.014 6.409-.96 9.904-1.941-.189-3.419-.436-4.899-.447-1.425-.011-2.851.223-4.573.375 0-1.734.113-3.32-.032-4.881-.139-1.498-.545-2.971-.902-4.803 1.98.315 3.754.824 5.526.816 1.726-.007 3.448-.543 5.84-.964zM625.198 104.91c-3.204.211-6.204.409-9.51.628.514-3.346 1.034-6.768-.768-10.395 2.14.491 3.742 1.034 5.38 1.183 1.573.143 3.182-.125 4.898-.219v8.803zM239.04 234.582c-.343 1.907-.722 3.452-.873 5.019-.151 1.558-.072 3.139-.093 4.62h-8.596c-.314-3.115-.613-6.087-.934-9.281 1.619.213 3.327.65 5.022.602 1.718-.05 3.424-.578 5.474-.96zM378.093 250.275c0 .489.029.798-.005 1.1-.239 2.145-.544 4.285-.716 6.436-.079.981-.154 1.801-1.39 1.804-2.398.006-4.796.002-7.524.002 0-1.505.113-3.081-.032-4.632-.14-1.498-.547-2.971-.891-4.734 1.884.299 3.587.778 5.291.78 1.714.001 3.43-.472 5.267-.756zM501.592 219.676l-.606 9.134c-1.321-.109-2.74-.345-4.153-.311-1.424.034-2.841.335-4.208.513l-.959-9.874c1.501.303 3.112.813 4.747.907 1.659.095 3.341-.22 5.179-.369zM306.679 259.578c0-1.871.136-3.401-.039-4.894-.166-1.415-.659-2.791-1.069-4.429 1.927.301 3.64.796 5.345.772 1.733-.024 3.46-.56 5.557-.939-.396 1.662-.896 3.144-1.07 4.663-.179 1.561-.04 3.158-.04 4.827h-8.684zM192.7 219.209c-1.256 3.258-1.846 6.288-.816 9.448-.818.134-1.125.237-1.427.224-2-.084-3.998-.252-5.999-.271-1.106-.011-1.635-.375-1.675-1.515-.08-2.314-.222-4.626-.347-7.105 1.556-.712 3.182.424 4.803.135 1.647-.294 3.3-.555 5.461-.916zM59.003 96.471c1.543 0 3.054.11 4.541-.031 1.506-.142 2.989-.532 4.673-.85-.241 1.755-.617 3.387-.647 5.025-.029 1.572.302 3.15.498 4.94-1.671-.26-3.144-.575-4.633-.695-1.416-.114-2.848-.025-4.433-.025.001-2.789.001-5.472.001-8.364zM569.864 182.272c.074-1.528.286-3.033.181-4.516-.105-1.481-.526-2.94-.859-4.667 1.802.19 3.358.417 4.922.502 1.495.082 2.998.018 4.757.018-.15 1.287-.328 2.368-.388 3.456-.066 1.201-.02 2.408-.031 3.612-.007.713-.245 1.33-1.046 1.365-2.451.107-4.905.154-7.536.23zM593.878 158.409c0 2.443.025 4.755-.015 7.065-.013.75-.509 1.134-1.277 1.152-2.301.053-4.601.115-6.994.176l-.597-9.018c1.365-.477 2.726.604 4.189.621 1.51.018 3.02.004 4.694.004zM399.235 250.598c1.597.189 3.087.487 4.58.509 1.513.022 3.03-.229 4.792-.382 0 .594.035 1.114-.006 1.628-.134 1.682-.344 3.359-.433 5.043-.091 1.708-.355 1.975-1.979 1.942-1.521-.031-3.046.018-4.567.079-.852.034-1.749.091-1.85-1.016-.224-2.461-.346-4.931-.537-7.803zM284.828 250.599l-.786 8.63h-7.976l-.739-8.6c1.509.168 3.065.48 4.621.477 1.581-.003 3.162-.315 4.88-.507zM631.841 49.707l8.402.426v8.06l-8.402.674v-9.16zM553.883 188.87l9.303.537c-.091 1.221-.228 2.554-.281 3.89-.05 1.266-.011 2.535-.011 3.975l-8.303.376c0-1.601.093-3.102-.027-4.586-.112-1.412-.447-2.807-.681-4.192zM640.185 19.411v7.82l-8.334.712v-8.927l8.334.395zM105.867 181.802l-.34-7.671 9.021-.73c-.279 1.477-.694 2.924-.79 4.393-.092 1.411.147 2.843.251 4.432l-8.142-.424zM609.119 143.087c0 2.378.052 4.536-.046 6.686-.018.402-.608 1.081-.98 1.114-2.228.196-4.469.24-6.883.342l-.487-8.579 8.396.437zM98.782 158.021l-.597 8.676-7.859-.408c-.053-2.345-.155-4.581-.104-6.813.008-.364.672-.988 1.074-1.023 2.459-.218 4.932-.3 7.486-.432zM631.594 80.739c2.488.133 4.643.235 6.796.37 1.162.073 1.719.709 1.683 1.899-.047 1.527-.038 3.055-.065 4.582-.014.808-.305 1.449-1.212 1.511-2.288.155-4.578.274-7.032.417.13-1.434.377-2.85.354-4.261-.024-1.422-.317-2.839-.524-4.518zM51.917 49.974v8.616l-8.006-.376v-7.676l8.006-.564zM476.805 235.453h8.848c-.19 2.508-.311 4.796-.59 7.065-.044.357-.787.859-1.239.895-1.686.133-3.384.113-5.078.125-.865.006-1.319-.432-1.385-1.326-.164-2.232-.365-4.46-.556-6.759zM121.035 189.59l8.635-.549c0 .543.033 1.07-.006 1.591-.127 1.67-.339 3.336-.407 5.008-.064 1.564-.28 1.809-1.834 1.729-1.516-.078-3.035-.122-4.553-.143-.833-.012-1.469-.293-1.527-1.179-.14-2.135-.209-4.275-.308-6.457zM51.871 19.132v8.373c-.364.041-.817.158-1.261.132-1.522-.088-3.04-.268-4.563-.333-1.891-.081-2.102-.287-2.054-2.083.036-1.363.024-2.73-.035-4.092-.047-1.091.358-1.674 1.494-1.715 2.076-.075 4.151-.181 6.419-.282zM74.998 143.229l8.177-.626c0 .46.026.91-.005 1.356-.121 1.744-.296 3.485-.382 5.23-.069 1.388-.319 1.751-1.669 1.764-1.522.014-3.044-.065-4.567-.101-.908-.022-1.551-.313-1.586-1.374l-.225-5.499c-.006-.219.147-.442.257-.75zM431.163 258.74l-.652-7.475h8.725c-.228 2.126-.382 4.254-.74 6.347-.076.442-.88 1.043-1.382 1.077-1.906.127-3.826.051-5.951.051zM538.904 204.855c2.531 0 4.835-.001 7.14.001.881.001 1.374.42 1.319 1.328-.106 1.759-.18 3.525-.411 5.269-.053.396-.664.978-1.068 1.023-1.75.194-3.518.223-5.279.305-.752.035-1.289-.291-1.339-1.066-.15-2.302-.247-4.608-.362-6.86zM616.382 127.277c2.223.118 4.22.188 6.21.342 1.512.117 1.853.47 1.887 1.917.028 1.203.005 2.415-.119 3.611-.154 1.48-.643 1.954-2.137 2.116-1.356.147-2.724.182-4.087.265-.84.051-1.448-.242-1.49-1.164-.105-2.305-.174-4.611-.264-7.087zM198.372 235.794h8.47c.051.164.239.461.217.743-.132 1.678-.301 3.354-.482 5.028-.165 1.521-.476 1.863-1.918 1.897-1.364.032-2.731-.034-4.096-.083-.898-.032-1.575-.408-1.668-1.39-.187-1.985-.338-3.972-.523-6.195zM51.79 81.093v8.15c-2.366-.126-4.581-.194-6.781-.415-.338-.034-.839-.759-.864-1.189-.101-1.677-.104-3.368.003-5.044.026-.409.581-1.088.942-1.123 2.2-.21 4.414-.268 6.7-.379zM144.398 212.365h-7.099l-.508-7.162 8.183-.509-.576 7.671zM244.808 251.259h8.603c-.025.541-.006 1.08-.084 1.604-.095.635-.293 1.253-.409 1.886-.226 1.231-.037 2.849-.757 3.583-.601.613-2.255.195-3.443.227-3.188.086-3.178.084-3.392-3.065-.049-.719-.209-1.43-.3-2.147-.078-.614-.13-1.231-.218-2.088zM59.84 128.132l7.287-.636v7.843c-2.258-.141-4.235-.185-6.182-.448-.422-.057-1.016-.877-1.054-1.382-.131-1.733-.051-3.482-.051-5.377zM531.532 220.649c-.099 2.093-.146 3.772-.271 5.446-.07.938-.655 1.438-1.612 1.452-.725.011-1.452-.018-2.176.019-3.093.158-3.187.07-3.399-3.128-.079-1.194-.206-2.386-.329-3.789h7.787zM632.327 112.322c2.169.124 4.07.155 5.945.397.452.058.868.775 1.193 1.262.15.225.054.624.045.943-.119 4.28.226 4.623-4.025 4.564-.856-.012-1.714.177-2.812.301l-.346-7.467zM322.563 266.972h6.369c1.024.001 1.468.555 1.377 1.531-.126 1.356-.2 2.73-.499 4.051-.105.465-.774 1.075-1.244 1.132-1.262.154-2.557.058-3.838.036-.938-.016-1.532-.529-1.645-1.438-.206-1.651-.33-3.312-.52-5.312zM160.041 220.464c-.127 2.336-.168 4.169-.372 5.982-.045.399-.609.871-1.042 1.058-.399.172-.944.011-1.425-.01-4.147-.186-4.884-1.035-4.522-5.105.083-.935.473-1.566 1.418-1.633 1.893-.136 3.791-.191 5.943-.292zM353.543 266.98c2.443 0 4.578-.03 6.712.015.806.017 1.071.633 1.004 1.354-.133 1.433-.291 2.864-.472 4.291-.095.75-.586 1.116-1.33 1.104-.639-.01-1.278-.093-1.917-.095-3.286-.011-3.29-.005-3.674-3.386-.113-.997-.197-1.997-.323-3.283zM648.112 39.029c-.023-3.851-.023-3.851 3.47-3.596.483.035.975.027 1.448.115 1.4.262 1.788.644 1.574 2.438-.174 1.465 1.155 3.645-1.519 4.178-1.101.219-2.249.249-3.378.27-1.361.025-1.692-.337-1.699-1.724-.002-.644.078-1.288.104-1.681zM392.045 267.389c-.142 1.779-.177 3.38-.452 4.939-.081.457-.831.807-1.3 1.174-.104.081-.313.025-.474.038-4.524.347-5.337-.478-5.048-5.037.056-.879.412-1.371 1.304-1.382 1.45-.017 2.9-.022 4.35-.001.389.005.775.124 1.62.269zM648.077 73.327c0-2.184-.077-4.014.055-5.829.032-.443.738-.85 1.164-1.241.088-.081.31-.015.47-.018 4.56-.073 5.309.695 4.895 5.226-.046.503-.561 1.312-.955 1.375-1.718.274-3.471.324-5.629.487zM51.214 112.669c0 1.953.06 3.774-.048 5.585-.023.39-.592.876-1.022 1.075-.397.183-.944.049-1.425.037-3.686-.092-4.723-1.375-3.872-4.986.137-.582.775-1.422 1.26-1.479 1.709-.202 3.449-.677 5.107-.232zM648.249 4.358c1.708.098 3.208.11 4.682.311.46.063 1.166.596 1.217.986.198 1.493.253 3.019.176 4.523-.018.345-.745.866-1.201.934-1.265.189-2.558.207-3.842.242-.77.021-1.217-.424-1.204-1.193.03-1.823.105-3.646.172-5.803zM221.818 251.71c-.106 1.831-.168 3.403-.311 4.967-.033.358-.33.976-.536.989-1.568.098-3.175.272-4.709.032-1.376-.215-1.34-1.601-1.413-2.726-.031-.479-.035-.96-.051-1.439-.042-1.2.594-1.79 1.739-1.815 1.587-.034 3.177-.008 5.281-.008zM298.614 273.284c-5.862.543-6.423.346-6.496-5.977h7.123l-.627 5.977zM461.976 251.755c2.281 0 4.193-.05 6.1.022.874.033 1.221.685 1.135 1.539l-.131.958c-.459 3.711-1.256 4.312-4.954 3.811-.835-.113-1.363-.503-1.485-1.326-.234-1.578-.423-3.163-.665-5.004zM35.638 38.786c.042 3.475.042 3.473-3.097 3.197-.398-.035-.8-.022-1.198-.05-1.716-.121-1.845-.266-1.832-2.039.002-.32.016-.64.048-.959.104-1.057-.625-2.583.702-3.01 1.462-.471 3.132-.368 4.709-.35.275.003.705.801.771 1.273.097.696-.066 1.43-.103 1.938zM512.345 236.555c3.827-.522 3.242.752 2.988 3.551-.158 1.737-.676 2.139-2.476 2.328-.399.042-.803.052-1.205.059-2.106.034-2.365-.191-2.594-2.227-.424-3.77-.424-3.77 3.287-3.711zM35.605 69.489c0 3.587 0 3.587-3.431 3.332-2.289-.17-2.437-.323-2.517-2.577-.127-3.582-.035-3.682 3.479-3.779.241-.007.482-.031.723-.026 1.624.036 1.841.242 1.829 1.787-.005.481-.063.962-.083 1.263zM171.886 236.588l1.104-.1c2.046-.108 2.274.128 2.05 2.129-.036.32-.057.651-.158.953-.293.873-.427 2.29-.979 2.484-1.133.399-2.515.265-3.758.089-.456-.065-.897-.824-1.174-1.356-.209-.401-.161-.942-.2-1.423-.208-2.613-.132-2.694 2.53-2.774.322-.011.645-.002.585-.002zM35.569 8.075l-.001 1.439c-.007 1.112-.577 1.605-1.672 1.502-.478-.045-.955-.099-1.429-.168-2.299-.335-2.872-1.03-2.75-3.321.093-1.745.549-2.276 2.214-2.578 3.401-.618 3.6-.446 3.638 3.126zM419.293 267.523l.014.002c.983.144 2.454-.657 2.843.524.396 1.205.079 2.674-.074 4.01-.039.343-.608.833-.988.889-1.188.174-2.408.264-3.602.184-.377-.026-.823-.638-1.032-1.08-.194-.408-.101-.948-.155-1.428-.363-3.215-.365-3.215 2.994-3.101zM648.432 100.332c-.029-.479-.122-.965-.068-1.434.043-.372.245-1.025.411-1.036 1.477-.099 2.994-.277 4.433-.037 1.064.178.861 1.371.839 2.241-.071 2.741-1.768 4.121-4.406 3.456-.466-.118-.949-.778-1.122-1.289-.194-.574-.045-1.263-.045-1.903l-.042.002zM586.546 192.698c-.077-2.119.3-2.519 2.435-2.58 2.528-.073 3.335.535 3.434 2.585.116 2.428-.656 3.19-3.303 3.258-2.167.055-2.458-.315-2.566-3.263zM604.742 174.722c.594.045 1.169.029 1.714.151.368.082.953.316.991.555.187 1.159.395 2.362.263 3.511-.13 1.131-1.195 1.404-2.213 1.48-.641.048-1.303.158-1.923.051-.417-.072-1.058-.425-1.113-.737-.235-1.33-.56-2.739-.336-4.03.234-1.346 1.635-.956 2.617-.981zM264.66 267.575c3.265-.136 3.389-.002 3.029 3.267-.227 2.058-.459 2.265-2.559 2.25-.56-.004-1.121-.017-1.681-.043-.824-.039-1.342-.456-1.508-1.277l-.121-.71c-.554-3.176-.411-3.352 2.84-3.487zM619.964 159.493l.483.034c.93.12 2.142-.122 2.449 1.078.318 1.244.337 2.588-.589 3.672-.537.628-2.94 1.021-3.671.579-.37-.224-.708-.673-.833-1.089-.182-.606-.181-1.272-.219-1.915-.142-2.358-.005-2.487 2.38-2.359zM573.654 205.746l.482.031c2.184.131 2.531.362 2.577 1.717.071 2.081-.707 3.206-2.509 3.497-.931.15-2.26.549-2.59-.534-.396-1.3-.31-2.812-.108-4.185.05-.342 1.35-.499 2.076-.742l.072.216zM79.622 174.981c1.698-.075 2.108.195 2.198 1.446.205 2.876-.444 3.914-2.479 3.96-2.16.049-2.979-.602-3.069-2.442-.105-2.146.687-2.847 3.35-2.964zM35.476 100.303c.028 2.154-.655 2.957-2.542 2.99-2.021.035-2.768-.764-2.814-3.013-.04-1.917.652-2.441 3.229-2.451 1.611-.005 2.102.566 2.127 2.474zM95.08 190.493c1.726-.087 2.16.186 2.25 1.418.167 2.271-.6 3.58-2.136 3.643-2.285.094-3.354-.686-3.389-2.475-.036-1.799.802-2.461 3.275-2.586zM66.154 161.547c.039 2.278-.733 3.282-2.52 3.278-1.643-.004-2.388-.802-2.402-2.573-.015-1.849.729-2.611 2.589-2.65 1.71-.036 2.308.463 2.333 1.945zM496.388 252.304c2.381.058 2.818.375 2.759 2-.08 2.197-.814 2.947-2.891 2.954-1.719.006-2.332-.853-2.262-3.171.048-1.583.382-1.832 2.394-1.783zM635.676 144.129c1.731.002 2.477.668 2.469 2.204-.011 2.06-.839 3.007-2.608 2.983-1.626-.022-2.35-.851-2.328-2.663.021-1.777.753-2.526 2.467-2.524zM112.541 205.95c0 1.156.049 2.009-.012 2.854-.076 1.05-.551 1.852-1.693 2.019-.973.142-2.153.231-2.583-.741-.416-.94-.359-2.113-.376-3.186-.003-.219.568-.598.909-.645 1.155-.156 2.326-.197 3.755-.301zM450.269 272.446c-1.654-.05-2.628-1.137-2.565-2.859.049-1.321.855-1.918 2.544-1.883 1.799.037 2.591.817 2.53 2.49-.058 1.56-.884 2.302-2.509 2.252zM664.2 54.49c-.033-1.966.454-2.633 1.93-2.639 1.887-.008 2.822.81 2.839 2.484.017 1.651-.755 2.399-2.546 2.468-1.716.065-2.191-.428-2.223-2.313zM664.221 23.585c.018-1.803.765-2.601 2.417-2.58 1.581.02 2.352.815 2.33 2.403-.023 1.617-.833 2.342-2.656 2.374-1.595.029-2.108-.51-2.091-2.197zM233.997 267.811c1.802-.031 2.207.283 2.229 1.725.03 1.959-.741 2.885-2.422 2.907-1.657.022-2.414-.757-2.495-2.565-.076-1.707.339-2.027 2.688-2.067zM556.149 221.658c1.051 0 1.931-.101 2.779.022 1.473.213 2.05 1.045 1.939 2.534-.105 1.397-.757 1.923-2.488 2.009-1.487.074-1.985-.324-2.272-1.868-.088-.474-.13-.961-.139-1.443-.007-.311.084-.625.181-1.254zM188.026 252.514c.982-.097 1.709.137 1.753 1.367.07 1.978-.819 3.065-2.568 3.051-1.513-.012-2.325-.776-2.309-2.17.017-1.507.967-2.197 3.124-2.248zM48.506 144.532c1.446.013 1.943.473 1.977 1.829.04 1.628-.794 2.521-2.285 2.446-1.336-.067-2.157-.963-2.196-2.398-.035-1.313.738-1.893 2.504-1.877zM125.744 221.669c1.405.014 1.996.56 1.957 1.806-.049 1.548-.945 2.455-2.37 2.4-1.294-.05-2.033-.855-1.993-2.174.04-1.343.874-2.048 2.406-2.032zM17.713 56.363c-1.516.011-2.401-.73-2.446-2.047-.047-1.381.852-2.281 2.23-2.233 1.26.044 1.921.804 1.955 2.246.032 1.421-.484 2.024-1.739 2.034zM664.553 84.823c-.065-1.576.186-1.934 1.389-1.979 1.715-.063 2.582.512 2.658 1.762.096 1.587-.717 2.595-2.141 2.655-1.37.059-1.828-.526-1.906-2.438zM342.103 283.551c1.824-.017 2.152.193 2.196 1.405.06 1.64-.65 2.38-2.255 2.352-1.596-.028-2.406-.811-2.403-2.323.002-1.151.458-1.416 2.462-1.434zM19.451 23.383c-.012 1.423-.553 2.07-1.736 2.077-1.45.009-2.425-.83-2.427-2.088-.002-1.254.958-2.062 2.445-2.056 1.207.004 1.73.634 1.718 2.067zM649.167 130.792c.04-1.272.65-1.781 2.037-1.699 1.354.08 1.948.677 1.906 1.915-.046 1.35-.812 2.215-1.985 2.24-1.256.027-2.007-.916-1.958-2.456zM372.937 283.703c1.454.036 2.258.747 2.192 1.942-.061 1.117-.794 1.669-2.185 1.644-1.421-.026-2.179-.711-2.177-1.969.001-1.103.738-1.652 2.17-1.617zM311.084 283.662c1.535.005 2.11.439 2.139 1.611.033 1.348-.637 2.013-2.045 2.033-1.58.022-2.319-.652-2.268-2.068.042-1.15.637-1.581 2.174-1.576zM403.649 283.74c1.269.007 2.057.726 2.029 1.849-.027 1.065-.721 1.669-1.914 1.664-1.213-.006-1.881-.728-1.845-1.995.028-1.02.604-1.525 1.73-1.518zM540.983 238.249c.037-.638.659-.983 1.595-.944 1.261.052 2.192.87 2.103 1.842-.082.894-1.07 1.604-2.13 1.531-.978-.067-1.636-.913-1.568-2.429zM280.241 283.765c1.109.046 1.684.591 1.669 1.584-.018 1.213-.793 1.957-1.962 1.886-1.086-.066-1.708-.776-1.67-1.907.035-1.044.75-1.613 1.963-1.563zM19.042 86.732c-2.501.253-3.627-.769-2.892-2.455.223-.512 1.023-.95 1.63-1.072.82-.165 1.34.439 1.372 1.279.026.702-.064 1.409-.11 2.248zM31.538 130.611c.309-.214.781-.772 1.332-.868.884-.154 1.549.691 1.534 1.715-.011.777-.246 1.444-1.157 1.524-.863.077-1.691-.895-1.709-2.371zM139.512 239.032c.06-.853.904-1.423 1.925-1.297.835.103 1.323.56 1.249 1.417-.076.885-.531 1.488-1.505 1.503-.949.015-1.729-.757-1.669-1.623zM480.744 271.607c-.867-.081-1.2-.731-1.18-1.619.02-.886.581-1.263 1.401-1.246.867.018 1.564.342 1.642 1.334.067.856-.772 1.578-1.863 1.531zM202.856 272.202c-.624-.995-1.182-1.514-1.261-2.098-.117-.857.572-1.289 1.399-1.281.878.009 1.436.541 1.223 1.391-.146.577-.696 1.051-1.361 1.988zM666.691 117.739c-.622-.888-1.159-1.329-1.189-1.803-.023-.365.523-.985.933-1.111.699-.214 1.322.274 1.289.997-.023.496-.498.971-1.033 1.917zM251.05 285.937c-.866.521-1.424 1.117-1.799 1.018-.464-.122-1.005-.779-1.098-1.281-.134-.72.465-1.29 1.201-1.106.5.124.89.691 1.696 1.369zM434.377 287.662c-.458-1.067-.82-1.576-.873-2.116-.075-.763.459-1.195 1.216-1.172.755.023 1.32.488 1.113 1.233-.16.583-.721 1.056-1.456 2.055zM680.43 38.698c.824-.447 1.313-.92 1.776-.895.343.019.65.685.973 1.062-.431.359-.822.902-1.308 1.006-.29.064-.728-.563-1.441-1.173zM525.721 254.848c.703-.576 1.088-1.033 1.575-1.211.165-.06.886.656.831.896-.121.523-.578.969-.898 1.446l-1.508-1.131zM682.332 68.605c.263.405.688.797.723 1.221.019.232-.716.795-.947.718-.41-.137-.881-.605-.977-1.016-.084-.36.311-.832.494-1.255l.707.332zM619.075 192.962l1.137-.97c.312.374.759.711.873 1.138.048.181-.594.757-.936.769-.301.009-.62-.516-1.074-.937zM603.496 208.684c.578-.509.9-.951 1.318-1.083.174-.055.786.554.784.858-.003.337-.429.85-.768.948-.272.078-.689-.35-1.334-.723zM155.327 254.904c.55-.447.924-.956 1.168-.9.355.081.809.54.863.893.046.306-.405.687-.637 1.035l-1.394-1.028zM15.988 115.359c.635-.259 1.089-.62 1.397-.521.335.107.534.64.792.987-.361.221-.758.658-1.074.606-.348-.058-.62-.566-1.115-1.072zM635.744 176.57c.397.48.864.876.8 1.001-.181.357-.551.654-.912.857-.088.05-.648-.409-.615-.536.102-.393.385-.739.727-1.322zM682.76 6.725c.116.368.38.768.308 1.094-.08.365-.414.745-.743.946-.12.073-.795-.378-.777-.544.039-.375.352-.721.554-1.079l.658-.417zM62.526 193.107c.45-.31.774-.699 1.003-.65.291.063.669.464.7.753.023.217-.447.689-.686.681-.286-.01-.56-.408-1.017-.784zM.821 39.073c.369-.404.575-.797.75-.784.32.024.622.289.932.453-.156.244-.29.667-.474.69-.31.04-.652-.175-1.208-.359zM79.102 207.587c.291.566.627.921.566 1.185-.057.246-.52.49-.836.542-.137.022-.528-.47-.492-.674.054-.304.384-.559.762-1.053zM588.576 224.329c.449-.364.692-.635.995-.757.079-.032.499.41.484.615-.017.233-.312.565-.547.627-.192.051-.472-.23-.932-.485zM651.197 163.151c-.232-.351-.544-.722-.499-.773.215-.24.527-.393.805-.577.145.23.429.483.395.683-.035.212-.372.373-.701.667zM511.281 270.687c.324-.302.534-.642.708-.624.215.022.537.328.558.536.02.2-.258.57-.457.611-.184.036-.436-.266-.809-.523zM94.211 223.274c.33.434.618.647.624.868.006.215-.275.439-.43.659-.203-.19-.513-.35-.576-.578-.053-.198.175-.472.382-.949zM47.56 177.755l.667-.308.346.751c-.208.061-.452.217-.614.155-.161-.06-.239-.34-.399-.598zM1.666 69.061l.63.403c-.121.172-.22.459-.367.487-.173.032-.388-.162-.584-.258l.321-.632zM573.315 239.733c.379-.295.564-.525.792-.581.119-.029.459.265.444.382-.031.251-.227.481-.356.719l-.88-.52zM465.51 286.459c-.035-.204-.1-.394-.08-.574.007-.061.231-.097.356-.145.061.182.14.362.165.549.005.029-.232.092-.441.17zM681.695 100.625c.266-.206.424-.425.588-.429.169-.005.344.199.517.311-.144.147-.272.382-.438.414-.16.031-.36-.149-.667-.296zM1.74 7.456c.077.242.179.441.189.644.005.101-.2.314-.24.298-.171-.067-.317-.201-.472-.31l.523-.632zM32.33 162.097l.37.215-.356.452c-.093-.11-.255-.218-.258-.33-.003-.11.156-.225.244-.337zM218.123 285.659l.281.31-.431.325c-.058-.129-.178-.271-.156-.385.019-.099.198-.167.306-.25zM171.308 270.506l.307-.298c.094.112.26.224.26.337 0 .102-.18.205-.28.307l-.287-.346zM666.984 146.794l.385.184c-.072.121-.124.317-.223.344-.105.029-.254-.101-.384-.162l.222-.366zM109.561 239.786l.166-.089-.006.186zM75.335 13.372l-2.396-.63c.304 2.222.769 4.109.762 5.994-.007 1.813-.502 3.625-.833 5.757.854-.19 1.525-.312 2.182-.489 4.367-1.176 8.21-.327 11.219 3.146 3.095 3.571 3.237 7.635 1.406 11.801-1.838 4.181-7.092 6.565-11.812 5.502-1.003-.226-1.994-.506-3.184-.811.385 2.182.992 4.125.997 6.07.005 1.882-.61 3.765-1.018 6.006l2.567-.739c4.682-1.336 9.247.312 11.893 4.293 2.535 3.815 2.357 9.14-.651 12.662-2.66 3.114-6.133 4.35-10.217 3.623-1.019-.181-2.02-.462-3.335-.768.311 2.013.777 3.784.804 5.561.028 1.823-.374 3.653-.612 5.681.547-.046 1.101.01 1.582-.15 3.561-1.187 6.843-.586 9.937 1.432.201.131.415.24.634.343l.656.308c-.389-.796-.764-1.599-1.168-2.387-3.318-6.469.086-13.678 7.177-15.194 5.665-1.211 11.405 3.164 12.195 9.294.723 5.607-3.85 10.894-9.534 11.198-3.064.164-5.698-.817-8.188-2.429.604 1.14 1.285 2.247 1.795 3.427 1.209 2.799 1.276 5.637.067 8.475-.269.631-.479 1.286-.886 2.392 6.104-2.618 11.375-2.471 15.195 3.059 2.517 3.644 2.588 7.718.241 11.436-3.365 5.33-8.424 5.961-14.36 4.022.44 2.019 1.037 3.702 1.113 5.408.077 1.726-.361 3.475-.6 5.429 1.962-.161 3.784-.511 5.576-.399 1.733.108 3.437.692 5.549 1.153-.281-.872-.525-1.583-.741-2.304-2.012-6.725 2.369-13.328 9.204-13.881 4.223-.341 8.286 2.061 10.193 6.027 1.9 3.952 1.232 8.273-1.718 11.466-3.202 3.465-7.004 4.395-11.44 2.836-.588-.207-1.189-.375-1.994-.627.428 2.002 1.003 3.759 1.132 5.549.13 1.81-.181 3.652-.312 5.692 2.05-.157 3.96-.531 5.828-.381 1.785.143 3.527.832 5.535 1.343-.293-.89-.55-1.623-.777-2.364-1.92-6.252 1.365-12.151 7.625-13.702 7.078-1.754 14.01 5.03 12.422 12.156-1.391 6.241-6.836 9.491-13.295 7.929-.842-.204-1.675-.44-2.659-.7.433 2.071 1.035 3.906 1.143 5.769.105 1.809-.296 3.647-.491 5.631 2.037-.22 3.939-.674 5.804-.556 1.859.118 3.682.809 5.729 1.299-.287-.866-.549-1.603-.777-2.35-1.902-6.254 1.404-12.143 7.671-13.677 6.969-1.705 13.856 4.924 12.432 11.964-1.285 6.351-6.835 9.724-13.375 8.121-.833-.204-1.657-.45-2.67-.728.457 2.057 1.053 3.812 1.186 5.601.129 1.737-.216 3.51-.374 5.543 1.902-.12 3.717-.426 5.499-.294 1.813.134 3.594.7 5.739 1.15-.266-.95-.514-1.758-.719-2.576-1.588-6.351 1.733-11.963 7.903-13.371 4.248-.97 8.651 1.066 11.118 5.14 2.235 3.691 1.826 8.511-.997 11.75-3.176 3.644-7.185 4.73-11.809 3.205-.59-.195-1.191-.356-1.962-.585.423 1.997.988 3.759 1.122 5.552.13 1.741-.181 3.515-.316 5.538 1.765-.242 3.476-.703 5.17-.645 1.737.06 3.457.628 5.536 1.045-.149-.795-.176-1.482-.409-2.091-1.668-4.353.869-9.668 4.503-12.066 3.607-2.38 8.577-2.082 12.272.724 3.217 2.444 4.657 7.564 3.27 11.646-.259.762-.545 1.515-.787 2.282-.036.114.101.283.25.655 4.612-2.158 9.176-2.463 13.216 1.235 4.024 3.683 4.354 8.226 2.447 13.333 2.35-.34 4.386-.945 6.384-.836 2.028.111 4.018.926 6.246 1.489-.2-.644-.335-1.235-.564-1.788-2.612-6.312.559-12.826 7.136-14.404 4.09-.981 7.534.416 10.171 3.569 2.728 3.261 3.277 7.012 1.489 10.887-1.688 3.657-4.588 5.757-8.732 5.894-1.96.065-3.872-.123-5.662-1.024-.329-.166-.715-.219-1.164-.351.566 2.028 1.321 3.841 1.522 5.713.192 1.791-.191 3.643-.349 5.843 3.499-.82 6.902-1.339 10.692.647-.242-1.524-.325-2.358-.512-3.168-1.054-4.551.586-8.13 4.129-10.862 3.212-2.477 6.895-2.842 10.532-1.176 4.001 1.833 6.238 5.088 6.144 9.602-.038 1.826-.48 3.643-.755 5.588 2.028-.336 4.124-1.018 6.188-.931 2.022.085 4.011.952 6.333 1.56-.268-.783-.454-1.433-.708-2.055-2.553-6.24.795-12.817 7.406-14.267 4.094-.898 7.528.558 10.105 3.76 2.666 3.312 3.136 7.072 1.284 10.915-1.705 3.538-4.569 5.711-8.603 5.661-2.277-.029-4.546-.61-6.873-.951.481 1.555 1.229 3.258 1.496 5.034.269 1.788.059 3.648.059 5.725 1.515-.153 3.162-.467 4.803-.442 1.589.025 3.172.399 4.848.633.618-.841.055-1.682-.088-2.495-1.043-5.955 2.485-11.37 8.258-12.635 7.147-1.566 13.694 4.359 12.914 11.703-.125 1.174-.339 2.338-.578 3.956 3.85-1.192 7.396-1.403 11.341.424-.274-1.353-.376-2.19-.616-2.985-1.507-4.989 1.792-10.634 6.381-12.466 4.98-1.988 10.464-.03 13.152 4.696 1.397 2.457 1.49 5.068.924 7.755-.177.838-.392 1.668-.628 2.664 2.177-.301 4.062-.787 5.939-.759 1.895.028 3.783.566 6.019.937-.18-.757-.253-1.432-.498-2.038-1.913-4.718.852-9.989 4.327-12.324 3.654-2.455 8.897-2.251 12.437.817 3.24 2.808 4.337 6.509 3.409 10.743l-.535 2.105c-.028.124.109.284.196.489 1.866-.263 3.751-.732 5.636-.735 1.815-.003 3.63.476 5.813.797-.201-1.032-.35-1.941-.557-2.837-1.233-5.326 1.837-10.819 7.015-12.53 5.151-1.702 10.696.729 12.95 5.701 1.045 2.305 1.037 4.699.486 7.121-.175.768-.362 1.534-.613 2.59 2.133-.448 3.972-1.096 5.828-1.148 1.79-.05 3.598.515 5.769.87-.254-1.113-.456-1.938-.631-2.769-1.101-5.241 1.975-10.946 6.934-12.385 5.956-1.729 10.82.545 13.352 5.795.992 2.057.824 4.248.609 6.428-.078.791-.234 1.574-.406 2.691 1.901-.302 3.587-.751 5.282-.788 1.655-.036 3.32.347 5.022.551 0-1.962-.168-3.802.047-5.595.217-1.802.816-3.559 1.301-5.555-.636.166-1.138.324-1.652.425-1.49.294-2.978.758-4.479.812-5.451.195-8.732-2.977-10.017-7.76-1.3-4.84.985-9.487 5.5-11.743 3.786-1.892 7.43-1.433 10.699 1.09 3.414 2.635 4.835 6.192 3.892 10.495-.286 1.305-.833 2.553-1.276 3.875 2.216-.569 4.278-1.462 6.369-1.532 2.081-.07 4.189.687 6.629 1.146-2.517-5.925-1.648-11.014 3.641-14.657 3.382-2.33 7.224-2.461 10.785-.328 5.638 3.377 6.315 8.514 4.249 14.537 2.141-.46 3.912-1.083 5.707-1.158 1.731-.073 3.485.419 5.439.691-.099-2.058-.445-4.054-.219-5.984.226-1.936 1.021-3.805 1.638-5.952-3.372 1.788-6.793 2.433-10.348 1.217-2.159-.739-3.649-2.388-4.858-4.221-2.5-3.79-1.933-9.034 1.246-12.587 2.828-3.161 7.75-4.044 11.789-2.165 2.996 1.395 4.693 3.798 5.69 6.865.998 3.071-.185 5.815-1.454 8.672 2.454-.627 4.521-1.512 6.618-1.59 2.02-.075 4.07.684 6.452 1.144-.256-.808-.488-1.528-.712-2.251-2.35-7.607 3.212-14.633 11.124-14.053 5.2.381 9.216 4.401 9.449 9.634.081 1.825-.195 3.667-.322 5.73 1.719-.288 3.337-.713 4.971-.79 1.586-.075 3.189.208 5.019.352-.109-1.748-.371-3.406-.269-5.041.098-1.581.571-3.138.89-4.756-1.172-.632-2.14.054-3.11.23-4.214.765-7.749-.523-10.365-3.789-2.647-3.304-2.944-7.122-1.222-10.969 2.15-4.803 7.708-7.227 12.538-5.612 5.287 1.768 8.367 7.108 7.159 12.428-.207.912-.448 1.817-.809 3.268 3.858-1.509 7.393-1.682 11.433-.48-1.296-4.154-1.195-7.771.979-11.566-1.061.194-1.565.294-2.072.377-1.501.247-2.999.665-4.505.698-3.98.087-7.105-1.621-8.896-5.195-1.824-3.64-1.703-7.367.56-10.838 2.745-4.209 8.321-5.727 12.84-3.603 4.761 2.238 7.2 7.649 5.649 12.539-.262.826-.54 1.647-.906 2.762 2.163-.51 3.984-1.192 5.839-1.306 1.885-.116 3.805.329 5.84.541.028-.299.139-.618.073-.896-.786-3.309-.88-6.554.746-9.679.13-.25.089-.589.171-1.219-3.824 1.57-7.502 2.186-11.137.322-2.169-1.113-3.587-2.961-4.557-5.173-1.725-3.93-.579-9.039 2.645-11.739 3.79-3.174 8.682-3.504 12.568-.847 4.601 3.146 5.549 7.515 3.13 14.777 2.027-.554 3.96-1.397 5.942-1.536 1.948-.137 3.945.441 6.119.732-.199-1.893-.649-3.849-.54-5.773.111-1.967.77-3.904 1.219-5.99-.798-.352-1.432.34-2.151.542-3.762 1.055-7.348.993-10.525-1.658-3.844-3.208-4.825-9.167-2.213-13.427 2.687-4.382 8.164-6.11 12.914-4.074 4.676 2.005 7.255 7.291 5.908 12.203-.315 1.148-.785 2.254-1.242 3.544 2.078-.592 3.952-1.434 5.882-1.589 1.943-.157 3.941.369 6.131.621-.258-1.983-.777-3.875-.67-5.731.108-1.882.835-3.728 1.364-5.892-.767.217-1.414.411-2.067.581-2.973.772-5.947.901-8.745-.535-3.948-2.027-5.608-5.42-5.377-9.776.232-4.393 2.409-7.459 6.498-9.076 3.987-1.576 7.598-.917 10.746 2.052 3.266 3.08 4.238 6.745 2.838 11.027-.2.612-.375 1.233-.528 1.859-.03.124.096.287.172.488 1.764-.424 3.521-1.091 5.313-1.208 1.802-.118 3.64.311 5.868.542-1.001-3.729-1.087-7.269.767-11.183-1.359.337-2.102.507-2.839.707-5.129 1.388-10.207-.816-12.46-5.415-2.296-4.686-.928-10.256 3.402-13.373 3.057-2.201 6.41-2.471 9.897-1.08.808.322 1.594.696 2.9 1.27-.43-1.091-.644-1.731-.928-2.338-2.053-4.38-1.251-8.407 1.77-11.956 2.949-3.463 6.899-3.855 11.096-2.981.695.145 1.366.402 2.385.709-.416-2.176-1.079-4.088-1.062-5.994.017-1.951.702-3.897 1.151-6.129-1.2.337-2.243.663-3.303.923-4.025.987-8.524-.703-10.924-4.082-2.536-3.571-2.652-8.108-.303-11.859 2.265-3.616 6.24-5.498 10.366-4.766 1.408.25 2.761.81 4.53 1.347-.436-1.577-.943-2.89-1.134-4.247-.189-1.344-.211-2.754-.027-4.096.192-1.397.718-2.749 1.189-4.451-1.273.383-2.237.707-3.219.963-5.209 1.358-10.385-1.069-12.469-5.829-2.134-4.875-.37-10.478 4.258-13.32 2.699-1.657 5.597-1.969 8.614-.96.82.274 1.626.591 2.991 1.09-1.85-4.462-2.126-8.524-.092-12.571-1.09-.5-1.762.125-2.468.365-6.748 2.29-13.158-1.564-14.221-8.61-.13-.862-.113-1.774.028-2.635.115-.759.285-.758.544-1.758h-11.858c.297 1 .49 1.052.631 1.853.917 5.215-3.203 10.526-8.487 10.931-3.359.258-6.355-.349-8.747-3.069-2.224-2.529-2.759-5.384-2.274-8.548.073-.475.182-1.167.341-1.167h-13.174c.23 1 .369.97.46 1.706.786 6.376-3.72 11.109-10.052 10.563-4.764-.41-8.698-5.218-8.158-9.978.117-1.027.327-1.291.698-2.291h-14.747c.242 0 .421.856.569 1.478 1.06 4.453-2.23 9.224-6.886 9.988-4.9.804-9.45-2.642-9.768-7.398-.022-.322-.026-.638-.025-.961.005-1.472.153-2.107.589-3.107h-16.314c.459 1 .626 1.634.636 3.078.032 4.499-3.592 7.992-8.023 7.74-4.407-.251-7.752-4.154-7.306-8.533.101-.992.337-1.285.752-2.285h-17.984c.251 0 .446.767.589 1.261.809 2.787-.228 5.791-2.63 7.429-2.411 1.644-5.876 1.62-8.161-.054-2.26-1.655-3.266-4.876-2.391-7.541.14-.427.324-1.095.553-1.095h-19.981c.362 1 .621 1.025.813 1.785.62 2.462-.509 5.01-2.829 6.389-2.051 1.22-5.414.943-7.034-.576-1.843-1.728-2.433-5.003-1.313-7.145.088-.168.188-.453.294-.453h-21.988c.522 1 .832 1.304.99 2.326.407 2.644-1.104 4.995-3.696 5.761-2.046.604-4.348-.349-5.642-2.333-1.112-1.704-.996-4.105.229-5.68l.068-.074h-23.869c.894 1 1.422 1.97 1.37 3.302-.093 2.4-1.978 4.145-4.466 4.141-2.696-.004-4.423-1.702-4.425-4.362-.002-1.314.404-2.081 1.149-3.081h-24.65c.884 1 1.41 1.946 1.37 3.265-.072 2.4-1.948 4.168-4.429 4.179-2.7.012-4.433-1.665-4.46-4.327-.013-1.328.392-2.117 1.145-3.117h-23.705c.448 1 .746 1.084.934 1.89.564 2.423-.548 4.822-2.731 5.895-2.169 1.066-4.942.487-6.353-1.391-.902-1.201-1.349-2.573-1.119-4.092.153-1.005.474-1.302 1.009-2.302h-21.626c.297 0 .515.883.674 1.523.616 2.474.023 4.674-1.938 6.314-1.875 1.569-4.057 1.884-6.32.83-2.3-1.071-3.652-2.887-3.786-5.436-.073-1.383.317-2.231 1.078-3.231h-19.845c.23 0 .417.673.568 1.094 1.364 3.818-1.491 8.364-5.528 8.765-5.352.531-8.876-3.153-7.87-8.232.136-.687.327-.627.607-1.627h-17.858c.212 0 .385.637.52 1.043.954 2.873-.274 6.553-2.849 8.363-2.788 1.96-6.692 1.963-9.295.011-2.723-2.042-3.904-5.668-2.843-8.586.117-.318.258-.831.424-.831h-16.083c.463 1 .63 1.65.635 3.113.018 4.711-3.68 8.542-8.334 8.641-4.571.097-8.807-3.908-8.925-8.443-.039-1.507.221-2.31.84-3.31h-14.467c.23 0 .4.88.548 1.532.835 3.674-1.341 8.307-4.93 9.894-3.359 1.486-6.768 1.432-9.877-.812-2.877-2.076-3.954-4.99-3.674-8.447.078-.963.252-1.168.578-2.168h-12.986c.278 1 .448 1.047.56 1.848.74 5.275-2.672 9.914-8.152 11.089-4.932 1.058-10.024-2.071-11.31-7.063-.334-1.298-.477-2.704-.371-4.037.063-.802.204-.837.457-1.837h-11.585c.21 0 .346.878.442 1.53 1.148 7.835-5.687 13.878-13.385 11.842zm18.638 46.445c-5.828.029-10.343-4.426-10.458-10.121-.103-5.116 4.681-10.644 10.352-10.193 5.281-.377 10.166 4.454 10.138 10.088-.028 5.781-4.336 10.197-10.032 10.226zm5.436 5.28c.019-5.871 5.668-10.093 9.829-10.026 5.457.088 10.093 4.619 10.022 10.068-.062 4.788-3.461 10.007-10.094 9.725-5.029.602-9.774-4.537-9.757-9.767zm388.41 77.51c.055-4.745 4.445-9.531 9.357-9.062 5.366.062 9.002 3.81 8.972 9.249-.03 5.45-3.924 9.142-9.41 9.129-5.435-.012-8.966-5.244-8.919-9.316zm3.172 15.685c-.058 4.453-3.647 9.452-9.555 9.143-5.267-.015-9.177-3.932-9.151-9.205.025-5.31 3.777-9.208 9.338-9.461 4.873-.221 9.433 4.534 9.368 9.523zm12.346-31.091c-.009-3.891 3.407-9.402 9.327-9.158 5.274-.002 9.036 3.886 8.994 9.295-.041 5.351-3.857 9.085-9.251 9.051-4.867-.031-9.059-4.299-9.07-9.188zm15.446-15.652c.221-5.133 4.164-9.196 9.284-9.252 4.95-.054 9.426 4.467 9.38 9.475-.046 5.094-4.192 9.146-9.331 9.12-4.912.31-9.54-4.532-9.333-9.343zm.492-30.871c-.104-5.635 5.179-8.998 8.661-9.053 4.949-.077 9.133 4.094 9.112 9.093-.021 5.054-3.805 8.682-9.051 8.677-5.049-.004-8.628-3.671-8.722-8.717zm15.029 15.417c.036-5.324 4.317-9.58 9.529-9.473 4.818.099 9.312 4.835 9.274 9.696-.03 3.898-3.684 9.438-9.602 9.127-5.509-.29-9.238-3.868-9.201-9.35zm15.144-15.572c.097-4.693 4.565-9.825 9.686-9.479 5.48.06 9.571 4.251 9.519 9.751-.051 5.444-4.337 9.612-9.775 9.505-5.033-.099-9.533-4.775-9.43-9.777zm15.404-15.64c.04-5.226 4.654-9.971 9.773-9.697 6.096.326 9.785 4.315 9.863 10.148.057 4.242-3.081 9.707-10.066 9.52-5.576-.033-9.614-4.24-9.57-9.971zm-5.842-5.894c-5.552-.226-9.298-4.044-9.196-9.645-.199-5.157 4.607-9.42 9.442-9.279 5.285.154 9.428 4.491 9.363 9.738-.049 4.04-3.769 9.424-9.609 9.186zm-6.342 6.201c-.085 5.261-3.904 9.153-8.968 9.137-5.143-.016-9.322-4.166-9.278-9.213.044-5.055 4.244-9.145 9.355-9.111 5.039.033 8.973 4.098 8.891 9.187zm-24.543-6.841c-4.87.045-8.803-3.852-8.787-8.707.016-4.896 3.837-8.656 8.811-8.669 4.915-.013 8.487 3.565 8.536 8.547.049 5.058-3.563 8.783-8.56 8.829zm-7.083 6.662c.036 4.512-3.856 8.666-8.458 8.389-4.867.035-8.257-3.265-8.313-8.093-.056-4.724 3.669-8.672 8.213-8.707 4.588-.034 8.522 3.796 8.558 8.411zm-8.488 22.498c4.852-.045 8.427 3.654 8.66 8.548.228 4.787-4.119 8.871-8.406 8.832-4.977-.046-8.917-3.726-8.979-8.587-.063-4.906 3.749-8.748 8.725-8.793zm-6.915 24.394c-.082 4.682-3.908 8.456-8.541 8.425-4.588-.03-8.737-4.143-8.719-8.642.02-4.807 4.028-8.691 8.913-8.636 4.67.052 8.431 4.042 8.347 8.853zm-15.511 15.493c-.075 4.684-3.896 8.469-8.523 8.442-4.593-.027-8.881-4.128-8.701-8.623.224-5.606 4.279-8.622 8.86-8.655 4.669.044 8.441 4.028 8.364 8.836zm-15.489 15.313c.008 4.943-3.659 8.7-8.482 8.692-4.972-.008-8.871-3.829-8.862-8.683.009-4.911 3.846-8.677 8.842-8.678 4.822 0 8.495 3.745 8.502 8.669zm-15.147 15.648c-.078 4.991-3.943 8.626-9.135 8.593-5.016-.032-8.646-3.731-8.614-8.777-.16-5.176 4.559-8.921 8.936-8.949 4.679-.029 8.887 4.369 8.813 9.133zm-15.38 15.484c.08 4.527-4.178 9.205-9.171 9.042-4.962-.009-9.11-4.182-9.095-9.15.016-4.954 4.188-9.138 9.115-9.139 5.254-.001 9.057 3.962 9.151 9.247zm-9.108-22.927c-4.514-.069-8.221-3.728-8.247-8.138-.028-4.698 3.733-8.32 8.565-8.249 4.558.067 7.827 3.454 7.802 8.081-.026 4.931-3.397 8.378-8.12 8.306zm-6.959 7.27c.035 4.664-3.786 8.547-8.424 8.509-4.829-.04-8.708-3.796-8.439-8.384-.384-4.756 4.15-8.769 8.184-8.72 4.759.057 8.643 3.831 8.679 8.595zm-15.17 15.691c-.092 4.986-3.86 8.621-8.893 8.578-5.136-.044-8.794-3.835-8.792-8.911.001-5.173 4.8-8.833 8.867-8.76 4.896.087 8.908 4.251 8.818 9.093zm-15.304 15.243c.041 5.509-3.729 9.247-9.201 9.339-5.572.094-9.072-5.115-9.127-9.107-.069-4.93 4.474-9.495 9.149-9.321 5.407.202 9.139 3.708 9.179 9.089zm-9.024-22.691c-4.522-.032-8.257-3.651-8.322-8.064-.07-4.699 3.669-8.366 8.489-8.326 4.569.038 7.877 3.4 7.879 8.007.001 4.933-3.342 8.416-8.046 8.383zm-6.994 7.395c-.028 4.754-3.72 8.551-8.359 8.598-4.893.049-8.888-3.831-8.906-8.65-.018-4.768 3.835-8.67 8.583-8.693 5.035-.024 8.712 3.679 8.682 8.745zm-14.997 15.623c.038 4.477-4.218 9.102-9.265 8.964-4.964-.136-9.08-4.305-9.001-9.26.079-4.968 4.274-9.088 9.209-9.045 5.243.046 9.012 4.05 9.057 9.341zm-24.362-7.074c-4.565.097-8.935-3.9-8.888-8.433.054-5.169 3.683-8.69 8.668-8.843 4.686-.052 8.552 3.855 8.554 8.645.002 4.713-3.685 8.532-8.334 8.631zm-6.679 6.795c-.039 5.278-3.797 9.204-8.857 9.249-5.141.046-9.356-4.037-9.391-9.099-.035-5.035 4.151-9.213 9.242-9.225 5.059-.011 9.043 4.003 9.006 9.075zm-24.408-6.746c-4.892.027-8.885-3.888-8.867-8.692.018-4.781 3.875-8.648 8.627-8.651 4.936-.003 8.582 3.602 8.641 8.545.058 4.873-3.665 8.772-8.401 8.798zm-6.603 6.816c.001 5.476-3.838 9.187-9.32 9.22-5.499.034-9.011-5.196-9.011-9.226 0-4.817 4.46-9.598 9.267-9.153 5.386.032 9.064 3.748 9.064 9.159zm-9.127-22.812c-4.525-.083-8.211-3.744-8.219-8.165-.009-4.7 3.758-8.303 8.593-8.221 4.549.077 7.809 3.478 7.774 8.109-.038 4.923-3.425 8.364-8.148 8.277zm-6.507 7.427c-.066 4.99-3.928 8.638-9.116 8.611-5.022-.026-8.581-3.715-8.654-8.759-.075-5.184 4.563-8.928 8.939-8.968 4.678-.042 8.894 4.347 8.831 9.116zm-24.369-7.058c-4.711-.021-8.666-4.005-8.599-8.662.067-4.618 4.001-8.574 8.48-8.525 4.757.051 8.582 3.936 8.553 8.686-.028 4.707-3.813 8.522-8.434 8.501zm-6.532 7.154c-.064 5.104-4.07 9.043-9.109 8.958-5.097-.086-9.28-4.326-9.208-9.296.057-3.866 3.456-9.318 9.424-9.03 5.243.039 8.961 3.956 8.893 9.368zm-8.996-23.016c-4.612.064-8.354-3.613-8.35-8.205.004-4.705 3.525-8.183 8.305-8.203 4.716-.02 8.024 3.279 8.073 8.053.051 4.942-3.164 8.288-8.028 8.355zm-6.579 7.258c.037 4.999-3.778 8.725-8.972 8.763-4.766.47-8.988-4.307-8.921-8.559.076-4.839 3.352-9.014 8.925-9.217 4.691-.173 8.932 4.193 8.968 9.013zm-24.719-6.771c-4.774-.041-8.545-3.857-8.56-8.66-.015-4.888 3.826-8.742 8.697-8.728 5.661-.042 8.76 3.99 8.796 8.827.035 4.767-4.064 8.602-8.933 8.561zm-77.234-64.857c5.095.046 9.411 4.357 9.395 9.468-.017 5.392-4.192 9.715-9.432 9.68-5.883-.039-9.708-4.755-9.392-9.563-.309-6.196 5.314-9.622 9.429-9.585zm-15.791 3.777c-5.24-.023-9.51-4.291-9.567-9.565-.059-5.504 4.22-9.745 9.835-9.747 5.311-.002 9.409 4.126 9.447 9.518.04 5.611-4.133 9.818-9.715 9.794zm31.175-.697c-5.489-.114-8.865-3.867-8.816-8.867-.029-5.176 3.645-9.122 8.572-9.207 4.872-.084 9.172 4.084 9.261 8.976.09 4.952-4.002 9.202-9.017 9.098zm15.55-2.373c4.75-.006 8.817 3.986 8.813 8.815-.003 4.069-3.178 8.909-8.729 8.815-5.003.013-8.846-3.682-8.912-8.568-.066-4.866 4.015-9.055 8.828-9.062zm-15.459 14.967c4.879-.204 9.425 4.565 9.343 9.549-.073 4.43-3.64 9.336-9.582 9.147-5.257-.167-9.148-3.984-9.129-9.261.059-5.344 3.847-9.203 9.368-9.435zm6.146 24.935c.024-5.242 4.199-9.409 9.383-9.366 4.877.041 9.217 4.439 9.245 9.369.029 5.08-4.102 9.084-9.218 9.267-5.043.182-9.731-4.585-9.41-9.27zm24.743 6.132c5.077-.172 9.406 4.29 9.402 9.378-.004 5.166-4.022 9.212-9.173 9.236-5.492.026-9.44-3.772-9.46-9.121-.021-5.328 3.802-9.31 9.231-9.493zm15.502 15.365c4.884-.084 9.567 4.68 9.558 9.653-.007 4.029-3.814 9.552-9.315 9.121-5.707.017-9.512-3.695-9.489-9.26.021-5.249 4.079-9.425 9.246-9.514zm.233-12.756c-4.974-.068-8.904-3.781-8.932-8.633-.028-4.915 3.787-8.72 8.771-8.748 4.845-.027 8.394 3.687 8.614 8.595.211 4.71-4.095 8.845-8.453 8.786zm-15.664-15.534c-4.971-.052-8.839-3.913-8.78-8.763.06-4.915 3.915-8.627 8.924-8.595 4.811.031 8.439 3.802 8.419 8.75-.018 4.924-3.734 8.658-8.563 8.608zm-.111-31.509c-4.615-.102-8.33-3.934-8.181-8.44.152-4.606 3.879-8.039 8.623-7.945 4.632.092 7.876 3.608 7.737 8.385-.139 4.77-3.547 8.103-8.179 8zm.057-31.242c-4.638-.06-7.827-3.317-7.821-7.986.006-4.582 3.374-8.103 7.768-8.124 4.372-.021 8.154 3.797 8.126 8.201-.029 4.371-3.699 7.966-8.073 7.909zm-6.954 7.456c.055 4.665-3.748 8.563-8.389 8.544-4.859-.02-8.733-3.799-8.474-8.35-.406-4.785 4.15-8.786 8.149-8.755 4.75.038 8.657 3.804 8.714 8.561zm-23.838-6.718c-5.174.047-8.914-3.638-9.018-8.686-.108-5.276 4.612-8.918 8.642-8.987 4.843-.083 9.094 3.984 9.008 8.868-.094 5.437-3.793 8.77-8.632 8.805zm-6.636 6.811c-.009 5.468-3.869 9.183-9.347 9.192-5.528.009-9.001-5.244-8.983-9.252.021-4.805 4.459-9.576 9.295-9.125 5.38.04 9.043 3.765 9.035 9.185zm-24.493-5.921c-5.186.01-9.602-4.311-9.681-9.471-.078-5.07 4.384-9.702 9.401-9.759 5.374-.061 9.7 4.212 9.72 9.601.021 5.314-4.2 9.619-9.44 9.629zm-25.813 36.785c.109-5.585 4.689-9.998 10.36-9.985 5.796.014 9.916 4.272 9.89 10.221.41 5.809-5.481 10.134-9.949 10.067-5.746-.088-10.411-4.677-10.301-10.303zm15.929 15.665c.002-5.777 4.179-10.064 9.845-10.103 5.31-.037 9.926 4.541 9.948 9.866.024 5.736-4.376 10.159-10.093 10.209-4.907.043-10.11-4.458-9.7-9.972zm25.13 25.199c-5.584.318-9.861-4.998-9.65-9.894.23-5.367 4.666-10.051 9.95-9.809 5.845.268 9.854 4.567 9.781 10.239-.067 5.211-4.168 9.811-10.081 9.464zm15.456 15.52c-5.568-.108-9.604-4.274-9.551-10.005.049-5.223 4.68-9.964 9.795-9.677 6.119.343 9.785 4.362 9.841 10.168.04 4.297-3.131 9.649-10.085 9.514zm5.951 5.888c-.024-5.521 4.492-10.308 9.878-10.087 5.609.23 9.681 4.171 9.822 9.961.125 5.15-3.979 9.735-9.805 9.813-6.192.082-10.21-5.401-9.895-9.687zm25.257 25.409c-4.94.07-10.143-4.453-9.75-9.923-.014-5.796 4.122-10.083 9.796-10.152 5.313-.064 9.947 4.487 9.996 9.816.053 5.736-4.322 10.178-10.042 10.259zm15.585 15.687c-5.657-.124-10.226-4.559-10.241-10.119-.015-5.561 4.534-10.105 10.177-10.166 5.828-.063 10.035 4.129 10.072 10.036.481 6.054-5.554 10.347-10.008 10.249zm15.392-16.07c-5.224-.112-9.544-4.497-9.501-9.645.042-5.107 4.544-9.609 9.58-9.581 5.367.03 9.607 4.377 9.541 9.78-.064 5.301-4.401 9.559-9.62 9.446zm15.781 15.596c-5.711.027-9.937-4.071-9.948-9.646-.01-5.47 4.356-9.88 9.824-9.924 5.055-.041 9.788 4.658 9.766 9.798-.022 5.162-4.392 10.036-9.642 9.772zm15.169 15.906c-6.013-.224-9.831-4.665-9.957-10.114-.127-5.489 4.541-10.061 9.972-10.077 5.629-.016 10.161 4.5 10.162 10.127.002 5.629-4.564 10.273-10.177 10.064zm15.631-16.248c-5.561-.194-9.344-3.993-9.266-9.578-.218-5.244 4.605-9.45 9.375-9.351 5.284.11 9.449 4.411 9.432 9.672-.012 4.058-3.744 9.459-9.541 9.257zm15.575 15.862c-5.608.036-9.815-4.14-9.792-9.723.022-5.397 4.449-10.005 9.804-9.915 5.19.087 9.649 3.99 9.85 9.927.186 5.479-4.205 9.674-9.862 9.711zm15.387 15.972c-5.647-.005-10.146-4.537-10.114-10.188.032-5.646 4.549-10.125 10.192-10.105 5.992.022 10.117 4.245 10.064 10.305-.052 5.906-4.203 9.994-10.142 9.988zm5.885-25.677c.018-5.514 4.318-9.677 9.949-9.632 5.292.042 9.333 4.211 9.333 9.631.001 5.492-4.109 9.642-9.587 9.68-5.342.038-9.713-4.326-9.695-9.679zm25.19 25.637c-5.423.019-10.171-4.564-10.073-10.014.108-6.006 4.682-10.269 10.107-10.223 5.3-.038 9.967 4.498 10.042 9.761.084 5.848-4.348 10.456-10.076 10.476zm15.368-15.995c-5.041-.068-9.647-4.733-9.458-9.748.169-4.495 3.358-9.542 9.59-9.511 5.496.026 9.62 4.197 9.593 9.702-.027 5.513-4.218 9.631-9.725 9.557zm15.464 15.994c-5.435-.101-10.117-4.799-9.885-10.202.264-6.147 4.961-10.17 10.298-10.035 5.284.038 9.847 4.647 9.854 9.952.007 5.814-4.561 10.391-10.267 10.285zm15.816-15.973c-5.287-.029-9.934-4.513-9.76-9.676.176-5.217 3.829-9.633 9.727-9.618 5.284-.02 9.468 4.16 9.52 9.51.053 5.503-4.126 9.814-9.487 9.784zm15.153 16.012c-5.519-.088-10.057-4.839-9.92-10.387.139-5.631 4.688-9.981 10.356-9.902 5.936.083 9.995 4.365 9.894 10.437-.095 5.686-4.559 9.944-10.33 9.852zm15.994-15.939c-5.718-.141-9.921-4.052-9.959-9.63-.037-5.43 4.409-10.024 9.706-10.029 5.325-.005 9.828 4.51 9.906 9.879.073 5.017-4.531 9.906-9.653 9.78zm15.322-16.02c-6.249.284-9.441-5.029-9.341-9.199.13-5.411 4.17-9.724 9.458-9.551 5.238.171 9.164 4.221 9.362 9.544.146 3.957-3.674 9.707-9.479 9.206zm15.366 16.351c-5.387-.022-9.895-4.57-9.854-10.165.04-5.438 4.029-9.686 10.03-9.982 5.378-.053 9.945 4.538 9.981 10.034.037 5.578-4.542 10.137-10.157 10.113zm25.253-25.258c-.293 5.338-4.312 9.425-9.645 9.373-5.579-.055-9.72-4.275-9.706-9.891.013-5.339 4.36-9.507 9.851-9.445 4.981-.324 9.805 4.401 9.5 9.963zm6.082-6.284c-5.377.074-9.47-4.02-9.48-9.483-.334-6.328 5.33-9.674 9.342-9.672 5.099.002 9.454 4.269 9.483 9.38.03 5.399-4.084 9.702-9.345 9.775zm15.243 16.089c-5.424-.012-10.157-4.627-10.024-10.063.148-6.049 4.762-10.246 10.157-10.175 5.296-.019 9.939 4.538 9.994 9.811.061 5.845-4.401 10.44-10.127 10.427zm15.416-15.926c-5.562.383-9.717-5.001-9.687-9.846.034-5.568 5.227-10.024 10.135-9.899 5.257.133 9.82 4.806 9.7 10.115-.111 4.911-3.632 9.953-10.148 9.63zm15.686-15.516c-5.507.022-9.676-4.049-9.751-9.522-.075-5.502 4.407-10.242 9.845-10.116 5.353.125 9.66 4.211 9.81 9.967.144 5.496-4.233 9.648-9.904 9.671zm15.679-15.519c-5.716.014-9.903-4.054-9.917-9.633-.014-5.43 4.46-10.013 9.748-9.987 5.33.027 9.814 4.563 9.864 9.922.047 4.987-4.536 10.025-9.695 9.698zm15.228-15.504c-5.484-.021-9.617-4.156-9.636-9.638-.019-5.494 4.556-10.222 9.96-9.999 5.669.234 9.678 4.646 9.679 10.081.002 4.205-3.044 9.711-10.003 9.556zm15.519-15.427c-5.666.032-10.106-5.122-9.666-9.856-.374-5.618 5.095-10.05 9.979-9.969 5.25.087 9.843 4.728 9.768 10.05-.069 4.909-3.599 9.739-10.081 9.775zm15.462-15.208c-6.022-.234-9.824-4.685-9.943-10.128-.12-5.489 4.553-10.054 9.986-10.063 5.63-.01 10.154 4.511 10.148 10.14-.006 5.627-4.58 10.269-10.191 10.051zm26.008-25.624c.038 5.614-4.472 10.166-10.11 10.202-5.829.038-10.431-4.398-10.464-10.086-.033-5.638 4.578-10.349 10.226-10.45 5.493-.099 10.31 4.711 10.348 10.334zm-.284-31.071c.474 6.011-5.467 10.226-9.774 10.238-5.745.016-10.466-4.474-10.475-10.125-.009-5.562 4.541-10.1 10.185-10.158 5.827-.059 10.03 4.136 10.064 10.045zm-9.95-41.079c5.964.062 10.045 4.335 9.952 10.417-.091 5.876-4.308 9.938-10.253 9.876-5.64-.059-10.102-4.654-10.002-10.299.1-5.654 4.635-10.053 10.303-9.994zm-5.714 25.692c.129 5.501-4.248 9.635-9.923 9.651-5.504.015-9.667-4.066-9.732-9.541-.066-5.501 4.433-10.241 9.865-10.097 5.405.143 9.657 4.28 9.79 9.987zm-25.306-25.164c5.189-.015 9.456 4.354 9.439 9.664-.017 5.337-4.172 9.468-9.574 9.519-5.112.048-9.605-4.488-9.542-9.634.064-5.155 4.502-9.534 9.677-9.549zm-15.775 15.98c5.251-.052 9.125 3.861 9.243 9.123.125 5.6-5.087 9.126-9.072 9.166-4.823.048-9.141-4.2-9.182-9.069-.042-4.932 4.1-9.171 9.011-9.22zm-15.358-15.281c4.83-.044 9.025 4.131 8.862 9.003-.146 4.343-3.532 8.774-8.917 8.637-4.979-.127-8.752-3.862-8.722-8.77.03-4.764 4.05-8.827 8.777-8.87zm-15.533 15.944c4.386.049 8.389 3.994 8.411 8.388.021 4.094-3.387 8.537-8.252 8.322-4.971.013-8.473-3.435-8.43-8.299.041-4.561 3.874-8.46 8.271-8.411zm-15.59-15.162c4.367-.05 8.17 3.754 8.161 8.164-.009 4.368-3.657 7.976-8.037 7.949-4.619-.028-7.851-3.302-7.856-7.955-.005-4.594 3.326-8.108 7.732-8.158zm-7.742 39.094c.168-4.507 3.657-8.084 8.049-7.979 4.071.097 7.835 4.02 7.791 8.12-.047 4.367-3.529 7.702-8 7.664-4.689.305-7.97-4.311-7.84-7.805zm7.79 22.906c4.654-.008 8.119 3.424 8.152 8.077.034 4.735-3.522 8.303-8.245 8.272-4.237-.028-8.01-3.831-8.048-8.111-.039-4.383 3.762-8.23 8.141-8.238zm-15.336-45.994c3.967.032 7.497 3.643 7.45 7.683-.051 4.285-3.178 7.228-7.675 7.223-4.271-.004-7.137-3.004-7.253-7.31-.121-4.499 4.065-7.624 7.478-7.596zm-.361 31.007c4.231-.122 7.733 3.244 7.816 7.513.083 4.238-3.321 7.734-7.566 7.768-4 .033-7.576-3.488-7.639-7.519-.062-4.023 3.387-7.646 7.389-7.762zm.373 30.562c4.202-.003 7.934 3.883 7.932 8.194-.002 4.039-3.448 7.971-8.227 7.672-4.619-.023-7.689-3.163-7.652-7.825.036-4.614 3.42-8.038 7.947-8.041zm-15.66-76.632c3.953-.077 7.107 3.006 7.13 6.972.025 4.205-3.002 7.404-6.999 7.397-3.933-.007-7.248-3.299-7.298-7.246-.046-3.65 3.374-7.049 7.167-7.123zm7.101 38.211c.009 3.776-3.344 6.995-7.24 6.953-3.936-.043-6.746-3.009-6.69-7.06.056-4.062 3.157-7.14 7.082-7.03 3.679.102 6.84 3.397 6.848 7.137zm-6.844 23.565c3.708.068 7.181 3.689 7.192 7.475.011 3.525-3.154 7.474-7.528 7.23-4.171-.017-7.169-3.009-7.196-7.182-.027-4.229 3.349-7.6 7.532-7.523zm-.375 30.403c4.231-.053 8.077 3.707 8.134 7.953.06 4.434-3.403 7.847-7.991 7.877-4.652.03-7.767-2.998-7.823-7.604-.056-4.635 3.244-8.17 7.68-8.226zm-15.267-76.138c3.469.017 6.559 3.253 6.492 6.797-.066 3.489-3.125 6.524-6.531 6.481-3.746-.047-6.528-2.878-6.545-6.657-.015-3.673 2.934-6.639 6.584-6.621zm.067 30.973c3.665.025 6.47 2.943 6.467 6.728-.002 3.657-3.003 6.706-6.572 6.677-3.804-.031-6.856-3.054-6.814-6.749.043-3.698 3.144-6.682 6.919-6.656zm-.296 30.521c4.141-.016 7.19 2.965 7.249 7.087.061 4.25-2.998 7.346-7.243 7.33-3.671-.013-7.076-3.427-7.115-7.131-.043-4.067 3.083-7.271 7.109-7.286zm-.066 30.097c4.359-.091 8.206 3.682 8.243 8.084.036 4.367-3.57 8.007-7.956 8.033-4.606.027-7.908-3.25-7.937-7.876-.03-4.616 3.25-8.149 7.65-8.241zm-15.144-106.644c3.499.112 5.972 2.722 5.944 6.274-.027 3.462-2.713 6.164-6.098 6.135-3.471-.03-6.353-2.921-6.285-6.305.07-3.509 2.926-6.216 6.439-6.104zm5.879 37.172c.041 3.424-2.465 5.867-6.01 5.857-3.73-.011-5.945-2.193-5.927-5.837.017-3.359 2.699-6.135 5.898-6.106 3.202.03 6 2.851 6.039 6.086zm-6.115 24.454c3.57-.029 6.63 3.072 6.598 6.687-.032 3.58-2.689 6.183-6.351 6.222-3.873.041-6.526-2.473-6.552-6.211-.025-3.454 3.003-6.671 6.305-6.698zm-7.229 37.331c.18-4.127 3.525-7.173 7.709-7.018 3.893.144 7.075 3.649 6.883 7.582-.199 4.058-3.459 7.096-7.484 6.973-4.265-.131-7.291-3.34-7.108-7.537zm-8.155-82.856c2.832.018 5.546 2.84 5.493 5.712-.054 2.97-2.417 5.191-5.539 5.207-3.075.016-5.378-2.257-5.379-5.308-.001-3.203 2.345-5.63 5.425-5.611zm-.063 30.918c3.334.046 5.728 2.567 5.627 5.924-.097 3.185-2.672 5.597-5.848 5.479-2.925-.109-5.491-2.783-5.472-5.702.02-3.078 2.681-5.743 5.693-5.701zm-.072 30.118c3.568-.036 6.633 3.062 6.606 6.678-.026 3.58-2.674 6.181-6.344 6.23-3.866.053-6.53-2.465-6.559-6.201-.028-3.458 2.992-6.674 6.297-6.707zm.159 30.006c3.967.018 7.514 3.621 7.473 7.657-.044 4.293-3.16 7.245-7.651 7.247-4.275.002-7.247-2.985-7.249-7.287-.25-4.521 4.034-7.633 7.427-7.617zm-15.535-106.146c2.736-.022 5.004 2.251 5.075 5.087.073 2.907-2.186 5.269-5.089 5.32-2.818.049-5.261-2.375-5.257-5.218.004-2.846 2.359-5.165 5.271-5.189zm4.598 36.242c0 2.869-2.05 4.865-4.891 4.761-2.642-.096-4.663-2.262-4.579-4.909.087-2.74 2.105-4.675 4.821-4.622 2.77.056 4.649 1.984 4.649 4.77zm-4.602 25.321c2.853-.025 5.564 2.712 5.54 5.595-.027 3.155-2.588 5.723-5.68 5.695-3.078-.028-5.482-2.459-5.499-5.56-.017-3.137 2.507-5.702 5.639-5.73zm.069 29.999c3.671.008 6.492 2.909 6.505 6.69.013 3.658-2.969 6.724-6.533 6.716-3.804-.009-6.871-3.012-6.853-6.711.019-3.696 3.11-6.703 6.881-6.695zm-.076 29.787c4.17-.043 7.815 3.626 7.852 7.905.038 4.385-3.332 7.719-7.854 7.77-4.288.048-7.727-3.251-7.836-7.516-.111-4.362 3.493-8.113 7.838-8.159zm-15.483-104.829c2.232.1 4.08 2.079 4.026 4.31-.053 2.161-1.911 4.058-3.989 4.071-2.3.015-4.323-2.031-4.284-4.335.038-2.246 2.032-4.146 4.247-4.046zm.065 30.577c2.253.071 4.438 2.357 4.442 4.648.004 2.425-2.012 4.326-4.575 4.314-2.796-.014-4.419-1.611-4.406-4.337.013-2.717 1.965-4.706 4.539-4.625zm.102 29.803c3.153.076 5.705 2.838 5.599 6.059-.109 3.281-2.668 5.636-6.039 5.555-3.13-.075-5.699-2.84-5.624-6.051.075-3.194 2.743-5.642 6.064-5.563zm-.187 29.737c3.858-.032 7 3.164 7.018 7.139.017 3.9-3.201 7.139-7.066 7.112-3.869-.027-7.07-3.273-7.046-7.145.023-3.902 3.19-7.073 7.094-7.106zm-15.483-105.537c2.233.043 4.043 2.027 3.931 4.308-.111 2.253-1.822 3.709-4.238 3.607-2.233-.095-3.73-1.682-3.679-3.901.05-2.154 1.936-4.053 3.986-4.014zm3.306 35.23c-.055 1.749-1.517 3.129-3.339 3.151-1.842.023-3.409-1.53-3.397-3.366.012-1.867 1.544-3.322 3.46-3.287 1.81.034 3.333 1.661 3.276 3.502zm-3.429 26.173c2.754.001 4.679 1.94 4.694 4.729.015 2.707-1.815 4.694-4.39 4.768-2.642.076-5.08-2.215-5.075-4.77.004-2.648 2.104-4.728 4.771-4.727zm.219 29.541c3.423.032 5.971 2.701 5.967 6.251-.004 3.618-2.65 6.243-6.262 6.212-3.466-.029-6.096-2.649-6.153-6.129-.061-3.655 2.702-6.369 6.448-6.334zm-7.538 37.007c.027-4.228 3.349-7.458 7.598-7.386 4.084.07 7.393 3.581 7.32 7.769-.072 4.117-3.527 7.422-7.712 7.409-3.395-.01-7.501-3.025-7.206-7.792zm-7.99 23.833c-4.593.026-8.177-3.503-8.182-8.057-.005-4.429 3.548-8.123 7.849-8.161 4.477-.04 8.166 3.583 8.215 8.067.049 4.336-3.616 8.126-7.882 8.151zm-.193-134.842c1.422-.02 2.583 1.1 2.647 2.554.067 1.523-1.191 2.816-2.684 2.759-1.308-.049-2.538-1.358-2.556-2.718-.018-1.418 1.138-2.575 2.593-2.595zm-.215 30.093c1.815-.105 3.628 1.533 3.749 3.386.122 1.878-1.458 3.483-3.483 3.537-2.02.054-3.351-1.227-3.382-3.254-.029-1.933 1.359-3.568 3.116-3.669zm.53 29.123c2.817.107 5.252 2.751 5.183 5.629-.072 2.991-2.452 5.215-5.526 5.161-3.072-.054-5.349-2.355-5.305-5.361.043-2.913 2.775-5.538 5.648-5.429zm-.248 29.55c3.668-.052 6.941 3.261 6.89 6.974-.054 3.856-3.091 6.771-7.046 6.762-3.738-.009-6.717-3.022-6.702-6.779.016-3.9 2.975-6.902 6.858-6.957zm-15.543-105.152c1.78.011 3.562 1.875 3.499 3.661-.063 1.799-1.683 3.234-3.589 3.18-2.01-.057-3.335-1.437-3.275-3.411.06-1.934 1.538-3.441 3.365-3.43zm2.117 34.652c-.035 1.272-.925 2.159-2.122 2.113-1.256-.048-2.332-1.196-2.217-2.366.106-1.079 1.221-2.029 2.349-2.001 1.179.029 2.025.987 1.99 2.254zm-1.91 26.407c2.312.075 4.4 2.357 4.275 4.671-.132 2.445-2.194 4.264-4.712 4.157-2.329-.099-4.195-2.134-4.102-4.473.098-2.485 2.13-4.434 4.539-4.355zm-.227 29.382c3.358-.045 6.115 2.739 6.12 6.18.005 3.366-2.605 6.078-5.896 6.129-3.269.05-6.338-2.853-6.39-6.044-.051-3.163 2.96-6.222 6.166-6.265zm-.017 29.603c4.04.052 7.531 3.58 7.531 7.608 0 4.23-3.069 7.245-7.374 7.246-4.36.001-7.415-2.916-7.467-7.128-.052-4.153 3.378-7.777 7.31-7.726zm-15.654 31.218c-4.284-.079-7.987-3.873-7.953-8.147.035-4.44 3.763-8.131 8.208-8.127 4.407.004 7.988 3.587 7.988 7.994-.001 4.7-3.65 8.365-8.243 8.28zm.106-134.931c1.583-.019 2.694 1.092 2.711 2.712.017 1.617-1.077 2.762-2.649 2.775-1.533.013-2.738-1.174-2.755-2.714-.018-1.534 1.167-2.754 2.693-2.773zm.196 30.088c1.921.007 3.456 1.594 3.487 3.607.031 2.051-1.658 3.711-3.699 3.638-1.983-.071-3.396-1.641-3.333-3.701.061-2.002 1.611-3.551 3.545-3.544zm-.151 29.119c2.956.035 5.535 2.684 5.494 5.645-.042 3.065-2.349 5.264-5.467 5.212-3.118-.052-5.398-2.318-5.368-5.337.028-2.868 2.624-5.551 5.341-5.52zm.191 29.612c3.582.029 6.736 3.232 6.76 6.864.026 3.832-3.004 6.834-6.935 6.873-3.756.037-6.773-2.916-6.813-6.668-.043-3.997 3.025-7.101 6.988-7.069zm-15.883-105.798c2.232-.054 4.206 1.794 4.304 4.03.099 2.247-1.776 4.313-3.947 4.35-2.3.039-4.336-1.983-4.322-4.293.013-2.141 1.85-4.035 3.965-4.087zm3.813 35.167c.03 1.961-1.496 3.567-3.457 3.637-1.969.07-3.521-1.438-3.57-3.467-.049-2.039 1.354-3.639 3.308-3.773 2.013-.137 3.687 1.484 3.719 3.603zm-3.631 26.056c2.413-.064 4.954 2.448 5.006 4.948.053 2.561-2.243 4.801-4.974 4.856-2.869.057-4.802-1.857-4.861-4.812-.053-2.68 2.115-4.92 4.829-4.992zm.224 29.801c3.48.104 5.966 2.738 5.947 6.302-.019 3.615-2.703 6.237-6.32 6.176-3.535-.059-6.17-2.826-6.136-6.442.032-3.449 2.938-6.143 6.509-6.036zm-.209 29.608c4.244.023 7.62 3.484 7.57 7.761-.049 4.14-3.421 7.491-7.57 7.522-4.092.031-7.735-3.675-7.634-7.765.099-4.069 3.623-7.54 7.634-7.518zm-15.424-105.19c2.556.047 4.125 1.715 4.093 4.352-.031 2.534-1.582 4.158-3.997 4.185-2.513.028-4.56-1.951-4.503-4.353.055-2.328 2.054-4.227 4.407-4.184zm.116 30.567c2.567.038 4.433 1.998 4.458 4.681.025 2.699-1.961 4.718-4.675 4.754-2.378.032-4.63-2.155-4.706-4.569-.081-2.57 2.282-4.906 4.923-4.866zm-.093 29.742c3 .042 5.851 2.974 5.851 6.016 0 3.168-2.704 5.797-5.926 5.762-3.481-.038-5.857-2.355-5.876-5.727-.018-3.366 2.669-6.098 5.951-6.051zm-.215 29.853c4.013-.032 7.217 3.192 7.191 7.234-.026 3.954-3.108 7.024-7.106 7.079-3.749.052-7.115-3.3-7.131-7.102-.017-3.787 3.3-7.181 7.046-7.211zm-15.449-106.643c3.157.021 5.262 2.2 5.191 5.372-.064 2.827-2.289 5.081-5.043 5.107-3.014.029-5.436-2.35-5.393-5.296.042-2.881 2.391-5.202 5.245-5.183zm5.118 36.274c-.001 2.819-2.034 4.792-4.939 4.793-3.002.001-4.962-1.837-5.01-4.696-.048-2.834 2.177-5.216 4.895-5.239 2.665-.022 5.055 2.409 5.054 5.142zm-5.198 25.29c3.343-.021 5.789 2.444 5.753 5.798-.034 3.211-2.517 5.643-5.722 5.606-2.93-.034-5.537-2.632-5.598-5.576-.063-3.057 2.566-5.809 5.567-5.828zm.065 30.01c4.013.014 6.663 2.65 6.698 6.662.035 4.045-2.632 6.823-6.537 6.809-3.848-.014-6.918-3.107-6.887-6.938.028-3.475 3.188-6.545 6.726-6.533zm-.048 29.753c4.197-.005 8.062 3.65 8.039 7.757-.02 3.587-2.329 8.073-7.846 7.995-4.458-.063-7.889-3.36-7.904-7.707-.014-4.223 3.645-8.041 7.711-8.045zm-15.391-106.27c3.046-.022 5.638 2.636 5.612 5.752-.025 2.952-2.653 5.604-5.541 5.59-3.116-.014-5.775-2.61-5.774-5.639.001-3.084 2.598-5.681 5.703-5.703zm.152 30.968c3.307.017 5.494 2.293 5.504 5.731.01 3.432-2.322 5.762-5.767 5.761-3.047-.001-5.691-2.673-5.685-5.745.006-3.143 2.718-5.763 5.948-5.747zm-.071 30.107c3.376.014 6.432 3.093 6.5 6.548.07 3.583-3.018 6.769-6.524 6.73-3.746-.042-6.532-2.87-6.552-6.65-.019-3.675 2.927-6.644 6.576-6.628zm-.096 30.027c4.15.023 7.491 3.342 7.57 7.52.08 4.24-3.325 7.731-7.571 7.763-4 .03-7.574-3.493-7.634-7.524-.06-4.129 3.534-7.781 7.635-7.759zm-15.538-107.347c3.608.046 6.414 2.92 6.363 6.515-.047 3.305-2.904 6.156-6.184 6.171-3.719.017-6.527-2.732-6.476-6.339.05-3.464 2.952-6.39 6.297-6.347zm-.016 43.622c-3.048.022-6.038-2.913-6.131-6.019-.101-3.364 2.664-6.301 5.983-6.357 3.408-.057 6.192 2.595 6.305 6.004.116 3.521-2.614 6.346-6.157 6.372zm-.15 18.163c3.537-.05 6.693 2.978 6.791 6.518.102 3.654-3.027 6.837-6.706 6.823-3.391-.012-6.456-3.061-6.549-6.515-.096-3.585 2.925-6.776 6.464-6.826zm.313 30.196c3.95.093 7.319 3.59 7.309 7.56-.009 3.512-3.17 7.443-7.533 7.196-4.245-.018-7.205-3.052-7.214-7.396-.008-3.965 3.516-7.453 7.438-7.36zm-15.599 31.135c-4.352.048-8.215-3.833-8.152-8.19.065-4.447 3.803-8.111 8.25-8.085 4.408.026 7.967 3.625 7.945 8.037-.023 4.607-3.518 8.188-8.043 8.238zm.129-107.891c3.666.02 6.475 2.934 6.476 6.719.002 3.655-3.001 6.715-6.561 6.685-3.814-.032-6.861-3.041-6.824-6.738.037-3.697 3.136-6.687 6.909-6.666zm-.254 31.004c4.019-.002 6.684 2.621 6.733 6.626.05 4.045-2.607 6.842-6.501 6.846-3.851.004-6.93-3.067-6.922-6.903.008-3.477 3.156-6.568 6.69-6.569zm.225 30.288c3.782.002 7.374 3.762 7.295 7.618-.07 3.46-3.179 7.307-7.668 7.113-4.139-.179-7.103-3.168-7.055-7.344.047-4.13 3.324-7.389 7.428-7.387zm-15.375 31.049c-4.58.096-8.216-3.399-8.278-7.957-.06-4.424 3.453-8.167 7.752-8.258 4.471-.095 8.208 3.489 8.312 7.97.101 4.328-3.514 8.156-7.786 8.245zm-.309-108.355c4.131.025 7.14 3.035 7.166 7.167.026 4.152-3.001 7.278-7.045 7.275-4.219-.003-7.428-3.184-7.37-7.307.058-4.087 3.18-7.16 7.249-7.135zm7.145 38.186c-.061 4.199-3.168 7.332-7.163 7.223-3.936-.107-7.197-3.493-7.137-7.409.056-3.64 3.565-6.965 7.343-6.958 3.942.008 7.015 3.163 6.957 7.144zm-7.368 23.478c4.091-.112 7.772 3.49 7.772 7.608 0 4.127-2.985 7.158-7.133 7.243-4.502.092-7.655-2.822-7.708-7.125-.051-4.052 3.214-7.621 7.069-7.726zm-7.178 23.216c-.154 4.616-3.77 8.113-8.274 8.002-4.383-.109-8.133-4.105-7.906-8.426.236-4.496 4.016-7.993 8.477-7.843 4.406.148 7.851 3.847 7.703 8.267zm-8.24-23.445c-4.085-.041-7.493-3.473-7.546-7.598-.054-4.23 3.384-7.765 7.573-7.785 4.258-.021 7.699 3.346 7.752 7.586.055 4.357-3.422 7.841-7.779 7.797zm.274-46.388c4.071.008 7.52 3.5 7.487 7.58-.035 4.352-3.417 7.821-7.563 7.757-4.208-.065-7.716-3.601-7.663-7.725.055-4.296 3.436-7.621 7.739-7.612zm-15.665-15.994c4.535-.068 8.122 3.518 8.141 8.136.018 4.495-3.455 8.096-7.878 8.171-4.431.074-8.339-3.655-8.412-8.029-.073-4.336 3.742-8.212 8.149-8.278zm-15.48 15.106c4.61.011 8.416 3.862 8.511 8.511.082 4.029-3.672 8.717-8.551 8.29-4.938.004-8.219-3.245-8.245-8.164-.025-4.746 3.718-8.648 8.285-8.637zm-15.429-15.998c4.896.09 8.9 4.156 8.901 9.066 0 5.051-3.782 8.703-9.021 8.707-5.055.005-8.641-3.646-8.752-8.687-.126-5.758 5.374-9.151 8.872-9.086zm-15.383 15.401c5.243.04 8.961 3.956 8.893 9.368-.064 5.104-4.07 9.043-9.109 8.958-5.097-.087-9.28-4.325-9.208-9.296.056-3.866 3.455-9.318 9.424-9.03zm-25.338-6.468c.167-4.487 3.35-9.542 9.588-9.514 5.496.025 9.621 4.196 9.595 9.701-.027 5.514-4.216 9.632-9.723 9.559-5.041-.067-9.647-4.73-9.46-9.746zm-5.629 5.58c5.255.116 9.828 4.78 9.723 10.092-.097 4.91-3.621 9.969-10.125 9.653-5.599.39-9.737-5.016-9.709-9.822.032-5.607 5.217-10.031 10.111-9.923zm-5.421-5.538c.069 5.787-4.369 10.209-10.29 10.251-5.641.041-10.221-4.426-10.286-10.03-.064-5.597 4.695-10.543 10.168-10.566 5.559-.024 10.341 4.73 10.408 10.345zM58.745 7.958c-.012 1.522-.189 2.966-.306 4.715 1.727-.117 3.38-.421 5.016-.335 1.578.083 3.137.509 5.023.853-.163-.873-.335-1.548-.404-2.225-.153-1.514-.462-2.902-.329-4.396.066-.737.205-.57.446-1.57h-9.863c.342 1 .429 1.468.417 2.958zM615.568 11.326c-.112.701-.398 1.374-.703 2.386 1.93-.499 3.585-1.156 5.284-1.303 1.729-.15 3.502.201 5.622.36-.132-.938-.309-1.755-.35-2.579-.071-1.433-.248-2.747-.033-4.146.076-.497.194-1.044.365-1.044h-10.046c.265 1 .382 1.023.397 1.941.025 1.51-.297 2.88-.536 4.385z"/></g></svg>