<?xml version="1.0" encoding="utf-8"?>
<!-- Generator: Adobe Illustrator 17.1.0, SVG Export Plug-In . SVG Version: 6.00 Build 0)  -->
<!DOCTYPE svg PUBLIC "-//W3C//DTD SVG 1.1//EN" "http://www.w3.org/Graphics/SVG/1.1/DTD/svg11.dtd">
<svg version="1.1" id="Layer_1" xmlns="http://www.w3.org/2000/svg" xmlns:xlink="http://www.w3.org/1999/xlink" x="0px" y="0px"
	 viewBox="0 0 684 290" enable-background="new 0 0 684 290" xml:space="preserve">
<g opacity="0.4">
	<path fill="#89BAB9" d="M614.92,44.895c0.424-2.121,1.141-4.139,1.143-6.159c0.001-1.935-0.74-3.87-1.246-6.229
		c3.594,1.937,7.254,1.61,11.146,1.119c-0.193,1.881-0.496,3.525-0.494,5.169c0.003,1.658,0.309,3.316,0.495,5.098
		c-2.028-0.165-3.938-0.567-5.797-0.4C618.39,43.653,616.667,44.404,614.92,44.895z"/>
	<path fill="#89BAB9" d="M610.624,111.09c-0.246,1.774-0.613,3.414-0.664,5.065c-0.049,1.584,0.229,3.177,0.386,5.031
		c-1.825-0.129-3.549-0.406-5.258-0.327c-1.719,0.08-3.421,0.515-5.202,0.807c0.256-2.105,0.801-4.088,0.645-6.015
		c-0.156-1.936-1.01-3.816-1.59-5.831c1.894,0.563,3.739,1.39,5.65,1.6C606.523,111.631,608.522,111.231,610.624,111.09z"/>
	<path fill="#89BAB9" d="M614.933,75.664c1.809-4.052,1.683-7.861-0.567-11.892c2.261,0.49,3.998,1.054,5.769,1.197
		c1.82,0.147,3.674-0.119,5.553-0.205c0,3.268,0,6.501,0,10.082C622.128,74.197,618.557,73.896,614.933,75.664z"/>
	<path fill="#89BAB9" d="M166.488,213.785c1.071-3.591,0.777-6.741-0.722-10.089c2.366,0.309,4.327,0.866,6.24,0.731
		c1.928-0.136,3.807-0.958,6.132-1.596c-2.067,3.546-2.444,7.131-1.442,11.138c-1.965-0.219-3.526-0.502-5.092-0.536
		C170.099,213.402,168.588,213.628,166.488,213.785z"/>
	<path fill="#89BAB9" d="M68.826,33.102c-1.523,3.935-1.65,7.603,0.453,11.595c-2.233-0.549-3.889-1.154-5.588-1.318
		c-1.649-0.16-3.341,0.133-5.192,0.236c0-3.131,0-6.254,0-9.701C61.981,34.732,65.357,34.524,68.826,33.102z"/>
	<path fill="#89BAB9" d="M73.678,111.173c3.719,0.414,7.254,0.979,10.891-1.409c-0.591,2.539-1.287,4.369-1.37,6.226
		c-0.081,1.784,0.473,3.597,0.814,5.827c-3.376-1.342-6.591-1.57-10.108-0.781c0.13-1.944,0.344-3.523,0.31-5.095
		C74.183,114.448,73.891,112.961,73.678,111.173z"/>
	<path fill="#89BAB9" d="M58.53,74.3c0-3.091,0-6.037,0-9.312c3.311,0.313,6.776,0.948,9.929-1.191
		c0.092,0.142,0.184,0.284,0.276,0.426c-0.375,1.758-1.008,3.51-1.054,5.276c-0.047,1.797,0.484,3.61,0.803,5.68
		c-1.77-0.32-3.309-0.71-4.869-0.847C62.025,74.191,60.413,74.3,58.53,74.3z"/>
	<path fill="#89BAB9" d="M455.484,234.815c-0.299,3.22-0.579,6.232-0.88,9.473c-2.821,0-5.726,0-8.698,0
		c0-1.606,0.16-3.288-0.046-4.923c-0.198-1.575-0.774-3.103-1.247-4.892c1.947,0.384,3.769,0.983,5.609,1.039
		C451.998,235.566,453.792,235.061,455.484,234.815z"/>
	<path fill="#89BAB9" d="M347.868,250.038c-1.53,3.358-2.014,6.409-0.96,9.904c-1.941-0.189-3.419-0.436-4.899-0.447
		c-1.425-0.011-2.851,0.223-4.573,0.375c0-1.734,0.113-3.32-0.032-4.881c-0.139-1.498-0.545-2.971-0.902-4.803
		c1.98,0.315,3.754,0.824,5.526,0.816C343.754,250.995,345.476,250.459,347.868,250.038z"/>
	<path fill="#89BAB9" d="M625.198,104.91c-3.204,0.211-6.204,0.409-9.51,0.628c0.514-3.346,1.034-6.768-0.768-10.395
		c2.14,0.491,3.742,1.034,5.38,1.183c1.573,0.143,3.182-0.125,4.898-0.219C625.198,99.111,625.198,102.033,625.198,104.91z"/>
	<path fill="#89BAB9" d="M239.04,234.582c-0.343,1.907-0.722,3.452-0.873,5.019c-0.151,1.558-0.072,3.139-0.093,4.62
		c-3.066,0-5.825,0-8.596,0c-0.314-3.115-0.613-6.087-0.934-9.281c1.619,0.213,3.327,0.65,5.022,0.602
		C235.284,235.492,236.99,234.964,239.04,234.582z"/>
	<path fill="#89BAB9" d="M378.093,250.275c0,0.489,0.029,0.798-0.005,1.1c-0.239,2.145-0.544,4.285-0.716,6.436
		c-0.079,0.981-0.154,1.801-1.39,1.804c-2.398,0.006-4.796,0.002-7.524,0.002c0-1.505,0.113-3.081-0.032-4.632
		c-0.14-1.498-0.547-2.971-0.891-4.734c1.884,0.299,3.587,0.778,5.291,0.78C374.54,251.032,376.256,250.559,378.093,250.275z"/>
	<path fill="#89BAB9" d="M501.592,219.676c-0.209,3.148-0.401,6.052-0.606,9.134c-1.321-0.109-2.74-0.345-4.153-0.311
		c-1.424,0.034-2.841,0.335-4.208,0.513c-0.326-3.359-0.637-6.553-0.959-9.874c1.501,0.303,3.112,0.813,4.747,0.907
		C498.072,220.14,499.754,219.825,501.592,219.676z"/>
	<path fill="#89BAB9" d="M306.679,259.578c0-1.871,0.136-3.401-0.039-4.894c-0.166-1.415-0.659-2.791-1.069-4.429
		c1.927,0.301,3.64,0.796,5.345,0.772c1.733-0.024,3.46-0.56,5.557-0.939c-0.396,1.662-0.896,3.144-1.07,4.663
		c-0.179,1.561-0.04,3.158-0.04,4.827C312.399,259.578,309.636,259.578,306.679,259.578z"/>
	<path fill="#89BAB9" d="M192.7,219.209c-1.256,3.258-1.846,6.288-0.816,9.448c-0.818,0.134-1.125,0.237-1.427,0.224
		c-2-0.084-3.998-0.252-5.999-0.271c-1.106-0.011-1.635-0.375-1.675-1.515c-0.08-2.314-0.222-4.626-0.347-7.105
		c1.556-0.712,3.182,0.424,4.803,0.135C188.886,219.831,190.539,219.57,192.7,219.209z"/>
	<path fill="#89BAB9" d="M59.003,96.471c1.543,0,3.054,0.11,4.541-0.031c1.506-0.142,2.989-0.532,4.673-0.85
		c-0.241,1.755-0.617,3.387-0.647,5.025c-0.029,1.572,0.302,3.15,0.498,4.94c-1.671-0.26-3.144-0.575-4.633-0.695
		c-1.416-0.114-2.848-0.025-4.433-0.025C59.003,102.046,59.003,99.363,59.003,96.471z"/>
	<path fill="#89BAB9" d="M569.864,182.272c0.074-1.528,0.286-3.033,0.181-4.516c-0.105-1.481-0.526-2.94-0.859-4.667
		c1.802,0.19,3.358,0.417,4.922,0.502c1.495,0.082,2.998,0.018,4.757,0.018c-0.15,1.287-0.328,2.368-0.388,3.456
		c-0.066,1.201-0.02,2.408-0.031,3.612c-0.007,0.713-0.245,1.33-1.046,1.365C574.949,182.149,572.495,182.196,569.864,182.272z"/>
	<path fill="#89BAB9" d="M593.878,158.409c0,2.443,0.025,4.755-0.015,7.065c-0.013,0.75-0.509,1.134-1.277,1.152
		c-2.301,0.053-4.601,0.115-6.994,0.176c-0.191-2.877-0.387-5.849-0.597-9.018c1.365-0.477,2.726,0.604,4.189,0.621
		C590.694,158.423,592.204,158.409,593.878,158.409z"/>
	<path fill="#89BAB9" d="M399.235,250.598c1.597,0.189,3.087,0.487,4.58,0.509c1.513,0.022,3.03-0.229,4.792-0.382
		c0,0.594,0.035,1.114-0.006,1.628c-0.134,1.682-0.344,3.359-0.433,5.043c-0.091,1.708-0.355,1.975-1.979,1.942
		c-1.521-0.031-3.046,0.018-4.567,0.079c-0.852,0.034-1.749,0.091-1.85-1.016C399.548,255.94,399.426,253.47,399.235,250.598z"/>
	<path fill="#89BAB9" d="M284.828,250.599c-0.275,3.02-0.521,5.724-0.786,8.63c-2.59,0-5.251,0-7.976,0
		c-0.242-2.813-0.479-5.579-0.739-8.6c1.509,0.168,3.065,0.48,4.621,0.477C281.529,251.103,283.11,250.791,284.828,250.599z"/>
	<path fill="#89BAB9" d="M631.841,49.707c2.817,0.143,5.516,0.28,8.402,0.426c0,2.747,0,5.398,0,8.06
		c-2.924,0.234-5.673,0.455-8.402,0.674C631.841,55.87,631.841,52.883,631.841,49.707z"/>
	<path fill="#89BAB9" d="M553.883,188.87c3.12,0.18,6.107,0.352,9.303,0.537c-0.091,1.221-0.228,2.554-0.281,3.89
		c-0.05,1.266-0.011,2.535-0.011,3.975c-2.891,0.131-5.498,0.249-8.303,0.376c0-1.601,0.093-3.102-0.027-4.586
		C554.452,191.65,554.117,190.255,553.883,188.87z"/>
	<path fill="#89BAB9" d="M640.185,19.411c0,2.677,0,5.199,0,7.82c-2.806,0.24-5.548,0.474-8.334,0.712c0-2.924,0-5.826,0-8.927
		C634.572,19.145,637.238,19.271,640.185,19.411z"/>
	<path fill="#89BAB9" d="M105.867,181.802c-0.117-2.634-0.228-5.153-0.34-7.671c3.032-0.245,5.872-0.475,9.021-0.73
		c-0.279,1.477-0.694,2.924-0.79,4.393c-0.092,1.411,0.147,2.843,0.251,4.432C111.245,182.082,108.651,181.947,105.867,181.802z"/>
	<path fill="#89BAB9" d="M609.119,143.087c0,2.378,0.052,4.536-0.046,6.686c-0.018,0.402-0.608,1.081-0.98,1.114
		c-2.228,0.196-4.469,0.24-6.883,0.342c-0.161-2.836-0.318-5.592-0.487-8.579C603.541,142.797,606.29,142.94,609.119,143.087z"/>
	<path fill="#89BAB9" d="M98.782,158.021c-0.194,2.821-0.39,5.663-0.597,8.676c-2.441-0.127-5.038-0.262-7.859-0.408
		c-0.053-2.345-0.155-4.581-0.104-6.813c0.008-0.364,0.672-0.988,1.074-1.023C93.755,158.235,96.228,158.153,98.782,158.021z"/>
	<path fill="#89BAB9" d="M631.594,80.739c2.488,0.133,4.643,0.235,6.796,0.37c1.162,0.073,1.719,0.709,1.683,1.899
		c-0.047,1.527-0.038,3.055-0.065,4.582c-0.014,0.808-0.305,1.449-1.212,1.511c-2.288,0.155-4.578,0.274-7.032,0.417
		c0.13-1.434,0.377-2.85,0.354-4.261C632.094,83.835,631.801,82.418,631.594,80.739z"/>
	<path fill="#89BAB9" d="M51.917,49.974c0,2.996,0,5.684,0,8.616c-2.627-0.123-5.278-0.248-8.006-0.376c0-2.589,0-5.034,0-7.676
		C46.536,50.353,49.112,50.171,51.917,49.974z"/>
	<path fill="#89BAB9" d="M476.805,235.453c2.91,0,5.706,0,8.848,0c-0.19,2.508-0.311,4.796-0.59,7.065
		c-0.044,0.357-0.787,0.859-1.239,0.895c-1.686,0.133-3.384,0.113-5.078,0.125c-0.865,0.006-1.319-0.432-1.385-1.326
		C477.197,239.98,476.996,237.752,476.805,235.453z"/>
	<path fill="#89BAB9" d="M121.035,189.59c2.95-0.188,5.708-0.363,8.635-0.549c0,0.543,0.033,1.07-0.006,1.591
		c-0.127,1.67-0.339,3.336-0.407,5.008c-0.064,1.564-0.28,1.809-1.834,1.729c-1.516-0.078-3.035-0.122-4.553-0.143
		c-0.833-0.012-1.469-0.293-1.527-1.179C121.203,193.912,121.134,191.772,121.035,189.59z"/>
	<path fill="#89BAB9" d="M51.871,19.132c0,2.841,0,5.524,0,8.373c-0.364,0.041-0.817,0.158-1.261,0.132
		c-1.522-0.088-3.04-0.268-4.563-0.333c-1.891-0.081-2.102-0.287-2.054-2.083c0.036-1.363,0.024-2.73-0.035-4.092
		c-0.047-1.091,0.358-1.674,1.494-1.715C47.528,19.339,49.603,19.233,51.871,19.132z"/>
	<path fill="#89BAB9" d="M74.998,143.229c2.667-0.204,5.343-0.409,8.177-0.626c0,0.46,0.026,0.91-0.005,1.356
		c-0.121,1.744-0.296,3.485-0.382,5.23c-0.069,1.388-0.319,1.751-1.669,1.764c-1.522,0.014-3.044-0.065-4.567-0.101
		c-0.908-0.022-1.551-0.313-1.586-1.374c-0.06-1.834-0.165-3.666-0.225-5.499C74.735,143.76,74.888,143.537,74.998,143.229z"/>
	<path fill="#89BAB9" d="M431.163,258.74c-0.218-2.497-0.425-4.869-0.652-7.475c2.881,0,5.637,0,8.725,0
		c-0.228,2.126-0.382,4.254-0.74,6.347c-0.076,0.442-0.88,1.043-1.382,1.077C435.208,258.816,433.288,258.74,431.163,258.74z"/>
	<path fill="#89BAB9" d="M538.904,204.855c2.531,0,4.835-0.001,7.14,0.001c0.881,0.001,1.374,0.42,1.319,1.328
		c-0.106,1.759-0.18,3.525-0.411,5.269c-0.053,0.396-0.664,0.978-1.068,1.023c-1.75,0.194-3.518,0.223-5.279,0.305
		c-0.752,0.035-1.289-0.291-1.339-1.066C539.116,209.413,539.019,207.107,538.904,204.855z"/>
	<path fill="#89BAB9" d="M616.382,127.277c2.223,0.118,4.22,0.188,6.21,0.342c1.512,0.117,1.853,0.47,1.887,1.917
		c0.028,1.203,0.005,2.415-0.119,3.611c-0.154,1.48-0.643,1.954-2.137,2.116c-1.356,0.147-2.724,0.182-4.087,0.265
		c-0.84,0.051-1.448-0.242-1.49-1.164C616.541,132.059,616.472,129.753,616.382,127.277z"/>
	<path fill="#89BAB9" d="M198.372,235.794c2.956,0,5.639,0,8.47,0c0.051,0.164,0.239,0.461,0.217,0.743
		c-0.132,1.678-0.301,3.354-0.482,5.028c-0.165,1.521-0.476,1.863-1.918,1.897c-1.364,0.032-2.731-0.034-4.096-0.083
		c-0.898-0.032-1.575-0.408-1.668-1.39C198.708,240.004,198.557,238.017,198.372,235.794z"/>
	<path fill="#89BAB9" d="M51.79,81.093c0,2.754,0,5.413,0,8.15c-2.366-0.126-4.581-0.194-6.781-0.415
		c-0.338-0.034-0.839-0.759-0.864-1.189c-0.101-1.677-0.104-3.368,0.003-5.044c0.026-0.409,0.581-1.088,0.942-1.123
		C47.29,81.262,49.504,81.204,51.79,81.093z"/>
	<path fill="#89BAB9" d="M144.398,212.365c-2.483,0-4.698,0-7.099,0c-0.176-2.485-0.337-4.747-0.508-7.162
		c2.818-0.175,5.409-0.337,8.183-0.509C144.778,207.304,144.595,209.746,144.398,212.365z"/>
	<path fill="#89BAB9" d="M244.808,251.259c3.063,0,5.749,0,8.603,0c-0.025,0.541-0.006,1.08-0.084,1.604
		c-0.095,0.635-0.293,1.253-0.409,1.886c-0.226,1.231-0.037,2.849-0.757,3.583c-0.601,0.613-2.255,0.195-3.443,0.227
		c-3.188,0.086-3.178,0.084-3.392-3.065c-0.049-0.719-0.209-1.43-0.3-2.147C244.948,252.733,244.896,252.116,244.808,251.259z"/>
	<path fill="#89BAB9" d="M59.84,128.132c2.592-0.226,4.883-0.427,7.287-0.636c0,2.591,0,5.08,0,7.843
		c-2.258-0.141-4.235-0.185-6.182-0.448c-0.422-0.057-1.016-0.877-1.054-1.382C59.76,131.776,59.84,130.027,59.84,128.132z"/>
	<path fill="#89BAB9" d="M531.532,220.649c-0.099,2.093-0.146,3.772-0.271,5.446c-0.07,0.938-0.655,1.438-1.612,1.452
		c-0.725,0.011-1.452-0.018-2.176,0.019c-3.093,0.158-3.187,0.07-3.399-3.128c-0.079-1.194-0.206-2.386-0.329-3.789
		C526.312,220.649,528.735,220.649,531.532,220.649z"/>
	<path fill="#89BAB9" d="M632.327,112.322c2.169,0.124,4.07,0.155,5.945,0.397c0.452,0.058,0.868,0.775,1.193,1.262
		c0.15,0.225,0.054,0.624,0.045,0.943c-0.119,4.28,0.226,4.623-4.025,4.564c-0.856-0.012-1.714,0.177-2.812,0.301
		C632.558,117.31,632.453,115.048,632.327,112.322z"/>
	<path fill="#89BAB9" d="M322.563,266.972c2.386,0,4.377-0.001,6.369,0c1.024,0.001,1.468,0.555,1.377,1.531
		c-0.126,1.356-0.2,2.73-0.499,4.051c-0.105,0.465-0.774,1.075-1.244,1.132c-1.262,0.154-2.557,0.058-3.838,0.036
		c-0.938-0.016-1.532-0.529-1.645-1.438C322.877,270.633,322.753,268.972,322.563,266.972z"/>
	<path fill="#89BAB9" d="M160.041,220.464c-0.127,2.336-0.168,4.169-0.372,5.982c-0.045,0.399-0.609,0.871-1.042,1.058
		c-0.399,0.172-0.944,0.011-1.425-0.01c-4.147-0.186-4.884-1.035-4.522-5.105c0.083-0.935,0.473-1.566,1.418-1.633
		C155.991,220.62,157.889,220.565,160.041,220.464z"/>
	<path fill="#89BAB9" d="M353.543,266.98c2.443,0,4.578-0.03,6.712,0.015c0.806,0.017,1.071,0.633,1.004,1.354
		c-0.133,1.433-0.291,2.864-0.472,4.291c-0.095,0.75-0.586,1.116-1.33,1.104c-0.639-0.01-1.278-0.093-1.917-0.095
		c-3.286-0.011-3.29-0.005-3.674-3.386C353.753,269.266,353.669,268.266,353.543,266.98z"/>
	<path fill="#89BAB9" d="M648.112,39.029c-0.023-3.851-0.023-3.851,3.47-3.596c0.483,0.035,0.975,0.027,1.448,0.115
		c1.4,0.262,1.788,0.644,1.574,2.438c-0.174,1.465,1.155,3.645-1.519,4.178c-1.101,0.219-2.249,0.249-3.378,0.27
		c-1.361,0.025-1.692-0.337-1.699-1.724C648.006,40.066,648.086,39.422,648.112,39.029z"/>
	<path fill="#89BAB9" d="M392.045,267.389c-0.142,1.779-0.177,3.38-0.452,4.939c-0.081,0.457-0.831,0.807-1.3,1.174
		c-0.104,0.081-0.313,0.025-0.474,0.038c-4.524,0.347-5.337-0.478-5.048-5.037c0.056-0.879,0.412-1.371,1.304-1.382
		c1.45-0.017,2.9-0.022,4.35-0.001C390.814,267.125,391.2,267.244,392.045,267.389z"/>
	<path fill="#89BAB9" d="M648.077,73.327c0-2.184-0.077-4.014,0.055-5.829c0.032-0.443,0.738-0.85,1.164-1.241
		c0.088-0.081,0.31-0.015,0.47-0.018c4.56-0.073,5.309,0.695,4.895,5.226c-0.046,0.503-0.561,1.312-0.955,1.375
		C651.988,73.114,650.235,73.164,648.077,73.327z"/>
	<path fill="#89BAB9" d="M51.214,112.669c0,1.953,0.06,3.774-0.048,5.585c-0.023,0.39-0.592,0.876-1.022,1.075
		c-0.397,0.183-0.944,0.049-1.425,0.037c-3.686-0.092-4.723-1.375-3.872-4.986c0.137-0.582,0.775-1.422,1.26-1.479
		C47.816,112.699,49.556,112.224,51.214,112.669z"/>
	<path fill="#89BAB9" d="M648.249,4.358c1.708,0.098,3.208,0.11,4.682,0.311c0.46,0.063,1.166,0.596,1.217,0.986
		c0.198,1.493,0.253,3.019,0.176,4.523c-0.018,0.345-0.745,0.866-1.201,0.934c-1.265,0.189-2.558,0.207-3.842,0.242
		c-0.77,0.021-1.217-0.424-1.204-1.193C648.107,8.338,648.182,6.515,648.249,4.358z"/>
	<path fill="#89BAB9" d="M221.818,251.71c-0.106,1.831-0.168,3.403-0.311,4.967c-0.033,0.358-0.33,0.976-0.536,0.989
		c-1.568,0.098-3.175,0.272-4.709,0.032c-1.376-0.215-1.34-1.601-1.413-2.726c-0.031-0.479-0.035-0.96-0.051-1.439
		c-0.042-1.2,0.594-1.79,1.739-1.815C218.124,251.684,219.714,251.71,221.818,251.71z"/>
	<path fill="#89BAB9" d="M298.614,273.284c-5.862,0.543-6.423,0.346-6.496-5.977c2.257,0,4.52,0,7.123,0
		C299.032,269.303,298.828,271.243,298.614,273.284z"/>
	<path fill="#89BAB9" d="M461.976,251.755c2.281,0,4.193-0.05,6.1,0.022c0.874,0.033,1.221,0.685,1.135,1.539
		c-0.032,0.321-0.092,0.638-0.131,0.958c-0.459,3.711-1.256,4.312-4.954,3.811c-0.835-0.113-1.363-0.503-1.485-1.326
		C462.407,255.181,462.218,253.596,461.976,251.755z"/>
	<path fill="#89BAB9" d="M35.638,38.786c0.042,3.475,0.042,3.473-3.097,3.197c-0.398-0.035-0.8-0.022-1.198-0.05
		c-1.716-0.121-1.845-0.266-1.832-2.039c0.002-0.32,0.016-0.64,0.048-0.959c0.104-1.057-0.625-2.583,0.702-3.01
		c1.462-0.471,3.132-0.368,4.709-0.35c0.275,0.003,0.705,0.801,0.771,1.273C35.838,37.544,35.675,38.278,35.638,38.786z"/>
	<path fill="#89BAB9" d="M512.345,236.555c3.827-0.522,3.242,0.752,2.988,3.551c-0.158,1.737-0.676,2.139-2.476,2.328
		c-0.399,0.042-0.803,0.052-1.205,0.059c-2.106,0.034-2.365-0.191-2.594-2.227C508.634,236.496,508.634,236.496,512.345,236.555z"/>
	<path fill="#89BAB9" d="M35.605,69.489c0,3.587,0,3.587-3.431,3.332c-2.289-0.17-2.437-0.323-2.517-2.577
		c-0.127-3.582-0.035-3.682,3.479-3.779c0.241-0.007,0.482-0.031,0.723-0.026c1.624,0.036,1.841,0.242,1.829,1.787
		C35.683,68.707,35.625,69.188,35.605,69.489z"/>
	<path fill="#89BAB9" d="M171.886,236.588c0.622-0.057,0.863-0.087,1.104-0.1c2.046-0.108,2.274,0.128,2.05,2.129
		c-0.036,0.32-0.057,0.651-0.158,0.953c-0.293,0.873-0.427,2.29-0.979,2.484c-1.133,0.399-2.515,0.265-3.758,0.089
		c-0.456-0.065-0.897-0.824-1.174-1.356c-0.209-0.401-0.161-0.942-0.2-1.423c-0.208-2.613-0.132-2.694,2.53-2.774
		C171.623,236.579,171.946,236.588,171.886,236.588z"/>
	<path fill="#89BAB9" d="M35.569,8.075c0,0.48,0.003,0.96-0.001,1.439c-0.007,1.112-0.577,1.605-1.672,1.502
		c-0.478-0.045-0.955-0.099-1.429-0.168c-2.299-0.335-2.872-1.03-2.75-3.321c0.093-1.745,0.549-2.276,2.214-2.578
		C35.332,4.331,35.531,4.503,35.569,8.075z"/>
	<path fill="#89BAB9" d="M419.293,267.523c-0.147,0-0.065-0.01,0.014,0.002c0.983,0.144,2.454-0.657,2.843,0.524
		c0.396,1.205,0.079,2.674-0.074,4.01c-0.039,0.343-0.608,0.833-0.988,0.889c-1.188,0.174-2.408,0.264-3.602,0.184
		c-0.377-0.026-0.823-0.638-1.032-1.08c-0.194-0.408-0.101-0.948-0.155-1.428C415.936,267.409,415.934,267.409,419.293,267.523z"/>
	<path fill="#89BAB9" d="M648.432,100.332c-0.029-0.479-0.122-0.965-0.068-1.434c0.043-0.372,0.245-1.025,0.411-1.036
		c1.477-0.099,2.994-0.277,4.433-0.037c1.064,0.178,0.861,1.371,0.839,2.241c-0.071,2.741-1.768,4.121-4.406,3.456
		c-0.466-0.118-0.949-0.778-1.122-1.289c-0.194-0.574-0.045-1.263-0.045-1.903C648.46,100.332,648.446,100.332,648.432,100.332z"/>
	<path fill="#89BAB9" d="M586.546,192.698c-0.077-2.119,0.3-2.519,2.435-2.58c2.528-0.073,3.335,0.535,3.434,2.585
		c0.116,2.428-0.656,3.19-3.303,3.258C586.945,196.016,586.654,195.646,586.546,192.698z"/>
	<path fill="#89BAB9" d="M604.742,174.722c0.594,0.045,1.169,0.029,1.714,0.151c0.368,0.082,0.953,0.316,0.991,0.555
		c0.187,1.159,0.395,2.362,0.263,3.511c-0.13,1.131-1.195,1.404-2.213,1.48c-0.641,0.048-1.303,0.158-1.923,0.051
		c-0.417-0.072-1.058-0.425-1.113-0.737c-0.235-1.33-0.56-2.739-0.336-4.03C602.359,174.357,603.76,174.747,604.742,174.722z"/>
	<path fill="#89BAB9" d="M264.66,267.575c3.265-0.136,3.389-0.002,3.029,3.267c-0.227,2.058-0.459,2.265-2.559,2.25
		c-0.56-0.004-1.121-0.017-1.681-0.043c-0.824-0.039-1.342-0.456-1.508-1.277c-0.047-0.235-0.08-0.473-0.121-0.71
		C261.266,267.886,261.409,267.71,264.66,267.575z"/>
	<path fill="#89BAB9" d="M619.964,159.493c0.161,0.011,0.323,0.013,0.483,0.034c0.93,0.12,2.142-0.122,2.449,1.078
		c0.318,1.244,0.337,2.588-0.589,3.672c-0.537,0.628-2.94,1.021-3.671,0.579c-0.37-0.224-0.708-0.673-0.833-1.089
		c-0.182-0.606-0.181-1.272-0.219-1.915C617.442,159.494,617.579,159.365,619.964,159.493z"/>
	<path fill="#89BAB9" d="M573.654,205.746c0.161,0.01,0.321,0.021,0.482,0.031c2.184,0.131,2.531,0.362,2.577,1.717
		c0.071,2.081-0.707,3.206-2.509,3.497c-0.931,0.15-2.26,0.549-2.59-0.534c-0.396-1.3-0.31-2.812-0.108-4.185
		c0.05-0.342,1.35-0.499,2.076-0.742C573.606,205.601,573.63,205.673,573.654,205.746z"/>
	<path fill="#89BAB9" d="M79.622,174.981c1.698-0.075,2.108,0.195,2.198,1.446c0.205,2.876-0.444,3.914-2.479,3.96
		c-2.16,0.049-2.979-0.602-3.069-2.442C76.167,175.799,76.959,175.098,79.622,174.981z"/>
	<path fill="#89BAB9" d="M35.476,100.303c0.028,2.154-0.655,2.957-2.542,2.99c-2.021,0.035-2.768-0.764-2.814-3.013
		c-0.04-1.917,0.652-2.441,3.229-2.451C34.96,97.824,35.451,98.395,35.476,100.303z"/>
	<path fill="#89BAB9" d="M95.08,190.493c1.726-0.087,2.16,0.186,2.25,1.418c0.167,2.271-0.6,3.58-2.136,3.643
		c-2.285,0.094-3.354-0.686-3.389-2.475C91.769,191.28,92.607,190.618,95.08,190.493z"/>
	<path fill="#89BAB9" d="M66.154,161.547c0.039,2.278-0.733,3.282-2.52,3.278c-1.643-0.004-2.388-0.802-2.402-2.573
		c-0.015-1.849,0.729-2.611,2.589-2.65C65.531,159.566,66.129,160.065,66.154,161.547z"/>
	<path fill="#89BAB9" d="M496.388,252.304c2.381,0.058,2.818,0.375,2.759,2c-0.08,2.197-0.814,2.947-2.891,2.954
		c-1.719,0.006-2.332-0.853-2.262-3.171C494.042,252.504,494.376,252.255,496.388,252.304z"/>
	<path fill="#89BAB9" d="M635.676,144.129c1.731,0.002,2.477,0.668,2.469,2.204c-0.011,2.06-0.839,3.007-2.608,2.983
		c-1.626-0.022-2.35-0.851-2.328-2.663C633.23,144.876,633.962,144.127,635.676,144.129z"/>
	<path fill="#89BAB9" d="M112.541,205.95c0,1.156,0.049,2.009-0.012,2.854c-0.076,1.05-0.551,1.852-1.693,2.019
		c-0.973,0.142-2.153,0.231-2.583-0.741c-0.416-0.94-0.359-2.113-0.376-3.186c-0.003-0.219,0.568-0.598,0.909-0.645
		C109.941,206.095,111.112,206.054,112.541,205.95z"/>
	<path fill="#89BAB9" d="M450.269,272.446c-1.654-0.05-2.628-1.137-2.565-2.859c0.049-1.321,0.855-1.918,2.544-1.883
		c1.799,0.037,2.591,0.817,2.53,2.49C452.72,271.754,451.894,272.496,450.269,272.446z"/>
	<path fill="#89BAB9" d="M664.2,54.49c-0.033-1.966,0.454-2.633,1.93-2.639c1.887-0.008,2.822,0.81,2.839,2.484
		c0.017,1.651-0.755,2.399-2.546,2.468C664.707,56.868,664.232,56.375,664.2,54.49z"/>
	<path fill="#89BAB9" d="M664.221,23.585c0.018-1.803,0.765-2.601,2.417-2.58c1.581,0.02,2.352,0.815,2.33,2.403
		c-0.023,1.617-0.833,2.342-2.656,2.374C664.717,25.811,664.204,25.272,664.221,23.585z"/>
	<path fill="#89BAB9" d="M233.997,267.811c1.802-0.031,2.207,0.283,2.229,1.725c0.03,1.959-0.741,2.885-2.422,2.907
		c-1.657,0.022-2.414-0.757-2.495-2.565C231.233,268.171,231.648,267.851,233.997,267.811z"/>
	<path fill="#89BAB9" d="M556.149,221.658c1.051,0,1.931-0.101,2.779,0.022c1.473,0.213,2.05,1.045,1.939,2.534
		c-0.105,1.397-0.757,1.923-2.488,2.009c-1.487,0.074-1.985-0.324-2.272-1.868c-0.088-0.474-0.13-0.961-0.139-1.443
		C555.961,222.601,556.052,222.287,556.149,221.658z"/>
	<path fill="#89BAB9" d="M188.026,252.514c0.982-0.097,1.709,0.137,1.753,1.367c0.07,1.978-0.819,3.065-2.568,3.051
		c-1.513-0.012-2.325-0.776-2.309-2.17C184.919,253.255,185.869,252.565,188.026,252.514z"/>
	<path fill="#89BAB9" d="M48.506,144.532c1.446,0.013,1.943,0.473,1.977,1.829c0.04,1.628-0.794,2.521-2.285,2.446
		c-1.336-0.067-2.157-0.963-2.196-2.398C45.967,145.096,46.74,144.516,48.506,144.532z"/>
	<path fill="#89BAB9" d="M125.744,221.669c1.405,0.014,1.996,0.56,1.957,1.806c-0.049,1.548-0.945,2.455-2.37,2.4
		c-1.294-0.05-2.033-0.855-1.993-2.174C123.378,222.358,124.212,221.653,125.744,221.669z"/>
	<path fill="#89BAB9" d="M17.713,56.363c-1.516,0.011-2.401-0.73-2.446-2.047c-0.047-1.381,0.852-2.281,2.23-2.233
		c1.26,0.044,1.921,0.804,1.955,2.246C19.484,55.75,18.968,56.353,17.713,56.363z"/>
	<path fill="#89BAB9" d="M664.553,84.823c-0.065-1.576,0.186-1.934,1.389-1.979c1.715-0.063,2.582,0.512,2.658,1.762
		c0.096,1.587-0.717,2.595-2.141,2.655C665.089,87.32,664.631,86.735,664.553,84.823z"/>
	<path fill="#89BAB9" d="M342.103,283.551c1.824-0.017,2.152,0.193,2.196,1.405c0.06,1.64-0.65,2.38-2.255,2.352
		c-1.596-0.028-2.406-0.811-2.403-2.323C339.643,283.834,340.099,283.569,342.103,283.551z"/>
	<path fill="#89BAB9" d="M19.451,23.383c-0.012,1.423-0.553,2.07-1.736,2.077c-1.45,0.009-2.425-0.83-2.427-2.088
		c-0.002-1.254,0.958-2.062,2.445-2.056C18.94,21.32,19.463,21.95,19.451,23.383z"/>
	<path fill="#89BAB9" d="M649.167,130.792c0.04-1.272,0.65-1.781,2.037-1.699c1.354,0.08,1.948,0.677,1.906,1.915
		c-0.046,1.35-0.812,2.215-1.985,2.24C649.869,133.275,649.118,132.332,649.167,130.792z"/>
	<path fill="#89BAB9" d="M372.937,283.703c1.454,0.036,2.258,0.747,2.192,1.942c-0.061,1.117-0.794,1.669-2.185,1.644
		c-1.421-0.026-2.179-0.711-2.177-1.969C370.768,284.217,371.505,283.668,372.937,283.703z"/>
	<path fill="#89BAB9" d="M311.084,283.662c1.535,0.005,2.11,0.439,2.139,1.611c0.033,1.348-0.637,2.013-2.045,2.033
		c-1.58,0.022-2.319-0.652-2.268-2.068C308.952,284.088,309.547,283.657,311.084,283.662z"/>
	<path fill="#89BAB9" d="M403.649,283.74c1.269,0.007,2.057,0.726,2.029,1.849c-0.027,1.065-0.721,1.669-1.914,1.664
		c-1.213-0.006-1.881-0.728-1.845-1.995C401.947,284.238,402.523,283.733,403.649,283.74z"/>
	<path fill="#89BAB9" d="M540.983,238.249c0.037-0.638,0.659-0.983,1.595-0.944c1.261,0.052,2.192,0.87,2.103,1.842
		c-0.082,0.894-1.07,1.604-2.13,1.531C541.573,240.611,540.915,239.765,540.983,238.249z"/>
	<path fill="#89BAB9" d="M280.241,283.765c1.109,0.046,1.684,0.591,1.669,1.584c-0.018,1.213-0.793,1.957-1.962,1.886
		c-1.086-0.066-1.708-0.776-1.67-1.907C278.313,284.284,279.028,283.715,280.241,283.765z"/>
	<path fill="#89BAB9" d="M19.042,86.732c-2.501,0.253-3.627-0.769-2.892-2.455c0.223-0.512,1.023-0.95,1.63-1.072
		c0.82-0.165,1.34,0.439,1.372,1.279C19.178,85.186,19.088,85.893,19.042,86.732z"/>
	<path fill="#89BAB9" d="M31.538,130.611c0.309-0.214,0.781-0.772,1.332-0.868c0.884-0.154,1.549,0.691,1.534,1.715
		c-0.011,0.777-0.246,1.444-1.157,1.524C32.384,133.059,31.556,132.087,31.538,130.611z"/>
	<path fill="#89BAB9" d="M139.512,239.032c0.06-0.853,0.904-1.423,1.925-1.297c0.835,0.103,1.323,0.56,1.249,1.417
		c-0.076,0.885-0.531,1.488-1.505,1.503C140.232,240.67,139.452,239.898,139.512,239.032z"/>
	<path fill="#89BAB9" d="M480.744,271.607c-0.867-0.081-1.2-0.731-1.18-1.619c0.02-0.886,0.581-1.263,1.401-1.246
		c0.867,0.018,1.564,0.342,1.642,1.334C482.674,270.932,481.835,271.654,480.744,271.607z"/>
	<path fill="#89BAB9" d="M202.856,272.202c-0.624-0.995-1.182-1.514-1.261-2.098c-0.117-0.857,0.572-1.289,1.399-1.281
		c0.878,0.009,1.436,0.541,1.223,1.391C204.071,270.791,203.521,271.265,202.856,272.202z"/>
	<path fill="#89BAB9" d="M666.691,117.739c-0.622-0.888-1.159-1.329-1.189-1.803c-0.023-0.365,0.523-0.985,0.933-1.111
		c0.699-0.214,1.322,0.274,1.289,0.997C667.701,116.318,667.226,116.793,666.691,117.739z"/>
	<path fill="#89BAB9" d="M251.05,285.937c-0.866,0.521-1.424,1.117-1.799,1.018c-0.464-0.122-1.005-0.779-1.098-1.281
		c-0.134-0.72,0.465-1.29,1.201-1.106C249.854,284.692,250.244,285.259,251.05,285.937z"/>
	<path fill="#89BAB9" d="M434.377,287.662c-0.458-1.067-0.82-1.576-0.873-2.116c-0.075-0.763,0.459-1.195,1.216-1.172
		c0.755,0.023,1.32,0.488,1.113,1.233C435.673,286.19,435.112,286.663,434.377,287.662z"/>
	<path fill="#89BAB9" d="M680.43,38.698c0.824-0.447,1.313-0.92,1.776-0.895c0.343,0.019,0.65,0.685,0.973,1.062
		c-0.431,0.359-0.822,0.902-1.308,1.006C681.581,39.935,681.143,39.308,680.43,38.698z"/>
	<path fill="#89BAB9" d="M525.721,254.848c0.703-0.576,1.088-1.033,1.575-1.211c0.165-0.06,0.886,0.656,0.831,0.896
		c-0.121,0.523-0.578,0.969-0.898,1.446C526.837,255.685,526.445,255.391,525.721,254.848z"/>
	<path fill="#89BAB9" d="M682.332,68.605c0.263,0.405,0.688,0.797,0.723,1.221c0.019,0.232-0.716,0.795-0.947,0.718
		c-0.41-0.137-0.881-0.605-0.977-1.016c-0.084-0.36,0.311-0.832,0.494-1.255C681.86,68.384,682.096,68.494,682.332,68.605z"/>
	<path fill="#89BAB9" d="M619.075,192.962c0.482-0.411,0.809-0.691,1.137-0.97c0.312,0.374,0.759,0.711,0.873,1.138
		c0.048,0.181-0.594,0.757-0.936,0.769C619.848,193.908,619.529,193.383,619.075,192.962z"/>
	<path fill="#89BAB9" d="M603.496,208.684c0.578-0.509,0.9-0.951,1.318-1.083c0.174-0.055,0.786,0.554,0.784,0.858
		c-0.003,0.337-0.429,0.85-0.768,0.948C604.558,209.485,604.141,209.057,603.496,208.684z"/>
	<path fill="#89BAB9" d="M155.327,254.904c0.55-0.447,0.924-0.956,1.168-0.9c0.355,0.081,0.809,0.54,0.863,0.893
		c0.046,0.306-0.405,0.687-0.637,1.035C156.326,255.641,155.93,255.349,155.327,254.904z"/>
	<path fill="#89BAB9" d="M15.988,115.359c0.635-0.259,1.089-0.62,1.397-0.521c0.335,0.107,0.534,0.64,0.792,0.987
		c-0.361,0.221-0.758,0.658-1.074,0.606C16.755,116.373,16.483,115.865,15.988,115.359z"/>
	<path fill="#89BAB9" d="M635.744,176.57c0.397,0.48,0.864,0.876,0.8,1.001c-0.181,0.357-0.551,0.654-0.912,0.857
		c-0.088,0.05-0.648-0.409-0.615-0.536C635.119,177.499,635.402,177.153,635.744,176.57z"/>
	<path fill="#89BAB9" d="M682.76,6.725c0.116,0.368,0.38,0.768,0.308,1.094c-0.08,0.365-0.414,0.745-0.743,0.946
		c-0.12,0.073-0.795-0.378-0.777-0.544c0.039-0.375,0.352-0.721,0.554-1.079C682.322,7.002,682.541,6.864,682.76,6.725z"/>
	<path fill="#89BAB9" d="M62.526,193.107c0.45-0.31,0.774-0.699,1.003-0.65c0.291,0.063,0.669,0.464,0.7,0.753
		c0.023,0.217-0.447,0.689-0.686,0.681C63.257,193.881,62.983,193.483,62.526,193.107z"/>
	<path fill="#89BAB9" d="M0.821,39.073c0.369-0.404,0.575-0.797,0.75-0.784c0.32,0.024,0.622,0.289,0.932,0.453
		c-0.156,0.244-0.29,0.667-0.474,0.69C1.719,39.472,1.377,39.257,0.821,39.073z"/>
	<path fill="#89BAB9" d="M79.102,207.587c0.291,0.566,0.627,0.921,0.566,1.185c-0.057,0.246-0.52,0.49-0.836,0.542
		c-0.137,0.022-0.528-0.47-0.492-0.674C78.394,208.336,78.724,208.081,79.102,207.587z"/>
	<path fill="#89BAB9" d="M588.576,224.329c0.449-0.364,0.692-0.635,0.995-0.757c0.079-0.032,0.499,0.41,0.484,0.615
		c-0.017,0.233-0.312,0.565-0.547,0.627C589.316,224.865,589.036,224.584,588.576,224.329z"/>
	<path fill="#89BAB9" d="M651.197,163.151c-0.232-0.351-0.544-0.722-0.499-0.773c0.215-0.24,0.527-0.393,0.805-0.577
		c0.145,0.23,0.429,0.483,0.395,0.683C651.863,162.696,651.526,162.857,651.197,163.151z"/>
	<path fill="#89BAB9" d="M511.281,270.687c0.324-0.302,0.534-0.642,0.708-0.624c0.215,0.022,0.537,0.328,0.558,0.536
		c0.02,0.2-0.258,0.57-0.457,0.611C511.906,271.246,511.654,270.944,511.281,270.687z"/>
	<path fill="#89BAB9" d="M94.211,223.274c0.33,0.434,0.618,0.647,0.624,0.868c0.006,0.215-0.275,0.439-0.43,0.659
		c-0.203-0.19-0.513-0.35-0.576-0.578C93.776,224.025,94.004,223.751,94.211,223.274z"/>
	<path fill="#89BAB9" d="M47.56,177.755c0.277-0.128,0.472-0.218,0.667-0.308c0.115,0.25,0.231,0.501,0.346,0.751
		c-0.208,0.061-0.452,0.217-0.614,0.155C47.798,178.293,47.72,178.013,47.56,177.755z"/>
	<path fill="#89BAB9" d="M1.666,69.061c0.266,0.17,0.448,0.286,0.63,0.403c-0.121,0.172-0.22,0.459-0.367,0.487
		c-0.173,0.032-0.388-0.162-0.584-0.258C1.439,69.507,1.533,69.322,1.666,69.061z"/>
	<path fill="#89BAB9" d="M573.315,239.733c0.379-0.295,0.564-0.525,0.792-0.581c0.119-0.029,0.459,0.265,0.444,0.382
		c-0.031,0.251-0.227,0.481-0.356,0.719C573.968,240.119,573.741,239.985,573.315,239.733z"/>
	<path fill="#89BAB9" d="M465.51,286.459c-0.035-0.204-0.1-0.394-0.08-0.574c0.007-0.061,0.231-0.097,0.356-0.145
		c0.061,0.182,0.14,0.362,0.165,0.549C465.956,286.318,465.719,286.381,465.51,286.459z"/>
	<path fill="#89BAB9" d="M681.695,100.625c0.266-0.206,0.424-0.425,0.588-0.429c0.169-0.005,0.344,0.199,0.517,0.311
		c-0.144,0.147-0.272,0.382-0.438,0.414C682.202,100.952,682.002,100.772,681.695,100.625z"/>
	<path fill="#89BAB9" d="M1.74,7.456C1.817,7.698,1.919,7.897,1.929,8.1c0.005,0.101-0.2,0.314-0.24,0.298
		c-0.171-0.067-0.317-0.201-0.472-0.31C1.305,7.982,1.393,7.876,1.74,7.456z"/>
	<path fill="#89BAB9" d="M32.33,162.097c0.124,0.072,0.247,0.143,0.37,0.215c-0.119,0.151-0.238,0.301-0.356,0.452
		c-0.093-0.11-0.255-0.218-0.258-0.33C32.083,162.324,32.242,162.209,32.33,162.097z"/>
	<path fill="#89BAB9" d="M218.123,285.659c0.094,0.103,0.187,0.207,0.281,0.31c-0.144,0.108-0.287,0.217-0.431,0.325
		c-0.058-0.129-0.178-0.271-0.156-0.385C217.836,285.81,218.015,285.742,218.123,285.659z"/>
	<path fill="#89BAB9" d="M171.308,270.506c0.102-0.099,0.204-0.198,0.307-0.298c0.094,0.112,0.26,0.224,0.26,0.337
		c0,0.102-0.18,0.205-0.28,0.307C171.501,270.739,171.408,270.626,171.308,270.506z"/>
	<path fill="#89BAB9" d="M666.984,146.794c0.129,0.061,0.257,0.123,0.385,0.184c-0.072,0.121-0.124,0.317-0.223,0.344
		c-0.105,0.029-0.254-0.101-0.384-0.162C666.836,147.038,666.91,146.916,666.984,146.794z"/>
	<polygon fill="#89BAB9" points="109.561,239.786 109.727,239.697 109.721,239.883 	"/>
	<path fill="#89BAB9" d="M75.335,13.372c-0.741-0.196-1.483-0.39-2.396-0.63c0.304,2.222,0.769,4.109,0.762,5.994
		c-0.007,1.813-0.502,3.625-0.833,5.757c0.854-0.19,1.525-0.312,2.182-0.489c4.367-1.176,8.21-0.327,11.219,3.146
		c3.095,3.571,3.237,7.635,1.406,11.801c-1.838,4.181-7.092,6.565-11.812,5.502c-1.003-0.226-1.994-0.506-3.184-0.811
		c0.385,2.182,0.992,4.125,0.997,6.07c0.005,1.882-0.61,3.765-1.018,6.006c0.951-0.274,1.759-0.508,2.567-0.739
		c4.682-1.336,9.247,0.312,11.893,4.293c2.535,3.815,2.357,9.14-0.651,12.662c-2.66,3.114-6.133,4.35-10.217,3.623
		c-1.019-0.181-2.02-0.462-3.335-0.768c0.311,2.013,0.777,3.784,0.804,5.561c0.028,1.823-0.374,3.653-0.612,5.681
		c0.547-0.046,1.101,0.01,1.582-0.15c3.561-1.187,6.843-0.586,9.937,1.432c0.201,0.131,0.415,0.24,0.634,0.343
		c0.218,0.103,0.441,0.201,0.656,0.308c-0.389-0.796-0.764-1.599-1.168-2.387c-3.318-6.469,0.086-13.678,7.177-15.194
		c5.665-1.211,11.405,3.164,12.195,9.294c0.723,5.607-3.85,10.894-9.534,11.198c-3.064,0.164-5.698-0.817-8.188-2.429
		c0.604,1.14,1.285,2.247,1.795,3.427c1.209,2.799,1.276,5.637,0.067,8.475c-0.269,0.631-0.479,1.286-0.886,2.392
		c6.104-2.618,11.375-2.471,15.195,3.059c2.517,3.644,2.588,7.718,0.241,11.436c-3.365,5.33-8.424,5.961-14.36,4.022
		c0.44,2.019,1.037,3.702,1.113,5.408c0.077,1.726-0.361,3.475-0.6,5.429c1.962-0.161,3.784-0.511,5.576-0.399
		c1.733,0.108,3.437,0.692,5.549,1.153c-0.281-0.872-0.525-1.583-0.741-2.304c-2.012-6.725,2.369-13.328,9.204-13.881
		c4.223-0.341,8.286,2.061,10.193,6.027c1.9,3.952,1.232,8.273-1.718,11.466c-3.202,3.465-7.004,4.395-11.44,2.836
		c-0.588-0.207-1.189-0.375-1.994-0.627c0.428,2.002,1.003,3.759,1.132,5.549c0.13,1.81-0.181,3.652-0.312,5.692
		c2.05-0.157,3.96-0.531,5.828-0.381c1.785,0.143,3.527,0.832,5.535,1.343c-0.293-0.89-0.55-1.623-0.777-2.364
		c-1.92-6.252,1.365-12.151,7.625-13.702c7.078-1.754,14.01,5.03,12.422,12.156c-1.391,6.241-6.836,9.491-13.295,7.929
		c-0.842-0.204-1.675-0.44-2.659-0.7c0.433,2.071,1.035,3.906,1.143,5.769c0.105,1.809-0.296,3.647-0.491,5.631
		c2.037-0.22,3.939-0.674,5.804-0.556c1.859,0.118,3.682,0.809,5.729,1.299c-0.287-0.866-0.549-1.603-0.777-2.35
		c-1.902-6.254,1.404-12.143,7.671-13.677c6.969-1.705,13.856,4.924,12.432,11.964c-1.285,6.351-6.835,9.724-13.375,8.121
		c-0.833-0.204-1.657-0.45-2.67-0.728c0.457,2.057,1.053,3.812,1.186,5.601c0.129,1.737-0.216,3.51-0.374,5.543
		c1.902-0.12,3.717-0.426,5.499-0.294c1.813,0.134,3.594,0.7,5.739,1.15c-0.266-0.95-0.514-1.758-0.719-2.576
		c-1.588-6.351,1.733-11.963,7.903-13.371c4.248-0.97,8.651,1.066,11.118,5.14c2.235,3.691,1.826,8.511-0.997,11.75
		c-3.176,3.644-7.185,4.73-11.809,3.205c-0.59-0.195-1.191-0.356-1.962-0.585c0.423,1.997,0.988,3.759,1.122,5.552
		c0.13,1.741-0.181,3.515-0.316,5.538c1.765-0.242,3.476-0.703,5.17-0.645c1.737,0.06,3.457,0.628,5.536,1.045
		c-0.149-0.795-0.176-1.482-0.409-2.091c-1.668-4.353,0.869-9.668,4.503-12.066c3.607-2.38,8.577-2.082,12.272,0.724
		c3.217,2.444,4.657,7.564,3.27,11.646c-0.259,0.762-0.545,1.515-0.787,2.282c-0.036,0.114,0.101,0.283,0.25,0.655
		c4.612-2.158,9.176-2.463,13.216,1.235c4.024,3.683,4.354,8.226,2.447,13.333c2.35-0.34,4.386-0.945,6.384-0.836
		c2.028,0.111,4.018,0.926,6.246,1.489c-0.2-0.644-0.335-1.235-0.564-1.788c-2.612-6.312,0.559-12.826,7.136-14.404
		c4.09-0.981,7.534,0.416,10.171,3.569c2.728,3.261,3.277,7.012,1.489,10.887c-1.688,3.657-4.588,5.757-8.732,5.894
		c-1.96,0.065-3.872-0.123-5.662-1.024c-0.329-0.166-0.715-0.219-1.164-0.351c0.566,2.028,1.321,3.841,1.522,5.713
		c0.192,1.791-0.191,3.643-0.349,5.843c3.499-0.82,6.902-1.339,10.692,0.647c-0.242-1.524-0.325-2.358-0.512-3.168
		c-1.054-4.551,0.586-8.13,4.129-10.862c3.212-2.477,6.895-2.842,10.532-1.176c4.001,1.833,6.238,5.088,6.144,9.602
		c-0.038,1.826-0.48,3.643-0.755,5.588c2.028-0.336,4.124-1.018,6.188-0.931c2.022,0.085,4.011,0.952,6.333,1.56
		c-0.268-0.783-0.454-1.433-0.708-2.055c-2.553-6.24,0.795-12.817,7.406-14.267c4.094-0.898,7.528,0.558,10.105,3.76
		c2.666,3.312,3.136,7.072,1.284,10.915c-1.705,3.538-4.569,5.711-8.603,5.661c-2.277-0.029-4.546-0.61-6.873-0.951
		c0.481,1.555,1.229,3.258,1.496,5.034c0.269,1.788,0.059,3.648,0.059,5.725c1.515-0.153,3.162-0.467,4.803-0.442
		c1.589,0.025,3.172,0.399,4.848,0.633c0.618-0.841,0.055-1.682-0.088-2.495c-1.043-5.955,2.485-11.37,8.258-12.635
		c7.147-1.566,13.694,4.359,12.914,11.703c-0.125,1.174-0.339,2.338-0.578,3.956c3.85-1.192,7.396-1.403,11.341,0.424
		c-0.274-1.353-0.376-2.19-0.616-2.985c-1.507-4.989,1.792-10.634,6.381-12.466c4.98-1.988,10.464-0.03,13.152,4.696
		c1.397,2.457,1.49,5.068,0.924,7.755c-0.177,0.838-0.392,1.668-0.628,2.664c2.177-0.301,4.062-0.787,5.939-0.759
		c1.895,0.028,3.783,0.566,6.019,0.937c-0.18-0.757-0.253-1.432-0.498-2.038c-1.913-4.718,0.852-9.989,4.327-12.324
		c3.654-2.455,8.897-2.251,12.437,0.817c3.24,2.808,4.337,6.509,3.409,10.743c-0.155,0.707-0.377,1.399-0.535,2.105
		c-0.028,0.124,0.109,0.284,0.196,0.489c1.866-0.263,3.751-0.732,5.636-0.735c1.815-0.003,3.63,0.476,5.813,0.797
		c-0.201-1.032-0.35-1.941-0.557-2.837c-1.233-5.326,1.837-10.819,7.015-12.53c5.151-1.702,10.696,0.729,12.95,5.701
		c1.045,2.305,1.037,4.699,0.486,7.121c-0.175,0.768-0.362,1.534-0.613,2.59c2.133-0.448,3.972-1.096,5.828-1.148
		c1.79-0.05,3.598,0.515,5.769,0.87c-0.254-1.113-0.456-1.938-0.631-2.769c-1.101-5.241,1.975-10.946,6.934-12.385
		c5.956-1.729,10.82,0.545,13.352,5.795c0.992,2.057,0.824,4.248,0.609,6.428c-0.078,0.791-0.234,1.574-0.406,2.691
		c1.901-0.302,3.587-0.751,5.282-0.788c1.655-0.036,3.32,0.347,5.022,0.551c0-1.962-0.168-3.802,0.047-5.595
		c0.217-1.802,0.816-3.559,1.301-5.555c-0.636,0.166-1.138,0.324-1.652,0.425c-1.49,0.294-2.978,0.758-4.479,0.812
		c-5.451,0.195-8.732-2.977-10.017-7.76c-1.3-4.84,0.985-9.487,5.5-11.743c3.786-1.892,7.43-1.433,10.699,1.09
		c3.414,2.635,4.835,6.192,3.892,10.495c-0.286,1.305-0.833,2.553-1.276,3.875c2.216-0.569,4.278-1.462,6.369-1.532
		c2.081-0.07,4.189,0.687,6.629,1.146c-2.517-5.925-1.648-11.014,3.641-14.657c3.382-2.33,7.224-2.461,10.785-0.328
		c5.638,3.377,6.315,8.514,4.249,14.537c2.141-0.46,3.912-1.083,5.707-1.158c1.731-0.073,3.485,0.419,5.439,0.691
		c-0.099-2.058-0.445-4.054-0.219-5.984c0.226-1.936,1.021-3.805,1.638-5.952c-3.372,1.788-6.793,2.433-10.348,1.217
		c-2.159-0.739-3.649-2.388-4.858-4.221c-2.5-3.79-1.933-9.034,1.246-12.587c2.828-3.161,7.75-4.044,11.789-2.165
		c2.996,1.395,4.693,3.798,5.69,6.865c0.998,3.071-0.185,5.815-1.454,8.672c2.454-0.627,4.521-1.512,6.618-1.59
		c2.02-0.075,4.07,0.684,6.452,1.144c-0.256-0.808-0.488-1.528-0.712-2.251c-2.35-7.607,3.212-14.633,11.124-14.053
		c5.2,0.381,9.216,4.401,9.449,9.634c0.081,1.825-0.195,3.667-0.322,5.73c1.719-0.288,3.337-0.713,4.971-0.79
		c1.586-0.075,3.189,0.208,5.019,0.352c-0.109-1.748-0.371-3.406-0.269-5.041c0.098-1.581,0.571-3.138,0.89-4.756
		c-1.172-0.632-2.14,0.054-3.11,0.23c-4.214,0.765-7.749-0.523-10.365-3.789c-2.647-3.304-2.944-7.122-1.222-10.969
		c2.15-4.803,7.708-7.227,12.538-5.612c5.287,1.768,8.367,7.108,7.159,12.428c-0.207,0.912-0.448,1.817-0.809,3.268
		c3.858-1.509,7.393-1.682,11.433-0.48c-1.296-4.154-1.195-7.771,0.979-11.566c-1.061,0.194-1.565,0.294-2.072,0.377
		c-1.501,0.247-2.999,0.665-4.505,0.698c-3.98,0.087-7.105-1.621-8.896-5.195c-1.824-3.64-1.703-7.367,0.56-10.838
		c2.745-4.209,8.321-5.727,12.84-3.603c4.761,2.238,7.2,7.649,5.649,12.539c-0.262,0.826-0.54,1.647-0.906,2.762
		c2.163-0.51,3.984-1.192,5.839-1.306c1.885-0.116,3.805,0.329,5.84,0.541c0.028-0.299,0.139-0.618,0.073-0.896
		c-0.786-3.309-0.88-6.554,0.746-9.679c0.13-0.25,0.089-0.589,0.171-1.219c-3.824,1.57-7.502,2.186-11.137,0.322
		c-2.169-1.113-3.587-2.961-4.557-5.173c-1.725-3.93-0.579-9.039,2.645-11.739c3.79-3.174,8.682-3.504,12.568-0.847
		c4.601,3.146,5.549,7.515,3.13,14.777c2.027-0.554,3.96-1.397,5.942-1.536c1.948-0.137,3.945,0.441,6.119,0.732
		c-0.199-1.893-0.649-3.849-0.54-5.773c0.111-1.967,0.77-3.904,1.219-5.99c-0.798-0.352-1.432,0.34-2.151,0.542
		c-3.762,1.055-7.348,0.993-10.525-1.658c-3.844-3.208-4.825-9.167-2.213-13.427c2.687-4.382,8.164-6.11,12.914-4.074
		c4.676,2.005,7.255,7.291,5.908,12.203c-0.315,1.148-0.785,2.254-1.242,3.544c2.078-0.592,3.952-1.434,5.882-1.589
		c1.943-0.157,3.941,0.369,6.131,0.621c-0.258-1.983-0.777-3.875-0.67-5.731c0.108-1.882,0.835-3.728,1.364-5.892
		c-0.767,0.217-1.414,0.411-2.067,0.581c-2.973,0.772-5.947,0.901-8.745-0.535c-3.948-2.027-5.608-5.42-5.377-9.776
		c0.232-4.393,2.409-7.459,6.498-9.076c3.987-1.576,7.598-0.917,10.746,2.052c3.266,3.08,4.238,6.745,2.838,11.027
		c-0.2,0.612-0.375,1.233-0.528,1.859c-0.03,0.124,0.096,0.287,0.172,0.488c1.764-0.424,3.521-1.091,5.313-1.208
		c1.802-0.118,3.64,0.311,5.868,0.542c-1.001-3.729-1.087-7.269,0.767-11.183c-1.359,0.337-2.102,0.507-2.839,0.707
		c-5.129,1.388-10.207-0.816-12.46-5.415c-2.296-4.686-0.928-10.256,3.402-13.373c3.057-2.201,6.41-2.471,9.897-1.08
		c0.808,0.322,1.594,0.696,2.9,1.27c-0.43-1.091-0.644-1.731-0.928-2.338c-2.053-4.38-1.251-8.407,1.77-11.956
		c2.949-3.463,6.899-3.855,11.096-2.981c0.695,0.145,1.366,0.402,2.385,0.709c-0.416-2.176-1.079-4.088-1.062-5.994
		c0.017-1.951,0.702-3.897,1.151-6.129c-1.2,0.337-2.243,0.663-3.303,0.923c-4.025,0.987-8.524-0.703-10.924-4.082
		c-2.536-3.571-2.652-8.108-0.303-11.859c2.265-3.616,6.24-5.498,10.366-4.766c1.408,0.25,2.761,0.81,4.53,1.347
		c-0.436-1.577-0.943-2.89-1.134-4.247c-0.189-1.344-0.211-2.754-0.027-4.096c0.192-1.397,0.718-2.749,1.189-4.451
		c-1.273,0.383-2.237,0.707-3.219,0.963c-5.209,1.358-10.385-1.069-12.469-5.829c-2.134-4.875-0.37-10.478,4.258-13.32
		c2.699-1.657,5.597-1.969,8.614-0.96c0.82,0.274,1.626,0.591,2.991,1.09c-1.85-4.462-2.126-8.524-0.092-12.571
		c-1.09-0.5-1.762,0.125-2.468,0.365c-6.748,2.29-13.158-1.564-14.221-8.61c-0.13-0.862-0.113-1.774,0.028-2.635
		C595.298,0.999,595.468,1,595.727,0h-11.858c0.297,1,0.49,1.052,0.631,1.853c0.917,5.215-3.203,10.526-8.487,10.931
		c-3.359,0.258-6.355-0.349-8.747-3.069c-2.224-2.529-2.759-5.384-2.274-8.548C565.065,0.692,565.174,0,565.333,0h-13.174
		c0.23,1,0.369,0.97,0.46,1.706c0.786,6.376-3.72,11.109-10.052,10.563c-4.764-0.41-8.698-5.218-8.158-9.978
		C534.526,1.264,534.736,1,535.107,0H520.36c0.242,0,0.421,0.856,0.569,1.478c1.06,4.453-2.23,9.224-6.886,9.988
		c-4.9,0.804-9.45-2.642-9.768-7.398c-0.022-0.322-0.026-0.638-0.025-0.961C504.255,1.635,504.403,1,504.839,0h-16.314
		c0.459,1,0.626,1.634,0.636,3.078c0.032,4.499-3.592,7.992-8.023,7.74c-4.407-0.251-7.752-4.154-7.306-8.533
		C473.933,1.293,474.169,1,474.584,0h-17.984c0.251,0,0.446,0.767,0.589,1.261c0.809,2.787-0.228,5.791-2.63,7.429
		c-2.411,1.644-5.876,1.62-8.161-0.054c-2.26-1.655-3.266-4.876-2.391-7.541C444.147,0.668,444.331,0,444.56,0h-19.981
		c0.362,1,0.621,1.025,0.813,1.785c0.62,2.462-0.509,5.01-2.829,6.389c-2.051,1.22-5.414,0.943-7.034-0.576
		c-1.843-1.728-2.433-5.003-1.313-7.145C414.304,0.285,414.404,0,414.51,0h-21.988c0.522,1,0.832,1.304,0.99,2.326
		c0.407,2.644-1.104,4.995-3.696,5.761c-2.046,0.604-4.348-0.349-5.642-2.333c-1.112-1.704-0.996-4.105,0.229-5.68
		C384.424,0.045,384.448,0,384.471,0h-23.869c0.894,1,1.422,1.97,1.37,3.302c-0.093,2.4-1.978,4.145-4.466,4.141
		c-2.696-0.004-4.423-1.702-4.425-4.362C353.079,1.767,353.485,1,354.23,0h-24.65c0.884,1,1.41,1.946,1.37,3.265
		c-0.072,2.4-1.948,4.168-4.429,4.179c-2.7,0.012-4.433-1.665-4.46-4.327C322.048,1.789,322.453,1,323.206,0h-23.705
		c0.448,1,0.746,1.084,0.934,1.89c0.564,2.423-0.548,4.822-2.731,5.895c-2.169,1.066-4.942,0.487-6.353-1.391
		c-0.902-1.201-1.349-2.573-1.119-4.092C290.385,1.297,290.706,1,291.241,0h-21.626c0.297,0,0.515,0.883,0.674,1.523
		c0.616,2.474,0.023,4.674-1.938,6.314c-1.875,1.569-4.057,1.884-6.32,0.83c-2.3-1.071-3.652-2.887-3.786-5.436
		C258.172,1.848,258.562,1,259.323,0h-19.845c0.23,0,0.417,0.673,0.568,1.094c1.364,3.818-1.491,8.364-5.528,8.765
		c-5.352,0.531-8.876-3.153-7.87-8.232C226.784,0.94,226.975,1,227.255,0h-17.858c0.212,0,0.385,0.637,0.52,1.043
		c0.954,2.873-0.274,6.553-2.849,8.363c-2.788,1.96-6.692,1.963-9.295,0.011c-2.723-2.042-3.904-5.668-2.843-8.586
		C195.047,0.513,195.188,0,195.354,0h-16.083c0.463,1,0.63,1.65,0.635,3.113c0.018,4.711-3.68,8.542-8.334,8.641
		c-4.571,0.097-8.807-3.908-8.925-8.443c-0.039-1.507,0.221-2.31,0.84-3.31H149.02c0.23,0,0.4,0.88,0.548,1.532
		c0.835,3.674-1.341,8.307-4.93,9.894c-3.359,1.486-6.768,1.432-9.877-0.812c-2.877-2.076-3.954-4.99-3.674-8.447
		C131.165,1.205,131.339,1,131.665,0h-12.986c0.278,1,0.448,1.047,0.56,1.848c0.74,5.275-2.672,9.914-8.152,11.089
		c-4.932,1.058-10.024-2.071-11.31-7.063c-0.334-1.298-0.477-2.704-0.371-4.037C99.469,1.035,99.61,1,99.863,0H88.278
		c0.21,0,0.346,0.878,0.442,1.53C89.868,9.365,83.033,15.408,75.335,13.372z M93.973,59.817
		c-5.828,0.029-10.343-4.426-10.458-10.121c-0.103-5.116,4.681-10.644,10.352-10.193c5.281-0.377,10.166,4.454,10.138,10.088
		C103.977,55.372,99.669,59.788,93.973,59.817z M99.409,65.097c0.019-5.871,5.668-10.093,9.829-10.026
		c5.457,0.088,10.093,4.619,10.022,10.068c-0.062,4.788-3.461,10.007-10.094,9.725C104.137,75.466,99.392,70.327,99.409,65.097z
		 M487.819,142.607c0.055-4.745,4.445-9.531,9.357-9.062c5.366,0.062,9.002,3.81,8.972,9.249c-0.03,5.45-3.924,9.142-9.41,9.129
		C491.303,151.911,487.772,146.679,487.819,142.607z M490.991,158.292c-0.058,4.453-3.647,9.452-9.555,9.143
		c-5.267-0.015-9.177-3.932-9.151-9.205c0.025-5.31,3.777-9.208,9.338-9.461C486.496,148.548,491.056,153.303,490.991,158.292z
		 M503.337,127.201c-0.009-3.891,3.407-9.402,9.327-9.158c5.274-0.002,9.036,3.886,8.994,9.295
		c-0.041,5.351-3.857,9.085-9.251,9.051C507.54,136.358,503.348,132.09,503.337,127.201z M518.783,111.549
		c0.221-5.133,4.164-9.196,9.284-9.252c4.95-0.054,9.426,4.467,9.38,9.475c-0.046,5.094-4.192,9.146-9.331,9.12
		C523.204,121.202,518.576,116.36,518.783,111.549z M519.275,80.678c-0.104-5.635,5.179-8.998,8.661-9.053
		c4.949-0.077,9.133,4.094,9.112,9.093c-0.021,5.054-3.805,8.682-9.051,8.677C522.948,89.391,519.369,85.724,519.275,80.678z
		 M534.304,96.095c0.036-5.324,4.317-9.58,9.529-9.473c4.818,0.099,9.312,4.835,9.274,9.696c-0.03,3.898-3.684,9.438-9.602,9.127
		C537.996,105.155,534.267,101.577,534.304,96.095z M549.448,80.523c0.097-4.693,4.565-9.825,9.686-9.479
		c5.48,0.06,9.571,4.251,9.519,9.751c-0.051,5.444-4.337,9.612-9.775,9.505C553.845,90.201,549.345,85.525,549.448,80.523z
		 M564.852,64.883c0.04-5.226,4.654-9.971,9.773-9.697c6.096,0.326,9.785,4.315,9.863,10.148c0.057,4.242-3.081,9.707-10.066,9.52
		C568.846,74.821,564.808,70.614,564.852,64.883z M559.01,58.989c-5.552-0.226-9.298-4.044-9.196-9.645
		c-0.199-5.157,4.607-9.42,9.442-9.279c5.285,0.154,9.428,4.491,9.363,9.738C568.57,53.843,564.85,59.227,559.01,58.989z
		 M552.668,65.19c-0.085,5.261-3.904,9.153-8.968,9.137c-5.143-0.016-9.322-4.166-9.278-9.213c0.044-5.055,4.244-9.145,9.355-9.111
		C548.816,56.036,552.75,60.101,552.668,65.19z M528.125,58.349c-4.87,0.045-8.803-3.852-8.787-8.707
		c0.016-4.896,3.837-8.656,8.811-8.669c4.915-0.013,8.487,3.565,8.536,8.547C536.734,54.578,533.122,58.303,528.125,58.349z
		 M521.042,65.011c0.036,4.512-3.856,8.666-8.458,8.389c-4.867,0.035-8.257-3.265-8.313-8.093c-0.056-4.724,3.669-8.672,8.213-8.707
		C517.072,56.566,521.006,60.396,521.042,65.011z M512.554,87.509c4.852-0.045,8.427,3.654,8.66,8.548
		c0.228,4.787-4.119,8.871-8.406,8.832c-4.977-0.046-8.917-3.726-8.979-8.587C503.766,91.396,507.578,87.554,512.554,87.509z
		 M505.639,111.903c-0.082,4.682-3.908,8.456-8.541,8.425c-4.588-0.03-8.737-4.143-8.719-8.642c0.02-4.807,4.028-8.691,8.913-8.636
		C501.962,103.102,505.723,107.092,505.639,111.903z M490.128,127.396c-0.075,4.684-3.896,8.469-8.523,8.442
		c-4.593-0.027-8.881-4.128-8.701-8.623c0.224-5.606,4.279-8.622,8.86-8.655C486.433,118.604,490.205,122.588,490.128,127.396z
		 M474.639,142.709c0.008,4.943-3.659,8.7-8.482,8.692c-4.972-0.008-8.871-3.829-8.862-8.683c0.009-4.911,3.846-8.677,8.842-8.678
		C470.959,134.04,474.632,137.785,474.639,142.709z M459.492,158.357c-0.078,4.991-3.943,8.626-9.135,8.593
		c-5.016-0.032-8.646-3.731-8.614-8.777c-0.16-5.176,4.559-8.921,8.936-8.949C455.358,149.195,459.566,153.593,459.492,158.357z
		 M444.112,173.841c0.08,4.527-4.178,9.205-9.171,9.042c-4.962-0.009-9.11-4.182-9.095-9.15c0.016-4.954,4.188-9.138,9.115-9.139
		C440.215,164.593,444.018,168.556,444.112,173.841z M435.004,150.914c-4.514-0.069-8.221-3.728-8.247-8.138
		c-0.028-4.698,3.733-8.32,8.565-8.249c4.558,0.067,7.827,3.454,7.802,8.081C443.098,147.539,439.727,150.986,435.004,150.914z
		 M428.045,158.184c0.035,4.664-3.786,8.547-8.424,8.509c-4.829-0.04-8.708-3.796-8.439-8.384c-0.384-4.756,4.15-8.769,8.184-8.72
		C424.125,149.646,428.009,153.42,428.045,158.184z M412.875,173.875c-0.092,4.986-3.86,8.621-8.893,8.578
		c-5.136-0.044-8.794-3.835-8.792-8.911c0.001-5.173,4.8-8.833,8.867-8.76C408.953,164.869,412.965,169.033,412.875,173.875z
		 M397.571,189.118c0.041,5.509-3.729,9.247-9.201,9.339c-5.572,0.094-9.072-5.115-9.127-9.107c-0.069-4.93,4.474-9.495,9.149-9.321
		C393.799,180.231,397.531,183.737,397.571,189.118z M388.547,166.427c-4.522-0.032-8.257-3.651-8.322-8.064
		c-0.07-4.699,3.669-8.366,8.489-8.326c4.569,0.038,7.877,3.4,7.879,8.007C396.594,162.977,393.251,166.46,388.547,166.427z
		 M381.553,173.822c-0.028,4.754-3.72,8.551-8.359,8.598c-4.893,0.049-8.888-3.831-8.906-8.65c-0.018-4.768,3.835-8.67,8.583-8.693
		C377.906,165.053,381.583,168.756,381.553,173.822z M366.556,189.445c0.038,4.477-4.218,9.102-9.265,8.964
		c-4.964-0.136-9.08-4.305-9.001-9.26c0.079-4.968,4.274-9.088,9.209-9.045C362.742,180.15,366.511,184.154,366.556,189.445z
		 M342.194,182.371c-4.565,0.097-8.935-3.9-8.888-8.433c0.054-5.169,3.683-8.69,8.668-8.843c4.686-0.052,8.552,3.855,8.554,8.645
		C350.53,178.453,346.843,182.272,342.194,182.371z M335.515,189.166c-0.039,5.278-3.797,9.204-8.857,9.249
		c-5.141,0.046-9.356-4.037-9.391-9.099c-0.035-5.035,4.151-9.213,9.242-9.225C331.568,180.08,335.552,184.094,335.515,189.166z
		 M311.107,182.42c-4.892,0.027-8.885-3.888-8.867-8.692c0.018-4.781,3.875-8.648,8.627-8.651c4.936-0.003,8.582,3.602,8.641,8.545
		C319.566,178.495,315.843,182.394,311.107,182.42z M304.504,189.236c0.001,5.476-3.838,9.187-9.32,9.22
		c-5.499,0.034-9.011-5.196-9.011-9.226c0-4.817,4.46-9.598,9.267-9.153C300.826,180.109,304.504,183.825,304.504,189.236z
		 M295.377,166.424c-4.525-0.083-8.211-3.744-8.219-8.165c-0.009-4.7,3.758-8.303,8.593-8.221c4.549,0.077,7.809,3.478,7.774,8.109
		C303.487,163.07,300.1,166.511,295.377,166.424z M288.87,173.851c-0.066,4.99-3.928,8.638-9.116,8.611
		c-5.022-0.026-8.581-3.715-8.654-8.759c-0.075-5.184,4.563-8.928,8.939-8.968C284.717,164.693,288.933,169.082,288.87,173.851z
		 M264.501,166.793c-4.711-0.021-8.666-4.005-8.599-8.662c0.067-4.618,4.001-8.574,8.48-8.525c4.757,0.051,8.582,3.936,8.553,8.686
		C272.907,162.999,269.122,166.814,264.501,166.793z M257.969,173.947c-0.064,5.104-4.07,9.043-9.109,8.958
		c-5.097-0.086-9.28-4.326-9.208-9.296c0.057-3.866,3.456-9.318,9.424-9.03C254.319,164.618,258.037,168.535,257.969,173.947z
		 M248.973,150.931c-4.612,0.064-8.354-3.613-8.35-8.205c0.004-4.705,3.525-8.183,8.305-8.203c4.716-0.02,8.024,3.279,8.073,8.053
		C257.052,147.518,253.837,150.864,248.973,150.931z M242.394,158.189c0.037,4.999-3.778,8.725-8.972,8.763
		c-4.766,0.47-8.988-4.307-8.921-8.559c0.076-4.839,3.352-9.014,8.925-9.217C238.117,149.003,242.358,153.369,242.394,158.189z
		 M217.675,151.418c-4.774-0.041-8.545-3.857-8.56-8.66c-0.015-4.888,3.826-8.742,8.697-8.728c5.661-0.042,8.76,3.99,8.796,8.827
		C226.643,147.624,222.544,151.459,217.675,151.418z M140.441,86.561c5.095,0.046,9.411,4.357,9.395,9.468
		c-0.017,5.392-4.192,9.715-9.432,9.68c-5.883-0.039-9.708-4.755-9.392-9.563C130.703,89.95,136.326,86.524,140.441,86.561z
		 M124.65,90.338c-5.24-0.023-9.51-4.291-9.567-9.565c-0.059-5.504,4.22-9.745,9.835-9.747c5.311-0.002,9.409,4.126,9.447,9.518
		C134.405,86.155,130.232,90.362,124.65,90.338z M155.825,89.641c-5.489-0.114-8.865-3.867-8.816-8.867
		c-0.029-5.176,3.645-9.122,8.572-9.207c4.872-0.084,9.172,4.084,9.261,8.976C164.932,85.495,160.84,89.745,155.825,89.641z
		 M171.375,87.268c4.75-0.006,8.817,3.986,8.813,8.815c-0.003,4.069-3.178,8.909-8.729,8.815c-5.003,0.013-8.846-3.682-8.912-8.568
		C162.481,91.464,166.562,87.275,171.375,87.268z M155.916,102.235c4.879-0.204,9.425,4.565,9.343,9.549
		c-0.073,4.43-3.64,9.336-9.582,9.147c-5.257-0.167-9.148-3.984-9.129-9.261C146.607,106.326,150.395,102.467,155.916,102.235z
		 M162.062,127.17c0.024-5.242,4.199-9.409,9.383-9.366c4.877,0.041,9.217,4.439,9.245,9.369c0.029,5.08-4.102,9.084-9.218,9.267
		C166.429,136.622,161.741,131.855,162.062,127.17z M186.805,133.302c5.077-0.172,9.406,4.29,9.402,9.378
		c-0.004,5.166-4.022,9.212-9.173,9.236c-5.492,0.026-9.44-3.772-9.46-9.121C177.553,137.467,181.376,133.485,186.805,133.302z
		 M202.307,148.667c4.884-0.084,9.567,4.68,9.558,9.653c-0.007,4.029-3.814,9.552-9.315,9.121c-5.707,0.017-9.512-3.695-9.489-9.26
		C193.082,152.932,197.14,148.756,202.307,148.667z M202.54,135.911c-4.974-0.068-8.904-3.781-8.932-8.633
		c-0.028-4.915,3.787-8.72,8.771-8.748c4.845-0.027,8.394,3.687,8.614,8.595C211.204,131.835,206.898,135.97,202.54,135.911z
		 M186.876,120.377c-4.971-0.052-8.839-3.913-8.78-8.763c0.06-4.915,3.915-8.627,8.924-8.595c4.811,0.031,8.439,3.802,8.419,8.75
		C195.421,116.693,191.705,120.427,186.876,120.377z M186.765,88.868c-4.615-0.102-8.33-3.934-8.181-8.44
		c0.152-4.606,3.879-8.039,8.623-7.945c4.632,0.092,7.876,3.608,7.737,8.385C194.805,85.638,191.397,88.971,186.765,88.868z
		 M186.822,57.626c-4.638-0.06-7.827-3.317-7.821-7.986c0.006-4.582,3.374-8.103,7.768-8.124c4.372-0.021,8.154,3.797,8.126,8.201
		C194.866,54.088,191.196,57.683,186.822,57.626z M179.868,65.082c0.055,4.665-3.748,8.563-8.389,8.544
		c-4.859-0.02-8.733-3.799-8.474-8.35c-0.406-4.785,4.15-8.786,8.149-8.755C175.904,56.559,179.811,60.325,179.868,65.082z
		 M156.03,58.364c-5.174,0.047-8.914-3.638-9.018-8.686c-0.108-5.276,4.612-8.918,8.642-8.987c4.843-0.083,9.094,3.984,9.008,8.868
		C164.568,54.996,160.869,58.329,156.03,58.364z M149.394,65.175c-0.009,5.468-3.869,9.183-9.347,9.192
		c-5.528,0.009-9.001-5.244-8.983-9.252c0.021-4.805,4.459-9.576,9.295-9.125C145.739,56.03,149.402,59.755,149.394,65.175z
		 M124.901,59.254c-5.186,0.01-9.602-4.311-9.681-9.471c-0.078-5.07,4.384-9.702,9.401-9.759c5.374-0.061,9.7,4.212,9.72,9.601
		C134.362,54.939,130.141,59.244,124.901,59.254z M99.088,96.039c0.109-5.585,4.689-9.998,10.36-9.985
		c5.796,0.014,9.916,4.272,9.89,10.221c0.41,5.809-5.481,10.134-9.949,10.067C103.643,106.254,98.978,101.665,99.088,96.039z
		 M115.017,111.704c0.002-5.777,4.179-10.064,9.845-10.103c5.31-0.037,9.926,4.541,9.948,9.866
		c0.024,5.736-4.376,10.159-10.093,10.209C119.81,121.719,114.607,117.218,115.017,111.704z M140.147,136.903
		c-5.584,0.318-9.861-4.998-9.65-9.894c0.23-5.367,4.666-10.051,9.95-9.809c5.845,0.268,9.854,4.567,9.781,10.239
		C150.161,132.65,146.06,137.25,140.147,136.903z M155.603,152.423c-5.568-0.108-9.604-4.274-9.551-10.005
		c0.049-5.223,4.68-9.964,9.795-9.677c6.119,0.343,9.785,4.362,9.841,10.168C165.728,147.206,162.557,152.558,155.603,152.423z
		 M161.554,158.311c-0.024-5.521,4.492-10.308,9.878-10.087c5.609,0.23,9.681,4.171,9.822,9.961c0.125,5.15-3.979,9.735-9.805,9.813
		C165.257,168.08,161.239,162.597,161.554,158.311z M186.811,183.72c-4.94,0.07-10.143-4.453-9.75-9.923
		c-0.014-5.796,4.122-10.083,9.796-10.152c5.313-0.064,9.947,4.487,9.996,9.816C196.906,179.197,192.531,183.639,186.811,183.72z
		 M202.396,199.407c-5.657-0.124-10.226-4.559-10.241-10.119c-0.015-5.561,4.534-10.105,10.177-10.166
		c5.828-0.063,10.035,4.129,10.072,10.036C212.885,195.212,206.85,199.505,202.396,199.407z M217.788,183.337
		c-5.224-0.112-9.544-4.497-9.501-9.645c0.042-5.107,4.544-9.609,9.58-9.581c5.367,0.03,9.607,4.377,9.541,9.78
		C227.344,179.192,223.007,183.45,217.788,183.337z M233.569,198.933c-5.711,0.027-9.937-4.071-9.948-9.646
		c-0.01-5.47,4.356-9.88,9.824-9.924c5.055-0.041,9.788,4.658,9.766,9.798C243.189,194.323,238.819,199.197,233.569,198.933z
		 M248.738,214.839c-6.013-0.224-9.831-4.665-9.957-10.114c-0.127-5.489,4.541-10.061,9.972-10.077
		c5.629-0.016,10.161,4.5,10.162,10.127C258.917,210.404,254.351,215.048,248.738,214.839z M264.369,198.591
		c-5.561-0.194-9.344-3.993-9.266-9.578c-0.218-5.244,4.605-9.45,9.375-9.351c5.284,0.11,9.449,4.411,9.432,9.672
		C273.898,193.392,270.166,198.793,264.369,198.591z M279.944,214.453c-5.608,0.036-9.815-4.14-9.792-9.723
		c0.022-5.397,4.449-10.005,9.804-9.915c5.19,0.087,9.649,3.99,9.85,9.927C289.992,210.221,285.601,214.416,279.944,214.453z
		 M295.331,230.425c-5.647-0.005-10.146-4.537-10.114-10.188c0.032-5.646,4.549-10.125,10.192-10.105
		c5.992,0.022,10.117,4.245,10.064,10.305C305.421,226.343,301.27,230.431,295.331,230.425z M301.216,204.748
		c0.018-5.514,4.318-9.677,9.949-9.632c5.292,0.042,9.333,4.211,9.333,9.631c0.001,5.492-4.109,9.642-9.587,9.68
		C305.569,214.465,301.198,210.101,301.216,204.748z M326.406,230.385c-5.423,0.019-10.171-4.564-10.073-10.014
		c0.108-6.006,4.682-10.269,10.107-10.223c5.3-0.038,9.967,4.498,10.042,9.761C336.566,225.757,332.134,230.365,326.406,230.385z
		 M341.774,214.39c-5.041-0.068-9.647-4.733-9.458-9.748c0.169-4.495,3.358-9.542,9.59-9.511c5.496,0.026,9.62,4.197,9.593,9.702
		C351.472,210.346,347.281,214.464,341.774,214.39z M357.238,230.384c-5.435-0.101-10.117-4.799-9.885-10.202
		c0.264-6.147,4.961-10.17,10.298-10.035c5.284,0.038,9.847,4.647,9.854,9.952C367.512,225.913,362.944,230.49,357.238,230.384z
		 M373.054,214.411c-5.287-0.029-9.934-4.513-9.76-9.676c0.176-5.217,3.829-9.633,9.727-9.618c5.284-0.02,9.468,4.16,9.52,9.51
		C382.594,210.13,378.415,214.441,373.054,214.411z M388.207,230.423c-5.519-0.088-10.057-4.839-9.92-10.387
		c0.139-5.631,4.688-9.981,10.356-9.902c5.936,0.083,9.995,4.365,9.894,10.437C398.442,226.257,393.978,230.515,388.207,230.423z
		 M404.201,214.484c-5.718-0.141-9.921-4.052-9.959-9.63c-0.037-5.43,4.409-10.024,9.706-10.029c5.325-0.005,9.828,4.51,9.906,9.879
		C413.927,209.721,409.323,214.61,404.201,214.484z M419.523,198.464c-6.249,0.284-9.441-5.029-9.341-9.199
		c0.13-5.411,4.17-9.724,9.458-9.551c5.238,0.171,9.164,4.221,9.362,9.544C429.148,193.215,425.328,198.965,419.523,198.464z
		 M434.889,214.815c-5.387-0.022-9.895-4.57-9.854-10.165c0.04-5.438,4.029-9.686,10.03-9.982c5.378-0.053,9.945,4.538,9.981,10.034
		C445.083,210.28,440.504,214.839,434.889,214.815z M460.142,189.557c-0.293,5.338-4.312,9.425-9.645,9.373
		c-5.579-0.055-9.72-4.275-9.706-9.891c0.013-5.339,4.36-9.507,9.851-9.445C455.623,179.27,460.447,183.995,460.142,189.557z
		 M466.224,183.273c-5.377,0.074-9.47-4.02-9.48-9.483c-0.334-6.328,5.33-9.674,9.342-9.672c5.099,0.002,9.454,4.269,9.483,9.38
		C475.599,178.897,471.485,183.2,466.224,183.273z M481.467,199.362c-5.424-0.012-10.157-4.627-10.024-10.063
		c0.148-6.049,4.762-10.246,10.157-10.175c5.296-0.019,9.939,4.538,9.994,9.811C491.655,194.78,487.193,199.375,481.467,199.362z
		 M496.883,183.436c-5.562,0.383-9.717-5.001-9.687-9.846c0.034-5.568,5.227-10.024,10.135-9.899c5.257,0.133,9.82,4.806,9.7,10.115
		C506.92,178.717,503.399,183.759,496.883,183.436z M512.569,167.92c-5.507,0.022-9.676-4.049-9.751-9.522
		c-0.075-5.502,4.407-10.242,9.845-10.116c5.353,0.125,9.66,4.211,9.81,9.967C522.617,163.745,518.24,167.897,512.569,167.92z
		 M528.248,152.401c-5.716,0.014-9.903-4.054-9.917-9.633c-0.014-5.43,4.46-10.013,9.748-9.987c5.33,0.027,9.814,4.563,9.864,9.922
		C537.99,147.69,533.407,152.728,528.248,152.401z M543.476,136.897c-5.484-0.021-9.617-4.156-9.636-9.638
		c-0.019-5.494,4.556-10.222,9.96-9.999c5.669,0.234,9.678,4.646,9.679,10.081C553.481,131.546,550.435,137.052,543.476,136.897z
		 M558.995,121.47c-5.666,0.032-10.106-5.122-9.666-9.856c-0.374-5.618,5.095-10.05,9.979-9.969c5.25,0.087,9.843,4.728,9.768,10.05
		C569.007,116.604,565.477,121.434,558.995,121.47z M574.457,106.262c-6.022-0.234-9.824-4.685-9.943-10.128
		c-0.12-5.489,4.553-10.054,9.986-10.063c5.63-0.01,10.154,4.511,10.148,10.14C584.642,101.838,580.068,106.48,574.457,106.262z
		 M600.465,80.638c0.038,5.614-4.472,10.166-10.11,10.202c-5.829,0.038-10.431-4.398-10.464-10.086
		c-0.033-5.638,4.578-10.349,10.226-10.45C595.61,70.205,600.427,75.015,600.465,80.638z M600.181,49.567
		c0.474,6.011-5.467,10.226-9.774,10.238c-5.745,0.016-10.466-4.474-10.475-10.125c-0.009-5.562,4.541-10.1,10.185-10.158
		C595.944,39.463,600.147,43.658,600.181,49.567z M590.231,8.488c5.964,0.062,10.045,4.335,9.952,10.417
		c-0.091,5.876-4.308,9.938-10.253,9.876c-5.64-0.059-10.102-4.654-10.002-10.299C580.028,12.828,584.563,8.429,590.231,8.488z
		 M584.517,34.18c0.129,5.501-4.248,9.635-9.923,9.651c-5.504,0.015-9.667-4.066-9.732-9.541
		c-0.066-5.501,4.433-10.241,9.865-10.097C580.132,24.336,584.384,28.473,584.517,34.18z M559.211,9.016
		c5.189-0.015,9.456,4.354,9.439,9.664c-0.017,5.337-4.172,9.468-9.574,9.519c-5.112,0.048-9.605-4.488-9.542-9.634
		C549.598,13.41,554.036,9.031,559.211,9.016z M543.436,24.996c5.251-0.052,9.125,3.861,9.243,9.123
		c0.125,5.6-5.087,9.126-9.072,9.166c-4.823,0.048-9.141-4.2-9.182-9.069C534.383,29.284,538.525,25.045,543.436,24.996z
		 M528.078,9.715c4.83-0.044,9.025,4.131,8.862,9.003c-0.146,4.343-3.532,8.774-8.917,8.637c-4.979-0.127-8.752-3.862-8.722-8.77
		C519.331,13.821,523.351,9.758,528.078,9.715z M512.545,25.659c4.386,0.049,8.389,3.994,8.411,8.388
		c0.021,4.094-3.387,8.537-8.252,8.322c-4.971,0.013-8.473-3.435-8.43-8.299C504.315,29.509,508.148,25.61,512.545,25.659z
		 M496.955,10.497c4.367-0.05,8.17,3.754,8.161,8.164c-0.009,4.368-3.657,7.976-8.037,7.949c-4.619-0.028-7.851-3.302-7.856-7.955
		C489.218,14.061,492.549,10.547,496.955,10.497z M489.213,49.591c0.168-4.507,3.657-8.084,8.049-7.979
		c4.071,0.097,7.835,4.02,7.791,8.12c-0.047,4.367-3.529,7.702-8,7.664C492.364,57.701,489.083,53.085,489.213,49.591z
		 M497.003,72.497c4.654-0.008,8.119,3.424,8.152,8.077c0.034,4.735-3.522,8.303-8.245,8.272c-4.237-0.028-8.01-3.831-8.048-8.111
		C488.823,76.352,492.624,72.505,497.003,72.497z M481.667,26.503c3.967,0.032,7.497,3.643,7.45,7.683
		c-0.051,4.285-3.178,7.228-7.675,7.223c-4.271-0.004-7.137-3.004-7.253-7.31C474.068,29.6,478.254,26.475,481.667,26.503z
		 M481.306,57.51c4.231-0.122,7.733,3.244,7.816,7.513c0.083,4.238-3.321,7.734-7.566,7.768c-4,0.033-7.576-3.488-7.639-7.519
		C473.855,61.249,477.304,57.626,481.306,57.51z M481.679,88.072c4.202-0.003,7.934,3.883,7.932,8.194
		c-0.002,4.039-3.448,7.971-8.227,7.672c-4.619-0.023-7.689-3.163-7.652-7.825C473.768,91.499,477.152,88.075,481.679,88.072z
		 M466.019,11.44c3.953-0.077,7.107,3.006,7.13,6.972c0.025,4.205-3.002,7.404-6.999,7.397c-3.933-0.007-7.248-3.299-7.298-7.246
		C458.806,14.913,462.226,11.514,466.019,11.44z M473.12,49.651c0.009,3.776-3.344,6.995-7.24,6.953
		c-3.936-0.043-6.746-3.009-6.69-7.06c0.056-4.062,3.157-7.14,7.082-7.03C469.951,42.616,473.112,45.911,473.12,49.651z
		 M466.276,73.216c3.708,0.068,7.181,3.689,7.192,7.475c0.011,3.525-3.154,7.474-7.528,7.23c-4.171-0.017-7.169-3.009-7.196-7.182
		C458.717,76.51,462.093,73.139,466.276,73.216z M465.901,103.619c4.231-0.053,8.077,3.707,8.134,7.953
		c0.06,4.434-3.403,7.847-7.991,7.877c-4.652,0.03-7.767-2.998-7.823-7.604C458.165,107.21,461.465,103.675,465.901,103.619z
		 M450.634,27.481c3.469,0.017,6.559,3.253,6.492,6.797c-0.066,3.489-3.125,6.524-6.531,6.481c-3.746-0.047-6.528-2.878-6.545-6.657
		C444.035,30.429,446.984,27.463,450.634,27.481z M450.701,58.454c3.665,0.025,6.47,2.943,6.467,6.728
		c-0.002,3.657-3.003,6.706-6.572,6.677c-3.804-0.031-6.856-3.054-6.814-6.749C443.825,61.412,446.926,58.428,450.701,58.454z
		 M450.405,88.975c4.141-0.016,7.19,2.965,7.249,7.087c0.061,4.25-2.998,7.346-7.243,7.33c-3.671-0.013-7.076-3.427-7.115-7.131
		C443.253,92.194,446.379,88.99,450.405,88.975z M450.339,119.072c4.359-0.091,8.206,3.682,8.243,8.084
		c0.036,4.367-3.57,8.007-7.956,8.033c-4.606,0.027-7.908-3.25-7.937-7.876C442.659,122.697,445.939,119.164,450.339,119.072z
		 M435.195,12.428c3.499,0.112,5.972,2.722,5.944,6.274c-0.027,3.462-2.713,6.164-6.098,6.135c-3.471-0.03-6.353-2.921-6.285-6.305
		C428.826,15.023,431.682,12.316,435.195,12.428z M441.074,49.6c0.041,3.424-2.465,5.867-6.01,5.857
		c-3.73-0.011-5.945-2.193-5.927-5.837c0.017-3.359,2.699-6.135,5.898-6.106C438.237,43.544,441.035,46.365,441.074,49.6z
		 M434.959,74.054c3.57-0.029,6.63,3.072,6.598,6.687c-0.032,3.58-2.689,6.183-6.351,6.222c-3.873,0.041-6.526-2.473-6.552-6.211
		C428.629,77.298,431.657,74.081,434.959,74.054z M427.73,111.385c0.18-4.127,3.525-7.173,7.709-7.018
		c3.893,0.144,7.075,3.649,6.883,7.582c-0.199,4.058-3.459,7.096-7.484,6.973C430.573,118.791,427.547,115.582,427.73,111.385z
		 M419.575,28.529c2.832,0.018,5.546,2.84,5.493,5.712c-0.054,2.97-2.417,5.191-5.539,5.207c-3.075,0.016-5.378-2.257-5.379-5.308
		C414.149,30.937,416.495,28.51,419.575,28.529z M419.512,59.447c3.334,0.046,5.728,2.567,5.627,5.924
		c-0.097,3.185-2.672,5.597-5.848,5.479c-2.925-0.109-5.491-2.783-5.472-5.702C413.839,62.07,416.5,59.405,419.512,59.447z
		 M419.44,89.565c3.568-0.036,6.633,3.062,6.606,6.678c-0.026,3.58-2.674,6.181-6.344,6.23c-3.866,0.053-6.53-2.465-6.559-6.201
		C413.115,92.814,416.135,89.598,419.44,89.565z M419.599,119.571c3.967,0.018,7.514,3.621,7.473,7.657
		c-0.044,4.293-3.16,7.245-7.651,7.247c-4.275,0.002-7.247-2.985-7.249-7.287C411.922,122.667,416.206,119.555,419.599,119.571z
		 M404.064,13.425c2.736-0.022,5.004,2.251,5.075,5.087c0.073,2.907-2.186,5.269-5.089,5.32c-2.818,0.049-5.261-2.375-5.257-5.218
		C398.797,15.768,401.152,13.449,404.064,13.425z M408.662,49.667c0,2.869-2.05,4.865-4.891,4.761
		c-2.642-0.096-4.663-2.262-4.579-4.909c0.087-2.74,2.105-4.675,4.821-4.622C406.783,44.953,408.662,46.881,408.662,49.667z
		 M404.06,74.988c2.853-0.025,5.564,2.712,5.54,5.595c-0.027,3.155-2.588,5.723-5.68,5.695c-3.078-0.028-5.482-2.459-5.499-5.56
		C398.404,77.581,400.928,75.016,404.06,74.988z M404.129,104.987c3.671,0.008,6.492,2.909,6.505,6.69
		c0.013,3.658-2.969,6.724-6.533,6.716c-3.804-0.009-6.871-3.012-6.853-6.711C397.267,107.986,400.358,104.979,404.129,104.987z
		 M404.053,134.774c4.17-0.043,7.815,3.626,7.852,7.905c0.038,4.385-3.332,7.719-7.854,7.77c-4.288,0.048-7.727-3.251-7.836-7.516
		C396.104,138.571,399.708,134.82,404.053,134.774z M388.57,29.945c2.232,0.1,4.08,2.079,4.026,4.31
		c-0.053,2.161-1.911,4.058-3.989,4.071c-2.3,0.015-4.323-2.031-4.284-4.335C384.361,31.745,386.355,29.845,388.57,29.945z
		 M388.635,60.522c2.253,0.071,4.438,2.357,4.442,4.648c0.004,2.425-2.012,4.326-4.575,4.314c-2.796-0.014-4.419-1.611-4.406-4.337
		C384.109,62.43,386.061,60.441,388.635,60.522z M388.737,90.325c3.153,0.076,5.705,2.838,5.599,6.059
		c-0.109,3.281-2.668,5.636-6.039,5.555c-3.13-0.075-5.699-2.84-5.624-6.051C382.748,92.694,385.416,90.246,388.737,90.325z
		 M388.55,120.062c3.858-0.032,7,3.164,7.018,7.139c0.017,3.9-3.201,7.139-7.066,7.112c-3.869-0.027-7.07-3.273-7.046-7.145
		C381.479,123.266,384.646,120.095,388.55,120.062z M373.067,14.525c2.233,0.043,4.043,2.027,3.931,4.308
		c-0.111,2.253-1.822,3.709-4.238,3.607c-2.233-0.095-3.73-1.682-3.679-3.901C369.131,16.385,371.017,14.486,373.067,14.525z
		 M376.373,49.755c-0.055,1.749-1.517,3.129-3.339,3.151c-1.842,0.023-3.409-1.53-3.397-3.366c0.012-1.867,1.544-3.322,3.46-3.287
		C374.907,46.287,376.43,47.914,376.373,49.755z M372.944,75.928c2.754,0.001,4.679,1.94,4.694,4.729
		c0.015,2.707-1.815,4.694-4.39,4.768c-2.642,0.076-5.08-2.215-5.075-4.77C368.177,78.007,370.277,75.927,372.944,75.928z
		 M373.163,105.469c3.423,0.032,5.971,2.701,5.967,6.251c-0.004,3.618-2.65,6.243-6.262,6.212c-3.466-0.029-6.096-2.649-6.153-6.129
		C366.654,108.148,369.417,105.434,373.163,105.469z M365.625,142.476c0.027-4.228,3.349-7.458,7.598-7.386
		c4.084,0.07,7.393,3.581,7.32,7.769c-0.072,4.117-3.527,7.422-7.712,7.409C369.436,150.258,365.33,147.243,365.625,142.476z
		 M357.635,166.309c-4.593,0.026-8.177-3.503-8.182-8.057c-0.005-4.429,3.548-8.123,7.849-8.161c4.477-0.04,8.166,3.583,8.215,8.067
		C365.566,162.494,361.901,166.284,357.635,166.309z M357.442,31.467c1.422-0.02,2.583,1.1,2.647,2.554
		c0.067,1.523-1.191,2.816-2.684,2.759c-1.308-0.049-2.538-1.358-2.556-2.718C354.831,32.644,355.987,31.487,357.442,31.467z
		 M357.227,61.56c1.815-0.105,3.628,1.533,3.749,3.386c0.122,1.878-1.458,3.483-3.483,3.537c-2.02,0.054-3.351-1.227-3.382-3.254
		C354.082,63.296,355.47,61.661,357.227,61.56z M357.757,90.683c2.817,0.107,5.252,2.751,5.183,5.629
		c-0.072,2.991-2.452,5.215-5.526,5.161c-3.072-0.054-5.349-2.355-5.305-5.361C352.152,93.199,354.884,90.574,357.757,90.683z
		 M357.509,120.233c3.668-0.052,6.941,3.261,6.89,6.974c-0.054,3.856-3.091,6.771-7.046,6.762c-3.738-0.009-6.717-3.022-6.702-6.779
		C350.667,123.29,353.626,120.288,357.509,120.233z M341.966,15.081c1.78,0.011,3.562,1.875,3.499,3.661
		c-0.063,1.799-1.683,3.234-3.589,3.18c-2.01-0.057-3.335-1.437-3.275-3.411C338.661,16.577,340.139,15.07,341.966,15.081z
		 M344.083,49.733c-0.035,1.272-0.925,2.159-2.122,2.113c-1.256-0.048-2.332-1.196-2.217-2.366c0.106-1.079,1.221-2.029,2.349-2.001
		C343.272,47.508,344.118,48.466,344.083,49.733z M342.173,76.14c2.312,0.075,4.4,2.357,4.275,4.671
		c-0.132,2.445-2.194,4.264-4.712,4.157c-2.329-0.099-4.195-2.134-4.102-4.473C337.732,78.01,339.764,76.061,342.173,76.14z
		 M341.946,105.522c3.358-0.045,6.115,2.739,6.12,6.18c0.005,3.366-2.605,6.078-5.896,6.129c-3.269,0.05-6.338-2.853-6.39-6.044
		C335.729,108.624,338.74,105.565,341.946,105.522z M341.929,135.125c4.04,0.052,7.531,3.58,7.531,7.608
		c0,4.23-3.069,7.245-7.374,7.246c-4.36,0.001-7.415-2.916-7.467-7.128C334.567,138.698,337.997,135.074,341.929,135.125z
		 M326.275,166.343c-4.284-0.079-7.987-3.873-7.953-8.147c0.035-4.44,3.763-8.131,8.208-8.127c4.407,0.004,7.988,3.587,7.988,7.994
		C334.517,162.763,330.868,166.428,326.275,166.343z M326.381,31.412c1.583-0.019,2.694,1.092,2.711,2.712
		c0.017,1.617-1.077,2.762-2.649,2.775c-1.533,0.013-2.738-1.174-2.755-2.714C323.67,32.651,324.855,31.431,326.381,31.412z
		 M326.577,61.5c1.921,0.007,3.456,1.594,3.487,3.607c0.031,2.051-1.658,3.711-3.699,3.638c-1.983-0.071-3.396-1.641-3.333-3.701
		C323.093,63.042,324.643,61.493,326.577,61.5z M326.426,90.619c2.956,0.035,5.535,2.684,5.494,5.645
		c-0.042,3.065-2.349,5.264-5.467,5.212c-3.118-0.052-5.398-2.318-5.368-5.337C321.113,93.271,323.709,90.588,326.426,90.619z
		 M326.617,120.231c3.582,0.029,6.736,3.232,6.76,6.864c0.026,3.832-3.004,6.834-6.935,6.873c-3.756,0.037-6.773-2.916-6.813-6.668
		C319.586,123.303,322.654,120.199,326.617,120.231z M310.734,14.433c2.232-0.054,4.206,1.794,4.304,4.03
		c0.099,2.247-1.776,4.313-3.947,4.35c-2.3,0.039-4.336-1.983-4.322-4.293C306.782,16.379,308.619,14.485,310.734,14.433z
		 M314.547,49.6c0.03,1.961-1.496,3.567-3.457,3.637c-1.969,0.07-3.521-1.438-3.57-3.467c-0.049-2.039,1.354-3.639,3.308-3.773
		C312.841,45.86,314.515,47.481,314.547,49.6z M310.916,75.656c2.413-0.064,4.954,2.448,5.006,4.948
		c0.053,2.561-2.243,4.801-4.974,4.856c-2.869,0.057-4.802-1.857-4.861-4.812C306.034,77.968,308.202,75.728,310.916,75.656z
		 M311.14,105.457c3.48,0.104,5.966,2.738,5.947,6.302c-0.019,3.615-2.703,6.237-6.32,6.176c-3.535-0.059-6.17-2.826-6.136-6.442
		C304.663,108.044,307.569,105.35,311.14,105.457z M310.931,135.065c4.244,0.023,7.62,3.484,7.57,7.761
		c-0.049,4.14-3.421,7.491-7.57,7.522c-4.092,0.031-7.735-3.675-7.634-7.765C303.396,138.514,306.92,135.043,310.931,135.065z
		 M295.507,29.875c2.556,0.047,4.125,1.715,4.093,4.352c-0.031,2.534-1.582,4.158-3.997,4.185c-2.513,0.028-4.56-1.951-4.503-4.353
		C291.155,31.731,293.154,29.832,295.507,29.875z M295.623,60.442c2.567,0.038,4.433,1.998,4.458,4.681
		c0.025,2.699-1.961,4.718-4.675,4.754c-2.378,0.032-4.63-2.155-4.706-4.569C290.619,62.738,292.982,60.402,295.623,60.442z
		 M295.53,90.184c3,0.042,5.851,2.974,5.851,6.016c0,3.168-2.704,5.797-5.926,5.762c-3.481-0.038-5.857-2.355-5.876-5.727
		C289.561,92.869,292.248,90.137,295.53,90.184z M295.315,120.037c4.013-0.032,7.217,3.192,7.191,7.234
		c-0.026,3.954-3.108,7.024-7.106,7.079c-3.749,0.052-7.115-3.3-7.131-7.102C288.252,123.461,291.569,120.067,295.315,120.037z
		 M279.866,13.394c3.157,0.021,5.262,2.2,5.191,5.372c-0.064,2.827-2.289,5.081-5.043,5.107c-3.014,0.029-5.436-2.35-5.393-5.296
		C274.663,15.696,277.012,13.375,279.866,13.394z M284.984,49.668c-0.001,2.819-2.034,4.792-4.939,4.793
		c-3.002,0.001-4.962-1.837-5.01-4.696c-0.048-2.834,2.177-5.216,4.895-5.239C282.595,44.504,284.985,46.935,284.984,49.668z
		 M279.786,74.958c3.343-0.021,5.789,2.444,5.753,5.798c-0.034,3.211-2.517,5.643-5.722,5.606c-2.93-0.034-5.537-2.632-5.598-5.576
		C274.156,77.729,276.785,74.977,279.786,74.958z M279.851,104.968c4.013,0.014,6.663,2.65,6.698,6.662
		c0.035,4.045-2.632,6.823-6.537,6.809c-3.848-0.014-6.918-3.107-6.887-6.938C273.153,108.026,276.313,104.956,279.851,104.968z
		 M279.803,134.721c4.197-0.005,8.062,3.65,8.039,7.757c-0.02,3.587-2.329,8.073-7.846,7.995c-4.458-0.063-7.889-3.36-7.904-7.707
		C272.078,138.543,275.737,134.725,279.803,134.721z M264.412,28.451c3.046-0.022,5.638,2.636,5.612,5.752
		c-0.025,2.952-2.653,5.604-5.541,5.59c-3.116-0.014-5.775-2.61-5.774-5.639C258.71,31.07,261.307,28.473,264.412,28.451z
		 M264.564,59.419c3.307,0.017,5.494,2.293,5.504,5.731c0.01,3.432-2.322,5.762-5.767,5.761c-3.047-0.001-5.691-2.673-5.685-5.745
		C258.622,62.023,261.334,59.403,264.564,59.419z M264.493,89.526c3.376,0.014,6.432,3.093,6.5,6.548
		c0.07,3.583-3.018,6.769-6.524,6.73c-3.746-0.042-6.532-2.87-6.552-6.65C257.898,92.479,260.844,89.51,264.493,89.526z
		 M264.397,119.553c4.15,0.023,7.491,3.342,7.57,7.52c0.08,4.24-3.325,7.731-7.571,7.763c-4,0.03-7.574-3.493-7.634-7.524
		C256.702,123.183,260.296,119.531,264.397,119.553z M248.859,12.206c3.608,0.046,6.414,2.92,6.363,6.515
		c-0.047,3.305-2.904,6.156-6.184,6.171c-3.719,0.017-6.527-2.732-6.476-6.339C242.612,15.089,245.514,12.163,248.859,12.206z
		 M248.843,55.828c-3.048,0.022-6.038-2.913-6.131-6.019c-0.101-3.364,2.664-6.301,5.983-6.357c3.408-0.057,6.192,2.595,6.305,6.004
		C255.116,52.977,252.386,55.802,248.843,55.828z M248.693,73.991c3.537-0.05,6.693,2.978,6.791,6.518
		c0.102,3.654-3.027,6.837-6.706,6.823c-3.391-0.012-6.456-3.061-6.549-6.515C242.133,77.232,245.154,74.041,248.693,73.991z
		 M249.006,104.187c3.95,0.093,7.319,3.59,7.309,7.56c-0.009,3.512-3.17,7.443-7.533,7.196c-4.245-0.018-7.205-3.052-7.214-7.396
		C241.56,107.582,245.084,104.094,249.006,104.187z M233.407,135.322c-4.352,0.048-8.215-3.833-8.152-8.19
		c0.065-4.447,3.803-8.111,8.25-8.085c4.408,0.026,7.967,3.625,7.945,8.037C241.427,131.691,237.932,135.272,233.407,135.322z
		 M233.536,27.431c3.666,0.02,6.475,2.934,6.476,6.719c0.002,3.655-3.001,6.715-6.561,6.685c-3.814-0.032-6.861-3.041-6.824-6.738
		C226.664,30.4,229.763,27.41,233.536,27.431z M233.282,58.435c4.019-0.002,6.684,2.621,6.733,6.626
		c0.05,4.045-2.607,6.842-6.501,6.846c-3.851,0.004-6.93-3.067-6.922-6.903C226.6,61.527,229.748,58.436,233.282,58.435z
		 M233.507,88.723c3.782,0.002,7.374,3.762,7.295,7.618c-0.07,3.46-3.179,7.307-7.668,7.113c-4.139-0.179-7.103-3.168-7.055-7.344
		C226.126,91.98,229.403,88.721,233.507,88.723z M218.132,119.772c-4.58,0.096-8.216-3.399-8.278-7.957
		c-0.06-4.424,3.453-8.167,7.752-8.258c4.471-0.095,8.208,3.489,8.312,7.97C226.019,115.855,222.404,119.683,218.132,119.772z
		 M217.823,11.417c4.131,0.025,7.14,3.035,7.166,7.167c0.026,4.152-3.001,7.278-7.045,7.275c-4.219-0.003-7.428-3.184-7.37-7.307
		C210.632,14.465,213.754,11.392,217.823,11.417z M224.968,49.603c-0.061,4.199-3.168,7.332-7.163,7.223
		c-3.936-0.107-7.197-3.493-7.137-7.409c0.056-3.64,3.565-6.965,7.343-6.958C221.953,42.467,225.026,45.622,224.968,49.603z
		 M217.6,73.081c4.091-0.112,7.772,3.49,7.772,7.608c0,4.127-2.985,7.158-7.133,7.243c-4.502,0.092-7.655-2.822-7.708-7.125
		C210.48,76.755,213.745,73.186,217.6,73.081z M210.422,96.297c-0.154,4.616-3.77,8.113-8.274,8.002
		c-4.383-0.109-8.133-4.105-7.906-8.426c0.236-4.496,4.016-7.993,8.477-7.843C207.125,88.178,210.57,91.877,210.422,96.297z
		 M202.182,72.852c-4.085-0.041-7.493-3.473-7.546-7.598c-0.054-4.23,3.384-7.765,7.573-7.785c4.258-0.021,7.699,3.346,7.752,7.586
		C210.016,69.412,206.539,72.896,202.182,72.852z M202.456,26.464c4.071,0.008,7.52,3.5,7.487,7.58
		c-0.035,4.352-3.417,7.821-7.563,7.757c-4.208-0.065-7.716-3.601-7.663-7.725C194.772,29.78,198.153,26.455,202.456,26.464z
		 M186.791,10.47c4.535-0.068,8.122,3.518,8.141,8.136c0.018,4.495-3.455,8.096-7.878,8.171c-4.431,0.074-8.339-3.655-8.412-8.029
		C178.569,14.412,182.384,10.536,186.791,10.47z M171.311,25.576c4.61,0.011,8.416,3.862,8.511,8.511
		c0.082,4.029-3.672,8.717-8.551,8.29c-4.938,0.004-8.219-3.245-8.245-8.164C163.001,29.467,166.744,25.565,171.311,25.576z
		 M155.882,9.578c4.896,0.09,8.9,4.156,8.901,9.066c0,5.051-3.782,8.703-9.021,8.707c-5.055,0.005-8.641-3.646-8.752-8.687
		C146.884,12.906,152.384,9.513,155.882,9.578z M140.499,24.979c5.243,0.04,8.961,3.956,8.893,9.368
		c-0.064,5.104-4.07,9.043-9.109,8.958c-5.097-0.087-9.28-4.325-9.208-9.296C131.131,30.143,134.53,24.691,140.499,24.979z
		 M115.161,18.511c0.167-4.487,3.35-9.542,9.588-9.514c5.496,0.025,9.621,4.196,9.595,9.701c-0.027,5.514-4.216,9.632-9.723,9.559
		C119.58,28.19,114.974,23.527,115.161,18.511z M109.532,24.091c5.255,0.116,9.828,4.78,9.723,10.092
		c-0.097,4.91-3.621,9.969-10.125,9.653c-5.599,0.39-9.737-5.016-9.709-9.822C99.453,28.407,104.638,23.983,109.532,24.091z
		 M104.111,18.553c0.069,5.787-4.369,10.209-10.29,10.251c-5.641,0.041-10.221-4.426-10.286-10.03
		c-0.064-5.597,4.695-10.543,10.168-10.566C99.262,8.184,104.044,12.938,104.111,18.553z"/>
	<path fill="#89BAB9" d="M58.745,7.958c-0.012,1.522-0.189,2.966-0.306,4.715c1.727-0.117,3.38-0.421,5.016-0.335
		c1.578,0.083,3.137,0.509,5.023,0.853c-0.163-0.873-0.335-1.548-0.404-2.225c-0.153-1.514-0.462-2.902-0.329-4.396
		C67.811,5.833,67.95,6,68.191,5h-9.863C58.67,6,58.757,6.468,58.745,7.958z"/>
	<path fill="#89BAB9" d="M615.568,11.326c-0.112,0.701-0.398,1.374-0.703,2.386c1.93-0.499,3.585-1.156,5.284-1.303
		c1.729-0.15,3.502,0.201,5.622,0.36c-0.132-0.938-0.309-1.755-0.35-2.579c-0.071-1.433-0.248-2.747-0.033-4.146
		C625.464,5.547,625.582,5,625.753,5h-10.046c0.265,1,0.382,1.023,0.397,1.941C616.129,8.451,615.807,9.821,615.568,11.326z"/>
</g>
</svg>
