<svg xmlns="http://www.w3.org/2000/svg" viewBox="0 0 241 580" enable-background="new 0 0 241 580"><g opacity=".7" fill="#fff"><path d="M206.162 521.769c1.801.36 3.515.969 5.23.97 1.643.001 3.287-.629 5.289-1.058-1.645 3.052-1.367 6.16-.95 9.465-1.598-.164-2.994-.422-4.39-.419-1.408.002-2.816.262-4.329.421.14-1.722.481-3.344.34-4.923-.135-1.509-.773-2.973-1.19-4.456zM149.949 518.121c-1.506-.209-2.9-.52-4.301-.564-1.345-.042-2.698.194-4.272.327.109-1.549.345-3.014.277-4.465-.068-1.46-.438-2.905-.685-4.418 1.788.217 3.472.68 5.108.548 1.644-.133 3.241-.858 4.952-1.351-.478 1.609-1.181 3.175-1.359 4.798-.18 1.642.16 3.34.28 5.125zM180.033 521.78c3.441 1.537 6.676 1.43 10.099-.481-.416 1.92-.895 3.395-1.016 4.899-.125 1.546.101 3.12.175 4.716h-8.562c.55-3.024.805-6.057-.696-9.134zM62.738 140.952c3.05.909 5.725.66 8.568-.613-.262 2.009-.735 3.675-.621 5.299.115 1.637.814 3.233 1.355 5.207-3.011-1.756-6.055-2.076-9.459-1.225.186-1.669.427-2.994.455-4.324.027-1.278-.165-2.561-.298-4.344zM216.177 58.016c-3.342-1.293-6.457-1.401-9.847.384.466-1.896.98-3.303 1.12-4.746.136-1.4-.113-2.837-.201-4.409h8.239c-.695 2.958-.518 5.824.689 8.771zM149.878 62.136c-.352 3.158-.831 6.161 1.197 9.249-2.156-.502-3.71-1.093-5.287-1.164-1.515-.068-3.055.402-4.949.691 1.139-2.867 1.333-5.597.663-8.584 1.651.11 2.991.292 4.327.263 1.268-.027 2.531-.274 4.049-.455zM181.192 49.271h7.908c-.266 2.812-.805 5.754 1.012 8.432l-.362.235c-1.493-.319-2.98-.856-4.481-.895-1.526-.04-3.066.411-4.823.682.271-1.503.603-2.81.72-4.135.118-1.35.026-2.719.026-4.319zM44.879 386.373l-8.044-.748v-7.386c1.364 0 2.792.136 4.181-.039 1.338-.168 2.635-.657 4.154-1.059-.326 1.653-.835 3.201-.882 4.763-.047 1.509.382 3.032.591 4.469zM31.951 294.983c-2.851-1.3-5.443-1.71-8.41-.815.16-1.648.37-2.904.38-4.16.009-1.21-.189-2.421-.319-3.883 1.473 0 2.819.096 4.145-.027 1.272-.118 2.523-.463 4.079-.766-.268 1.681-.7 3.188-.693 4.693.006 1.464.46 2.927.818 4.958zM155.196 530.497l-.533-8.076c2.842.436 5.747.878 8.828-.652-.417 1.817-.878 3.178-1.005 4.569-.121 1.335.106 2.702.186 4.159h-7.476zM45.077 202.564c-1.619-.291-2.931-.613-4.262-.742-1.323-.128-2.665-.061-3.923-.079v-7.3l7.882-.793c-.181 1.375-.552 2.826-.511 4.265.041 1.46.49 2.908.814 4.649zM31.75 320.651c-.415 0-.678.025-.934-.004-1.822-.203-3.639-.462-5.465-.608-.833-.067-1.53-.131-1.532-1.18-.005-2.036-.001-4.073-.001-6.39 1.278 0 2.616.096 3.934-.027 1.272-.119 2.523-.465 4.021-.757-.254 1.6-.661 3.046-.662 4.493-.004 1.456.398 2.913.639 4.473zM57.735 425.529l-7.756-.514c.093-1.122.293-2.327.264-3.527-.029-1.209-.285-2.412-.435-3.573l8.385-.815c-.257 1.275-.69 2.643-.77 4.031-.082 1.408.186 2.837.312 4.398zM23.85 260.004c1.589 0 2.888.115 4.156-.033 1.201-.141 2.37-.56 3.761-.908-.256 1.637-.676 3.091-.656 4.539.021 1.472.476 2.938.797 4.719-1.411-.336-2.67-.761-3.96-.909-1.326-.152-2.682-.034-4.099-.034l.001-7.374zM58.132 163.212c-2.766-1.067-5.34-1.568-8.024-.693-.113-.695-.201-.956-.19-1.212.072-1.698.214-3.396.23-5.094.009-.939.318-1.389 1.286-1.422 1.965-.068 3.929-.189 6.034-.295.605 1.322-.36 2.702-.114 4.079.25 1.398.471 2.801.778 4.637zM162.363 49.673c0 1.31-.093 2.593.026 3.856.121 1.279.452 2.538.722 3.969-1.49-.205-2.876-.524-4.268-.549-1.335-.024-2.675.256-4.196.423.221-1.419.488-2.67.591-3.934.097-1.202.021-2.419.021-3.765h7.104zM89.499 483.506c1.297.063 2.576.243 3.835.154 1.258-.089 2.497-.447 3.963-.729-.162 1.531-.354 2.852-.427 4.18-.07 1.27-.015 2.546-.015 4.04-1.093-.127-2.011-.278-2.935-.329-1.02-.056-2.045-.017-3.067-.026-.605-.006-1.129-.208-1.159-.889-.09-2.082-.13-4.167-.195-6.401zM109.764 503.899c-2.075 0-4.038.022-5.999-.012-.637-.011-.963-.432-.978-1.084-.045-1.954-.098-3.907-.15-5.94l7.659-.507c.405 1.159-.513 2.315-.527 3.557-.016 1.282-.005 2.565-.005 3.986zM31.476 338.605c-.161 1.357-.414 2.622-.432 3.89-.019 1.285.195 2.573.324 4.07-.505 0-.946.029-1.382-.005-1.428-.114-2.853-.292-4.283-.368-1.451-.077-1.677-.302-1.649-1.681.026-1.292-.015-2.587-.067-3.878-.029-.723-.077-1.485.862-1.571 2.09-.191 4.188-.295 6.627-.457zM31.475 241.448c-2.565-.234-4.861-.443-7.328-.667v-6.774l7.303-.628c-.143 1.281-.408 2.603-.405 3.925.001 1.343.267 2.685.43 4.144zM202.076 536.139l-.362 7.135h-6.845l-.572-7.135h7.779zM83.896 469.935l-.456 7.9c-1.037-.078-2.169-.194-3.304-.238-1.075-.042-2.152-.009-3.376-.009l-.319-7.051c1.359 0 2.634.079 3.894-.023 1.2-.096 2.385-.38 3.561-.579zM227.804 543.225h-6.641l-.604-7.078h7.581l-.336 7.078zM89.898 89.471l6.515-.288.62 7.661c-1.254-.237-2.484-.59-3.731-.671-1.198-.078-2.414.125-3.764.213l.36-6.915zM122.776 516.842c-2.02 0-3.852.044-5.678-.039-.341-.016-.918-.516-.946-.832-.166-1.892-.203-3.795-.29-5.845l7.286-.414-.372 7.13zM110.094 83.454l-7.367-.507.347-6.674c1.991-.045 3.89-.132 5.786-.088.309.007.839.57.869.912.183 2.089.253 4.188.365 6.357zM175.723 535.928c-.113 2.112-.199 3.943-.314 5.771-.062.987-.602 1.46-1.612 1.429-1.296-.04-2.594-.032-3.891-.055-.686-.012-1.23-.259-1.283-1.03-.132-1.943-.233-3.888-.354-5.971 1.218.111 2.42.32 3.619.3 1.206-.019 2.409-.268 3.835-.444zM201.849 43.656h-7.317l.319-6.799h6.519c.158 2.229.312 4.417.479 6.799zM44.337 404.479v7.514c-2.13-.162-4.073-.264-6-.501-.303-.037-.729-.669-.76-1.052-.113-1.431-.096-2.874-.106-4.313-.005-.735.367-1.12 1.126-1.176 1.895-.139 3.788-.31 5.74-.472zM83.285 102.352l.466 7.333c-.461 0-.908.028-1.351-.005-1.418-.108-2.833-.288-4.253-.345-1.328-.054-1.536-.238-1.469-1.557.066-1.288.104-2.577.122-3.866.01-.707.249-1.248 1.001-1.297 1.813-.12 3.631-.178 5.484-.263zM228.041 43.617h-7.11c-.035-.309-.134-.694-.112-1.071.075-1.293.228-2.582.283-3.875.069-1.606.244-1.785 1.769-1.745 1.158.03 2.318.02 3.475-.03.927-.04 1.422.304 1.456 1.269.063 1.764.153 3.526.239 5.452zM122.656 63.257l.532 6.944c-.39 0-.773.022-1.152-.004-1.481-.103-2.959-.251-4.442-.324-1.178-.058-1.487-.271-1.498-1.418-.012-1.292.055-2.585.086-3.878.018-.771.266-1.317 1.167-1.347l4.67-.191c.185-.006.375.124.637.218zM24.561 365.719l6.348-.554v7.409c-1.806-.194-3.613-.324-5.39-.628-.375-.064-.886-.748-.914-1.174-.109-1.618-.044-3.248-.044-5.053zM70.322 457.215c0 2.149.001 4.106-.001 6.063-.001.748-.357 1.166-1.128 1.12-1.494-.09-2.994-.153-4.475-.349-.336-.045-.831-.564-.869-.907-.164-1.486-.189-2.987-.259-4.483-.03-.639.247-1.094.905-1.137 1.956-.127 3.914-.21 5.827-.307zM136.202 523.01c-.1 1.888-.159 3.584-.291 5.274-.1 1.284-.399 1.574-1.628 1.603-1.021.024-2.051.005-3.066-.101-1.257-.13-1.66-.546-1.797-1.815-.125-1.152-.154-2.314-.225-3.471-.044-.713.206-1.229.989-1.265 1.957-.09 3.915-.148 6.018-.225zM44.047 168.028v7.193c-.139.043-.392.203-.631.184-1.425-.113-2.849-.255-4.27-.409-1.292-.14-1.582-.404-1.611-1.629-.027-1.158.029-2.319.071-3.478.027-.763.346-1.337 1.181-1.416 1.685-.159 3.373-.287 5.26-.445zM175.423 43.548h-6.921c.107-2.009.165-3.891.353-5.759.029-.287.645-.712 1.01-.734 1.424-.086 2.86-.088 4.284.003.348.022.924.494.953.8.177 1.868.226 3.749.321 5.69zM63.944 122.193v-6.029l6.082-.432.433 6.949-6.515-.488zM30.914 207.463v7.306c-.46-.021-.917-.005-1.363-.072-.539-.081-1.064-.249-1.601-.347-1.046-.192-2.42-.031-3.043-.643-.52-.511-.166-1.915-.193-2.924-.073-2.707-.071-2.698 2.603-2.88.611-.042 1.215-.177 1.824-.255.522-.066 1.046-.11 1.773-.185zM135.476 50.385l.54 6.188h-6.66c.12-1.917.157-3.596.38-5.25.048-.359.745-.863 1.174-.895 1.472-.112 2.957-.043 4.566-.043zM56.909 450.954c-1.777-.084-3.203-.124-4.625-.23-.797-.059-1.221-.556-1.233-1.369-.009-.616.016-1.233-.016-1.848-.134-2.626-.06-2.706 2.656-2.886 1.014-.067 2.026-.174 3.218-.279v6.612zM148.902 536.551c-.105 1.842-.132 3.457-.337 5.049-.049.384-.658.737-1.072 1.013-.191.127-.53.046-.801.038-3.634-.101-3.926.192-3.876-3.418.01-.727-.151-1.456-.255-2.388l6.341-.294zM17.571 273.494v5.409c0 .87-.471 1.246-1.3 1.17-1.152-.107-2.319-.17-3.44-.424-.395-.089-.913-.657-.961-1.057-.131-1.072-.049-2.171-.031-3.259.013-.796.449-1.301 1.221-1.397 1.401-.175 2.812-.281 4.511-.442zM57.066 135.477c-1.984-.108-3.54-.143-5.08-.316-.339-.038-.739-.517-.898-.885-.146-.339-.01-.802.009-1.21.158-3.522.879-4.147 4.335-3.84.794.071 1.33.402 1.387 1.204.115 1.607.162 3.22.247 5.047zM17.564 299.803c0 2.074.025 3.888-.013 5.7-.015.685-.537.91-1.149.853-1.217-.113-2.432-.247-3.644-.401-.637-.081-.948-.498-.938-1.129.009-.543.079-1.085.081-1.628.009-2.79.004-2.794 2.875-3.12.846-.097 1.696-.169 2.788-.275zM211.144 549.956c3.27-.019 3.27-.019 3.053 2.947-.03.41-.023.828-.098 1.23-.222 1.189-.547 1.518-2.07 1.337-1.244-.148-3.096.981-3.548-1.29-.186-.935-.212-1.91-.229-2.868-.021-1.156.286-1.437 1.464-1.443.547-.003 1.095.065 1.428.087zM17.216 332.499c-1.511-.121-2.871-.15-4.194-.384-.388-.068-.685-.706-.997-1.104-.069-.088-.021-.266-.032-.402-.295-3.842.406-4.533 4.278-4.287.746.047 1.165.35 1.174 1.108.014 1.231.019 2.463.001 3.694-.006.33-.106.658-.23 1.375zM182.017 549.926c1.855 0 3.409-.065 4.95.047.376.027.722.626 1.054.988.069.075.013.263.015.399.062 3.873-.59 4.509-4.438 4.157-.427-.039-1.114-.477-1.168-.811-.232-1.458-.274-2.947-.413-4.78zM148.607 43.059c-1.658 0-3.205.051-4.743-.041-.331-.02-.744-.503-.913-.868-.155-.337-.041-.802-.031-1.21.078-3.13 1.168-4.011 4.234-3.288.494.117 1.208.658 1.256 1.07.172 1.451.575 2.929.197 4.337zM240.587 550.072c-.083 1.45-.093 2.724-.264 3.976-.053.391-.506.99-.837 1.034-1.268.168-2.564.215-3.841.149-.293-.015-.735-.633-.793-1.02-.16-1.074-.176-2.173-.206-3.263-.018-.654.36-1.033 1.014-1.022 1.548.026 3.096.09 4.927.146zM30.532 187.939c-1.555-.09-2.89-.143-4.218-.264-.304-.028-.829-.28-.84-.455-.083-1.332-.231-2.696-.027-3.999.182-1.168 1.36-1.138 2.315-1.2.407-.026.815-.03 1.222-.044 1.019-.035 1.52.504 1.541 1.477.028 1.348.007 2.698.007 4.485zM12.21 253.156c-.461-4.978-.294-5.455 5.076-5.516v6.049l-5.076-.533zM30.493 391.886c0 1.937.042 3.56-.019 5.18-.028.743-.582 1.037-1.307.964l-.814-.111c-3.151-.39-3.661-1.067-3.236-4.207.096-.709.427-1.158 1.126-1.261 1.34-.199 2.686-.36 4.25-.565zM211.35 29.831c-2.951.036-2.95.036-2.715-2.63l.042-1.018c.103-1.457.226-1.567 1.731-1.556.271.002.544.014.814.04.898.088 2.193-.531 2.556.596.4 1.242.313 2.659.297 3.999-.003.233-.68.598-1.081.655-.589.084-1.212-.054-1.644-.086zM43.401 434.66c.443 3.25-.638 2.753-3.016 2.537-1.475-.134-1.816-.574-1.977-2.103-.036-.339-.044-.682-.05-1.023-.029-1.788.162-2.008 1.891-2.203 3.203-.359 3.203-.359 3.152 2.792zM185.277 29.803c-3.046 0-3.046 0-2.829-2.914.145-1.943.274-2.07 2.188-2.138 3.042-.108 3.127-.029 3.209 2.954l.022.614c-.031 1.379-.205 1.563-1.517 1.553-.409-.002-.817-.051-1.073-.069zM43.373 145.536l.085.938c.091 1.738-.108 1.931-1.808 1.741-.272-.03-.553-.049-.809-.135-.742-.249-1.944-.363-2.109-.831-.339-.962-.225-2.136-.075-3.191.055-.387.7-.762 1.151-.997.34-.177.8-.137 1.209-.17 2.219-.177 2.288-.112 2.356 2.148v.497zM237.431 29.773h-1.222c-.944-.006-1.363-.49-1.275-1.42.038-.406.084-.811.143-1.214.285-1.953.875-2.439 2.82-2.335 1.482.079 1.933.466 2.189 1.88.524 2.888.378 3.057-2.655 3.089zM17.103 355.639l-.001.012c-.122.835.558 2.084-.445 2.414-1.023.337-2.271.067-3.405-.063-.291-.033-.708-.517-.755-.839-.147-1.009-.224-2.045-.156-3.059.022-.32.542-.699.917-.877.347-.164.805-.086 1.212-.132 2.73-.308 2.729-.309 2.633 2.544zM159.084 550.228c.406-.025.819-.104 1.217-.058.316.036.87.208.88.349.084 1.254.236 2.542.031 3.765-.151.903-1.164.732-1.904.713-2.327-.06-3.5-1.501-2.935-3.741.1-.396.66-.806 1.095-.952.487-.165 1.073-.038 1.616-.038v-.038zM80.645 497.674c1.8-.065 2.139.254 2.191 2.068.062 2.147-.454 2.832-2.195 2.916-2.062.099-2.709-.557-2.767-2.805-.046-1.841.268-2.088 2.771-2.179zM95.911 513.126c-.038.504-.025.993-.128 1.455-.07.312-.268.809-.471.842-.984.159-2.006.335-2.982.223-.961-.11-1.193-1.015-1.257-1.88-.041-.545-.134-1.106-.044-1.633.061-.354.361-.898.626-.945 1.13-.2 2.326-.475 3.422-.285 1.144.199.812 1.388.834 2.223zM17.059 224.322c.115 2.773.001 2.878-2.775 2.573-1.748-.193-1.923-.389-1.91-2.173.003-.476.014-.952.037-1.427.033-.7.387-1.14 1.085-1.281l.603-.103c2.695-.472 2.845-.35 2.96 2.411zM108.843 526.052l-.029.41c-.102.79.104 1.819-.915 2.079-1.057.27-2.198.286-3.119-.501-.533-.456-.867-2.496-.492-3.117.19-.314.572-.601.925-.707.515-.155 1.08-.153 1.626-.186 2.004-.119 2.114-.003 2.004 2.022zM69.565 486.725l-.026.41c-.111 1.855-.307 2.149-1.458 2.189-1.767.06-2.722-.601-2.97-2.131-.128-.79-.467-1.919.454-2.199 1.104-.337 2.388-.264 3.554-.092.29.043.424 1.147.63 1.763l-.184.06zM95.691 67.184c.063 1.442-.166 1.791-1.228 1.866-2.442.174-3.324-.377-3.363-2.105-.042-1.834.512-2.53 2.074-2.606 1.822-.09 2.417.583 2.517 2.845zM159.109 29.694c-1.829.024-2.512-.556-2.539-2.158-.03-1.716.649-2.35 2.558-2.39 1.628-.034 2.073.553 2.081 2.742.006 1.368-.48 1.785-2.1 1.806zM82.518 80.311c.074 1.466-.158 1.834-1.204 1.911-1.929.142-3.04-.51-3.094-1.814-.08-1.94.583-2.848 2.102-2.878 1.528-.031 2.09.68 2.196 2.781zM107.1 55.747c-1.935.033-2.787-.623-2.783-2.14.003-1.395.681-2.028 2.185-2.04 1.57-.013 2.217.619 2.25 2.199.03 1.451-.394 1.959-1.652 1.981zM30.027 421.109c-.049 2.022-.318 2.393-1.698 2.343-1.866-.068-2.503-.691-2.509-2.455-.005-1.46.724-1.981 2.692-1.921 1.345.041 1.557.325 1.515 2.033zM121.891 539.396c-.001 1.47-.567 2.104-1.871 2.097-1.75-.01-2.554-.713-2.533-2.215.019-1.381.723-1.995 2.262-1.977 1.508.017 2.144.639 2.142 2.095zM69.391 95.139c-.982 0-1.706.041-2.424-.01-.892-.064-1.573-.468-1.715-1.438-.12-.826-.196-1.829.629-2.194.798-.353 1.794-.305 2.705-.319.186-.003.508.482.548.772.135.981.169 1.975.257 3.189zM12.922 381.944c.043-1.405.965-2.232 2.428-2.178 1.122.042 1.629.726 1.599 2.16-.031 1.527-.694 2.201-2.114 2.148-1.326-.049-1.955-.75-1.913-2.13zM198.014 563.619c1.669-.028 2.236.386 2.241 1.639.007 1.603-.688 2.397-2.11 2.411-1.402.014-2.038-.641-2.096-2.162-.055-1.458.364-1.861 1.965-1.888zM224.259 563.636c1.531.015 2.209.65 2.191 2.052-.017 1.342-.692 1.997-2.041 1.978-1.373-.019-1.989-.708-2.016-2.256-.024-1.352.434-1.788 1.866-1.774zM16.858 198.282c.026 1.53-.24 1.875-1.465 1.893-1.664.025-2.45-.63-2.469-2.057-.019-1.407.642-2.05 2.178-2.119 1.45-.065 1.722.288 1.756 2.283zM56.052 471.859c0 .893.085 1.64-.019 2.36-.181 1.251-.888 1.741-2.152 1.646-1.186-.089-1.633-.643-1.706-2.113-.063-1.262.275-1.686 1.586-1.929.402-.075.816-.11 1.225-.118.265-.005.531.072 1.066.154zM29.849 159.243c.082.834-.116 1.451-1.161 1.488-1.68.06-2.603-.696-2.591-2.181.011-1.285.659-1.975 1.843-1.961 1.279.015 1.866.821 1.909 2.654zM121.549 40.76c-.011 1.228-.402 1.65-1.553 1.679-1.382.034-2.141-.674-2.077-1.94.057-1.135.818-1.832 2.036-1.865 1.115-.031 1.607.625 1.594 2.126zM56.043 106.351c-.012 1.193-.475 1.695-1.534 1.662-1.314-.042-2.085-.803-2.039-2.012.042-1.099.726-1.726 1.846-1.693 1.142.034 1.74.742 1.727 2.043zM196.424 14.609c-.009-1.287.62-2.039 1.738-2.077 1.173-.04 1.937.724 1.896 1.894-.037 1.07-.683 1.632-1.907 1.66-1.206.027-1.719-.411-1.727-1.477zM172.255 563.918c1.339-.055 1.643.158 1.68 1.18.053 1.456-.435 2.193-1.496 2.257-1.348.081-2.203-.609-2.255-1.818-.049-1.164.447-1.552 2.071-1.619zM3.492 290.087c.014 1.549-.164 1.827-1.193 1.865-1.393.051-2.021-.552-1.997-1.915.024-1.355.689-2.043 1.972-2.041.977.002 1.202.389 1.218 2.091zM224.431 16.085c-1.208-.01-1.758-.47-1.764-1.474-.007-1.232.705-2.059 1.774-2.061 1.065-.002 1.751.814 1.746 2.076-.004 1.025-.539 1.469-1.756 1.459zM133.217 550.852c1.08.034 1.512.552 1.443 1.73-.068 1.15-.575 1.654-1.626 1.618-1.147-.039-1.881-.69-1.902-1.686-.024-1.066.777-1.704 2.085-1.662zM3.362 316.272c-.031 1.235-.635 1.917-1.649 1.862-.949-.052-1.417-.675-1.396-1.856.022-1.207.604-1.85 1.672-1.849.937.002 1.403.627 1.373 1.843zM3.397 263.745c-.004 1.303-.373 1.792-1.368 1.816-1.144.028-1.709-.541-1.726-1.736-.019-1.342.553-1.969 1.756-1.926.976.036 1.342.541 1.338 1.846zM3.331 342.354c-.006 1.077-.616 1.747-1.57 1.723-.905-.023-1.418-.613-1.413-1.626.005-1.03.618-1.598 1.694-1.567.866.024 1.294.513 1.289 1.47zM41.963 458.98c.542.031.835.56.802 1.355-.044 1.071-.739 1.862-1.564 1.786-.759-.07-1.363-.909-1.3-1.809.056-.831.774-1.389 2.062-1.332zM3.31 237.553c-.039.942-.502 1.43-1.345 1.417-1.03-.016-1.662-.673-1.601-1.666.056-.922.659-1.451 1.62-1.418.885.03 1.368.637 1.326 1.667zM170.634 15.738c-.215-2.124.653-3.08 2.085-2.456.434.189.807.869.91 1.384.14.696-.373 1.138-1.086 1.165-.596.023-1.196-.054-1.909-.093zM133.371 26.35c.181.263.656.663.737 1.132.131.751-.586 1.315-1.457 1.303-.66-.01-1.226-.209-1.294-.983-.065-.734.76-1.437 2.014-1.452zM41.297 118.044c.725.051 1.208.767 1.102 1.635-.087.709-.475 1.123-1.204 1.061-.751-.064-1.264-.451-1.276-1.278-.012-.807.644-1.47 1.378-1.418zM13.635 407.824c.069-.736.621-1.019 1.375-1.002.752.017 1.073.494 1.058 1.19-.015.737-.29 1.328-1.133 1.394-.728.057-1.341-.655-1.3-1.582zM13.129 171.836c.845-.53 1.286-1.003 1.782-1.071.728-.099 1.095.486 1.087 1.188-.007.746-.459 1.22-1.181 1.038-.49-.123-.892-.59-1.688-1.155zM144.302 565.734c.754-.528 1.129-.984 1.531-1.01.31-.02.837.444.943.792.182.594-.233 1.122-.847 1.094-.421-.018-.824-.422-1.627-.876zM1.465 212.764c-.443-.735-.948-1.21-.864-1.528.104-.394.661-.853 1.088-.933.612-.114 1.095.395.939 1.02-.106.425-.587.756-1.163 1.441zM0 368.449c.906-.389 1.339-.696 1.797-.741.648-.064 1.015.39.995 1.033-.019.641-.414 1.121-1.047.945-.495-.137-.896-.614-1.745-1.237zM211.425 577.401c.38.7.781 1.115.76 1.508-.016.291-.581.552-.902.826-.305-.366-.766-.698-.855-1.111-.053-.245.479-.617.997-1.223zM27.867 446.019c.489.597.877.924 1.028 1.337.051.14-.557.753-.761.706-.444-.103-.823-.491-1.228-.762l.961-1.281zM186.028 579.016c-.344.223-.677.585-1.037.614-.197.016-.675-.608-.61-.804.117-.348.514-.748.863-.83.306-.072.707.264 1.066.42l-.282.6zM80.421 525.298l.824.965c-.317.265-.604.644-.966.742-.153.041-.643-.505-.653-.794-.008-.257.438-.528.795-.913zM67.069 512.067c.432.491.808.764.92 1.12.047.148-.471.668-.729.665-.286-.003-.722-.364-.805-.652-.066-.231.298-.585.614-1.133zM27.819 131.474c.38.467.812.784.764.992-.069.302-.459.687-.758.733-.26.039-.583-.344-.879-.541l.873-1.184zM146.323 13.144c.22.539.526.925.443 1.186-.091.284-.544.453-.839.673-.188-.307-.559-.644-.514-.912.049-.295.48-.526.91-.947zM94.342 539.453c-.408.337-.743.734-.85.679-.303-.154-.555-.468-.728-.775-.042-.075.347-.55.455-.522.333.087.627.328 1.123.618zM238.577 579.38c-.312.098-.652.323-.929.262-.31-.068-.633-.352-.803-.631-.062-.102.321-.675.462-.66.318.033.612.299.916.47l.354.559zM80.298 52.665c.263.382.594.657.552.852-.054.248-.394.568-.639.594-.184.02-.585-.38-.578-.582.007-.243.345-.475.665-.864zM211.106.265c.343.313.677.488.666.637-.02.272-.245.528-.385.791-.207-.133-.567-.246-.586-.402-.033-.264.15-.554.305-1.026zM68.001 66.742c-.481.247-.783.532-1.007.48-.209-.048-.416-.441-.46-.71-.019-.116.4-.449.572-.418.259.047.476.327.895.648zM53.784 499.397c.309.381.539.588.643.845.027.067-.349.424-.522.411-.198-.014-.48-.265-.533-.464-.044-.163.195-.401.412-.792zM105.738 552.576c.298-.197.613-.462.656-.424.204.182.334.448.49.683-.195.123-.41.364-.58.336-.18-.03-.317-.316-.566-.595zM14.416 433.756c.256.275.545.454.53.602-.018.182-.278.456-.455.473-.17.017-.484-.219-.519-.388-.031-.156.226-.37.444-.687zM54.68 79.573c-.369.28-.549.524-.737.53-.183.005-.373-.234-.56-.365.161-.172.297-.436.491-.489.168-.046.4.148.806.324zM93.335 39.956l.261.567-.638.294c-.052-.177-.184-.384-.132-.522.053-.137.29-.203.509-.339zM185.64.982l-.342.535c-.146-.102-.39-.187-.413-.312-.027-.147.137-.329.219-.496l.536.273zM40.703 486.437c.25.322.446.479.493.673.025.101-.225.389-.325.377-.213-.026-.408-.193-.611-.302l.443-.748zM1.022 394.887c.173-.03.334-.085.487-.068.052.006.083.196.123.303-.155.052-.307.118-.466.14-.025.004-.078-.197-.144-.375zM158.836 578.476c.175.226.361.36.365.5.004.144-.169.292-.264.439-.125-.123-.325-.231-.352-.372-.027-.137.126-.307.251-.567zM237.956 1.045c-.206.066-.374.152-.547.16-.086.004-.266-.169-.253-.204.057-.146.17-.269.263-.4l.537.444zM106.632 27.022l-.183.314-.384-.303c.093-.079.185-.216.28-.219.095-.002.192.133.287.208zM1.701 184.802l-.263.238-.276-.366c.11-.049.23-.151.327-.132.084.016.142.168.212.26zM14.57 145.045l.253.26c-.095.08-.191.221-.286.221-.087 0-.174-.153-.261-.238l.294-.243zM119.628 565.982l-.156.327c-.103-.061-.269-.105-.292-.189-.025-.089.086-.216.137-.326l.311.188zM40.657 92.609l.076.141-.158-.006zM228.933 63.279l.535-2.034c-1.887.258-3.489.653-5.09.647-1.54-.006-3.078-.427-4.889-.707.161.725.265 1.295.416 1.853.998 3.708.277 6.972-2.672 9.527-3.033 2.628-6.484 2.749-10.021 1.194-3.551-1.561-5.575-6.023-4.673-10.031.192-.852.43-1.694.689-2.704-1.853.327-3.503.843-5.154.847-1.598.004-3.197-.518-5.101-.865l.628 2.18c1.135 3.976-.265 7.853-3.645 10.1-3.24 2.153-7.762 2.002-10.753-.553-2.644-2.259-3.694-5.208-3.077-8.677.154-.865.392-1.715.652-2.832-1.709.264-3.213.66-4.722.683-1.548.024-3.102-.318-4.824-.52.039.464-.009.935.128 1.344 1.008 3.024.498 5.811-1.216 8.439-.111.17-.204.353-.292.538l-.262.557c.676-.33 1.358-.649 2.027-.992 5.494-2.817 11.615.073 12.903 6.095 1.028 4.811-2.687 9.685-7.893 10.356-4.762.614-9.252-3.27-9.509-8.096-.139-2.602.693-4.839 2.063-6.954-.968.513-1.908 1.091-2.911 1.524-2.377 1.027-4.787 1.084-7.197.057-.536-.228-1.092-.407-2.031-.752 2.223 5.183 2.098 9.66-2.598 12.904-3.095 2.138-6.554 2.198-9.712.204-4.526-2.857-5.063-7.154-3.415-12.195-1.714.373-3.144.881-4.593.945-1.466.066-2.951-.307-4.61-.51.137 1.666.434 3.213.339 4.735-.092 1.472-.587 2.919-.979 4.712.74-.239 1.345-.446 1.956-.629 5.711-1.709 11.319 2.012 11.788 7.816.29 3.586-1.75 7.037-5.119 8.656-3.356 1.614-7.026 1.046-9.737-1.459-2.942-2.719-3.732-5.948-2.409-9.715.175-.499.319-1.01.532-1.693-1.7.364-3.192.852-4.712.961-1.537.111-3.101-.154-4.833-.265.133 1.741.451 3.363.323 4.949-.122 1.516-.706 2.995-1.14 4.7.756-.249 1.378-.467 2.008-.66 5.309-1.63 10.319 1.159 11.636 6.475 1.49 6.011-4.271 11.898-10.323 10.549-5.3-1.181-8.06-5.805-6.734-11.29.173-.715.374-1.423.594-2.258-1.759.368-3.317.879-4.899.971-1.536.089-3.097-.252-4.782-.417.187 1.73.572 3.345.472 4.929-.1 1.579-.687 3.126-1.103 4.865.735-.244 1.361-.467 1.996-.66 5.311-1.615 10.312 1.192 11.614 6.514 1.448 5.918-4.181 11.767-10.16 10.557-5.393-1.091-8.258-5.805-6.897-11.358.173-.708.382-1.407.618-2.267-1.747.388-3.237.894-4.756 1.007-1.475.11-2.981-.183-4.707-.318.102 1.616.362 3.156.25 4.67-.114 1.54-.594 3.052-.976 4.874.806-.226 1.493-.437 2.188-.61 5.393-1.348 10.159 1.472 11.355 6.712.823 3.608-.905 7.347-4.365 9.442-3.134 1.898-7.227 1.551-9.978-.846-3.095-2.697-4.017-6.101-2.722-10.029.165-.501.303-1.011.497-1.666-1.696.359-3.192.839-4.715.953-1.478.111-2.985-.154-4.703-.269.205 1.499.597 2.952.548 4.391-.051 1.475-.534 2.936-.887 4.701.675-.127 1.259-.149 1.775-.347 3.697-1.416 8.211.738 10.247 3.824 2.021 3.063 1.768 7.284-.615 10.422-2.076 2.732-6.424 3.955-9.89 2.777-.647-.22-1.286-.463-1.938-.668-.097-.031-.24.086-.557.212 1.833 3.916 2.092 7.792-1.049 11.224-3.128 3.417-6.986 3.697-11.323 2.078.288 1.995.803 3.725.71 5.421-.094 1.722-.786 3.412-1.264 5.304.547-.17 1.049-.285 1.519-.479 5.36-2.218 10.892.474 12.232 6.06.833 3.474-.354 6.398-3.031 8.638-2.77 2.316-5.954 2.783-9.245 1.264-3.105-1.433-4.889-3.896-5.006-7.415-.055-1.665.104-3.288.87-4.808.141-.279.186-.607.298-.989-1.722.481-3.262 1.122-4.852 1.293-1.521.163-3.094-.163-4.962-.296.697 2.972 1.137 5.862-.549 9.08 1.294-.206 2.003-.276 2.691-.435 3.865-.895 6.904.497 9.224 3.506 2.103 2.728 2.414 5.856.999 8.944-1.557 3.398-4.321 5.297-8.154 5.218-1.551-.032-3.094-.407-4.746-.641.285 1.722.864 3.502.791 5.255-.072 1.717-.809 3.406-1.325 5.378.665-.227 1.217-.385 1.745-.601 5.299-2.168 10.885.675 12.116 6.289.762 3.477-.474 6.393-3.193 8.582-2.813 2.264-6.006 2.663-9.269 1.09-3.005-1.448-4.85-3.88-4.807-7.306.024-1.933.518-3.861.807-5.837-1.32.409-2.767 1.044-4.275 1.27-1.519.228-3.098.05-4.862.05.13 1.287.397 2.685.375 4.079-.021 1.349-.339 2.693-.538 4.117.714.525 1.428.046 2.119-.075 5.057-.885 9.656 2.11 10.73 7.012 1.33 6.069-3.702 11.629-9.939 10.967-.997-.106-1.985-.288-3.36-.491 1.012 3.269 1.192 6.281-.36 9.631 1.149-.233 1.859-.319 2.535-.523 4.237-1.28 9.031 1.521 10.586 5.419 1.688 4.229.026 8.886-3.988 11.169-2.086 1.187-4.304 1.265-6.586.784-.712-.15-1.416-.333-2.262-.534.256 1.849.668 3.449.645 5.044-.024 1.609-.48 3.212-.796 5.111.643-.153 1.216-.215 1.73-.423 4.007-1.625 8.483.724 10.466 3.675 2.085 3.103 1.911 7.556-.694 10.562-2.385 2.752-5.528 3.683-9.123 2.895l-1.788-.455c-.105-.023-.241.093-.415.166.223 1.585.621 3.185.624 4.786.002 1.541-.404 3.083-.677 4.937.876-.171 1.648-.297 2.409-.473 4.523-1.047 9.187 1.56 10.641 5.958 1.446 4.374-.619 9.084-4.842 10.998-1.958.887-3.991.881-6.047.412-.652-.149-1.302-.308-2.199-.52.38 1.811.931 3.373.975 4.949.043 1.52-.437 3.055-.739 4.899.945-.216 1.646-.387 2.352-.535 4.451-.935 9.296 1.678 10.518 5.888 1.468 5.058-.463 9.188-4.921 11.339-1.747.842-3.608.7-5.459.517-.672-.066-1.337-.199-2.286-.344.257 1.615.637 3.046.669 4.486.031 1.406-.295 2.819-.468 4.264 1.666 0 3.228-.143 4.752.04 1.531.184 3.022.693 4.717 1.105-.141-.54-.275-.967-.361-1.403-.25-1.266-.644-2.529-.689-3.804-.166-4.629 2.528-7.415 6.59-8.506 4.11-1.104 8.057.837 9.973 4.671 1.607 3.215 1.217 6.309-.925 9.086-2.237 2.899-5.258 4.106-8.913 3.305-1.108-.243-2.168-.707-3.291-1.084.483 1.881 1.242 3.633 1.301 5.409.059 1.767-.584 3.558-.974 5.629 5.031-2.137 9.353-1.399 12.447 3.092 1.978 2.872 2.09 6.135.279 9.159-2.868 4.788-7.23 5.363-12.345 3.609.391 1.818.919 3.322.984 4.846.062 1.47-.355 2.96-.587 4.619 1.748-.084 3.443-.378 5.081-.186 1.644.192 3.231.867 5.055 1.391-1.518-2.863-2.067-5.769-1.034-8.787.627-1.833 2.028-3.099 3.584-4.125 3.218-2.123 7.672-1.642 10.689 1.058 2.684 2.402 3.435 6.582 1.838 10.011-1.184 2.544-3.225 3.986-5.83 4.832-2.608.848-4.938-.157-7.364-1.235.533 2.084 1.284 3.839 1.35 5.62.063 1.715-.581 3.456-.971 5.479.686-.217 1.297-.415 1.912-.604 6.46-1.996 12.427 2.727 11.934 9.446-.324 4.416-3.738 7.826-8.182 8.024-1.55.069-3.114-.166-4.866-.274.245 1.46.605 2.834.671 4.221.063 1.347-.177 2.708-.299 4.262 1.484-.093 2.892-.315 4.281-.228 1.343.084 2.665.485 4.039.756.537-.996-.046-1.817-.196-2.641-.65-3.578.444-6.581 3.218-8.802 2.806-2.247 6.048-2.5 9.315-1.038 4.079 1.826 6.137 6.546 4.766 10.647-1.501 4.49-6.036 7.105-10.554 6.08-.775-.176-1.543-.381-2.775-.687 1.282 3.276 1.428 6.278.408 9.709 3.528-1.101 6.599-1.015 9.822.831-.165-.901-.249-1.329-.32-1.759-.21-1.274-.565-2.547-.593-3.825-.074-3.38 1.377-6.034 4.411-7.555 3.091-1.549 6.257-1.447 9.204.475 3.575 2.331 4.864 7.067 3.06 10.904-1.901 4.043-6.495 6.115-10.648 4.797-.701-.222-1.398-.458-2.346-.77.433 1.837 1.012 3.383 1.109 4.959.098 1.601-.279 3.231-.46 4.959.254.024.525.118.761.062 2.81-.667 5.566-.748 8.22.634.212.111.5.076 1.035.145-1.333-3.247-1.857-6.371-.273-9.458.945-1.842 2.515-3.046 4.393-3.87 3.337-1.465 7.676-.492 9.969 2.246 2.696 3.219 2.976 7.373.719 10.673-2.671 3.907-6.382 4.712-12.549 2.658.471 1.721 1.186 3.363 1.304 5.046.116 1.654-.375 3.35-.622 5.196 1.607-.169 3.268-.551 4.902-.459 1.671.094 3.315.654 5.087 1.035.299-.678-.289-1.216-.46-1.827-.896-3.195-.843-6.24 1.408-8.938 2.724-3.264 7.785-4.098 11.402-1.88 3.722 2.282 5.189 6.933 3.459 10.967-1.703 3.971-6.192 6.161-10.363 5.017-.975-.267-1.914-.667-3.01-1.055.503 1.764 1.217 3.356 1.35 4.995.133 1.65-.313 3.347-.527 5.207 1.684-.219 3.29-.66 4.867-.569 1.598.092 3.166.709 5.003 1.159-.184-.652-.349-1.201-.493-1.755-.656-2.525-.765-5.05.454-7.426 1.721-3.352 4.603-4.762 8.302-4.567 3.73.197 6.334 2.046 7.707 5.518 1.338 3.385.779 6.452-1.742 9.125-2.616 2.774-5.728 3.599-9.364 2.41-.52-.17-1.047-.319-1.578-.448-.106-.026-.244.082-.415.146.36 1.498.926 2.99 1.026 4.512.1 1.53-.264 3.091-.461 4.983 3.166-.85 6.173-.923 9.497.651-.286-1.154-.431-1.785-.6-2.411-1.179-4.356.693-8.668 4.599-10.582 3.98-1.95 8.709-.788 11.357 2.889 1.869 2.596 2.099 5.443.917 8.404-.274.686-.591 1.354-1.078 2.463.926-.365 1.47-.547 1.985-.788 3.72-1.743 7.14-1.062 10.153 1.503 2.941 2.504 3.274 5.859 2.532 9.423-.123.59-.341 1.16-.602 2.025 1.847-.353 3.472-.917 5.091-.902 1.657.015 3.309.596 5.205.978-.286-1.019-.563-1.905-.784-2.805-.838-3.419.597-7.239 3.466-9.277 3.033-2.154 6.885-2.252 10.071-.257 3.071 1.924 4.669 5.299 4.048 8.803-.212 1.196-.688 2.345-1.144 3.847 1.34-.37 2.454-.801 3.607-.963 1.141-.16 2.339-.18 3.479-.023 1.187.163 2.334.609 3.78 1.01-.325-1.081-.601-1.9-.818-2.733-1.153-4.423.908-8.819 4.95-10.589 4.14-1.812 8.898-.314 11.312 3.616 1.408 2.292 1.672 4.753.815 7.315-.233.697-.502 1.381-.926 2.54 3.79-1.571 7.239-1.805 10.676-.078.425-.926-.107-1.497-.31-2.096-1.945-5.73 1.328-11.174 7.312-12.076.732-.11 1.862-.096 2.594.024.643.105.847.25 1.847.47v-10.07c-1 .252-1.249.416-1.929.536-4.429.778-9.117-2.72-9.461-7.207-.219-2.853.207-5.397 2.517-7.428 2.148-1.889 4.884-2.343 7.57-1.931.404.062 1.303.154 1.303.289v-11.187c-1 .195-1.18.313-1.805.39-5.415.667-9.612-3.159-9.149-8.536.349-4.046 4.698-7.386 8.741-6.928.873.099 1.213.277 2.213.592v-12.524c0 .206-1.082.357-1.611.483-3.782.9-8.011-1.894-8.66-5.848-.683-4.161 2.155-8.025 6.194-8.296.273-.018.853-.022 1.127-.021 1.249.004 1.949.13 2.949.5v-13.854c-1 .39-1.743.531-2.97.54-3.821.027-6.965-3.05-6.751-6.814.213-3.742 3.795-6.583 7.514-6.205.843.086 1.208.286 2.208.639v-15.272c0 .214-1.007.379-1.427.5-2.367.687-5.096-.194-6.487-2.234-1.396-2.047-1.464-4.99-.043-6.931 1.406-1.92 4.452-2.774 6.716-2.03.362.119 1.241.275 1.241.469v-16.968c-1 .307-1.226.527-1.872.69-2.09.527-4.433-.432-5.604-2.402-1.036-1.742-.89-4.598.4-5.974 1.468-1.565 4.56-2.066 6.379-1.115.143.075.697.16.697.25v-18.673c-1 .443-1.463.707-2.331.84-2.245.345-4.42-.937-5.07-3.139-.513-1.737.207-3.692 1.892-4.791 1.447-.944 3.797-.846 5.135.194l.374.059v-20.27c-1 .759-2.029 1.207-3.16 1.163-2.038-.079-3.698-1.68-3.695-3.793.004-2.29 1.713-3.756 3.971-3.758 1.115-.001 1.883.344 2.883.976v-20.933c-1 .751-2.008 1.197-3.129 1.164-2.038-.061-3.717-1.654-3.727-3.761-.01-2.293 1.681-3.764 3.942-3.787 1.128-.011 1.913.333 2.913.972v-20.131c-1 .38-1.277.634-1.961.793-2.057.479-4.273-.466-5.184-2.319-.906-1.842-.503-4.197 1.092-5.395 1.02-.766 2.497-1.145 3.786-.95.853.129 1.266.403 2.266.857v-18.366c0 .252-1.106.437-1.65.573-2.101.523-4.147.02-5.54-1.646-1.332-1.593-1.689-3.446-.794-5.367.91-1.953 2.763-3.101 4.928-3.215 1.175-.062 2.056.269 3.056.916v-16.853c0 .196-.927.354-1.285.482-3.242 1.159-7.281-1.266-7.621-4.695-.451-4.545 2.944-7.538 7.257-6.683.583.116.649.278 1.649.516v-15.165c0 .18-.897.327-1.242.442-2.44.811-5.743-.232-7.28-2.419-1.664-2.368-1.756-5.683-.098-7.893 1.735-2.313 5.124-3.315 7.603-2.414.27.098 1.017.218 1.017.359v-13.658c-1 .393-1.757.535-2.999.539-4 .015-7.432-3.125-7.516-7.078-.082-3.882 3.585-7.479 7.437-7.579 1.28-.033 2.078.188 3.078.713v-12.285c0 .196-1.104.34-1.657.465-3.12.709-7.232-1.139-8.58-4.187-1.262-2.853-1.305-5.748.601-8.388 1.763-2.443 4.549-3.358 7.485-3.12.817.066 1.151.214 2.151.49v-11.028c-1 .236-1.245.38-1.925.475-4.48.628-8.597-2.269-9.595-6.923-.898-4.189 1.67-8.513 5.909-9.605 1.103-.284 2.607-.405 3.739-.315.681.054.872.174 1.872.389v-9.838c0 .179-1.101.294-1.655.375-6.651.975-12.139-4.829-10.409-11.366zm-39.442 15.828c-.025-4.949 3.759-8.784 8.595-8.881 4.344-.087 9.039 3.975 8.656 8.791.32 4.484-3.783 8.633-8.567 8.609-4.909-.024-8.66-3.683-8.684-8.519zm-4.485 4.615c4.986.016 8.571 4.814 8.514 8.347-.075 4.634-3.923 8.571-8.55 8.511-4.066-.053-8.498-2.939-8.259-8.572-.51-4.271 3.855-8.3 8.295-8.286zm-65.823 329.846c4.03.047 8.094 3.775 7.696 7.946-.052 4.557-3.235 7.645-7.854 7.619-4.629-.026-7.763-3.332-7.753-7.991.011-4.616 4.454-7.614 7.911-7.574zm-13.319 2.693c-3.781-.05-8.027-3.097-7.765-8.114.013-4.473 3.339-7.793 7.817-7.772 4.51.022 7.82 3.208 8.034 7.93.189 4.14-3.85 8.012-8.086 7.956zm26.403 10.485c3.304-.008 7.984 2.893 7.777 7.921.001 4.478-3.3 7.673-7.894 7.638-4.544-.035-7.715-3.276-7.686-7.856.026-4.134 3.65-7.694 7.803-7.703zm13.292 13.117c4.359.188 7.809 3.536 7.857 7.884.046 4.203-3.794 8.004-8.046 7.966-4.326-.039-7.767-3.56-7.745-7.924-.264-4.172 3.848-8.102 7.934-7.926zm26.216.418c4.785-.089 7.642 4.398 7.688 7.355.066 4.203-3.477 7.756-7.722 7.738-4.292-.018-7.373-3.231-7.369-7.686.004-4.288 3.118-7.328 7.403-7.407zm-13.093 12.763c4.521.031 8.136 3.666 8.045 8.093-.084 4.091-4.106 7.908-8.234 7.876-3.31-.025-8.015-3.128-7.751-8.154.246-4.68 3.285-7.847 7.94-7.815zm13.225 12.86c3.985.082 8.344 3.877 8.05 8.225-.051 4.653-3.61 8.128-8.28 8.084-4.623-.043-8.162-3.684-8.072-8.301.083-4.274 4.053-8.095 8.302-8.008zm13.282 13.081c4.438.034 8.468 3.952 8.235 8.3-.277 5.176-3.665 8.309-8.618 8.376-3.603.048-8.243-2.617-8.085-8.548.027-4.735 3.6-8.165 8.468-8.128zm5.004-4.96c.192-4.715 3.434-7.896 8.19-7.809 4.379-.169 8 3.912 7.88 8.018-.131 4.488-3.814 8.006-8.27 7.951-3.429-.042-8.002-3.201-7.8-8.16zm-5.266-5.386c-4.468-.072-7.773-3.316-7.759-7.616.013-4.367 3.538-7.917 7.824-7.879 4.293.038 7.766 3.604 7.738 7.945-.029 4.278-3.481 7.62-7.803 7.55zm5.81-20.842c-.038-4.136 3.271-7.476 7.395-7.462 4.158.013 7.351 3.258 7.362 7.482.011 4.174-3.027 7.208-7.259 7.249-4.295.041-7.459-3.026-7.498-7.269zm-5.657-6.016c-3.832.03-7.36-3.275-7.124-7.182-.029-4.133 2.773-7.012 6.873-7.06 4.011-.047 7.365 3.116 7.394 6.975.029 3.896-3.224 7.236-7.143 7.267zm-19.106-7.208c.038 4.12-3.103 7.157-7.259 7.354-4.065.193-7.534-3.498-7.5-7.139.039-4.227 3.164-7.572 7.292-7.625 4.166-.052 7.428 3.185 7.467 7.41zm-20.716-5.872c-3.976-.07-7.181-3.319-7.155-7.253.026-3.896 3.518-7.42 7.339-7.404 4.082.017 7.38 3.42 7.334 7.569-.044 3.965-3.432 7.159-7.518 7.088zm-13.157-13.172c-3.978-.063-7.192-3.308-7.169-7.238.023-3.9 3.506-7.542 7.323-7.389 4.761.19 7.322 3.634 7.35 7.524-.038 3.965-3.421 7.168-7.504 7.103zm-13.004-13.154c-4.197.007-7.388-3.107-7.381-7.203.007-4.222 3.251-7.533 7.373-7.526 4.171.008 7.369 3.267 7.369 7.508.001 4.096-3.179 7.215-7.361 7.221zm-13.289-12.863c-4.238-.066-7.326-3.348-7.297-7.757.027-4.26 3.168-7.342 7.454-7.316 4.395-.136 7.576 3.872 7.599 7.589.025 3.973-3.71 7.547-7.756 7.484zm-13.149-13.061c-3.844.068-7.817-3.548-7.679-7.789.008-4.214 3.552-7.737 7.771-7.724 4.207.013 7.76 3.557 7.761 7.741.001 4.462-3.364 7.692-7.853 7.772zm19.47-7.735c.059-3.833 3.166-6.982 6.911-7.004 3.99-.023 7.065 3.17 7.005 7.274-.057 3.87-2.933 6.647-6.863 6.625-4.187-.022-7.114-2.884-7.053-6.895zm-6.174-5.91c-3.961.03-7.258-3.215-7.226-7.154.034-4.101 3.224-7.395 7.12-7.166 4.039-.326 7.447 3.524 7.405 6.95-.048 4.042-3.253 7.34-7.299 7.37zm-13.324-12.882c-4.234-.078-7.321-3.278-7.284-7.552.037-4.361 3.256-7.468 7.567-7.466 4.393.001 7.501 4.076 7.439 7.53-.075 4.157-3.611 7.564-7.722 7.488zm-12.945-12.997c-4.678.035-7.853-3.167-7.931-7.814-.079-4.732 4.344-7.704 7.734-7.751 4.187-.059 8.063 3.799 7.916 7.77-.172 4.592-3.15 7.761-7.719 7.795zm19.27-7.663c.027-3.84 3.101-7.012 6.848-7.068 3.991-.06 7.105 3.115 7.071 7.209-.032 3.88-2.887 6.689-6.8 6.691-4.19.002-7.148-2.837-7.119-6.832zm-6.28-5.94c-4.037-.024-7.262-3.159-7.301-7.099-.042-4.155 3.253-7.548 7.346-7.563 4.049-.015 7.363 3.257 7.382 7.288.019 4.278-3.125 7.4-7.427 7.374zm-13.268-12.735c-3.802.032-7.73-3.582-7.612-7.868.116-4.215 3.656-7.711 7.863-7.644 4.219.067 7.717 3.63 7.681 7.82-.038 4.453-3.439 7.654-7.932 7.692zm6.007-20.689c-.082-3.876 3.312-7.588 7.162-7.548 4.389.046 7.38 3.128 7.51 7.361.044 3.979-3.274 7.262-7.341 7.264-4.004.003-7.247-3.129-7.331-7.077zm-5.77-5.672c-4.482-.033-7.816-3.225-7.855-7.521-.039-4.366 3.429-7.945 7.727-7.975 4.276-.03 7.824 3.525 7.834 7.849.01 4.295-3.399 7.678-7.706 7.647zm5.729-20.728c-.023-4.154 3.302-7.545 7.382-7.53 4.06.015 7.344 3.291 7.347 7.326.003 4.192-3.059 7.288-7.257 7.338-4.139.05-7.451-3.112-7.472-7.134zm-5.789-5.606c-4.65.001-7.802-3.26-7.83-7.915-.029-4.669 4.412-7.652 7.835-7.652 4.091 0 8.151 3.788 7.773 7.87-.027 4.573-3.183 7.696-7.778 7.697zm19.372-7.752c.07-3.843 3.18-6.973 6.934-6.98 3.991-.007 7.051 3.191 6.981 7.297-.066 3.863-2.954 6.632-6.886 6.602-4.18-.031-7.102-2.908-7.029-6.919zm-6.306-5.525c-4.237-.056-7.336-3.336-7.313-7.742.022-4.265 3.155-7.287 7.438-7.349 4.403-.063 7.582 3.875 7.616 7.591.036 3.973-3.691 7.553-7.741 7.5zm5.993-20.695c.018-4.001 3.401-7.36 7.356-7.302 3.922.057 7.281 3.398 7.24 7.202-.044 4.04-3.342 7.288-7.376 7.264-3.998-.025-7.237-3.24-7.22-7.164zm-6.075-5.548c-4.334-.055-7.68-3.457-7.607-7.736.073-4.328 3.673-7.881 7.894-7.819 3.283.048 7.913 2.935 7.668 8.003-.033 4.453-3.359 7.61-7.955 7.552zm19.545-7.639c-.054-3.917 3.068-7.094 6.968-7.091 3.995.003 6.949 2.994 6.967 7.053.017 4.005-2.785 6.814-6.839 6.856-4.197.043-7.039-2.687-7.096-6.818zm-6.163-5.587c-4.245.031-7.409-3.208-7.441-7.619-.399-4.048 3.658-7.633 7.269-7.576 4.109.065 7.655 2.847 7.827 7.579.146 3.984-3.562 7.586-7.655 7.616zm5.751-20.992c.035-4.054 3.275-7.257 7.355-7.269 4.151-.013 7.424 3.249 7.412 7.386.035 4.807-3.388 7.439-7.496 7.47-4.05.029-7.307-3.452-7.271-7.587zm55.077-65.588c-.039 4.327-3.7 7.992-8.041 7.978-4.579-.015-8.25-3.56-8.22-8.01.033-4.996 4.038-8.244 8.121-7.976 5.262-.262 8.171 4.513 8.14 8.008zm-3.208-13.41c.019-4.45 3.644-8.076 8.123-8.124 4.674-.05 8.275 3.584 8.278 8.352.002 4.51-3.504 7.99-8.083 8.023-4.765.033-8.338-3.511-8.318-8.251zm.592 26.474c.096-4.662 3.284-7.528 7.53-7.487 4.395-.025 7.747 3.095 7.819 7.279.071 4.137-3.468 7.789-7.623 7.865-4.205.077-7.814-3.398-7.726-7.657zm2.015 13.205c.005 4.033-3.385 7.488-7.486 7.484-3.456-.003-7.566-2.699-7.486-7.412-.011-4.248 3.126-7.513 7.276-7.569 4.134-.055 7.691 3.41 7.696 7.497zm-12.71-13.128c.174 4.144-3.876 8.004-8.109 7.934-3.762-.062-7.928-3.091-7.768-8.137.141-4.464 3.383-7.768 7.865-7.752 4.538.05 7.816 3.267 8.012 7.955zm-21.175 5.22c4.452.02 7.991 3.566 7.953 7.968-.035 4.142-3.77 7.827-7.956 7.851-4.314.025-7.714-3.484-7.87-7.828-.153-4.282 3.894-8.264 7.873-7.991zm-5.207 21.012c.146 4.312-3.643 7.987-7.964 7.984-4.387-.003-7.823-3.416-7.844-7.79-.022-4.664 3.203-8.016 7.746-8.034 4.524-.017 7.906 3.23 8.062 7.84zm-13.049 13.164c.071 4.147-3.975 8.125-8.198 8.117-3.422-.006-8.112-3.239-7.746-7.91-.015-4.847 3.138-8.078 7.864-8.058 4.458.017 8.005 3.464 8.08 7.851zm10.833.198c.057-4.224 3.211-7.561 7.331-7.585 4.174-.024 7.406 3.216 7.429 7.449.023 4.114-3.131 7.129-7.299 7.315-4 .179-7.511-3.478-7.461-7.179zm13.192-13.302c.044-4.222 3.323-7.506 7.442-7.456 4.174.051 7.326 3.324 7.299 7.578-.027 4.086-3.228 7.166-7.431 7.15-4.181-.015-7.353-3.171-7.31-7.272zm26.758-.094c.087-3.919 3.341-7.074 7.167-6.948 3.911.129 6.827 3.294 6.747 7.323-.078 3.934-3.064 6.689-7.12 6.57-4.051-.118-6.881-3.011-6.794-6.945zm26.531.048c.051-3.938 2.817-6.647 6.782-6.641 3.891.005 6.881 2.865 6.899 6.596.017 3.712-3.225 6.925-6.965 6.9-3.712-.024-6.765-3.14-6.716-6.855zm-6.332-5.905c-3.961.047-7.272-3.183-7.256-7.124.017-4.127 3.226-7.416 7.091-7.196 4.063-.345 7.461 3.524 7.435 6.92-.032 4.034-3.23 7.352-7.27 7.4zm5.705-20.243c-.04-4.394 3.09-7.57 7.376-7.658 4.48-.092 7.573 3.916 7.632 7.339.07 4.113-3.383 7.723-7.531 7.65-4.617-.081-7.447-3.222-7.477-7.331zm-5.784-5.636c-4.644-.008-7.798-3.286-7.806-7.937-.008-4.694 4.453-7.643 7.857-7.629 4.081.018 8.132 3.786 7.749 7.893-.034 4.569-3.197 7.68-7.8 7.673zm5.029-20.8c-.008-4.404 3.661-8.154 8.043-8.221 4.306-.066 8.239 3.723 8.287 7.984.052 4.564-3.577 8.237-8.153 8.255-4.513.016-8.169-3.568-8.177-8.018zm-31.239-21.921c4.743.093 8.491 3.982 8.479 8.798-.012 4.922-3.628 8.421-8.68 8.399-4.933.348-8.606-4.655-8.549-8.449.075-4.88 3.972-8.841 8.75-8.748zm-13.303 13.527c4.906.002 8.547 3.549 8.58 8.361.031 4.509-3.856 8.429-8.379 8.448-4.871.02-8.628-3.716-8.67-8.571-.036-4.167 3.786-8.586 8.469-8.238zm-21.399 21.341c-.27-4.742 4.245-8.374 8.402-8.195 4.557.196 8.536 3.962 8.33 8.45-.228 4.964-3.878 8.368-8.695 8.306-4.425-.057-8.332-3.54-8.037-8.561zm-13.18 13.125c.092-4.728 3.63-8.156 8.497-8.111 4.435.041 8.462 3.974 8.218 8.318-.291 5.197-3.704 8.31-8.635 8.357-3.65.035-8.195-2.658-8.08-8.564zm-5 5.054c4.688-.021 8.754 3.815 8.566 8.389-.196 4.764-3.542 8.221-8.459 8.341-4.373.106-8.267-3.379-8.333-8.326-.071-5.259 4.586-8.672 8.226-8.404zm-21.579 21.449c-.06-4.195 3.781-8.614 8.427-8.28 4.922-.012 8.563 3.501 8.621 8.319.055 4.512-3.81 8.447-8.336 8.489-4.87.045-8.642-3.671-8.712-8.528zm-13.321 13.235c.106-4.804 3.872-8.684 8.594-8.697 4.722-.013 8.581 3.85 8.633 8.643.054 4.949-3.507 8.522-8.523 8.554-5.141.407-8.788-4.718-8.704-8.5zm13.647 13.071c.095-4.437 3.819-8.105 8.191-8.069 4.337.036 8.16 3.859 8.136 8.136-.026 4.557-3.717 8.159-8.306 8.103-4.501-.055-8.117-3.738-8.021-8.17zm-13.244 13.402c-.023-4.85 3.457-8.439 8.192-8.448 4.645-.009 8.39 3.699 8.427 8.343.034 4.293-3.956 8.313-8.321 8.293-4.384-.019-8.522-3.73-8.298-8.188zm-13.509 12.882c.19-5.107 3.961-8.348 8.589-8.455 4.661-.108 8.544 3.856 8.557 8.469.014 4.78-3.821 8.629-8.6 8.63-4.779-.001-8.723-3.877-8.546-8.644zm13.799 13.274c.165-4.722 3.391-7.935 8.133-7.869 4.453-.185 8.025 3.91 7.941 7.961-.093 4.487-3.746 8.024-8.213 8.01-3.446-.01-8.033-3.179-7.861-8.102zm-13.47 13.226c-.031-4.763 3.516-8.335 8.257-8.315 4.583.019 8.496 3.778 8.42 8.326-.074 4.407-3.389 8.194-8.43 8.365-4.654.157-8.216-3.572-8.247-8.376zm-13.564 13.067c.005-4.796 3.853-8.616 8.652-8.589 4.795.027 8.598 3.863 8.581 8.655-.018 5.089-3.605 8.591-8.751 8.546-5.015-.043-8.487-3.568-8.482-8.612zm21.805 4.998c4.683.016 8.218 3.667 8.18 8.449-.036 4.494-3.576 7.925-8.178 7.926-4.664.001-8.188-3.49-8.221-8.142-.032-4.537 3.673-8.249 8.219-8.233zm-21.771 21.392c-.016-4.605 3.876-8.638 8.504-8.554 5.1.092 8.721 3.976 8.682 8.583.033 4.501-3.82 8.464-8.289 8.528-4.967.071-8.88-3.693-8.897-8.557zm13.583 13.051c.058-4.281 4.019-8.192 8.278-8.032 3.817.143 8.104 2.852 8.077 8.144-.022 4.667-3.564 8.169-8.239 8.146-4.682-.023-8.179-3.581-8.116-8.258zm-13.583 13.132c.085-4.616 4.075-8.592 8.664-8.394 5.22.224 8.637 4.213 8.522 8.745-.033 4.487-3.946 8.362-8.451 8.368-4.938.006-8.824-3.874-8.735-8.719zm13.565 13.431c.025-4.49 3.833-8.436 8.217-8.289 4.431.149 8.18 3.252 8.168 8.261.017 4.487-3.533 8.041-8.076 8.085-4.674.045-8.334-3.504-8.309-8.057zm-13.598 12.868c.074-4.687 4.11-8.54 8.821-8.424 4.782.118 8.476 3.981 8.409 8.794-.07 5.041-3.707 8.488-8.863 8.402-4.829-.08-8.444-3.871-8.367-8.772zm13.536 13.583c.12-4.856 3.441-8.425 8.178-8.458 4.611-.032 8.513 3.744 8.517 8.243.004 4.522-3.83 8.346-8.39 8.412-4.26.062-8.412-3.848-8.305-8.197zm13.605 13.012c-.241-5.307 4.271-8.018 7.812-7.932 4.595.111 8.258 3.541 8.111 8.032-.145 4.448-3.585 7.783-8.105 7.95-3.361.123-8.243-3.121-7.818-8.05zm-13.886 13.048c.019-4.575 3.881-8.403 8.632-8.368 4.618.034 8.225 3.421 8.477 8.517.045 4.567-3.854 8.445-8.521 8.476-4.736.032-8.608-3.856-8.588-8.625zm21.45 21.446c-4.533-.249-8.004-3.662-7.959-8.191.047-4.738 3.63-8.255 8.4-8.243 4.534.011 8.073 3.703 8.021 8.365.273 4.231-3.739 8.328-8.462 8.069zm5.337 5.165c-.063-4.567 3.414-8.042 8.053-8.05 5.374-.283 8.215 4.526 8.214 7.933-.002 4.33-3.625 8.029-7.966 8.053-4.586.025-8.24-3.468-8.301-7.936zm-13.664 12.945c.01-4.606 3.929-8.626 8.545-8.513 5.137.126 8.702 4.044 8.641 8.625.016 4.498-3.854 8.44-8.331 8.487-4.964.052-8.866-3.737-8.855-8.599zm13.525 13.091c-.325-4.724 4.247-8.252 8.361-8.226 4.729.029 8.512 4.439 8.407 8.607-.113 4.465-4.082 8.34-8.59 8.238-4.171-.095-8.452-3.086-8.178-8.619zm13.177 13.321c-.019-4.677 3.439-8.217 8.086-8.281 4.673-.064 8.698 3.743 8.591 8.361-.106 4.546-3.576 8.203-8.464 8.331-4.668.122-8.194-3.595-8.213-8.411zm13.178 13.315c-.012-4.854 3.442-8.41 8.181-8.422 4.611-.012 8.504 3.788 8.481 8.278-.023 4.527-3.875 8.334-8.426 8.376-4.235.041-8.514-3.851-8.236-8.232zm13.166 12.932c.018-4.657 3.529-8.167 8.185-8.183 4.666-.016 8.681 3.869 8.491 8.458-.199 4.814-3.945 8.219-8.561 8.22-3.57.001-8.246-2.586-8.115-8.495zm13.101 13.179c-.027-4.812 4.349-8.583 8.37-8.208 4.771-.317 8.535 4.327 8.466 8.474-.074 4.458-4.015 8.359-8.535 8.295-4.168-.059-8.27-3.056-8.301-8.561zm12.916 13.131c.199-5.114 3.979-8.343 8.6-8.444 4.661-.102 8.538 3.866 8.546 8.48.008 4.781-3.831 8.623-8.611 8.618-4.779-.005-8.72-3.89-8.535-8.654zm21.76 22.085c-4.768.032-8.633-3.798-8.664-8.586-.032-4.95 3.735-8.858 8.566-8.886 4.788-.028 8.789 3.887 8.874 8.684.084 4.666-4.001 8.756-8.776 8.788zm26.386-.24c-5.104.402-8.684-4.643-8.694-8.301-.014-4.878 3.799-8.888 8.598-8.896 4.724-.008 8.577 3.856 8.626 8.65.051 4.948-3.512 8.518-8.53 8.547zm34.885-8.45c-.053 5.065-3.681 8.531-8.847 8.451-4.99-.077-8.44-3.658-8.387-8.707.051-4.79 3.952-8.579 8.746-8.494 4.802.085 8.538 3.937 8.488 8.75zm-21.818-4.852c-4.671.109-8.183-3.607-8.196-8.427-.013-4.674 3.453-8.209 8.103-8.264 4.672-.056 8.697 3.764 8.574 8.377-.122 4.59-3.635 8.201-8.481 8.314zm21.37-21.491c.013 4.407-3.697 8.031-8.207 8.016-4.532-.014-8.041-3.543-8.083-8.13-.041-4.341 3.812-8.157 8.181-8.103 4.377.054 8.096 3.822 8.109 8.217zm-13.571-13.397c.044 4.46-3.279 7.749-7.748 7.849-4.755.106-7.75-4.32-7.784-7.704-.041-4.096 3.567-7.763 7.702-7.797 4.189-.035 7.788 3.483 7.83 7.652zm12.977-13.042c.038 4.102-3.508 7.664-7.645 7.526-3.688-.124-7.451-2.999-7.334-7.572.108-4.228 3.279-7.432 7.448-7.407 4.044.025 7.494 3.439 7.531 7.453zm-13.54-13.191c-.042 3.724-3.392 7.124-7.124 7.143-3.477.018-7.25-2.877-7.067-7.007-.011-4.221 2.917-7.195 7.048-7.159 3.874.034 7.184 3.289 7.143 7.023zm12.876-13.239c.042 3.709-3.188 6.938-6.933 6.93-3.709-.008-6.773-3.106-6.75-6.826.024-3.922 2.804-6.667 6.756-6.671 3.901-.004 6.885 2.825 6.927 6.567zm-33.199-6.574c3.828.143 6.865 3.106 6.776 6.836-.083 3.458-3.414 6.654-6.896 6.616-3.708-.04-6.541-2.997-6.508-6.794-.259-3.983 3.661-6.769 6.628-6.658zm-19.453 6.615c.007 3.952-2.908 6.894-6.859 6.923-4.021.029-7.051-2.991-7.025-7.002.024-3.598 3.253-6.803 6.888-6.835 3.723-.032 6.989 3.195 6.996 6.914zm39.059-13.024c-.027 3.369-3.093 6.367-6.524 6.326-3.639-.043-6.138-2.698-6.134-6.517.004-3.627 2.551-6.061 6.207-6.159 3.821-.103 6.475 3.452 6.451 6.35zm-26.332-.306c.104 3.593-2.755 6.567-6.38 6.638-3.599.07-6.568-2.82-6.597-6.425-.028-3.397 2.962-6.434 6.385-6.487 3.417-.054 6.494 2.875 6.592 6.274zm-25.953.316c.002 3.569-3.298 6.737-6.959 6.736-3.43-.002-6.769-2.928-6.515-6.987.019-3.922 2.686-6.53 6.645-6.498 3.918.031 6.826 2.905 6.829 6.749zm65.077-13.298c.065 3.357-2.553 6.035-5.921 6.055-3.571.021-6.288-2.549-6.281-5.943.006-3.34 2.802-6.155 6.153-6.198 3.1-.039 5.986 2.864 6.049 6.086zm-32.449 6.03c-3.207.007-5.941-2.839-5.904-6.148.036-3.343 2.555-5.729 5.996-5.681 3.45.048 6.063 2.681 5.97 6.014-.088 3.124-2.886 5.808-6.062 5.815zm-20.012-5.812c-.058 3.149-3.133 6.098-6.348 6.108-2.993.009-6.347-2.679-6.14-6.393.014-3.542 2.555-6.088 6.099-6.111 3.591-.023 6.454 2.843 6.389 6.396zm-25.819-.318c.045 3.593-3.148 6.859-6.753 6.907-3.765.051-6.664-2.89-6.689-6.786-.025-3.95 2.546-6.596 6.457-6.644 3.936-.047 6.937 2.755 6.985 6.523zm64.658-12.965c-.014 2.946-2.762 5.57-5.772 5.513-2.963-.056-5.54-2.653-5.503-5.546.04-3.181 2.444-5.544 5.653-5.558 3.118-.014 5.637 2.49 5.622 5.591zm-26.303.056c-.021 3.112-2.499 5.494-5.713 5.492-3.106-.002-5.695-2.55-5.67-5.581.027-3.23 2.594-5.822 5.731-5.786 3.14.036 5.674 2.67 5.652 5.875zm-25.919-.251c.014 3.516-2.518 6.106-6.018 6.156-3.609.052-6.238-2.546-6.225-6.151.011-3.117 2.91-6.009 6.056-6.042 3.454-.036 6.174 2.618 6.187 6.037zm-25.559-.056c.077 3.702-3.127 6.969-6.865 7-3.708.031-6.8-3.031-6.822-6.756-.023-3.911 2.76-6.715 6.688-6.741 3.921-.025 6.921 2.76 6.999 6.497zm90.564-12.861c-.095 2.971-2.312 5.071-5.328 5.047-2.94-.023-5.235-2.304-5.21-5.178.025-2.947 2.481-5.395 5.354-5.338 2.98.061 5.279 2.486 5.184 5.469zm-31.567 4.993c-2.908.035-4.982-2.094-4.974-5.103.009-3.167 1.862-5.049 4.957-5.033 2.853.015 5.21 2.292 5.185 5.009-.025 2.717-2.421 5.094-5.168 5.127zm-20.767-5.193c.025 3.032-2.609 5.63-5.679 5.603-3.04-.027-5.251-2.284-5.284-5.393-.035-3.289 2.1-5.542 5.274-5.564 2.935-.021 5.666 2.55 5.689 5.354zm-31.702-6.139c3.505.153 6.091 2.993 5.96 6.546-.122 3.306-3.099 6.009-6.439 5.845-3.446-.169-6.026-2.938-5.921-6.355.111-3.622 2.835-6.191 6.4-6.036zm70.363-6.926c-.015 2.405-2.412 4.709-4.85 4.665-2.522-.046-4.408-2.052-4.422-4.704-.014-2.611 1.917-4.567 4.508-4.568 2.719-.001 4.78 1.992 4.764 4.607zm-26.256-.053c-.039 2.831-2.18 4.865-5.031 4.778-2.705-.082-4.753-2.269-4.653-4.966.093-2.484 2.363-4.663 4.842-4.647 2.615.017 4.878 2.278 4.842 4.835zm-25.577-.061c.03 3.03-2.601 5.633-5.671 5.61-3.04-.022-5.249-2.271-5.291-5.387-.045-3.283 2.094-5.545 5.266-5.57 2.937-.024 5.668 2.54 5.696 5.347zm-25.481.135c-.016 3.369-3.075 6.381-6.503 6.346-3.646-.037-6.153-2.684-6.155-6.497-.002-3.631 2.535-6.154 6.188-6.156 3.84-.213 6.483 3.426 6.47 6.307zm90.14-13.192c.019 2.324-1.911 4.249-4.32 4.31-2.469.062-4.475-1.856-4.518-4.322-.042-2.393 2.017-4.467 4.431-4.464 2.418.003 4.387 2.003 4.407 4.476zm-30.777 3.904c-2.437 0-4.131-1.741-4.044-4.154.082-2.244 1.921-3.96 4.169-3.889 2.327.074 3.97 1.788 3.925 4.094-.047 2.354-1.684 3.949-4.05 3.949zm-21.503-3.908c.022 2.423-2.303 4.725-4.751 4.704-2.679-.023-4.86-2.198-4.836-4.823.024-2.614 2.088-4.655 4.721-4.67 2.664-.014 4.842 2.129 4.866 4.789zm-25.476.059c-.007 3.118-2.47 5.513-5.681 5.524-3.106.011-5.71-2.522-5.703-5.548.008-3.231 2.558-5.835 5.699-5.819 3.139.016 5.692 2.64 5.685 5.843zm-25.296-.065c.037 3.541-3.079 6.636-6.713 6.668-3.724.033-6.555-2.83-6.599-6.67-.041-3.641 2.761-6.562 6.383-6.655 3.705-.093 6.891 2.967 6.929 6.657zm89.024-13.148c-.085 1.895-1.766 3.465-3.66 3.419-1.835-.045-3.446-1.623-3.458-3.388-.013-1.953 1.725-3.671 3.681-3.638 1.907.032 3.521 1.726 3.437 3.607zm-25.967.055c-.06 1.913-2.002 3.769-3.948 3.772-2.059.003-3.674-1.709-3.663-3.885.012-2.374 1.368-3.753 3.683-3.742 2.308.011 3.997 1.669 3.928 3.855zm-25.31.086c-.064 2.677-2.41 4.845-5.146 4.754-2.787-.092-4.786-2.266-4.718-5.129.064-2.658 2.411-4.84 5.138-4.776 2.715.065 4.794 2.331 4.726 5.151zm-25.253-.158c.028 3.277-2.687 5.945-6.062 5.96-3.312.015-6.063-2.719-6.04-6.001.023-3.286 2.78-6.004 6.068-5.984 3.313.02 6.007 2.709 6.034 6.025zm89.624-13.149c-.036 1.896-1.721 3.434-3.658 3.338-1.914-.094-3.15-1.547-3.063-3.599.08-1.897 1.428-3.168 3.313-3.124 1.829.042 3.441 1.644 3.408 3.385zm-29.917 2.807c-1.485-.046-2.657-1.288-2.676-2.836-.019-1.565 1.299-2.895 2.858-2.885 1.585.01 2.822 1.312 2.791 2.938-.028 1.539-1.41 2.832-2.973 2.783zm-22.227-2.911c0 2.339-1.647 3.973-4.016 3.986-2.299.013-3.986-1.541-4.049-3.728-.065-2.244 1.881-4.314 4.051-4.31 2.248.004 4.015 1.787 4.014 4.052zm-25.087.185c-.027 2.907-2.294 5.07-5.308 5.067-3.073-.003-5.301-2.25-5.275-5.318.025-2.944 2.249-5.177 5.204-5.225 3.104-.051 5.408 2.296 5.379 5.476zm-31.428-6.401c3.591.023 6.334 2.844 6.272 6.452-.059 3.469-3.041 6.278-6.597 6.216-3.496-.061-6.303-2.995-6.292-6.549.009-2.883 2.569-6.37 6.617-6.119zm-20.238-6.785c-.022-3.9 2.975-6.944 6.843-6.948 3.761-.004 6.898 3.013 6.93 6.665.034 3.802-3.042 6.935-6.851 6.977-3.683.041-6.901-3.071-6.922-6.694zm114.51-.164c.017 1.208-.934 2.194-2.169 2.248-1.293.057-2.391-1.011-2.343-2.28.042-1.111 1.153-2.155 2.309-2.17 1.203-.015 2.186.966 2.203 2.202zm-25.555-.182c.089 1.541-1.302 3.081-2.876 3.184-1.595.104-2.958-1.238-3.004-2.958-.046-1.715 1.042-2.846 2.764-2.872 1.641-.026 3.03 1.153 3.116 2.646zm-24.732.45c-.091 2.392-2.336 4.46-4.78 4.401-2.54-.061-4.428-2.082-4.383-4.693.046-2.609 2-4.543 4.553-4.505 2.473.037 4.702 2.356 4.61 4.797zm-25.095-.211c.045 3.115-2.769 5.895-5.923 5.851-3.275-.046-5.75-2.625-5.742-5.984.007-3.175 2.566-5.705 5.757-5.691 3.312.014 5.861 2.527 5.908 5.824zm89.297-13.199c-.009 1.512-1.592 3.025-3.109 2.972-1.527-.054-2.746-1.429-2.7-3.047.048-1.707 1.22-2.832 2.897-2.781 1.642.049 2.922 1.304 2.912 2.856zm-29.427 1.798c-1.08-.03-1.833-.786-1.795-1.802.041-1.067 1.016-1.98 2.009-1.883.917.09 1.723 1.037 1.7 1.995-.024 1.001-.838 1.719-1.914 1.69zm-22.425-1.623c-.064 1.963-2.002 3.737-3.967 3.63-2.076-.112-3.621-1.863-3.53-4.001.084-1.978 1.812-3.562 3.799-3.484 2.109.084 3.764 1.809 3.698 3.855zm-24.952-.192c.038 2.852-2.326 5.193-5.248 5.197-2.859.004-5.162-2.212-5.205-5.007-.043-2.776 2.423-5.383 5.132-5.426 2.686-.044 5.284 2.513 5.321 5.236zm-25.139-.015c-.045 3.431-3.04 6.396-6.461 6.396-3.592 0-6.153-2.606-6.153-6.262 0-3.702 2.477-6.297 6.053-6.341 3.526-.045 6.604 2.868 6.561 6.207zm-26.512-13.294c.067-3.638 3.289-6.783 6.919-6.754 3.771.03 6.905 3.195 6.901 6.97-.004 3.743-3.046 6.783-6.789 6.783-3.99.001-7.103-3.098-7.031-6.999zm114.586.09c.017 1.344-.928 2.288-2.303 2.302-1.373.014-2.346-.914-2.357-2.25-.011-1.302.997-2.325 2.304-2.339 1.304-.014 2.34.992 2.356 2.287zm-25.551.167c-.006 1.632-1.354 2.935-3.063 2.961-1.741.027-3.152-1.408-3.089-3.142.061-1.684 1.394-2.884 3.143-2.83 1.7.052 3.015 1.369 3.009 3.011zm-24.729-.129c-.029 2.511-2.279 4.7-4.794 4.666-2.603-.036-4.47-1.995-4.426-4.643.044-2.648 1.968-4.584 4.532-4.558 2.437.024 4.715 2.228 4.688 4.535zm-25.147.163c-.025 3.042-2.745 5.72-5.829 5.741-3.255.022-5.804-2.551-5.837-5.89-.031-3.189 2.477-5.752 5.662-5.786 3.396-.036 6.032 2.569 6.004 5.935zm89.846-13.489c.046 1.895-1.524 3.572-3.422 3.655-1.908.084-3.663-1.508-3.694-3.352-.033-1.953 1.684-3.682 3.646-3.67 1.818.012 3.426 1.572 3.47 3.367zm-29.864 3.239c-1.665.025-3.029-1.271-3.088-2.936-.059-1.672 1.221-2.99 2.944-3.031 1.732-.041 3.09 1.15 3.204 2.809.116 1.709-1.26 3.131-3.06 3.158zm-22.127-3.084c.055 2.049-2.079 4.207-4.202 4.251-2.174.045-4.077-1.905-4.124-4.224-.048-2.436 1.577-4.078 4.087-4.128 2.275-.044 4.178 1.797 4.239 4.101zm-25.308.19c-.088 2.956-2.325 5.067-5.352 5.05-3.07-.016-5.296-2.295-5.245-5.367.05-3.002 2.4-5.24 5.471-5.211 2.929.029 5.217 2.496 5.126 5.528zm-25.143-.177c-.019 3.604-2.958 6.471-6.591 6.428-3.516-.041-6.361-2.905-6.388-6.429-.026-3.475 3.121-6.569 6.594-6.483 3.456.085 6.403 3.078 6.385 6.484zm89.329-13.098c-.04 2.171-1.456 3.503-3.696 3.475-2.152-.027-3.531-1.344-3.554-3.394-.024-2.134 1.656-3.873 3.696-3.824 1.978.047 3.59 1.745 3.554 3.743zm-25.958.098c-.033 2.18-1.696 3.764-3.975 3.786-2.292.021-4.007-1.665-4.037-3.97-.027-2.019 1.83-3.932 3.881-3.996 2.181-.069 4.164 1.938 4.131 4.18zm-25.257-.079c-.036 2.547-2.526 4.969-5.109 4.969-2.691 0-4.923-2.296-4.893-5.032.033-2.956 2-4.974 4.864-4.99 2.857-.016 5.177 2.266 5.138 5.053zm-25.353-.182c.027 3.408-2.711 6.129-6.143 6.106-3.358-.022-5.965-2.639-6.012-6.034-.044-3.184 2.802-6.042 6.031-6.056 3.216-.014 6.099 2.802 6.124 5.984zm90.564-13.12c-.018 2.681-1.868 4.469-4.562 4.408-2.401-.054-4.315-1.944-4.337-4.283-.025-2.559 1.996-4.616 4.498-4.58 2.446.036 4.417 2.032 4.401 4.455zm-30.805 4.346c-2.394-.001-4.07-1.727-4.07-4.194-.001-2.549 1.56-4.214 3.988-4.255 2.407-.041 4.429 1.849 4.449 4.157.019 2.263-2.046 4.293-4.367 4.292zm-21.476-4.414c.018 2.839-2.075 4.916-4.924 4.886-2.727-.029-4.792-2.138-4.761-4.86.029-2.488 2.235-4.702 4.736-4.753 2.596-.054 4.932 2.179 4.949 4.727zm-25.486.055c-.012 3.408-2.25 5.658-5.658 5.688-3.435.03-5.794-2.235-5.782-5.551.012-3.268 2.638-5.875 5.892-5.849 2.952.024 5.559 2.708 5.548 5.712zm-25.266-.04c.004 3.564-3.1 6.846-6.587 6.827-3.046-.017-6.856-1.978-6.789-6.663.054-3.786 2.853-6.699 6.545-6.712 3.585-.013 6.827 3.095 6.831 6.548zm90.246-13.071c.018 2.587-2.238 4.788-4.884 4.766-2.507-.021-4.759-2.253-4.747-4.705.012-2.646 2.217-4.904 4.788-4.903 2.619 0 4.825 2.206 4.843 4.842zm-26.298.129c-.014 2.808-1.948 4.665-4.867 4.674-2.914.009-4.893-1.972-4.893-4.898.001-2.588 2.27-4.833 4.879-4.828 2.669.006 4.894 2.309 4.881 5.052zm-25.568-.06c-.012 2.867-2.627 5.463-5.561 5.52-3.043.06-5.749-2.563-5.715-5.54.035-3.181 2.437-5.547 5.647-5.564 3.121-.016 5.643 2.485 5.629 5.584zm-25.5-.081c-.02 3.524-2.838 6.362-6.386 6.429-3.6.068-6.566-2.824-6.592-6.429-.025-3.397 2.966-6.432 6.39-6.483 3.506-.053 6.607 2.999 6.588 6.483zm91.162-13.196c-.039 3.064-2.479 5.447-5.533 5.403-2.806-.04-5.228-2.466-5.24-5.251-.014-3.158 2.32-5.543 5.383-5.499 2.941.042 5.426 2.507 5.39 5.347zm-37.045-.013c-.019-2.588 2.474-5.127 5.112-5.206 2.857-.086 5.351 2.262 5.398 5.081.048 2.894-2.204 5.259-5.099 5.354-2.99.098-5.389-2.22-5.411-5.229zm-15.424-.127c.043 3.004-2.529 5.683-5.535 5.767-3.103.086-5.806-2.57-5.795-5.695.01-2.88 2.6-5.483 5.532-5.562 3.046-.081 5.755 2.484 5.798 5.49zm-25.643.265c-.079 3.355-3.049 6.215-6.42 6.207-2.982-.008-6.321-2.692-6.111-6.397.015-3.605 2.592-6.118 6.28-6.126 3.368-.007 6.329 2.985 6.251 6.316zm-26.441-13.247c-.041-3.696 3.255-6.977 6.955-6.923 3.777.055 6.888 3.229 6.866 7.006-.022 3.744-3.079 6.765-6.825 6.747-3.912-.019-6.953-2.987-6.996-6.83zm91.623.11c-.017 3.113-2.491 5.498-5.706 5.5-3.104.002-5.703-2.548-5.677-5.572.027-3.239 2.582-5.827 5.722-5.795 3.14.031 5.679 2.662 5.661 5.867zm-26.329-.216c.001 3.413-2.226 5.676-5.627 5.718-3.435.042-5.811-2.214-5.814-5.521-.003-3.27 2.605-5.885 5.863-5.878 2.952.006 5.577 2.68 5.578 5.681zm-25.721.191c-.002 3.212-3.195 6.262-6.469 6.195-2.938-.06-6.205-2.7-6.04-6.512.152-3.515 2.691-6.032 6.237-5.992 3.506.041 6.274 2.824 6.272 6.309zm-26.368-13.057c-.082-3.889 2.887-6.977 6.757-7.03 3.757-.051 6.935 2.933 7.013 6.583.081 3.797-2.963 6.97-6.769 7.059-3.674.086-6.925-2.984-7.001-6.612zm92.018-.262c-.021 3.508-2.577 6.063-6.086 6.085-3.526.022-6.18-2.549-6.178-5.983.003-3.583 2.704-6.308 6.205-6.258 3.47.049 6.08 2.701 6.059 6.156zm-32.429 6.068c-3.566-.052-6.226-2.69-6.134-6.083.091-3.342 2.966-6.112 6.292-6.061 3.091.048 5.915 3.028 5.909 6.235-.006 3.348-2.686 5.958-6.067 5.909zm-19.937-6.258c.095 3.474-2.964 6.6-6.461 6.6-3.505 0-6.079-2.535-6.151-6.058-.078-3.823 2.397-6.501 6.051-6.546 3.441-.042 6.471 2.731 6.561 6.004zm-19.716-6.095c-3.92-.131-6.89-3.202-6.795-7.026.092-3.722 3.486-6.906 7.156-6.714 3.818.2 6.788 3.41 6.66 7.199-.127 3.741-3.267 6.666-7.021 6.541zm19.91-6.998c.035-3.469 2.949-6.364 6.452-6.409 3.593-.046 6.594 2.874 6.612 6.431.017 3.616-2.842 6.538-6.443 6.583-3.7.048-6.659-2.904-6.621-6.605zm39.393.233c-.007 3.457-2.972 6.386-6.437 6.358-3.696-.03-6.642-2.902-6.588-6.423.055-3.574 3.058-6.552 6.56-6.507 3.649.047 6.473 2.918 6.465 6.572zm13.583-13.303c.058 3.851-2.987 6.898-6.909 6.913-3.817.015-6.876-2.934-6.939-6.691-.063-3.763 3.104-7.081 6.818-7.144 3.683-.06 6.974 3.18 7.03 6.922zm-12.829-13.146c-.009 3.915-3.28 7.147-7.228 7.228-3.422.069-7.403-3.118-7.04-7.262-.003-4.193 2.756-6.98 6.933-7.002 4.031-.021 7.345 3.157 7.335 7.036zm13.587-13.102c-.077 4.158-3.529 7.558-7.699 7.559-4.29 0-7.39-3.212-7.395-7.66-.004-4.293 3.096-7.339 7.377-7.433 4.891-.108 7.772 4.563 7.717 7.534zm-13.08-13.064c-.034 4.453-3.359 7.61-7.955 7.552-4.334-.055-7.68-3.457-7.607-7.736.073-4.329 3.673-7.881 7.894-7.819 3.283.047 7.913 2.934 7.668 8.003zm5.493-21.518c3.811.142 8.104 2.845 8.079 8.143-.022 4.667-3.563 8.171-8.238 8.148-4.682-.023-8.18-3.58-8.117-8.257.057-4.281 4.017-8.192 8.276-8.034zm-4.738-4.78c-.099 4.462-4.059 8.346-8.571 8.257-4.17-.082-8.466-3.075-8.198-8.598-.331-4.755 4.26-8.269 8.341-8.245 4.762.027 8.52 4.43 8.428 8.586zm4.703-4.603c-4.915.059-8.67-3.71-8.706-8.738-.034-4.791 3.758-8.68 8.518-8.735 4.753-.055 8.953 3.987 8.973 8.635.02 4.719-4.017 8.781-8.785 8.838zM238.009 49.19c-1.293-.01-2.758-.16-4.243-.26.1 1.467.238 2.871.165 4.259-.07 1.34-.492 2.664-.784 4.266.741-.138 1.285-.285 1.859-.343 1.285-.13 2.929-.393 4.197-.28.626.056.797.174 1.797.379v-8.376c-1 .292-1.726.365-2.991.355zM234.67 522.054c-.595-.095-1.167-.338-2.026-.597.424 1.639.982 3.044 1.107 4.487.127 1.469-.171 2.974-.306 4.774.797-.112 1.49-.263 2.19-.298 1.217-.061 2.812-.211 4-.028.422.065 1.365.166 1.365.31v-8.531c-1 .225-1.348.325-2.128.337-1.282.023-2.924-.25-4.202-.454z"/></g></svg>