<svg xmlns="http://www.w3.org/2000/svg" viewBox="0 0 844 350" enable-background="new 0 0 844 350"><g opacity=".15" fill="#fff"><path d="M84.429 299.92c-.525 2.62-1.412 5.114-1.413 7.609-.002 2.39.916 4.781 1.541 7.695-4.446-2.394-8.973-1.989-13.786-1.382.239-2.324.614-4.355.611-6.386-.003-2.049-.382-4.097-.613-6.298 2.508.204 4.871.7 7.171.494 2.197-.198 4.328-1.126 6.489-1.732zM89.742 218.142c.305-2.191.758-4.218.821-6.257.061-1.956-.283-3.925-.477-6.215 2.257.159 4.39.502 6.503.404 2.126-.099 4.232-.637 6.435-.997-.316 2.601-.991 5.051-.798 7.431.193 2.392 1.25 4.714 1.967 7.204-2.343-.695-4.624-1.718-6.989-1.977-2.39-.262-4.862.232-7.462.407zM84.412 261.907c-2.238 5.005-2.082 9.712.701 14.692-2.796-.605-4.945-1.302-7.136-1.479-2.252-.181-4.545.147-6.869.254v-12.456c4.405.802 8.822 1.173 13.304-1.011zM639.089 91.269c-1.325 4.437-.962 8.328.892 12.464-2.926-.382-5.352-1.07-7.718-.903-2.385.168-4.709 1.184-7.585 1.971 2.557-4.38 3.023-8.809 1.784-13.761 2.431.271 4.361.621 6.299.662 1.862.041 3.731-.239 6.328-.433zM759.885 314.489c1.883-4.862 2.041-9.393-.56-14.324 2.762.678 4.811 1.425 6.912 1.629 2.039.197 4.132-.164 6.422-.292v11.985c-4.307-1.012-8.482-.755-12.774 1.002zM753.885 218.039c-4.6-.512-8.973-1.21-13.471 1.741.731-3.137 1.591-5.397 1.695-7.691.1-2.204-.585-4.444-1.007-7.199 4.175 1.658 8.152 1.94 12.502.965-.161 2.402-.425 4.352-.383 6.295.039 1.843.4 3.68.664 5.889zM772.621 263.593v11.505c-4.096-.387-8.381-1.171-12.281 1.472l-.342-.526c.464-2.172 1.247-4.336 1.303-6.518.058-2.221-.599-4.46-.993-7.017 2.19.395 4.092.877 6.023 1.047 1.967.171 3.961.037 6.29.037zM281.633 65.289c.37-3.978.716-7.7 1.089-11.703h10.758c0 1.984-.198 4.062.057 6.082.245 1.946.957 3.834 1.543 6.043-2.408-.475-4.662-1.214-6.937-1.284-2.199-.066-4.418.558-6.51.862zM414.742 46.481c1.893-4.148 2.491-7.918 1.187-12.235 2.401.233 4.229.539 6.06.553 1.762.013 3.527-.275 5.656-.464 0 2.143-.139 4.101.04 6.03.172 1.851.674 3.671 1.115 5.934-2.449-.39-4.643-1.018-6.835-1.008-2.134.009-4.265.67-7.223 1.19zM71.716 225.776l11.763-.775c-.635 4.134-1.279 8.361.95 12.842-2.647-.606-4.628-1.278-6.655-1.461-1.945-.176-3.936.154-6.058.27v-10.876zM549.35 65.577c.424-2.356.893-4.264 1.08-6.2.186-1.925.089-3.878.115-5.708h10.632c.388 3.848.758 7.52 1.155 11.466-2.003-.263-4.115-.803-6.211-.743-2.126.06-4.235.713-6.771 1.185zM377.357 46.189c0-.604-.036-.986.006-1.359.296-2.651.672-5.294.885-7.951.097-1.212.19-2.225 1.719-2.229 2.966-.007 5.932-.002 9.307-.002 0 1.86-.14 3.806.04 5.723.174 1.851.677 3.671 1.103 5.849-2.331-.369-4.437-.961-6.544-.963-2.122-.003-4.243.581-6.516.932zM224.602 83.991l.749-11.284c1.634.135 3.389.426 5.136.384 1.761-.042 3.514-.414 5.205-.633l1.186 12.198c-1.857-.375-3.85-1.004-5.871-1.121-2.051-.117-4.131.273-6.405.456zM465.689 34.696c0 2.311-.168 4.201.049 6.046.205 1.748.815 3.448 1.323 5.472-2.384-.372-4.502-.984-6.611-.954-2.144.03-4.279.692-6.873 1.16.49-2.053 1.108-3.884 1.324-5.761.221-1.928.049-3.902.049-5.963h10.739zM606.667 84.568c1.553-4.025 2.284-7.768 1.009-11.673 1.012-.165 1.392-.293 1.766-.277 2.474.104 4.946.312 7.42.335 1.368.013 2.023.463 2.071 1.872.099 2.859.275 5.715.429 8.778-1.925.88-3.936-.524-5.941-.166-2.036.363-4.08.685-6.754 1.131zM772.036 236.201c-1.908 0-3.777-.136-5.617.038-1.863.176-3.697.658-5.78 1.05.298-2.168.763-4.184.8-6.209.035-1.942-.374-3.891-.616-6.104 2.067.321 3.889.711 5.73.859 1.751.141 3.523.03 5.483.03v10.336zM140.158 130.201c-.092 1.887-.354 3.747-.224 5.579.13 1.83.651 3.632 1.062 5.766-2.229-.235-4.154-.515-6.088-.621-1.849-.101-3.708-.022-5.884-.022.185-1.589.405-2.926.48-4.27.082-1.484.024-2.975.038-4.462.008-.881.303-1.643 1.294-1.686 3.032-.131 6.068-.19 9.322-.284zM110.455 159.682c0-3.019-.031-5.874.018-8.728.016-.926.629-1.401 1.579-1.423 2.846-.065 5.691-.142 8.651-.218l.739 11.141c-1.688.589-3.372-.746-5.181-.767-1.867-.022-3.735-.005-5.806-.005zM351.206 45.79c-1.976-.234-3.818-.602-5.666-.629-1.871-.027-3.748.283-5.927.472 0-.734-.043-1.376.008-2.011.166-2.078.425-4.15.536-6.231.112-2.11.439-2.44 2.448-2.399 1.882.038 3.767-.022 5.649-.098 1.054-.042 2.163-.112 2.288 1.255.278 3.042.428 6.093.664 9.641zM492.716 45.788l.972-10.661h9.866l.914 10.625c-1.866-.208-3.791-.593-5.716-.59-1.956.003-3.911.389-6.036.626zM63.498 293.975l-10.393-.527v-9.958l10.393-.832v11.317zM159.925 122.05l-11.507-.663c.113-1.508.282-3.155.347-4.806.061-1.563.013-3.131.013-4.911l10.269-.465c0 1.977-.114 3.832.033 5.665.141 1.746.555 3.469.845 5.18zM53.178 331.403v-9.661l10.309-.879v11.028c-3.366-.159-6.664-.315-10.309-.488zM714.07 130.782l.42 9.477-11.158.902c.345-1.824.859-3.613.977-5.428.114-1.743-.181-3.512-.31-5.476 3.42.179 6.627.346 10.071.525zM91.604 178.611c0-2.938-.064-5.603.057-8.26.023-.496.752-1.336 1.212-1.376 2.755-.242 5.527-.296 8.514-.422l.603 10.599-10.386-.541zM722.834 160.161l.739-10.718 9.721.504c.066 2.897.192 5.659.128 8.417-.01.45-.831 1.22-1.328 1.264-3.043.269-6.101.371-9.26.533zM63.805 255.638c-3.077-.165-5.743-.29-8.406-.457-1.438-.09-2.127-.876-2.082-2.346.058-1.886.047-3.774.08-5.661.018-.998.377-1.79 1.5-1.866 2.83-.192 5.663-.339 8.697-.516-.161 1.772-.467 3.521-.438 5.264.03 1.757.393 3.507.649 5.582zM780.8 293.645v-10.644c3.25.152 6.528.306 9.903.465v9.483l-9.903.696zM255.262 64.5h-10.944c.235-3.099.385-5.926.73-8.728.054-.441.974-1.061 1.533-1.105 2.085-.165 4.186-.14 6.281-.154 1.07-.007 1.631.534 1.712 1.638.202 2.756.451 5.51.688 8.349zM695.309 121.161l-10.68.678c0-.67-.041-1.321.008-1.966.157-2.064.419-4.122.503-6.188.079-1.932.346-2.235 2.268-2.137 1.875.096 3.754.151 5.631.177 1.03.014 1.817.363 1.889 1.456.174 2.639.258 5.284.381 7.98zM780.857 331.748v-10.344c.45-.051 1.01-.195 1.56-.163 1.883.109 3.76.331 5.644.412 2.339.101 2.599.355 2.541 2.573-.044 1.684-.029 3.373.043 5.056.058 1.348-.442 2.068-1.848 2.118-2.568.092-5.135.223-7.94.348zM752.251 178.436l-10.114.774c0-.568-.033-1.124.006-1.676.15-2.154.366-4.305.473-6.462.085-1.714.394-2.163 2.065-2.179 1.882-.018 3.766.08 5.648.125 1.123.027 1.919.387 1.961 1.698l.279 6.794c.008.269-.181.545-.318.926zM311.715 35.73l.806 9.235h-10.792c.282-2.627.472-5.256.915-7.842.094-.546 1.089-1.289 1.71-1.33 2.358-.156 4.733-.063 7.361-.063zM178.451 102.302c-3.13 0-5.981.002-8.831-.001-1.09-.001-1.699-.519-1.631-1.64.132-2.174.223-4.355.509-6.51.065-.489.821-1.209 1.32-1.264 2.164-.239 4.351-.275 6.53-.377.93-.044 1.594.359 1.656 1.317.185 2.844.305 5.693.447 8.475zM82.621 198.144c-2.75-.146-5.22-.232-7.682-.423-1.87-.145-2.292-.581-2.334-2.368-.035-1.486-.007-2.984.147-4.461.19-1.829.796-2.414 2.643-2.615 1.677-.182 3.37-.225 5.056-.327 1.039-.063 1.791.299 1.843 1.439.129 2.846.215 5.695.327 8.755zM599.652 64.079h-10.476c-.063-.202-.295-.57-.268-.917.164-2.074.372-4.144.596-6.212.204-1.879.589-2.302 2.372-2.344 1.687-.04 3.378.043 5.066.103 1.111.04 1.948.504 2.063 1.718.231 2.45.417 4.906.647 7.652zM780.958 255.2v-10.068c2.927.156 5.667.24 8.388.513.418.042 1.037.938 1.069 1.469.125 2.072.129 4.161-.004 6.232-.032.506-.719 1.345-1.166 1.387-2.721.258-5.46.329-8.287.467zM666.411 93.024h8.781l.629 8.848-10.121.629.711-9.477zM542.216 44.973h-10.641c.031-.669.008-1.334.104-1.982.117-.784.362-1.548.506-2.33.28-1.521.046-3.52.937-4.426.744-.757 2.789-.241 4.259-.281 3.943-.106 3.93-.103 4.195 3.787.061.888.259 1.767.371 2.653.096.758.16 1.521.269 2.579zM771 197.087l-9.013.786v-9.689c2.792.174 5.238.229 7.647.553.522.07 1.257 1.084 1.304 1.707.162 2.141.062 4.302.062 6.643zM187.571 82.79c.123-2.585.181-4.66.335-6.728.086-1.159.81-1.776 1.993-1.794.897-.013 1.796.023 2.691-.023 3.825-.196 3.941-.087 4.204 3.864.098 1.476.254 2.947.407 4.682-3.175-.001-6.171-.001-9.63-.001zM62.898 216.619c-2.682-.153-5.035-.192-7.354-.49-.559-.072-1.074-.958-1.475-1.559-.186-.278-.067-.771-.056-1.165.147-5.287-.28-5.711 4.979-5.638 1.058.015 2.12-.219 3.478-.372l.428 9.224zM446.042 25.561h-7.878c-1.267-.001-1.815-.685-1.704-1.891.155-1.676.247-3.373.617-5.005.13-.574.957-1.328 1.539-1.398 1.561-.19 3.163-.071 4.747-.045 1.16.019 1.895.653 2.035 1.776.255 2.04.408 4.092.644 6.563zM647.063 83.018c.157-2.886.208-5.15.46-7.391.055-.493.753-1.076 1.289-1.307.494-.213 1.168-.014 1.763.012 5.13.23 6.041 1.279 5.593 6.307-.103 1.156-.586 1.934-1.754 2.018-2.341.168-4.69.237-7.351.361zM407.722 25.551c-3.021 0-5.663.037-8.302-.019-.997-.021-1.325-.782-1.242-1.672.165-1.77.359-3.538.584-5.301.118-.926.725-1.379 1.645-1.364.791.013 1.581.115 2.371.117 4.064.013 4.069.006 4.545 4.183.14 1.232.244 2.468.399 4.056zM43.374 307.166c.028 4.758.028 4.758-4.293 4.442-.598-.044-1.206-.033-1.791-.142-1.732-.323-2.212-.795-1.947-3.012.216-1.81-1.429-4.503 1.879-5.161 1.362-.271 2.782-.308 4.178-.333 1.684-.031 2.093.416 2.102 2.13.003.795-.096 1.592-.128 2.076zM360.1 25.045c.176-2.198.219-4.176.559-6.102.1-.564 1.028-.997 1.608-1.451.128-.101.388-.031.586-.046 5.596-.429 6.602.59 6.243 6.223-.069 1.086-.509 1.694-1.613 1.707-1.793.021-3.587.028-5.38.002-.48-.006-.958-.153-2.003-.333zM43.417 264.794c0 2.698.095 4.959-.068 7.201-.04.547-.912 1.05-1.439 1.533-.109.1-.383.019-.581.022-5.64.09-6.567-.859-6.054-6.456.057-.622.694-1.621 1.182-1.699 2.122-.338 4.29-.4 6.96-.601zM781.67 216.19c0-2.412-.074-4.662.059-6.9.029-.481.733-1.083 1.265-1.328.491-.226 1.168-.06 1.763-.045 4.559.114 5.842 1.699 4.79 6.159-.17.719-.959 1.757-1.558 1.827-2.116.25-4.269.837-6.319.287zM43.204 350c-2.112-.121-3.968-.135-5.791-.385-.569-.078-1.442-.737-1.506-1.218-.244-1.844-.313-3.73-.217-5.588.022-.426.922-1.07 1.486-1.154 1.565-.233 3.164-.256 4.752-.3.953-.026 1.505.524 1.489 1.474-.038 2.255-.13 4.507-.213 7.171zM570.651 44.416c.132-2.263.208-4.204.385-6.137.041-.442.409-1.206.663-1.222 1.94-.121 3.927-.335 5.824-.04 1.702.265 1.658 1.978 1.748 3.367.038.592.043 1.185.064 1.778.051 1.482-.734 2.211-2.151 2.242-1.964.044-3.93.012-6.533.012zM475.664 17.763c7.251-.671 7.945-.427 8.035 7.385h-8.81c.258-2.467.51-4.863.775-7.385zM273.603 44.361c-2.822 0-5.186.061-7.544-.027-1.082-.041-1.511-.846-1.404-1.902.04-.396.113-.789.162-1.184.568-4.585 1.554-5.327 6.127-4.708 1.032.14 1.686.621 1.837 1.638.289 1.95.523 3.907.822 6.183zM800.936 307.467c-.052-4.294-.052-4.291 3.83-3.949.492.043.989.027 1.482.062 2.122.15 2.282.329 2.267 2.519-.003.395-.02.791-.059 1.184-.128 1.306.773 3.191-.868 3.719-1.809.582-3.873.455-5.824.433-.34-.004-.871-.989-.954-1.572-.122-.862.08-1.768.126-2.396zM211.302 63.139c-4.733.645-4.01-.929-3.695-4.387.195-2.146.836-2.642 3.063-2.876.494-.052.993-.065 1.49-.073 2.605-.042 2.925.236 3.208 2.751.524 4.658.524 4.658-4.066 4.585zM800.977 269.536c0-4.432 0-4.432 4.244-4.116 2.831.211 3.015.399 3.113 3.184.157 4.425.043 4.549-4.303 4.669-.298.008-.597.039-.894.032-2.009-.044-2.277-.299-2.262-2.207.005-.596.076-1.19.102-1.562zM632.412 63.099c-.77.071-1.067.108-1.366.124-2.531.133-2.813-.158-2.535-2.63.044-.395.071-.805.196-1.177.362-1.079.528-2.829 1.21-3.069 1.402-.493 3.111-.328 4.648-.11.564.08 1.11 1.018 1.453 1.675.258.495.2 1.164.247 1.758.257 3.228.163 3.328-3.129 3.427-.399.012-.798.002-.724.002zM801.021 345.408l.001-1.778c.009-1.374.713-1.983 2.068-1.855.591.056 1.181.122 1.768.207 2.844.414 3.553 1.273 3.402 4.103-.115 2.156-.679 2.811-2.739 3.185-4.207.763-4.453.551-4.5-3.862zM326.397 24.881l-.017-.002c-1.216-.178-3.035.812-3.516-.647-.49-1.489-.098-3.303.092-4.954.049-.423.753-1.03 1.222-1.098 1.47-.214 2.979-.327 4.455-.227.467.032 1.018.789 1.277 1.334.239.505.125 1.171.192 1.764.448 3.97.45 3.97-3.705 3.83zM42.978 231.431c.036.591.151 1.192.084 1.771-.053.459-.303 1.266-.508 1.28-1.827.122-3.703.343-5.483.046-1.316-.22-1.065-1.694-1.038-2.769.087-3.386 2.187-5.091 5.449-4.27.577.145 1.173.961 1.387 1.593.24.709.055 1.561.055 2.35l.054-.001zM119.523 117.321c.095 2.618-.371 3.112-3.011 3.188-3.127.09-4.125-.66-4.247-3.194-.144-3 .812-3.941 4.085-4.025 2.681-.068 3.041.389 3.173 4.031zM97.017 139.529c-.735-.056-1.446-.036-2.12-.186-.455-.101-1.178-.39-1.226-.685-.231-1.432-.488-2.918-.325-4.338.16-1.397 1.478-1.735 2.738-1.828.793-.059 1.611-.195 2.378-.063.516.089 1.308.524 1.377.911.291 1.643.692 3.384.415 4.979-.29 1.661-2.021 1.178-3.237 1.21zM517.661 24.816c-4.039.168-4.192.002-3.747-4.037.28-2.543.567-2.798 3.166-2.779.693.005 1.387.021 2.079.053 1.02.048 1.66.563 1.865 1.578l.15.877c.685 3.924.508 4.141-3.513 4.308zM78.19 158.343c-.199-.013-.399-.016-.597-.042-1.15-.148-2.649.151-3.029-1.331-.394-1.537-.417-3.198.729-4.537.664-.775 3.636-1.262 4.54-.715.458.277.876.832 1.03 1.346.225.749.223 1.572.271 2.366.174 2.912.006 3.071-2.944 2.913zM135.47 101.202l-.596-.038c-2.702-.162-3.131-.447-3.188-2.121-.088-2.57.875-3.961 3.103-4.32 1.151-.186 2.795-.679 3.203.66.49 1.606.384 3.474.134 5.17-.062.422-1.67.617-2.568.916l-.088-.267zM746.532 139.208c-2.101.092-2.608-.241-2.718-1.786-.254-3.553.55-4.835 3.066-4.893 2.672-.061 3.684.744 3.796 3.018.13 2.651-.849 3.517-4.144 3.661zM801.136 231.468c-.035-2.661.81-3.654 3.144-3.694 2.5-.044 3.423.944 3.481 3.722.049 2.368-.806 3.016-3.994 3.028-1.993.007-2.601-.699-2.631-3.056zM727.413 120.045c-2.135.108-2.672-.23-2.783-1.752-.206-2.806.743-4.422 2.642-4.501 2.826-.116 4.148.848 4.192 3.057.044 2.224-.992 3.041-4.051 3.196zM763.19 155.806c-.048-2.814.907-4.055 3.117-4.049 2.032.005 2.953.991 2.971 3.179.019 2.285-.902 3.226-3.202 3.273-2.114.044-2.855-.572-2.886-2.403zM231.039 43.682c-2.945-.072-3.486-.463-3.412-2.471.1-2.714 1.007-3.641 3.576-3.65 2.127-.008 2.885 1.054 2.798 3.917-.06 1.957-.474 2.265-2.962 2.204zM58.755 177.324c-2.141-.002-3.064-.825-3.054-2.723.014-2.546 1.038-3.715 3.226-3.685 2.011.028 2.906 1.051 2.879 3.29-.026 2.196-.931 3.121-3.051 3.118zM705.815 100.949c0-1.429-.06-2.482.015-3.526.094-1.297.681-2.289 2.094-2.494 1.203-.175 2.663-.285 3.195.916.514 1.161.444 2.61.465 3.936.004.271-.702.739-1.124.797-1.429.192-2.877.242-4.645.371zM288.084 18.798c2.046.062 3.251 1.404 3.172 3.533-.06 1.632-1.058 2.369-3.146 2.327-2.225-.045-3.205-1.009-3.129-3.076.071-1.929 1.092-2.845 3.103-2.784zM23.474 288.066c.041 2.429-.562 3.253-2.387 3.261-2.334.01-3.491-1.001-3.512-3.069-.021-2.04.934-2.964 3.149-3.049 2.124-.081 2.71.528 2.75 2.857zM23.449 326.247c-.022 2.227-.946 3.213-2.989 3.187-1.955-.025-2.909-1.007-2.881-2.969.028-1.998 1.031-2.893 3.285-2.933 1.971-.035 2.605.631 2.585 2.715zM555.588 24.525c-2.229.039-2.73-.349-2.758-2.131-.037-2.42.917-3.564 2.996-3.591 2.049-.027 2.986.935 3.086 3.168.095 2.109-.419 2.504-3.324 2.554zM157.122 81.543c-1.3 0-2.389.124-3.437-.028-1.822-.264-2.536-1.291-2.398-3.13.13-1.725.936-2.376 3.077-2.482 1.839-.091 2.455.401 2.81 2.307.109.585.161 1.187.173 1.782.007.386-.106.773-.225 1.551zM612.448 43.423c-1.215.12-2.114-.169-2.168-1.689-.087-2.444 1.013-3.787 3.176-3.769 1.871.015 2.876.959 2.856 2.681-.021 1.861-1.195 2.714-3.864 2.777zM785.019 176.826c-1.788-.016-2.404-.585-2.445-2.259-.05-2.011.982-3.114 2.826-3.022 1.653.082 2.668 1.189 2.716 2.962.044 1.622-.912 2.338-3.097 2.319zM689.485 81.53c-1.738-.018-2.469-.692-2.42-2.231.061-1.912 1.169-3.033 2.931-2.966 1.601.061 2.514 1.057 2.465 2.686-.049 1.66-1.081 2.53-2.976 2.511zM823.107 285.752c1.875-.014 2.97.902 3.026 2.529.058 1.706-1.054 2.818-2.758 2.759-1.559-.055-2.377-.993-2.418-2.774-.041-1.756.598-2.502 2.15-2.514zM23.038 250.591c.08 1.948-.231 2.39-1.718 2.444-2.121.078-3.194-.633-3.287-2.177-.118-1.961.886-3.205 2.649-3.28 1.693-.071 2.259.652 2.356 3.013zM421.873 5.08c-2.256.02-2.662-.238-2.716-1.735-.074-2.027.803-2.941 2.789-2.906 1.974.035 2.976 1.002 2.972 2.869-.003 1.421-.566 1.749-3.045 1.772zM820.957 326.496c.015-1.758.684-2.557 2.147-2.566 1.794-.011 2.999 1.025 3.002 2.58.003 1.549-1.185 2.547-3.024 2.54-1.492-.005-2.14-.784-2.125-2.554zM42.069 193.8c-.05 1.572-.804 2.2-2.519 2.099-1.674-.099-2.409-.836-2.357-2.366.057-1.668 1.005-2.737 2.455-2.768 1.552-.032 2.482 1.133 2.421 3.035zM383.735 4.891c-1.799-.044-2.793-.923-2.712-2.399.076-1.38.983-2.062 2.703-2.031 1.758.032 2.695.878 2.693 2.433-.002 1.363-.913 2.041-2.684 1.997zM460.24 4.942c-1.898-.006-2.61-.542-2.646-1.99-.041-1.665.787-2.487 2.529-2.511 1.954-.027 2.868.805 2.805 2.554-.052 1.42-.787 1.953-2.688 1.947zM345.747 4.846c-1.569-.009-2.544-.896-2.51-2.285.033-1.316.892-2.062 2.368-2.055 1.501.007 2.327.899 2.283 2.465-.036 1.259-.748 1.883-2.141 1.875zM175.881 61.046c-.046.788-.815 1.214-1.973 1.166-1.559-.065-2.712-1.075-2.601-2.276.102-1.105 1.324-1.982 2.634-1.892 1.209.084 2.023 1.129 1.94 3.002zM498.389 4.815c-1.371-.056-2.083-.73-2.064-1.957.023-1.498.98-2.417 2.427-2.33 1.344.081 2.113.959 2.065 2.356-.044 1.29-.927 1.993-2.428 1.931zM821.464 248.234c3.093-.313 4.486.95 3.577 3.033-.276.632-1.266 1.174-2.016 1.325-1.014.204-1.657-.543-1.697-1.58-.033-.868.079-1.742.136-2.778zM806.007 194.024c-.382.264-.966.954-1.648 1.072-1.093.19-1.916-.853-1.897-2.119.014-.96.304-1.784 1.431-1.883 1.068-.094 2.091 1.106 2.114 2.93zM672.455 60.078c-.074 1.054-1.118 1.758-2.381 1.603-1.033-.127-1.636-.692-1.545-1.751.094-1.093.657-1.838 1.862-1.857 1.173-.018 2.139.936 2.064 2.005zM250.389 19.835c1.072.1 1.484.903 1.459 2.001-.025 1.095-.719 1.561-1.733 1.54-1.073-.022-1.935-.422-2.031-1.648-.082-1.06.955-1.951 2.305-1.893zM594.106 19.099c.772 1.229 1.462 1.87 1.56 2.592.145 1.059-.707 1.592-1.73 1.582-1.086-.011-1.776-.668-1.512-1.718.179-.712.86-1.298 1.682-2.456zM20.393 209.926c.77 1.097 1.433 1.642 1.471 2.227.029.451-.647 1.217-1.154 1.372-.865.265-1.635-.338-1.594-1.232.028-.611.616-1.198 1.277-2.367zM534.495 2.132c1.071-.644 1.762-1.379 2.226-1.257.574.151 1.243.962 1.358 1.583.166.89-.576 1.593-1.486 1.366-.618-.155-1.101-.855-2.098-1.692zM307.739 0c.566 1.319 1.014 1.947 1.08 2.614.093.942-.568 1.476-1.505 1.448-.934-.028-1.632-.603-1.377-1.523.2-.721.894-1.304 1.802-2.539zM3.4 307.575c-1.019.552-1.624 1.137-2.196 1.106-.424-.023-.804-.846-1.204-1.313.533-.443 1.017-1.114 1.618-1.243.358-.077.899.697 1.782 1.45zM194.758 40.54c-.87.711-1.346 1.276-1.948 1.496-.204.074-1.096-.81-1.028-1.107.15-.647.715-1.197 1.11-1.787l1.866 1.398zM1.048 270.628c-.325-.501-.851-.985-.894-1.508-.023-.286.886-.983 1.171-.887.508.17 1.09.747 1.209 1.255.104.445-.384 1.028-.611 1.55l-.875-.41zM79.289 116.995l-1.406 1.199c-.386-.461-.939-.878-1.08-1.405-.06-.223.735-.935 1.157-.95.373-.013.768.636 1.329 1.156zM98.559 97.571c-.715.628-1.113 1.175-1.631 1.338-.215.068-.973-.685-.969-1.06.004-.417.53-1.051.949-1.171.337-.097.853.433 1.651.893zM652.894 40.47c-.681.552-1.142 1.181-1.445 1.112-.44-.1-1.001-.668-1.067-1.103-.057-.378.501-.849.788-1.279l1.724 1.27zM825.241 212.867c-.785.319-1.347.765-1.728.644-.414-.132-.66-.791-.98-1.22.447-.273.938-.813 1.329-.748.429.071.766.699 1.379 1.324zM58.672 137.246c-.491-.593-1.068-1.082-.99-1.237.224-.441.681-.808 1.128-1.059.109-.061.801.505.76.662-.126.486-.476.913-.898 1.634zM.517 347.076c-.143-.454-.47-.948-.381-1.352.099-.45.512-.921.919-1.168.148-.09.983.467.961.672-.049.463-.436.891-.685 1.333l-.814.515zM767.678 116.815c-.557.383-.958.864-1.241.803-.361-.078-.827-.574-.866-.93-.029-.268.553-.851.848-.841.355.012.694.503 1.259.968zM844 307.112c-.457.499-.711.984-.928.968-.396-.03-.77-.357-1.153-.559.193-.301.359-.824.586-.853.384-.048.807.218 1.495.444zM747.175 98.926c-.36-.699-.775-1.138-.7-1.464.07-.304.643-.605 1.034-.669.169-.028.654.581.609.833-.067.375-.474.691-.943 1.3zM117.013 78.243c-.555.45-.856.785-1.231.935-.098.039-.617-.507-.599-.76.02-.288.386-.698.676-.775.238-.063.585.285 1.154.6zM39.558 153.824c.287.434.673.892.617.955-.265.297-.652.485-.995.712-.179-.284-.53-.596-.489-.843.043-.262.46-.461.867-.824zM212.619 20.972c-.4.373-.661.793-.876.771-.266-.027-.664-.405-.69-.662-.024-.248.32-.705.566-.755.226-.045.538.328 1 .646zM728.487 79.547c-.408-.536-.764-.799-.772-1.072-.008-.266.34-.543.532-.814.251.235.635.433.712.715.067.242-.216.581-.472 1.171zM786.19 135.782l-.826.38-.428-.928c.257-.075.559-.268.76-.192.199.075.295.421.494.74zM842.956 270.064l-.78-.497c.149-.213.272-.568.454-.601.214-.04.48.2.723.319l-.397.779zM135.889 59.213c-.469.364-.698.649-.98.718-.147.036-.567-.328-.549-.472.039-.31.281-.594.44-.889l1.089.643zM269.232 1.486c.043.252.124.486.098.709-.009.075-.286.12-.441.179-.075-.225-.173-.447-.204-.678-.004-.036.288-.113.547-.21zM1.835 231.07c-.329.255-.525.525-.728.53-.209.006-.426-.246-.639-.384.179-.181.336-.472.542-.512.198-.038.446.184.825.366zM842.864 346.173c-.096-.299-.222-.545-.234-.796-.006-.125.247-.388.297-.368.212.083.392.248.583.383l-.646.781zM805.027 155.126l-.458-.266.441-.558c.114.136.315.269.319.408.004.136-.192.277-.302.416zM575.222 2.474l-.347-.383.533-.402c.072.16.22.334.193.476-.024.123-.245.208-.379.309zM633.126 21.195l-.379.368c-.116-.139-.321-.277-.322-.416 0-.126.222-.253.347-.38l.354.428zM20.032 174.032l-.477-.228c.089-.15.154-.391.275-.425.13-.036.314.125.474.2l-.272.453zM709.501 59.147l-.206.11.009-.23zM751.835 333.045l2.963.778c-.376-2.745-.951-5.076-.942-7.405.009-2.24.621-4.478 1.03-7.112-1.056.234-1.887.386-2.699.605-5.401 1.453-10.154.403-13.876-3.887-3.828-4.412-4.003-9.432-1.738-14.579 2.274-5.166 8.772-8.111 14.611-6.798 1.241.279 2.467.626 3.939 1.002-.477-2.696-1.227-5.096-1.233-7.499-.006-2.325.755-4.652 1.26-7.42l-3.175.913c-5.792 1.651-11.438-.385-14.71-5.303-3.136-4.713-2.915-11.292.805-15.643 3.289-3.847 7.585-5.374 12.637-4.476 1.26.224 2.498.57 4.125.948-.384-2.487-.961-4.674-.995-6.87-.034-2.253.463-4.513.757-7.018-.677.057-1.361-.013-1.957.186-4.405 1.466-8.464.724-12.291-1.769-.248-.162-.514-.296-.784-.424s-.545-.248-.812-.381c.481.984.945 1.976 1.445 2.949 4.104 7.992-.106 16.898-8.878 18.771-7.007 1.496-14.107-3.909-15.084-11.483-.894-6.927 4.763-13.459 11.792-13.834 3.79-.202 7.047 1.009 10.128 3.001-.747-1.409-1.589-2.776-2.22-4.234-1.496-3.458-1.579-6.964-.083-10.47.332-.779.592-1.589 1.096-2.955-7.549 3.234-14.069 3.053-18.794-3.779-3.114-4.502-3.201-9.535-.298-14.128 4.162-6.584 10.419-7.365 17.762-4.969-.544-2.494-1.282-4.573-1.377-6.682-.096-2.132.447-4.293.742-6.707-2.427.199-4.68.631-6.897.493-2.144-.133-4.251-.855-6.863-1.424.348 1.077.65 1.956.916 2.846 2.488 8.308-2.93 16.466-11.384 17.149-5.223.422-10.249-2.546-12.608-7.446-2.35-4.882-1.524-10.221 2.125-14.165 3.96-4.281 8.663-5.43 14.15-3.504.727.255 1.471.464 2.466.775-.53-2.473-1.24-4.644-1.4-6.855-.161-2.236.224-4.512.386-7.031-2.536.194-4.898.656-7.208.471-2.208-.177-4.363-1.027-6.846-1.659.363 1.099.68 2.004.961 2.921 2.374 7.723-1.689 15.012-9.431 16.928-8.755 2.167-17.329-6.214-15.364-15.018 1.72-7.71 8.456-11.726 16.444-9.796 1.041.251 2.072.544 3.289.865-.535-2.559-1.28-4.825-1.414-7.127-.13-2.235.367-4.506.607-6.957-2.52.271-4.872.832-7.179.686-2.299-.145-4.554-1-7.086-1.605.355 1.069.68 1.98.961 2.903 2.353 7.726-1.736 15.002-9.488 16.896-8.619 2.106-17.139-6.083-15.377-14.78 1.589-7.846 8.455-12.013 16.543-10.033 1.031.252 2.049.556 3.302.899-.565-2.541-1.302-4.709-1.467-6.919-.16-2.146.267-4.336.463-6.847-2.353.149-4.597.527-6.801.364-2.243-.166-4.446-.865-7.099-1.421.329 1.173.636 2.171.889 3.183 1.964 7.846-2.144 14.78-9.776 16.519-5.255 1.198-10.7-1.317-13.752-6.35-2.765-4.559-2.259-10.514 1.233-14.516 3.928-4.502 8.887-5.843 14.607-3.959.73.24 1.473.44 2.427.723-.523-2.467-1.222-4.643-1.388-6.859-.161-2.151.224-4.342.391-6.842-2.183.299-4.3.869-6.395.797-2.149-.074-4.276-.776-6.847-1.291.184.982.217 1.831.505 2.583 2.063 5.378-1.075 11.944-5.57 14.907-4.462 2.941-10.609 2.572-15.179-.895-3.98-3.02-5.76-9.345-4.045-14.387.32-.941.674-1.871.973-2.819.044-.141-.125-.349-.31-.81-5.704 2.666-11.349 3.043-16.347-1.526-4.977-4.55-5.385-10.163-3.026-16.472-2.906.42-5.425 1.168-7.896 1.033-2.508-.137-4.969-1.144-7.725-1.839.248.796.414 1.526.697 2.209 3.23 7.798-.691 15.846-8.826 17.795-5.059 1.212-9.319-.514-12.581-4.409-3.374-4.029-4.054-8.662-1.842-13.45 2.087-4.518 5.675-7.112 10.8-7.282 2.425-.081 4.789.152 7.003 1.265.407.205.884.271 1.44.434-.7-2.506-1.634-4.745-1.883-7.058-.238-2.212.237-4.501.432-7.219-4.328 1.013-8.538 1.654-13.225-.799.3 1.882.402 2.913.634 3.914 1.304 5.622-.725 10.044-5.107 13.419-3.973 3.06-8.529 3.512-13.027 1.453-4.949-2.265-7.715-6.286-7.6-11.863.047-2.256.593-4.501.934-6.904-2.508.415-5.101 1.257-7.654 1.15-2.501-.105-4.961-1.177-7.833-1.927.331.967.561 1.77.876 2.538 3.158 7.709-.983 15.835-9.16 17.626-5.064 1.109-9.311-.689-12.499-4.645-3.298-4.092-3.878-8.737-1.588-13.484 2.109-4.371 5.651-7.056 10.642-6.993 2.816.035 5.623.754 8.501 1.175-.595-1.921-1.52-4.025-1.85-6.219-.332-2.209-.073-4.507-.073-7.073-1.874.189-3.911.577-5.94.546-1.965-.031-3.923-.494-5.996-.782-.765 1.039-.068 2.077.109 3.083 1.29 7.357-3.074 14.047-10.214 15.61-8.84 1.935-16.938-5.385-15.973-14.458.154-1.45.419-2.888.715-4.888-4.762 1.473-9.148 1.733-14.028-.524.339 1.671.465 2.705.762 3.687 1.864 6.164-2.216 13.138-7.892 15.401-6.16 2.456-12.943.037-16.268-5.801-1.728-3.035-1.843-6.262-1.142-9.581.218-1.035.485-2.061.777-3.291-2.693.372-5.024.972-7.346.938-2.344-.035-4.679-.699-7.445-1.158.222.935.312 1.77.616 2.517 2.366 5.829-1.054 12.341-5.352 15.225-4.52 3.033-11.005 2.78-15.383-1.01-4.008-3.469-5.365-8.042-4.216-13.272.192-.873.467-1.728.662-2.6.034-.153-.135-.351-.242-.604-2.309.325-4.639.904-6.971.908-2.245.004-4.49-.588-7.19-.985.248 1.275.432 2.398.689 3.505 1.525 6.58-2.272 13.366-8.677 15.48-6.371 2.103-13.23-.901-16.018-7.044-1.292-2.848-1.283-5.805-.601-8.797.216-.949.448-1.895.758-3.199-2.638.553-4.913 1.354-7.209 1.419-2.214.062-4.45-.636-7.136-1.075.315 1.375.564 2.395.78 3.421 1.362 6.475-2.443 13.523-8.576 15.301-7.367 2.136-13.383-.673-16.515-7.159-1.227-2.541-1.019-5.248-.754-7.941.096-.977.29-1.945.502-3.325-2.352.373-4.437.927-6.534.973-2.048.045-4.107-.429-6.211-.681 0 2.424.208 4.696-.058 6.912-.268 2.227-1.009 4.397-1.609 6.862.786-.205 1.408-.4 2.043-.526 1.843-.364 3.684-.936 5.54-1.003 6.742-.241 10.8 3.678 12.389 9.587 1.608 5.98-1.219 11.721-6.803 14.508-4.683 2.337-9.19 1.77-13.233-1.346-4.223-3.255-5.981-7.649-4.814-12.966.354-1.612 1.03-3.154 1.579-4.787-2.74.703-5.292 1.806-7.878 1.893-2.574.086-5.182-.849-8.199-1.416 3.113 7.32 2.038 13.607-4.503 18.108-4.183 2.878-8.936 3.04-13.34.406-6.974-4.172-7.811-10.518-5.256-17.96-2.648.569-4.839 1.338-7.058 1.431-2.141.09-4.311-.517-6.727-.854.123 2.543.55 5.009.271 7.392-.28 2.391-1.263 4.701-2.026 7.353 4.171-2.209 8.403-3.006 12.799-1.504 2.67.913 4.513 2.951 6.008 5.215 3.093 4.682 2.391 11.161-1.541 15.55-3.498 3.905-9.586 4.997-14.581 2.674-3.706-1.723-5.805-4.692-7.038-8.481-1.234-3.794.229-7.184 1.798-10.713-3.036.775-5.592 1.868-8.185 1.964-2.498.092-5.034-.845-7.98-1.413.316.998.604 1.888.88 2.781 2.907 9.398-3.973 18.078-13.759 17.362-6.432-.471-11.399-5.438-11.688-11.903-.101-2.255.241-4.53.399-7.079-2.126.356-4.127.881-6.148.976-1.962.092-3.944-.257-6.208-.435.135 2.159.459 4.208.333 6.228-.122 1.953-.707 3.877-1.1 5.876 1.45.781 2.646-.067 3.847-.285 5.212-.945 9.585.646 12.821 4.681 3.273 4.082 3.641 8.799 1.512 13.551-2.659 5.934-9.534 8.929-15.508 6.934-6.539-2.184-10.349-8.782-8.855-15.354.256-1.127.555-2.244 1.001-4.037-4.772 1.864-9.144 2.078-14.141.593 1.603 5.132 1.478 9.601-1.211 14.289 1.312-.239 1.935-.363 2.562-.466 1.856-.306 3.709-.822 5.572-.862 4.923-.107 8.788 2.003 11.003 6.418 2.256 4.497 2.107 9.102-.692 13.389-3.395 5.2-10.292 7.076-15.881 4.451-5.889-2.765-8.906-9.449-6.987-15.49.324-1.02.668-2.034 1.121-3.412-2.676.63-4.928 1.473-7.222 1.613-2.332.143-4.706-.406-7.223-.669-.035.369-.172.764-.09 1.107.972 4.088 1.089 8.097-.923 11.958-.161.309-.11.728-.212 1.506 4.73-1.94 9.279-2.701 13.775-.397 2.683 1.375 4.436 3.658 5.637 6.391 2.134 4.855.716 11.167-3.271 14.502-4.688 3.922-10.738 4.329-15.545 1.046-5.691-3.886-6.863-9.284-3.872-18.256-2.507.685-4.898 1.726-7.349 1.897-2.409.169-4.88-.545-7.569-.905.247 2.338.803 4.755.668 7.132-.138 2.431-.953 4.823-1.508 7.4.988.434 1.771-.42 2.66-.67 4.653-1.303 9.088-1.227 13.018 2.048 4.755 3.963 5.968 11.325 2.738 16.588-3.324 5.414-10.098 7.548-15.973 5.033-5.784-2.477-8.973-9.008-7.307-15.075.389-1.419.971-2.785 1.536-4.379-2.57.731-4.888 1.771-7.275 1.963-2.403.193-4.874-.456-7.584-.767.32 2.45.961 4.787.829 7.08-.134 2.325-1.033 4.606-1.688 7.279.949-.268 1.749-.508 2.556-.718 3.677-.954 7.356-1.114 10.816.661 4.883 2.504 6.936 6.696 6.651 12.078-.287 5.427-2.98 9.215-8.037 11.212-4.931 1.947-9.398 1.133-13.291-2.535-4.04-3.806-5.242-8.333-3.51-13.623.248-.756.464-1.524.653-2.296.037-.154-.119-.354-.212-.603-2.182.524-4.355 1.348-6.572 1.493-2.229.146-4.502-.384-7.258-.67 1.238 4.606 1.345 8.981-.948 13.815 1.68-.417 2.601-.627 3.511-.873 6.344-1.715 12.625 1.008 15.412 6.69 2.84 5.79 1.147 12.67-4.208 16.522-3.781 2.719-7.928 3.053-12.241 1.334-.999-.398-1.972-.86-3.587-1.569.532 1.348.796 2.138 1.148 2.888 2.539 5.411 1.547 10.387-2.19 14.771-3.647 4.279-8.533 4.762-13.724 3.683-.859-.179-1.69-.497-2.95-.876.514 2.688 1.335 5.05 1.314 7.406-.022 2.411-.868 4.814-1.424 7.572 1.484-.417 2.775-.819 4.085-1.14 4.979-1.22 10.543.868 13.511 5.043 3.137 4.412 3.281 10.016.374 14.65-2.802 4.468-7.718 6.792-12.822 5.888-1.741-.308-3.415-1-5.603-1.664.539 1.949 1.166 3.571 1.402 5.247.234 1.66.262 3.402.034 5.061-.237 1.726-.888 3.396-1.471 5.499 1.574-.473 2.767-.874 3.981-1.19 6.443-1.678 12.846 1.321 15.423 7.202 2.639 6.022.458 12.945-5.266 16.456-3.338 2.048-6.923 2.433-10.654 1.186-1.015-.339-2.012-.73-3.699-1.346 2.289 5.513 2.63 10.531.113 15.531 1.349.618 2.18-.155 3.052-.451 8.346-2.83 16.275 1.932 17.589 10.637.161 1.066.14 2.409-.035 3.473-.153.935-.364 1.387-.685 2.387h14.666c-.367-1-.607-1.517-.781-2.507-1.134-6.443 3.962-13.112 10.498-13.613 4.155-.318 7.86.377 10.819 3.737 2.751 3.125 3.412 6.842 2.813 10.75-.09.587-.225 1.633-.421 1.633h16.294c-.285-1-.456-1.416-.569-2.326-.972-7.877 4.601-13.833 12.433-13.159 5.893.507 10.758 6.61 10.09 12.49-.144 1.269-.403 1.994-.863 2.994h18.241c-.3 0-.521-1.275-.704-2.043-1.311-5.502 2.759-11.504 8.517-12.448 6.06-.993 11.689 3.21 12.082 9.086.027.398.032.979.031 1.377-.006 1.817-.189 3.028-.729 4.028h20.178c-.567-1-.774-2.236-.786-4.021-.039-5.558 4.443-9.983 9.924-9.671 5.451.31 9.588 5.295 9.037 10.706-.125 1.226-.417 1.986-.931 2.986h22.244c-.311 0-.551-1.165-.729-1.775-1.001-3.444.282-7.263 3.253-9.287 2.982-2.031 7.268-2.055 10.095.013 2.796 2.045 4.04 6.215 2.957 9.507-.173.526-.4 1.542-.684 1.542h24.714c-.448-1-.768-1.484-1.005-2.423-.767-3.041.629-6.298 3.499-8.002 2.537-1.507 6.697-1.22 8.701.657 2.279 2.135 3.009 6.371 1.624 9.017-.109.208-.233.751-.364.751h27.197c-.645-1-1.03-1.828-1.224-3.091-.503-3.266 1.365-6.28 4.572-7.226 2.53-.747 5.377.376 6.978 2.827 1.375 2.105 1.232 5.262-.283 7.208l-.086.282h29.523c-1.106-1-1.758-2.651-1.694-4.297.116-2.965 2.447-5.23 5.524-5.225 3.335.005 5.47 2.266 5.474 5.552.002 1.623-.501 2.969-1.421 3.969h30.489c-1.094-1-1.744-2.621-1.695-4.251.089-2.965 2.41-5.258 5.478-5.272 3.34-.015 5.483 2.22 5.516 5.509.017 1.641-.484 3.013-1.416 4.013h29.32c-.554-1-.923-1.557-1.155-2.552-.698-2.993.678-6.066 3.378-7.392 2.682-1.318 6.113-.657 7.858 1.664 1.116 1.483 1.668 3.369 1.384 5.246-.188 1.241-.586 2.035-1.248 3.035h26.75c-.367 0-.637-1.309-.834-2.1-.762-3.057-.029-5.883 2.397-7.909 2.32-1.938 5.019-2.382 7.818-1.08 2.845 1.323 4.517 3.757 4.682 6.906.09 1.71-.392 3.183-1.333 4.183h24.546c-.285 0-.516-1.049-.702-1.569-1.687-4.717 1.844-10.442 6.838-10.937 6.62-.656 10.979 4.058 9.734 10.333-.168.849-.405 1.173-.751 2.173h22.088c-.262 0-.477-1.004-.644-1.506-1.181-3.55.338-8.205 3.524-10.441 3.449-2.421 8.277-2.479 11.496-.068 3.369 2.523 4.829 7.192 3.516 10.798-.143.393-.318 1.217-.524 1.217h19.893c-.573-1-.779-2.257-.786-4.063-.022-5.82 4.552-10.662 10.309-10.783 5.654-.119 10.893 4.991 11.039 10.594.048 1.862-.274 3.253-1.039 4.253h17.894c-.285 0-.495-1.305-.678-2.11-1.033-4.539 1.659-10.371 6.098-12.332 4.155-1.835 8.371-1.823 12.217.949 3.558 2.565 4.891 6.356 4.544 10.626-.097 1.188-.311 1.867-.714 2.867h16.063c-.343-1-.554-1.511-.693-2.5-.915-6.517 3.305-12.357 10.083-13.809 6.101-1.307 12.399 2.504 13.989 8.672.414 1.604.589 3.53.458 5.177-.079.991-.253 1.46-.566 2.46h14.33c-.26 0-.428-1.302-.547-2.108-1.411-9.68 7.044-17.364 16.565-14.848zm-23.054-57.379c7.209-.036 12.793 5.468 12.935 12.504.127 6.32-5.79 13.149-12.804 12.593-6.532.466-12.574-5.503-12.54-12.463.036-7.142 5.364-12.599 12.409-12.634zm-6.723-6.524c-.024 7.253-7.011 12.469-12.157 12.386-6.749-.108-12.484-5.707-12.396-12.438.077-5.916 4.281-12.363 12.485-12.015 6.22-.742 12.09 5.607 12.068 12.067zm-480.42-95.757c-.068 5.862-5.498 11.774-11.573 11.196-6.638-.076-11.135-4.707-11.097-11.426.038-6.734 4.853-11.294 11.639-11.279 6.722.015 11.089 6.479 11.031 11.509zm-3.923-19.377c.072-5.501 4.511-11.678 11.818-11.296 6.515.019 11.351 4.858 11.319 11.373-.031 6.561-4.672 11.376-11.55 11.688-6.028.273-11.668-5.602-11.587-11.765zm-15.27 38.41c.011 4.807-4.214 11.615-11.537 11.314-6.523.002-11.176-4.801-11.125-11.483.051-6.611 4.771-11.224 11.442-11.182 6.021.038 11.205 5.31 11.22 11.351zm-19.106 19.337c-.274 6.341-5.15 11.361-11.483 11.43-6.122.067-11.658-5.519-11.603-11.705.057-6.293 5.184-11.299 11.541-11.268 6.077-.383 11.802 5.599 11.545 11.543zm-.609 38.139c.129 6.961-6.406 11.117-10.713 11.184-6.122.095-11.296-5.058-11.271-11.234.026-6.244 4.706-10.726 11.195-10.72 6.247.006 10.674 4.536 10.789 10.77zm-18.589-19.047c-.045 6.577-5.34 11.836-11.787 11.703-5.959-.122-11.518-5.973-11.471-11.979.037-4.816 4.556-11.66 11.876-11.275 6.816.358 11.428 4.779 11.382 11.551zm-18.731 19.239c-.12 5.798-5.647 12.138-11.98 11.71-6.778-.074-11.838-5.252-11.774-12.046.063-6.725 5.365-11.874 12.091-11.743 6.224.122 11.791 5.898 11.663 12.079zm-19.053 19.321c-.049 6.457-5.756 12.319-12.089 11.98-7.54-.403-12.103-5.331-12.199-12.537-.07-5.241 3.811-11.992 12.45-11.762 6.898.041 11.892 5.239 11.838 12.319zm7.225 7.281c6.868.279 11.5 4.996 11.374 11.915.247 6.371-5.698 11.638-11.679 11.464-6.537-.191-11.661-5.548-11.581-12.03.063-4.991 4.663-11.643 11.886-11.349zm7.845-7.661c.105-6.5 4.829-11.307 11.093-11.288 6.361.019 11.531 5.146 11.476 11.382-.055 6.245-5.249 11.298-11.571 11.256-6.233-.04-11.1-5.063-10.998-11.35zm30.357 8.453c6.024-.055 10.888 4.759 10.869 10.757-.019 6.049-4.746 10.694-10.898 10.71-6.079.016-10.498-4.404-10.558-10.56-.061-6.248 4.406-10.851 10.587-10.907zm8.761-8.231c-.044-5.574 4.77-10.707 10.461-10.364 6.02-.043 10.212 4.034 10.283 9.998.069 5.836-4.538 10.714-10.159 10.756-5.674.044-10.54-4.688-10.585-10.39zm10.499-27.794c-6.001.055-10.424-4.514-10.712-10.56-.282-5.914 5.095-10.96 10.398-10.911 6.156.056 11.029 4.603 11.105 10.609.078 6.059-4.637 10.805-10.791 10.862zm8.553-30.137c.102-5.784 4.833-10.447 10.564-10.409 5.675.038 10.807 5.118 10.784 10.677-.024 5.939-4.982 10.737-11.024 10.669-5.776-.064-10.429-4.994-10.324-10.937zm19.185-19.141c.092-5.787 4.818-10.463 10.542-10.43 5.681.033 10.984 5.1 10.763 10.653-.277 6.926-5.292 10.652-10.959 10.692-5.776-.053-10.441-4.974-10.346-10.915zm19.158-18.918c-.009-6.106 4.525-10.748 10.491-10.738 6.149.01 10.972 4.73 10.961 10.727-.011 6.068-4.758 10.72-10.936 10.72-5.964.001-10.506-4.625-10.516-10.709zm18.736-19.332c.096-6.166 4.877-10.657 11.299-10.616 6.205.04 10.694 4.609 10.655 10.844.198 6.394-5.639 11.021-11.053 11.055-5.788.037-10.994-5.397-10.901-11.283zm19.023-19.128c-.099-5.593 5.168-11.373 11.344-11.171 6.138.011 11.269 5.167 11.249 11.304-.019 6.121-5.18 11.289-11.274 11.29-6.499.001-11.203-4.894-11.319-11.423zm11.265 28.324c5.583.085 10.169 4.605 10.201 10.054.034 5.804-4.618 10.278-10.595 10.191-5.637-.083-9.681-4.267-9.65-9.984.034-6.092 4.202-10.351 10.044-10.261zm8.608-8.982c-.044-5.762 4.683-10.559 10.419-10.512 5.973.049 10.771 4.69 10.438 10.358.475 5.875-5.133 10.833-10.123 10.773-5.886-.071-10.689-4.734-10.734-10.619zm18.763-19.385c.114-6.16 4.775-10.65 10.999-10.597 6.352.054 10.877 4.737 10.875 11.009-.002 6.391-5.937 10.913-10.967 10.822-6.056-.108-11.018-5.252-10.907-11.234zm18.93-18.832c-.051-6.806 4.612-11.424 11.381-11.537 6.892-.116 11.22 6.319 11.29 11.251.085 6.091-5.534 11.73-11.317 11.515-6.689-.249-11.304-4.581-11.354-11.229zm11.162 28.034c5.593.04 10.212 4.511 10.294 9.962.087 5.806-4.538 10.336-10.5 10.286-5.651-.047-9.743-4.2-9.745-9.892-.003-6.094 4.132-10.397 9.951-10.356zm8.651-9.136c.035-5.873 4.602-10.564 10.339-10.622 6.052-.06 10.994 4.733 11.016 10.686.022 5.891-4.744 10.712-10.616 10.739-6.229.03-10.777-4.545-10.739-10.803zm18.549-19.302c-.047-5.53 5.218-11.245 11.459-11.074 6.14.168 11.231 5.319 11.133 11.439-.098 6.137-5.286 11.227-11.39 11.175-6.484-.056-11.146-5.003-11.202-11.54zm30.133 8.74c5.646-.12 11.051 4.819 10.993 10.419-.066 6.385-4.555 10.736-10.721 10.925-5.796.065-10.578-4.762-10.58-10.68-.003-5.824 4.558-10.542 10.308-10.664zm8.262-8.394c.048-6.521 4.697-11.37 10.955-11.427 6.358-.057 11.572 4.988 11.616 11.241.044 6.22-5.134 11.382-11.431 11.397-6.259.013-11.186-4.946-11.14-11.211zm30.189 8.333c6.051-.033 10.99 4.803 10.967 10.739-.022 5.906-4.793 10.684-10.671 10.688-6.106.004-10.616-4.45-10.688-10.557-.071-6.02 4.535-10.838 10.392-10.87zm8.167-8.421c-.001-6.765 4.748-11.35 11.528-11.391 6.801-.042 11.146 6.419 11.145 11.398-.001 5.952-5.517 11.857-11.463 11.308-6.661-.039-11.209-4.63-11.21-11.315zm11.29 28.183c5.597.102 10.156 4.626 10.166 10.088.011 5.806-4.648 10.258-10.629 10.156-5.627-.096-9.659-4.297-9.615-10.018.046-6.082 4.235-10.333 10.078-10.226zm8.048-9.175c.081-6.164 4.859-10.672 11.276-10.638 6.211.033 10.614 4.589 10.704 10.821.092 6.405-5.643 11.03-11.056 11.079-5.787.052-11.002-5.37-10.924-11.262zm30.141 8.719c5.827.026 10.719 4.948 10.636 10.701-.083 5.705-4.949 10.592-10.489 10.532-5.884-.063-10.615-4.862-10.579-10.731.035-5.815 4.716-10.528 10.432-10.502zm8.08-8.837c.079-6.305 5.035-11.172 11.267-11.066 6.305.107 11.479 5.344 11.389 11.484-.07 4.777-4.274 11.512-11.657 11.156-6.485-.05-11.083-4.888-10.999-11.574zm11.128 28.433c5.705-.079 10.333 4.464 10.328 10.137-.005 5.812-4.36 10.109-10.273 10.135-5.833.025-9.924-4.051-9.985-9.949-.064-6.106 3.913-10.24 9.93-10.323zm8.137-8.966c-.046-6.176 4.673-10.779 11.097-10.826 5.896-.581 11.117 5.322 11.034 10.575-.094 5.978-4.146 11.136-11.039 11.387-5.802.212-11.048-5.182-11.092-11.136zm30.574 8.365c5.905.05 10.569 4.764 10.588 10.699.018 6.039-4.732 10.8-10.757 10.783-7.002.051-10.836-4.929-10.88-10.905-.043-5.89 5.026-10.628 11.049-10.577zm95.53 80.125c-6.302-.057-11.641-5.382-11.621-11.697.022-6.661 5.185-12.002 11.666-11.959 7.276.048 12.008 5.874 11.617 11.814.383 7.655-6.573 11.888-11.662 11.842zm19.532-4.666c6.482.028 11.763 5.302 11.833 11.817.073 6.8-5.219 12.039-12.165 12.042-6.569.003-11.637-5.097-11.685-11.759-.05-6.932 5.113-12.13 12.017-12.1zm-38.561.861c6.79.14 10.965 4.777 10.905 10.954.036 6.394-4.508 11.27-10.602 11.375-6.026.104-11.344-5.045-11.455-11.089-.112-6.118 4.949-11.368 11.152-11.24zm-19.233 2.932c-5.875.008-10.906-4.925-10.901-10.89.004-5.027 3.931-11.006 10.796-10.89 6.188-.017 10.942 4.548 11.024 10.585.082 6.012-4.965 11.187-10.919 11.195zm19.121-18.491c-6.035.252-11.658-5.639-11.556-11.797.09-5.473 4.502-11.534 11.852-11.301 6.502.206 11.315 4.922 11.291 11.441-.072 6.604-4.758 11.371-11.587 11.657zm-7.602-30.805c-.03 6.476-5.194 11.625-11.605 11.57-6.033-.051-11.4-5.484-11.435-11.575-.036-6.276 5.074-11.223 11.401-11.449 6.237-.222 12.036 5.666 11.639 11.454zm-30.604-7.575c-6.28.212-11.634-5.3-11.629-11.586.005-6.382 4.975-11.381 11.346-11.411 6.794-.032 11.676 4.66 11.701 11.268.026 6.583-4.703 11.502-11.418 11.729zm-19.174-18.983c-6.041.104-11.834-5.782-11.822-11.926.009-4.978 4.717-11.801 11.522-11.269 7.059-.021 11.765 4.565 11.737 11.44-.027 6.486-5.046 11.646-11.437 11.755zm-.288 15.759c6.152.084 11.013 4.671 11.048 10.666.035 6.072-4.685 10.773-10.849 10.807-5.992.033-10.383-4.556-10.655-10.619-.261-5.818 5.066-10.927 10.456-10.854zm19.374 19.192c6.149.064 10.933 4.834 10.859 10.826-.074 6.072-4.842 10.658-11.038 10.618-5.951-.039-10.438-4.697-10.414-10.81.024-6.083 4.62-10.696 10.593-10.634zm.138 38.926c5.709.126 10.303 4.86 10.119 10.427-.188 5.69-4.797 9.932-10.666 9.815-5.73-.114-9.742-4.457-9.57-10.359.172-5.892 4.387-10.009 10.117-9.883zm-.071 38.597c5.736.074 9.681 4.098 9.673 9.866-.008 5.66-4.173 10.011-9.608 10.036-5.407.025-10.086-4.691-10.05-10.132.036-5.399 4.574-9.84 9.985-9.77zm8.601-9.211c-.069-5.763 4.636-10.579 10.376-10.556 6.01.025 10.801 4.693 10.481 10.315.503 5.911-5.133 10.855-10.079 10.816-5.875-.045-10.708-4.698-10.778-10.575zm29.485 8.299c6.4-.058 11.026 4.495 11.154 10.731.133 6.518-5.704 11.017-10.69 11.102-5.991.102-11.248-4.921-11.142-10.956.117-6.716 4.693-10.833 10.678-10.877zm8.208-8.414c.011-6.756 4.786-11.344 11.561-11.356 6.837-.011 11.133 6.478 11.111 11.43-.026 5.937-5.515 11.831-11.497 11.273-6.654-.049-11.185-4.651-11.175-11.347zm30.295 7.316c6.414-.012 11.876 5.325 11.974 11.701.096 6.264-5.423 11.986-11.628 12.056-6.648.075-11.998-5.203-12.023-11.861-.025-6.566 5.196-11.884 11.677-11.896zm31.928-45.446c-.135 6.899-5.8 12.352-12.814 12.336-7.169-.017-12.265-5.277-12.233-12.627-.507-7.176 6.78-12.52 12.306-12.437 7.107.108 12.877 5.778 12.741 12.728zm-19.703-19.353c-.003 7.138-5.169 12.433-12.177 12.482-6.568.046-12.277-5.61-12.304-12.189-.029-7.087 5.413-12.551 12.484-12.613 6.069-.052 12.505 5.508 11.997 12.32zm-31.082-31.131c6.906-.393 12.197 6.175 11.937 12.223-.285 6.63-5.771 12.417-12.307 12.118-7.229-.331-12.188-5.642-12.098-12.649.081-6.437 5.154-12.121 12.468-11.692zm-19.117-19.174c6.887.134 11.879 5.28 11.813 12.361-.06 6.452-5.789 12.31-12.115 11.955-7.569-.424-12.103-5.388-12.172-12.562-.051-5.308 3.872-11.921 12.474-11.754zm-7.361-7.274c.03 6.82-5.556 12.735-12.218 12.462-6.938-.284-11.974-5.152-12.148-12.306-.155-6.362 4.922-12.026 12.128-12.123 7.657-.102 12.628 6.672 12.238 11.967zm-31.241-31.391c6.11-.087 12.546 5.501 12.059 12.259.018 7.161-5.099 12.457-12.116 12.542-6.571.079-12.304-5.543-12.364-12.127-.065-7.085 5.347-12.573 12.421-12.674zm-19.276-19.38c6.997.154 12.648 5.632 12.667 12.502.018 6.87-5.608 12.483-12.588 12.559-7.208.078-12.413-5.102-12.458-12.399-.595-7.479 6.87-12.783 12.379-12.662zm-19.039 19.853c6.462.139 11.805 5.556 11.752 11.915-.052 6.309-5.621 11.871-11.85 11.836-6.638-.037-11.883-5.407-11.801-12.083.08-6.547 5.444-11.807 11.899-11.668zm-19.519-19.267c7.064-.033 12.292 5.029 12.304 11.917.013 6.757-5.388 12.206-12.151 12.26-6.253.05-12.107-5.755-12.079-12.105.028-6.377 5.432-12.398 11.926-12.072zm-18.763-19.651c7.438.277 12.159 5.763 12.315 12.495.157 6.781-5.616 12.43-12.335 12.449-6.963.02-12.568-5.559-12.569-12.511 0-6.954 5.646-12.691 12.589-12.433zm-19.333 20.073c6.878.24 11.557 4.932 11.461 11.832.27 6.479-5.695 11.674-11.595 11.552-6.536-.136-11.687-5.45-11.667-11.948.015-5.012 4.63-11.686 11.801-11.436zm-19.264-19.596c6.937-.045 12.14 5.115 12.111 12.012-.028 6.667-5.503 12.36-12.127 12.249-6.419-.108-11.935-4.93-12.183-12.264-.229-6.769 5.202-11.952 12.199-11.997zm-19.033-19.732c6.985.007 12.549 5.605 12.51 12.587-.039 6.976-5.627 12.509-12.606 12.484-7.412-.027-12.513-5.244-12.448-12.731.064-7.297 5.199-12.347 12.544-12.34zm-7.278 31.721c-.023 6.812-5.341 11.955-12.306 11.9-6.545-.052-11.543-5.203-11.544-11.898-.001-6.785 5.083-11.911 11.859-11.959 6.606-.047 12.013 5.344 11.991 11.957zm-31.158-31.671c6.707-.023 12.581 5.639 12.459 12.371-.134 7.42-5.791 12.687-12.501 12.63-6.555.048-12.328-5.557-12.421-12.059-.104-7.225 5.378-12.918 12.463-12.942zm-19.009 19.76c6.235.084 11.932 5.847 11.699 12.043-.209 5.553-4.153 11.789-11.862 11.751-6.798-.032-11.899-5.185-11.865-11.986.033-6.812 5.216-11.9 12.028-11.808zm-19.127-19.76c6.723.124 12.514 5.929 12.227 12.604-.327 7.594-6.136 12.565-12.738 12.398-6.536-.047-12.18-5.741-12.188-12.295-.009-7.183 5.642-12.837 12.699-12.707zm-19.562 19.734c6.539.036 12.288 5.576 12.073 11.954-.217 6.445-4.737 11.901-12.032 11.882-6.536.024-11.711-5.139-11.776-11.748-.066-6.8 5.104-12.125 11.735-12.088zm-18.743-19.782c6.826.108 12.439 5.979 12.27 12.832-.172 6.957-5.798 12.33-12.809 12.233-7.342-.102-12.363-5.393-12.238-12.894.117-7.024 5.639-12.284 12.777-12.171zm-19.783 19.691c7.072.174 12.271 5.006 12.319 11.897.046 6.708-5.453 12.384-12.005 12.39-6.586.006-12.156-5.571-12.253-12.205-.091-6.197 5.604-12.237 11.939-12.082zm-18.952 19.792c7.729-.351 11.678 6.214 11.554 11.365-.161 6.685-5.158 12.013-11.698 11.8-6.479-.212-11.335-5.215-11.579-11.791-.182-4.889 4.544-11.992 11.723-11.374zm-19.005-20.201c6.663.028 12.239 5.646 12.188 12.558-.05 6.718-4.983 11.966-12.405 12.332-6.652.065-12.301-5.606-12.346-12.396-.046-6.89 5.617-12.522 12.563-12.494zm-31.235 31.205c.362-6.595 5.334-11.644 11.93-11.579 6.901.068 12.023 5.281 12.005 12.22-.017 6.596-5.393 11.745-12.184 11.669-6.162.399-12.128-5.439-11.751-12.31zm-7.524 7.764c6.651-.092 11.714 4.967 11.725 11.715.413 7.818-6.592 11.951-11.555 11.949-6.306-.003-11.694-5.274-11.729-11.588-.036-6.67 5.052-11.987 11.559-12.076zm-18.854-19.878c6.709.015 12.564 5.716 12.399 12.432-.183 7.473-5.89 12.659-12.563 12.57-6.551.023-12.293-5.607-12.361-12.12-.075-7.221 5.444-12.897 12.525-12.882zm-19.067 19.676c6.88-.473 12.018 6.179 11.981 12.164-.043 6.879-6.466 12.384-12.536 12.23-6.503-.165-12.147-5.938-11.998-12.496.138-6.068 4.494-12.297 12.553-11.898zm-19.402 19.169c6.812-.027 11.969 5.003 12.061 11.764.093 6.798-5.451 12.654-12.177 12.497-6.621-.154-11.948-5.203-12.134-12.314-.178-6.79 5.236-11.919 12.25-11.947zm-19.393 19.172c7.07-.017 12.248 5.008 12.266 11.901.017 6.708-5.517 12.371-12.057 12.338-6.593-.033-12.138-5.637-12.2-12.258-.058-6.161 5.61-12.385 11.991-11.981zm-18.836 19.154c6.783.026 11.895 5.134 11.919 11.907.023 6.787-5.635 12.628-12.319 12.353-7.012-.289-11.97-5.739-11.972-12.454-.002-5.195 3.765-11.997 12.372-11.806zm-19.195 19.059c7.008-.039 12.501 6.327 11.955 12.177.462 6.941-6.302 12.416-12.343 12.316-6.494-.107-12.175-5.842-12.082-12.416.087-6.065 4.452-12.032 12.47-12.077zm-19.125 18.789c7.449.289 12.152 5.788 12.299 12.512.148 6.781-5.631 12.421-12.351 12.433-6.963.012-12.56-5.573-12.552-12.527.007-6.953 5.665-12.687 12.604-12.418zm-32.168 31.656c-.047-6.936 5.532-12.559 12.505-12.604 7.21-.046 12.902 5.434 12.942 12.461.04 6.965-5.662 12.785-12.648 12.91-6.795.122-12.752-5.821-12.799-12.767zm.351 38.385c-.586-7.426 6.762-12.634 12.09-12.648 7.105-.02 12.945 5.527 12.957 12.509.012 6.872-5.617 12.478-12.598 12.549-7.208.074-12.407-5.109-12.449-12.41zm12.307 50.75c-7.377-.077-12.425-5.355-12.309-12.87.112-7.26 5.328-12.278 12.682-12.201 6.976.073 12.495 5.749 12.371 12.724-.124 6.986-5.734 12.421-12.744 12.347zm7.067-31.74c-.159-6.796 5.254-11.904 12.274-11.923 6.808-.019 11.956 5.023 12.037 11.788.081 6.797-5.483 12.652-12.201 12.474-6.686-.178-11.945-5.288-12.11-12.339zm31.301 31.089c-6.418.019-11.697-5.379-11.676-11.939.021-6.593 5.161-11.697 11.842-11.76 6.323-.059 11.88 5.545 11.802 11.902-.078 6.368-5.567 11.778-11.968 11.797zm19.513-19.743c-6.495.065-11.287-4.77-11.432-11.271-.154-6.918 6.292-11.275 11.221-11.324 5.966-.06 11.306 5.189 11.357 11.205.051 6.093-5.073 11.33-11.146 11.39zm18.995 18.879c-5.974.055-11.163-5.104-10.961-11.122.18-5.366 4.368-10.84 11.029-10.67 6.158.157 10.825 4.771 10.788 10.834-.036 5.885-5.009 10.904-10.856 10.958zm19.213-19.698c-5.425-.061-10.376-4.934-10.404-10.363-.025-5.058 4.19-10.547 10.206-10.281 6.148-.016 10.48 4.243 10.427 10.253-.049 5.635-4.79 10.451-10.229 10.391zm19.283 18.732c-5.402.061-10.105-4.638-10.094-10.086.011-5.396 4.524-9.853 9.941-9.82 5.713.035 9.711 4.079 9.717 9.828.006 5.675-4.114 10.016-9.564 10.078zm9.575-48.297c-.208 5.568-4.524 9.987-9.956 9.858-5.036-.12-9.691-4.966-9.636-10.032.058-5.395 4.365-9.515 9.895-9.468 5.801-.378 9.858 5.325 9.697 9.642zm-9.635-28.3c-5.757.01-10.042-4.23-10.084-9.979-.043-5.85 4.356-10.258 10.198-10.22 5.24.034 9.908 4.733 9.955 10.021.049 5.416-4.652 10.168-10.069 10.178zm18.969 56.822c-4.907-.04-9.273-4.5-9.214-9.491.063-5.294 3.93-8.93 9.493-8.924 5.283.005 8.827 3.712 8.971 9.03.15 5.559-5.028 9.42-9.25 9.385zm.447-38.307c-5.233.151-9.565-4.008-9.668-9.282-.103-5.236 4.108-9.555 9.358-9.597 4.947-.04 9.371 4.309 9.448 9.289.078 4.971-4.188 9.448-9.138 9.59zm-.461-37.756c-5.198.004-9.813-4.797-9.811-10.124.002-4.99 4.265-9.847 10.176-9.478 5.713.028 9.51 3.907 9.464 9.668-.044 5.7-4.231 9.93-9.829 9.934zm19.369 94.672c-4.89.095-8.79-3.714-8.819-8.614-.031-5.195 3.713-9.147 8.657-9.138 4.865.009 8.965 4.076 9.027 8.952.057 4.511-4.173 8.709-8.865 8.8zm-8.783-47.206c-.011-4.665 4.136-8.642 8.955-8.589 4.869.053 8.344 3.717 8.275 8.723-.07 5.019-3.904 8.821-8.76 8.685-4.55-.128-8.46-4.198-8.47-8.819zm8.466-29.112c-4.586-.084-8.882-4.558-8.896-9.235-.013-4.355 3.902-9.234 9.311-8.932 5.16.021 8.867 3.717 8.901 8.873.033 5.223-4.142 9.388-9.316 9.294zm.463-37.561c-5.233.066-9.99-4.58-10.061-9.825-.074-5.477 4.21-9.695 9.884-9.731 5.754-.037 9.607 3.703 9.676 9.394.07 5.726-4.011 10.092-9.499 10.162zm18.883 94.062c-4.291-.021-8.113-4.018-8.03-8.398.082-4.311 3.865-8.059 8.078-8.006 4.633.058 8.075 3.555 8.095 8.224.02 4.538-3.627 8.202-8.143 8.18zm-.082-38.264c-4.533-.03-8.002-3.636-7.999-8.312.003-4.518 3.715-8.285 8.129-8.249 4.705.039 8.48 3.773 8.428 8.337-.053 4.569-3.889 8.255-8.558 8.224zm.366-37.706c-5.122.02-8.893-3.663-8.966-8.755-.076-5.251 3.708-9.075 8.959-9.056 4.54.016 8.753 4.233 8.8 8.809.053 5.025-3.813 8.983-8.793 9.002zm.081-37.183c-5.392.113-10.15-4.548-10.196-9.987-.045-5.395 4.415-9.893 9.84-9.924 5.697-.033 9.781 4.015 9.818 9.73.038 5.703-4.019 10.067-9.462 10.181zm18.732 131.75c-4.328-.138-7.386-3.363-7.352-7.751.034-4.277 3.355-7.615 7.542-7.579 4.293.037 7.858 3.609 7.774 7.789-.086 4.335-3.619 7.68-7.964 7.541zm-7.271-45.923c-.051-4.23 3.049-7.248 7.433-7.235 4.613.013 7.354 2.709 7.331 7.211-.021 4.15-3.338 7.58-7.296 7.543-3.959-.037-7.42-3.522-7.468-7.519zm7.563-30.211c-4.416.036-8.201-3.796-8.16-8.262.04-4.423 3.326-7.639 7.855-7.687 4.791-.051 8.071 3.055 8.104 7.673.03 4.269-3.715 8.243-7.799 8.276zm8.941-46.119c-.222 5.099-4.36 8.861-9.535 8.67-4.816-.178-8.751-4.509-8.513-9.367.246-5.014 4.279-8.766 9.257-8.614 5.275.161 9.018 4.125 8.791 9.311zm10.088 102.361c-3.502-.022-6.859-3.508-6.794-7.056.067-3.669 2.989-6.413 6.852-6.433 3.803-.02 6.652 2.789 6.653 6.558 0 3.957-2.902 6.955-6.711 6.931zm.077-38.196c-4.124-.057-7.085-3.172-6.959-7.319.119-3.935 3.304-6.915 7.234-6.768 3.618.135 6.792 3.438 6.768 7.045-.026 3.802-3.318 7.094-7.043 7.042zm.09-37.208c-4.413.044-8.204-3.783-8.171-8.25.033-4.423 3.308-7.636 7.846-7.697 4.782-.065 8.076 3.046 8.113 7.661.034 4.272-3.7 8.245-7.788 8.286zm-.197-37.07c-4.907-.023-9.294-4.474-9.243-9.46.054-5.304 3.909-8.951 9.463-8.954 5.288-.003 8.964 3.688 8.966 9.002.31 5.587-4.99 9.431-9.186 9.412zm19.214 131.134c-3.384.027-6.189-2.78-6.278-6.285-.091-3.592 2.704-6.51 6.295-6.572 3.486-.061 6.507 2.934 6.502 6.446-.004 3.517-2.917 6.382-6.519 6.411zm-5.687-44.774c0-3.545 2.536-6.01 6.05-5.882 3.268.119 5.767 2.795 5.664 6.064-.107 3.385-2.604 5.776-5.963 5.71-3.427-.068-5.751-2.45-5.751-5.892zm5.693-31.282c-3.529.031-6.882-3.351-6.852-6.912.033-3.897 3.202-7.071 7.025-7.036 3.807.035 6.781 3.038 6.801 6.869.022 3.876-3.1 7.044-6.974 7.079zm-.086-37.062c-4.541-.01-8.029-3.593-8.046-8.265-.016-4.519 3.673-8.307 8.08-8.297 4.706.011 8.499 3.721 8.476 8.291-.023 4.567-3.845 8.282-8.51 8.271zm.094-36.799c-5.158.054-9.666-4.48-9.712-9.766-.047-5.417 4.121-9.537 9.715-9.6 5.304-.06 9.558 4.016 9.692 9.286.137 5.39-4.32 10.024-9.695 10.08zm19.151 129.508c-2.761-.124-5.047-2.569-4.979-5.325.065-2.67 2.364-5.013 4.934-5.03 2.845-.019 5.346 2.51 5.299 5.355-.048 2.776-2.515 5.124-5.254 5zm-.081-37.775c-2.787-.087-5.489-2.912-5.494-5.743-.005-2.995 2.489-5.345 5.658-5.329 3.458.017 5.466 1.991 5.45 5.358-.015 3.357-2.43 5.814-5.614 5.714zm-.126-36.82c-3.899-.093-7.057-3.506-6.925-7.486.134-4.054 3.301-6.963 7.47-6.863 3.871.093 7.05 3.508 6.956 7.475-.093 3.948-3.393 6.973-7.501 6.874zm.232-36.737c-4.772.04-8.659-3.908-8.68-8.82-.021-4.818 3.96-8.82 8.74-8.787 4.786.034 8.745 4.044 8.716 8.827-.031 4.822-3.947 8.739-8.776 8.78zm19.151 130.382c-2.762-.053-5.001-2.504-4.862-5.322.137-2.784 2.253-4.583 5.242-4.456 2.762.117 4.614 2.078 4.55 4.819-.062 2.661-2.394 5.007-4.93 4.959zm-4.089-43.523c.068-2.161 1.876-3.866 4.13-3.893 2.279-.028 4.217 1.89 4.202 4.158-.015 2.306-1.91 4.105-4.279 4.061-2.241-.041-4.124-2.052-4.053-4.326zm4.241-32.335c-3.406-.001-5.787-2.396-5.806-5.842-.018-3.344 2.245-5.799 5.43-5.891 3.268-.094 6.283 2.736 6.277 5.893-.005 3.271-2.603 5.841-5.901 5.84zm-.271-36.496c-4.234-.039-7.385-3.337-7.38-7.722.005-4.47 3.277-7.712 7.746-7.674 4.288.036 7.541 3.272 7.611 7.571.073 4.516-3.344 7.868-7.977 7.825zm9.323-45.72c-.033 5.224-4.142 9.214-9.397 9.125-5.052-.086-9.144-4.424-9.054-9.598.089-5.086 4.362-9.17 9.538-9.154 4.2.014 9.279 3.739 8.913 9.627zm9.883-29.442c5.681-.033 10.114 4.328 10.12 9.954.006 5.472-4.388 10.035-9.708 10.082-5.538.049-10.1-4.426-10.162-9.966-.06-5.358 4.474-10.04 9.75-10.07zm.239 166.586c-1.759.025-3.195-1.359-3.274-3.155-.083-1.881 1.473-3.479 3.32-3.409 1.617.061 3.139 1.678 3.161 3.358.023 1.751-1.407 3.181-3.207 3.206zm.266-37.177c-2.245.129-4.488-1.894-4.637-4.183-.151-2.321 1.803-4.303 4.308-4.37 2.499-.067 4.145 1.516 4.183 4.02.036 2.388-1.681 4.408-3.854 4.533zm-.656-35.98c-3.484-.132-6.496-3.398-6.41-6.954.089-3.696 3.033-6.442 6.835-6.376 3.8.067 6.617 2.91 6.562 6.623-.054 3.599-3.432 6.842-6.987 6.707zm.307-36.506c-4.537.065-8.586-4.028-8.522-8.616.067-4.764 3.823-8.365 8.715-8.353 4.624.011 8.309 3.733 8.29 8.375-.02 4.817-3.681 8.525-8.483 8.594zm19.225 129.906c-2.202-.014-4.406-2.316-4.328-4.523.078-2.222 2.081-3.995 4.439-3.928 2.486.07 4.125 1.775 4.051 4.215-.074 2.388-1.903 4.25-4.162 4.236zm-2.619-42.81c.043-1.572 1.144-2.667 2.625-2.611 1.553.059 2.884 1.478 2.742 2.923-.131 1.333-1.51 2.506-2.906 2.473-1.457-.035-2.504-1.219-2.461-2.785zm2.363-32.623c-2.859-.093-5.442-2.912-5.288-5.771.163-3.02 2.714-5.268 5.828-5.136 2.88.122 5.189 2.636 5.074 5.527-.121 3.069-2.634 5.477-5.614 5.38zm.281-36.3c-4.154.055-7.564-3.384-7.57-7.634-.006-4.158 3.222-7.509 7.293-7.572 4.043-.062 7.84 3.525 7.904 7.466.063 3.908-3.661 7.688-7.627 7.74zm.021-36.571c-4.997-.065-9.315-4.422-9.315-9.4 0-5.226 3.796-8.951 9.121-8.952 5.392-.001 9.172 3.603 9.236 8.806.064 5.131-4.178 9.609-9.042 9.546zm19.363-38.568c5.298.098 9.879 4.785 9.837 10.066-.043 5.486-4.654 10.046-10.152 10.04-5.451-.005-9.88-4.432-9.88-9.876-.001-5.806 4.513-10.335 10.195-10.23zm-.132 166.696c-1.958.024-3.332-1.35-3.353-3.351-.021-1.998 1.332-3.412 3.277-3.428 1.896-.016 3.386 1.45 3.407 3.352.022 1.897-1.444 3.404-3.331 3.427zm-.242-37.17c-2.376-.008-4.275-1.97-4.313-4.456-.039-2.533 2.05-4.585 4.576-4.494 2.452.088 4.201 2.027 4.122 4.572-.076 2.472-1.993 4.386-4.385 4.378zm.187-35.975c-3.657-.043-6.846-3.316-6.795-6.974.052-3.787 2.905-6.503 6.763-6.439 3.857.064 6.676 2.864 6.639 6.593-.037 3.544-3.247 6.859-6.607 6.82zm-.237-36.584c-4.43-.036-8.332-3.993-8.362-8.48-.032-4.735 3.715-8.443 8.578-8.491 4.645-.045 8.378 3.603 8.427 8.237.054 4.94-3.741 8.774-8.643 8.734zm19.646 130.706c-2.76.067-5.202-2.217-5.324-4.978-.122-2.776 2.197-5.329 4.882-5.375 2.845-.049 5.363 2.45 5.346 5.303-.016 2.646-2.289 4.986-4.904 5.05zm-4.717-43.446c-.037-2.423 1.851-4.407 4.276-4.493 2.435-.087 4.355 1.776 4.415 4.283.06 2.519-1.674 4.496-4.091 4.661-2.49.17-4.56-1.833-4.6-4.451zm4.491-32.19c-2.985.079-6.128-3.024-6.192-6.113-.065-3.163 2.774-5.932 6.152-5.999 3.549-.071 5.94 2.294 6.012 5.945.066 3.31-2.615 6.078-5.972 6.167zm-.276-36.817c-4.305-.128-7.379-3.383-7.356-7.785.024-4.466 3.343-7.705 7.818-7.63 4.373.073 7.632 3.491 7.589 7.959-.041 4.26-3.635 7.588-8.051 7.456zm.258-36.578c-5.25-.028-9.425-4.304-9.363-9.588.06-5.115 4.231-9.254 9.364-9.293 5.061-.038 9.568 4.54 9.443 9.593-.124 5.027-4.483 9.315-9.444 9.288zm19.078 129.953c-3.162-.058-5.103-2.119-5.062-5.377.039-3.131 1.957-5.137 4.944-5.171 3.108-.035 5.64 2.41 5.57 5.378-.069 2.878-2.542 5.223-5.452 5.17zm-.144-37.762c-3.175-.047-5.483-2.468-5.514-5.783-.031-3.334 2.425-5.829 5.783-5.874 2.941-.039 5.727 2.662 5.821 5.645.1 3.175-2.824 6.061-6.09 6.012zm.115-36.744c-3.71-.052-7.237-3.674-7.237-7.432 0-3.914 3.344-7.162 7.33-7.118 4.306.048 7.245 2.909 7.268 7.076.022 4.156-3.301 7.531-7.361 7.474zm.266-36.882c-4.963.04-8.927-3.943-8.894-8.937.032-4.885 3.844-8.678 8.789-8.746 4.637-.064 8.8 4.077 8.821 8.774.02 4.679-4.082 8.872-8.716 8.909zm19.109 131.75c-3.904-.026-6.509-2.718-6.42-6.636.079-3.493 2.831-6.277 6.238-6.31 3.727-.036 6.724 2.904 6.671 6.543-.053 3.558-2.96 6.426-6.489 6.403zm-6.33-44.814c.001-3.483 2.516-5.92 6.109-5.922 3.713-.001 6.138 2.269 6.197 5.801.059 3.502-2.693 6.444-6.054 6.472-3.297.029-6.254-2.975-6.252-6.351zm6.429-31.243c-4.135.026-7.16-3.019-7.116-7.163.042-3.967 3.114-6.972 7.078-6.926 3.624.042 6.849 3.251 6.923 6.889.078 3.776-3.173 7.176-6.885 7.2zm-.08-37.076c-4.964-.017-8.241-3.273-8.285-8.231-.043-4.997 3.255-8.429 8.085-8.412 4.759.017 8.557 3.838 8.519 8.572-.034 4.294-3.944 8.086-8.319 8.071zm.059-36.757c-5.191.006-9.972-4.51-9.943-9.583.025-4.432 2.88-9.973 9.705-9.877 5.514.078 9.758 4.151 9.776 9.522.017 5.216-4.509 9.932-9.538 9.938zm19.037 131.288c-3.767.027-6.974-3.256-6.941-7.106.031-3.646 3.282-6.923 6.853-6.907 3.854.018 7.142 3.225 7.141 6.966-.001 3.811-3.213 7.02-7.053 7.047zm-.188-38.258c-4.09-.02-6.795-2.833-6.808-7.08-.013-4.24 2.873-7.119 7.134-7.118 3.769.001 7.04 3.302 7.031 7.097-.008 3.884-3.362 7.121-7.357 7.101zm.087-37.195c-4.176-.018-7.956-3.822-8.04-8.089-.087-4.426 3.734-8.363 8.069-8.315 4.633.052 8.079 3.545 8.104 8.215.024 4.54-3.619 8.208-8.133 8.189zm.119-37.097c-5.133-.029-9.266-4.129-9.363-9.29-.099-5.238 4.113-9.551 9.364-9.591 4.948-.037 9.369 4.315 9.442 9.295.076 5.102-4.37 9.614-9.443 9.586zm19.219 132.619c-4.462-.057-7.933-3.607-7.87-8.049.058-4.083 3.592-7.605 7.649-7.623 4.599-.021 8.073 3.375 8.01 7.831-.062 4.28-3.651 7.894-7.789 7.841zm.02-53.891c3.77-.027 7.468 3.599 7.583 7.436.125 4.156-3.295 7.785-7.401 7.853-4.215.07-7.659-3.206-7.798-7.417-.143-4.35 3.233-7.84 7.616-7.872zm.185-22.439c-4.375.062-8.278-3.68-8.4-8.053-.126-4.514 3.743-8.446 8.294-8.43 4.195.015 7.986 3.782 8.101 8.048.119 4.431-3.617 8.373-7.995 8.435zm-.387-37.305c-4.886-.115-9.053-4.436-9.04-9.34.011-4.338 3.921-9.196 9.317-8.89 5.25.022 8.911 3.771 8.923 9.137.01 4.899-4.348 9.208-9.2 9.093zm19.294-38.465c5.383-.06 10.161 4.735 10.083 10.119-.08 5.494-4.704 10.021-10.204 9.988-5.453-.032-9.854-4.479-9.827-9.929.029-5.692 4.352-10.116 9.948-10.178zm-.159 133.291c-4.535-.025-8.008-3.624-8.011-8.3-.002-4.516 3.712-8.296 8.115-8.259 4.717.039 8.487 3.757 8.441 8.324-.045 4.567-3.878 8.26-8.545 8.235zm.314-38.303c-4.971.002-8.267-3.238-8.328-8.186-.061-4.997 3.224-8.453 8.041-8.458 4.763-.005 8.572 3.79 8.562 8.529-.01 4.295-3.904 8.114-8.275 8.115zm-.278-37.418c-4.678-.002-9.121-4.648-9.023-9.411.087-4.274 3.932-9.027 9.485-8.787 5.12.222 8.786 3.914 8.727 9.073-.06 5.101-4.113 9.127-9.189 9.125zm19.017-38.359c5.664-.119 10.162 4.2 10.239 9.83.074 5.466-4.271 10.09-9.588 10.202-5.53.117-10.152-4.31-10.282-9.847-.125-5.346 4.347-10.075 9.631-10.185zm.382 133.864c-5.109-.031-8.831-3.749-8.863-8.854-.032-5.129 3.712-8.991 8.714-8.987 5.219.004 9.188 3.934 9.115 9.027-.072 5.048-3.933 8.844-8.966 8.814zm-8.837-47.176c.076-5.188 3.918-9.058 8.86-8.924 4.868.132 8.902 4.315 8.828 9.153-.069 4.497-4.41 8.605-9.082 8.596-4.877-.009-8.678-3.907-8.606-8.825zm9.114-29.004c-5.06.139-9.613-4.312-9.613-9.399 0-5.099 3.692-8.844 8.823-8.948 5.569-.113 9.469 3.487 9.534 8.802.062 5.006-3.977 9.414-8.744 9.545zm8.877-28.683c.191-5.703 4.664-10.023 10.234-9.885 5.421.134 10.059 5.072 9.779 10.41-.292 5.554-4.967 9.875-10.485 9.689-5.449-.184-9.711-4.752-9.528-10.214zm10.192 28.965c5.052.051 9.269 4.29 9.334 9.386.067 5.226-4.185 9.593-9.367 9.618-5.267.025-9.523-4.134-9.589-9.372-.067-5.382 4.233-9.687 9.622-9.632zm-.338 57.309c-5.036-.01-9.302-4.324-9.261-9.364.044-5.377 4.227-9.662 9.354-9.583 5.205.08 9.543 4.448 9.478 9.544-.068 5.306-4.249 9.414-9.571 9.403zm19.375 19.759c-5.609.084-10.047-4.346-10.069-10.052-.022-5.553 4.273-10.002 9.745-10.094 5.48-.092 10.314 4.516 10.405 9.919.089 5.358-4.63 10.146-10.081 10.227zm19.147-18.663c-5.703-.014-10.41-4.772-10.527-10.515-.101-4.978 4.542-10.769 10.577-10.242 6.107-.004 10.166 4.009 10.198 10.086.03 5.864-4.598 10.685-10.248 10.671zm19.084 19.766c-6.056-.112-11.009-5.134-11.009-11.201-.001-6.241 4.678-10.751 11.157-10.757 6.253-.006 10.689 4.504 10.826 10.732.156 7.114-6.647 11.305-10.974 11.226zm19.028-19.028c-6.486-.049-11.083-4.887-10.999-11.573.079-6.305 5.035-11.172 11.267-11.066 6.305.107 11.479 5.344 11.389 11.484-.07 4.776-4.274 11.512-11.657 11.155zm31.34 7.991c-.206 5.543-4.144 11.789-11.86 11.753-6.798-.031-11.901-5.183-11.868-11.985.033-6.812 5.214-11.9 12.026-11.809 6.235.084 11.932 5.845 11.702 12.041zm6.962-6.894c-6.499-.144-12.156-5.905-12.026-12.468.12-6.066 4.479-12.315 12.524-11.926 6.925-.482 12.043 6.197 12.009 12.134-.04 6.928-6.453 12.394-12.507 12.26zm6.705 6.842c-.085-7.15 5.404-12.612 12.727-12.665 6.978-.05 12.643 5.468 12.723 12.391.08 6.914-5.808 13.025-12.577 13.054-6.875.03-12.79-5.844-12.873-12.78zM772.355 345.949c.015-1.88.233-3.863.378-6.023-2.136.145-4.181.421-6.204.315-1.952-.102-3.88-.678-6.213-1.103.202 1.078.415 1.888.499 2.723.19 1.87.572 3.97.407 5.816-.081.91-.253 1.323-.551 2.323h12.2c-.424-1-.531-2.211-.516-4.051zM83.627 341.392c.138-.866.492-1.698.869-2.948-2.388.617-4.434 1.428-6.535 1.61-2.139.185-4.332-.248-6.954-.445.164 1.159.383 2.168.433 3.186.088 1.771.307 3.79.041 5.518-.094.615-.241 1.687-.451 1.687h12.425c-.328-1-.473-1.66-.491-2.795-.031-1.866.367-3.953.663-5.813z"/></g></svg>