<svg xmlns="http://www.w3.org/2000/svg" width="22.145" height="18" viewBox="0 0 22.145 18"><path fill="#6E5F5C" d="M19.879 4.485l.014.588c.001 6.004-4.57 12.927-12.927 12.927-2.565 0-4.954-.752-6.966-2.041.354.039.717.064 1.084.064 2.129 0 4.088-.727 5.644-1.947-1.991-.035-3.667-1.35-4.246-3.155.278.053.563.083.853.083.416 0 .817-.057 1.198-.16-2.079-.42-3.646-2.254-3.646-4.457v-.057c.613.339 1.314.544 2.059.567-1.219-.815-2.02-2.207-2.02-3.782 0-.832.224-1.612.615-2.283 2.239 2.748 5.588 4.556 9.364 4.745-.078-.331-.117-.68-.117-1.036.001-2.507 2.035-4.541 4.543-4.541 1.308 0 2.489.552 3.318 1.433 1.034-.203 2.007-.581 2.885-1.102-.34 1.06-1.061 1.951-1.997 2.513.918-.108 1.793-.353 2.609-.716-.609.916-1.378 1.716-2.267 2.357z"/></svg>