<svg xmlns="http://www.w3.org/2000/svg" width="260" height="94" viewBox="0 0 260 94"><g fill="#681815"><path d="M100.4 11.5v.5l1.5 22.6c0 .3 0 .6.1.9v4l1.5 9.3v-4.500000000000001l-1.5-21.5v-.8c-.5-3.6-1-7.1-1.6-10.7-.1 0-.1 0 0 .2zM121.9 22.3v-.2l-.4-10.7v1.2000000000000002c0 .1 0 .3-.1.4l-10.5 37.7c-.1.3-.2.6-.4.8-.1.3-.3.5-.4.7l-.5.6-.1.1-.4.3-.2.1-.6.3h-.1c-.2.1-.5.2-.7.2-.1 0-.1 0-.2.1l-.6.1h-9.4c-.6 0-1.2-.1-1.7-.2s-.9-.3-1.3-.6c-.4-.2-.7-.6-.9-.9-.2-.4-.4-.8-.5-1.3l2 8.7c.1.5.3.9.5 1.2.2.3.5.6.9.9.3.2.8.4 1.2.5.5.1 1 .2 1.6.2h9.1c.1 0 .2 0 .3-.1h.2l.7-.2h.1c.2-.1.4-.2.5-.3h.1l.1-.1.2-.1c.1-.1.2-.1.2-.2l.1-.1c.2-.2.3-.3.4-.5l.1-.2.2-.3c0-.1.1-.2.1-.2l.1-.3s0-.1.1-.1c0 0 0-.1.1-.1v-.2l9.9-35.8c0-.1 0-.3.1-.4v-.6000000000000001c.1-.3.1-.3.1-.4zM92.7 42.5l.2-.5.1-.3c0-.2.1-.3.1-.4l.1-.3.1-.3v-1.5000000000000002l-2-9.8v1.2000000000000002c0 .1 0 .1-.1.2v.1l-.1.4-.1.3c0 .1-.1.3-.2.5l-.1.3c-.1.2-.1.4-.2.5l-.1.3c-.1.3-.2.6-.3.8l-7.5 16.6c-.1.3-.3.6-.5.8v.1l-.4.6-.2.2-.4.4-.2.2-.6.5c-.2.1-.4.2-.7.4-.1 0-.2.1-.2.1-.2.1-.4.1-.5.2l-.3.1-.6.1h-.3l-.9.1h-8.4c-.5 0-1 0-1.4-.1-.4-.1-.8-.2-1.1-.4-.3-.2-.6-.4-.8-.6-.1-.1-.2-.2-.3-.4-.1-.1-.2-.3-.2-.4l3.4 8.6c.1.3.3.6.5.8s.5.4.7.6c.3.1.6.3 1 .3.4.1.8.1 1.3.1h9.200000000000001c.1 0 .2 0 .4-.1.1 0 .1 0 .2-.1h.2c.2 0 .3-.1.5-.2.1 0 .2-.1.2-.1h.1l.6-.3c.2-.1.4-.2.5-.4l.1-.1.2-.2c.1-.1.3-.2.4-.4l.1-.1.1-.1.1-.2.2-.3s0-.1.1-.1v-.1l.1-.1.2-.3.2-.3 7.1-15.7.3-.8c0-.2 0-.3.1-.4zM78 36.4l-.1.7v.2l-.1.5v.30000000000000004l-.1.4c0 .1 0 .2-.1.3v.7l2.8 9.3v-.5c0-.1 0-.2.1-.3 0-.1 0-.2.1-.4v-.30000000000000004l.1-.5v-.2l.1-.6v-.2c0-.1 0-.2.1-.3v-.1l.1-1.1 2.4-21.4v-1.4999999999999998l-2.6-10.8c0 .1 0 .2.1.4v1.4l-2.6 22.6c0 .4-.1.8-.1 1.1 0 .2 0 .3-.1.5 0-.3-.1-.2-.1-.2zM147.5 30.1h.2c.1 0 .2 0 .3-.1.1 0 .1 0 .2-.1h.2l.4-.2s.1 0 .1-.1c.1-.1.2-.2.3-.4l.1-.1s0-.1.1-.1c0 0 0-.1.1-.1v-.1s0-.1.1-.1v-.7l1.1-10.4-.1.6c0 .2-.1.3-.2.5-.1.1-.2.3-.2.4l-.4.4-.1.1c-.1.1-.3.2-.4.2l-.2.1c-.1.1-.3.1-.5.1h-.2c-.2 0-.5.1-.8.1h-10.9l-.4 10.3h10.4c.3-.3.6-.3.8-.3zM171 29.8c.4.2.8.4 1.1.7.3.3.6.6.8.9.2.3.4.7.5 1.1l.1.4.1.4v.4c0 .1 0 .3-.1.4l2.5-10.1.1-.4v-.4c0-.1 0-.3-.1-.4l-.1-.4c-.1-.4-.3-.8-.5-1.1s-.5-.7-.9-1c-.3-.3-.7-.5-1.2-.7-.4-.2-.9-.3-1.5-.3h-3.4l-2 10.3h3.2c.6-.1 1 0 1.4.2zM171.3 45.5h4.6c.6 0 1.3.1 1.8.3.5.2 1 .5 1.5.8.4.3.8.7 1.1 1.1.3.4.5.8.7 1.2.1.2.1.3.1.5l.1.5v.5c0 .1 0 .3-.1.4l2.8-9.2c0-.1.1-.3.1-.5v-.5c0-.2 0-.3-.1-.5l-.1-.4.2-.2.1-.1.1-.1.2-.2c.1-.1.1-.2.2-.2l.1-.2.1-.3s0-.1.1-.1v-.1s0-.1.1-.1c0 0 0-.1.1-.1 0 0 0-.1.1-.1v-.1l3-9.9-.3.7v.1l-.3.6-.4.6c-.2.2-.3.4-.5.5l-2.9 9.4c-.1-.4-.4-.8-.7-1.2-.3-.4-.7-.8-1.1-1.2-.5-.3-1-.6-1.6-.8-.6-.2-1.2-.3-1.9-.3h-4.8l-2.4 9.2zM150.3 35.4c-.1.2-.2.3-.3.4l-.1.1c-.1.1-.2.2-.4.3-.1.1-.3.2-.4.2 0 0-.1 0-.1.1l-.5.2-.6.1h-9.6l-.4 9.4h9.299999999999999l.4-.1.4-.1h.1s.1 0 .1-.1l.4-.2.3-.3.1-.1.1-.1.1-.1s0-.1.1-.1v-.1s0-.1.1-.1c0 0 0-.1.1-.1v-.7999999999999999c.4-3.2.7-6.4 1.1-9.5l-.1.6-.2.4zM158 52.4l-.2.5c-.1.2-.2.3-.3.4l-.4.3-.1.1c-.1.1-.2.1-.4.2 0 0-.1 0-.1.1l-.6.2h-.1l-.5.1h-25.4c-.7 0-1.4-.1-2-.3s-1.1-.4-1.5-.8c-.4-.3-.7-.8-.9-1.3-.2-.5-.3-1.1-.3-1.7l.3 8.7c0 .6.1 1.2.3 1.7s.5.9.9 1.2c.4.3.8.6 1.4.7.5.2 1.2.3 1.9.3h24.099999999999998c.1 0 .2 0 .3-.1h.1l.5-.1h.1l.4-.2h.1s.1 0 .1-.1c.1-.1.2-.2.3-.2.1-.1.2-.2.2-.3l.1-.1s0-.1.1-.1c0 0 0-.1.1-.1 0 0 0-.1.1-.1v-.4l1.5-8.7c.1-.3 0-.1-.1.1zM197.7 49.7c-.1.1-.1.2-.2.2-.1.1-.2.3-.4.4l-.2.2-.4.3-.3.2-.4.3-.3.2-.5.3-.3.2-.6.3-.3.1-.7.3c-.1 0-.1 0-.2.1l-1 .3c-.1 0-.2 0-.3.1-.2.1-.5.1-.8.2l-.4.1-.7.1-.5.1-.7.1c-.2 0-.3 0-.5.1l-.7.1h-.5c-.2 0-.5 0-.8.1h-17.3c-.8 0-1.5-.1-2.1-.3-.6-.2-1.2-.4-1.6-.8-.5-.4-.9-.8-1.2-1.3-.3-.5-.5-1.1-.7-1.8l-8.4-37.5-.1-.6s0-.3-.1-.5v-.9l-1.3 10.8v.9c0 .2 0 .3.1.5l.1.5 8 35.6c.1.6.4 1.2.7 1.7.3.5.7.9 1.1 1.2.4.3 1 .6 1.6.8.6.2 1.2.3 2 .3h13.5c.7 0 1.4 0 2.1-.1h.3c.6 0 1.3-.1 1.9-.2h.8999999999999999c.2 0 .4-.1.7-.1.1 0 .3 0 .4-.1.2 0 .4-.1.7-.1l.4-.1.7-.2c.1 0 .2 0 .3-.1l.9-.3c.1 0 .1 0 .2-.1l.7-.3.3-.1c.2-.1.4-.2.5-.3l.3-.2.3-.2.2-.1.3-.2.4-.3.2-.1.1-.1c.1-.1.2-.2.4-.3.1-.1.2-.1.2-.2l.3-.4.2-.2v-.1l.2-.3.2-.3.2-.3.2-.3 3.6-8.8c-.3.6-.6 1.1-.9 1.5z"/></g><path fill="#FFAE31" d="M118.3 8.4c.6 0 1.1.1 1.6.3.4.2.8.5 1 .9.3.4.4.9.5 1.4.1.6 0 1.2-.1 1.9l-10.5 37.7c-.2.6-.5 1.1-.8 1.6s-.7.8-1.2 1.1c-.4.3-1 .5-1.5.7-.6.1-1.2.2-1.9.2h-8.3c-.7 0-1.3-.1-1.8-.2s-1-.4-1.4-.7c-.4-.3-.7-.7-.9-1.1-.2-.5-.4-1-.4-1.6l-1.1-16.6v-1.7c0-.6 0-1.1.1-1.5 0-.5.1-.8.1-1.1 0-.3 0-.5.1-.5 0 0-.1.2-.1.4-.1.3-.2.7-.3 1.1-.1.5-.3 1-.5 1.6-.2.6-.4 1.2-.7 1.7l-7.5 16.6c-.3.6-.6 1.1-1 1.6s-.8.8-1.3 1.1c-.5.3-1 .5-1.6.7-.6.2-1.2.2-1.9.2h-8.4c-.7 0-1.3-.1-1.8-.2-.5-.2-.9-.4-1.3-.7-.3-.3-.6-.7-.7-1.1-.2-.5-.2-1-.2-1.6l4.2-37.6c.1-.7.3-1.4.6-1.9.3-.6.6-1 1-1.4.4-.4.9-.7 1.4-.9.5-.2 1.1-.3 1.7-.3h4.6c.5 0 1 .1 1.4.2.4.2.7.4.9.7.2.3.4.7.5 1.1.1.5.1 1 0 1.6l-2.6 22.6c-.1.6-.1 1.2-.2 1.7s-.2 1.1-.3 1.5c-.1.4-.2.8-.2 1.1-.1.3-.1.4-.1.5l.2-.4c.1-.3.2-.6.4-1.1l.6-1.5c.2-.6.5-1.2.8-1.7l10.4-22.8c.3-.6.6-1.1.9-1.6.3-.5.7-.8 1.1-1.1.3-.3.8-.5 1.2-.7.5-.2.9-.2 1.5-.2h2.7c.5 0 1 .1 1.4.2.4.1.7.4 1 .7.3.3.5.7.6 1.1.1.5.2 1 .2 1.6l1.5 22.6c.1.6.1 1.2.1 1.8v3.1s.1-.2.1-.4c.1-.3.1-.6.2-1.1l.3-1.5c.1-.6.3-1.2.5-1.7l6.4-22.6c.2-.6.4-1.1.6-1.6.3-.5.6-.8.9-1.1.3-.3.7-.5 1.2-.7.4-.2.9-.2 1.5-.2l4.6-.2zM145.8 8.4c.6 0 1.1.1 1.5.3.5.2.9.4 1.2.8.4.3.7.8.9 1.3s.4 1.1.6 1.8l.6 3.2c.1.7.2 1.3.1 1.8s-.2.9-.5 1.3c-.3.3-.6.6-1 .8s-.9.3-1.6.3h-10.9l.5 5.5h8.1c.6 0 1.2.1 1.7.3s1 .4 1.4.8c.4.4.7.8 1 1.3.3.5.4 1.1.6 1.8l.5 3.2c.1.7.1 1.3 0 1.8s-.3 1-.6 1.3c-.3.3-.7.6-1.2.8-.5.2-1.1.3-1.8.3h-8.7l.6 5.9h13.4c.7 0 1.4.1 1.9.3.6.2 1.1.4 1.5.8.4.4.8.8 1.1 1.3.3.5.5 1.1.6 1.8l.6 3.2c.1.7.1 1.3 0 1.8s-.3 1-.6 1.3c-.3.4-.8.6-1.3.8-.5.2-1.2.3-2 .3h-24.5c-.8 0-1.4-.1-2-.3-.6-.2-1.1-.4-1.5-.8-.4-.4-.7-.8-.9-1.3-.2-.5-.3-1.1-.3-1.8l-.5-37.5c0-.7.1-1.3.2-1.8s.4-.9.7-1.3c.3-.3.7-.6 1.1-.8.4-.2.9-.3 1.5-.3l18-.3z"/><g fill="#651815"><path d="M107.5 70.2v-.4l-1.3-8.1v.8l-1.7 19.9c0 .2 0 .3-.1.5 0 .2-.1.3-.2.4l-.2.3-.1.1-.3.3c-.1.1-.2.2-.4.2h-.1c-.1.1-.3.1-.4.1l-.5.1h-4.1c-.4 0-.7 0-1-.1-.3-.1-.5-.1-.7-.3-.2-.1-.4-.3-.5-.4l-.3-.6 1.8 7c.1.2.1.4.3.6.1.2.3.3.5.4.2.1.4.2.7.2.3.1.6.1.9.1h3.3c.3 0 .5 0 .7-.1h.4c.1 0 .1 0 .2-.1h.2c.2-.1.3-.1.4-.2h.1c.1-.1.2-.2.3-.2l.1-.1v-.1s0-.1.1-.1c0 0 0-.1.1-.1 0 0 0-.1.1-.1v-.8999999999999999l1.6-18.9v-.2c.1.1.1.1.1 0zM95.5 74.5v-.9000000000000001c0-.1 0-.2-.1-.3l-1.9-8c.1.2.1.4.1.6 0 .2 0 .4.1.6v.7999999999999999c0 .2 0 .5-.1.7 0 .3-.1.6-.2.9l-.3.9v.1l-.4.9s0 .1-.1.1c-.2.3-.3.6-.5.8l-.1.2-.1.2-.6.7-.1.1c-.2.2-.4.4-.7.6l-.1.1-.8.6s-.1 0-.1.1c-.3.2-.6.4-1 .5l2.2 7.5 1-.5.3-.2c.2-.1.4-.2.5-.4l.1-.1h.1l.2-.2.4-.3.1-.1.3-.3.3-.3.2-.2v-.1l.1-.1.3-.4.1-.3v-.2l.2-.4.1-.3v-.1c.1-.1.1-.3.1-.4l.1-.4.1-.4v-1.3c.2-.6.2-.7.2-.8zM83.1 74.2h2.3c.2 0 .3 0 .5.1.2 0 .3.1.4.1.1.1.2.1.4.2l.3.2.2.2c0 .1.1.2.1.2l-2.4-7.8c0-.1-.1-.2-.1-.2 0-.1-.1-.2-.2-.2s-.2-.1-.3-.2c-.1-.1-.2-.1-.4-.2-.1-.1-.3-.1-.5-.1l-.5-.1h-2.5l-1 4.6 2.7 7.7 1-4.5zM171.9 74.5c.8.2 1.6.6 2.2 1.1.7.5 1.2 1.1 1.7 1.8s.9 1.5 1.1 2.5c.1.3.2.7.2 1l.1.9v.8c0 .2-.1.5-.2.7l2.6-7.4.2-.7c0-.3.1-.5 0-.8 0-.3 0-.6-.1-.9s-.1-.7-.2-1c-.3-1-.7-1.9-1.2-2.6-.5-.8-1.1-1.4-1.8-1.9s-1.5-.9-2.4-1.1c-.9-.2-1.8-.4-2.8-.4h-1.8l-2.1 7.9h1.7c1.1-.2 1.9-.1 2.8.1zM68 83.2c.2-.1.3-.1.4-.2h.1s.1 0 .1-.1l.2-.2c.1-.1.2-.2.2-.3 0 0 0-.1.1-.1l.1-.1s0-.1.1-.1c0 0 0-.1.1-.1v-.4l.4-1.6v-.7999999999999999l-1.8-5h3.4000000000000004c.1 0 .2 0 .2-.1h.1c.1 0 .2-.1.4-.1l.5-.3.1-.1.3-.3.1-.1.1-.1s0-.1.1-.1l.1-.1s0-.1.1-.1v-.4l.4-1.6v-.8999999999999999c-.1-.2-.2-.5-.3-.8v-.1l-.1-.2v-.1l-.1-.3-.1-.2-.1-.3-.1-.2-.1-.3-.1-.3-.1-.3.1-.8c-.1-.2-.2-.4-.2-.6l-.1-.2-.3-.7c0-.1-.1-.3-.2-.4-.1-.3-.2-.6-.3-.8-.1-.3-.2-.6-.3-.8 0-.1-.1-.3-.2-.4l-.3-.9.1.3v.6c0 .1 0 .2-.1.4l-.4 1.7c0 .2-.1.3-.2.5s-.1.3-.2.4c0 .1-.1.1-.2.2l-.3.3-.1.1s-.1 0-.1.1l-.3.2h-.1l-.4.2h-.1l-.4.1h-7.8999999999999995l-1.3 3.7 3 6.1h-4.9l-2 6.2-.2.5c-.1.2-.2.3-.3.4l-.3.3-.1.1-.3.2-.1.1-.4.2-.5.2h-.1l-.4.1h-4.9l-.6-.1c-.2-.1-.3-.1-.4-.2l-.2-.1s-.1-.1-.1-.2l4.4 7 .3.3s.3.2.4.2c.2.1.3.1.5.1h5.3c.2 0 .3-.1.4-.1l.4-.2h.1l.1-.1.1-.1.1-.1.3-.3s0-.1.1-.1l.1-.1.1-.1v-.5l1.8-5.9h6.6c.4-.5.5-.5.7-.6zm-1.9-9c0 .1-.1.2-.1.2-.1.2-.2.3-.2.4l-.3.4c-.1.1-.2.2-.3.2 0 0-.1 0-.1.1l-.3.2h-.1c-.1.1-.3.1-.5.2h-.1l-.4.1h-.4l.6-1.9 2.2.1zM94.7 90v-.4l-.2-.8v-.2l-.6-1.6c0-.1 0-.1-.1-.2 0-.1-.1-.3-.1-.5l-.1-.3-.2-.6v-.2l-.1-.3-.1-.4-.1-.3c0-.2-.1-.4-.1-.5v-.1l-.1-.4-.2-.7v.8c0 .1-.1.2-.2.4l-.3.3-.1.1-.3.2h-.1c-.1.1-.3.1-.4.1h-.1c-.1 0-.3.1-.5.1h-4.7c-.3 0-.7 0-1-.1-.3-.1-.6-.1-.8-.3-.3-.1-.5-.3-.7-.5-.2-.2-.4-.4-.5-.7l-2.7-6h-2.1l-1.1 5.3-.1.5c-.1.2-.1.3-.2.4l-.3.3v.1l-.3.3s-.1 0-.1.1l-.3.2h-.1c-.1.1-.3.1-.5.2h-.1l-.4.1h-4.2c-.3 0-.6 0-.8-.1-.2 0-.5-.1-.6-.2l-.5-.3-.3-.4 3.3 7 .3.4c.1.1.3.2.5.3l.6.2s.5.1.8.1h4.2c.1 0 .2 0 .3-.1h.1l.4-.1h.2c.1 0 .2-.1.3-.2h.2l.3-.2.2-.2.1-.1v-.1s0-.1.1-.1c0 0 0-.1.1-.1v-.5l1.1-5h2l2.6 5.7c.1.3.3.5.5.7.2.2.4.3.7.5.2.1.5.2.8.3.3.1.6.1.9.1h5.199999999999998c.1 0 .1 0 .2-.1h.1l.3-.1h.1c.1-.1.2-.2.3-.2v-.8999999999999999c-.4-.6-.4-.7-.4-.7zM129.7 82.4v.5l-.1.4-.2.3-.2.2h-.1l-.3.2h-.1c-.1.1-.2.1-.4.1h-.1l-.5.1h-8.7v-1.8h6.199999999999999c.1 0 .2 0 .3-.1h.30000000000000004c.1 0 .2-.1.3-.2 0 0 .1 0 .1-.1h.1c.1-.1.2-.2.2-.3v-2.8l-.1-4.9h.4c.1 0 .2 0 .2-.1h.30000000000000004c.1 0 .2-.1.3-.2h.2l.2-.2.1-.1v-.9999999999999999l-.1-8v.5l-.1.4c-.1.1-.1.2-.2.4l-.1.1-.3.3-.1.1-.3.2c-.1 0-.1 0-.2.1-.1 0-.2.1-.4.1h-8.3l-.1 2.9.5 6.1h-.6l-.1 3.1.5 6.1h-6.2c-.4 0-.8 0-1.1-.1-.3-.1-.6-.2-.8-.3s-.4-.3-.5-.5c-.1-.2-.2-.4-.3-.7l1.1 7c0 .3.1.5.3.7.1.2.3.4.5.5.2.1.5.2.8.3.3.1.6.1 1 .1h15.399999999999999c.1 0 .1 0 .2-.1h.2l.3-.2h.1c.1-.1.2-.1.2-.2l.1-.1v-1.0999999999999999l.2-7.7zm-10.5-8.2h7.3c0 .1-.1.2-.2.3l-.3.3-.1.1-.3.2c-.1 0-.1 0-.2.1l-.4.1h-5.800000000000001v-1.1zM213.2 82.3c-.1.2-.3.4-.5.5l-.1.1-.6.5s-.1 0-.1.1c-.2.1-.4.3-.7.4 0 0-.1 0-.1.1-.2.1-.5.2-.8.3h-.1l-.9.3h-.1l-1 .2h-.1c-.4.1-.8.1-1.2.1h-1.4000000000000001c-1.1 0-2.2-.1-3.2-.2-.3 0-.7-.1-1-.2l3.6-6.6v-.5c-.3-.6-1.2-1.1-2.6-1.5-.4-.1-.8-.2-1.2-.4h.9999999999999999s.1 0 .1-.1l.1-.1v-.1l.1-.1c1.3-2.6 2.7-5.2 4-7.9 0 .1-.1.2-.2.2l-.1.1-.2.1s-.1 0-.1.1l-.2.1h-.8c-.1 0-.3-.1-.5-.1l-.5-.1-.5-.2-1.2-.4-1.1-.3c-.4-.1-.7-.2-1.1-.2-.4-.1-.8-.1-1.2-.1h-1.5000000000000004l-.1.1-2.9 6.4c-.7-.3-1.3-.7-1.9-1.1-1.5-1.1-2.8-2.5-3.4-4.5l-.3-1.1c-.1-.4-.1-.7-.1-1 0-.3 0-.7.1-1l.2-.9-3.1 8c-.1.3-.2.5-.2.8-.1.3-.1.6-.1.9 0 .3 0 .6.1 1 .1.3.1.7.3 1 .5 1.6 1.5 2.8 2.6 3.8-.1.2-.2.3-.2.5v.1c-.1.2-.2.4-.3.5 0 0 0 .1-.1.1l-.3.4-.1.2c-.1.2-.3.3-.5.5l-.5.4-.2.1-.4.3c-.1.1-.2.1-.2.2-.1.1-.3.2-.4.2l-.3.1-.4.2-.3.1-.5.2c-.1 0-.2.1-.2.1l-.8.3c-.3.1-.5.2-.8.2-.1 0-.2 0-.3.1l-.6.1c-.1 0-.2 0-.4.1l-.6.1c-.1 0-.3 0-.4.1-.2 0-.4 0-.6.1h-11c-.5 0-.9 0-1.3-.1s-.7-.2-1-.4c-.3-.2-.5-.4-.7-.7-.2-.3-.3-.6-.4-.9l-3.9-19.9v-.8999999999999999l-1.6 8.2v.8l3.7 18.9.3.9c.2.3.4.5.6.7.3.2.6.3.9.4.4.1.7.1 1.2.1h10.5c.2 0 .4 0 .6-.1h.6000000000000001c.1 0 .2 0 .3-.1h.30000000000000004l.6-.1c.1 0 .2 0 .3-.1l.8-.2.7-.2h.1c.1 0 .2-.1.2-.1l.5-.2h.1l.2-.1.4-.2c.1 0 .2-.1.2-.1.1-.1.3-.2.4-.2.1 0 .2-.1.2-.1s.1 0 .1-.1l.3-.2.2-.1.5-.4c.2-.2.3-.3.4-.5l.1-.2.2-.3s0-.1.1-.1c0 0 0-.1.1-.1l.1-.1.2-.3v-.2l.1-.2.2-.3c1-2.4 2-4.8 3-7.1l.6.5c1 .7 2.1 1.2 3.2 1.7l-2.6 5.6c-.2.3-.2.6-.2.9 0 .3.1.5.3.7l.6.6c.2.2.5.3.8.5.5.3 1.1.5 1.9.8.7.3 1.6.5 2.5.7.9.2 1.9.4 2.9.5 1 .1 2 .2 3 .2h1.4000000000000001c.4 0 .8-.1 1.1-.1h.2l.9-.2h.1c.3-.1.6-.2.8-.3h.2c.1 0 .1 0 .2-.1l.6-.3s.1 0 .1-.1c.2-.1.4-.2.6-.4l.2-.1c.1-.1.2-.2.4-.3l.1-.1c.2-.2.3-.3.4-.5v-.4l4.4-7.1c.2.2.2.3.1.4zm-15.1-7.6zm-1.5 8.7c-.8-.3-1.5-.6-2-.8l-.9-.5-.4-.3.6.2c1.7.6 3.3 1 4.6 1.4 1.1.4 1.9.7 2.3 1.2l-1.5-.3c-1-.4-1.9-.6-2.7-.9zM147.1 70.5l.9 6.7c0 .4.1.8.2 1.3s.2.9.3 1.3c.1.4.2.8.2 1.1.1.3.1.5.1.5l1-7.5s0-.2-.1-.6-.2-.7-.3-1.2c-.1-.4-.2-.9-.3-1.4-.1-.5-.2-.9-.2-1.3l-.9-7.1v-.8l-.9 8.1v.9000000000000001zM142 83.2l-.1.3-.2.3-.1.1-.3.2h-.1c-.1.1-.2.1-.3.1h-.1c-.1 0-.2.1-.4.1h-.1c-.1 0-.3 0-.4.1h-3.9c-.5 0-.9 0-1.2-.1-.4-.1-.7-.2-.9-.4-.2-.2-.4-.4-.6-.7-.1-.3-.2-.6-.2-.9l-1-19.9v-.4l-.1 8.1v.4l.9 18.9c0 .3.1.6.2.9.1.3.3.5.5.7.2.2.5.3.9.4.3.1.7.1 1.2.1h4.3999999999999995c.1 0 .1 0 .2-.1h.1l.4-.2.3-.3v-1.2l.6-7.1c.4.4.3.5.3.6zM159.6 83.5c0 .1-.1.2-.2.3 0 .1-.1.1-.2.2l-.1.1-.2.1h-.1l-.3.1c-.2.1-.3.1-.5.1h-4.8999999999999995c-.4 0-.7 0-1.1-.1-.3-.1-.6-.1-.9-.3s-.6-.3-.8-.5c-.2-.2-.5-.4-.7-.7l-5.9-7.8c-.3-.4-.7-.9-1-1.4-.3-.5-.6-1-.9-1.4-.3-.4-.5-.8-.7-1.1-.2-.3-.3-.5-.3-.5l-.6 7.7s.1.2.3.5c.2.3.4.6.6 1.1l.9 1.3c.3.5.6.9 1 1.3l5.6 7.4c.2.2.4.5.7.6.2.2.5.3.8.4l.9.3c.3.1.7.1 1 .1h4.799999999999999l.4-.1.3-.1s.1 0 .1-.1h.1l.3-.3v-.7l1.6-7v.5z"/></g><path fill="#FFAE31" d="M69.1 60.2c.4 0 .8 0 1 .1s.5.2.7.4c.2.2.3.4.3.7 0 .3 0 .6-.1 1l-.4 1.7c-.1.4-.2.7-.4.9-.2.3-.4.5-.7.7-.3.2-.6.3-.9.4-.3.1-.7.1-1.2.1h-7.3l-1.1 3.8h5.6c.4 0 .8 0 1.1.1.3.1.5.2.7.4.2.2.3.4.3.7 0 .3 0 .6-.1 1l-.5 1.7c-.1.4-.2.7-.4 1-.2.3-.4.5-.7.7-.3.2-.6.3-1 .4-.4.1-.8.1-1.2.1h-5.8l-2 6.2c-.1.4-.3.7-.5.9-.2.3-.5.5-.7.7s-.6.3-1 .4c-.4.1-.8.1-1.3.1h-3.4c-.5 0-.9 0-1.2-.1s-.6-.2-.7-.4c-.2-.2-.3-.4-.3-.7 0-.3 0-.6.2-.9l7.1-19.9c.1-.4.3-.7.5-1 .2-.3.4-.5.7-.7.3-.2.6-.3.9-.4.3-.1.7-.1 1.1-.1h12.7zM93.5 68c-.1.6-.3 1.3-.5 1.9-.3.6-.6 1.3-1 1.9-.4.6-.9 1.2-1.5 1.7s-1.3 1-2.1 1.3c0 0 0 .1.1.2l.2.3c.1.1.2.3.3.5l.4.6 3 5.4c.2.4.3.8.3 1.1s-.1.6-.4.8c-.2.2-.5.4-.9.5s-.9.2-1.4.2h-4c-.3 0-.7 0-1-.1-.3-.1-.6-.1-.8-.3-.3-.1-.5-.3-.7-.5s-.3-.2-.5-.5l-2.7-6h-2.1l-1.1 5.3c-.1.4-.2.7-.4.9-.2.3-.4.5-.7.7-.3.2-.6.3-1 .4-.4.1-.8.1-1.3.1h-3.4c-.5 0-.9 0-1.2-.1-.3-.1-.6-.2-.8-.4-.2-.2-.3-.4-.4-.7-.1-.3 0-.6.1-.9l5.1-19.9c.1-.4.2-.7.4-1 .2-.3.4-.5.7-.7.3-.2.6-.3.9-.4s.7-.1 1.1-.1h9.2c.5 0 1 0 1.5.1.4 0 .8.1 1.2.2.4.1.7.1 1 .2.7.2 1.4.6 2 1 .6.4 1.1 1 1.5 1.6.4.6.7 1.3.8 2.1.2.9.2 1.7.1 2.6zm-8.6.3l.1-.5c0-.2 0-.3-.1-.5s-.2-.3-.3-.4c-.1-.1-.3-.3-.6-.4-.1-.1-.3-.1-.5-.1l-.5-.1h-2.5l-1 4.6h1.8c.5 0 1 0 1.4-.1.4-.1.7-.2 1-.5.3-.2.5-.5.7-.8.3-.3.4-.7.5-1.2"/><path fill="#FFAE31" d="M103.9 60.2c.4 0 .8 0 1.1.1.3.1.5.2.7.4.2.2.3.4.4.7.1.3.1.6.1 1l-1.7 19.9c0 .4-.1.7-.3.9-.1.3-.3.5-.6.7-.3.2-.6.3-.9.4-.4.1-.8.1-1.2.1h-3.4c-.5 0-.9 0-1.2-.1-.3-.1-.6-.2-.8-.4-.2-.2-.4-.4-.5-.7-.1-.3-.1-.6-.1-.9l2.5-19.9c0-.4.1-.7.3-1 .1-.3.3-.5.6-.7.2-.2.5-.3.8-.4s.7-.1 1.1-.1h3.1zM126 60.2c.4 0 .8 0 1.1.1s.6.2.8.4c.2.2.4.4.5.7.1.3.2.6.2 1l.1 1.7c0 .4 0 .7-.1.9s-.3.5-.5.7c-.2.2-.5.3-.8.4-.3.1-.7.1-1.1.1h-7.5l-.1 2.9h5.5c.4 0 .8 0 1.1.1.3.1.6.2.8.4s.4.4.5.7.2.6.2.9v1.7c0 .4 0 .7-.2 1s-.3.5-.5.7c-.2.2-.5.3-.8.4-.3.1-.7.1-1.2.1h-5.6l-.1 3.1h8.5c.5 0 .9 0 1.2.1.3.1.6.2.9.4.2.2.4.4.6.7.1.3.2.6.2.9l.1 1.7c0 .4 0 .7-.2.9-.1.3-.3.5-.5.7-.2.2-.5.3-.9.4-.4.1-.8.1-1.2.1h-15c-.5 0-.9 0-1.2-.1-.3-.1-.6-.2-.9-.4-.2-.2-.4-.4-.5-.7-.1-.3-.1-.6-.1-.9l1.2-19.9c0-.4.1-.7.2-1s.3-.5.5-.7c.2-.2.5-.3.8-.4.3-.1.7-.1 1.1-.1l12.9.3zM188.4 72.3c.6 1.9.8 3.6.5 5.1-.3 1.5-.9 2.8-2 3.9s-2.5 1.9-4.3 2.4c-1.8.6-4 .8-6.4.8h-8.5c-.5 0-.9 0-1.3-.1s-.7-.2-1-.4c-.3-.2-.5-.4-.7-.7-.2-.3-.3-.6-.4-.9l-3.9-19.9c-.1-.4-.1-.7 0-1 .1-.3.2-.5.3-.7.2-.2.4-.3.7-.4.3-.1.7-.1 1.1-.1h7.5c2.2 0 4.3.3 6.2.8 1.9.5 3.7 1.3 5.3 2.4 1.6 1 3 2.3 4.1 3.8 1.3 1.4 2.2 3.1 2.8 5zm-14 6.1c1.1 0 2-.1 2.8-.4.8-.3 1.4-.6 1.8-1.2.4-.5.7-1.2.8-1.9.1-.8 0-1.7-.3-2.7-.3-1-.7-1.9-1.2-2.6-.5-.8-1.1-1.4-1.8-1.9s-1.5-.9-2.4-1.1c-.9-.2-1.8-.4-2.8-.4h-1.8l2.9 12.2h2"/><path fill="#FFAE31" d="M196.5 59.8c.8 0 1.6.1 2.4.2.8.1 1.6.2 2.3.4l2.1.6s1.2.4 1.6.6c.4.2.8.4 1.1.7.3.2.5.5.7.7.2.3.3.5.3.8.1.3.1.6 0 .9l-.3 1.9c0 .2-.1.4-.2.6-.1.2-.2.3-.3.4s-.2.2-.4.2c-.1 0-.3.1-.5.1h-.4c-.1 0-.3-.1-.5-.1l-.5-.1s-.3-.1-.5-.2l-1.2-.4-1.1-.3c-.4-.1-.7-.2-1.1-.2-.4-.1-.8-.1-1.2-.1-.4 0-.7 0-1 .1-.3.1-.4.1-.6.2-.1.1-.2.2-.2.4 0 .1 0 .3.1.4.3.7 1.2 1.2 2.5 1.6 1.3.4 3 .8 4.8 1.4 1.8.6 3.6 1.3 5.2 2.3 1.6 1.1 3 2.5 3.8 4.4.5 1.1.6 2.1.6 3-.1.9-.4 1.8-1.1 2.5s-1.6 1.3-2.8 1.7c-1.2.4-2.8.6-4.6.6-1.1 0-2.2-.1-3.2-.2-1.1-.1-2.1-.3-3.1-.6-1-.2-1.9-.5-2.6-.8-.8-.3-1.5-.6-2-.8l-.9-.5c-.3-.2-.5-.4-.7-.7-.2-.2-.3-.5-.3-.8 0-.3.1-.6.3-1l1-1.9c.1-.2.2-.3.3-.4.1-.1.2-.2.4-.3l.4-.2.5-.1h.4s.3 0 .5.1l.5.1.6.2c.3.1.6.2 1 .3.4.1.8.3 1.3.5s1 .3 1.5.4c.5.1 1.1.2 1.7.2.4 0 .8 0 1-.1.3-.1.5-.1.6-.2.1-.1.2-.2.2-.3 0-.1 0-.3-.1-.4-.3-.6-1.2-1.1-2.6-1.5s-3.1-.9-4.8-1.4c-1.8-.6-3.6-1.3-5.1-2.4-1.5-1.1-2.8-2.5-3.4-4.5-.4-1.2-.5-2.2-.3-3.2.2-.9.6-1.8 1.3-2.5.7-.7 1.6-1.2 2.7-1.6 1.1-.5 2.4-.7 3.9-.7zM134.5 60.2h3.7c.4 0 .7 0 1 .1.3.1.6.1.8.3.3.1.5.3.7.5s.4.4.6.7l5.5 7.8c.3.4.7.9 1 1.4.3.5.7 1 1 1.4.3.4.5.8.7 1.1.2.3.3.5.3.5s0-.2-.1-.5-.2-.7-.3-1.2l-.3-1.5c-.1-.5-.2-1-.2-1.4l-.9-7.1v-1c.1-.3.2-.5.4-.7.2-.2.4-.3.7-.4.3-.1.7-.1 1.1-.1h3.1c.4 0 .8 0 1.1.1.3.1.6.2.9.4.2.2.4.4.6.7.2.3.3.6.3 1l3.5 19.9c.1.4.1.7 0 .9-.1.3-.2.5-.4.7s-.5.3-.8.4c-.3.1-.7.1-1.2.1h-4.1c-.4 0-.7 0-1.1-.1-.3-.1-.6-.1-.9-.3-.3-.1-.6-.3-.8-.5-.2-.2-.5-.4-.7-.7l-5.9-7.8c-.3-.4-.7-.9-1-1.4-.3-.5-.6-1-.9-1.4-.3-.4-.5-.8-.7-1.1-.2-.3-.3-.5-.3-.5s0 .2.1.5c0 .3.1.7.2 1.1.1.5.2 1 .2 1.4.1.5.1 1 .2 1.4l.6 7.1c0 .4 0 .7-.1.9s-.2.5-.5.7c-.2.2-.5.3-.8.4-.3.1-.7.1-1.2.1h-3.6c-.5 0-.9 0-1.2-.1-.4-.1-.7-.2-.9-.4-.2-.2-.4-.4-.6-.7-.1-.3-.2-.6-.2-.9l-1-19.9c0-.4 0-.7.1-1s.2-.5.4-.7c.2-.2.5-.3.8-.4.3.2.7.2 1.1.2z"/><g fill="#FF8E32"><path d="M45.9 83.3c0 .3.1.5.3.7s.4.3.7.4c.3.1.7.1 1.2.1h3.4c.5 0 .9 0 1.3-.1s.7-.2 1-.4c.3-.2.5-.4.7-.7.2-.3.4-.6.5-.9l2-6.2h5.8c.4 0 .8 0 1.2-.1s.7-.2 1-.4.5-.4.7-.7c.2-.3.3-.6.4-1l.1-.4c-6 .4-12 1.2-17.5 1.5l-2.6 7.4c-.1.2-.2.5-.2.8zM68.1 83.3c.1.3.2.5.4.7.2.2.5.3.8.4.3.1.7.1 1.2.1h3.4c.5 0 .9 0 1.3-.1s.7-.2 1-.4c.3-.2.5-.4.7-.7.2-.3.3-.6.4-.9l1.1-5.3h2.1l2.7 6c.1.3.3.5.5.7.2.2.4.4.7.5l.8.3c.3.1.6.1 1 .1h4c.5 0 1-.1 1.4-.2.4-.1.7-.3.9-.5.2-.2.3-.5.4-.8s-.1-.7-.3-1.1l-3-5.4c-.1-.2-.3-.5-.4-.6-.1-.2-.2-.4-.3-.5-.1-.1-.2-.3-.2-.3-.1-.1-.1-.1-.1-.2h.1c-1.3-.2-2.6-.4-4-.7-4.5-.9-9.2-1-14-.8l-2.3 9.1c-.4 0-.4.3-.3.6zM95.6 83.3c.1.3.2.5.5.7.2.2.5.3.8.4.3.1.7.1 1.2.1h3.4c.5 0 .9 0 1.2-.1.4-.1.7-.2.9-.4.3-.2.4-.4.6-.7l.3-.9.5-6.6c-2.7.1-5.6.1-8.7-.1l-.8 6.7c0 .3 0 .6.1.9zM109.4 83.3c.1.3.3.5.5.7s.5.3.9.4c.3.1.8.1 1.2.1h15c.5 0 .9 0 1.2-.1s.6-.2.9-.4c.2-.2.4-.4.5-.7.1-.3.2-.6.2-.9l-.1-1.7c0-.4-.1-.7-.2-.9s-.3-.5-.6-.7c-.2-.2-.5-.3-.9-.4-.3-.1-.7-.1-1.2-.1h-8.5l.1-3.1h5.6c.4 0 .8 0 1.2-.1.3-.1.6-.2.8-.4.2-.2.4-.4.5-.7.1-.3.2-.6.2-1v-.1c-3.2.2-6.1.7-9.1 1.2-2.6.5-5.2.9-7.9 1.2l-.4 6.9c-.1.2 0 .5.1.8zM164.8 83.3c.2.3.4.5.7.7.3.2.6.3 1 .4s.8.1 1.3.1h8.5c2.5 0 4.6-.3 6.4-.8 1.8-.6 3.3-1.4 4.3-2.4 1.1-1.1 1.7-2.3 2-3.9.2-1.2.1-2.6-.3-4.2-3 .1-5.6.6-8.8 1.1v.5c-.1.8-.4 1.4-.8 1.9s-1.1.9-1.8 1.2c-.8.3-1.7.4-2.8.4h-1.9l-.6-2.6c-2.6.6-5.3 1.2-8.5 1.4l1 5.1c0 .5.1.8.3 1.1zM202.3 75.9c1.3.4 2.3.9 2.6 1.5.1.1.1.3.1.4 0 .1-.1.2-.2.3-.1.1-.3.2-.6.2-.3.1-.6.1-1 .1-.6 0-1.2-.1-1.7-.2s-1.1-.3-1.5-.4c-.5-.2-.9-.3-1.3-.5-.4-.1-.7-.3-1-.3l-.6-.2c-.2-.1-.4-.1-.5-.1l-.5-.1h-.4c-.2 0-.4 0-.5.1-.2 0-.3.1-.4.2l-.4.3-.3.4-1 1.9c-.2.4-.3.7-.3 1 0 .3.1.6.3.8.2.2.4.5.7.7s.6.4.9.5c.5.3 1.2.6 2 .8.8.3 1.7.5 2.6.8s2 .4 3.1.6c1.1.1 2.1.2 3.2.2 1.8 0 3.4-.2 4.6-.6s2.2-1 2.8-1.7c.7-.7 1-1.6 1.1-2.5.1-.9-.1-2-.6-3-.2-.5-.5-1-.8-1.4-5.3.1-10.7-.3-15.4-1.4l-.9-.2 1.1.4c1.7.5 3.4 1 4.8 1.4zM133.3 83.3c.1.3.3.5.6.7.2.2.6.3.9.4.4.1.8.1 1.2.1h3.4c.5 0 .9 0 1.2-.1.3-.1.6-.2.8-.4.2-.2.4-.4.5-.7.1-.3.1-.6.1-.9l-.6-7.1c0-.4-.1-.9-.2-1.4v-.2c-3.1-.5-5.9-.8-8.6-.9l.5 9.5c0 .4.1.7.2 1zM142.7 74l.9 1.3 5.9 7.8c.2.3.4.5.7.7.2.2.5.3.8.5l.9.3s.7.1 1.1.1h4.1c.5 0 .9 0 1.2-.1.3-.1.6-.2.8-.4.2-.2.3-.4.4-.7.1-.3.1-.6 0-.9l-.9-5.1c-2.7-.2-5.7-.7-9.2-1.7-2.3-.9-4.5-1.4-6.7-1.8z"/></g><path fill="#FFAE31" d="M197.7 40.3c-.4-.8-.8-1.7-1.4-2.6l-.2-.3c-.7-1-1.4-2-2.4-2.9-.9-.9-2-1.8-3.2-2.6-1.2-.8-2.6-1.4-4.1-1.9.6-.5 1.1-1.1 1.4-1.9.3-.7.5-1.5.5-2.4 0-.9 0-1.8-.2-2.7-.2-.9-.5-1.8-.9-2.7-.9-2-2-3.8-3.3-5.3-1.3-1.5-2.8-2.8-4.5-3.8-1.7-1-3.5-1.8-5.4-2.3-1.9-.5-3.9-.7-6-.7h-10.9c-.6 0-1.1.1-1.5.3-.4.2-.7.4-.9.8-.2.3-.3.8-.4 1.3s0 1.1.2 1.8l6.8 30.2 1.6 7.4c.1.7.4 1.3.7 1.8s.7 1 1.2 1.3c.5.4 1 .6 1.6.8.6.2 1.3.3 2.1.3h14.3c2.7 0 5.2-.2 7.4-.7 2.2-.5 4.2-1.2 5.6-2.3 1.5-1.1 2.4-2.5 2.8-4.3.6-1.8.3-4-.9-6.6zm-25.9-21.1c.5 0 1 .1 1.5.3.4.2.8.4 1.2.7.3.3.6.6.9 1 .2.4.4.7.5 1.1.1.3.2.7.2 1 0 .4 0 .7-.2 1-.1.3-.3.6-.6.8-.3.2-.7.3-1.2.3h-3.8l-1.9-6.2h3.4zm12.1 21.8c0 .4-.2.8-.4 1.2-.2.4-.6.6-1 .9-.5.2-1 .3-1.7.3h-5l-.7-2.3-1.5-5h4.8c.7 0 1.3.1 1.9.3.6.2 1.1.5 1.6.8.5.3.8.7 1.1 1.2.3.4.5.7.6 1.1l.1.2c.2.4.2.8.2 1.3z"/><path fill="#FF8E32" d="M92 40.8l.6 9.8c.1.6.2 1.1.4 1.6s.5.8.9 1.1c.4.3.8.5 1.4.7.5.2 1.1.2 1.8.2h8.3c.7 0 1.3-.1 1.9-.2.6-.1 1.1-.4 1.5-.7.4-.3.8-.7 1.2-1.1.3-.5.6-1 .8-1.6l3.6-12.8c-2.1.3-4.2.6-6.2 1-5.2 1-10.3 1.8-16.2 2zM64.6 52.2c.2.5.4.8.7 1.1.3.3.7.5 1.3.7.5.2 1.1.2 1.8.2h8.4c.7 0 1.3-.1 1.9-.2.6-.2 1.1-.4 1.6-.7.5-.3.9-.7 1.3-1.1.4-.5.7-1 1-1.6l4.4-9.7c-5.8-.1-12.4-.7-20.2-2.2l-1-.2-1.4 12.1c0 .6.1 1.1.2 1.6zM125.4 51.9c.2.5.5 1 .9 1.3.4.4.9.6 1.5.8.6.2 1.3.3 2 .3h24.5c.8 0 1.4-.1 2-.3.5-.2 1-.4 1.3-.8.3-.4.5-.8.6-1.3.1-.5.1-1.1 0-1.8l-.6-3.2c-.1-.7-.3-1.3-.6-1.8s-.7-1-1.1-1.3-.9-.6-1.5-.8c-.6-.2-1.2-.3-1.9-.3h-13.4l-.4-4.3c-5-.9-9.5-1.3-13.7-1.3l.2 13c-.2.6-.1 1.2.2 1.8zM163.9 51.9c.3.5.7 1 1.2 1.3.5.4 1 .6 1.6.8.6.2 1.3.3 2.1.3h14.3c2.7 0 5.2-.2 7.4-.7 2.2-.5 4.2-1.2 5.6-2.3 1.5-1.1 2.4-2.5 2.8-4.3.3-1.8 0-4-1.2-6.7-.4-.8-.8-1.7-1.4-2.6-4.3.1-7.9 1-12.7 1.8l.1.2c.2.4.2.9.2 1.3s-.2.8-.4 1.2c-.2.4-.6.6-1 .9-.5.2-1 .3-1.7.3h-5l-.7-2.3c-4 .9-8.2 1.7-13.5 1.6l1.6 7.4c.2.6.4 1.2.7 1.8z"/><g fill="#FFFA00"><path opacity=".2" enable-background="new" d="M77.5 39.4l.2-.4c.1-.3.2-.6.4-1.1l.6-1.5c.2-.6.5-1.2.8-1.7l.6-1.3-2 3.9-.3.6c-.1.4-.2.8-.2 1.1-.1.2-.1.4-.1.4zM78.7 54c.6-.2 1.1-.4 1.6-.7.5-.3.9-.7 1.3-1.1.4-.5.7-1 1-1.6l7.6-16.6c.3-.6.5-1.2.7-1.7.2-.6.4-1.1.5-1.6.1-.5.2-.9.3-1.1.1-.3.1-.4.1-.4s0 .2-.1.5c0 .3-.1.7-.1 1.1s-.1 1-.1 1.5v1.7l1.1 16.6c.1.6.2 1.1.4 1.6s.5.8.9 1.1c.4.3.8.5 1.4.7.1 0 .3 0 .4.1 2.6-4.8 5.1-9.6 7.5-14.4 4.5-9.2 9-18.3 13.8-27.4l2.1-3.8c-.2 0-.5-.1-.8-.1h-4.5c-.5 0-1 .1-1.5.2-.4.2-.8.4-1.2.7-.3.3-.7.7-.9 1.1-.3.5-.5 1-.6 1.6l-6.4 22.6c-.2.6-.3 1.2-.5 1.7-.1.6-.2 1.1-.3 1.5-.1.5-.2.8-.2 1.1l-.1.4v-3.1c0-.6 0-1.1-.1-1.8l-1.6-22.4c0-.6-.1-1.1-.2-1.6s-.4-.8-.6-1.1c-.3-.3-.6-.5-1-.7-.4-.2-.9-.2-1.4-.2h-2.7c-.5 0-1 .1-1.5.2l-.8.3c-4.2 8.1-8.1 16.2-12.2 24.4l-.6 1.3c-.3.6-.6 1.2-.8 1.7-.2.6-.4 1.1-.6 1.5-.2.5-.3.8-.4 1.1-.1.3-.2.4-.2.4s0-.2.1-.5.1-.6.2-1.1c-2.8 5.5-5.7 10.9-8.6 16.3h7.7c.7.2 1.4.2 1.9 0zM62.8 76.1c.4 0 .8 0 1.2-.1s.7-.2 1-.4c.3-.2.5-.4.7-.7.2-.3.3-.6.4-1l.5-1.7c.1-.4.1-.7.1-1 0-.3-.1-.5-.3-.7s-.4-.3-.7-.4-.7-.1-1.1-.1h-3.8l-3.2 6.1h5.2zM67.4 66.3c.4 0 .8 0 1.2-.1.3-.1.7-.2.9-.4.3-.2.5-.4.7-.7.2-.3.3-.6.4-.9l.4-1.7c.1-.4.1-.7.1-1 0-.3-.1-.5-.3-.7-.2-.2-.4-.3-.7-.4s-.6-.1-1-.1h-3.1c-1.1 2-2.2 4-3.2 6.1-.1-.1 4.6-.1 4.6-.1zM54.6 83.3c.2-.3.4-.6.5-.9l1.3-4.1-2.9 5.4-.4.7c.3-.1.6-.2.8-.4.3-.2.5-.5.7-.7zM89.1 60.7c-.3-.1-.6-.2-1-.2l-1.2-.2c-.4 0-.9-.1-1.5-.1h-9.2c-.4 0-.8 0-1.1.1-.3.1-.6.2-.9.4-.3.2-.5.4-.7.7-.2.3-.3.6-.4 1l-5.1 19.9c0 .4 0 .7.1 1 .1.3.2.5.4.7.2.2.5.3.8.4.3.1.7.1 1.2.1h3.4c.5 0 .9 0 1.3-.1s.7-.2 1-.4c.3-.2.5-.4.7-.7.2-.3.3-.6.4-.9l1.1-5.3h2.1l1.5 3.3 4.4-8.4c1.7-3.3 3.5-6.6 5.3-9.9l-.3-.3c-.9-.5-1.5-.9-2.3-1.1zm-4.2 7.6c-.1.5-.2.8-.4 1.2-.2.3-.4.6-.7.8-.3.2-.6.4-1 .5-.4.1-.8.1-1.4.1h-1.8l1-4.6h2.5c.2 0 .3 0 .5.1l.5.1c.3.1.5.2.6.4l.3.4c.1.2.1.3.1.5-.2.2-.2.4-.2.5zM157.5 53.2c.3-.4.5-.8.6-1.3.1-.4.1-.8 0-1.2-.1.8-.3 1.6-.6 2.5zM186.5 30.1c.6-.5 1.1-1.1 1.4-1.9.3-.7.5-1.5.5-2.4 0-.9 0-1.8-.2-2.7-.2-.9-.5-1.8-.9-2.7-.9-2-2-3.8-3.3-5.3-1.3-1.5-2.8-2.8-4.5-3.8-1.7-1-3.5-1.8-5.4-2.3-1.1-.3-2.2-.5-3.4-.6-3.3 9.9-6.3 20-9.2 30l-.6 2 2.1 9.6c.1.7.4 1.3.7 1.8.3.5.7 1 1.2 1.3.5.4 1 .6 1.6.8.6.2 1.3.3 2.1.3h16.400000000000002c2-7.2 4.1-14.4 6.3-21.5-.3-.2-.6-.4-1-.7-.9-.8-2.3-1.4-3.8-1.9zm-18.1-10.9h3.4c.5 0 1 .1 1.5.3.4.2.8.4 1.2.7.3.3.6.6.9 1 .2.4.4.7.5 1.1.1.3.2.7.2 1 0 .4 0 .7-.2 1-.1.3-.3.6-.6.8-.3.2-.7.3-1.2.3h-3.8l-1.9-6.2zm15.5 21.8c0 .4-.2.8-.4 1.2-.2.4-.6.6-1 .9-.5.2-1 .3-1.7.3h-5l-2.2-7.3h4.8c.7 0 1.3.1 1.9.3.6.2 1.1.5 1.6.8.5.3.8.7 1.1 1.2.3.4.5.8.7 1.3.2.4.2.8.2 1.3zM176.4 61c-1.9-.5-4-.8-6.2-.8h-7.5c-.4 0-.8 0-1.1.1-.3.1-.5.2-.7.4-.2.2-.3.4-.3.7-.1.3 0 .6 0 1l3.9 19.9c.1.4.2.7.4.9.2.3.4.5.7.7.3.2.6.3 1 .4.4.1.8.1 1.3.1h9.3l2-7.7c-.4.5-1.1.9-1.8 1.2-.8.3-1.7.4-2.8.4h-1.9l-2.9-12.2h1.8c1 0 1.9.1 2.8.4.9.2 1.7.6 2.4 1.1.7.5 1.3 1.1 1.8 1.9.5.8.9 1.6 1.2 2.6.2.6.2 1.1.3 1.6l2.7-9.9-.8-.6c-1.9-.8-3.7-1.6-5.6-2.2zM150.2 83.7c.2.2.5.3.8.5l.9.3s.7.1 1.1.1h4.1c.5 0 .9 0 1.2-.1.3-.1.6-.2.8-.4.2-.2.3-.4.4-.7.1-.3.1-.6 0-.9l-3.5-19.9c-.1-.4-.2-.7-.3-1-.1-.2-.3-.4-.5-.6-2 7.4-3.9 14.8-5.9 22.1.5.2.7.4.9.6zM125.4 51.9c.2.5.5 1 .9 1.3.4.4.9.6 1.5.8.6.2 1.3.3 2 .3h7c1.4-3.9 3-7.7 4.6-11.5h-2.4l-.6-5.9h5.5c1.6-3.4 3.2-6.8 4.9-10.1l-.3-.3c-.4-.4-.8-.6-1.4-.8-.5-.2-1.1-.3-1.7-.3h-8.1l-.5-5.5h10.9c.6 0 1.1-.1 1.6-.3s.8-.4 1-.8c.3-.3.4-.8.5-1.3.1-.5 0-1.1-.1-1.8l-.6-3.2c-.1-.7-.3-1.3-.6-1.8s-.6-.9-.9-1.3c-.4-.3-.8-.6-1.2-.8s-1-.3-1.5-.3h-4.2c-6.5 10.9-12 22.5-16.7 34.4l.1 7.3c-.1.7 0 1.3.3 1.9zM159.6 8.4h-2.1c-.6 0-1.1.1-1.5.3-.4.2-.7.4-.9.8-.2.3-.3.8-.4 1.3s0 1.1.2 1.8l.6 2.5c.4-.7.8-1.4 1.3-2.1.8-1.6 1.8-3.1 2.8-4.6zM128 78.6c-.3-.1-.7-.1-1.2-.1h-8.5l.1-3.1h5.6c.4 0 .8 0 1.2-.1s.6-.2.8-.4c.2-.2.4-.4.5-.7.1-.3.2-.6.2-1v-1.7c0-.4-.1-.7-.2-.9-.1-.3-.3-.5-.5-.7-.2-.2-.5-.3-.8-.4-.3-.1-.7-.1-1.1-.1h-5.5l.1-2.9h7.5c.4 0 .8 0 1.1-.1.3-.1.6-.2.8-.4.2-.2.4-.4.5-.7.1-.3.1-.6.1-.9l-.1-1.7c0-.4-.1-.7-.2-1-.1-.3-.3-.5-.5-.7-.2-.2-.5-.3-.8-.4-.3-.1-.7-.1-1.1-.1h-7.3v.1c-2.6 8-4.7 16.1-6.9 24.3h15.9l1.5-5.4-.1-.1c-.5-.6-.8-.7-1.1-.8zM134.5 60.2c-.4 0-.8 0-1.1.1-.3.1-.6.2-.8.4-.2.2-.4.4-.4.7-.1.3-.1.6-.1 1l.2 5c.7-2.4 1.5-4.8 2.3-7.2h-.1z"/></g><g enable-background="new"><g fill="#681815"><path d="M48.9 40.6v-.2l-.1-.2-3.8-2.8c.1 0 .1.1.1.2v.4c0 .1 0 .2-.1.3 0 0 0 .1-.1.1 0 0 0 .1-.1.1l-.1.2s0 .1-.1.1c0 .1-.1.1-.2.2l-.1.1-.1.1-.1-.1-.3-.3v-.1l-.2-.4c-.1-.1-.1-.3-.1-.4v-.5l-.1-3v-.3c0-.1 0-.2-.1-.2v-.1l-.1-.2-3.7-2.9c.1 0 .1.1.1.2v.1l.1.2v.4l.1 3v.5c0 .2.1.3.1.4l.2.4v.1l.3.3.1.1.3.3 3.4 2.6-.2.2-2.8 2.5-.4.4-.1.1-.3.3c-.1.1-.1.1-.1.2-.1.1-.2.2-.2.3l-.1.2c-.1.1-.2.2-.2.4l-.1.2c-.1.1-.2.3-.2.4l-.1.1-.3.6s0 .1-.1.1l-.1.3v.1l-.2.6-.8 3.3c0 .2-.1.3-.1.4 0 0 0 .1-.1.1 0 0 0 .1-.1.1 0 0 0 .1-.1.1 0 0 0 .1-.1.1l-.1.1s0 .1-.1.1l-.1.1-.1.1s-.1 0-.1.1l-.1.1h-.1s-.1 0-.1.1h-.1c-.2 0-.3 0-.5-.1l-2.1-1.6c-.5-.4-1.2-.5-2-.3-.1 0-.2 0-.3.1-.2 0-.3.1-.5.2h-.1l-.4.2h-.1c-.1 0-.1.1-.1.1l-3 1.7-.4.2-.3.1c-.2 0-.3 0-.4-.1l3.7 2.9c.1.1.2.1.4.1h.1c.1 0 .2 0 .3-.1.1 0 .2-.1.2-.1s.1 0 .1-.1l3-1.7c.1 0 .2-.1.2-.1l.4-.2h.1l.5-.2.3-.1c.6-.1 1.2-.1 1.6.1.1 0 .2.1.2.1l2 1.5c.2.2.5.2.7.2h.2s.1 0 .1-.1l.1-.1.1-.1.1-.1.1-.1.1-.1s0-.1.1-.1c0 0 0-.1.1-.1 0 0 0-.1.1-.1v-.2l.1-.4.8-3.3c0-.2.1-.4.2-.6 0-.1.1-.3.2-.4 0 0 0-.1.1-.1l.3-.6s0-.1.1-.1c.1-.1.2-.3.2-.4l.1-.2c.1-.1.2-.2.2-.4l.1-.2c.1-.1.2-.2.2-.3l.1-.2.3-.3.1-.1.4-.4 2.8-2.5.3-.3.1-.1.2-.2.1-.1.1-.2s0-.1.1-.1l.1-.1.1-.3c.3-.1.3-.2.3-.3zM16.4 45.5l.1.3c.1.1.1.2.2.2l1.9 1.5c-.2-.1-.3-.3-.4-.5l-.4-1.3c0-.1-.1-.2-.2-.2l-1.8-1.5c.1 0 .1.1.2.2l.4 1.3zM21.8 47.7v-.1c0-.1 0-.1-.1-.1l-1.9-1.5.1.1v.30000000000000004c0 .1 0 .1-.1.2v.1l-.2.3-1.3 1.6-.2.3s0 .1-.1.1l-.1.2s0 .1-.1.1l-.1.2s0 .1-.1.1l-.1.2v.2l-.1.3v.1l-.1.3v2.2l-.1.3-.2.2c-.1 0-.2.1-.2.1h-.3l-1.4-.5h-.7999999999999999c-.1 0-.1 0-.2.1l-.2.1-.2.1h-.1l-.2.1s-.1 0-.1.1c-.1.1-.2.2-.3.2l-1.4 1.3-.3.2c-.1 0-.2.1-.2.1h-.2l1.9 1.5h.2c.1 0 .1 0 .2-.1.1 0 .2-.1.3-.2l1.5-1.3c.1-.1.2-.2.3-.2 0 0 .1 0 .1-.1.1 0 .2-.1.2-.1l.2-.1.2-.1c.1 0 .1 0 .2-.1l.3-.1h.5l1.2.3h.3c.1 0 .1 0 .2-.1h.1l.1-.1.1-.2v-2.3000000000000003c0-.1 0-.2.1-.3v-.1l.1-.3v-.1l.1-.2s0-.1.1-.1l.1-.2s0-.1.1-.1l.1-.2s0-.1.1-.1l.2-.3 1.3-1.6.2-.3v-.1l.1-.1c.2-.1.2-.1.2-.2zM60 30.1v-.2s0-.1-.1-.1l-1.7-1.3s.1 0 .1.1v.30000000000000004l-.1.2-.1-.2v-.1l-.1-.3v-.3l.1-1.4v-.2c0-.1 0-.1-.1-.1l-1.7-1.3.1.1v.2l-.1 1.4v.3c0 .1 0 .2.1.3v.1l.1.2v.1l.2.2 1.4 1.1-.2.2-.1.1-1.3 1s-.1 0-.1.1l-.3.3c-.1.1-.2.2-.3.4l-.3.4v.1l-.2.4v.1l-.5 1.5c0 .1 0 .1-.1.2 0 .1 0 .1-.1.2 0 0 0 .1-.1.1l-.1.1-.1.1h-.1l-1.2-.9c-.2-.2-.6-.2-1-.2h-.1l-.3.1-1.3.7c-.1.1-.2.1-.3.1h-.2l1.7 1.3h.2c.1 0 .1 0 .2-.1l1.3-.7c.1-.1.2-.1.3-.1h.6000000000000001l1.4 1.1c.1.1.2.1.3.1h.1l.1-.1s0-.1.1-.1c0 0 .1-.1.1-.2v-.2l.5-1.5c0-.1 0-.1.1-.2 0-.1.1-.3.2-.4v-.1l.3-.4.3-.4.3-.3.1-.1 1.3-1s.1 0 .1-.1l.2-.2c.1-.1.1-.1.1-.2l.3-.3zM40.9 67.2v-.30000000000000004c0-.1-.1-.1-.2-.2l-1.7-1.3-.1-.1s0-.1-.1-.1l-.1-.2v-1.2c0-.1 0-.2.1-.3l.6-2.3v-.7s0-.1-.1-.1l-2.6-1.9.1.1v.7l-.6 2.3c0 .1 0 .2-.1.3v1.3c0 .1 0 .1.1.2 0 0 0 .1.1.1l.1.2s0 .1.1.1l.2.2 1.6 1.2v.5c0 .1-.1.2-.1.2l-.1.1c0 .1-.1.1-.2.2 0 0-.1 0-.1.1-.1.1-.2.2-.3.2l-2.1 1.2-.3.2-.1.1-.2.2-.4.4-.1.1-.4.5-.3.5-.1.1-.3.5-1.1 2.3c0 .1-.1.2-.2.3l-2.3-1.7c-.4-.3-.9-.4-1.4-.3h-.2l-2 .5h-.2c-.2 0-.3 0-.4-.1l2.6 1.9c.1.1.2.1.4.1h.2l2-.5h.2c.4-.1.8 0 1.2.2v.1c-.1.1-.1.2-.2.2-.1.1-.1.1-.2.1h-.1l-.2.1c-.1 0-.2 0-.3-.1l2.6 1.9c.1.1.2.1.3.1 0 0 .1 0 .1-.1h.1s.1 0 .1-.1c0 0 .1 0 .1-.1l.2-.2v-.1l.2-.3 1.1-2.3.3-.5.1-.1.3-.5.4-.5.1-.1.4-.4.2-.2.1-.1c.1-.1.2-.2.3-.2l2.1-1.2c.1-.1.2-.2.3-.2l.2-.2.1-.1c.1-.1.1-.2.1-.2.1-.3.1-.4.1-.5z"/></g><path fill="#FFAE31" d="M36.5 58.3c.3 0 .4.2.3.8l-.6 2.3c-.2.9 0 2 .6 2.4l1.3.9c.5.4.3 1.1-.6 1.5l-2.1 1.2c-.8.5-1.9 1.6-2.4 2.6l-1.1 2.3c-.3.6-.6.9-.9.9-.2 0-.4-.1-.5-.4l-.5-1.4c-.3-.6-1.1-.9-1.8-.8h-.2l-2 .5h-.2c-.7.1-.7-.4-.1-1.2l1.6-2.1c.7-.9 1.2-2.3 1.1-3.1l-.1-2c0-.7.3-1.2.9-1.3h.3l1.7.2h.5c.7-.1 1.6-.5 2.2-1.1l1.9-1.8c.3-.2.5-.3.7-.4z"/></g><path fill="#FFAE31" d="M39.3 30.6c.4-.1.6.2.6.9l.1 3c0 1.2.9 2.3 2 2.5l2.5.3c1 .1.9 1.1-.2 2.1l-2.8 2.5c-1.2 1-2.4 3-2.7 4.4l-.8 3.3c-.2.9-.7 1.5-1.2 1.6-.2 0-.5 0-.7-.2l-1.8-1.4c-.5-.4-1.2-.5-2-.3-.5.1-1.1.3-1.6.6l-3 1.7c-.3.2-.5.3-.7.3-.6.1-.8-.5-.2-1.5l1.7-3.4c.7-1.4.9-3.3.5-4.2l-1.1-2.3c-.4-.9.2-1.9 1.4-2.2l2.9-.7c1.2-.3 2.9-1.6 3.9-2.8l2.3-3.1c.1-.7.6-1.1.9-1.1zM15.6 44c.2 0 .3.1.4.3l.4 1.3c.2.5.8.8 1.4.7h.1l1.5-.3c.6-.1.6.3.1 1l-1.3 1.6c-.5.6-1 1.7-1 2.3v1.6c0 .5-.3.9-.6 1h-.3l-1.2-.5h-.5c-.5.1-1.1.3-1.5.7l-1.5 1.3c-.2.2-.4.3-.5.3-.2 0-.3-.2-.2-.7l.5-1.7c.2-.7.1-1.6-.3-1.9l-.9-.8c-.4-.3-.2-.8.5-1.2l1.5-.8c.6-.3 1.5-1.2 1.8-1.9l.9-1.7c.3-.4.5-.6.7-.6zM56.1 25.1c.2 0 .3.1.2.4l-.1 1.4c0 .6.3 1.1.7 1.3l1.1.3c.4.1.4.6-.2 1l-1.3 1c-.5.4-1.1 1.3-1.3 1.9l-.5 1.5c-.1.4-.3.7-.6.7-.1 0-.2 0-.3-.1l-.7-.8c-.2-.2-.6-.3-1-.2-.2 0-.3.1-.5.2l-1.3.7c-.1.1-.2.1-.3.1-.3.1-.4-.2-.1-.7l.9-1.5c.4-.6.5-1.5.4-2l-.4-1.3c-.1-.4.1-.9.6-.9l1.3-.2c.5-.1 1.3-.6 1.7-1.1l1.1-1.3c.3-.3.5-.4.6-.4z"/><path fill="#FFFA00" d="M26.7 51.9c.2 0 .5-.1.7-.3l3-1.7c.5-.3 1.1-.5 1.6-.6.8-.1 1.6 0 2 .3l2 1.4c.2.2.5.2.7.2.5-.1 1-.7 1.2-1.6l.8-3.3c.3-1.4 1.5-3.3 2.7-4.4l2.8-2.5c1.2-1 1.3-2 .2-2.1l-1.5-.3c-5.4 6.1-12.6 10.8-16.1 12.9l-.2.4c-.6 1.1-.5 1.7.1 1.6zM11.4 52.9l-.5 1.7c-.1.5-.1.7.2.7.1 0 .3-.1.5-.3l1.5-1.3c.4-.4 1-.6 1.5-.7h.5l1.2.3h.3c.4-.1.6-.4.6-1v-1.6c0-.6.4-1.7 1-2.3l1.3-1.6c.5-.6.5-1 0-1-2.8 2.9-5.9 4.3-8.4 5 .4.5.5 1.4.3 2.1zM50 34.3c.1 0 .2 0 .3-.1l1.3-.7.5-.2c.4-.1.8 0 1 .2l.7.8c.1.1.2.1.3.1.2 0 .4-.3.6-.7l.5-1.5c.2-.6.8-1.5 1.3-1.9l1.3-1c.5-.4.6-.9.2-1l-1-.1c-.3-.1-.5-.3-.6-.6-1.5 1.7-3.5 3.5-5.8 5l-.6 1.1c-.4.4-.3.7 0 .6zM25.7 69.9c-.6.8-.5 1.3.1 1.2h.2l2-.5h.2c.8-.1 1.6.2 1.8.8l.7 1.6c.1.3.3.4.5.4.3 0 .6-.4.9-.9l1.1-2.3c.4-1 1.5-2.1 2.4-2.6l2.1-1.2c.8-.5 1.1-1.2.6-1.5l-1.3-.9c-.3-.2-.6-.7-.6-1.3-2.6 1.9-5.8 4.1-8.8 5.2 0 0 0 .1-.1.1l-1.8 1.9z" opacity=".2"/><g enable-background="new"><g fill="#681815"><path d="M211.1 40.6v-.2l.1-.2 3.7-2.9c-.1 0-.1.1-.1.2v.4c0 .1 0 .2.1.3 0 0 0 .1.1.1 0 0 0 .1.1.1l.1.2s0 .1.1.1c0 .1.1.1.2.2l.1.1.1.1.1-.1.3-.3v-.1l.2-.4c.1-.1.1-.3.1-.4v-.5l.1-3v-.3c0-.1 0-.2.1-.2v-.1l.1-.2 3.7-2.9c-.1 0-.1.1-.1.2v.1l-.1.2v.4l-.1 3v.5c0 .2-.1.3-.1.4l-.2.4v.1l-.3.3-.1.1-.3.3-3.4 2.6.2.2 2.8 2.5.4.4.1.1.3.3c.1.1.1.1.1.2.1.1.2.2.2.3l.1.2c.1.1.2.2.2.4l.1.2c.1.1.2.3.2.4l.1.1.3.6s0 .1.1.1l.1.3v.1l.2.6.8 3.3c0 .2.1.3.1.4 0 0 0 .1.1.1 0 0 0 .1.1.1 0 0 0 .1.1.1 0 0 0 .1.1.1l.1.1s0 .1.1.1l.1.1.1.1s.1 0 .1.1l.1.1h.1s.1 0 .1.1h.1c.2 0 .3 0 .5-.1l2.1-1.6c.5-.4 1.2-.5 2-.3.1 0 .2 0 .3.1.2 0 .3.1.5.2h.1l.4.2h.1c.1 0 .1.1.1.1l3 1.7.4.2.3.1c.2 0 .3 0 .4-.1l-3.7 2.9c-.1.1-.2.1-.4.1h-.1c-.1 0-.2 0-.3-.1-.1 0-.2-.1-.2-.1s-.1 0-.1-.1l-3-1.7c-.1 0-.2-.1-.2-.1l-.4-.2h-.1l-.5-.2-.3-.1c-.6-.1-1.2-.1-1.6.1-.1 0-.2.1-.2.1l-2 1.5c-.2.2-.5.2-.7.2h-.2s-.1 0-.1-.1l-.1-.1-.1-.1-.1-.1-.1-.1-.1-.1s0-.1-.1-.1c0 0 0-.1-.1-.1 0 0 0-.1-.1-.1v-.2l-.1-.4-.8-3.3c0-.2-.1-.4-.2-.6 0-.1-.1-.3-.2-.4 0 0 0-.1-.1-.1l-.3-.6s0-.1-.1-.1c-.1-.1-.2-.3-.2-.4l-.1-.2c-.1-.1-.2-.2-.2-.4l-.1-.2c-.1-.1-.2-.2-.2-.3l-.1-.2-.3-.3-.1-.1-.4-.4-2.8-2.5-.3-.3-.1-.1-.2-.2-.1-.1-.1-.2s0-.1-.1-.1l-.1-.1-.1-.3c-.2 0-.2-.1-.2-.2zM243.6 45.5l-.1.3c-.1.1-.1.2-.2.2l-1.9 1.5c.2-.1.3-.3.4-.5l.4-1.3c0-.1.1-.2.2-.2l1.9-1.5c-.1 0-.1.1-.2.2l-.5 1.3zM238.2 47.7v-.1c0-.1 0-.1.1-.1l1.9-1.5-.1.1v.30000000000000004c0 .1 0 .1.1.2v.1l.2.3 1.3 1.6.2.3s0 .1.1.1l.1.2s0 .1.1.1l.1.2s0 .1.1.1l.1.2v.2l.1.3v.1l.1.3v2.2l.1.3.2.2c.1 0 .2.1.2.1h.3l1.2-.3h.7999999999999999c.1 0 .1 0 .2.1l.2.1.2.1h.1l.2.1s.1 0 .1.1c.1.1.2.2.3.2l1.5 1.3.3.2c.1 0 .2.1.2.1h.2l-1.9 1.5h-.2c-.1 0-.1 0-.2-.1-.1 0-.2-.1-.3-.2l-1.5-1.3c-.1-.1-.2-.2-.3-.2 0 0-.1 0-.1-.1-.1 0-.2-.1-.2-.1l-.2-.1-.2-.1c-.1 0-.1 0-.2-.1l-.3-.1h-.5l-1.2.3h-.3c-.1 0-.1 0-.2-.1h-.1l-.1-.1-.1-.2v-2.3000000000000003c0-.1 0-.2-.1-.3v-.1l-.1-.3v-.1l-.1-.2s0-.1-.1-.1l-.1-.2s0-.1-.1-.1l-.1-.2s0-.1-.1-.1l-.2-.3-1.3-1.6-.2-.3v-.1l-.1-.1c-.1-.3-.1-.3-.1-.4zM200 30.1v-.2s0-.1.1-.1l1.7-1.3s-.1 0-.1.1v.30000000000000004l.1.2.1-.2v-.1l.1-.3v-.3l-.1-1.4v-.2c0-.1 0-.1.1-.1l1.7-1.3-.1.1v.2l.1 1.4v.3c0 .1 0 .2-.1.3v.1l-.1.2v.1l-.2.2-1.4 1.1.2.2.1.1 1.3 1s.1 0 .1.1l.3.3c.1.1.2.2.3.4l.3.4v.1l.2.4v.1l.5 1.5c0 .1 0 .1.1.2 0 .1 0 .1.1.2 0 0 0 .1.1.1l.1.1.1.1h.1l1.2-.9c.2-.2.6-.2 1-.2h.1l.3.1 1.3.7c.1.1.2.1.3.1h.2l-1.7 1.3h-.2c-.1 0-.1 0-.2-.1l-1.3-.7c-.1-.1-.2-.1-.3-.1h-.6000000000000001l-1.4 1.1c-.1.1-.2.1-.3.1h-.1l-.1-.1s0-.1-.1-.1c0 0-.1-.1-.1-.2v-.2l-.5-1.5c0-.1 0-.1-.1-.2 0-.1-.1-.3-.2-.4v-.1l-.3-.4-.3-.4-.3-.3-.1-.1-1.3-1s-.1 0-.1-.1l-.2-.2c-.1-.1-.1-.1-.1-.2l-.3-.3zM219.1 67.2v-.30000000000000004c0-.1.1-.1.2-.2l1.6-1.3.1-.1s0-.1.1-.1l.1-.2v-1.2c0-.1 0-.2-.1-.3l-.6-2.3v-.7s0-.1.1-.1l2.6-1.9-.1.1v.7l.6 2.3c0 .1 0 .2.1.3v1.3c0 .1 0 .1-.1.2 0 0 0 .1-.1.1l-.1.2s0 .1-.1.1l-.2.2-1.6 1.2v.5c0 .1.1.2.1.2l.1.1c0 .1.1.1.2.2 0 0 .1 0 .1.1.1.1.2.2.3.2l2.1 1.2.3.2.1.1.2.2.4.4.1.1.4.5.3.5.1.1.3.5 1.1 2.3c0 .1.1.2.2.3l2.3-1.7c.4-.3.9-.4 1.4-.3h.2l2 .5h.2c.2 0 .3 0 .4-.1l-2.6 1.9c-.1.1-.2.1-.4.1h-.2l-2-.5h-.2c-.4-.1-.8 0-1.2.2v.1c.1.1.1.2.2.2.1.1.1.1.2.1h.1l.2.1c.1 0 .2 0 .3-.1l-2.6 1.9c-.1.1-.2.1-.3.1 0 0-.1 0-.1-.1h-.1s-.1 0-.1-.1c0 0-.1 0-.1-.1l-.2-.2v-.1l-.2-.3-1.1-2.3-.3-.5-.1-.1-.3-.5-.4-.5-.1-.1-.4-.4-.2-.2-.1-.1c-.1-.1-.2-.2-.3-.2l-2.1-1.2c-.1-.1-.2-.2-.3-.2l-.2-.2-.1-.1c-.1-.1-.1-.2-.1-.2v-.5z"/></g><path fill="#FFAE31" d="M223.5 58.3c-.3 0-.4.2-.3.8l.6 2.3c.2.9 0 2-.6 2.4l-1.3.9c-.5.4-.3 1.1.6 1.5l2.1 1.2c.8.5 1.9 1.6 2.4 2.6l1.1 2.3c.3.6.6.9.9.9.2 0 .4-.1.5-.4l.7-1.6c.3-.6 1.1-.9 1.8-.8h.2l2 .5h.2c.7.1.7-.4.1-1.2l-1.6-2.1c-.7-.9-1.2-2.3-1.1-3.1l.1-2c0-.7-.3-1.2-.9-1.3h-.3l-1.7.2h-.5c-.7-.1-1.6-.5-2.2-1.1l-1.9-1.8c-.5 0-.7-.1-.9-.2z"/></g><path fill="#FFAE31" d="M220.7 30.6c-.4-.1-.6.2-.6.9l-.1 3c0 1.2-.9 2.3-2 2.5l-2.5.3c-1 .1-.9 1.1.2 2.1l2.8 2.5c1.2 1 2.4 3 2.7 4.4l.8 3.3c.2.9.7 1.5 1.2 1.6.2 0 .5 0 .7-.2l1.8-1.4c.5-.4 1.2-.5 2-.3.5.1 1.1.3 1.6.6l3 1.7c.3.2.5.3.7.3.6.1.8-.5.2-1.5l-1.7-3.4c-.7-1.4-.9-3.3-.5-4.2l1.1-2.3c.4-.9-.2-1.9-1.4-2.2l-2.9-.7c-1.2-.3-2.9-1.6-3.9-2.8l-2.3-3.1c-.1-.7-.6-1.1-.9-1.1zM244.4 44c-.2 0-.3.1-.4.3l-.4 1.3c-.2.5-.8.8-1.4.7h-.1l-1.5-.3c-.6-.1-.6.3-.1 1l1.3 1.6c.5.6 1 1.7 1 2.3v1.6c0 .5.3.9.6 1h.3l1.2-.3h.5c.5.1 1.1.3 1.5.7l1.5 1.3c.2.2.4.3.5.3.2 0 .3-.2.2-.7l-.5-1.7c-.2-.7-.1-1.6.3-1.9l.9-.8c.4-.3.2-.8-.5-1.2l-1.5-.8c-.6-.3-1.5-1.2-1.8-1.9l-.9-1.7c-.3-.6-.5-.8-.7-.8zM203.9 25.1c-.2 0-.3.1-.2.4l.1 1.4c0 .6-.3 1.1-.7 1.3l-1.1.3c-.4.1-.4.6.2 1l1.3 1c.5.4 1.1 1.3 1.3 1.9l.5 1.5c.1.4.3.7.6.7.1 0 .2 0 .3-.1l.7-.8c.2-.2.6-.3 1-.2.2 0 .3.1.5.2l1.3.7c.1.1.2.1.3.1.3.1.4-.2.1-.7l-.9-1.5c-.4-.6-.5-1.5-.4-2l.4-1.1c.1-.4-.1-.9-.6-.9l-1.3-.2c-.5-.1-1.3-.6-1.7-1.1l-1.1-1.3c-.3-.5-.5-.6-.6-.6z"/><path fill="#FFFA00" d="M233.3 51.9c-.2 0-.5-.1-.7-.3l-3-1.7c-.5-.3-1.1-.5-1.6-.6-.8-.1-1.6 0-2 .3l-2 1.4c-.2.2-.5.2-.7.2-.5-.1-1-.7-1.2-1.6l-.8-3.3c-.3-1.4-1.5-3.3-2.7-4.4l-2.8-2.5c-1.2-1-1.3-2-.2-2.1l1.6-.2c5.4 6.1 12.6 10.8 16.1 12.9l.2.4c.5 1 .4 1.6-.2 1.5zM248.6 52.9l.5 1.7c.1.5.1.7-.2.7-.1 0-.3-.1-.5-.3l-1.5-1.3c-.4-.4-1-.6-1.5-.7h-.5l-1.2.3h-.3c-.4-.1-.6-.4-.6-1v-1.6c0-.6-.4-1.7-1-2.3l-1.3-1.6c-.5-.6-.5-1 0-1 2.8 2.9 5.9 4.3 8.4 5-.4.5-.5 1.4-.3 2.1zM210 34.3c-.1 0-.2 0-.3-.1l-1.3-.7-.5-.2c-.4-.1-.8 0-1 .2l-.7.8c-.1.1-.2.1-.3.1-.2 0-.4-.3-.6-.7l-.5-1.5c-.2-.6-.8-1.5-1.3-1.9l-1.3-1c-.5-.4-.6-.9-.2-1l1.1-.3c.3-.1.5-.3.6-.6 1.5 1.7 3.5 3.5 5.8 5l.6 1.1c.3.6.2.9-.1.8zM234.3 69.9c.6.8.5 1.3-.1 1.2h-.2l-2-.5h-.2c-.8-.1-1.6.2-1.8.8l-.7 1.6c-.1.3-.3.4-.5.4-.3 0-.6-.4-.9-.9l-1.1-2.3c-.4-1-1.5-2.1-2.4-2.6l-2.1-1.2c-.8-.5-1.1-1.2-.6-1.5l1.3-.9c.3-.2.6-.7.6-1.3 2.6 1.9 5.8 4.1 8.8 5.2 0 0 0 .1.1.1l1.8 1.9z" opacity=".2"/></svg>