<?xml version="1.0" encoding="utf-8"?>
<!DOCTYPE svg PUBLIC "-//W3C//DTD SVG 1.1//EN" "http://www.w3.org/Graphics/SVG/1.1/DTD/svg11.dtd">
<svg version="1.1" id="Layer_1" xmlns="http://www.w3.org/2000/svg" xmlns:xlink="http://www.w3.org/1999/xlink" x="0px" y="0px"
	 width="260px" height="94px" viewBox="0 0 260 94" enable-background="new 0 0 260 94" xml:space="preserve">
<g>
	<g>
		<g>
			<g>
				<path fill="#681815" d="M100.4,11.5c0,0,0,0.1,0,0.1c0,0,0,0.1,0,0.1c0,0,0,0.1,0,0.1c0,0,0,0.1,0,0.1c0,0,0,0.1,0,0.1l1.5,22.6
					c0,0.3,0,0.6,0.1,0.9c0,0,0,0,0,0.1c0,0.3,0,0.5,0,0.8c0,0.1,0,0.1,0,0.2c0,0.2,0,0.4,0,0.5c0,0.1,0,0.1,0,0.2
					c0,0.2,0,0.3,0,0.5c0,0.1,0,0.1,0,0.2c0,0,0,0.1,0,0.1c0,0.1,0,0.2,0,0.4c0,0,0,0,0,0.1c0,0.1,0,0.2,0,0.3c0,0,0,0,0,0.1
					c0,0.1,0,0.2,0,0.2c0,0,0,0,0,0c0,0.1,0,0.1,0,0.2c0,0,0,0,0,0c0,0,0,0.1,0,0.1l1.5,9.3c0,0,0,0,0-0.1c0,0,0,0,0,0
					c0,0,0-0.1,0-0.2c0,0,0,0,0,0c0,0,0,0,0,0c0,0,0-0.1,0-0.1c0,0,0-0.1,0-0.1c0,0,0,0,0-0.1c0-0.1,0-0.2,0-0.3c0,0,0,0,0,0
					c0,0,0,0,0,0c0-0.1,0-0.2,0-0.3c0,0,0-0.1,0-0.1c0,0,0,0,0-0.1c0,0,0-0.1,0-0.1c0-0.1,0-0.2,0-0.3c0-0.1,0-0.1,0-0.2
					c0-0.1,0-0.1,0-0.2c0-0.2,0-0.3,0-0.5c0,0,0-0.1,0-0.1c0,0,0,0,0,0c0,0,0,0,0-0.1c0-0.1,0-0.2,0-0.4c0-0.1,0-0.2,0-0.3
					c0,0,0,0,0-0.1c0,0,0,0,0,0c0-0.1,0-0.3,0-0.4c0-0.1,0-0.3,0-0.4l-1.5-21.5c0,0,0,0,0,0c0,0,0,0,0,0c0,0,0,0,0,0c0,0,0,0,0,0
					c0,0,0-0.1,0-0.1c0,0,0,0,0-0.1c0,0,0,0,0,0c0,0,0,0,0,0c0,0,0-0.1,0-0.1c0,0,0,0,0-0.1c0,0,0,0,0,0c0,0,0,0,0,0
					c0,0,0-0.1,0-0.1c0,0,0,0,0-0.1c0,0,0,0,0,0c0,0,0,0,0,0c0-0.1,0-0.1,0-0.2c-0.5-3.6-1-7.1-1.6-10.7
					C100.3,11.3,100.3,11.3,100.4,11.5C100.4,11.4,100.4,11.4,100.4,11.5z"/>
				<path fill="#681815" d="M121.9,22.3c0-0.1,0-0.1,0-0.2c0,0,0,0,0,0c0,0,0,0,0,0c0,0,0,0,0,0c0,0,0,0,0,0l-0.4-10.7c0,0,0,0,0,0
					c0,0,0,0,0,0c0,0.1,0,0.2,0,0.2c0,0.1,0,0.1,0,0.2c0,0.1,0,0.2,0,0.2c0,0.1,0,0.1,0,0.2c0,0.1,0,0.2,0,0.3c0,0,0,0.1,0,0.1
					c0,0.1,0,0.3-0.1,0.4l-10.5,37.7c-0.1,0.3-0.2,0.6-0.4,0.8c0,0,0,0,0,0c-0.1,0.3-0.3,0.5-0.4,0.7c0,0,0,0,0,0
					c-0.2,0.2-0.3,0.4-0.5,0.6c0,0-0.1,0.1-0.1,0.1c-0.1,0.1-0.3,0.2-0.4,0.3c-0.1,0-0.1,0.1-0.2,0.1c-0.2,0.1-0.4,0.2-0.6,0.3
					c0,0,0,0-0.1,0c-0.2,0.1-0.5,0.2-0.7,0.2c-0.1,0-0.1,0-0.2,0.1c-0.2,0-0.4,0.1-0.6,0.1c-0.1,0-0.2,0-0.2,0c-0.3,0-0.6,0-0.9,0
					h-8.3c-0.6,0-1.2-0.1-1.7-0.2c-0.5-0.1-0.9-0.3-1.3-0.6c-0.4-0.2-0.7-0.6-0.9-0.9c-0.2-0.4-0.4-0.8-0.5-1.3
					c0.7,2.9,1.3,5.8,2,8.7c0.1,0.5,0.3,0.9,0.5,1.2c0.2,0.3,0.5,0.6,0.9,0.9c0.3,0.2,0.8,0.4,1.2,0.5c0.5,0.1,1,0.2,1.6,0.2h7.8
					c0.3,0,0.6,0,0.8,0c0.1,0,0.2,0,0.2,0c0.1,0,0.2,0,0.3,0c0.1,0,0.2,0,0.3-0.1c0,0,0.1,0,0.1,0c0,0,0,0,0.1,0
					c0.2-0.1,0.5-0.1,0.7-0.2c0,0,0,0,0,0c0,0,0,0,0.1,0c0.2-0.1,0.4-0.2,0.5-0.3c0,0,0.1,0,0.1,0c0,0,0.1-0.1,0.1-0.1
					c0.1,0,0.1-0.1,0.2-0.1c0.1-0.1,0.2-0.1,0.2-0.2c0,0,0.1-0.1,0.1-0.1c0.2-0.2,0.3-0.3,0.4-0.5c0,0,0,0,0,0c0,0,0,0,0,0
					c0,0,0,0,0,0c0-0.1,0.1-0.1,0.1-0.2c0.1-0.1,0.1-0.2,0.2-0.3c0-0.1,0.1-0.2,0.1-0.2c0,0,0,0,0,0c0,0,0,0,0,0
					c0-0.1,0.1-0.2,0.1-0.3c0,0,0-0.1,0.1-0.1c0,0,0-0.1,0.1-0.1c0,0,0-0.1,0-0.1c0,0,0-0.1,0-0.1l9.9-35.8c0-0.1,0-0.3,0.1-0.4
					c0,0,0,0,0,0c0,0,0,0,0,0c0,0,0-0.1,0-0.1c0-0.1,0-0.2,0-0.2c0,0,0,0,0,0c0,0,0,0,0,0c0,0,0-0.1,0-0.1c0-0.1,0-0.1,0-0.2
					c0,0,0,0,0,0c0,0,0,0,0,0C121.9,22.4,121.9,22.4,121.9,22.3z"/>
				<path fill="#681815" d="M92.7,42.5c0.1-0.2,0.1-0.3,0.2-0.5c0,0,0,0,0,0c0,0,0,0,0,0c0-0.1,0.1-0.2,0.1-0.3
					c0-0.2,0.1-0.3,0.1-0.4c0-0.1,0.1-0.2,0.1-0.3c0-0.1,0.1-0.2,0.1-0.3c0,0,0-0.1,0-0.1c0,0,0,0,0,0c0,0,0-0.1,0-0.1
					c0-0.1,0-0.1,0-0.2c0,0,0-0.1,0-0.1c0,0,0-0.1,0-0.1c0,0,0-0.1,0-0.1c0-0.1,0-0.1,0-0.2c0,0,0-0.1,0-0.1c0,0,0,0,0,0
					c0-0.1,0-0.1,0-0.1c0,0,0-0.1,0-0.1c0,0,0-0.1,0-0.1c0,0,0,0,0-0.1c0,0,0,0,0-0.1c0,0,0,0,0,0c0,0,0,0,0,0c0,0,0,0,0,0l-2-9.8
					l0,0c0,0,0,0,0,0c0,0,0,0,0,0c0,0,0,0,0,0c0,0,0,0,0,0c0,0,0,0,0,0c0,0,0,0,0,0c0,0,0,0,0,0c0,0,0,0,0,0c0,0,0,0,0,0
					c0,0,0,0,0,0c0,0,0,0,0,0.1c0,0,0,0,0,0.1c0,0,0,0.1,0,0.1c0,0,0,0.1,0,0.1c0,0,0,0,0,0c0,0,0,0.1,0,0.1c0,0,0,0.1,0,0.1
					c0,0.1,0,0.1,0,0.2c0,0,0,0.1,0,0.1c0,0.1,0,0.1,0,0.2c0,0,0,0.1,0,0.1c0,0.1,0,0.1-0.1,0.2c0,0,0,0.1,0,0.1
					c0,0.1-0.1,0.3-0.1,0.4c0,0.1-0.1,0.2-0.1,0.3c0,0.1-0.1,0.3-0.2,0.5c0,0.1-0.1,0.2-0.1,0.3c-0.1,0.2-0.1,0.4-0.2,0.5
					c0,0.1-0.1,0.2-0.1,0.3c-0.1,0.3-0.2,0.6-0.3,0.8l-7.5,16.6c-0.1,0.3-0.3,0.6-0.5,0.8c0,0,0,0,0,0.1c-0.1,0.2-0.3,0.4-0.4,0.6
					c-0.1,0.1-0.1,0.1-0.2,0.2c-0.1,0.1-0.3,0.3-0.4,0.4c-0.1,0.1-0.1,0.1-0.2,0.2c-0.2,0.2-0.4,0.3-0.6,0.5c0,0,0,0,0,0
					c-0.2,0.1-0.4,0.2-0.7,0.4c-0.1,0-0.2,0.1-0.2,0.1c-0.2,0.1-0.4,0.1-0.5,0.2c-0.1,0-0.2,0.1-0.3,0.1c-0.2,0-0.4,0.1-0.6,0.1
					c-0.1,0-0.2,0-0.3,0c-0.3,0-0.6,0.1-0.9,0.1h-8.4c-0.5,0-1,0-1.4-0.1c-0.4-0.1-0.8-0.2-1.1-0.4c-0.3-0.2-0.6-0.4-0.8-0.6
					c-0.1-0.1-0.2-0.2-0.3-0.4c-0.1-0.1-0.2-0.3-0.2-0.4v0l0,0l3.4,8.6c0.1,0.3,0.3,0.6,0.5,0.8s0.5,0.4,0.7,0.6
					c0.3,0.1,0.6,0.3,1,0.3c0.4,0.1,0.8,0.1,1.3,0.1h8c0.3,0,0.6,0,0.9,0c0.1,0,0.2,0,0.3,0c0.1,0,0.2,0,0.4-0.1
					c0.1,0,0.1,0,0.2-0.1c0,0,0.1,0,0.1,0c0,0,0.1,0,0.1,0c0.2,0,0.3-0.1,0.5-0.2c0.1,0,0.2-0.1,0.2-0.1c0,0,0.1,0,0.1,0
					c0.2-0.1,0.4-0.2,0.6-0.3c0,0,0,0,0,0c0,0,0,0,0,0c0.2-0.1,0.4-0.2,0.5-0.4c0,0,0,0,0.1-0.1c0.1-0.1,0.1-0.1,0.2-0.2
					c0.1-0.1,0.3-0.2,0.4-0.4c0,0,0.1-0.1,0.1-0.1c0,0,0.1-0.1,0.1-0.1c0-0.1,0.1-0.1,0.1-0.2c0.1-0.1,0.1-0.2,0.2-0.3
					c0,0,0-0.1,0.1-0.1c0,0,0,0,0-0.1c0,0,0.1-0.1,0.1-0.1c0.1-0.1,0.1-0.2,0.2-0.3c0.1-0.1,0.1-0.2,0.2-0.3l7.1-15.7
					c0.1-0.3,0.2-0.5,0.3-0.8C92.6,42.7,92.6,42.6,92.7,42.5z"/>
				<path fill="#681815" d="M78,36.4c0,0.2-0.1,0.5-0.1,0.7c0,0.1,0,0.1,0,0.2c0,0.2-0.1,0.3-0.1,0.5c0,0.1,0,0.2,0,0.2
					c0,0,0,0.1,0,0.1c0,0.1-0.1,0.3-0.1,0.4c0,0,0,0,0,0c0,0.1,0,0.2-0.1,0.3c0,0,0,0.1,0,0.1c0,0,0,0.1,0,0.1c0,0,0,0.1,0,0.1
					c0,0,0,0.1,0,0.1c0,0,0,0,0,0.1c0,0,0,0.1,0,0.1c0,0,0,0,0,0c0,0,0,0,0,0.1l2.8,9.3c0,0,0,0,0-0.1c0,0,0,0,0,0c0,0,0,0,0-0.1
					c0,0,0,0,0,0c0,0,0,0,0,0c0,0,0-0.1,0-0.1c0,0,0,0,0,0c0,0,0,0,0,0c0,0,0,0,0-0.1c0,0,0,0,0,0c0,0,0,0,0-0.1c0,0,0,0,0,0
					c0-0.1,0-0.2,0.1-0.3c0,0,0,0,0,0c0-0.1,0-0.2,0.1-0.4c0,0,0,0,0,0c0,0,0,0,0-0.1c0,0,0-0.1,0-0.1c0,0,0-0.1,0-0.1
					c0-0.2,0.1-0.3,0.1-0.5c0,0,0-0.1,0-0.1c0,0,0,0,0-0.1c0-0.2,0.1-0.4,0.1-0.6c0,0,0,0,0-0.1c0,0,0-0.1,0-0.1
					c0-0.1,0-0.2,0.1-0.3c0,0,0-0.1,0-0.1c0-0.4,0.1-0.7,0.1-1.1l2.4-21.4c0-0.1,0-0.2,0-0.2c0-0.1,0-0.1,0-0.2c0,0,0,0,0,0
					c0,0,0,0,0,0c0,0,0,0,0,0c0,0,0-0.1,0-0.1c0-0.1,0-0.1,0-0.2c0,0,0,0,0-0.1c0,0,0,0,0,0c0,0,0,0,0,0c0,0,0-0.1,0-0.1
					c0-0.1,0-0.1,0-0.2c0,0,0,0,0,0c0,0,0,0,0,0c0,0,0,0,0,0c0-0.1,0-0.1,0-0.2c0-0.1,0-0.1,0-0.2c-0.9-3.6-1.7-7.2-2.6-10.8
					c0,0.1,0,0.2,0.1,0.4c0,0,0,0,0,0c0,0.1,0,0.3,0,0.4c0,0,0,0,0,0.1c0,0.1,0,0.3,0,0.4c0,0,0,0,0,0c0,0.2,0,0.3,0,0.5l-2.6,22.6
					c0,0.4-0.1,0.8-0.1,1.1c0,0.2,0,0.3-0.1,0.5C78.1,36.3,78,36.4,78,36.4z"/>
				<path fill="#681815" d="M147.5,30.1C147.5,30,147.5,30,147.5,30.1c0.1,0,0.2,0,0.2,0c0.1,0,0.2,0,0.3-0.1c0.1,0,0.1,0,0.2-0.1
					c0,0,0.1,0,0.1,0c0,0,0,0,0.1,0c0.1-0.1,0.3-0.1,0.4-0.2c0,0,0.1,0,0.1-0.1c0,0,0,0,0,0c0,0,0,0,0,0c0.1-0.1,0.2-0.2,0.3-0.4
					c0,0,0,0,0,0c0,0,0.1-0.1,0.1-0.1c0,0,0-0.1,0.1-0.1c0,0,0-0.1,0.1-0.1c0,0,0,0,0,0c0,0,0,0,0,0c0,0,0,0,0,0c0,0,0-0.1,0-0.1
					c0,0,0-0.1,0.1-0.1s0-0.1,0-0.1c0,0,0-0.1,0-0.1c0,0,0,0,0,0c0,0,0,0,0,0c0,0,0-0.1,0-0.1c0,0,0-0.1,0-0.1c0,0,0-0.1,0-0.1
					c0,0,0-0.1,0-0.1c0,0,0-0.1,0-0.1l1.1-10.4c0,0.2-0.1,0.4-0.1,0.6c0,0,0,0,0,0c0,0.2-0.1,0.3-0.2,0.5c0,0,0,0,0,0
					c-0.1,0.1-0.2,0.3-0.2,0.4c-0.1,0.1-0.3,0.3-0.4,0.4c0,0-0.1,0.1-0.1,0.1c-0.1,0.1-0.3,0.2-0.4,0.2c-0.1,0-0.1,0.1-0.2,0.1
					c-0.1,0.1-0.3,0.1-0.5,0.1c-0.1,0-0.1,0-0.2,0c-0.2,0-0.5,0.1-0.8,0.1h-10.9l-0.4,10.3h10.4C147,30.1,147.3,30.1,147.5,30.1z"/>
				<path fill="#681815" d="M171,29.8c0.4,0.2,0.8,0.4,1.1,0.7c0.3,0.3,0.6,0.6,0.8,0.9c0.2,0.3,0.4,0.7,0.5,1.1
					c0,0.1,0.1,0.3,0.1,0.4c0,0.1,0.1,0.3,0.1,0.4s0,0.3,0,0.4c0,0.1,0,0.3-0.1,0.4L176,24c0-0.1,0.1-0.3,0.1-0.4c0-0.1,0-0.3,0-0.4
					c0-0.1,0-0.3-0.1-0.4c0-0.1-0.1-0.3-0.1-0.4c-0.1-0.4-0.3-0.8-0.5-1.1s-0.5-0.7-0.9-1c-0.3-0.3-0.7-0.5-1.2-0.7
					c-0.4-0.2-0.9-0.3-1.5-0.3h-3.4l-2,10.3h3.2C170.2,29.5,170.6,29.6,171,29.8z"/>
				<path fill="#681815" d="M171.3,45.5h4.6c0.6,0,1.3,0.1,1.8,0.3c0.5,0.2,1,0.5,1.5,0.8c0.4,0.3,0.8,0.7,1.1,1.1
					c0.3,0.4,0.5,0.8,0.7,1.2c0.1,0.2,0.1,0.3,0.1,0.5c0,0.2,0.1,0.3,0.1,0.5c0,0.2,0,0.3,0,0.5c0,0.1,0,0.3-0.1,0.4
					c0.9-3.1,1.9-6.1,2.8-9.2c0-0.1,0.1-0.3,0.1-0.5c0-0.2,0-0.3,0-0.5c0-0.2,0-0.3-0.1-0.5c0-0.1-0.1-0.3-0.1-0.4c0,0,0,0,0,0
					c0.1-0.1,0.1-0.1,0.2-0.2c0,0,0.1-0.1,0.1-0.1c0,0,0,0,0,0c0,0,0,0,0,0c0,0,0,0,0.1-0.1c0.1-0.1,0.1-0.1,0.2-0.2
					c0.1-0.1,0.1-0.2,0.2-0.2c0,0,0,0,0,0c0,0,0,0,0,0c0,0,0,0,0,0c0-0.1,0.1-0.1,0.1-0.2c0-0.1,0.1-0.2,0.1-0.3c0,0,0-0.1,0.1-0.1
					c0,0,0,0,0,0c0,0,0,0,0,0c0,0,0,0,0-0.1c0,0,0-0.1,0.1-0.1c0,0,0-0.1,0.1-0.1c0,0,0-0.1,0.1-0.1c0,0,0-0.1,0-0.1
					c1-3.3,2-6.6,3-9.9c-0.1,0.2-0.2,0.5-0.3,0.7c0,0,0,0,0,0.1c-0.1,0.2-0.2,0.4-0.3,0.6c0,0,0,0,0,0c-0.1,0.2-0.3,0.4-0.4,0.6
					c0,0,0,0,0,0c-0.2,0.2-0.3,0.4-0.5,0.5l-2.9,9.4c-0.1-0.4-0.4-0.8-0.7-1.2c-0.3-0.4-0.7-0.8-1.1-1.2c-0.5-0.3-1-0.6-1.6-0.8
					c-0.6-0.2-1.2-0.3-1.9-0.3h-4.8L171.3,45.5z"/>
				<path fill="#681815" d="M150.3,35.4C150.3,35.4,150.3,35.4,150.3,35.4c-0.1,0.2-0.2,0.3-0.3,0.4c0,0-0.1,0.1-0.1,0.1
					c-0.1,0.1-0.2,0.2-0.4,0.3c0,0,0,0,0,0c-0.1,0.1-0.3,0.2-0.4,0.2c0,0-0.1,0-0.1,0.1c-0.2,0.1-0.3,0.1-0.5,0.2c0,0,0,0,0,0
					c-0.2,0-0.4,0.1-0.6,0.1c-0.1,0-0.1,0-0.2,0c-0.2,0-0.4,0-0.7,0h-8.7l-0.4,9.4h8.3c0.2,0,0.4,0,0.6,0c0.1,0,0.1,0,0.2,0
					c0.1,0,0.1,0,0.2,0c0.1,0,0.3-0.1,0.4-0.1c0,0,0,0,0,0c0,0,0,0,0,0c0.1,0,0.3-0.1,0.4-0.1c0,0,0.1,0,0.1,0c0,0,0.1,0,0.1-0.1
					c0.1-0.1,0.3-0.1,0.4-0.2c0,0,0,0,0,0c0,0,0,0,0,0c0,0,0,0,0,0c0.1-0.1,0.2-0.2,0.3-0.3c0,0,0.1-0.1,0.1-0.1
					c0,0,0.1-0.1,0.1-0.1c0,0,0.1-0.1,0.1-0.1c0,0,0-0.1,0.1-0.1c0,0,0,0,0,0c0,0,0,0,0,0c0,0,0,0,0,0c0,0,0,0,0-0.1
					c0,0,0-0.1,0.1-0.1c0,0,0-0.1,0.1-0.1c0,0,0-0.1,0-0.1c0,0,0,0,0,0c0,0,0,0,0,0c0,0,0-0.1,0-0.1c0-0.1,0-0.1,0-0.2
					c0,0,0,0,0-0.1c0,0,0,0,0-0.1c0,0,0-0.1,0-0.1c0,0,0-0.1,0-0.1c0.4-3.2,0.7-6.4,1.1-9.5c0,0.2-0.1,0.4-0.1,0.6c0,0,0,0,0,0
					C150.5,35,150.4,35.2,150.3,35.4z"/>
				<path fill="#681815" d="M158,52.4c-0.1,0.2-0.1,0.3-0.2,0.5c0,0,0,0,0,0c-0.1,0.2-0.2,0.3-0.3,0.4c0,0,0,0,0,0
					c-0.1,0.1-0.3,0.2-0.4,0.3c0,0-0.1,0.1-0.1,0.1c-0.1,0.1-0.2,0.1-0.4,0.2c0,0-0.1,0-0.1,0.1c-0.2,0.1-0.4,0.1-0.6,0.2
					c0,0-0.1,0-0.1,0c-0.2,0-0.3,0.1-0.5,0.1c-0.1,0-0.1,0-0.2,0c-0.2,0-0.5,0-0.7,0h-24.5c-0.7,0-1.4-0.1-2-0.3s-1.1-0.4-1.5-0.8
					c-0.4-0.3-0.7-0.8-0.9-1.3c-0.2-0.5-0.3-1.1-0.3-1.7c0.1,2.9,0.2,5.8,0.3,8.7c0,0.6,0.1,1.2,0.3,1.7s0.5,0.9,0.9,1.2
					c0.4,0.3,0.8,0.6,1.4,0.7c0.5,0.2,1.2,0.3,1.9,0.3H153c0.2,0,0.5,0,0.7,0c0.1,0,0.1,0,0.2,0c0.1,0,0.1,0,0.2,0
					c0.1,0,0.2,0,0.3-0.1c0,0,0.1,0,0.1,0c0,0,0,0,0,0c0.2,0,0.3-0.1,0.5-0.1c0,0,0,0,0,0c0,0,0.1,0,0.1,0c0.1-0.1,0.3-0.1,0.4-0.2
					c0,0,0.1,0,0.1,0c0,0,0,0,0,0c0,0,0.1,0,0.1-0.1c0.1-0.1,0.2-0.2,0.3-0.2c0,0,0,0,0,0c0.1-0.1,0.2-0.2,0.2-0.3
					c0,0,0.1-0.1,0.1-0.1c0,0,0,0,0,0c0,0,0,0,0,0c0,0,0,0,0,0c0,0,0-0.1,0.1-0.1c0,0,0-0.1,0.1-0.1c0,0,0-0.1,0.1-0.1
					c0,0,0-0.1,0-0.1c0,0,0,0,0,0c0,0,0,0,0,0c0,0,0-0.1,0-0.1c0,0,0-0.1,0-0.1c0,0,0-0.1,0-0.1c0,0,0,0,0,0c0,0,0,0,0,0
					c0,0,0,0,0,0c0,0,0,0,0,0l1.5-8.7C158.2,52,158.1,52.2,158,52.4C158,52.3,158,52.4,158,52.4z"/>
				<path fill="#681815" d="M197.7,49.7c-0.1,0.1-0.1,0.2-0.2,0.2c-0.1,0.1-0.2,0.3-0.4,0.4c-0.1,0.1-0.2,0.2-0.2,0.2
					c-0.1,0.1-0.3,0.2-0.4,0.3c-0.1,0.1-0.2,0.1-0.3,0.2c-0.1,0.1-0.3,0.2-0.4,0.3c-0.1,0.1-0.2,0.1-0.3,0.2
					c-0.2,0.1-0.3,0.2-0.5,0.3c-0.1,0.1-0.2,0.1-0.3,0.2c-0.2,0.1-0.4,0.2-0.6,0.3c-0.1,0-0.2,0.1-0.3,0.1c-0.2,0.1-0.5,0.2-0.7,0.3
					c-0.1,0-0.1,0-0.2,0.1c-0.3,0.1-0.7,0.2-1,0.3c-0.1,0-0.2,0-0.3,0.1c-0.2,0.1-0.5,0.1-0.8,0.2c-0.1,0-0.3,0.1-0.4,0.1
					c-0.2,0-0.5,0.1-0.7,0.1c-0.2,0-0.3,0.1-0.5,0.1c-0.2,0-0.5,0.1-0.7,0.1c-0.2,0-0.3,0-0.5,0.1c-0.2,0-0.5,0.1-0.7,0.1
					c-0.2,0-0.3,0-0.5,0c-0.2,0-0.5,0-0.8,0.1c-0.2,0-0.3,0-0.5,0c-0.3,0-0.6,0-0.8,0c-0.1,0-0.3,0-0.4,0c-0.4,0-0.8,0-1.3,0
					l-14.3,0c-0.8,0-1.5-0.1-2.1-0.3c-0.6-0.2-1.2-0.4-1.6-0.8c-0.5-0.4-0.9-0.8-1.2-1.3c-0.3-0.5-0.5-1.1-0.7-1.8l-8.4-37.5
					c0-0.2-0.1-0.4-0.1-0.6s0-0.3-0.1-0.5c0-0.2,0-0.3,0-0.5c0-0.2,0-0.3,0-0.4l0,0l0,0l-1.3,10.8c0,0.1,0,0.3,0,0.4
					c0,0.1,0,0.3,0,0.5c0,0.2,0,0.3,0.1,0.5c0,0.2,0.1,0.3,0.1,0.5l8,35.6c0.1,0.6,0.4,1.2,0.7,1.7c0.3,0.5,0.7,0.9,1.1,1.2
					c0.4,0.3,1,0.6,1.6,0.8c0.6,0.2,1.2,0.3,2,0.3l13.5,0c0.7,0,1.4,0,2.1-0.1c0.1,0,0.2,0,0.3,0c0.6,0,1.3-0.1,1.9-0.2
					c0.1,0,0.1,0,0.2,0c0.1,0,0.2,0,0.3,0c0.1,0,0.2,0,0.2,0c0.1,0,0.1,0,0.2,0c0.2,0,0.4-0.1,0.7-0.1c0.1,0,0.3,0,0.4-0.1
					c0.2,0,0.4-0.1,0.7-0.1c0.1,0,0.3-0.1,0.4-0.1c0.2-0.1,0.5-0.1,0.7-0.2c0.1,0,0.2,0,0.3-0.1c0,0,0,0,0,0
					c0.3-0.1,0.6-0.2,0.9-0.3c0,0,0,0,0,0c0.1,0,0.1,0,0.2-0.1c0.2-0.1,0.5-0.2,0.7-0.3c0.1,0,0.2-0.1,0.3-0.1
					c0.2-0.1,0.4-0.2,0.5-0.3c0.1-0.1,0.2-0.1,0.3-0.2c0.1-0.1,0.2-0.1,0.3-0.2c0.1,0,0.1-0.1,0.2-0.1c0.1-0.1,0.2-0.1,0.3-0.2
					c0.1-0.1,0.3-0.2,0.4-0.3c0.1,0,0.1-0.1,0.2-0.1c0,0,0.1-0.1,0.1-0.1c0.1-0.1,0.2-0.2,0.4-0.3c0.1-0.1,0.2-0.1,0.2-0.2
					c0.1-0.1,0.2-0.3,0.3-0.4c0.1-0.1,0.1-0.1,0.2-0.2c0,0,0,0,0-0.1c0.1-0.1,0.1-0.2,0.2-0.3c0.1-0.1,0.1-0.2,0.2-0.3
					c0.1-0.1,0.1-0.2,0.2-0.3c0.1-0.1,0.1-0.2,0.2-0.3c0,0,0,0,0,0c0,0,0,0,0,0c0,0,0,0,0,0c0,0,0,0,0,0l3.6-8.8
					C198.3,48.8,198,49.3,197.7,49.7z"/>
			</g>
			<path fill="#FFAE31" d="M118.3,8.4c0.6,0,1.1,0.1,1.6,0.3c0.4,0.2,0.8,0.5,1,0.9c0.3,0.4,0.4,0.9,0.5,1.4c0.1,0.6,0,1.2-0.1,1.9
				l-10.5,37.7c-0.2,0.6-0.5,1.1-0.8,1.6s-0.7,0.8-1.2,1.1c-0.4,0.3-1,0.5-1.5,0.7c-0.6,0.1-1.2,0.2-1.9,0.2h-8.3
				c-0.7,0-1.3-0.1-1.8-0.2s-1-0.4-1.4-0.7c-0.4-0.3-0.7-0.7-0.9-1.1c-0.2-0.5-0.4-1-0.4-1.6L91.5,34c0-0.6,0-1.2,0-1.7
				c0-0.6,0-1.1,0.1-1.5c0-0.5,0.1-0.8,0.1-1.1c0-0.3,0-0.5,0.1-0.5c0,0-0.1,0.2-0.1,0.4c-0.1,0.3-0.2,0.7-0.3,1.1
				c-0.1,0.5-0.3,1-0.5,1.6c-0.2,0.6-0.4,1.2-0.7,1.7l-7.5,16.6c-0.3,0.6-0.6,1.1-1,1.6c-0.4,0.5-0.8,0.8-1.3,1.1
				c-0.5,0.3-1,0.5-1.6,0.7c-0.6,0.2-1.2,0.2-1.9,0.2h-8.4c-0.7,0-1.3-0.1-1.8-0.2c-0.5-0.2-0.9-0.4-1.3-0.7
				c-0.3-0.3-0.6-0.7-0.7-1.1c-0.2-0.5-0.2-1-0.2-1.6L68.7,13c0.1-0.7,0.3-1.4,0.6-1.9c0.3-0.6,0.6-1,1-1.4c0.4-0.4,0.9-0.7,1.4-0.9
				c0.5-0.2,1.1-0.3,1.7-0.3h4.6c0.5,0,1,0.1,1.4,0.2c0.4,0.2,0.7,0.4,0.9,0.7c0.2,0.3,0.4,0.7,0.5,1.1c0.1,0.5,0.1,1,0,1.6
				l-2.6,22.6c-0.1,0.6-0.1,1.2-0.2,1.7s-0.2,1.1-0.3,1.5c-0.1,0.4-0.2,0.8-0.2,1.1c-0.1,0.3-0.1,0.4-0.1,0.5c0,0,0.1-0.2,0.2-0.4
				c0.1-0.3,0.2-0.6,0.4-1.1c0.2-0.5,0.4-1,0.6-1.5c0.2-0.6,0.5-1.2,0.8-1.7L89.8,12c0.3-0.6,0.6-1.1,0.9-1.6
				c0.3-0.5,0.7-0.8,1.1-1.1C92.1,9,92.6,8.8,93,8.6c0.5-0.2,0.9-0.2,1.5-0.2h2.7c0.5,0,1,0.1,1.4,0.2c0.4,0.1,0.7,0.4,1,0.7
				c0.3,0.3,0.5,0.7,0.6,1.1c0.1,0.5,0.2,1,0.2,1.6l1.5,22.6c0.1,0.6,0.1,1.2,0.1,1.8c0,0.6,0,1.1,0,1.5c0,0.4,0,0.8,0,1.1
				c0,0.3,0,0.4,0,0.5c0,0,0.1-0.2,0.1-0.4c0.1-0.3,0.1-0.6,0.2-1.1c0.1-0.5,0.2-1,0.3-1.5c0.1-0.6,0.3-1.2,0.5-1.7l6.4-22.6
				c0.2-0.6,0.4-1.1,0.6-1.6c0.3-0.5,0.6-0.8,0.9-1.1c0.3-0.3,0.7-0.5,1.2-0.7c0.4-0.2,0.9-0.2,1.5-0.2L118.3,8.4L118.3,8.4z"/>
			<path fill="#FFAE31" d="M145.8,8.4c0.6,0,1.1,0.1,1.5,0.3c0.5,0.2,0.9,0.4,1.2,0.8c0.4,0.3,0.7,0.8,0.9,1.3s0.4,1.1,0.6,1.8
				l0.6,3.2c0.1,0.7,0.2,1.3,0.1,1.8c-0.1,0.5-0.2,0.9-0.5,1.3c-0.3,0.3-0.6,0.6-1,0.8s-0.9,0.3-1.6,0.3h-10.9l0.5,5.5h8.1
				c0.6,0,1.2,0.1,1.7,0.3s1,0.4,1.4,0.8c0.4,0.4,0.7,0.8,1,1.3c0.3,0.5,0.4,1.1,0.6,1.8l0.5,3.2c0.1,0.7,0.1,1.3,0,1.8
				c-0.1,0.5-0.3,1-0.6,1.3c-0.3,0.3-0.7,0.6-1.2,0.8c-0.5,0.2-1.1,0.3-1.8,0.3h-8.7l0.6,5.9h13.4c0.7,0,1.4,0.1,1.9,0.3
				c0.6,0.2,1.1,0.4,1.5,0.8c0.4,0.4,0.8,0.8,1.1,1.3c0.3,0.5,0.5,1.1,0.6,1.8l0.6,3.2c0.1,0.7,0.1,1.3,0,1.8
				c-0.1,0.5-0.3,1-0.6,1.3c-0.3,0.4-0.8,0.6-1.3,0.8c-0.5,0.2-1.2,0.3-2,0.3h-24.5c-0.8,0-1.4-0.1-2-0.3c-0.6-0.2-1.1-0.4-1.5-0.8
				c-0.4-0.4-0.7-0.8-0.9-1.3c-0.2-0.5-0.3-1.1-0.3-1.8l-0.5-37.5c0-0.7,0.1-1.3,0.2-1.8c0.1-0.5,0.4-0.9,0.7-1.3
				c0.3-0.3,0.7-0.6,1.1-0.8c0.4-0.2,0.9-0.3,1.5-0.3L145.8,8.4L145.8,8.4z"/>
		</g>
		<g>
			<g>
				<path fill="#651815" d="M107.5,70.2C107.5,70.2,107.5,70.2,107.5,70.2C107.5,70.1,107.5,70.1,107.5,70.2
					C107.5,70.1,107.5,70.1,107.5,70.2c0-0.1,0-0.1,0-0.2c0,0,0,0,0,0c0,0,0,0,0,0c0,0,0,0,0,0c0,0,0,0,0-0.1c0,0,0,0,0-0.1
					l-1.3-8.1c0,0.1,0,0.1,0,0.2c0,0,0,0,0,0c0,0,0,0.1,0,0.2c0,0,0,0,0,0c0,0.1,0,0.1,0,0.2c0,0,0,0,0,0c0,0.1,0,0.1,0,0.2
					l-1.7,19.9c0,0.2,0,0.3-0.1,0.5c0,0,0,0,0,0c0,0.2-0.1,0.3-0.2,0.4c0,0,0,0,0,0c-0.1,0.1-0.1,0.2-0.2,0.3c0,0,0,0-0.1,0.1
					c-0.1,0.1-0.2,0.2-0.3,0.3c0,0,0,0,0,0c-0.1,0.1-0.2,0.2-0.4,0.2c0,0-0.1,0-0.1,0c-0.1,0.1-0.3,0.1-0.4,0.1c0,0,0,0,0,0
					c-0.2,0-0.3,0.1-0.5,0.1c0,0-0.1,0-0.1,0c-0.2,0-0.4,0-0.6,0h-3.4c-0.4,0-0.7,0-1-0.1c-0.3-0.1-0.5-0.1-0.7-0.3
					c-0.2-0.1-0.4-0.3-0.5-0.4c-0.1-0.2-0.2-0.4-0.3-0.6c0.6,2.3,1.2,4.7,1.8,7c0.1,0.2,0.1,0.4,0.3,0.6c0.1,0.2,0.3,0.3,0.5,0.4
					c0.2,0.1,0.4,0.2,0.7,0.2c0.3,0.1,0.6,0.1,0.9,0.1h3.3c0.3,0,0.5,0,0.7-0.1c0,0,0.1,0,0.1,0c0,0,0.1,0,0.1,0c0.1,0,0.2,0,0.2,0
					c0.1,0,0.1,0,0.2-0.1c0,0,0.1,0,0.1,0c0,0,0,0,0.1,0c0.2-0.1,0.3-0.1,0.4-0.2c0,0,0,0,0.1,0c0,0,0,0,0,0c0,0,0,0,0,0
					c0,0,0,0,0,0c0.1-0.1,0.2-0.2,0.3-0.2c0,0,0,0,0.1-0.1c0,0,0,0,0-0.1c0,0,0-0.1,0.1-0.1c0,0,0-0.1,0.1-0.1c0,0,0-0.1,0.1-0.1
					c0,0,0,0,0,0l0,0c0,0,0,0,0,0c0,0,0-0.1,0-0.1c0,0,0-0.1,0-0.1c0,0,0-0.1,0-0.1c0,0,0-0.1,0-0.1c0,0,0,0,0,0c0,0,0,0,0,0
					c0,0,0-0.1,0-0.1c0,0,0-0.1,0-0.1c0,0,0-0.1,0-0.1c0,0,0-0.1,0-0.1c0,0,0-0.1,0-0.1l1.6-18.9c0,0,0-0.1,0-0.1c0,0,0,0,0-0.1
					c0,0,0,0,0,0c0,0,0,0,0,0c0,0,0,0,0,0C107.5,70.3,107.5,70.3,107.5,70.2C107.5,70.2,107.5,70.2,107.5,70.2
					C107.5,70.2,107.5,70.2,107.5,70.2z"/>
				<path fill="#651815" d="M95.5,74.5C95.5,74.5,95.5,74.5,95.5,74.5C95.5,74.4,95.5,74.4,95.5,74.5c0-0.1,0-0.1,0-0.1
					c0-0.1,0-0.2,0-0.2c0-0.1,0-0.2,0-0.3c0,0,0,0,0,0c0,0,0,0,0,0c0,0,0,0,0,0c0-0.1,0-0.2,0-0.3c0-0.1,0-0.2-0.1-0.3l-1.9-8
					c0.1,0.2,0.1,0.4,0.1,0.6c0,0,0,0,0,0c0,0.2,0,0.4,0.1,0.6c0,0,0,0,0,0.1c0,0.2,0,0.4,0,0.7c0,0,0,0,0,0c0,0.2,0,0.5-0.1,0.7
					c0,0.3-0.1,0.6-0.2,0.9v0l0,0c-0.1,0.3-0.2,0.6-0.3,0.9c0,0,0,0,0,0.1c-0.1,0.3-0.3,0.6-0.4,0.9c0,0,0,0.1-0.1,0.1
					c-0.2,0.3-0.3,0.6-0.5,0.8c0,0.1-0.1,0.1-0.1,0.2c0,0.1-0.1,0.1-0.1,0.2c-0.2,0.2-0.4,0.5-0.6,0.7c0,0-0.1,0.1-0.1,0.1
					c-0.2,0.2-0.4,0.4-0.7,0.6c0,0-0.1,0.1-0.1,0.1c-0.3,0.2-0.5,0.4-0.8,0.6c0,0-0.1,0-0.1,0.1c-0.3,0.2-0.6,0.4-1,0.5c0,0,0,0,0,0
					v0v0v0v0c0,0,0,0,0,0s0,0,0,0c0,0,0,0,0,0l0,0c0,0,0,0,0,0c0,0,0,0,0,0c0.7,2.5,1.5,5,2.2,7.5c0,0,0,0,0,0c0,0,0,0,0,0
					c0,0,0,0,0,0v0c0,0,0,0,0,0v0c0,0,0,0,0,0c0.3-0.2,0.7-0.3,1-0.5c0,0,0,0,0,0c0.1-0.1,0.2-0.1,0.3-0.2c0.2-0.1,0.4-0.2,0.5-0.4
					c0,0,0,0,0.1-0.1c0,0,0,0,0.1,0c0.1-0.1,0.2-0.2,0.2-0.2c0.1-0.1,0.3-0.2,0.4-0.3c0,0,0.1-0.1,0.1-0.1c0.1-0.1,0.2-0.2,0.3-0.3
					c0.1-0.1,0.2-0.2,0.3-0.3c0.1-0.1,0.1-0.1,0.2-0.2c0,0,0,0,0-0.1c0,0,0,0,0,0c0,0,0.1-0.1,0.1-0.1c0.1-0.1,0.2-0.3,0.3-0.4
					c0-0.1,0.1-0.2,0.1-0.3c0,0,0-0.1,0-0.1c0,0,0-0.1,0-0.1c0.1-0.1,0.1-0.3,0.2-0.4c0-0.1,0.1-0.2,0.1-0.3c0,0,0,0,0,0
					c0,0,0,0,0,0c0,0,0,0,0-0.1c0.1-0.1,0.1-0.3,0.1-0.4c0-0.1,0.1-0.3,0.1-0.4c0,0,0,0,0,0c0-0.1,0.1-0.3,0.1-0.4c0,0,0-0.1,0-0.1
					c0,0,0-0.1,0-0.1c0,0,0-0.1,0-0.1c0,0,0-0.1,0-0.1c0-0.1,0-0.2,0-0.3c0-0.1,0-0.2,0-0.3c0,0,0,0,0,0c0,0,0,0,0,0c0,0,0,0,0,0
					c0-0.1,0-0.2,0-0.3C95.5,74.7,95.5,74.6,95.5,74.5z"/>
				<path fill="#651815" d="M83.1,74.2h1.2c0.2,0,0.4,0,0.6,0c0.2,0,0.4,0,0.5,0c0.2,0,0.3,0,0.5,0.1c0.2,0,0.3,0.1,0.4,0.1
					c0.1,0.1,0.2,0.1,0.4,0.2c0.1,0.1,0.2,0.1,0.3,0.2c0.1,0.1,0.1,0.1,0.2,0.2c0,0.1,0.1,0.2,0.1,0.2l-2.4-7.8
					c0-0.1-0.1-0.2-0.1-0.2c0-0.1-0.1-0.2-0.2-0.2s-0.2-0.1-0.3-0.2c-0.1-0.1-0.2-0.1-0.4-0.2c-0.1-0.1-0.3-0.1-0.5-0.1
					c-0.2,0-0.3-0.1-0.5-0.1c-0.2,0-0.4,0-0.6,0s-0.4,0-0.6,0h-1.3l-1,4.6l2.7,7.7L83.1,74.2z"/>
				<path fill="#651815" d="M171.9,74.5c0.8,0.2,1.6,0.6,2.2,1.1c0.7,0.5,1.2,1.1,1.7,1.8c0.5,0.7,0.9,1.5,1.1,2.5
					c0.1,0.3,0.2,0.7,0.2,1c0,0.3,0.1,0.6,0.1,0.9c0,0.3,0,0.5,0,0.8c0,0.2-0.1,0.5-0.2,0.7l2.6-7.4c0.1-0.2,0.1-0.5,0.2-0.7
					c0-0.3,0.1-0.5,0-0.8c0-0.3,0-0.6-0.1-0.9s-0.1-0.7-0.2-1c-0.3-1-0.7-1.9-1.2-2.6c-0.5-0.8-1.1-1.4-1.8-1.9
					c-0.7-0.5-1.5-0.9-2.4-1.1c-0.9-0.2-1.8-0.4-2.8-0.4h-1.8l-2.1,7.9h1.7C170.2,74.2,171,74.3,171.9,74.5z"/>
				<path fill="#651815" d="M68,83.2C68,83.2,68,83.2,68,83.2c0.2-0.1,0.3-0.1,0.4-0.2c0,0,0,0,0.1,0c0,0,0,0,0,0c0,0,0.1,0,0.1-0.1
					c0.1-0.1,0.1-0.1,0.2-0.2c0,0,0,0,0,0c0.1-0.1,0.2-0.2,0.2-0.3c0,0,0-0.1,0.1-0.1c0,0,0,0,0,0c0,0,0,0,0,0c0,0,0,0,0,0
					c0,0,0.1-0.1,0.1-0.1c0,0,0-0.1,0.1-0.1c0,0,0-0.1,0.1-0.1c0,0,0,0,0,0c0,0,0,0,0,0c0,0,0-0.1,0-0.1c0,0,0-0.1,0-0.1
					s0-0.1,0-0.1c0,0,0-0.1,0-0.1l0.4-1.6c0,0,0,0,0,0c0,0,0,0,0,0c0,0,0,0,0,0c0,0,0,0,0,0c0-0.1,0-0.1,0-0.1c0,0,0,0,0,0
					c0,0,0,0,0,0c0,0,0,0,0,0c0,0,0-0.1,0-0.1c0,0,0-0.1,0-0.1c0,0,0-0.1,0-0.1c0,0,0,0,0,0c0,0,0,0,0,0c0,0,0,0,0,0
					c0,0,0-0.1,0-0.1c0,0,0-0.1,0-0.1c0,0,0,0,0,0c0,0,0,0,0,0c0,0,0,0,0,0c0,0,0-0.1,0-0.1c0,0,0-0.1,0-0.1L68,74.2h2.7
					c0.2,0,0.3,0,0.5,0c0,0,0.1,0,0.1,0c0,0,0.1,0,0.1,0c0.1,0,0.2,0,0.2-0.1c0,0,0,0,0.1,0c0,0,0,0,0,0c0.1,0,0.2-0.1,0.4-0.1
					c0,0,0,0,0,0c0.2-0.1,0.3-0.2,0.5-0.3c0,0,0,0,0,0c0,0,0,0,0,0c0,0,0,0,0.1-0.1c0.1-0.1,0.2-0.2,0.3-0.3c0,0,0,0,0.1-0.1
					c0,0,0.1-0.1,0.1-0.1c0,0,0,0,0,0c0,0,0,0,0,0c0,0,0,0,0,0c0,0,0-0.1,0.1-0.1c0,0,0.1-0.1,0.1-0.1c0,0,0-0.1,0.1-0.1
					c0,0,0,0,0,0c0,0,0,0,0,0c0,0,0-0.1,0-0.1c0,0,0-0.1,0-0.1c0,0,0-0.1,0-0.1c0,0,0-0.1,0-0.1l0.4-1.6c0,0,0,0,0,0c0,0,0,0,0,0
					c0,0,0,0,0,0c0,0,0,0,0,0c0-0.1,0-0.1,0-0.2c0,0,0,0,0,0c0,0,0,0,0,0c0,0,0,0,0,0c0,0,0-0.1,0-0.1c0,0,0-0.1,0-0.1c0,0,0,0,0,0
					c0,0,0,0,0,0c0,0,0,0,0,0c0,0,0,0,0-0.1c0,0,0-0.1,0-0.1c0,0,0,0,0-0.1c0,0,0,0,0,0c0,0,0,0,0,0c0,0,0,0,0,0c0,0,0-0.1,0-0.1
					c0,0,0-0.1,0-0.1c-0.1-0.2-0.2-0.5-0.3-0.8c0,0,0-0.1,0-0.1l-0.1-0.2c0,0,0-0.1,0-0.1c0-0.1-0.1-0.2-0.1-0.3l-0.1-0.2
					c0-0.1-0.1-0.2-0.1-0.3c0-0.1-0.1-0.1-0.1-0.2l-0.1-0.3c0-0.1-0.1-0.2-0.1-0.3c0-0.1-0.1-0.2-0.1-0.3L72.9,66
					c-0.1-0.2-0.2-0.4-0.2-0.6l-0.1-0.2c-0.1-0.2-0.2-0.5-0.3-0.7c0-0.1-0.1-0.3-0.2-0.4c-0.1-0.3-0.2-0.6-0.3-0.8
					c-0.1-0.3-0.2-0.6-0.3-0.8c0-0.1-0.1-0.3-0.2-0.4c-0.1-0.3-0.2-0.6-0.3-0.9c0,0.1,0.1,0.2,0.1,0.3c0,0,0,0,0,0
					c0,0.1,0,0.2,0,0.3c0,0,0,0,0,0c0,0.1,0,0.2,0,0.3c0,0,0,0,0,0c0,0.1,0,0.2-0.1,0.4l-0.4,1.7c0,0.2-0.1,0.3-0.2,0.5c0,0,0,0,0,0
					c-0.1,0.2-0.1,0.3-0.2,0.4c0,0,0,0,0,0c0,0.1-0.1,0.1-0.2,0.2c-0.1,0.1-0.2,0.2-0.3,0.3c0,0-0.1,0.1-0.1,0.1c0,0-0.1,0-0.1,0.1
					c-0.1,0.1-0.2,0.1-0.3,0.2c0,0-0.1,0-0.1,0c-0.1,0.1-0.3,0.1-0.4,0.2c0,0-0.1,0-0.1,0c-0.1,0-0.3,0.1-0.4,0.1c0,0-0.1,0-0.1,0
					c-0.2,0-0.4,0-0.5,0h-7.3L59,70l3,6.1h-4.9l-2,6.2c-0.1,0.2-0.1,0.3-0.2,0.5c0,0,0,0,0,0c-0.1,0.2-0.2,0.3-0.3,0.4c0,0,0,0,0,0
					c-0.1,0.1-0.2,0.2-0.3,0.3c0,0-0.1,0.1-0.1,0.1c-0.1,0.1-0.2,0.1-0.3,0.2c0,0-0.1,0.1-0.1,0.1c-0.1,0.1-0.3,0.1-0.4,0.2
					c0,0,0,0,0,0c-0.2,0.1-0.3,0.1-0.5,0.2c0,0-0.1,0-0.1,0c-0.1,0-0.3,0.1-0.4,0.1c-0.1,0-0.1,0-0.2,0c-0.2,0-0.4,0-0.6,0h-3.4
					c-0.3,0-0.5,0-0.7,0c-0.2,0-0.4-0.1-0.6-0.1c-0.2-0.1-0.3-0.1-0.4-0.2c-0.1,0-0.1-0.1-0.2-0.1s-0.1-0.1-0.1-0.2v0l0,0l4.4,7
					c0.1,0.1,0.2,0.2,0.3,0.3s0.3,0.2,0.4,0.2c0.2,0.1,0.3,0.1,0.5,0.1s0.4,0,0.7,0h3.3c0.2,0,0.4,0,0.6,0c0.1,0,0.1,0,0.2,0
					c0.1,0,0.1,0,0.2,0c0.1,0,0.1,0,0.2,0c0,0,0.1,0,0.1,0c0,0,0,0,0,0c0.2,0,0.3-0.1,0.4-0.1c0,0,0,0,0,0c0,0,0,0,0,0
					c0.1-0.1,0.3-0.1,0.4-0.2c0,0,0,0,0,0c0,0,0,0,0.1,0c0,0,0.1-0.1,0.1-0.1c0,0,0.1-0.1,0.1-0.1c0,0,0.1-0.1,0.1-0.1
					c0.1-0.1,0.2-0.2,0.3-0.3c0,0,0,0,0,0c0,0,0,0,0,0c0,0,0,0,0,0c0,0,0-0.1,0.1-0.1c0,0,0.1-0.1,0.1-0.1c0,0,0.1-0.1,0.1-0.1
					c0,0,0,0,0,0c0,0,0,0,0,0c0,0,0-0.1,0-0.1c0,0,0-0.1,0-0.1c0,0,0-0.1,0-0.1c0,0,0-0.1,0-0.1c0,0,0-0.1,0-0.1l1.8-5.9h5.5
					c0.2,0,0.4,0,0.5,0c0,0,0.1,0,0.1,0c0.1,0,0.1,0,0.2,0c0.1,0,0.1,0,0.2,0c0,0,0.1,0,0.1,0c0,0,0,0,0,0
					C67.7,83.3,67.8,83.3,68,83.2C68,83.2,68,83.2,68,83.2z M66.1,74.2c0,0.1-0.1,0.2-0.1,0.2c0,0,0,0,0,0c-0.1,0.2-0.2,0.3-0.2,0.4
					c0,0,0,0,0,0c-0.1,0.1-0.2,0.3-0.3,0.4c0,0,0,0,0,0c-0.1,0.1-0.2,0.2-0.3,0.2c0,0-0.1,0-0.1,0.1c-0.1,0.1-0.2,0.1-0.3,0.2
					c0,0-0.1,0-0.1,0c-0.1,0.1-0.3,0.1-0.5,0.2c0,0-0.1,0-0.1,0c-0.1,0-0.3,0.1-0.4,0.1c-0.1,0-0.1,0-0.2,0c-0.1,0-0.1,0-0.2,0
					l0.6-1.9L66.1,74.2L66.1,74.2z"/>
				<path fill="#651815" d="M94.7,90C94.7,90,94.7,90,94.7,90c0-0.1,0-0.1,0-0.1c0,0,0,0,0-0.1c0,0,0,0,0,0c0,0,0,0,0,0
					c0,0,0-0.1,0-0.1c0,0,0-0.1,0-0.1l-0.2-0.8c0-0.1,0-0.1,0-0.2L93.9,87c0-0.1,0-0.1-0.1-0.2c0-0.1-0.1-0.3-0.1-0.5L93.6,86
					c-0.1-0.2-0.1-0.4-0.2-0.6c0-0.1,0-0.1,0-0.2l-0.1-0.3c0-0.1-0.1-0.3-0.1-0.4l-0.1-0.3c0-0.2-0.1-0.4-0.1-0.5l0-0.1
					c0-0.1-0.1-0.3-0.1-0.4c-0.1-0.2-0.1-0.5-0.2-0.7c0,0.1,0,0.2,0,0.2c0,0,0,0,0,0c0,0.1,0,0.1,0,0.2c0,0,0,0,0,0
					c0,0.1,0,0.1,0,0.2c0,0,0,0,0,0c0,0.1,0,0.1,0,0.2c0,0,0,0,0,0c0,0.1-0.1,0.2-0.2,0.4c0,0,0,0,0,0c-0.1,0.1-0.2,0.2-0.3,0.3
					c0,0,0,0-0.1,0.1c-0.1,0.1-0.2,0.1-0.3,0.2c0,0,0,0-0.1,0c-0.1,0.1-0.3,0.1-0.4,0.1c0,0,0,0-0.1,0c-0.1,0-0.3,0.1-0.5,0.1
					c-0.2,0-0.5,0-0.7,0l-4,0c-0.3,0-0.7,0-1-0.1c-0.3-0.1-0.6-0.1-0.8-0.3c-0.3-0.1-0.5-0.3-0.7-0.5c-0.2-0.2-0.4-0.4-0.5-0.7
					l-2.7-6h-2.1l-1.1,5.3c0,0.2-0.1,0.3-0.1,0.5c0,0,0,0,0,0c-0.1,0.2-0.1,0.3-0.2,0.4c0,0,0,0,0,0c-0.1,0.1-0.2,0.2-0.3,0.3
					c0,0,0,0,0,0.1c-0.1,0.1-0.2,0.2-0.3,0.3c0,0-0.1,0-0.1,0.1c-0.1,0.1-0.2,0.1-0.3,0.2c0,0-0.1,0-0.1,0c-0.1,0.1-0.3,0.1-0.5,0.2
					c0,0-0.1,0-0.1,0c-0.1,0-0.3,0.1-0.4,0.1c-0.1,0-0.1,0-0.2,0c-0.2,0-0.4,0-0.6,0h-3.4c-0.3,0-0.6,0-0.8-0.1
					c-0.2,0-0.5-0.1-0.6-0.2c-0.2-0.1-0.3-0.2-0.5-0.3c-0.1-0.1-0.2-0.3-0.3-0.4c1.1,2.3,2.2,4.7,3.3,7c0.1,0.1,0.2,0.3,0.3,0.4
					c0.1,0.1,0.3,0.2,0.5,0.3c0.2,0.1,0.4,0.1,0.6,0.2s0.5,0.1,0.8,0.1h3.3c0.2,0,0.4,0,0.6,0c0,0,0.1,0,0.1,0c0.1,0,0.1,0,0.2,0
					c0.1,0,0.2,0,0.3-0.1c0,0,0,0,0.1,0c0,0,0,0,0,0c0.1,0,0.3-0.1,0.4-0.1c0,0,0,0,0.1,0c0,0,0.1,0,0.1,0c0.1,0,0.2-0.1,0.3-0.2
					c0,0,0,0,0.1,0c0,0,0,0,0,0c0,0,0,0,0.1,0c0.1-0.1,0.2-0.1,0.3-0.2c0,0,0,0,0,0c0.1-0.1,0.1-0.1,0.2-0.2c0,0,0.1-0.1,0.1-0.1
					c0,0,0,0,0,0c0,0,0,0,0,0c0,0,0,0,0,0c0,0,0,0,0-0.1c0,0,0-0.1,0.1-0.1c0,0,0-0.1,0.1-0.1c0,0,0-0.1,0-0.1c0,0,0,0,0,0
					c0,0,0,0,0,0c0,0,0-0.1,0-0.1c0,0,0-0.1,0-0.1c0,0,0-0.1,0-0.2l0,0v0l0,0c0,0,0,0,0,0l1.1-5h2l2.6,5.7c0.1,0.3,0.3,0.5,0.5,0.7
					c0.2,0.2,0.4,0.3,0.7,0.5c0.2,0.1,0.5,0.2,0.8,0.3c0.3,0.1,0.6,0.1,0.9,0.1l3.8,0c0.2,0,0.5,0,0.7,0c0,0,0,0,0.1,0
					c0,0,0.1,0,0.1,0c0.1,0,0.2,0,0.3,0c0.1,0,0.1,0,0.1,0c0,0,0.1,0,0.1,0c0.1,0,0.1,0,0.2-0.1c0,0,0,0,0.1,0
					c0.1,0,0.2-0.1,0.3-0.1c0,0,0,0,0.1,0c0,0,0,0,0,0c0,0,0,0,0,0c0.1-0.1,0.2-0.2,0.3-0.2c0,0,0,0,0,0l0,0c0,0,0,0,0-0.1
					c0,0,0,0,0-0.1c0,0,0,0,0-0.1c0,0,0,0,0-0.1c0,0,0,0,0-0.1c0,0,0,0,0,0c0,0,0,0,0,0c0,0,0,0,0,0c0,0,0,0,0,0c0,0,0,0,0-0.1
					c0,0,0,0,0-0.1c0,0,0,0,0-0.1c0,0,0,0,0,0c0,0,0,0,0,0c0,0,0-0.1,0-0.1C94.7,90.1,94.7,90,94.7,90C94.7,90,94.7,90,94.7,90
					C94.7,90,94.7,90,94.7,90z"/>
				<path fill="#651815" d="M129.7,82.4c0,0.2,0,0.3,0,0.5c0,0,0,0,0,0c0,0.1-0.1,0.3-0.1,0.4c0,0,0,0,0,0c-0.1,0.1-0.1,0.2-0.2,0.3
					c0,0,0,0,0,0c-0.1,0.1-0.2,0.2-0.2,0.2c0,0,0,0-0.1,0c-0.1,0.1-0.2,0.1-0.3,0.2c0,0-0.1,0-0.1,0c-0.1,0.1-0.2,0.1-0.4,0.1
					c0,0,0,0-0.1,0c-0.2,0-0.3,0.1-0.5,0.1c0,0-0.1,0-0.1,0c-0.2,0-0.4,0-0.6,0H119l0-1.8h5.3c0.2,0,0.5,0,0.7,0c0,0,0,0,0.1,0
					c0,0,0.1,0,0.1,0c0.1,0,0.2,0,0.3-0.1c0,0,0.1,0,0.1,0c0,0,0.1,0,0.1,0c0,0,0.1,0,0.1,0c0.1,0,0.2-0.1,0.3-0.2
					c0,0,0.1,0,0.1-0.1c0,0,0,0,0,0c0,0,0,0,0.1,0c0.1-0.1,0.2-0.2,0.2-0.3c0,0,0,0,0,0c0,0,0,0,0,0c0,0,0,0,0,0c0,0,0,0,0-0.1
					c0,0,0-0.1,0-0.1c0,0,0-0.1,0-0.1c0,0,0-0.1,0-0.1c0,0,0,0,0,0c0,0,0,0,0,0c0,0,0,0,0,0c0,0,0,0,0,0c0,0,0-0.1,0-0.1
					c0,0,0-0.1,0-0.1c0,0,0-0.1,0-0.1c0,0,0-0.1,0-0.1c0,0,0,0,0,0c0,0,0,0,0,0c0,0,0-0.1,0-0.1c0,0,0-0.1,0-0.1c0,0,0-0.1,0-0.2
					l0-1.6l-0.1-4.9c0.1,0,0.1,0,0.2,0c0,0,0,0,0.1,0c0,0,0.1,0,0.1,0c0.1,0,0.2,0,0.2-0.1c0,0,0.1,0,0.1,0c0,0,0.1,0,0.1,0
					c0,0,0.1,0,0.1,0c0.1,0,0.2-0.1,0.3-0.2c0,0,0.1,0,0.1,0c0,0,0,0,0,0c0,0,0,0,0.1,0c0.1-0.1,0.1-0.1,0.2-0.2c0,0,0,0,0.1-0.1
					c0,0,0,0,0,0c0,0,0,0,0,0c0,0,0,0,0,0c0,0,0-0.1,0-0.1c0,0,0-0.1,0-0.1c0,0,0-0.1,0-0.1c0,0,0,0,0,0c0,0,0,0,0,0c0,0,0,0,0,0
					c0,0,0,0,0,0c0,0,0-0.1,0-0.1c0,0,0-0.1,0-0.1s0-0.1,0-0.1c0,0,0,0,0-0.1c0,0,0,0,0,0c0,0,0,0,0,0c0,0,0-0.1,0-0.1
					c0,0,0-0.1,0-0.1c0,0,0-0.1,0-0.1l0,0l0,0l0,0l-0.1-8c0,0.2,0,0.3,0,0.5c0,0,0,0,0,0c0,0.1-0.1,0.3-0.1,0.4c0,0,0,0,0,0
					c-0.1,0.1-0.1,0.2-0.2,0.4c0,0,0,0,0,0c0,0-0.1,0.1-0.1,0.1c-0.1,0.1-0.2,0.2-0.3,0.3c0,0-0.1,0.1-0.1,0.1
					c-0.1,0.1-0.2,0.1-0.3,0.2c-0.1,0-0.1,0-0.2,0.1c-0.1,0-0.2,0.1-0.4,0.1c-0.1,0-0.1,0-0.2,0c-0.2,0-0.4,0-0.6,0h-7.5l-0.1,2.9
					l0.5,6.1h-0.6l-0.1,3.1l0.5,6.1H112c-0.4,0-0.8,0-1.1-0.1c-0.3-0.1-0.6-0.2-0.8-0.3s-0.4-0.3-0.5-0.5c-0.1-0.2-0.2-0.4-0.3-0.7
					l1.1,7c0,0.3,0.1,0.5,0.3,0.7c0.1,0.2,0.3,0.4,0.5,0.5c0.2,0.1,0.5,0.2,0.8,0.3c0.3,0.1,0.6,0.1,1,0.1h14.2c0.2,0,0.5,0,0.7,0
					c0,0,0,0,0.1,0c0,0,0.1,0,0.1,0c0.1,0,0.2,0,0.3,0c0.1,0,0.1,0,0.2-0.1c0,0,0.1,0,0.1,0c0,0,0,0,0.1,0c0.1-0.1,0.2-0.1,0.3-0.2
					c0,0,0.1,0,0.1,0c0,0,0,0,0,0c0,0,0,0,0,0c0,0,0,0,0,0c0.1-0.1,0.2-0.1,0.2-0.2c0,0,0,0,0,0c0,0,0,0,0,0c0,0,0,0,0.1-0.1
					c0,0,0-0.1,0-0.1s0-0.1,0-0.1c0,0,0,0,0-0.1c0,0,0,0,0,0c0,0,0,0,0,0c0,0,0,0,0,0c0,0,0-0.1,0-0.1c0,0,0-0.1,0-0.1
					c0,0,0-0.1,0-0.1s0-0.1,0-0.1c0,0,0,0,0,0c0,0,0,0,0,0c0,0,0-0.1,0-0.1c0,0,0-0.1,0-0.1c0,0,0-0.1,0-0.1c0,0,0-0.1,0-0.1l0,0
					l0,0l0,0L129.7,82.4z M119.2,74.2h7.1c0.1,0,0.1,0,0.2,0c0,0.1-0.1,0.2-0.2,0.3c0,0,0,0,0,0c0,0,0,0,0,0
					c-0.1,0.1-0.2,0.2-0.3,0.3c0,0-0.1,0.1-0.1,0.1c-0.1,0.1-0.2,0.1-0.3,0.2c-0.1,0-0.1,0-0.2,0.1c-0.1,0-0.3,0.1-0.4,0.1
					c-0.1,0-0.1,0-0.2,0c-0.2,0-0.4,0-0.7,0h-4.9L119.2,74.2z"/>
				<path fill="#651815" d="M213.2,82.3c-0.1,0.2-0.3,0.4-0.5,0.5c0,0,0,0-0.1,0.1c-0.2,0.2-0.4,0.3-0.6,0.5c0,0-0.1,0-0.1,0.1
					c-0.2,0.1-0.4,0.3-0.7,0.4c0,0-0.1,0-0.1,0.1c-0.2,0.1-0.5,0.2-0.8,0.3c0,0-0.1,0-0.1,0c-0.3,0.1-0.6,0.2-0.9,0.3
					c0,0-0.1,0-0.1,0c-0.3,0.1-0.7,0.1-1,0.2c0,0-0.1,0-0.1,0c-0.4,0.1-0.8,0.1-1.2,0.1c0,0-0.1,0-0.1,0c-0.4,0-0.9,0-1.3,0
					c-1.1,0-2.2-0.1-3.2-0.2c-0.3,0-0.7-0.1-1-0.2l3.6-6.6c0,0,0-0.1,0-0.1c0,0,0-0.1,0-0.1c0,0,0-0.1,0-0.1c0,0,0-0.1,0-0.2
					c-0.3-0.6-1.2-1.1-2.6-1.5c-0.4-0.1-0.8-0.2-1.2-0.4c0.1,0,0.2,0,0.3,0c0.1,0,0.2,0,0.3,0c0,0,0,0,0,0c0,0,0,0,0,0
					c0,0,0,0,0.1,0c0.1,0,0.1,0,0.2,0c0,0,0,0,0,0c0,0,0,0,0,0c0,0,0,0,0.1,0c0,0,0.1,0,0.1-0.1c0,0,0,0,0.1-0.1c0,0,0,0,0,0
					c0,0,0,0,0-0.1c0,0,0,0,0.1-0.1c0,0,0,0,0,0c0,0,0,0,0,0c0,0,0,0,0,0c0,0,0,0,0,0l0,0c1.3-2.6,2.7-5.2,4-7.9
					c0,0.1-0.1,0.2-0.2,0.2c0,0-0.1,0.1-0.1,0.1c-0.1,0-0.1,0.1-0.2,0.1c0,0-0.1,0-0.1,0.1c-0.1,0-0.1,0.1-0.2,0.1c0,0-0.1,0-0.1,0
					c-0.1,0-0.2,0-0.3,0c-0.1,0-0.3,0-0.4,0c-0.1,0-0.3-0.1-0.5-0.1c-0.2,0-0.3-0.1-0.5-0.1c-0.2-0.1-0.3-0.1-0.5-0.2
					c-0.4-0.1-0.8-0.3-1.2-0.4c-0.4-0.1-0.7-0.2-1.1-0.3c-0.4-0.1-0.7-0.2-1.1-0.2c-0.4-0.1-0.8-0.1-1.2-0.1c-0.1,0-0.2,0-0.4,0
					c0,0-0.1,0-0.1,0c-0.1,0-0.1,0-0.2,0c0,0,0,0,0,0c0,0,0,0,0,0c0,0-0.1,0-0.1,0c-0.1,0-0.1,0-0.2,0c0,0-0.1,0-0.1,0
					c0,0-0.1,0-0.1,0c0,0,0,0,0,0c0,0,0,0,0,0c0,0,0,0,0,0c0,0-0.1,0-0.1,0c0,0,0,0-0.1,0c0,0,0,0,0,0c0,0,0,0,0,0c0,0,0,0-0.1,0
					c0,0-0.1,0.1-0.1,0.1c0,0,0,0,0,0c0,0,0,0,0,0c0,0,0,0,0,0c0,0,0,0,0,0c0,0,0,0,0,0l-2.9,6.4c-0.7-0.3-1.3-0.7-1.9-1.1
					c-1.5-1.1-2.8-2.5-3.4-4.5c-0.1-0.4-0.2-0.7-0.3-1.1c-0.1-0.4-0.1-0.7-0.1-1c0-0.3,0-0.7,0.1-1c0.1-0.3,0.1-0.6,0.2-0.9l-3.1,8
					c-0.1,0.3-0.2,0.5-0.2,0.8c-0.1,0.3-0.1,0.6-0.1,0.9c0,0.3,0,0.6,0.1,1c0.1,0.3,0.1,0.7,0.3,1c0.5,1.6,1.5,2.8,2.6,3.8
					c-0.1,0.2-0.2,0.3-0.2,0.5c0,0,0,0.1,0,0.1c-0.1,0.2-0.2,0.4-0.3,0.5c0,0,0,0.1-0.1,0.1c-0.1,0.1-0.2,0.3-0.3,0.4
					c0,0.1-0.1,0.1-0.1,0.2c-0.1,0.2-0.3,0.3-0.5,0.5c0,0,0,0,0,0c-0.2,0.1-0.3,0.3-0.5,0.4c-0.1,0-0.1,0.1-0.2,0.1
					c-0.1,0.1-0.3,0.2-0.4,0.3c-0.1,0.1-0.2,0.1-0.2,0.2c-0.1,0.1-0.3,0.2-0.4,0.2c-0.1,0-0.2,0.1-0.3,0.1c-0.1,0.1-0.3,0.1-0.4,0.2
					c-0.1,0-0.2,0.1-0.3,0.1c-0.2,0.1-0.3,0.1-0.5,0.2c-0.1,0-0.2,0.1-0.2,0.1c-0.3,0.1-0.5,0.2-0.8,0.3c0,0,0,0,0,0
					c-0.3,0.1-0.5,0.2-0.8,0.2c-0.1,0-0.2,0-0.3,0.1c-0.2,0-0.4,0.1-0.6,0.1c-0.1,0-0.2,0-0.4,0.1c-0.2,0-0.4,0.1-0.6,0.1
					c-0.1,0-0.3,0-0.4,0.1c-0.2,0-0.4,0-0.6,0.1c-0.1,0-0.3,0-0.4,0c-0.2,0-0.5,0-0.7,0c-0.1,0-0.2,0-0.3,0c-0.4,0-0.7,0-1.1,0
					l-8.5,0c-0.5,0-0.9,0-1.3-0.1c-0.4-0.1-0.7-0.2-1-0.4c-0.3-0.2-0.5-0.4-0.7-0.7c-0.2-0.3-0.3-0.6-0.4-0.9l-3.9-19.9
					c0-0.1,0-0.2,0-0.3c0-0.1,0-0.2,0-0.2c0-0.1,0-0.2,0-0.2c0-0.1,0-0.1,0-0.2l-1.6,8.2c0,0.1,0,0.1,0,0.2c0,0.1,0,0.1,0,0.2
					c0,0.1,0,0.2,0,0.2c0,0.1,0,0.2,0,0.2l3.7,18.9c0.1,0.3,0.2,0.6,0.3,0.9c0.2,0.3,0.4,0.5,0.6,0.7c0.3,0.2,0.6,0.3,0.9,0.4
					c0.4,0.1,0.7,0.1,1.2,0.1l8,0c0.4,0,0.7,0,1.1,0c0.1,0,0.2,0,0.3,0c0.2,0,0.5,0,0.7,0c0.1,0,0.2,0,0.4,0c0.2,0,0.4,0,0.6-0.1
					c0.1,0,0.2,0,0.4,0c0.1,0,0.2,0,0.2,0c0.1,0,0.2,0,0.3-0.1c0.1,0,0.2,0,0.2,0c0,0,0.1,0,0.1,0c0.2,0,0.4-0.1,0.6-0.1
					c0.1,0,0.2,0,0.3-0.1c0.3-0.1,0.5-0.1,0.8-0.2c0,0,0,0,0,0c0.2-0.1,0.5-0.1,0.7-0.2c0,0,0,0,0.1,0c0.1,0,0.2-0.1,0.2-0.1
					c0.2-0.1,0.3-0.1,0.5-0.2c0,0,0.1,0,0.1,0c0.1,0,0.1-0.1,0.2-0.1c0.1-0.1,0.3-0.1,0.4-0.2c0.1,0,0.2-0.1,0.2-0.1
					c0.1-0.1,0.3-0.2,0.4-0.2c0.1,0,0.2-0.1,0.2-0.1c0,0,0.1,0,0.1-0.1c0.1-0.1,0.2-0.1,0.3-0.2c0.1,0,0.1-0.1,0.2-0.1
					c0.2-0.1,0.3-0.3,0.5-0.4c0,0,0,0,0,0c0,0,0,0,0,0c0.2-0.2,0.3-0.3,0.4-0.5c0-0.1,0.1-0.1,0.1-0.2c0.1-0.1,0.1-0.2,0.2-0.3
					c0,0,0-0.1,0.1-0.1c0,0,0-0.1,0.1-0.1c0,0,0.1-0.1,0.1-0.1c0.1-0.1,0.1-0.2,0.2-0.3c0,0,0,0,0-0.1c0,0,0-0.1,0-0.1
					c0-0.1,0.1-0.1,0.1-0.2c0.1-0.1,0.1-0.2,0.2-0.3l0,0c0,0,0,0,0,0c0,0,0,0,0,0c0,0,0,0,0,0v0c1-2.4,2-4.8,3-7.1
					c0.2,0.2,0.4,0.3,0.6,0.5c1,0.7,2.1,1.2,3.2,1.7l-2.6,5.6c-0.2,0.3-0.2,0.6-0.2,0.9c0,0.3,0.1,0.5,0.3,0.7
					c0.2,0.2,0.4,0.4,0.6,0.6c0.2,0.2,0.5,0.3,0.8,0.5c0.5,0.3,1.1,0.5,1.9,0.8c0.7,0.3,1.6,0.5,2.5,0.7c0.9,0.2,1.9,0.4,2.9,0.5
					c1,0.1,2,0.2,3,0.2c0.4,0,0.9,0,1.3,0c0,0,0.1,0,0.1,0c0.4,0,0.8-0.1,1.1-0.1c0,0,0.1,0,0.1,0c0,0,0,0,0,0c0,0,0.1,0,0.1,0
					c0.3-0.1,0.6-0.1,0.9-0.2c0,0,0.1,0,0.1,0c0.3-0.1,0.6-0.2,0.8-0.3c0,0,0,0,0.1,0c0,0,0,0,0.1,0c0.1,0,0.1,0,0.2-0.1
					c0.2-0.1,0.4-0.2,0.6-0.3c0,0,0.1,0,0.1-0.1c0.2-0.1,0.4-0.2,0.6-0.4c0,0,0,0,0,0c0,0,0,0,0,0c0.1,0,0.1-0.1,0.2-0.1
					c0.1-0.1,0.2-0.2,0.4-0.3c0,0,0,0,0.1-0.1c0.2-0.2,0.3-0.3,0.4-0.5c0,0,0,0,0,0c0,0,0,0,0-0.1c0,0,0,0,0-0.1c0,0,0,0,0-0.1
					c0,0,0,0,0-0.1l4.4-7.1C213.3,82.1,213.3,82.2,213.2,82.3z M198.1,74.7C198.1,74.7,198.1,74.7,198.1,74.7
					C198.1,74.7,198.1,74.7,198.1,74.7z M196.6,83.4c-0.8-0.3-1.5-0.6-2-0.8c-0.3-0.2-0.6-0.3-0.9-0.5c-0.1-0.1-0.3-0.2-0.4-0.3
					c0.2,0.1,0.4,0.1,0.6,0.2c1.7,0.6,3.3,1,4.6,1.4c1.1,0.4,1.9,0.7,2.3,1.2c-0.5-0.1-1-0.2-1.5-0.3
					C198.3,83.9,197.4,83.7,196.6,83.4z"/>
				<path fill="#651815" d="M147.1,70.5l0.9,6.7c0,0.4,0.1,0.8,0.2,1.3c0.1,0.5,0.2,0.9,0.3,1.3c0.1,0.4,0.2,0.8,0.2,1.1
					c0.1,0.3,0.1,0.5,0.1,0.5c0.3-2.5,0.7-5,1-7.5c0,0,0-0.2-0.1-0.6s-0.2-0.7-0.3-1.2c-0.1-0.4-0.2-0.9-0.3-1.4
					c-0.1-0.5-0.2-0.9-0.2-1.3l-0.9-7.1c0-0.1,0-0.1,0-0.2c0-0.1,0-0.1,0-0.2c0-0.1,0-0.1,0-0.2c0-0.1,0-0.1,0-0.2l-0.9,8.1
					c0,0.1,0,0.1,0,0.2c0,0.1,0,0.1,0,0.2c0,0.1,0,0.1,0,0.2C147.1,70.4,147.1,70.4,147.1,70.5z"/>
				<path fill="#651815" d="M142,83.2c0,0.1-0.1,0.2-0.1,0.3c0,0,0,0,0,0c-0.1,0.1-0.1,0.2-0.2,0.3c0,0,0,0-0.1,0.1
					c-0.1,0.1-0.2,0.1-0.3,0.2c0,0,0,0-0.1,0c-0.1,0.1-0.2,0.1-0.3,0.1c0,0-0.1,0-0.1,0c-0.1,0-0.2,0.1-0.4,0.1c0,0,0,0-0.1,0
					c-0.1,0-0.3,0-0.4,0.1c0,0-0.1,0-0.1,0c-0.2,0-0.3,0-0.5,0H136c-0.5,0-0.9,0-1.2-0.1c-0.4-0.1-0.7-0.2-0.9-0.4
					c-0.2-0.2-0.4-0.4-0.6-0.7c-0.1-0.3-0.2-0.6-0.2-0.9l-1-19.9c0,0,0,0,0-0.1c0,0,0,0,0-0.1c0,0,0,0,0-0.1c0,0,0,0,0-0.1l-0.1,8.1
					c0,0,0,0,0,0.1c0,0,0,0,0,0.1c0,0,0,0,0,0.1c0,0,0,0,0,0.1l0.9,18.9c0,0.3,0.1,0.6,0.2,0.9c0.1,0.3,0.3,0.5,0.5,0.7
					c0.2,0.2,0.5,0.3,0.9,0.4c0.3,0.1,0.7,0.1,1.2,0.1h3.3c0.2,0,0.5,0,0.7,0c0,0,0.1,0,0.1,0c0,0,0.1,0,0.1,0c0.1,0,0.1,0,0.2,0
					c0.1,0,0.1,0,0.2-0.1c0,0,0.1,0,0.1,0c0,0,0,0,0,0c0.1-0.1,0.3-0.1,0.4-0.2c0,0,0,0,0,0c0,0,0,0,0,0c0,0,0,0,0,0
					c0.1-0.1,0.2-0.2,0.3-0.3c0,0,0,0,0,0c0,0,0,0,0-0.1c0,0,0,0,0-0.1c0,0,0,0,0,0c0,0,0,0,0,0c0,0,0,0,0,0c0,0,0,0,0-0.1
					c0,0,0-0.1,0-0.1c0,0,0-0.1,0-0.1c0,0,0-0.1,0-0.1c0,0,0,0,0,0c0,0,0,0,0,0c0,0,0,0,0-0.1c0,0,0-0.1,0-0.1c0,0,0,0,0-0.1
					c0,0,0,0,0-0.1c0,0,0,0,0-0.1c0,0,0,0,0-0.1l0,0l0.6-7.1C142.1,83,142,83.1,142,83.2C142,83.2,142,83.2,142,83.2z"/>
				<path fill="#651815" d="M159.6,83.5c0,0.1-0.1,0.2-0.2,0.3c0,0,0,0,0,0c0,0.1-0.1,0.1-0.2,0.2c0,0,0,0-0.1,0.1
					c-0.1,0-0.1,0.1-0.2,0.1c0,0-0.1,0-0.1,0c-0.1,0-0.2,0.1-0.3,0.1c-0.2,0.1-0.3,0.1-0.5,0.1c0,0-0.1,0-0.1,0c-0.2,0-0.4,0-0.7,0
					h-4.1c-0.4,0-0.7,0-1.1-0.1c-0.3-0.1-0.6-0.1-0.9-0.3s-0.6-0.3-0.8-0.5c-0.2-0.2-0.5-0.4-0.7-0.7l-5.9-7.8
					c-0.3-0.4-0.7-0.9-1-1.4c-0.3-0.5-0.6-1-0.9-1.4c-0.3-0.4-0.5-0.8-0.7-1.1c-0.2-0.3-0.3-0.5-0.3-0.5h0h0c0,0,0,0,0,0v0l0,0l0,0
					l0,0c0,0,0,0,0,0c0,0,0,0,0,0s0,0,0,0l0,0l0,0v0c0,0,0,0,0,0c0,0,0,0,0,0c0,0,0,0,0,0v0v0c0,0,0,0,0,0c0,0,0,0,0,0v0
					c0,0,0,0,0,0v0c0,0,0,0,0,0c-0.2,2.6-0.4,5.1-0.6,7.7v0v0c0,0,0,0,0,0c0,0,0,0,0,0c0,0,0,0,0,0c0,0,0,0,0,0l0,0c0,0,0,0,0,0
					c0,0,0.1,0.2,0.3,0.5c0.2,0.3,0.4,0.6,0.6,1.1c0.3,0.4,0.6,0.9,0.9,1.3c0.3,0.5,0.6,0.9,1,1.3l5.6,7.4c0.2,0.2,0.4,0.5,0.7,0.6
					c0.2,0.2,0.5,0.3,0.8,0.4c0.3,0.1,0.6,0.2,0.9,0.3c0.3,0.1,0.7,0.1,1,0.1h3.9c0.2,0,0.4,0,0.6,0c0,0,0.1,0,0.1,0c0,0,0,0,0.1,0
					c0,0,0.1,0,0.1,0c0.1,0,0.3-0.1,0.4-0.1c0,0,0,0,0,0c0,0,0,0,0,0c0.1,0,0.2-0.1,0.3-0.1c0,0,0.1,0,0.1-0.1c0,0,0,0,0.1,0
					c0,0,0,0,0,0c0.1-0.1,0.2-0.2,0.3-0.3c0,0,0,0,0,0c0,0,0,0,0,0c0,0,0,0,0-0.1c0,0,0,0,0-0.1c0,0,0,0,0-0.1c0,0,0,0,0,0
					c0,0,0,0,0,0c0,0,0,0,0,0c0,0,0,0,0-0.1c0,0,0,0,0-0.1c0,0,0,0,0-0.1c0,0,0,0,0-0.1l0,0l1.6-7C159.6,83.3,159.6,83.4,159.6,83.5
					C159.6,83.5,159.6,83.5,159.6,83.5z"/>
			</g>
			<path fill="#FFAE31" d="M69.1,60.2c0.4,0,0.8,0,1,0.1s0.5,0.2,0.7,0.4c0.2,0.2,0.3,0.4,0.3,0.7c0,0.3,0,0.6-0.1,1l-0.4,1.7
				c-0.1,0.4-0.2,0.7-0.4,0.9c-0.2,0.3-0.4,0.5-0.7,0.7c-0.3,0.2-0.6,0.3-0.9,0.4c-0.3,0.1-0.7,0.1-1.2,0.1h-7.3L59,70h5.6
				c0.4,0,0.8,0,1.1,0.1c0.3,0.1,0.5,0.2,0.7,0.4c0.2,0.2,0.3,0.4,0.3,0.7c0,0.3,0,0.6-0.1,1l-0.5,1.7c-0.1,0.4-0.2,0.7-0.4,1
				c-0.2,0.3-0.4,0.5-0.7,0.7c-0.3,0.2-0.6,0.3-1,0.4c-0.4,0.1-0.8,0.1-1.2,0.1h-5.8l-2,6.2c-0.1,0.4-0.3,0.7-0.5,0.9
				c-0.2,0.3-0.5,0.5-0.7,0.7s-0.6,0.3-1,0.4c-0.4,0.1-0.8,0.1-1.3,0.1h-3.4c-0.5,0-0.9,0-1.2-0.1s-0.6-0.2-0.7-0.4
				c-0.2-0.2-0.3-0.4-0.3-0.7c0-0.3,0-0.6,0.2-0.9l7.1-19.9c0.1-0.4,0.3-0.7,0.5-1c0.2-0.3,0.4-0.5,0.7-0.7c0.3-0.2,0.6-0.3,0.9-0.4
				c0.3-0.1,0.7-0.1,1.1-0.1L69.1,60.2L69.1,60.2z"/>
			<path fill="#FFAE31" d="M93.5,68c-0.1,0.6-0.3,1.3-0.5,1.9c-0.3,0.6-0.6,1.3-1,1.9c-0.4,0.6-0.9,1.2-1.5,1.7
				c-0.6,0.5-1.3,1-2.1,1.3c0,0,0,0.1,0.1,0.2c0.1,0.1,0.1,0.2,0.2,0.3c0.1,0.1,0.2,0.3,0.3,0.5c0.1,0.2,0.3,0.4,0.4,0.6l3,5.4
				c0.2,0.4,0.3,0.8,0.3,1.1s-0.1,0.6-0.4,0.8c-0.2,0.2-0.5,0.4-0.9,0.5s-0.9,0.2-1.4,0.2l-4,0c-0.3,0-0.7,0-1-0.1
				c-0.3-0.1-0.6-0.1-0.8-0.3c-0.3-0.1-0.5-0.3-0.7-0.5S83.2,83.3,83,83l-2.7-6h-2.1l-1.1,5.3c-0.1,0.4-0.2,0.7-0.4,0.9
				c-0.2,0.3-0.4,0.5-0.7,0.7c-0.3,0.2-0.6,0.3-1,0.4c-0.4,0.1-0.8,0.1-1.3,0.1h-3.4c-0.5,0-0.9,0-1.2-0.1c-0.3-0.1-0.6-0.2-0.8-0.4
				c-0.2-0.2-0.3-0.4-0.4-0.7c-0.1-0.3,0-0.6,0.1-0.9l5.1-19.9c0.1-0.4,0.2-0.7,0.4-1c0.2-0.3,0.4-0.5,0.7-0.7
				c0.3-0.2,0.6-0.3,0.9-0.4s0.7-0.1,1.1-0.1l7.5,0c0.6,0,1.2,0,1.7,0c0.5,0,1,0,1.5,0.1c0.4,0,0.8,0.1,1.2,0.2
				c0.4,0.1,0.7,0.1,1,0.2c0.7,0.2,1.4,0.6,2,1c0.6,0.4,1.1,1,1.5,1.6c0.4,0.6,0.7,1.3,0.8,2.1C93.6,66.3,93.6,67.1,93.5,68z
				 M84.9,68.3c0-0.2,0.1-0.3,0.1-0.5c0-0.2,0-0.3-0.1-0.5c-0.1-0.2-0.2-0.3-0.3-0.4c-0.1-0.1-0.3-0.3-0.6-0.4
				c-0.1-0.1-0.3-0.1-0.5-0.1c-0.2,0-0.3-0.1-0.5-0.1c-0.2,0-0.4,0-0.6,0s-0.4,0-0.6,0h-1.3l-1,4.6h1.8c0.5,0,1,0,1.4-0.1
				c0.4-0.1,0.7-0.2,1-0.5c0.3-0.2,0.5-0.5,0.7-0.8C84.7,69.2,84.8,68.8,84.9,68.3"/>
			<path fill="#FFAE31" d="M103.9,60.2c0.4,0,0.8,0,1.1,0.1c0.3,0.1,0.5,0.2,0.7,0.4c0.2,0.2,0.3,0.4,0.4,0.7c0.1,0.3,0.1,0.6,0.1,1
				l-1.7,19.9c0,0.4-0.1,0.7-0.3,0.9c-0.1,0.3-0.3,0.5-0.6,0.7c-0.3,0.2-0.6,0.3-0.9,0.4c-0.4,0.1-0.8,0.1-1.2,0.1h-3.4
				c-0.5,0-0.9,0-1.2-0.1c-0.3-0.1-0.6-0.2-0.8-0.4c-0.2-0.2-0.4-0.4-0.5-0.7c-0.1-0.3-0.1-0.6-0.1-0.9L98,62.4c0-0.4,0.1-0.7,0.3-1
				c0.1-0.3,0.3-0.5,0.6-0.7c0.2-0.2,0.5-0.3,0.8-0.4s0.7-0.1,1.1-0.1C100.8,60.2,103.9,60.2,103.9,60.2z"/>
			<path fill="#FFAE31" d="M126,60.2c0.4,0,0.8,0,1.1,0.1s0.6,0.2,0.8,0.4c0.2,0.2,0.4,0.4,0.5,0.7c0.1,0.3,0.2,0.6,0.2,1l0.1,1.7
				c0,0.4,0,0.7-0.1,0.9s-0.3,0.5-0.5,0.7c-0.2,0.2-0.5,0.3-0.8,0.4c-0.3,0.1-0.7,0.1-1.1,0.1h-7.5l-0.1,2.9h5.5
				c0.4,0,0.8,0,1.1,0.1c0.3,0.1,0.6,0.2,0.8,0.4s0.4,0.4,0.5,0.7s0.2,0.6,0.2,0.9l0,1.7c0,0.4,0,0.7-0.2,1s-0.3,0.5-0.5,0.7
				c-0.2,0.2-0.5,0.3-0.8,0.4c-0.3,0.1-0.7,0.1-1.2,0.1h-5.6l-0.1,3.1h8.5c0.5,0,0.9,0,1.2,0.1c0.3,0.1,0.6,0.2,0.9,0.4
				c0.2,0.2,0.4,0.4,0.6,0.7c0.1,0.3,0.2,0.6,0.2,0.9l0.1,1.7c0,0.4,0,0.7-0.2,0.9c-0.1,0.3-0.3,0.5-0.5,0.7
				c-0.2,0.2-0.5,0.3-0.9,0.4c-0.4,0.1-0.8,0.1-1.2,0.1h-15c-0.5,0-0.9,0-1.2-0.1c-0.3-0.1-0.6-0.2-0.9-0.4
				c-0.2-0.2-0.4-0.4-0.5-0.7c-0.1-0.3-0.1-0.6-0.1-0.9l1.2-19.9c0-0.4,0.1-0.7,0.2-1s0.3-0.5,0.5-0.7c0.2-0.2,0.5-0.3,0.8-0.4
				c0.3-0.1,0.7-0.1,1.1-0.1L126,60.2L126,60.2z"/>
			<path fill="#FFAE31" d="M188.4,72.3c0.6,1.9,0.8,3.6,0.5,5.1c-0.3,1.5-0.9,2.8-2,3.9c-1.1,1.1-2.5,1.9-4.3,2.4
				c-1.8,0.6-4,0.8-6.4,0.8l-8.5,0c-0.5,0-0.9,0-1.3-0.1c-0.4-0.1-0.7-0.2-1-0.4c-0.3-0.2-0.5-0.4-0.7-0.7c-0.2-0.3-0.3-0.6-0.4-0.9
				l-3.9-19.9c-0.1-0.4-0.1-0.7,0-1c0.1-0.3,0.2-0.5,0.3-0.7c0.2-0.2,0.4-0.3,0.7-0.4c0.3-0.1,0.7-0.1,1.1-0.1h7.5
				c2.2,0,4.3,0.3,6.2,0.8c1.9,0.5,3.7,1.3,5.3,2.4c1.6,1,3,2.3,4.1,3.8C186.9,68.7,187.8,70.4,188.4,72.3z M174.4,78.4
				c1.1,0,2-0.1,2.8-0.4c0.8-0.3,1.4-0.6,1.8-1.2c0.4-0.5,0.7-1.2,0.8-1.9c0.1-0.8,0-1.7-0.3-2.7c-0.3-1-0.7-1.9-1.2-2.6
				c-0.5-0.8-1.1-1.4-1.8-1.9c-0.7-0.5-1.5-0.9-2.4-1.1c-0.9-0.2-1.8-0.4-2.8-0.4h-1.8l2.9,12.2H174.4"/>
			<path fill="#FFAE31" d="M196.5,59.8c0.8,0,1.6,0.1,2.4,0.2c0.8,0.1,1.6,0.2,2.3,0.4c0.7,0.2,1.4,0.4,2.1,0.6s1.2,0.4,1.6,0.6
				c0.4,0.2,0.8,0.4,1.1,0.7c0.3,0.2,0.5,0.5,0.7,0.7c0.2,0.3,0.3,0.5,0.3,0.8c0.1,0.3,0.1,0.6,0,0.9l-0.3,1.9
				c0,0.2-0.1,0.4-0.2,0.6c-0.1,0.2-0.2,0.3-0.3,0.4s-0.2,0.2-0.4,0.2c-0.1,0-0.3,0.1-0.5,0.1c-0.1,0-0.3,0-0.4,0
				c-0.1,0-0.3-0.1-0.5-0.1c-0.2,0-0.3-0.1-0.5-0.1s-0.3-0.1-0.5-0.2c-0.4-0.1-0.8-0.3-1.2-0.4c-0.4-0.1-0.7-0.2-1.1-0.3
				c-0.4-0.1-0.7-0.2-1.1-0.2c-0.4-0.1-0.8-0.1-1.2-0.1c-0.4,0-0.7,0-1,0.1c-0.3,0.1-0.4,0.1-0.6,0.2c-0.1,0.1-0.2,0.2-0.2,0.4
				c0,0.1,0,0.3,0.1,0.4c0.3,0.7,1.2,1.2,2.5,1.6c1.3,0.4,3,0.8,4.8,1.4c1.8,0.6,3.6,1.3,5.2,2.3c1.6,1.1,3,2.5,3.8,4.4
				c0.5,1.1,0.6,2.1,0.6,3c-0.1,0.9-0.4,1.8-1.1,2.5s-1.6,1.3-2.8,1.7c-1.2,0.4-2.8,0.6-4.6,0.6c-1.1,0-2.2-0.1-3.2-0.2
				c-1.1-0.1-2.1-0.3-3.1-0.6c-1-0.2-1.9-0.5-2.6-0.8c-0.8-0.3-1.5-0.6-2-0.8c-0.3-0.2-0.6-0.3-0.9-0.5c-0.3-0.2-0.5-0.4-0.7-0.7
				c-0.2-0.2-0.3-0.5-0.3-0.8c0-0.3,0.1-0.6,0.3-1l1-1.9c0.1-0.2,0.2-0.3,0.3-0.4c0.1-0.1,0.2-0.2,0.4-0.3c0.1-0.1,0.3-0.1,0.4-0.2
				c0.2,0,0.3-0.1,0.5-0.1c0.1,0,0.3,0,0.4,0s0.3,0,0.5,0.1c0.2,0,0.3,0.1,0.5,0.1c0.2,0.1,0.4,0.1,0.6,0.2c0.3,0.1,0.6,0.2,1,0.3
				c0.4,0.1,0.8,0.3,1.3,0.5c0.5,0.2,1,0.3,1.5,0.4c0.5,0.1,1.1,0.2,1.7,0.2c0.4,0,0.8,0,1-0.1c0.3-0.1,0.5-0.1,0.6-0.2
				c0.1-0.1,0.2-0.2,0.2-0.3c0-0.1,0-0.3-0.1-0.4c-0.3-0.6-1.2-1.1-2.6-1.5s-3.1-0.9-4.8-1.4c-1.8-0.6-3.6-1.3-5.1-2.4
				c-1.5-1.1-2.8-2.5-3.4-4.5c-0.4-1.2-0.5-2.2-0.3-3.2c0.2-0.9,0.6-1.8,1.3-2.5c0.7-0.7,1.6-1.2,2.7-1.6
				C193.7,60,195,59.8,196.5,59.8z"/>
			<path fill="#FFAE31" d="M134.5,60.2l3.7,0c0.4,0,0.7,0,1,0.1c0.3,0.1,0.6,0.1,0.8,0.3c0.3,0.1,0.5,0.3,0.7,0.5s0.4,0.4,0.6,0.7
				l5.5,7.8c0.3,0.4,0.7,0.9,1,1.4c0.3,0.5,0.7,1,1,1.4c0.3,0.4,0.5,0.8,0.7,1.1c0.2,0.3,0.3,0.5,0.3,0.5c0,0,0-0.2-0.1-0.5
				s-0.2-0.7-0.3-1.2c-0.1-0.5-0.2-1-0.3-1.5c-0.1-0.5-0.2-1-0.2-1.4l-0.9-7.1c0-0.4,0-0.7,0-1c0.1-0.3,0.2-0.5,0.4-0.7
				c0.2-0.2,0.4-0.3,0.7-0.4c0.3-0.1,0.7-0.1,1.1-0.1h3.1c0.4,0,0.8,0,1.1,0.1c0.3,0.1,0.6,0.2,0.9,0.4c0.2,0.2,0.4,0.4,0.6,0.7
				c0.2,0.3,0.3,0.6,0.3,1l3.5,19.9c0.1,0.4,0.1,0.7,0,0.9c-0.1,0.3-0.2,0.5-0.4,0.7s-0.5,0.3-0.8,0.4c-0.3,0.1-0.7,0.1-1.2,0.1
				h-4.1c-0.4,0-0.7,0-1.1-0.1c-0.3-0.1-0.6-0.1-0.9-0.3c-0.3-0.1-0.6-0.3-0.8-0.5c-0.2-0.2-0.5-0.4-0.7-0.7l-5.9-7.8
				c-0.3-0.4-0.7-0.9-1-1.4c-0.3-0.5-0.6-1-0.9-1.4c-0.3-0.4-0.5-0.8-0.7-1.1c-0.2-0.3-0.3-0.5-0.3-0.5c0,0,0,0.2,0.1,0.5
				c0,0.3,0.1,0.7,0.2,1.1c0.1,0.5,0.2,1,0.2,1.4c0.1,0.5,0.1,1,0.2,1.4l0.6,7.1c0,0.4,0,0.7-0.1,0.9s-0.2,0.5-0.5,0.7
				c-0.2,0.2-0.5,0.3-0.8,0.4c-0.3,0.1-0.7,0.1-1.2,0.1H136c-0.5,0-0.9,0-1.2-0.1c-0.4-0.1-0.7-0.2-0.9-0.4
				c-0.2-0.2-0.4-0.4-0.6-0.7c-0.1-0.3-0.2-0.6-0.2-0.9l-1-19.9c0-0.4,0-0.7,0.1-1s0.2-0.5,0.4-0.7c0.2-0.2,0.5-0.3,0.8-0.4
				C133.7,60.2,134.1,60.2,134.5,60.2z"/>
		</g>
		<g>
			<path fill="#FF8E32" d="M45.9,83.3c0,0.3,0.1,0.5,0.3,0.7s0.4,0.3,0.7,0.4c0.3,0.1,0.7,0.1,1.2,0.1h3.4c0.5,0,0.9,0,1.3-0.1
				c0.4-0.1,0.7-0.2,1-0.4c0.3-0.2,0.5-0.4,0.7-0.7c0.2-0.3,0.4-0.6,0.5-0.9l2-6.2h5.8c0.4,0,0.8,0,1.2-0.1s0.7-0.2,1-0.4
				s0.5-0.4,0.7-0.7c0.2-0.3,0.3-0.6,0.4-1l0.1-0.4c-6,0.4-12,1.2-17.5,1.5l-2.6,7.4C46,82.7,45.9,83,45.9,83.3z"/>
			<path fill="#FF8E32" d="M68.1,83.3c0.1,0.3,0.2,0.5,0.4,0.7c0.2,0.2,0.5,0.3,0.8,0.4c0.3,0.1,0.7,0.1,1.2,0.1h3.4
				c0.5,0,0.9,0,1.3-0.1c0.4-0.1,0.7-0.2,1-0.4c0.3-0.2,0.5-0.4,0.7-0.7c0.2-0.3,0.3-0.6,0.4-0.9l1.1-5.3h2.1l2.7,6
				c0.1,0.3,0.3,0.5,0.5,0.7c0.2,0.2,0.4,0.4,0.7,0.5c0.3,0.1,0.5,0.2,0.8,0.3c0.3,0.1,0.6,0.1,1,0.1l4,0c0.5,0,1-0.1,1.4-0.2
				c0.4-0.1,0.7-0.3,0.9-0.5c0.2-0.2,0.3-0.5,0.4-0.8s-0.1-0.7-0.3-1.1l-3-5.4c-0.1-0.2-0.3-0.5-0.4-0.6c-0.1-0.2-0.2-0.4-0.3-0.5
				c-0.1-0.1-0.2-0.3-0.2-0.3c-0.1-0.1-0.1-0.1-0.1-0.2c0,0,0.1,0,0.1,0c-1.3-0.2-2.6-0.4-4-0.7c-4.5-0.9-9.2-1-14-0.8l-2.3,9.1
				C68,82.7,68,83,68.1,83.3z"/>
			<path fill="#FF8E32" d="M95.6,83.3c0.1,0.3,0.2,0.5,0.5,0.7c0.2,0.2,0.5,0.3,0.8,0.4c0.3,0.1,0.7,0.1,1.2,0.1h3.4
				c0.5,0,0.9,0,1.2-0.1c0.4-0.1,0.7-0.2,0.9-0.4c0.3-0.2,0.4-0.4,0.6-0.7c0.1-0.3,0.2-0.6,0.3-0.9l0.5-6.6
				c-2.7,0.1-5.6,0.1-8.7-0.1l-0.8,6.7C95.5,82.7,95.5,83,95.6,83.3z"/>
			<path fill="#FF8E32" d="M109.4,83.3c0.1,0.3,0.3,0.5,0.5,0.7s0.5,0.3,0.9,0.4c0.3,0.1,0.8,0.1,1.2,0.1h15c0.5,0,0.9,0,1.2-0.1
				s0.6-0.2,0.9-0.4c0.2-0.2,0.4-0.4,0.5-0.7c0.1-0.3,0.2-0.6,0.2-0.9l-0.1-1.7c0-0.4-0.1-0.7-0.2-0.9s-0.3-0.5-0.6-0.7
				c-0.2-0.2-0.5-0.3-0.9-0.4c-0.3-0.1-0.7-0.1-1.2-0.1h-8.5l0.1-3.1h5.6c0.4,0,0.8,0,1.2-0.1c0.3-0.1,0.6-0.2,0.8-0.4
				c0.2-0.2,0.4-0.4,0.5-0.7c0.1-0.3,0.2-0.6,0.2-1l0-0.1c-3.2,0.2-6.1,0.7-9.1,1.2c-2.6,0.5-5.2,0.9-7.9,1.2l-0.4,6.9
				C109.2,82.7,109.3,83,109.4,83.3z"/>
			<path fill="#FF8E32" d="M164.8,83.3c0.2,0.3,0.4,0.5,0.7,0.7c0.3,0.2,0.6,0.3,1,0.4s0.8,0.1,1.3,0.1l8.5,0c2.5,0,4.6-0.3,6.4-0.8
				c1.8-0.6,3.3-1.4,4.3-2.4c1.1-1.1,1.7-2.3,2-3.9c0.2-1.2,0.1-2.6-0.3-4.2c-3,0.1-5.6,0.6-8.8,1.1c0,0.2,0,0.4,0,0.5
				c-0.1,0.8-0.4,1.4-0.8,1.9c-0.4,0.5-1.1,0.9-1.8,1.2c-0.8,0.3-1.7,0.4-2.8,0.4h-1.9l-0.6-2.6c-2.6,0.6-5.3,1.2-8.5,1.4l1,5.1
				C164.5,82.7,164.6,83,164.8,83.3z"/>
			<path fill="#FF8E32" d="M202.3,75.9c1.3,0.4,2.3,0.9,2.6,1.5c0.1,0.1,0.1,0.3,0.1,0.4c0,0.1-0.1,0.2-0.2,0.3
				c-0.1,0.1-0.3,0.2-0.6,0.2c-0.3,0.1-0.6,0.1-1,0.1c-0.6,0-1.2-0.1-1.7-0.2c-0.5-0.1-1.1-0.3-1.5-0.4c-0.5-0.2-0.9-0.3-1.3-0.5
				c-0.4-0.1-0.7-0.3-1-0.3c-0.2-0.1-0.4-0.1-0.6-0.2c-0.2-0.1-0.4-0.1-0.5-0.1c-0.2,0-0.3-0.1-0.5-0.1c-0.1,0-0.3,0-0.4,0
				c-0.2,0-0.4,0-0.5,0.1c-0.2,0-0.3,0.1-0.4,0.2c-0.1,0.1-0.3,0.2-0.4,0.3c-0.1,0.1-0.2,0.3-0.3,0.4l-1,1.9c-0.2,0.4-0.3,0.7-0.3,1
				c0,0.3,0.1,0.6,0.3,0.8c0.2,0.2,0.4,0.5,0.7,0.7s0.6,0.4,0.9,0.5c0.5,0.3,1.2,0.6,2,0.8c0.8,0.3,1.7,0.5,2.6,0.8s2,0.4,3.1,0.6
				c1.1,0.1,2.1,0.2,3.2,0.2c1.8,0,3.4-0.2,4.6-0.6s2.2-1,2.8-1.7c0.7-0.7,1-1.6,1.1-2.5c0.1-0.9-0.1-2-0.6-3
				c-0.2-0.5-0.5-1-0.8-1.4c-5.3,0.1-10.7-0.3-15.4-1.4c-0.3-0.1-0.6-0.1-0.9-0.2c0.4,0.1,0.7,0.3,1.1,0.4
				C199.2,75,200.9,75.5,202.3,75.9z"/>
			<path fill="#FF8E32" d="M133.3,83.3c0.1,0.3,0.3,0.5,0.6,0.7c0.2,0.2,0.6,0.3,0.9,0.4c0.4,0.1,0.8,0.1,1.2,0.1h3.4
				c0.5,0,0.9,0,1.2-0.1c0.3-0.1,0.6-0.2,0.8-0.4c0.2-0.2,0.4-0.4,0.5-0.7c0.1-0.3,0.1-0.6,0.1-0.9l-0.6-7.1c0-0.4-0.1-0.9-0.2-1.4
				c0-0.1,0-0.1,0-0.2c-3.1-0.5-5.9-0.8-8.6-0.9l0.5,9.5C133.1,82.7,133.2,83,133.3,83.3z"/>
			<path fill="#FF8E32" d="M142.7,74c0.3,0.4,0.6,0.9,0.9,1.3l5.9,7.8c0.2,0.3,0.4,0.5,0.7,0.7c0.2,0.2,0.5,0.3,0.8,0.5
				c0.3,0.1,0.6,0.2,0.9,0.3s0.7,0.1,1.1,0.1h4.1c0.5,0,0.9,0,1.2-0.1c0.3-0.1,0.6-0.2,0.8-0.4c0.2-0.2,0.3-0.4,0.4-0.7
				c0.1-0.3,0.1-0.6,0-0.9l-0.9-5.1c-2.7-0.2-5.7-0.7-9.2-1.7C147.1,74.9,144.9,74.4,142.7,74z"/>
		</g>
		<g>
			<path fill="#FFAE31" d="M197.7,40.3c-0.4-0.8-0.8-1.7-1.4-2.6c-0.1-0.1-0.1-0.2-0.2-0.3c-0.7-1-1.4-2-2.4-2.9
				c-0.9-0.9-2-1.8-3.2-2.6c-1.2-0.8-2.6-1.4-4.1-1.9c0.6-0.5,1.1-1.1,1.4-1.9c0.3-0.7,0.5-1.5,0.5-2.4c0-0.9,0-1.8-0.2-2.7
				c-0.2-0.9-0.5-1.8-0.9-2.7c-0.9-2-2-3.8-3.3-5.3c-1.3-1.5-2.8-2.8-4.5-3.8c-1.7-1-3.5-1.8-5.4-2.3c-1.9-0.5-3.9-0.7-6-0.7h-10.9
				c-0.6,0-1.1,0.1-1.5,0.3c-0.4,0.2-0.7,0.4-0.9,0.8c-0.2,0.3-0.3,0.8-0.4,1.3s0,1.1,0.2,1.8l6.8,30.2l1.6,7.4
				c0.1,0.7,0.4,1.3,0.7,1.8s0.7,1,1.2,1.3c0.5,0.4,1,0.6,1.6,0.8c0.6,0.2,1.3,0.3,2.1,0.3l14.3,0c2.7,0,5.2-0.2,7.4-0.7
				c2.2-0.5,4.2-1.2,5.6-2.3c1.5-1.1,2.4-2.5,2.8-4.3C199.2,45.1,198.9,42.9,197.7,40.3z M171.8,19.2c0.5,0,1,0.1,1.5,0.3
				c0.4,0.2,0.8,0.4,1.2,0.7c0.3,0.3,0.6,0.6,0.9,1c0.2,0.4,0.4,0.7,0.5,1.1c0.1,0.3,0.2,0.7,0.2,1c0,0.4,0,0.7-0.2,1
				c-0.1,0.3-0.3,0.6-0.6,0.8c-0.3,0.2-0.7,0.3-1.2,0.3h-3.8l-1.9-6.2L171.8,19.2L171.8,19.2z M183.9,41c0,0.4-0.2,0.8-0.4,1.2
				c-0.2,0.4-0.6,0.6-1,0.9c-0.5,0.2-1,0.3-1.7,0.3h-5l-0.7-2.3l-1.5-5h4.8c0.7,0,1.3,0.1,1.9,0.3c0.6,0.2,1.1,0.5,1.6,0.8
				c0.5,0.3,0.8,0.7,1.1,1.2c0.3,0.4,0.5,0.7,0.6,1.1c0,0.1,0.1,0.1,0.1,0.2C183.9,40.1,183.9,40.5,183.9,41z"/>
			<path fill="#FF8E32" d="M92,40.8l0.6,9.8c0.1,0.6,0.2,1.1,0.4,1.6c0.2,0.5,0.5,0.8,0.9,1.1c0.4,0.3,0.8,0.5,1.4,0.7
				c0.5,0.2,1.1,0.2,1.8,0.2h8.3c0.7,0,1.3-0.1,1.9-0.2c0.6-0.1,1.1-0.4,1.5-0.7c0.4-0.3,0.8-0.7,1.2-1.1c0.3-0.5,0.6-1,0.8-1.6
				l3.6-12.8c-2.1,0.3-4.2,0.6-6.2,1C103,39.8,97.9,40.6,92,40.8z"/>
			<path fill="#FF8E32" d="M64.6,52.2c0.2,0.5,0.4,0.8,0.7,1.1c0.3,0.3,0.7,0.5,1.3,0.7c0.5,0.2,1.1,0.2,1.8,0.2h8.4
				c0.7,0,1.3-0.1,1.9-0.2c0.6-0.2,1.1-0.4,1.6-0.7c0.5-0.3,0.9-0.7,1.3-1.1c0.4-0.5,0.7-1,1-1.6l4.4-9.7
				c-5.8-0.1-12.4-0.7-20.2-2.2c-0.3-0.1-0.7-0.1-1-0.2l-1.4,12.1C64.4,51.2,64.5,51.7,64.6,52.2z"/>
			<path fill="#FF8E32" d="M125.4,51.9c0.2,0.5,0.5,1,0.9,1.3c0.4,0.4,0.9,0.6,1.5,0.8c0.6,0.2,1.3,0.3,2,0.3h24.5
				c0.8,0,1.4-0.1,2-0.3c0.5-0.2,1-0.4,1.3-0.8c0.3-0.4,0.5-0.8,0.6-1.3c0.1-0.5,0.1-1.1,0-1.8l-0.6-3.2c-0.1-0.7-0.3-1.3-0.6-1.8
				c-0.3-0.5-0.7-1-1.1-1.3s-0.9-0.6-1.5-0.8c-0.6-0.2-1.2-0.3-1.9-0.3h-13.4l-0.4-4.3c-5-0.9-9.5-1.3-13.7-1.3l0.2,13
				C125,50.7,125.1,51.3,125.4,51.9z"/>
			<path fill="#FF8E32" d="M163.9,51.9c0.3,0.5,0.7,1,1.2,1.3c0.5,0.4,1,0.6,1.6,0.8c0.6,0.2,1.3,0.3,2.1,0.3l14.3,0
				c2.7,0,5.2-0.2,7.4-0.7c2.2-0.5,4.2-1.2,5.6-2.3c1.5-1.1,2.4-2.5,2.8-4.3c0.3-1.8,0-4-1.2-6.7c-0.4-0.8-0.8-1.7-1.4-2.6
				c-4.3,0.1-7.9,1-12.7,1.8c0,0.1,0.1,0.1,0.1,0.2c0.2,0.4,0.2,0.9,0.2,1.3s-0.2,0.8-0.4,1.2c-0.2,0.4-0.6,0.6-1,0.9
				c-0.5,0.2-1,0.3-1.7,0.3h-5l-0.7-2.3c-4,0.9-8.2,1.7-13.5,1.6l1.6,7.4C163.4,50.7,163.6,51.3,163.9,51.9z"/>
		</g>
		<g>
			<path opacity="0.2" fill="#FFFA00" enable-background="new    " d="M77.5,39.4c0,0,0.1-0.2,0.2-0.4c0.1-0.3,0.2-0.6,0.4-1.1
				c0.2-0.5,0.4-1,0.6-1.5c0.2-0.6,0.5-1.2,0.8-1.7l0.6-1.3c-0.7,1.3-1.3,2.6-2,3.9c-0.1,0.2-0.2,0.4-0.3,0.6
				c-0.1,0.4-0.2,0.8-0.2,1.1C77.5,39.2,77.5,39.4,77.5,39.4z"/>
			<path opacity="0.2" fill="#FFFA00" enable-background="new    " d="M78.7,54c0.6-0.2,1.1-0.4,1.6-0.7c0.5-0.3,0.9-0.7,1.3-1.1
				c0.4-0.5,0.7-1,1-1.6L90.2,34c0.3-0.6,0.5-1.2,0.7-1.7c0.2-0.6,0.4-1.1,0.5-1.6c0.1-0.5,0.2-0.9,0.3-1.1c0.1-0.3,0.1-0.4,0.1-0.4
				c0,0,0,0.2-0.1,0.5c0,0.3-0.1,0.7-0.1,1.1s-0.1,1-0.1,1.5c0,0.6,0,1.1,0,1.7l1.1,16.6c0.1,0.6,0.2,1.1,0.4,1.6s0.5,0.8,0.9,1.1
				c0.4,0.3,0.8,0.5,1.4,0.7c0.1,0,0.3,0,0.4,0.1c2.6-4.8,5.1-9.6,7.5-14.4c4.5-9.2,9-18.3,13.8-27.4c0.7-1.3,1.4-2.5,2.1-3.8
				c-0.2,0-0.5-0.1-0.8-0.1h-4.5c-0.5,0-1,0.1-1.5,0.2c-0.4,0.2-0.8,0.4-1.2,0.7c-0.3,0.3-0.7,0.7-0.9,1.1c-0.3,0.5-0.5,1-0.6,1.6
				l-6.4,22.6c-0.2,0.6-0.3,1.2-0.5,1.7c-0.1,0.6-0.2,1.1-0.3,1.5c-0.1,0.5-0.2,0.8-0.2,1.1s-0.1,0.4-0.1,0.4c0,0,0-0.2,0-0.5
				c0-0.3,0-0.6,0-1.1c0-0.4,0-1,0-1.5c0-0.6,0-1.1-0.1-1.8L100.4,12c0-0.6-0.1-1.1-0.2-1.6c-0.1-0.5-0.4-0.8-0.6-1.1
				c-0.3-0.3-0.6-0.5-1-0.7c-0.4-0.2-0.9-0.2-1.4-0.2h-2.7c-0.5,0-1,0.1-1.5,0.2c-0.3,0.1-0.5,0.2-0.8,0.3
				c-4.2,8.1-8.1,16.2-12.2,24.4l-0.6,1.3c-0.3,0.6-0.6,1.2-0.8,1.7c-0.2,0.6-0.4,1.1-0.6,1.5c-0.2,0.5-0.3,0.8-0.4,1.1
				c-0.1,0.3-0.2,0.4-0.2,0.4c0,0,0-0.2,0.1-0.5c0.1-0.3,0.1-0.6,0.2-1.1c-2.8,5.5-5.7,10.9-8.6,16.3h7.7
				C77.5,54.2,78.2,54.2,78.7,54z"/>
			<path opacity="0.2" fill="#FFFA00" enable-background="new    " d="M62.8,76.1c0.4,0,0.8,0,1.2-0.1s0.7-0.2,1-0.4
				c0.3-0.2,0.5-0.4,0.7-0.7c0.2-0.3,0.3-0.6,0.4-1l0.5-1.7c0.1-0.4,0.1-0.7,0.1-1c0-0.3-0.1-0.5-0.3-0.7s-0.4-0.3-0.7-0.4
				S65,70,64.6,70h-3.8c-1.1,2-2.1,4.1-3.2,6.1L62.8,76.1z"/>
			<path opacity="0.2" fill="#FFFA00" enable-background="new    " d="M67.4,66.3c0.4,0,0.8,0,1.2-0.1c0.3-0.1,0.7-0.2,0.9-0.4
				c0.3-0.2,0.5-0.4,0.7-0.7c0.2-0.3,0.3-0.6,0.4-0.9l0.4-1.7c0.1-0.4,0.1-0.7,0.1-1c0-0.3-0.1-0.5-0.3-0.7
				c-0.2-0.2-0.4-0.3-0.7-0.4s-0.6-0.1-1-0.1H66c-1.1,2-2.2,4-3.2,6.1C62.7,66.3,67.4,66.3,67.4,66.3z"/>
			<path opacity="0.2" fill="#FFFA00" enable-background="new    " d="M54.6,83.3c0.2-0.3,0.4-0.6,0.5-0.9l1.3-4.1
				c-1,1.8-1.9,3.6-2.9,5.4c-0.1,0.2-0.3,0.5-0.4,0.7c0.3-0.1,0.6-0.2,0.8-0.4C54.2,83.8,54.4,83.5,54.6,83.3z"/>
			<path opacity="0.2" fill="#FFFA00" enable-background="new    " d="M89.1,60.7c-0.3-0.1-0.6-0.2-1-0.2c-0.4-0.1-0.8-0.1-1.2-0.2
				c-0.4,0-0.9-0.1-1.5-0.1c-0.5,0-1.1,0-1.7,0l-7.5,0c-0.4,0-0.8,0-1.1,0.1c-0.3,0.1-0.6,0.2-0.9,0.4c-0.3,0.2-0.5,0.4-0.7,0.7
				c-0.2,0.3-0.3,0.6-0.4,1l-5.1,19.9C68,82.7,68,83,68.1,83.3c0.1,0.3,0.2,0.5,0.4,0.7c0.2,0.2,0.5,0.3,0.8,0.4
				c0.3,0.1,0.7,0.1,1.2,0.1h3.4c0.5,0,0.9,0,1.3-0.1c0.4-0.1,0.7-0.2,1-0.4c0.3-0.2,0.5-0.4,0.7-0.7c0.2-0.3,0.3-0.6,0.4-0.9
				l1.1-5.3h2.1l1.5,3.3c1.5-2.8,2.9-5.6,4.4-8.4c1.7-3.3,3.5-6.6,5.3-9.9c-0.1-0.1-0.2-0.2-0.3-0.3C90.5,61.3,89.9,60.9,89.1,60.7z
				 M84.9,68.3c-0.1,0.5-0.2,0.8-0.4,1.2c-0.2,0.3-0.4,0.6-0.7,0.8c-0.3,0.2-0.6,0.4-1,0.5c-0.4,0.1-0.8,0.1-1.4,0.1h-1.8l1-4.6h1.3
				c0.2,0,0.4,0,0.6,0s0.4,0,0.6,0c0.2,0,0.3,0,0.5,0.1c0.2,0,0.3,0.1,0.5,0.1c0.3,0.1,0.5,0.2,0.6,0.4c0.1,0.1,0.2,0.3,0.3,0.4
				c0.1,0.2,0.1,0.3,0.1,0.5C84.9,68,84.9,68.2,84.9,68.3z"/>
			<path opacity="0.2" fill="#FFFA00" enable-background="new    " d="M157.5,53.2c0.3-0.4,0.5-0.8,0.6-1.3c0.1-0.4,0.1-0.8,0-1.2
				C158,51.5,157.8,52.3,157.5,53.2C157.5,53.2,157.5,53.2,157.5,53.2z"/>
			<path opacity="0.2" fill="#FFFA00" enable-background="new    " d="M186.5,30.1c0.6-0.5,1.1-1.1,1.4-1.9c0.3-0.7,0.5-1.5,0.5-2.4
				c0-0.9,0-1.8-0.2-2.7c-0.2-0.9-0.5-1.8-0.9-2.7c-0.9-2-2-3.8-3.3-5.3c-1.3-1.5-2.8-2.8-4.5-3.8c-1.7-1-3.5-1.8-5.4-2.3
				c-1.1-0.3-2.2-0.5-3.4-0.6c-3.3,9.9-6.3,20-9.2,30c-0.2,0.7-0.4,1.3-0.6,2l2.1,9.6c0.1,0.7,0.4,1.3,0.7,1.8
				c0.3,0.5,0.7,1,1.2,1.3c0.5,0.4,1,0.6,1.6,0.8c0.6,0.2,1.3,0.3,2.1,0.3l14.3,0c0.7,0,1.4,0,2.1,0c2-7.2,4.1-14.4,6.3-21.5
				c-0.3-0.2-0.6-0.4-1-0.7C189.4,31.2,188,30.6,186.5,30.1z M168.4,19.2h3.4c0.5,0,1,0.1,1.5,0.3c0.4,0.2,0.8,0.4,1.2,0.7
				c0.3,0.3,0.6,0.6,0.9,1c0.2,0.4,0.4,0.7,0.5,1.1c0.1,0.3,0.2,0.7,0.2,1c0,0.4,0,0.7-0.2,1c-0.1,0.3-0.3,0.6-0.6,0.8
				c-0.3,0.2-0.7,0.3-1.2,0.3h-3.8L168.4,19.2z M183.9,41c0,0.4-0.2,0.8-0.4,1.2c-0.2,0.4-0.6,0.6-1,0.9c-0.5,0.2-1,0.3-1.7,0.3h-5
				l-2.2-7.3h4.8c0.7,0,1.3,0.1,1.9,0.3c0.6,0.2,1.1,0.5,1.6,0.8c0.5,0.3,0.8,0.7,1.1,1.2c0.3,0.4,0.5,0.8,0.7,1.3
				C183.9,40.1,183.9,40.5,183.9,41z"/>
			<path opacity="0.2" fill="#FFFA00" enable-background="new    " d="M176.4,61c-1.9-0.5-4-0.8-6.2-0.8h-7.5c-0.4,0-0.8,0-1.1,0.1
				c-0.3,0.1-0.5,0.2-0.7,0.4c-0.2,0.2-0.3,0.4-0.3,0.7c-0.1,0.3,0,0.6,0,1l3.9,19.9c0.1,0.4,0.2,0.7,0.4,0.9
				c0.2,0.3,0.4,0.5,0.7,0.7c0.3,0.2,0.6,0.3,1,0.4c0.4,0.1,0.8,0.1,1.3,0.1l8.5,0c0.3,0,0.5,0,0.8,0c0.7-2.6,1.3-5.1,2-7.7
				c0,0,0,0,0,0c-0.4,0.5-1.1,0.9-1.8,1.2c-0.8,0.3-1.7,0.4-2.8,0.4h-1.9l-2.9-12.2h1.8c1,0,1.9,0.1,2.8,0.4
				c0.9,0.2,1.7,0.6,2.4,1.1c0.7,0.5,1.3,1.1,1.8,1.9c0.5,0.8,0.9,1.6,1.2,2.6c0.2,0.6,0.2,1.1,0.3,1.6c0.9-3.3,1.8-6.6,2.7-9.9
				c-0.3-0.2-0.5-0.4-0.8-0.6C180.1,62.4,178.3,61.6,176.4,61z"/>
			<path opacity="0.2" fill="#FFFA00" enable-background="new    " d="M150.2,83.7c0.2,0.2,0.5,0.3,0.8,0.5s0.6,0.2,0.9,0.3
				s0.7,0.1,1.1,0.1h4.1c0.5,0,0.9,0,1.2-0.1c0.3-0.1,0.6-0.2,0.8-0.4c0.2-0.2,0.3-0.4,0.4-0.7c0.1-0.3,0.1-0.6,0-0.9l-3.5-19.9
				c-0.1-0.4-0.2-0.7-0.3-1c-0.1-0.2-0.3-0.4-0.5-0.6c-2,7.4-3.9,14.8-5.9,22.1l0,0C149.8,83.3,150,83.5,150.2,83.7z"/>
			<path opacity="0.2" fill="#FFFA00" enable-background="new    " d="M125.4,51.9c0.2,0.5,0.5,1,0.9,1.3c0.4,0.4,0.9,0.6,1.5,0.8
				c0.6,0.2,1.3,0.3,2,0.3h7c1.4-3.9,3-7.7,4.6-11.5h-2.4l-0.6-5.9h5.5c1.6-3.4,3.2-6.8,4.9-10.1c-0.1-0.1-0.2-0.2-0.3-0.3
				c-0.4-0.4-0.8-0.6-1.4-0.8c-0.5-0.2-1.1-0.3-1.7-0.3h-8.1l-0.5-5.5h10.9c0.6,0,1.1-0.1,1.6-0.3s0.8-0.4,1-0.8
				c0.3-0.3,0.4-0.8,0.5-1.3c0.1-0.5,0-1.1-0.1-1.8l-0.6-3.2c-0.1-0.7-0.3-1.3-0.6-1.8s-0.6-0.9-0.9-1.3c-0.4-0.3-0.8-0.6-1.2-0.8
				s-1-0.3-1.5-0.3h-4.2c-6.5,10.9-12,22.5-16.7,34.4l0.1,7.3C125,50.7,125.1,51.3,125.4,51.9z"/>
			<path opacity="0.2" fill="#FFFA00" enable-background="new    " d="M159.6,8.4h-2.1c-0.6,0-1.1,0.1-1.5,0.3
				c-0.4,0.2-0.7,0.4-0.9,0.8c-0.2,0.3-0.3,0.8-0.4,1.3s0,1.1,0.2,1.8l0.6,2.5c0.4-0.7,0.8-1.4,1.3-2.1
				C157.6,11.4,158.6,9.9,159.6,8.4z"/>
			<path opacity="0.2" fill="#FFFA00" enable-background="new    " d="M128,78.6c-0.3-0.1-0.7-0.1-1.2-0.1h-8.5l0.1-3.1h5.6
				c0.4,0,0.8,0,1.2-0.1s0.6-0.2,0.8-0.4c0.2-0.2,0.4-0.4,0.5-0.7c0.1-0.3,0.2-0.6,0.2-1l0-1.7c0-0.4-0.1-0.7-0.2-0.9
				c-0.1-0.3-0.3-0.5-0.5-0.7c-0.2-0.2-0.5-0.3-0.8-0.4c-0.3-0.1-0.7-0.1-1.1-0.1h-5.5l0.1-2.9h7.5c0.4,0,0.8,0,1.1-0.1
				c0.3-0.1,0.6-0.2,0.8-0.4c0.2-0.2,0.4-0.4,0.5-0.7c0.1-0.3,0.1-0.6,0.1-0.9l-0.1-1.7c0-0.4-0.1-0.7-0.2-1
				c-0.1-0.3-0.3-0.5-0.5-0.7c-0.2-0.2-0.5-0.3-0.8-0.4c-0.3-0.1-0.7-0.1-1.1-0.1h-7.3c0,0,0,0,0,0.1c-2.6,8-4.7,16.1-6.9,24.3
				c0.1,0,0.2,0,0.3,0h15c0.2,0,0.4,0,0.6,0c0.5-1.8,1-3.6,1.5-5.4c0,0-0.1-0.1-0.1-0.1C128.6,78.8,128.3,78.7,128,78.6z"/>
			<path opacity="0.2" fill="#FFFA00" enable-background="new    " d="M134.5,60.2c-0.4,0-0.8,0-1.1,0.1c-0.3,0.1-0.6,0.2-0.8,0.4
				c-0.2,0.2-0.4,0.4-0.4,0.7c-0.1,0.3-0.1,0.6-0.1,1l0.2,5c0.7-2.4,1.5-4.8,2.3-7.2L134.5,60.2z"/>
		</g>
	</g>
	<g>
		<g>
			<g enable-background="new    ">
				<g>
					<path fill="#681815" d="M48.9,40.6C48.9,40.6,48.9,40.6,48.9,40.6c0,0,0-0.1,0-0.1c0,0,0,0,0-0.1c0-0.1-0.1-0.1-0.1-0.2
						L45,37.4c0.1,0,0.1,0.1,0.1,0.2c0,0,0,0,0,0.1c0,0,0,0.1,0,0.1c0,0.1,0,0.1,0,0.2c0,0.1,0,0.2-0.1,0.3c0,0,0,0.1-0.1,0.1
						c0,0,0,0.1-0.1,0.1c0,0.1-0.1,0.1-0.1,0.2c0,0,0,0.1-0.1,0.1c0,0.1-0.1,0.1-0.2,0.2c0,0-0.1,0.1-0.1,0.1c0,0,0,0-0.1,0.1
						c0,0,0,0,0,0c0,0,0,0-0.1-0.1c-0.1-0.1-0.2-0.2-0.3-0.3c0,0,0,0,0-0.1c-0.1-0.1-0.1-0.3-0.2-0.4c0,0,0,0,0,0
						c-0.1-0.1-0.1-0.3-0.1-0.4c0,0,0-0.1,0-0.1c0-0.1,0-0.2,0-0.4l-0.1-3c0-0.1,0-0.2,0-0.3c0,0,0,0,0,0c0,0,0,0,0,0
						c0-0.1,0-0.2-0.1-0.2c0,0,0,0,0-0.1c0-0.1-0.1-0.1-0.1-0.2l-3.7-2.9c0.1,0,0.1,0.1,0.1,0.2c0,0,0,0,0,0.1
						c0,0.1,0.1,0.1,0.1,0.2c0,0,0,0,0,0.1c0,0.1,0,0.2,0,0.3l0.1,3c0,0.1,0,0.2,0,0.4c0,0,0,0,0,0c0,0,0,0,0,0.1
						c0,0.2,0.1,0.3,0.1,0.4c0,0,0,0,0,0c0.1,0.1,0.1,0.3,0.2,0.4c0,0,0,0,0,0.1c0.1,0.1,0.2,0.2,0.3,0.3c0,0,0,0,0.1,0.1
						c0.1,0.1,0.2,0.2,0.3,0.3l3.4,2.6c-0.1,0.1-0.1,0.1-0.2,0.2l-2.8,2.5c-0.1,0.1-0.3,0.3-0.4,0.4c0,0-0.1,0.1-0.1,0.1
						c-0.1,0.1-0.2,0.2-0.3,0.3c-0.1,0.1-0.1,0.1-0.1,0.2c-0.1,0.1-0.2,0.2-0.2,0.3c0,0.1-0.1,0.1-0.1,0.2c-0.1,0.1-0.2,0.2-0.2,0.4
						c0,0.1-0.1,0.1-0.1,0.2c-0.1,0.1-0.2,0.3-0.2,0.4c0,0-0.1,0.1-0.1,0.1c-0.1,0.2-0.2,0.4-0.3,0.6c0,0,0,0.1-0.1,0.1
						c0,0.1-0.1,0.2-0.1,0.3c0,0,0,0,0,0.1c-0.1,0.2-0.1,0.4-0.2,0.6l-0.8,3.3c0,0.2-0.1,0.3-0.1,0.4c0,0,0,0.1-0.1,0.1
						c0,0,0,0.1-0.1,0.1c0,0,0,0.1-0.1,0.1c0,0,0,0.1-0.1,0.1c0,0-0.1,0.1-0.1,0.1c0,0,0,0.1-0.1,0.1c0,0-0.1,0.1-0.1,0.1
						c0,0-0.1,0.1-0.1,0.1c0,0-0.1,0-0.1,0.1c0,0-0.1,0.1-0.1,0.1c0,0-0.1,0-0.1,0c0,0-0.1,0-0.1,0.1c0,0-0.1,0-0.1,0
						c-0.2,0-0.3,0-0.5-0.1l-2.1-1.6c-0.5-0.4-1.2-0.5-2-0.3c-0.1,0-0.2,0-0.3,0.1c0,0,0,0,0,0c-0.2,0-0.3,0.1-0.5,0.2
						c0,0-0.1,0-0.1,0c-0.1,0.1-0.3,0.1-0.4,0.2c0,0-0.1,0-0.1,0c-0.1,0-0.1,0.1-0.1,0.1l-3,1.7c-0.1,0.1-0.3,0.1-0.4,0.2
						c0,0,0,0,0,0c-0.1,0-0.2,0.1-0.3,0.1c-0.2,0-0.3,0-0.4-0.1l3.7,2.9c0.1,0.1,0.2,0.1,0.4,0.1c0,0,0.1,0,0.1,0
						c0.1,0,0.2,0,0.3-0.1c0,0,0,0,0,0c0.1,0,0.2-0.1,0.2-0.1c0,0,0.1,0,0.1-0.1l3-1.7c0.1,0,0.2-0.1,0.2-0.1
						c0.1-0.1,0.3-0.1,0.4-0.2c0,0,0.1,0,0.1,0c0.2-0.1,0.3-0.1,0.5-0.2c0.1,0,0.2-0.1,0.3-0.1c0.6-0.1,1.2-0.1,1.6,0.1
						c0.1,0,0.2,0.1,0.2,0.1l2,1.5c0.2,0.2,0.5,0.2,0.7,0.2c0,0,0,0,0.1,0c0,0,0,0,0.1,0c0,0,0.1,0,0.1-0.1c0,0,0,0,0,0c0,0,0,0,0,0
						c0,0,0.1-0.1,0.1-0.1c0,0,0,0,0,0c0,0,0,0,0,0c0,0,0.1-0.1,0.1-0.1c0,0,0.1-0.1,0.1-0.1c0,0,0.1-0.1,0.1-0.1
						c0,0,0.1-0.1,0.1-0.1c0,0,0-0.1,0.1-0.1c0,0,0-0.1,0.1-0.1c0,0,0-0.1,0.1-0.1c0,0,0-0.1,0-0.1c0,0,0,0,0-0.1
						c0-0.1,0.1-0.3,0.1-0.4l0.8-3.3c0-0.2,0.1-0.4,0.2-0.6c0-0.1,0.1-0.3,0.2-0.4c0,0,0-0.1,0.1-0.1c0.1-0.2,0.2-0.4,0.3-0.6
						c0,0,0-0.1,0.1-0.1c0.1-0.1,0.2-0.3,0.2-0.4c0-0.1,0.1-0.1,0.1-0.2c0.1-0.1,0.2-0.2,0.2-0.4c0-0.1,0.1-0.1,0.1-0.2
						c0.1-0.1,0.2-0.2,0.2-0.3c0-0.1,0.1-0.1,0.1-0.2c0.1-0.1,0.2-0.2,0.3-0.3c0,0,0.1-0.1,0.1-0.1c0.1-0.1,0.3-0.3,0.4-0.4l2.8-2.5
						c0.1-0.1,0.2-0.2,0.3-0.3c0,0,0.1-0.1,0.1-0.1c0.1-0.1,0.1-0.1,0.2-0.2c0,0,0.1-0.1,0.1-0.1c0-0.1,0.1-0.1,0.1-0.2
						c0,0,0-0.1,0.1-0.1c0,0,0.1-0.1,0.1-0.1c0,0,0,0,0,0c0-0.1,0.1-0.2,0.1-0.3c0,0,0,0,0,0C48.9,40.8,48.9,40.7,48.9,40.6z"/>
					<path fill="#681815" d="M16.4,45.5c0,0.1,0.1,0.2,0.1,0.3c0.1,0.1,0.1,0.2,0.2,0.2l1.9,1.5c-0.2-0.1-0.3-0.3-0.4-0.5l-0.4-1.3
						c0-0.1-0.1-0.2-0.2-0.2L15.8,44c0.1,0,0.1,0.1,0.2,0.2L16.4,45.5z"/>
					<path fill="#681815" d="M21.8,47.7c0,0,0-0.1,0-0.1c0,0,0,0,0,0c0-0.1,0-0.1-0.1-0.1c0,0,0,0,0,0L19.8,46c0,0,0.1,0.1,0.1,0.1
						c0,0,0,0.1,0,0.2c0,0,0,0,0,0.1c0,0.1,0,0.1-0.1,0.2c0,0,0,0.1,0,0.1c-0.1,0.1-0.1,0.2-0.2,0.3l-1.3,1.6
						c-0.1,0.1-0.1,0.2-0.2,0.3c0,0,0,0.1-0.1,0.1c0,0.1-0.1,0.1-0.1,0.2c0,0,0,0.1-0.1,0.1c0,0.1-0.1,0.1-0.1,0.2
						c0,0,0,0.1-0.1,0.1c0,0.1-0.1,0.1-0.1,0.2c0,0,0,0,0,0.1c0,0,0,0,0,0.1c0,0.1-0.1,0.2-0.1,0.3c0,0,0,0.1,0,0.1
						c0,0.1-0.1,0.2-0.1,0.3c0,0,0,0,0,0c0,0.1,0,0.1,0,0.2l0,1.6c0,0.1,0,0.2,0,0.3c0,0,0,0.1,0,0.1c0,0.1-0.1,0.2-0.1,0.3
						c0,0,0,0,0,0c-0.1,0.1-0.1,0.1-0.2,0.2c0,0,0,0,0,0c-0.1,0-0.2,0.1-0.2,0.1c-0.1,0-0.2,0-0.3,0L15.1,53c-0.1,0-0.3,0-0.5,0
						c0,0-0.1,0-0.2,0c0,0-0.1,0-0.1,0c-0.1,0-0.1,0-0.2,0.1c-0.1,0-0.1,0.1-0.2,0.1c-0.1,0-0.1,0.1-0.2,0.1c0,0-0.1,0-0.1,0
						c-0.1,0-0.1,0.1-0.2,0.1c0,0-0.1,0-0.1,0.1c-0.1,0.1-0.2,0.2-0.3,0.2L11.6,55c-0.1,0.1-0.2,0.1-0.3,0.2c0,0,0,0,0,0
						c-0.1,0-0.2,0.1-0.2,0.1c0,0-0.1,0-0.1,0c0,0-0.1,0-0.1,0l0,0l0,0l1.9,1.5c0,0,0.1,0,0.2,0c0,0,0,0,0,0c0.1,0,0.1,0,0.2-0.1
						c0,0,0,0,0,0c0,0,0,0,0,0c0.1,0,0.2-0.1,0.3-0.2l1.5-1.3c0.1-0.1,0.2-0.2,0.3-0.2c0,0,0.1,0,0.1-0.1c0.1,0,0.2-0.1,0.2-0.1
						c0.1,0,0.1-0.1,0.2-0.1c0.1,0,0.1-0.1,0.2-0.1c0.1,0,0.1,0,0.2-0.1c0.1,0,0.2-0.1,0.3-0.1c0.2,0,0.4,0,0.5,0l1.2,0.3
						c0.1,0,0.2,0,0.3,0c0,0,0,0,0,0c0.1,0,0.1,0,0.2-0.1c0,0,0,0,0,0c0,0,0,0,0,0c0,0,0,0,0.1,0c0,0,0.1-0.1,0.1-0.1c0,0,0,0,0,0
						c0-0.1,0.1-0.1,0.1-0.2c0,0,0,0,0-0.1c0,0,0-0.1,0-0.1c0,0,0-0.1,0-0.1c0-0.1,0-0.1,0-0.2l0-1.6c0-0.1,0-0.1,0-0.2
						c0-0.1,0-0.2,0.1-0.3c0,0,0-0.1,0-0.1c0-0.1,0.1-0.2,0.1-0.3c0,0,0-0.1,0-0.1c0-0.1,0.1-0.1,0.1-0.2c0,0,0-0.1,0.1-0.1
						c0-0.1,0.1-0.1,0.1-0.2c0,0,0-0.1,0.1-0.1c0-0.1,0.1-0.1,0.1-0.2c0,0,0-0.1,0.1-0.1c0.1-0.1,0.1-0.2,0.2-0.3l1.3-1.6
						c0.1-0.1,0.1-0.2,0.2-0.3c0,0,0-0.1,0-0.1c0,0,0.1-0.1,0.1-0.1c0,0,0,0,0,0C21.8,47.8,21.8,47.8,21.8,47.7
						C21.8,47.8,21.8,47.8,21.8,47.7z"/>
					<path fill="#681815" d="M60,30.1C60,30.1,60,30.1,60,30.1C60,30.1,60,30,60,30.1C60,30,60,30,60,30.1c0-0.1,0-0.1,0-0.1
						c0,0,0,0,0-0.1c0,0,0,0,0,0c0,0,0-0.1-0.1-0.1l-1.7-1.3c0,0,0.1,0,0.1,0.1c0,0,0,0,0,0c0,0,0,0,0,0.1c0,0,0,0.1,0,0.1
						c0,0,0,0,0,0c0,0,0,0,0,0c0,0,0,0.1,0,0.1c0,0,0,0,0,0c0,0.1-0.1,0.1-0.1,0.2c0,0,0,0,0,0c0-0.1-0.1-0.1-0.1-0.2c0,0,0,0,0-0.1
						c0-0.1-0.1-0.2-0.1-0.3c0-0.1,0-0.2,0-0.3l0.1-1.4c0-0.1,0-0.2,0-0.2c0,0,0,0,0,0c0,0,0,0,0,0c0-0.1,0-0.1-0.1-0.1l-1.7-1.3
						c0,0,0.1,0.1,0.1,0.1c0,0,0,0,0,0c0,0.1,0,0.1,0,0.2l-0.1,1.4c0,0.1,0,0.2,0,0.3c0,0,0,0,0,0c0,0.1,0,0.2,0.1,0.3
						c0,0,0,0,0,0.1c0,0.1,0.1,0.1,0.1,0.2c0,0,0,0,0,0.1c0.1,0.1,0.1,0.1,0.2,0.2l1.4,1.1c0,0,0,0,0,0c-0.1,0.1-0.1,0.1-0.2,0.2
						c0,0-0.1,0.1-0.1,0.1l-1.3,1c0,0-0.1,0-0.1,0.1c0,0,0,0,0,0c-0.1,0.1-0.2,0.2-0.3,0.3c0,0,0,0,0,0c-0.1,0.1-0.2,0.2-0.3,0.4
						c0,0,0,0,0,0c-0.1,0.1-0.2,0.3-0.3,0.4c0,0,0,0,0,0.1c-0.1,0.1-0.1,0.3-0.2,0.4c0,0,0,0,0,0c0,0,0,0.1,0,0.1l-0.5,1.5
						c0,0.1,0,0.1-0.1,0.2c0,0.1,0,0.1-0.1,0.2c0,0,0,0.1-0.1,0.1c0,0-0.1,0.1-0.1,0.1c0,0-0.1,0.1-0.1,0.1c0,0,0,0,0,0
						c0,0,0,0-0.1,0l-1.2-0.9c-0.2-0.2-0.6-0.2-1-0.2c0,0-0.1,0-0.1,0c0,0,0,0,0,0c-0.1,0-0.2,0.1-0.3,0.1l-1.3,0.7
						c-0.1,0.1-0.2,0.1-0.3,0.1c-0.1,0-0.2,0-0.2,0l1.7,1.3c0,0,0.1,0,0.2,0c0,0,0,0,0,0c0.1,0,0.1,0,0.2-0.1l1.3-0.7
						c0.1-0.1,0.2-0.1,0.3-0.1c0.1,0,0.1,0,0.2,0c0.1,0,0.3,0,0.4,0l1.4,1.1c0.1,0.1,0.2,0.1,0.3,0.1c0,0,0,0,0,0c0,0,0.1,0,0.1,0
						c0,0,0,0,0,0c0,0,0,0,0,0c0,0,0,0,0,0c0,0,0,0,0,0c0,0,0.1-0.1,0.1-0.1c0,0,0-0.1,0.1-0.1c0,0,0.1-0.1,0.1-0.2c0,0,0,0,0-0.1
						c0,0,0-0.1,0-0.1l0.5-1.5c0-0.1,0-0.1,0.1-0.2c0-0.1,0.1-0.3,0.2-0.4c0,0,0,0,0-0.1c0.1-0.1,0.2-0.3,0.3-0.4c0,0,0,0,0,0
						c0.1-0.1,0.2-0.3,0.3-0.4c0,0,0,0,0,0c0.1-0.1,0.2-0.2,0.3-0.3c0,0,0.1-0.1,0.1-0.1l1.3-1c0,0,0.1,0,0.1-0.1c0,0,0,0,0,0
						c0.1-0.1,0.1-0.1,0.2-0.2c0,0,0,0,0,0c0.1-0.1,0.1-0.1,0.1-0.2c0,0,0,0,0,0c0,0,0,0,0,0C60,30.1,60,30.1,60,30.1
						C60,30.1,60,30.1,60,30.1z"/>
					<path fill="#681815" d="M40.9,67.2c0,0,0-0.1,0-0.1c0,0,0,0,0,0c0,0,0-0.1,0-0.1c0,0,0,0,0-0.1c0-0.1-0.1-0.1-0.2-0.2L39,65.4
						c0,0-0.1-0.1-0.1-0.1c0,0,0-0.1-0.1-0.1c0-0.1-0.1-0.1-0.1-0.2c0,0,0-0.1,0-0.1c0-0.1,0-0.1,0-0.2c0,0,0-0.1,0-0.1
						c0-0.1,0-0.2,0-0.3c0,0,0-0.1,0-0.1c0-0.1,0-0.3,0-0.4c0,0,0,0,0,0c0-0.1,0-0.2,0.1-0.3l0.6-2.3c0-0.1,0-0.2,0-0.3c0,0,0,0,0,0
						c0-0.1,0-0.2,0-0.3c0,0,0,0,0,0c0,0,0,0,0-0.1c0,0,0,0,0,0c0,0,0-0.1-0.1-0.1l-2.6-1.9c0,0,0.1,0.1,0.1,0.1c0,0,0,0,0,0
						c0,0,0,0.1,0,0.1c0,0.1,0,0.2,0,0.3c0,0.1,0,0.2,0,0.3l-0.6,2.3c0,0.1,0,0.2-0.1,0.3c0,0,0,0,0,0c0,0,0,0,0,0
						c0,0.1,0,0.3,0,0.4c0,0,0,0.1,0,0.1c0,0.1,0,0.2,0,0.3c0,0,0,0.1,0,0.1c0,0,0,0,0,0.1c0,0.1,0,0.1,0,0.2c0,0,0,0.1,0,0.1
						c0,0.1,0,0.1,0.1,0.2c0,0,0,0.1,0.1,0.1c0,0.1,0.1,0.1,0.1,0.2c0,0,0,0.1,0.1,0.1c0.1,0.1,0.1,0.1,0.2,0.2l1.6,1.2
						c0,0,0,0.1,0,0.1c0,0,0,0.1,0,0.1c0,0,0,0,0,0.1c0,0.1,0,0.1,0,0.2c0,0.1-0.1,0.2-0.1,0.2c0,0,0,0-0.1,0.1
						c0,0.1-0.1,0.1-0.2,0.2c0,0-0.1,0-0.1,0.1c-0.1,0.1-0.2,0.2-0.3,0.2l-2.1,1.2c-0.1,0.1-0.2,0.1-0.3,0.2c0,0-0.1,0.1-0.1,0.1
						c-0.1,0.1-0.1,0.1-0.2,0.2c0,0,0,0,0,0c0,0,0,0,0,0c-0.1,0.1-0.3,0.3-0.4,0.4c0,0-0.1,0.1-0.1,0.1c-0.1,0.2-0.3,0.3-0.4,0.5
						c0,0,0,0,0,0c-0.1,0.2-0.2,0.3-0.3,0.5c0,0-0.1,0.1-0.1,0.1c-0.1,0.2-0.2,0.3-0.3,0.5l-1.1,2.3c0,0.1-0.1,0.2-0.2,0.3l-2.3-1.7
						c-0.4-0.3-0.9-0.4-1.4-0.3c0,0-0.1,0-0.1,0c0,0,0,0-0.1,0l-2,0.5c-0.1,0-0.1,0-0.2,0c-0.2,0-0.3,0-0.4-0.1l2.6,1.9
						c0.1,0.1,0.2,0.1,0.4,0.1c0,0,0.1,0,0.1,0c0,0,0,0,0.1,0l2-0.5c0.1,0,0.1,0,0.2,0c0.4-0.1,0.8,0,1.2,0.2c0,0,0,0,0,0
						c0,0,0,0,0,0.1c-0.1,0.1-0.1,0.2-0.2,0.2c0,0,0,0,0,0c-0.1,0.1-0.1,0.1-0.2,0.1c0,0,0,0-0.1,0c-0.1,0-0.1,0.1-0.2,0.1
						c-0.1,0-0.2,0-0.3-0.1l2.6,1.9c0.1,0.1,0.2,0.1,0.3,0.1c0,0,0,0,0,0c0,0,0.1,0,0.1-0.1c0,0,0,0,0,0c0,0,0,0,0.1,0
						c0,0,0.1,0,0.1-0.1c0,0,0.1,0,0.1-0.1c0,0,0,0,0,0c0.1-0.1,0.1-0.1,0.2-0.2c0,0,0,0,0-0.1c0.1-0.1,0.1-0.2,0.2-0.3l1.1-2.3
						c0.1-0.2,0.2-0.3,0.3-0.5c0,0,0.1-0.1,0.1-0.1c0.1-0.2,0.2-0.3,0.3-0.5c0,0,0,0,0,0c0.1-0.2,0.3-0.3,0.4-0.5
						c0,0,0.1-0.1,0.1-0.1c0.1-0.1,0.3-0.3,0.4-0.4c0,0,0,0,0,0c0.1-0.1,0.1-0.1,0.2-0.2c0,0,0.1-0.1,0.1-0.1
						c0.1-0.1,0.2-0.2,0.3-0.2l2.1-1.2c0.1-0.1,0.2-0.2,0.3-0.2c0,0,0,0,0,0c0,0,0,0,0,0c0.1-0.1,0.1-0.1,0.2-0.2c0,0,0,0,0.1-0.1
						c0.1-0.1,0.1-0.2,0.1-0.2c0,0,0,0,0,0C40.9,67.4,40.9,67.3,40.9,67.2C40.9,67.2,40.9,67.2,40.9,67.2
						C40.9,67.2,40.9,67.2,40.9,67.2z"/>
				</g>
				<g>
					<path fill="#FFAE31" d="M36.5,58.3c0.3,0,0.4,0.2,0.3,0.8l-0.6,2.3c-0.2,0.9,0,2,0.6,2.4l1.3,0.9c0.5,0.4,0.3,1.1-0.6,1.5
						l-2.1,1.2c-0.8,0.5-1.9,1.6-2.4,2.6l-1.1,2.3c-0.3,0.6-0.6,0.9-0.9,0.9c-0.2,0-0.4-0.1-0.5-0.4L30,71.4
						c-0.3-0.6-1.1-0.9-1.8-0.8c-0.1,0-0.1,0-0.2,0l-2,0.5c-0.1,0-0.1,0-0.2,0c-0.7,0.1-0.7-0.4-0.1-1.2l1.6-2.1
						c0.7-0.9,1.2-2.3,1.1-3.1l-0.1-2c0-0.7,0.3-1.2,0.9-1.3c0.1,0,0.2,0,0.3,0l1.7,0.2c0.1,0,0.3,0,0.5,0c0.7-0.1,1.6-0.5,2.2-1.1
						l1.9-1.8C36.1,58.5,36.3,58.4,36.5,58.3z"/>
				</g>
			</g>
		</g>
		<g>
			<path fill="#FFAE31" d="M39.3,30.6c0.4-0.1,0.6,0.2,0.6,0.9l0.1,3c0,1.2,0.9,2.3,2,2.5l2.5,0.3c1,0.1,0.9,1.1-0.2,2.1l-2.8,2.5
				c-1.2,1-2.4,3-2.7,4.4l-0.8,3.3c-0.2,0.9-0.7,1.5-1.2,1.6c-0.2,0-0.5,0-0.7-0.2l-1.8-1.4c-0.5-0.4-1.2-0.5-2-0.3
				c-0.5,0.1-1.1,0.3-1.6,0.6l-3,1.7c-0.3,0.2-0.5,0.3-0.7,0.3c-0.6,0.1-0.8-0.5-0.2-1.5l1.7-3.4c0.7-1.4,0.9-3.3,0.5-4.2l-1.1-2.3
				c-0.4-0.9,0.2-1.9,1.4-2.2l2.9-0.7c1.2-0.3,2.9-1.6,3.9-2.8l2.3-3.1C38.5,31,39,30.6,39.3,30.6z"/>
		</g>
		<g>
			<path fill="#FFAE31" d="M15.6,44c0.2,0,0.3,0.1,0.4,0.3l0.4,1.3c0.2,0.5,0.8,0.8,1.4,0.7c0,0,0,0,0.1,0l1.5-0.3c0,0,0,0,0,0
				c0.6-0.1,0.6,0.3,0.1,1l-1.3,1.6c-0.5,0.6-1,1.7-1,2.3l0,1.6c0,0.5-0.3,0.9-0.6,1c-0.1,0-0.2,0-0.3,0L15.1,53c-0.1,0-0.3,0-0.5,0
				c-0.5,0.1-1.1,0.3-1.5,0.7L11.6,55c-0.2,0.2-0.4,0.3-0.5,0.3c-0.2,0-0.3-0.2-0.2-0.7l0.5-1.7c0.2-0.7,0.1-1.6-0.3-1.9l-0.9-0.8
				c-0.4-0.3-0.2-0.8,0.5-1.2l1.5-0.8c0.6-0.3,1.5-1.2,1.8-1.9l0.9-1.7C15.2,44.2,15.4,44,15.6,44z"/>
		</g>
		<g>
			<path fill="#FFAE31" d="M56.1,25.1c0.2,0,0.3,0.1,0.2,0.4l-0.1,1.4c0,0.6,0.3,1.1,0.7,1.3l1.1,0.3c0.4,0.1,0.4,0.6-0.2,1l-1.3,1
				c-0.5,0.4-1.1,1.3-1.3,1.9l-0.5,1.5c-0.1,0.4-0.3,0.7-0.6,0.7c-0.1,0-0.2,0-0.3-0.1l-0.7-0.8c-0.2-0.2-0.6-0.3-1-0.2
				c-0.2,0-0.3,0.1-0.5,0.2l-1.3,0.7c-0.1,0.1-0.2,0.1-0.3,0.1c-0.3,0.1-0.4-0.2-0.1-0.7l0.9-1.5c0.4-0.6,0.5-1.5,0.4-2L50.8,29
				c-0.1-0.4,0.1-0.9,0.6-0.9c0,0,0,0,0,0l1.3-0.2c0,0,0,0,0,0c0.5-0.1,1.3-0.6,1.7-1.1l1.1-1.3C55.8,25.2,56,25.1,56.1,25.1z"/>
		</g>
		<g opacity="0.2">
			<path fill="#FFFA00" d="M26.7,51.9c0.2,0,0.5-0.1,0.7-0.3l3-1.7c0.5-0.3,1.1-0.5,1.6-0.6c0.8-0.1,1.6,0,2,0.3L36,51
				c0.2,0.2,0.5,0.2,0.7,0.2c0.5-0.1,1-0.7,1.2-1.6l0.8-3.3c0.3-1.4,1.5-3.3,2.7-4.4l2.8-2.5c1.2-1,1.3-2,0.2-2.1L42.9,37
				c-5.4,6.1-12.6,10.8-16.1,12.9l-0.2,0.4C26,51.4,26.1,52,26.7,51.9z"/>
		</g>
		<g opacity="0.2">
			<path fill="#FFFA00" d="M11.4,52.9l-0.5,1.7c-0.1,0.5-0.1,0.7,0.2,0.7c0.1,0,0.3-0.1,0.5-0.3l1.5-1.3c0.4-0.4,1-0.6,1.5-0.7
				c0.2,0,0.4,0,0.5,0l1.2,0.3c0.1,0,0.2,0,0.3,0c0.4-0.1,0.6-0.4,0.6-1l0-1.6c0-0.6,0.4-1.7,1-2.3l1.3-1.6c0.5-0.6,0.5-1,0-1
				c-2.8,2.9-5.9,4.3-8.4,5l0,0C11.5,51.3,11.6,52.2,11.4,52.9z"/>
		</g>
		<g opacity="0.2">
			<path fill="#FFFA00" d="M50,34.3c0.1,0,0.2,0,0.3-0.1l1.3-0.7c0.2-0.1,0.3-0.1,0.5-0.2c0.4-0.1,0.8,0,1,0.2l0.7,0.8
				c0.1,0.1,0.2,0.1,0.3,0.1c0.2,0,0.4-0.3,0.6-0.7l0.5-1.5c0.2-0.6,0.8-1.5,1.3-1.9l1.3-1c0.5-0.4,0.6-0.9,0.2-1L57,28.2
				c-0.3-0.1-0.5-0.3-0.6-0.6c-1.5,1.7-3.5,3.5-5.8,5l-0.6,1.1C49.6,34.1,49.7,34.4,50,34.3z"/>
		</g>
		<g opacity="0.2">
			<path fill="#FFFA00" d="M25.7,69.9c-0.6,0.8-0.5,1.3,0.1,1.2c0.1,0,0.1,0,0.2,0l2-0.5c0.1,0,0.1,0,0.2,0c0.8-0.1,1.6,0.2,1.8,0.8
				l0.7,1.6c0.1,0.3,0.3,0.4,0.5,0.4c0.3,0,0.6-0.4,0.9-0.9l1.1-2.3c0.4-1,1.5-2.1,2.4-2.6l2.1-1.2c0.8-0.5,1.1-1.2,0.6-1.5
				l-1.3-0.9c-0.3-0.2-0.6-0.7-0.6-1.3c-2.6,1.9-5.8,4.1-8.8,5.2c0,0,0,0.1-0.1,0.1L25.7,69.9z"/>
		</g>
	</g>
	<g>
		<g>
			<g enable-background="new    ">
				<g>
					<path fill="#681815" d="M211.1,40.6C211.1,40.6,211.1,40.6,211.1,40.6c0,0,0-0.1,0-0.1c0,0,0,0,0-0.1c0-0.1,0.1-0.1,0.1-0.2
						l3.7-2.9c-0.1,0-0.1,0.1-0.1,0.2c0,0,0,0,0,0.1c0,0,0,0.1,0,0.1c0,0.1,0,0.1,0,0.2c0,0.1,0,0.2,0.1,0.3c0,0,0,0.1,0.1,0.1
						c0,0,0,0.1,0.1,0.1c0,0.1,0.1,0.1,0.1,0.2c0,0,0,0.1,0.1,0.1c0,0.1,0.1,0.1,0.2,0.2c0,0,0.1,0.1,0.1,0.1c0,0,0,0,0.1,0.1
						c0,0,0,0,0,0c0,0,0,0,0.1-0.1c0.1-0.1,0.2-0.2,0.3-0.3c0,0,0,0,0-0.1c0.1-0.1,0.1-0.3,0.2-0.4c0,0,0,0,0,0
						c0.1-0.1,0.1-0.3,0.1-0.4c0,0,0-0.1,0-0.1c0-0.1,0-0.2,0-0.4l0.1-3c0-0.1,0-0.2,0-0.3c0,0,0,0,0,0c0,0,0,0,0,0
						c0-0.1,0-0.2,0.1-0.2c0,0,0,0,0-0.1c0-0.1,0.1-0.1,0.1-0.2l3.7-2.9c-0.1,0-0.1,0.1-0.1,0.2c0,0,0,0,0,0.1
						c0,0.1-0.1,0.1-0.1,0.2c0,0,0,0,0,0.1c0,0.1,0,0.2,0,0.3l-0.1,3c0,0.1,0,0.2,0,0.4c0,0,0,0,0,0c0,0,0,0,0,0.1
						c0,0.2-0.1,0.3-0.1,0.4c0,0,0,0,0,0c-0.1,0.1-0.1,0.3-0.2,0.4c0,0,0,0,0,0.1c-0.1,0.1-0.2,0.2-0.3,0.3c0,0,0,0-0.1,0.1
						c-0.1,0.1-0.2,0.2-0.3,0.3l-3.4,2.6c0.1,0.1,0.1,0.1,0.2,0.2l2.8,2.5c0.1,0.1,0.3,0.3,0.4,0.4c0,0,0.1,0.1,0.1,0.1
						c0.1,0.1,0.2,0.2,0.3,0.3c0.1,0.1,0.1,0.1,0.1,0.2c0.1,0.1,0.2,0.2,0.2,0.3c0,0.1,0.1,0.1,0.1,0.2c0.1,0.1,0.2,0.2,0.2,0.4
						c0,0.1,0.1,0.1,0.1,0.2c0.1,0.1,0.2,0.3,0.2,0.4c0,0,0.1,0.1,0.1,0.1c0.1,0.2,0.2,0.4,0.3,0.6c0,0,0,0.1,0.1,0.1
						c0,0.1,0.1,0.2,0.1,0.3c0,0,0,0,0,0.1c0.1,0.2,0.1,0.4,0.2,0.6l0.8,3.3c0,0.2,0.1,0.3,0.1,0.4c0,0,0,0.1,0.1,0.1
						c0,0,0,0.1,0.1,0.1c0,0,0,0.1,0.1,0.1c0,0,0,0.1,0.1,0.1c0,0,0.1,0.1,0.1,0.1c0,0,0,0.1,0.1,0.1c0,0,0.1,0.1,0.1,0.1
						c0,0,0.1,0.1,0.1,0.1c0,0,0.1,0,0.1,0.1c0,0,0.1,0.1,0.1,0.1c0,0,0.1,0,0.1,0c0,0,0.1,0,0.1,0.1c0,0,0.1,0,0.1,0
						c0.2,0,0.3,0,0.5-0.1l2.1-1.6c0.5-0.4,1.2-0.5,2-0.3c0.1,0,0.2,0,0.3,0.1c0,0,0,0,0,0c0.2,0,0.3,0.1,0.5,0.2c0,0,0.1,0,0.1,0
						c0.1,0.1,0.3,0.1,0.4,0.2c0,0,0.1,0,0.1,0c0.1,0,0.1,0.1,0.1,0.1l3,1.7c0.1,0.1,0.3,0.1,0.4,0.2c0,0,0,0,0,0
						c0.1,0,0.2,0.1,0.3,0.1c0.2,0,0.3,0,0.4-0.1l-3.7,2.9c-0.1,0.1-0.2,0.1-0.4,0.1c0,0-0.1,0-0.1,0c-0.1,0-0.2,0-0.3-0.1
						c0,0,0,0,0,0c-0.1,0-0.2-0.1-0.2-0.1c0,0-0.1,0-0.1-0.1l-3-1.7c-0.1,0-0.2-0.1-0.2-0.1c-0.1-0.1-0.3-0.1-0.4-0.2
						c0,0-0.1,0-0.1,0c-0.2-0.1-0.3-0.1-0.5-0.2c-0.1,0-0.2-0.1-0.3-0.1c-0.6-0.1-1.2-0.1-1.6,0.1c-0.1,0-0.2,0.1-0.2,0.1l-2,1.5
						c-0.2,0.2-0.5,0.2-0.7,0.2c0,0,0,0-0.1,0c0,0,0,0-0.1,0c0,0-0.1,0-0.1-0.1c0,0,0,0,0,0c0,0,0,0,0,0c0,0-0.1-0.1-0.1-0.1
						c0,0,0,0,0,0c0,0,0,0,0,0c0,0-0.1-0.1-0.1-0.1c0,0-0.1-0.1-0.1-0.1c0,0-0.1-0.1-0.1-0.1c0,0-0.1-0.1-0.1-0.1c0,0,0-0.1-0.1-0.1
						c0,0,0-0.1-0.1-0.1c0,0,0-0.1-0.1-0.1c0,0,0-0.1,0-0.1c0,0,0,0,0-0.1c0-0.1-0.1-0.3-0.1-0.4l-0.8-3.3c0-0.2-0.1-0.4-0.2-0.6
						c0-0.1-0.1-0.3-0.2-0.4c0,0,0-0.1-0.1-0.1c-0.1-0.2-0.2-0.4-0.3-0.6c0,0,0-0.1-0.1-0.1c-0.1-0.1-0.2-0.3-0.2-0.4
						c0-0.1-0.1-0.1-0.1-0.2c-0.1-0.1-0.2-0.2-0.2-0.4c0-0.1-0.1-0.1-0.1-0.2c-0.1-0.1-0.2-0.2-0.2-0.3c0-0.1-0.1-0.1-0.1-0.2
						c-0.1-0.1-0.2-0.2-0.3-0.3c0,0-0.1-0.1-0.1-0.1c-0.1-0.1-0.3-0.3-0.4-0.4l-2.8-2.5c-0.1-0.1-0.2-0.2-0.3-0.3
						c0,0-0.1-0.1-0.1-0.1c-0.1-0.1-0.1-0.1-0.2-0.2c0,0-0.1-0.1-0.1-0.1c0-0.1-0.1-0.1-0.1-0.2c0,0,0-0.1-0.1-0.1
						c0,0-0.1-0.1-0.1-0.1c0,0,0,0,0,0c0-0.1-0.1-0.2-0.1-0.3c0,0,0,0,0,0C211.1,40.8,211.1,40.7,211.1,40.6z"/>
					<path fill="#681815" d="M243.6,45.5c0,0.1-0.1,0.2-0.1,0.3c-0.1,0.1-0.1,0.2-0.2,0.2l-1.9,1.5c0.2-0.1,0.3-0.3,0.4-0.5l0.4-1.3
						c0-0.1,0.1-0.2,0.2-0.2l1.9-1.5c-0.1,0-0.1,0.1-0.2,0.2L243.6,45.5z"/>
					<path fill="#681815" d="M238.2,47.7c0,0,0-0.1,0-0.1c0,0,0,0,0,0c0-0.1,0-0.1,0.1-0.1c0,0,0,0,0,0l1.9-1.5c0,0-0.1,0.1-0.1,0.1
						c0,0,0,0.1,0,0.2c0,0,0,0,0,0.1c0,0.1,0,0.1,0.1,0.2c0,0,0,0.1,0,0.1c0.1,0.1,0.1,0.2,0.2,0.3l1.3,1.6c0.1,0.1,0.1,0.2,0.2,0.3
						c0,0,0,0.1,0.1,0.1c0,0.1,0.1,0.1,0.1,0.2c0,0,0,0.1,0.1,0.1c0,0.1,0.1,0.1,0.1,0.2c0,0,0,0.1,0.1,0.1c0,0.1,0.1,0.1,0.1,0.2
						c0,0,0,0,0,0.1c0,0,0,0,0,0.1c0,0.1,0.1,0.2,0.1,0.3c0,0,0,0.1,0,0.1c0,0.1,0.1,0.2,0.1,0.3c0,0,0,0,0,0c0,0.1,0,0.1,0,0.2
						l0,1.6c0,0.1,0,0.2,0,0.3c0,0,0,0.1,0,0.1c0,0.1,0.1,0.2,0.1,0.3c0,0,0,0,0,0c0.1,0.1,0.1,0.1,0.2,0.2c0,0,0,0,0,0
						c0.1,0,0.2,0.1,0.2,0.1c0.1,0,0.2,0,0.3,0l1.2-0.3c0.1,0,0.3,0,0.5,0c0,0,0.1,0,0.2,0c0,0,0.1,0,0.1,0c0.1,0,0.1,0,0.2,0.1
						c0.1,0,0.1,0.1,0.2,0.1c0.1,0,0.1,0.1,0.2,0.1c0,0,0.1,0,0.1,0c0.1,0,0.1,0.1,0.2,0.1c0,0,0.1,0,0.1,0.1
						c0.1,0.1,0.2,0.2,0.3,0.2l1.5,1.3c0.1,0.1,0.2,0.1,0.3,0.2c0,0,0,0,0,0c0.1,0,0.2,0.1,0.2,0.1c0,0,0.1,0,0.1,0c0,0,0.1,0,0.1,0
						l0,0l0,0l-1.9,1.5c0,0-0.1,0-0.2,0c0,0,0,0,0,0c-0.1,0-0.1,0-0.2-0.1c0,0,0,0,0,0c0,0,0,0,0,0c-0.1,0-0.2-0.1-0.3-0.2l-1.5-1.3
						c-0.1-0.1-0.2-0.2-0.3-0.2c0,0-0.1,0-0.1-0.1c-0.1,0-0.2-0.1-0.2-0.1c-0.1,0-0.1-0.1-0.2-0.1c-0.1,0-0.1-0.1-0.2-0.1
						c-0.1,0-0.1,0-0.2-0.1c-0.1,0-0.2-0.1-0.3-0.1c-0.2,0-0.4,0-0.5,0l-1.2,0.3c-0.1,0-0.2,0-0.3,0c0,0,0,0,0,0
						c-0.1,0-0.1,0-0.2-0.1c0,0,0,0,0,0c0,0,0,0,0,0c0,0,0,0-0.1,0c0,0-0.1-0.1-0.1-0.1c0,0,0,0,0,0c0-0.1-0.1-0.1-0.1-0.2
						c0,0,0,0,0-0.1c0,0,0-0.1,0-0.1c0,0,0-0.1,0-0.1c0-0.1,0-0.1,0-0.2l0-1.6c0-0.1,0-0.1,0-0.2c0-0.1,0-0.2-0.1-0.3
						c0,0,0-0.1,0-0.1c0-0.1-0.1-0.2-0.1-0.3c0,0,0-0.1,0-0.1c0-0.1-0.1-0.1-0.1-0.2c0,0,0-0.1-0.1-0.1c0-0.1-0.1-0.1-0.1-0.2
						c0,0,0-0.1-0.1-0.1c0-0.1-0.1-0.1-0.1-0.2c0,0,0-0.1-0.1-0.1c-0.1-0.1-0.1-0.2-0.2-0.3l-1.3-1.6c-0.1-0.1-0.1-0.2-0.2-0.3
						c0,0,0-0.1,0-0.1c0,0-0.1-0.1-0.1-0.1c0,0,0,0,0,0C238.2,47.8,238.2,47.8,238.2,47.7C238.2,47.8,238.2,47.8,238.2,47.7z"/>
					<path fill="#681815" d="M200,30.1C200,30.1,200,30.1,200,30.1C200,30.1,200,30,200,30.1C200,30,200,30,200,30.1
						c0-0.1,0-0.1,0-0.1c0,0,0,0,0-0.1c0,0,0,0,0,0c0,0,0-0.1,0.1-0.1l1.7-1.3c0,0-0.1,0-0.1,0.1c0,0,0,0,0,0c0,0,0,0,0,0.1
						c0,0,0,0.1,0,0.1c0,0,0,0,0,0c0,0,0,0,0,0c0,0,0,0.1,0,0.1c0,0,0,0,0,0c0,0.1,0.1,0.1,0.1,0.2c0,0,0,0,0,0
						c0-0.1,0.1-0.1,0.1-0.2c0,0,0,0,0-0.1c0-0.1,0.1-0.2,0.1-0.3c0-0.1,0-0.2,0-0.3l-0.1-1.4c0-0.1,0-0.2,0-0.2c0,0,0,0,0,0
						c0,0,0,0,0,0c0-0.1,0-0.1,0.1-0.1l1.7-1.3c0,0-0.1,0.1-0.1,0.1c0,0,0,0,0,0c0,0.1,0,0.1,0,0.2l0.1,1.4c0,0.1,0,0.2,0,0.3
						c0,0,0,0,0,0c0,0.1,0,0.2-0.1,0.3c0,0,0,0,0,0.1c0,0.1-0.1,0.1-0.1,0.2c0,0,0,0,0,0.1c-0.1,0.1-0.1,0.1-0.2,0.2l-1.4,1.1
						c0,0,0,0,0,0c0.1,0.1,0.1,0.1,0.2,0.2c0,0,0.1,0.1,0.1,0.1l1.3,1c0,0,0.1,0,0.1,0.1c0,0,0,0,0,0c0.1,0.1,0.2,0.2,0.3,0.3
						c0,0,0,0,0,0c0.1,0.1,0.2,0.2,0.3,0.4c0,0,0,0,0,0c0.1,0.1,0.2,0.3,0.3,0.4c0,0,0,0,0,0.1c0.1,0.1,0.1,0.3,0.2,0.4c0,0,0,0,0,0
						c0,0,0,0.1,0,0.1l0.5,1.5c0,0.1,0,0.1,0.1,0.2c0,0.1,0,0.1,0.1,0.2c0,0,0,0.1,0.1,0.1c0,0,0.1,0.1,0.1,0.1c0,0,0.1,0.1,0.1,0.1
						c0,0,0,0,0,0c0,0,0,0,0.1,0l1.2-0.9c0.2-0.2,0.6-0.2,1-0.2c0,0,0.1,0,0.1,0c0,0,0,0,0,0c0.1,0,0.2,0.1,0.3,0.1l1.3,0.7
						c0.1,0.1,0.2,0.1,0.3,0.1c0.1,0,0.2,0,0.2,0l-1.7,1.3c0,0-0.1,0-0.2,0c0,0,0,0,0,0c-0.1,0-0.1,0-0.2-0.1l-1.3-0.7
						c-0.1-0.1-0.2-0.1-0.3-0.1c-0.1,0-0.1,0-0.2,0c-0.1,0-0.3,0-0.4,0l-1.4,1.1c-0.1,0.1-0.2,0.1-0.3,0.1c0,0,0,0,0,0
						c0,0-0.1,0-0.1,0c0,0,0,0,0,0c0,0,0,0,0,0c0,0,0,0,0,0c0,0,0,0,0,0c0,0-0.1-0.1-0.1-0.1c0,0,0-0.1-0.1-0.1c0,0-0.1-0.1-0.1-0.2
						c0,0,0,0,0-0.1c0,0,0-0.1,0-0.1l-0.5-1.5c0-0.1,0-0.1-0.1-0.2c0-0.1-0.1-0.3-0.2-0.4c0,0,0,0,0-0.1c-0.1-0.1-0.2-0.3-0.3-0.4
						c0,0,0,0,0,0c-0.1-0.1-0.2-0.3-0.3-0.4c0,0,0,0,0,0c-0.1-0.1-0.2-0.2-0.3-0.3c0,0-0.1-0.1-0.1-0.1l-1.3-1c0,0-0.1,0-0.1-0.1
						c0,0,0,0,0,0c-0.1-0.1-0.1-0.1-0.2-0.2c0,0,0,0,0,0c-0.1-0.1-0.1-0.1-0.1-0.2c0,0,0,0,0,0c0,0,0,0,0,0
						C200,30.1,200,30.1,200,30.1C200,30.1,200,30.1,200,30.1z"/>
					<path fill="#681815" d="M219.1,67.2c0,0,0-0.1,0-0.1c0,0,0,0,0,0c0,0,0-0.1,0-0.1c0,0,0,0,0-0.1c0-0.1,0.1-0.1,0.2-0.2l1.6-1.3
						c0,0,0.1-0.1,0.1-0.1c0,0,0-0.1,0.1-0.1c0-0.1,0.1-0.1,0.1-0.2c0,0,0-0.1,0-0.1c0-0.1,0-0.1,0-0.2c0,0,0-0.1,0-0.1
						c0-0.1,0-0.2,0-0.3c0,0,0-0.1,0-0.1c0-0.1,0-0.3,0-0.4c0,0,0,0,0,0c0-0.1,0-0.2-0.1-0.3l-0.6-2.3c0-0.1,0-0.2,0-0.3
						c0,0,0,0,0,0c0-0.1,0-0.2,0-0.3c0,0,0,0,0,0c0,0,0,0,0-0.1c0,0,0,0,0,0c0,0,0-0.1,0.1-0.1l2.6-1.9c0,0-0.1,0.1-0.1,0.1
						c0,0,0,0,0,0c0,0,0,0.1,0,0.1c0,0.1,0,0.2,0,0.3c0,0.1,0,0.2,0,0.3l0.6,2.3c0,0.1,0,0.2,0.1,0.3c0,0,0,0,0,0c0,0,0,0,0,0
						c0,0.1,0,0.3,0,0.4c0,0,0,0.1,0,0.1c0,0.1,0,0.2,0,0.3c0,0,0,0.1,0,0.1c0,0,0,0,0,0.1c0,0.1,0,0.1,0,0.2c0,0,0,0.1,0,0.1
						c0,0.1,0,0.1-0.1,0.2c0,0,0,0.1-0.1,0.1c0,0.1-0.1,0.1-0.1,0.2c0,0,0,0.1-0.1,0.1c-0.1,0.1-0.1,0.1-0.2,0.2l-1.6,1.2
						c0,0,0,0.1,0,0.1c0,0,0,0.1,0,0.1c0,0,0,0,0,0.1c0,0.1,0,0.1,0,0.2c0,0.1,0.1,0.2,0.1,0.2c0,0,0,0,0.1,0.1
						c0,0.1,0.1,0.1,0.2,0.2c0,0,0.1,0,0.1,0.1c0.1,0.1,0.2,0.2,0.3,0.2l2.1,1.2c0.1,0.1,0.2,0.1,0.3,0.2c0,0,0.1,0.1,0.1,0.1
						c0.1,0.1,0.1,0.1,0.2,0.2c0,0,0,0,0,0c0,0,0,0,0,0c0.1,0.1,0.3,0.3,0.4,0.4c0,0,0.1,0.1,0.1,0.1c0.1,0.2,0.3,0.3,0.4,0.5
						c0,0,0,0,0,0c0.1,0.2,0.2,0.3,0.3,0.5c0,0,0.1,0.1,0.1,0.1c0.1,0.2,0.2,0.3,0.3,0.5l1.1,2.3c0,0.1,0.1,0.2,0.2,0.3l2.3-1.7
						c0.4-0.3,0.9-0.4,1.4-0.3c0,0,0.1,0,0.1,0c0,0,0,0,0.1,0l2,0.5c0.1,0,0.1,0,0.2,0c0.2,0,0.3,0,0.4-0.1l-2.6,1.9
						c-0.1,0.1-0.2,0.1-0.4,0.1c0,0-0.1,0-0.1,0c0,0,0,0-0.1,0l-2-0.5c-0.1,0-0.1,0-0.2,0c-0.4-0.1-0.8,0-1.2,0.2c0,0,0,0,0,0
						c0,0,0,0,0,0.1c0.1,0.1,0.1,0.2,0.2,0.2c0,0,0,0,0,0c0.1,0.1,0.1,0.1,0.2,0.1c0,0,0,0,0.1,0c0.1,0,0.1,0.1,0.2,0.1
						c0.1,0,0.2,0,0.3-0.1l-2.6,1.9c-0.1,0.1-0.2,0.1-0.3,0.1c0,0,0,0,0,0c0,0-0.1,0-0.1-0.1c0,0,0,0,0,0c0,0,0,0-0.1,0
						c0,0-0.1,0-0.1-0.1c0,0-0.1,0-0.1-0.1c0,0,0,0,0,0c-0.1-0.1-0.1-0.1-0.2-0.2c0,0,0,0,0-0.1c-0.1-0.1-0.1-0.2-0.2-0.3l-1.1-2.3
						c-0.1-0.2-0.2-0.3-0.3-0.5c0,0-0.1-0.1-0.1-0.1c-0.1-0.2-0.2-0.3-0.3-0.5c0,0,0,0,0,0c-0.1-0.2-0.3-0.3-0.4-0.5
						c0,0-0.1-0.1-0.1-0.1c-0.1-0.1-0.3-0.3-0.4-0.4c0,0,0,0,0,0c-0.1-0.1-0.1-0.1-0.2-0.2c0,0-0.1-0.1-0.1-0.1
						c-0.1-0.1-0.2-0.2-0.3-0.2l-2.1-1.2c-0.1-0.1-0.2-0.2-0.3-0.2c0,0,0,0,0,0c0,0,0,0,0,0c-0.1-0.1-0.1-0.1-0.2-0.2
						c0,0,0,0-0.1-0.1c-0.1-0.1-0.1-0.2-0.1-0.2c0,0,0,0,0,0C219.1,67.4,219.1,67.3,219.1,67.2C219.1,67.2,219.1,67.2,219.1,67.2
						C219.1,67.2,219.1,67.2,219.1,67.2z"/>
				</g>
				<g>
					<path fill="#FFAE31" d="M223.5,58.3c-0.3,0-0.4,0.2-0.3,0.8l0.6,2.3c0.2,0.9,0,2-0.6,2.4l-1.3,0.9c-0.5,0.4-0.3,1.1,0.6,1.5
						l2.1,1.2c0.8,0.5,1.9,1.6,2.4,2.6l1.1,2.3c0.3,0.6,0.6,0.9,0.9,0.9c0.2,0,0.4-0.1,0.5-0.4l0.7-1.6c0.3-0.6,1.1-0.9,1.8-0.8
						c0.1,0,0.1,0,0.2,0l2,0.5c0.1,0,0.1,0,0.2,0c0.7,0.1,0.7-0.4,0.1-1.2l-1.6-2.1c-0.7-0.9-1.2-2.3-1.1-3.1l0.1-2
						c0-0.7-0.3-1.2-0.9-1.3c-0.1,0-0.2,0-0.3,0l-1.7,0.2c-0.1,0-0.3,0-0.5,0c-0.7-0.1-1.6-0.5-2.2-1.1l-1.9-1.8
						C223.9,58.5,223.7,58.4,223.5,58.3z"/>
				</g>
			</g>
		</g>
		<g>
			<path fill="#FFAE31" d="M220.7,30.6c-0.4-0.1-0.6,0.2-0.6,0.9l-0.1,3c0,1.2-0.9,2.3-2,2.5l-2.5,0.3c-1,0.1-0.9,1.1,0.2,2.1
				l2.8,2.5c1.2,1,2.4,3,2.7,4.4l0.8,3.3c0.2,0.9,0.7,1.5,1.2,1.6c0.2,0,0.5,0,0.7-0.2l1.8-1.4c0.5-0.4,1.2-0.5,2-0.3
				c0.5,0.1,1.1,0.3,1.6,0.6l3,1.7c0.3,0.2,0.5,0.3,0.7,0.3c0.6,0.1,0.8-0.5,0.2-1.5l-1.7-3.4c-0.7-1.4-0.9-3.3-0.5-4.2l1.1-2.3
				c0.4-0.9-0.2-1.9-1.4-2.2l-2.9-0.7c-1.2-0.3-2.9-1.6-3.9-2.8l-2.3-3.1C221.5,31,221,30.6,220.7,30.6z"/>
		</g>
		<g>
			<path fill="#FFAE31" d="M244.4,44c-0.2,0-0.3,0.1-0.4,0.3l-0.4,1.3c-0.2,0.5-0.8,0.8-1.4,0.7c0,0,0,0-0.1,0l-1.5-0.3c0,0,0,0,0,0
				c-0.6-0.1-0.6,0.3-0.1,1l1.3,1.6c0.5,0.6,1,1.7,1,2.3l0,1.6c0,0.5,0.3,0.9,0.6,1c0.1,0,0.2,0,0.3,0l1.2-0.3c0.1,0,0.3,0,0.5,0
				c0.5,0.1,1.1,0.3,1.5,0.7l1.5,1.3c0.2,0.2,0.4,0.3,0.5,0.3c0.2,0,0.3-0.2,0.2-0.7l-0.5-1.7c-0.2-0.7-0.1-1.6,0.3-1.9l0.9-0.8
				c0.4-0.3,0.2-0.8-0.5-1.2l-1.5-0.8c-0.6-0.3-1.5-1.2-1.8-1.9l-0.9-1.7C244.8,44.2,244.6,44,244.4,44z"/>
		</g>
		<g>
			<path fill="#FFAE31" d="M203.9,25.1c-0.2,0-0.3,0.1-0.2,0.4l0.1,1.4c0,0.6-0.3,1.1-0.7,1.3l-1.1,0.3c-0.4,0.1-0.4,0.6,0.2,1
				l1.3,1c0.5,0.4,1.1,1.3,1.3,1.9l0.5,1.5c0.1,0.4,0.3,0.7,0.6,0.7c0.1,0,0.2,0,0.3-0.1l0.7-0.8c0.2-0.2,0.6-0.3,1-0.2
				c0.2,0,0.3,0.1,0.5,0.2l1.3,0.7c0.1,0.1,0.2,0.1,0.3,0.1c0.3,0.1,0.4-0.2,0.1-0.7l-0.9-1.5c-0.4-0.6-0.5-1.5-0.4-2l0.4-1.1
				c0.1-0.4-0.1-0.9-0.6-0.9c0,0,0,0,0,0l-1.3-0.2c0,0,0,0,0,0c-0.5-0.1-1.3-0.6-1.7-1.1l-1.1-1.3C204.2,25.2,204,25.1,203.9,25.1z"
				/>
		</g>
		<g opacity="0.2">
			<path fill="#FFFA00" d="M233.3,51.9c-0.2,0-0.5-0.1-0.7-0.3l-3-1.7c-0.5-0.3-1.1-0.5-1.6-0.6c-0.8-0.1-1.6,0-2,0.3L224,51
				c-0.2,0.2-0.5,0.2-0.7,0.2c-0.5-0.1-1-0.7-1.2-1.6l-0.8-3.3c-0.3-1.4-1.5-3.3-2.7-4.4l-2.8-2.5c-1.2-1-1.3-2-0.2-2.1l1.6-0.2
				c5.4,6.1,12.6,10.8,16.1,12.9l0.2,0.4C234,51.4,233.9,52,233.3,51.9z"/>
		</g>
		<g opacity="0.2">
			<path fill="#FFFA00" d="M248.6,52.9l0.5,1.7c0.1,0.5,0.1,0.7-0.2,0.7c-0.1,0-0.3-0.1-0.5-0.3l-1.5-1.3c-0.4-0.4-1-0.6-1.5-0.7
				c-0.2,0-0.4,0-0.5,0l-1.2,0.3c-0.1,0-0.2,0-0.3,0c-0.4-0.1-0.6-0.4-0.6-1l0-1.6c0-0.6-0.4-1.7-1-2.3l-1.3-1.6c-0.5-0.6-0.5-1,0-1
				c2.8,2.9,5.9,4.3,8.4,5l0,0C248.5,51.3,248.4,52.2,248.6,52.9z"/>
		</g>
		<g opacity="0.2">
			<path fill="#FFFA00" d="M210,34.3c-0.1,0-0.2,0-0.3-0.1l-1.3-0.7c-0.2-0.1-0.3-0.1-0.5-0.2c-0.4-0.1-0.8,0-1,0.2l-0.7,0.8
				c-0.1,0.1-0.2,0.1-0.3,0.1c-0.2,0-0.4-0.3-0.6-0.7l-0.5-1.5c-0.2-0.6-0.8-1.5-1.3-1.9l-1.3-1c-0.5-0.4-0.6-0.9-0.2-1l1.1-0.3
				c0.3-0.1,0.5-0.3,0.6-0.6c1.5,1.7,3.5,3.5,5.8,5l0.6,1.1C210.4,34.1,210.3,34.4,210,34.3z"/>
		</g>
		<g opacity="0.2">
			<path fill="#FFFA00" d="M234.3,69.9c0.6,0.8,0.5,1.3-0.1,1.2c-0.1,0-0.1,0-0.2,0l-2-0.5c-0.1,0-0.1,0-0.2,0
				c-0.8-0.1-1.6,0.2-1.8,0.8l-0.7,1.6c-0.1,0.3-0.3,0.4-0.5,0.4c-0.3,0-0.6-0.4-0.9-0.9l-1.1-2.3c-0.4-1-1.5-2.1-2.4-2.6l-2.1-1.2
				c-0.8-0.5-1.1-1.2-0.6-1.5l1.3-0.9c0.3-0.2,0.6-0.7,0.6-1.3c2.6,1.9,5.8,4.1,8.8,5.2c0,0,0,0.1,0.1,0.1L234.3,69.9z"/>
		</g>
	</g>
</g>
</svg>
