<svg xmlns="http://www.w3.org/2000/svg" width="94" height="44" viewBox="0 0 94 44"><path fill="#313D5F" d="M40.5.786c.34 0 .633.059.877.173.244.113.439.281.581.498.142.217.233.483.268.794.035.311.016.666-.062 1.061l-5.821 20.881c-.119.337-.269.63-.452.88s-.398.456-.647.62c-.248.164-.53.286-.844.367-.315.081-.663.121-1.044.121h-4.585c-.382 0-.72-.042-1.015-.127-.295-.085-.546-.211-.754-.38-.208-.169-.372-.38-.492-.633s-.197-.548-.229-.886l-.596-9.179c-.009-.318-.006-.641.003-.947.01-.306.026-.595.043-.847l.052-.621.028-.27-.075.24-.175.625c-.075.256-.166.552-.273.863-.107.311-.231.638-.371.957l-4.129 9.179c-.161.337-.35.632-.566.886-.217.253-.461.464-.733.633-.272.169-.571.296-.899.38-.327.085-.682.127-1.065.127h-4.661c-.392 0-.729-.042-1.013-.127-.284-.085-.516-.211-.697-.38-.181-.169-.312-.38-.396-.633-.083-.253-.119-.548-.109-.886l2.385-20.843c.064-.395.175-.75.326-1.061.151-.311.344-.577.57-.794.226-.217.487-.385.776-.498.289-.113.606-.173.946-.173h2.572c.296 0 .548.042.757.125.21.084.377.21.503.378.126.169.212.38.258.635.046.255.052.553.021.896l-1.436 12.509c-.034.327-.078.652-.126.957-.048.305-.098.589-.146.835l-.123.602-.058.259.113-.23.227-.605c.094-.25.206-.54.336-.85.13-.31.277-.639.442-.966l5.719-12.543c.15-.334.315-.626.496-.876s.378-.458.593-.625c.215-.166.448-.291.701-.374.253-.083.526-.125.821-.125h1.479c.288 0 .541.042.761.125.219.083.404.208.554.374.15.167.265.375.344.625.079.25.123.542.131.876l.851 12.543c.029.336.046.665.055.972.009.307.01.59.007.834l-.016.595-.013.254c.018 0 .042-.084.073-.231l.12-.606c.049-.25.109-.541.182-.851.072-.31.158-.64.258-.967l3.575-12.543c.09-.334.205-.626.346-.876s.308-.458.502-.625c.194-.166.414-.291.662-.374.248-.083.523-.125.826-.125h2.481zm5.37 0c-.317 0-.597.048-.838.144-.241.096-.443.239-.604.43-.162.191-.283.428-.362.713-.079.285-.117.616-.112.993l.292 20.806c.005.373.065.704.18.991.115.287.283.529.504.725.221.196.493.345.816.445.323.1.696.151 1.117.151h13.594c.421 0 .784-.051 1.085-.151.302-.1.543-.249.723-.444.18-.195.298-.437.352-.724.055-.286.047-.617-.026-.989l-.35-1.778c-.072-.372-.19-.702-.349-.988-.16-.286-.362-.527-.604-.722-.243-.195-.525-.343-.846-.443-.321-.1-.68-.151-1.075-.151h-7.425l-.305-3.259h4.83c.382 0 .71-.049.985-.146.275-.097.495-.242.66-.434.165-.192.273-.432.325-.719.052-.287.046-.62-.019-1l-.3-1.766c-.064-.371-.168-.7-.31-.984-.142-.285-.323-.525-.541-.719-.217-.194-.471-.342-.759-.441-.288-.099-.611-.15-.966-.15h-4.504l-.288-3.066h6.069c.335 0 .623-.051.862-.15s.428-.246.567-.44c.139-.194.227-.433.262-.717.036-.284.019-.611-.051-.981l-.334-1.757c-.072-.378-.178-.709-.316-.993-.138-.284-.307-.522-.506-.713-.199-.191-.428-.334-.684-.43-.257-.096-.541-.144-.851-.144h-9.898zm-39.605 28.702c-.228 0-.438.026-.63.077-.192.051-.366.128-.52.229-.154.102-.289.228-.403.38-.114.151-.208.328-.28.528l-3.934 11.051c-.071.198-.099.373-.086.525.013.152.068.28.164.384.096.104.233.183.41.236.177.053.395.08.652.08h1.911c.257 0 .492-.027.702-.08.211-.053.398-.132.561-.236.163-.104.301-.232.414-.384.113-.152.201-.327.263-.525l1.081-3.441h3.202c.246 0 .47-.026.672-.077.201-.051.38-.128.535-.23.155-.102.286-.229.392-.381.106-.152.187-.329.241-.53l.252-.919c.055-.202.072-.38.052-.534-.021-.154-.079-.283-.175-.388-.095-.104-.228-.183-.396-.236-.168-.053-.373-.08-.613-.08h-3.1l.653-2.079h4.048c.235 0 .449-.027.64-.08.191-.053.361-.131.507-.235.146-.103.27-.231.37-.382.1-.151.176-.325.229-.522l.246-.934c.053-.201.071-.378.053-.53-.018-.152-.071-.279-.16-.381-.088-.102-.212-.178-.371-.229-.159-.051-.352-.077-.581-.077h-7.001zm20.459 2.925c-.084-.432-.241-.828-.458-1.178-.217-.35-.494-.653-.82-.901-.326-.248-.7-.44-1.111-.566-.161-.051-.34-.095-.541-.13-.201-.036-.423-.064-.668-.086-.246-.022-.515-.037-.81-.047-.295-.01-.617-.015-.967-.015l-4.135-.003c-.228 0-.437.026-.624.077-.187.051-.353.128-.497.229-.144.102-.265.229-.364.381-.098.152-.174.329-.224.53l-2.802 11.051c-.05.198-.06.373-.03.524.029.152.097.28.204.383.107.103.251.182.434.235.183.053.403.08.66.08h1.911c.257 0 .489-.027.694-.08.205-.053.384-.132.536-.235.152-.103.277-.231.375-.383.098-.152.168-.327.21-.524l.623-2.952h1.154l1.492 3.31c.078.16.176.294.29.404.114.111.245.199.39.267.144.068.302.116.47.147.168.031.346.045.531.045l2.222.003c.287 0 .544-.034.76-.1.216-.066.391-.164.513-.291.122-.127.192-.284.198-.467.006-.183-.053-.394-.186-.629l-1.648-3.009-.211-.357-.19-.277-.136-.186-.05-.083c.431-.201.81-.452 1.141-.737.331-.284.612-.602.846-.938.234-.335.42-.688.56-1.043.14-.354.234-.711.284-1.053.07-.494.058-.963-.026-1.396zm-4.733 1.588c-.048.253-.124.468-.228.649-.104.181-.237.327-.398.442-.162.115-.352.198-.572.252-.22.054-.47.08-.75.08h-1.006l.541-2.567h.701l.354.005.312.021.278.046.253.079c.148.056.259.124.34.199.081.076.133.159.165.247.031.088.042.18.041.272l-.031.275m8.846-4.51c-.228 0-.432.026-.613.077-.18.051-.336.128-.467.229-.131.102-.236.228-.315.38-.079.151-.132.328-.157.528l-1.388 11.051c-.025.198-.013.373.035.525.048.152.133.28.253.384.12.104.275.183.465.236.189.053.413.08.669.08h1.911c.257 0 .485-.027.684-.08.198-.053.367-.132.506-.236.139-.104.247-.232.325-.384.078-.152.125-.327.141-.525l.924-11.051c.017-.201.002-.377-.043-.528-.045-.151-.121-.278-.228-.38-.107-.102-.244-.178-.412-.229-.168-.051-.365-.077-.593-.077h-1.697zm6.821 0c-.228 0-.431.026-.608.077-.177.051-.328.128-.452.229-.124.102-.222.229-.291.381-.069.152-.111.329-.123.53l-.682 11.051c-.012.198.011.373.069.524.058.152.151.28.278.383.127.103.287.182.48.235.193.053.418.08.674.08h8.292c.257 0 .484-.027.678-.08.194-.053.357-.132.486-.235.13-.103.226-.231.289-.383.063-.152.091-.327.084-.524l-.032-.942c-.007-.197-.046-.372-.117-.524-.071-.151-.173-.279-.306-.383-.133-.103-.296-.182-.488-.235-.192-.053-.414-.08-.663-.08h-4.69l.032-1.729h3.112c.246 0 .463-.026.649-.077.187-.051.343-.128.469-.23.125-.102.219-.229.281-.381.062-.152.091-.329.087-.53l-.02-.939c-.004-.197-.039-.372-.105-.523-.066-.151-.162-.279-.288-.383-.126-.103-.281-.182-.464-.235-.183-.053-.394-.08-.633-.08h-3.021l.032-1.629h4.157c.23 0 .433-.027.608-.079.175-.053.322-.131.439-.234.117-.103.205-.231.261-.382.057-.151.082-.326.076-.523l-.029-.934c-.006-.201-.041-.378-.106-.53-.064-.152-.157-.279-.276-.381-.12-.102-.266-.178-.439-.229-.173-.051-.371-.077-.593-.077h-7.107zm40.253 3.872c-.632-.827-1.396-1.533-2.271-2.106-.874-.573-1.858-1.014-2.928-1.311-1.07-.297-2.226-.452-3.445-.452h-4.179c-.228 0-.425.026-.589.077-.164.051-.295.128-.393.229-.098.102-.163.228-.193.38-.03.151-.026.328.013.528l2.164 11.054c.038.198.107.373.204.524.097.152.223.28.376.383.153.103.333.182.539.235s.438.08.695.08l4.709.003c1.374 0 2.57-.16 3.57-.466.999-.306 1.802-.759 2.39-1.343.588-.584.962-1.301 1.103-2.135.141-.834.05-1.786-.291-2.842-.343-1.061-.842-2.01-1.474-2.838zm-6.3 6.236h-1.045l-1.603-6.736h.985c.547 0 1.065.069 1.542.208.478.139.916.346 1.305.624.389.278.73.625 1.012 1.043.282.418.506.905.662 1.463.156.558.206 1.05.156 1.473-.05.423-.201.778-.446 1.064-.245.285-.586.501-1.016.645-.429.143-.948.216-1.552.216m10.104-10.019c-.615.202-1.122.497-1.5.874-.379.376-.63.834-.732 1.358-.102.525-.056 1.117.159 1.762.358 1.078 1.054 1.869 1.906 2.472.852.603 1.86 1.017 2.841 1.341.981.324 1.934.558 2.677.8.743.242 1.276.492 1.416.85.032.08.045.158.032.229-.013.071-.052.136-.124.191-.073.055-.179.1-.327.131-.148.031-.337.049-.576.049-.325 0-.641-.038-.94-.096-.3-.059-.583-.139-.845-.225s-.501-.176-.713-.256c-.211-.08-.395-.149-.543-.191l-.312-.11-.285-.08-.258-.049-.233-.017-.284.033-.24.101-.199.173-.161.248-.533 1.034c-.112.211-.158.4-.152.571.005.17.062.322.154.459.093.136.221.258.371.367.15.11.321.207.498.297.295.15.672.308 1.108.459.437.152.934.298 1.467.425.534.127 1.105.236 1.691.313.586.077 1.186.122 1.779.122 1.018 0 1.866-.128 2.55-.357.684-.229 1.203-.558 1.564-.961.36-.402.562-.877.61-1.398.048-.52-.057-1.086-.311-1.669-.472-1.085-1.237-1.868-2.129-2.456-.892-.588-1.91-.981-2.888-1.287l-2.642-.763c-.728-.238-1.248-.496-1.392-.881-.033-.089-.045-.171-.031-.246.014-.075.055-.141.127-.196.072-.055.176-.099.316-.13s.318-.047.537-.047c.235.001.456.02.669.053.213.033.419.08.623.136.205.056.408.122.618.192l.653.22.275.092.265.074.251.05.233.018.265-.034c.081-.024.155-.06.219-.112.065-.052.12-.119.165-.205.045-.085.079-.189.101-.312l.175-1.068c.022-.164.018-.322-.013-.474-.032-.152-.092-.299-.184-.439s-.217-.275-.378-.404-.358-.251-.595-.368c-.247-.117-.551-.236-.895-.349-.345-.113-.73-.22-1.139-.313-.409-.093-.843-.17-1.284-.225-.441-.055-.889-.086-1.329-.086-.811.001-1.533.108-2.148.31zm-32.818-.013c-.171.051-.314.128-.427.229-.113.102-.196.229-.248.381-.052.152-.074.329-.064.53l.544 11.051c.01.198.053.373.128.525.075.152.182.28.32.384.138.104.307.183.506.236.199.053.427.08.685.08h1.911c.257 0 .481-.027.67-.08.189-.053.344-.132.465-.236.121-.104.207-.232.259-.384.052-.152.069-.327.051-.525l-.359-3.93c-.021-.225-.058-.491-.101-.763l-.138-.803-.114-.634-.029-.257.165.281.377.617c.152.243.327.513.51.783s.376.539.564.779l3.268 4.323c.119.146.247.271.384.376.137.105.285.19.444.257.159.067.331.116.516.148.185.032.384.047.598.047h2.296c.256 0 .478-.027.665-.08.187-.053.338-.132.453-.235.115-.103.194-.231.235-.383.041-.152.046-.327.012-.524l-1.916-11.054c-.035-.201-.097-.377-.183-.528-.086-.151-.198-.278-.334-.38-.136-.102-.295-.178-.478-.229-.183-.051-.389-.077-.618-.077h-1.696c-.228 0-.425.026-.591.077-.165.051-.299.128-.401.229-.102.102-.172.228-.21.38-.038.151-.043.328-.016.528l.515 3.932c.03.225.078.492.133.767l.172.809.141.64.04.26-.175-.281-.397-.619c-.16-.244-.342-.516-.532-.788s-.389-.544-.581-.788l-3.046-4.323c-.104-.146-.216-.27-.337-.374-.121-.104-.251-.189-.393-.256-.142-.066-.295-.115-.462-.146-.167-.032-.347-.047-.544-.047l-2.035-.003c-.231.002-.431.027-.602.078zm36.289-7.429c-.18 1.002-.721 1.786-1.527 2.385-.806.6-1.876 1.016-3.112 1.281-1.236.266-2.638.381-4.107.381l-7.915-.003c-.421 0-.805-.051-1.149-.151s-.648-.249-.909-.444c-.262-.195-.481-.437-.656-.724-.175-.286-.305-.617-.388-.989l-.913-4.079-3.745-16.73c-.084-.378-.116-.709-.096-.993.02-.284.092-.522.214-.713.122-.191.294-.334.515-.43.221-.096.491-.144.808-.144h6.056c1.138 0 2.247.138 3.301.415 1.054.277 2.052.692 2.968 1.247.916.555 1.749 1.25 2.472 2.085.724.835 1.337 1.811 1.813 2.929.21.493.37 1.004.471 1.511.101.507.144 1.009.117 1.485-.027.476-.123.926-.298 1.327-.175.401-.43.754-.774 1.036.835.256 1.586.612 2.256 1.032.671.42 1.261.906 1.775 1.421.513.515.95 1.061 1.312 1.601l.089.139c.319.493.58.98.778 1.433.641 1.472.823 2.691.644 3.692zm-16.88-15.38l1.037 3.419h2.086c.281 0 .499-.064.663-.171.165-.107.276-.257.345-.429.069-.172.095-.366.088-.561-.006-.195-.045-.391-.106-.567-.073-.212-.173-.424-.302-.622s-.286-.383-.472-.542c-.186-.158-.401-.29-.644-.383-.244-.092-.517-.145-.82-.145h-1.875zm8.46 11.335l-.047-.104c-.082-.198-.19-.4-.336-.595-.172-.229-.386-.448-.637-.638s-.54-.352-.86-.465c-.321-.114-.673-.18-1.054-.18h-2.687l.845 2.779.382 1.257h2.766c.387 0 .705-.066.958-.182.253-.115.441-.279.57-.474.129-.195.198-.421.213-.659.015-.239-.024-.491-.113-.739z"/></svg>